<?xml version="1.0" encoding="utf-8"?>
<svg xmlns="http://www.w3.org/2000/svg" xmlns:xlink="http://www.w3.org/1999/xlink" width="600" height="400" viewBox="0 0 2400 1600">
<defs>
  <clipPath id="clip0500">
    <rect x="0" y="0" width="2400" height="1600"/>
  </clipPath>
</defs>
<path clip-path="url(#clip0500)" d="
M0 1600 L2400 1600 L2400 0 L0 0  Z
  " fill="#ffffff" fill-rule="evenodd" fill-opacity="1"/>
<defs>
  <clipPath id="clip0501">
    <rect x="480" y="0" width="1681" height="1600"/>
  </clipPath>
</defs>
<path clip-path="url(#clip0500)" d="
M224.386 1440.48 L2321.26 1440.48 L2321.26 47.2441 L224.386 47.2441  Z
  " fill="#ffffff" fill-rule="evenodd" fill-opacity="1"/>
<defs>
  <clipPath id="clip0502">
    <rect x="224" y="47" width="2098" height="1394"/>
  </clipPath>
</defs>
<polyline clip-path="url(#clip0502)" style="stroke:#000000; stroke-width:2; stroke-opacity:0.1; fill:none" points="
  578.355,1440.48 578.355,47.2441 
  "/>
<polyline clip-path="url(#clip0502)" style="stroke:#000000; stroke-width:2; stroke-opacity:0.1; fill:none" points="
  999.245,1440.48 999.245,47.2441 
  "/>
<polyline clip-path="url(#clip0502)" style="stroke:#000000; stroke-width:2; stroke-opacity:0.1; fill:none" points="
  1420.13,1440.48 1420.13,47.2441 
  "/>
<polyline clip-path="url(#clip0502)" style="stroke:#000000; stroke-width:2; stroke-opacity:0.1; fill:none" points="
  1841.02,1440.48 1841.02,47.2441 
  "/>
<polyline clip-path="url(#clip0502)" style="stroke:#000000; stroke-width:2; stroke-opacity:0.1; fill:none" points="
  2261.91,1440.48 2261.91,47.2441 
  "/>
<polyline clip-path="url(#clip0502)" style="stroke:#000000; stroke-width:2; stroke-opacity:0.1; fill:none" points="
  224.386,1418.8 2321.26,1418.8 
  "/>
<polyline clip-path="url(#clip0502)" style="stroke:#000000; stroke-width:2; stroke-opacity:0.1; fill:none" points="
  224.386,1105.98 2321.26,1105.98 
  "/>
<polyline clip-path="url(#clip0502)" style="stroke:#000000; stroke-width:2; stroke-opacity:0.1; fill:none" points="
  224.386,793.166 2321.26,793.166 
  "/>
<polyline clip-path="url(#clip0502)" style="stroke:#000000; stroke-width:2; stroke-opacity:0.1; fill:none" points="
  224.386,480.35 2321.26,480.35 
  "/>
<polyline clip-path="url(#clip0502)" style="stroke:#000000; stroke-width:2; stroke-opacity:0.1; fill:none" points="
  224.386,167.534 2321.26,167.534 
  "/>
<polyline clip-path="url(#clip0500)" style="stroke:#000000; stroke-width:4; stroke-opacity:1; fill:none" points="
  224.386,1440.48 2321.26,1440.48 
  "/>
<polyline clip-path="url(#clip0500)" style="stroke:#000000; stroke-width:4; stroke-opacity:1; fill:none" points="
  224.386,1440.48 224.386,47.2441 
  "/>
<polyline clip-path="url(#clip0500)" style="stroke:#000000; stroke-width:4; stroke-opacity:1; fill:none" points="
  578.355,1440.48 578.355,1419.58 
  "/>
<polyline clip-path="url(#clip0500)" style="stroke:#000000; stroke-width:4; stroke-opacity:1; fill:none" points="
  999.245,1440.48 999.245,1419.58 
  "/>
<polyline clip-path="url(#clip0500)" style="stroke:#000000; stroke-width:4; stroke-opacity:1; fill:none" points="
  1420.13,1440.48 1420.13,1419.58 
  "/>
<polyline clip-path="url(#clip0500)" style="stroke:#000000; stroke-width:4; stroke-opacity:1; fill:none" points="
  1841.02,1440.48 1841.02,1419.58 
  "/>
<polyline clip-path="url(#clip0500)" style="stroke:#000000; stroke-width:4; stroke-opacity:1; fill:none" points="
  2261.91,1440.48 2261.91,1419.58 
  "/>
<polyline clip-path="url(#clip0500)" style="stroke:#000000; stroke-width:4; stroke-opacity:1; fill:none" points="
  224.386,1418.8 255.839,1418.8 
  "/>
<polyline clip-path="url(#clip0500)" style="stroke:#000000; stroke-width:4; stroke-opacity:1; fill:none" points="
  224.386,1105.98 255.839,1105.98 
  "/>
<polyline clip-path="url(#clip0500)" style="stroke:#000000; stroke-width:4; stroke-opacity:1; fill:none" points="
  224.386,793.166 255.839,793.166 
  "/>
<polyline clip-path="url(#clip0500)" style="stroke:#000000; stroke-width:4; stroke-opacity:1; fill:none" points="
  224.386,480.35 255.839,480.35 
  "/>
<polyline clip-path="url(#clip0500)" style="stroke:#000000; stroke-width:4; stroke-opacity:1; fill:none" points="
  224.386,167.534 255.839,167.534 
  "/>
<g clip-path="url(#clip0500)">
<text style="fill:#000000; fill-opacity:1; font-family:Arial,Helvetica Neue,Helvetica,sans-serif; font-size:48px; text-anchor:middle;" transform="rotate(0, 578.355, 1494.48)" x="578.355" y="1494.48">10</text>
</g>
<g clip-path="url(#clip0500)">
<text style="fill:#000000; fill-opacity:1; font-family:Arial,Helvetica Neue,Helvetica,sans-serif; font-size:48px; text-anchor:middle;" transform="rotate(0, 999.245, 1494.48)" x="999.245" y="1494.48">20</text>
</g>
<g clip-path="url(#clip0500)">
<text style="fill:#000000; fill-opacity:1; font-family:Arial,Helvetica Neue,Helvetica,sans-serif; font-size:48px; text-anchor:middle;" transform="rotate(0, 1420.13, 1494.48)" x="1420.13" y="1494.48">30</text>
</g>
<g clip-path="url(#clip0500)">
<text style="fill:#000000; fill-opacity:1; font-family:Arial,Helvetica Neue,Helvetica,sans-serif; font-size:48px; text-anchor:middle;" transform="rotate(0, 1841.02, 1494.48)" x="1841.02" y="1494.48">40</text>
</g>
<g clip-path="url(#clip0500)">
<text style="fill:#000000; fill-opacity:1; font-family:Arial,Helvetica Neue,Helvetica,sans-serif; font-size:48px; text-anchor:middle;" transform="rotate(0, 2261.91, 1494.48)" x="2261.91" y="1494.48">50</text>
</g>
<g clip-path="url(#clip0500)">
<text style="fill:#000000; fill-opacity:1; font-family:Arial,Helvetica Neue,Helvetica,sans-serif; font-size:48px; text-anchor:end;" transform="rotate(0, 200.386, 1436.3)" x="200.386" y="1436.3">0.0</text>
</g>
<g clip-path="url(#clip0500)">
<text style="fill:#000000; fill-opacity:1; font-family:Arial,Helvetica Neue,Helvetica,sans-serif; font-size:48px; text-anchor:end;" transform="rotate(0, 200.386, 1123.48)" x="200.386" y="1123.48">0.2</text>
</g>
<g clip-path="url(#clip0500)">
<text style="fill:#000000; fill-opacity:1; font-family:Arial,Helvetica Neue,Helvetica,sans-serif; font-size:48px; text-anchor:end;" transform="rotate(0, 200.386, 810.666)" x="200.386" y="810.666">0.4</text>
</g>
<g clip-path="url(#clip0500)">
<text style="fill:#000000; fill-opacity:1; font-family:Arial,Helvetica Neue,Helvetica,sans-serif; font-size:48px; text-anchor:end;" transform="rotate(0, 200.386, 497.85)" x="200.386" y="497.85">0.6</text>
</g>
<g clip-path="url(#clip0500)">
<text style="fill:#000000; fill-opacity:1; font-family:Arial,Helvetica Neue,Helvetica,sans-serif; font-size:48px; text-anchor:end;" transform="rotate(0, 200.386, 185.034)" x="200.386" y="185.034">0.8</text>
</g>
<g clip-path="url(#clip0500)">
<text style="fill:#000000; fill-opacity:1; font-family:Arial,Helvetica Neue,Helvetica,sans-serif; font-size:66px; text-anchor:middle;" transform="rotate(0, 1272.82, 1590.4)" x="1272.82" y="1590.4">Average number of subdivisions along the embedding axes</text>
</g>
<g clip-path="url(#clip0500)">
<text style="fill:#000000; fill-opacity:1; font-family:Arial,Helvetica Neue,Helvetica,sans-serif; font-size:66px; text-anchor:middle;" transform="rotate(-90, 57.6, 743.863)" x="57.6" y="743.863">Transfer entropy (bits)</text>
</g>
<polyline clip-path="url(#clip0502)" style="stroke:#000000; stroke-width:4; stroke-opacity:1; fill:none" points="
  283.732,1396.1 325.821,1231.01 367.91,1085.8 409.999,1041.9 452.088,942.823 494.177,858.005 536.266,727.34 578.355,666.005 620.444,623.592 662.533,627.491 
  704.622,484.327 746.711,530.743 788.8,388.786 830.889,341.991 872.978,337.55 915.067,328.947 957.156,286.624 999.245,86.6754 1041.33,255.37 1083.42,262.518 
  1125.51,354.699 1167.6,263.954 1209.69,376.705 1251.78,187.618 1293.87,161.781 1335.96,170.124 1378.05,219.978 1420.13,152.485 1462.22,198.991 1504.31,223.678 
  1546.4,112.828 1588.49,194.155 1630.58,243.502 1672.67,230.581 1714.76,119.532 1756.85,147.214 1798.94,144.516 1841.02,183.235 1883.11,204.942 1925.2,193.391 
  1967.29,288.899 2009.38,239.214 2051.47,285.464 2093.56,270.969 2135.65,282.641 2177.74,291.798 2219.83,252.76 2261.91,219.354 
  "/>
<polyline clip-path="url(#clip0502)" style="stroke:#ff0000; stroke-width:4; stroke-opacity:1; fill:none" points="
  283.732,1401.05 325.821,1377.46 367.91,1318.92 409.999,1366.93 452.088,1369.54 494.177,1367.36 536.266,1353.05 578.355,1299.69 620.444,1348.64 662.533,1249.76 
  704.622,1253.78 746.711,1255.01 788.8,1218.26 830.889,1170.37 872.978,1198.99 915.067,1164.35 957.156,1046.92 999.245,1082.39 1041.33,1100.7 1083.42,1168.47 
  1125.51,1017.45 1167.6,1063.4 1209.69,987.99 1251.78,1020.88 1293.87,1008.68 1335.96,957.954 1378.05,932.37 1420.13,924.138 1462.22,926.08 1504.31,785.892 
  1546.4,892.754 1588.49,935.728 1630.58,874.31 1672.67,846.869 1714.76,744.374 1756.85,901.185 1798.94,887.177 1841.02,913.113 1883.11,790.142 1925.2,858.163 
  1967.29,875.611 2009.38,786.394 2051.47,745.332 2093.56,768.03 2135.65,767.216 2177.74,740.589 2219.83,684.783 2261.91,747.799 
  "/>
<path clip-path="url(#clip0500)" d="
M1784.57 312.204 L2249.26 312.204 L2249.26 130.764 L1784.57 130.764  Z
  " fill="#ffffff" fill-rule="evenodd" fill-opacity="1"/>
<polyline clip-path="url(#clip0500)" style="stroke:#000000; stroke-width:4; stroke-opacity:1; fill:none" points="
  1784.57,312.204 2249.26,312.204 2249.26,130.764 1784.57,130.764 1784.57,312.204 
  "/>
<polyline clip-path="url(#clip0500)" style="stroke:#000000; stroke-width:4; stroke-opacity:1; fill:none" points="
  1808.57,191.244 1952.57,191.244 
  "/>
<g clip-path="url(#clip0500)">
<text style="fill:#000000; fill-opacity:1; font-family:Arial,Helvetica Neue,Helvetica,sans-serif; font-size:48px; text-anchor:start;" transform="rotate(0, 1976.57, 208.744)" x="1976.57" y="208.744">TE(x -&gt; y)</text>
</g>
<polyline clip-path="url(#clip0500)" style="stroke:#ff0000; stroke-width:4; stroke-opacity:1; fill:none" points="
  1808.57,251.724 1952.57,251.724 
  "/>
<g clip-path="url(#clip0500)">
<text style="fill:#000000; fill-opacity:1; font-family:Arial,Helvetica Neue,Helvetica,sans-serif; font-size:48px; text-anchor:start;" transform="rotate(0, 1976.57, 269.224)" x="1976.57" y="269.224">TE(y -&gt; x)</text>
</g>
</svg>
