<?xml version="1.0" encoding="utf-8"?>
<svg xmlns="http://www.w3.org/2000/svg" xmlns:xlink="http://www.w3.org/1999/xlink" width="600" height="400" viewBox="0 0 2400 1600">
<defs>
  <clipPath id="clip0200">
    <rect x="0" y="0" width="2400" height="1600"/>
  </clipPath>
</defs>
<path clip-path="url(#clip0200)" d="
M0 1600 L2400 1600 L2400 0 L0 0  Z
  " fill="#ffffff" fill-rule="evenodd" fill-opacity="1"/>
<defs>
  <clipPath id="clip0201">
    <rect x="480" y="0" width="1681" height="1600"/>
  </clipPath>
</defs>
<path clip-path="url(#clip0200)" d="
M224.386 1440.48 L2321.26 1440.48 L2321.26 47.2441 L224.386 47.2441  Z
  " fill="#ffffff" fill-rule="evenodd" fill-opacity="1"/>
<defs>
  <clipPath id="clip0202">
    <rect x="224" y="47" width="2098" height="1394"/>
  </clipPath>
</defs>
<polyline clip-path="url(#clip0202)" style="stroke:#000000; stroke-width:2; stroke-opacity:0.1; fill:none" points="
  2070.48,1440.48 2070.48,47.2441 
  "/>
<polyline clip-path="url(#clip0202)" style="stroke:#000000; stroke-width:2; stroke-opacity:0.1; fill:none" points="
  1559.98,1440.48 1559.98,47.2441 
  "/>
<polyline clip-path="url(#clip0202)" style="stroke:#000000; stroke-width:2; stroke-opacity:0.1; fill:none" points="
  1049.48,1440.48 1049.48,47.2441 
  "/>
<polyline clip-path="url(#clip0202)" style="stroke:#000000; stroke-width:2; stroke-opacity:0.1; fill:none" points="
  538.981,1440.48 538.981,47.2441 
  "/>
<polyline clip-path="url(#clip0202)" style="stroke:#000000; stroke-width:2; stroke-opacity:0.1; fill:none" points="
  2321.26,1431.63 224.386,1431.63 
  "/>
<polyline clip-path="url(#clip0202)" style="stroke:#000000; stroke-width:2; stroke-opacity:0.1; fill:none" points="
  2321.26,1121.35 224.386,1121.35 
  "/>
<polyline clip-path="url(#clip0202)" style="stroke:#000000; stroke-width:2; stroke-opacity:0.1; fill:none" points="
  2321.26,811.069 224.386,811.069 
  "/>
<polyline clip-path="url(#clip0202)" style="stroke:#000000; stroke-width:2; stroke-opacity:0.1; fill:none" points="
  2321.26,500.791 224.386,500.791 
  "/>
<polyline clip-path="url(#clip0202)" style="stroke:#000000; stroke-width:2; stroke-opacity:0.1; fill:none" points="
  2321.26,190.512 224.386,190.512 
  "/>
<polyline clip-path="url(#clip0200)" style="stroke:#000000; stroke-width:4; stroke-opacity:1; fill:none" points="
  2321.26,1440.48 224.386,1440.48 
  "/>
<polyline clip-path="url(#clip0200)" style="stroke:#000000; stroke-width:4; stroke-opacity:1; fill:none" points="
  224.386,1440.48 224.386,47.2441 
  "/>
<polyline clip-path="url(#clip0200)" style="stroke:#000000; stroke-width:4; stroke-opacity:1; fill:none" points="
  2070.48,1440.48 2070.48,1419.58 
  "/>
<polyline clip-path="url(#clip0200)" style="stroke:#000000; stroke-width:4; stroke-opacity:1; fill:none" points="
  1559.98,1440.48 1559.98,1419.58 
  "/>
<polyline clip-path="url(#clip0200)" style="stroke:#000000; stroke-width:4; stroke-opacity:1; fill:none" points="
  1049.48,1440.48 1049.48,1419.58 
  "/>
<polyline clip-path="url(#clip0200)" style="stroke:#000000; stroke-width:4; stroke-opacity:1; fill:none" points="
  538.981,1440.48 538.981,1419.58 
  "/>
<polyline clip-path="url(#clip0200)" style="stroke:#000000; stroke-width:4; stroke-opacity:1; fill:none" points="
  224.386,1431.63 255.839,1431.63 
  "/>
<polyline clip-path="url(#clip0200)" style="stroke:#000000; stroke-width:4; stroke-opacity:1; fill:none" points="
  224.386,1121.35 255.839,1121.35 
  "/>
<polyline clip-path="url(#clip0200)" style="stroke:#000000; stroke-width:4; stroke-opacity:1; fill:none" points="
  224.386,811.069 255.839,811.069 
  "/>
<polyline clip-path="url(#clip0200)" style="stroke:#000000; stroke-width:4; stroke-opacity:1; fill:none" points="
  224.386,500.791 255.839,500.791 
  "/>
<polyline clip-path="url(#clip0200)" style="stroke:#000000; stroke-width:4; stroke-opacity:1; fill:none" points="
  224.386,190.512 255.839,190.512 
  "/>
<g clip-path="url(#clip0200)">
<text style="fill:#000000; fill-opacity:1; font-family:Arial,Helvetica Neue,Helvetica,sans-serif; font-size:48px; text-anchor:middle;" transform="rotate(0, 2070.48, 1494.48)" x="2070.48" y="1494.48">0.1</text>
</g>
<g clip-path="url(#clip0200)">
<text style="fill:#000000; fill-opacity:1; font-family:Arial,Helvetica Neue,Helvetica,sans-serif; font-size:48px; text-anchor:middle;" transform="rotate(0, 1559.98, 1494.48)" x="1559.98" y="1494.48">0.2</text>
</g>
<g clip-path="url(#clip0200)">
<text style="fill:#000000; fill-opacity:1; font-family:Arial,Helvetica Neue,Helvetica,sans-serif; font-size:48px; text-anchor:middle;" transform="rotate(0, 1049.48, 1494.48)" x="1049.48" y="1494.48">0.3</text>
</g>
<g clip-path="url(#clip0200)">
<text style="fill:#000000; fill-opacity:1; font-family:Arial,Helvetica Neue,Helvetica,sans-serif; font-size:48px; text-anchor:middle;" transform="rotate(0, 538.981, 1494.48)" x="538.981" y="1494.48">0.4</text>
</g>
<g clip-path="url(#clip0200)">
<text style="fill:#000000; fill-opacity:1; font-family:Arial,Helvetica Neue,Helvetica,sans-serif; font-size:48px; text-anchor:end;" transform="rotate(0, 200.386, 1449.13)" x="200.386" y="1449.13">0.0</text>
</g>
<g clip-path="url(#clip0200)">
<text style="fill:#000000; fill-opacity:1; font-family:Arial,Helvetica Neue,Helvetica,sans-serif; font-size:48px; text-anchor:end;" transform="rotate(0, 200.386, 1138.85)" x="200.386" y="1138.85">0.1</text>
</g>
<g clip-path="url(#clip0200)">
<text style="fill:#000000; fill-opacity:1; font-family:Arial,Helvetica Neue,Helvetica,sans-serif; font-size:48px; text-anchor:end;" transform="rotate(0, 200.386, 828.569)" x="200.386" y="828.569">0.2</text>
</g>
<g clip-path="url(#clip0200)">
<text style="fill:#000000; fill-opacity:1; font-family:Arial,Helvetica Neue,Helvetica,sans-serif; font-size:48px; text-anchor:end;" transform="rotate(0, 200.386, 518.291)" x="200.386" y="518.291">0.3</text>
</g>
<g clip-path="url(#clip0200)">
<text style="fill:#000000; fill-opacity:1; font-family:Arial,Helvetica Neue,Helvetica,sans-serif; font-size:48px; text-anchor:end;" transform="rotate(0, 200.386, 208.012)" x="200.386" y="208.012">0.4</text>
</g>
<g clip-path="url(#clip0200)">
<text style="fill:#000000; fill-opacity:1; font-family:Arial,Helvetica Neue,Helvetica,sans-serif; font-size:66px; text-anchor:middle;" transform="rotate(0, 1272.82, 1590.4)" x="1272.82" y="1590.4">Average hypercube edge length</text>
</g>
<g clip-path="url(#clip0200)">
<text style="fill:#000000; fill-opacity:1; font-family:Arial,Helvetica Neue,Helvetica,sans-serif; font-size:66px; text-anchor:middle;" transform="rotate(-90, 57.6, 743.863)" x="57.6" y="743.863">Transfer entropy (bits)</text>
</g>
<polyline clip-path="url(#clip0202)" style="stroke:#000000; stroke-width:4; stroke-opacity:1; fill:none" points="
  2261.91,86.6754 2042.12,502.971 1822.32,599.402 1602.52,904.497 1382.72,1001.46 1162.92,1051.81 943.126,1096.39 723.328,1214.81 503.53,1171.8 283.732,1138.91 
  
  "/>
<polyline clip-path="url(#clip0202)" style="stroke:#ff0000; stroke-width:4; stroke-opacity:1; fill:none" points="
  2261.91,1275.16 2042.12,1307.19 1822.32,1401.05 1602.52,1338.05 1382.72,1138.03 1162.92,1057.14 943.126,1085.58 723.328,1360.46 503.53,925.249 283.732,1345.83 
  
  "/>
<path clip-path="url(#clip0200)" d="
M1784.57 312.204 L2249.26 312.204 L2249.26 130.764 L1784.57 130.764  Z
  " fill="#ffffff" fill-rule="evenodd" fill-opacity="1"/>
<polyline clip-path="url(#clip0200)" style="stroke:#000000; stroke-width:4; stroke-opacity:1; fill:none" points="
  1784.57,312.204 2249.26,312.204 2249.26,130.764 1784.57,130.764 1784.57,312.204 
  "/>
<polyline clip-path="url(#clip0200)" style="stroke:#000000; stroke-width:4; stroke-opacity:1; fill:none" points="
  1808.57,191.244 1952.57,191.244 
  "/>
<g clip-path="url(#clip0200)">
<text style="fill:#000000; fill-opacity:1; font-family:Arial,Helvetica Neue,Helvetica,sans-serif; font-size:48px; text-anchor:start;" transform="rotate(0, 1976.57, 208.744)" x="1976.57" y="208.744">TE(x -&gt; y)</text>
</g>
<polyline clip-path="url(#clip0200)" style="stroke:#ff0000; stroke-width:4; stroke-opacity:1; fill:none" points="
  1808.57,251.724 1952.57,251.724 
  "/>
<g clip-path="url(#clip0200)">
<text style="fill:#000000; fill-opacity:1; font-family:Arial,Helvetica Neue,Helvetica,sans-serif; font-size:48px; text-anchor:start;" transform="rotate(0, 1976.57, 269.224)" x="1976.57" y="269.224">TE(y -&gt; x)</text>
</g>
</svg>
