<?xml version="1.0" encoding="utf-8"?>
<svg xmlns="http://www.w3.org/2000/svg" xmlns:xlink="http://www.w3.org/1999/xlink" width="600" height="400" viewBox="0 0 2400 1600">
<defs>
  <clipPath id="clip1600">
    <rect x="0" y="0" width="2400" height="1600"/>
  </clipPath>
</defs>
<path clip-path="url(#clip1600)" d="
M0 1600 L2400 1600 L2400 0 L0 0  Z
  " fill="#ffffff" fill-rule="evenodd" fill-opacity="1"/>
<defs>
  <clipPath id="clip1601">
    <rect x="480" y="0" width="1681" height="1600"/>
  </clipPath>
</defs>
<path clip-path="url(#clip1600)" d="
M224.386 1440.48 L2321.26 1440.48 L2321.26 47.2441 L224.386 47.2441  Z
  " fill="#ffffff" fill-rule="evenodd" fill-opacity="1"/>
<defs>
  <clipPath id="clip1602">
    <rect x="224" y="47" width="2098" height="1394"/>
  </clipPath>
</defs>
<polyline clip-path="url(#clip1602)" style="stroke:#000000; stroke-width:2; stroke-opacity:0.1; fill:none" points="
  2042.12,1440.48 2042.12,47.2441 
  "/>
<polyline clip-path="url(#clip1602)" style="stroke:#000000; stroke-width:2; stroke-opacity:0.1; fill:none" points="
  1602.52,1440.48 1602.52,47.2441 
  "/>
<polyline clip-path="url(#clip1602)" style="stroke:#000000; stroke-width:2; stroke-opacity:0.1; fill:none" points="
  1162.92,1440.48 1162.92,47.2441 
  "/>
<polyline clip-path="url(#clip1602)" style="stroke:#000000; stroke-width:2; stroke-opacity:0.1; fill:none" points="
  723.328,1440.48 723.328,47.2441 
  "/>
<polyline clip-path="url(#clip1602)" style="stroke:#000000; stroke-width:2; stroke-opacity:0.1; fill:none" points="
  283.732,1440.48 283.732,47.2441 
  "/>
<polyline clip-path="url(#clip1602)" style="stroke:#000000; stroke-width:2; stroke-opacity:0.1; fill:none" points="
  2321.26,1401.05 224.386,1401.05 
  "/>
<polyline clip-path="url(#clip1602)" style="stroke:#000000; stroke-width:2; stroke-opacity:0.1; fill:none" points="
  2321.26,1196.4 224.386,1196.4 
  "/>
<polyline clip-path="url(#clip1602)" style="stroke:#000000; stroke-width:2; stroke-opacity:0.1; fill:none" points="
  2321.26,991.75 224.386,991.75 
  "/>
<polyline clip-path="url(#clip1602)" style="stroke:#000000; stroke-width:2; stroke-opacity:0.1; fill:none" points="
  2321.26,787.1 224.386,787.1 
  "/>
<polyline clip-path="url(#clip1602)" style="stroke:#000000; stroke-width:2; stroke-opacity:0.1; fill:none" points="
  2321.26,582.449 224.386,582.449 
  "/>
<polyline clip-path="url(#clip1602)" style="stroke:#000000; stroke-width:2; stroke-opacity:0.1; fill:none" points="
  2321.26,377.799 224.386,377.799 
  "/>
<polyline clip-path="url(#clip1602)" style="stroke:#000000; stroke-width:2; stroke-opacity:0.1; fill:none" points="
  2321.26,173.148 224.386,173.148 
  "/>
<polyline clip-path="url(#clip1600)" style="stroke:#000000; stroke-width:4; stroke-opacity:1; fill:none" points="
  2321.26,1440.48 224.386,1440.48 
  "/>
<polyline clip-path="url(#clip1600)" style="stroke:#000000; stroke-width:4; stroke-opacity:1; fill:none" points="
  224.386,1440.48 224.386,47.2441 
  "/>
<polyline clip-path="url(#clip1600)" style="stroke:#000000; stroke-width:4; stroke-opacity:1; fill:none" points="
  2042.12,1440.48 2042.12,1419.58 
  "/>
<polyline clip-path="url(#clip1600)" style="stroke:#000000; stroke-width:4; stroke-opacity:1; fill:none" points="
  1602.52,1440.48 1602.52,1419.58 
  "/>
<polyline clip-path="url(#clip1600)" style="stroke:#000000; stroke-width:4; stroke-opacity:1; fill:none" points="
  1162.92,1440.48 1162.92,1419.58 
  "/>
<polyline clip-path="url(#clip1600)" style="stroke:#000000; stroke-width:4; stroke-opacity:1; fill:none" points="
  723.328,1440.48 723.328,1419.58 
  "/>
<polyline clip-path="url(#clip1600)" style="stroke:#000000; stroke-width:4; stroke-opacity:1; fill:none" points="
  283.732,1440.48 283.732,1419.58 
  "/>
<polyline clip-path="url(#clip1600)" style="stroke:#000000; stroke-width:4; stroke-opacity:1; fill:none" points="
  224.386,1401.05 255.839,1401.05 
  "/>
<polyline clip-path="url(#clip1600)" style="stroke:#000000; stroke-width:4; stroke-opacity:1; fill:none" points="
  224.386,1196.4 255.839,1196.4 
  "/>
<polyline clip-path="url(#clip1600)" style="stroke:#000000; stroke-width:4; stroke-opacity:1; fill:none" points="
  224.386,991.75 255.839,991.75 
  "/>
<polyline clip-path="url(#clip1600)" style="stroke:#000000; stroke-width:4; stroke-opacity:1; fill:none" points="
  224.386,787.1 255.839,787.1 
  "/>
<polyline clip-path="url(#clip1600)" style="stroke:#000000; stroke-width:4; stroke-opacity:1; fill:none" points="
  224.386,582.449 255.839,582.449 
  "/>
<polyline clip-path="url(#clip1600)" style="stroke:#000000; stroke-width:4; stroke-opacity:1; fill:none" points="
  224.386,377.799 255.839,377.799 
  "/>
<polyline clip-path="url(#clip1600)" style="stroke:#000000; stroke-width:4; stroke-opacity:1; fill:none" points="
  224.386,173.148 255.839,173.148 
  "/>
<g clip-path="url(#clip1600)">
<text style="fill:#000000; fill-opacity:1; font-family:Arial,Helvetica Neue,Helvetica,sans-serif; font-size:48px; text-anchor:middle;" transform="rotate(0, 2042.12, 1494.48)" x="2042.12" y="1494.48">0.1</text>
</g>
<g clip-path="url(#clip1600)">
<text style="fill:#000000; fill-opacity:1; font-family:Arial,Helvetica Neue,Helvetica,sans-serif; font-size:48px; text-anchor:middle;" transform="rotate(0, 1602.52, 1494.48)" x="1602.52" y="1494.48">0.2</text>
</g>
<g clip-path="url(#clip1600)">
<text style="fill:#000000; fill-opacity:1; font-family:Arial,Helvetica Neue,Helvetica,sans-serif; font-size:48px; text-anchor:middle;" transform="rotate(0, 1162.92, 1494.48)" x="1162.92" y="1494.48">0.3</text>
</g>
<g clip-path="url(#clip1600)">
<text style="fill:#000000; fill-opacity:1; font-family:Arial,Helvetica Neue,Helvetica,sans-serif; font-size:48px; text-anchor:middle;" transform="rotate(0, 723.328, 1494.48)" x="723.328" y="1494.48">0.4</text>
</g>
<g clip-path="url(#clip1600)">
<text style="fill:#000000; fill-opacity:1; font-family:Arial,Helvetica Neue,Helvetica,sans-serif; font-size:48px; text-anchor:middle;" transform="rotate(0, 283.732, 1494.48)" x="283.732" y="1494.48">0.5</text>
</g>
<g clip-path="url(#clip1600)">
<text style="fill:#000000; fill-opacity:1; font-family:Arial,Helvetica Neue,Helvetica,sans-serif; font-size:48px; text-anchor:end;" transform="rotate(0, 200.386, 1418.55)" x="200.386" y="1418.55">0.0</text>
</g>
<g clip-path="url(#clip1600)">
<text style="fill:#000000; fill-opacity:1; font-family:Arial,Helvetica Neue,Helvetica,sans-serif; font-size:48px; text-anchor:end;" transform="rotate(0, 200.386, 1213.9)" x="200.386" y="1213.9">0.1</text>
</g>
<g clip-path="url(#clip1600)">
<text style="fill:#000000; fill-opacity:1; font-family:Arial,Helvetica Neue,Helvetica,sans-serif; font-size:48px; text-anchor:end;" transform="rotate(0, 200.386, 1009.25)" x="200.386" y="1009.25">0.2</text>
</g>
<g clip-path="url(#clip1600)">
<text style="fill:#000000; fill-opacity:1; font-family:Arial,Helvetica Neue,Helvetica,sans-serif; font-size:48px; text-anchor:end;" transform="rotate(0, 200.386, 804.6)" x="200.386" y="804.6">0.3</text>
</g>
<g clip-path="url(#clip1600)">
<text style="fill:#000000; fill-opacity:1; font-family:Arial,Helvetica Neue,Helvetica,sans-serif; font-size:48px; text-anchor:end;" transform="rotate(0, 200.386, 599.949)" x="200.386" y="599.949">0.4</text>
</g>
<g clip-path="url(#clip1600)">
<text style="fill:#000000; fill-opacity:1; font-family:Arial,Helvetica Neue,Helvetica,sans-serif; font-size:48px; text-anchor:end;" transform="rotate(0, 200.386, 395.299)" x="200.386" y="395.299">0.5</text>
</g>
<g clip-path="url(#clip1600)">
<text style="fill:#000000; fill-opacity:1; font-family:Arial,Helvetica Neue,Helvetica,sans-serif; font-size:48px; text-anchor:end;" transform="rotate(0, 200.386, 190.648)" x="200.386" y="190.648">0.6</text>
</g>
<g clip-path="url(#clip1600)">
<text style="fill:#000000; fill-opacity:1; font-family:Arial,Helvetica Neue,Helvetica,sans-serif; font-size:66px; text-anchor:middle;" transform="rotate(0, 1272.82, 1590.4)" x="1272.82" y="1590.4">Hypercube edge length</text>
</g>
<g clip-path="url(#clip1600)">
<text style="fill:#000000; fill-opacity:1; font-family:Arial,Helvetica Neue,Helvetica,sans-serif; font-size:66px; text-anchor:middle;" transform="rotate(-90, 57.6, 743.863)" x="57.6" y="743.863">Transfer entropy (bits)</text>
</g>
<polyline clip-path="url(#clip1602)" style="stroke:#000000; stroke-width:4; stroke-opacity:1; fill:none" points="
  2261.91,86.6754 2042.12,540.636 1822.32,951.481 1602.52,1062.89 1382.72,1169.74 1162.92,1168.9 943.126,1276.76 723.328,1225.47 503.53,1286.11 283.732,1336.75 
  
  "/>
<polyline clip-path="url(#clip1602)" style="stroke:#ff0000; stroke-width:4; stroke-opacity:1; fill:none" points="
  2261.91,1119.49 2042.12,1235.2 1822.32,1306.46 1602.52,1280.83 1382.72,1248.87 1162.92,1088.86 943.126,1273.47 723.328,1392 503.53,1401.05 283.732,1186.67 
  
  "/>
<path clip-path="url(#clip1600)" d="
M1784.57 312.204 L2249.26 312.204 L2249.26 130.764 L1784.57 130.764  Z
  " fill="#ffffff" fill-rule="evenodd" fill-opacity="1"/>
<polyline clip-path="url(#clip1600)" style="stroke:#000000; stroke-width:4; stroke-opacity:1; fill:none" points="
  1784.57,312.204 2249.26,312.204 2249.26,130.764 1784.57,130.764 1784.57,312.204 
  "/>
<polyline clip-path="url(#clip1600)" style="stroke:#000000; stroke-width:4; stroke-opacity:1; fill:none" points="
  1808.57,191.244 1952.57,191.244 
  "/>
<g clip-path="url(#clip1600)">
<text style="fill:#000000; fill-opacity:1; font-family:Arial,Helvetica Neue,Helvetica,sans-serif; font-size:48px; text-anchor:start;" transform="rotate(0, 1976.57, 208.744)" x="1976.57" y="208.744">TE(x -&gt; y)</text>
</g>
<polyline clip-path="url(#clip1600)" style="stroke:#ff0000; stroke-width:4; stroke-opacity:1; fill:none" points="
  1808.57,251.724 1952.57,251.724 
  "/>
<g clip-path="url(#clip1600)">
<text style="fill:#000000; fill-opacity:1; font-family:Arial,Helvetica Neue,Helvetica,sans-serif; font-size:48px; text-anchor:start;" transform="rotate(0, 1976.57, 269.224)" x="1976.57" y="269.224">TE(y -&gt; x)</text>
</g>
</svg>
