<?xml version="1.0" encoding="utf-8"?>
<svg xmlns="http://www.w3.org/2000/svg" xmlns:xlink="http://www.w3.org/1999/xlink" width="600" height="400" viewBox="0 0 2400 1600">
<defs>
  <clipPath id="clip2200">
    <rect x="0" y="0" width="2400" height="1600"/>
  </clipPath>
</defs>
<path clip-path="url(#clip2200)" d="
M0 1600 L2400 1600 L2400 0 L0 0  Z
  " fill="#ffffff" fill-rule="evenodd" fill-opacity="1"/>
<defs>
  <clipPath id="clip2201">
    <rect x="480" y="0" width="1681" height="1600"/>
  </clipPath>
</defs>
<path clip-path="url(#clip2200)" d="
M224.386 1440.48 L2321.26 1440.48 L2321.26 47.2441 L224.386 47.2441  Z
  " fill="#ffffff" fill-rule="evenodd" fill-opacity="1"/>
<defs>
  <clipPath id="clip2202">
    <rect x="224" y="47" width="2098" height="1394"/>
  </clipPath>
</defs>
<polyline clip-path="url(#clip2202)" style="stroke:#000000; stroke-width:2; stroke-opacity:0.1; fill:none" points="
  578.355,1440.48 578.355,47.2441 
  "/>
<polyline clip-path="url(#clip2202)" style="stroke:#000000; stroke-width:2; stroke-opacity:0.1; fill:none" points="
  999.245,1440.48 999.245,47.2441 
  "/>
<polyline clip-path="url(#clip2202)" style="stroke:#000000; stroke-width:2; stroke-opacity:0.1; fill:none" points="
  1420.13,1440.48 1420.13,47.2441 
  "/>
<polyline clip-path="url(#clip2202)" style="stroke:#000000; stroke-width:2; stroke-opacity:0.1; fill:none" points="
  1841.02,1440.48 1841.02,47.2441 
  "/>
<polyline clip-path="url(#clip2202)" style="stroke:#000000; stroke-width:2; stroke-opacity:0.1; fill:none" points="
  2261.91,1440.48 2261.91,47.2441 
  "/>
<polyline clip-path="url(#clip2202)" style="stroke:#000000; stroke-width:2; stroke-opacity:0.1; fill:none" points="
  224.386,1436.96 2321.26,1436.96 
  "/>
<polyline clip-path="url(#clip2202)" style="stroke:#000000; stroke-width:2; stroke-opacity:0.1; fill:none" points="
  224.386,1114.47 2321.26,1114.47 
  "/>
<polyline clip-path="url(#clip2202)" style="stroke:#000000; stroke-width:2; stroke-opacity:0.1; fill:none" points="
  224.386,791.978 2321.26,791.978 
  "/>
<polyline clip-path="url(#clip2202)" style="stroke:#000000; stroke-width:2; stroke-opacity:0.1; fill:none" points="
  224.386,469.488 2321.26,469.488 
  "/>
<polyline clip-path="url(#clip2202)" style="stroke:#000000; stroke-width:2; stroke-opacity:0.1; fill:none" points="
  224.386,146.997 2321.26,146.997 
  "/>
<polyline clip-path="url(#clip2200)" style="stroke:#000000; stroke-width:4; stroke-opacity:1; fill:none" points="
  224.386,1440.48 2321.26,1440.48 
  "/>
<polyline clip-path="url(#clip2200)" style="stroke:#000000; stroke-width:4; stroke-opacity:1; fill:none" points="
  224.386,1440.48 224.386,47.2441 
  "/>
<polyline clip-path="url(#clip2200)" style="stroke:#000000; stroke-width:4; stroke-opacity:1; fill:none" points="
  578.355,1440.48 578.355,1419.58 
  "/>
<polyline clip-path="url(#clip2200)" style="stroke:#000000; stroke-width:4; stroke-opacity:1; fill:none" points="
  999.245,1440.48 999.245,1419.58 
  "/>
<polyline clip-path="url(#clip2200)" style="stroke:#000000; stroke-width:4; stroke-opacity:1; fill:none" points="
  1420.13,1440.48 1420.13,1419.58 
  "/>
<polyline clip-path="url(#clip2200)" style="stroke:#000000; stroke-width:4; stroke-opacity:1; fill:none" points="
  1841.02,1440.48 1841.02,1419.58 
  "/>
<polyline clip-path="url(#clip2200)" style="stroke:#000000; stroke-width:4; stroke-opacity:1; fill:none" points="
  2261.91,1440.48 2261.91,1419.58 
  "/>
<polyline clip-path="url(#clip2200)" style="stroke:#000000; stroke-width:4; stroke-opacity:1; fill:none" points="
  224.386,1436.96 255.839,1436.96 
  "/>
<polyline clip-path="url(#clip2200)" style="stroke:#000000; stroke-width:4; stroke-opacity:1; fill:none" points="
  224.386,1114.47 255.839,1114.47 
  "/>
<polyline clip-path="url(#clip2200)" style="stroke:#000000; stroke-width:4; stroke-opacity:1; fill:none" points="
  224.386,791.978 255.839,791.978 
  "/>
<polyline clip-path="url(#clip2200)" style="stroke:#000000; stroke-width:4; stroke-opacity:1; fill:none" points="
  224.386,469.488 255.839,469.488 
  "/>
<polyline clip-path="url(#clip2200)" style="stroke:#000000; stroke-width:4; stroke-opacity:1; fill:none" points="
  224.386,146.997 255.839,146.997 
  "/>
<g clip-path="url(#clip2200)">
<text style="fill:#000000; fill-opacity:1; font-family:Arial,Helvetica Neue,Helvetica,sans-serif; font-size:48px; text-anchor:middle;" transform="rotate(0, 578.355, 1494.48)" x="578.355" y="1494.48">10</text>
</g>
<g clip-path="url(#clip2200)">
<text style="fill:#000000; fill-opacity:1; font-family:Arial,Helvetica Neue,Helvetica,sans-serif; font-size:48px; text-anchor:middle;" transform="rotate(0, 999.245, 1494.48)" x="999.245" y="1494.48">20</text>
</g>
<g clip-path="url(#clip2200)">
<text style="fill:#000000; fill-opacity:1; font-family:Arial,Helvetica Neue,Helvetica,sans-serif; font-size:48px; text-anchor:middle;" transform="rotate(0, 1420.13, 1494.48)" x="1420.13" y="1494.48">30</text>
</g>
<g clip-path="url(#clip2200)">
<text style="fill:#000000; fill-opacity:1; font-family:Arial,Helvetica Neue,Helvetica,sans-serif; font-size:48px; text-anchor:middle;" transform="rotate(0, 1841.02, 1494.48)" x="1841.02" y="1494.48">40</text>
</g>
<g clip-path="url(#clip2200)">
<text style="fill:#000000; fill-opacity:1; font-family:Arial,Helvetica Neue,Helvetica,sans-serif; font-size:48px; text-anchor:middle;" transform="rotate(0, 2261.91, 1494.48)" x="2261.91" y="1494.48">50</text>
</g>
<g clip-path="url(#clip2200)">
<text style="fill:#000000; fill-opacity:1; font-family:Arial,Helvetica Neue,Helvetica,sans-serif; font-size:48px; text-anchor:end;" transform="rotate(0, 200.386, 1454.46)" x="200.386" y="1454.46">0.0</text>
</g>
<g clip-path="url(#clip2200)">
<text style="fill:#000000; fill-opacity:1; font-family:Arial,Helvetica Neue,Helvetica,sans-serif; font-size:48px; text-anchor:end;" transform="rotate(0, 200.386, 1131.97)" x="200.386" y="1131.97">0.2</text>
</g>
<g clip-path="url(#clip2200)">
<text style="fill:#000000; fill-opacity:1; font-family:Arial,Helvetica Neue,Helvetica,sans-serif; font-size:48px; text-anchor:end;" transform="rotate(0, 200.386, 809.478)" x="200.386" y="809.478">0.4</text>
</g>
<g clip-path="url(#clip2200)">
<text style="fill:#000000; fill-opacity:1; font-family:Arial,Helvetica Neue,Helvetica,sans-serif; font-size:48px; text-anchor:end;" transform="rotate(0, 200.386, 486.988)" x="200.386" y="486.988">0.6</text>
</g>
<g clip-path="url(#clip2200)">
<text style="fill:#000000; fill-opacity:1; font-family:Arial,Helvetica Neue,Helvetica,sans-serif; font-size:48px; text-anchor:end;" transform="rotate(0, 200.386, 164.497)" x="200.386" y="164.497">0.8</text>
</g>
<g clip-path="url(#clip2200)">
<text style="fill:#000000; fill-opacity:1; font-family:Arial,Helvetica Neue,Helvetica,sans-serif; font-size:66px; text-anchor:middle;" transform="rotate(0, 1272.82, 1590.4)" x="1272.82" y="1590.4">Average number of subdivisions along the embedding axes</text>
</g>
<g clip-path="url(#clip2200)">
<text style="fill:#000000; fill-opacity:1; font-family:Arial,Helvetica Neue,Helvetica,sans-serif; font-size:66px; text-anchor:middle;" transform="rotate(-90, 57.6, 743.863)" x="57.6" y="743.863">Transfer entropy (bits)</text>
</g>
<polyline clip-path="url(#clip2202)" style="stroke:#000000; stroke-width:4; stroke-opacity:1; fill:none" points="
  283.732,1401.05 325.821,1287.59 367.91,1167.24 409.999,1093.07 452.088,966.82 494.177,908.752 536.266,776.095 578.355,723.771 620.444,721.691 662.533,655.898 
  704.622,598.182 746.711,511.979 788.8,457.713 830.889,355.315 872.978,400.52 915.067,384.043 957.156,292.563 999.245,267.359 1041.33,242.524 1083.42,265.974 
  1125.51,212.246 1167.6,107.048 1209.69,187.73 1251.78,115.925 1293.87,99.5984 1335.96,86.6754 1378.05,253.432 1420.13,155.197 1462.22,146.105 1504.31,116.017 
  1546.4,139.411 1588.49,101.791 1630.58,249.065 1672.67,260.265 1714.76,227.877 1756.85,227.763 1798.94,186.77 1841.02,191.937 1883.11,222.018 1925.2,264.677 
  1967.29,290.267 2009.38,209.723 2051.47,278.763 2093.56,310.237 2135.65,314.288 2177.74,285.625 2219.83,326.056 2261.91,326.002 
  "/>
<polyline clip-path="url(#clip2202)" style="stroke:#ff0000; stroke-width:4; stroke-opacity:1; fill:none" points="
  283.732,1353.96 325.821,1380.48 367.91,1373.17 409.999,1395.12 452.088,1356.2 494.177,1386.74 536.266,1328.65 578.355,1335.72 620.444,1332.53 662.533,1290.92 
  704.622,1358.34 746.711,1267.12 788.8,1305.1 830.889,1190.06 872.978,1220.61 915.067,1144.64 957.156,1189.99 999.245,1029.93 1041.33,1075.89 1083.42,1025.37 
  1125.51,1060.15 1167.6,1146.44 1209.69,1024.82 1251.78,1023.19 1293.87,1029.32 1335.96,983.846 1378.05,878.342 1420.13,1014.95 1462.22,954.091 1504.31,844.68 
  1546.4,874.574 1588.49,969.736 1630.58,782.329 1672.67,838.628 1714.76,896.065 1756.85,791.803 1798.94,848.96 1841.02,844.01 1883.11,812.954 1925.2,821.711 
  1967.29,795.583 2009.38,700.447 2051.47,807.417 2093.56,816.604 2135.65,760.513 2177.74,799.425 2219.83,800.656 2261.91,809.713 
  "/>
<path clip-path="url(#clip2200)" d="
M1784.57 312.204 L2249.26 312.204 L2249.26 130.764 L1784.57 130.764  Z
  " fill="#ffffff" fill-rule="evenodd" fill-opacity="1"/>
<polyline clip-path="url(#clip2200)" style="stroke:#000000; stroke-width:4; stroke-opacity:1; fill:none" points="
  1784.57,312.204 2249.26,312.204 2249.26,130.764 1784.57,130.764 1784.57,312.204 
  "/>
<polyline clip-path="url(#clip2200)" style="stroke:#000000; stroke-width:4; stroke-opacity:1; fill:none" points="
  1808.57,191.244 1952.57,191.244 
  "/>
<g clip-path="url(#clip2200)">
<text style="fill:#000000; fill-opacity:1; font-family:Arial,Helvetica Neue,Helvetica,sans-serif; font-size:48px; text-anchor:start;" transform="rotate(0, 1976.57, 208.744)" x="1976.57" y="208.744">TE(x -&gt; y)</text>
</g>
<polyline clip-path="url(#clip2200)" style="stroke:#ff0000; stroke-width:4; stroke-opacity:1; fill:none" points="
  1808.57,251.724 1952.57,251.724 
  "/>
<g clip-path="url(#clip2200)">
<text style="fill:#000000; fill-opacity:1; font-family:Arial,Helvetica Neue,Helvetica,sans-serif; font-size:48px; text-anchor:start;" transform="rotate(0, 1976.57, 269.224)" x="1976.57" y="269.224">TE(y -&gt; x)</text>
</g>
</svg>
