<?xml version="1.0" encoding="utf-8"?>
<svg xmlns="http://www.w3.org/2000/svg" xmlns:xlink="http://www.w3.org/1999/xlink" width="600" height="400" viewBox="0 0 2400 1600">
<defs>
  <clipPath id="clip1300">
    <rect x="0" y="0" width="2400" height="1600"/>
  </clipPath>
</defs>
<path clip-path="url(#clip1300)" d="
M0 1600 L2400 1600 L2400 0 L0 0  Z
  " fill="#ffffff" fill-rule="evenodd" fill-opacity="1"/>
<defs>
  <clipPath id="clip1301">
    <rect x="480" y="0" width="1681" height="1600"/>
  </clipPath>
</defs>
<path clip-path="url(#clip1300)" d="
M224.386 1440.48 L2321.26 1440.48 L2321.26 47.2441 L224.386 47.2441  Z
  " fill="#ffffff" fill-rule="evenodd" fill-opacity="1"/>
<defs>
  <clipPath id="clip1302">
    <rect x="224" y="47" width="2098" height="1394"/>
  </clipPath>
</defs>
<polyline clip-path="url(#clip1302)" style="stroke:#000000; stroke-width:2; stroke-opacity:0.1; fill:none" points="
  242.52,1440.48 242.52,47.2441 
  "/>
<polyline clip-path="url(#clip1302)" style="stroke:#000000; stroke-width:2; stroke-opacity:0.1; fill:none" points="
  654.641,1440.48 654.641,47.2441 
  "/>
<polyline clip-path="url(#clip1302)" style="stroke:#000000; stroke-width:2; stroke-opacity:0.1; fill:none" points="
  1066.76,1440.48 1066.76,47.2441 
  "/>
<polyline clip-path="url(#clip1302)" style="stroke:#000000; stroke-width:2; stroke-opacity:0.1; fill:none" points="
  1478.88,1440.48 1478.88,47.2441 
  "/>
<polyline clip-path="url(#clip1302)" style="stroke:#000000; stroke-width:2; stroke-opacity:0.1; fill:none" points="
  1891.01,1440.48 1891.01,47.2441 
  "/>
<polyline clip-path="url(#clip1302)" style="stroke:#000000; stroke-width:2; stroke-opacity:0.1; fill:none" points="
  2303.13,1440.48 2303.13,47.2441 
  "/>
<polyline clip-path="url(#clip1302)" style="stroke:#000000; stroke-width:2; stroke-opacity:0.1; fill:none" points="
  224.386,1401.05 2321.26,1401.05 
  "/>
<polyline clip-path="url(#clip1302)" style="stroke:#000000; stroke-width:2; stroke-opacity:0.1; fill:none" points="
  224.386,1086.65 2321.26,1086.65 
  "/>
<polyline clip-path="url(#clip1302)" style="stroke:#000000; stroke-width:2; stroke-opacity:0.1; fill:none" points="
  224.386,772.252 2321.26,772.252 
  "/>
<polyline clip-path="url(#clip1302)" style="stroke:#000000; stroke-width:2; stroke-opacity:0.1; fill:none" points="
  224.386,457.852 2321.26,457.852 
  "/>
<polyline clip-path="url(#clip1302)" style="stroke:#000000; stroke-width:2; stroke-opacity:0.1; fill:none" points="
  224.386,143.452 2321.26,143.452 
  "/>
<polyline clip-path="url(#clip1300)" style="stroke:#000000; stroke-width:4; stroke-opacity:1; fill:none" points="
  224.386,1440.48 2321.26,1440.48 
  "/>
<polyline clip-path="url(#clip1300)" style="stroke:#000000; stroke-width:4; stroke-opacity:1; fill:none" points="
  224.386,1440.48 224.386,47.2441 
  "/>
<polyline clip-path="url(#clip1300)" style="stroke:#000000; stroke-width:4; stroke-opacity:1; fill:none" points="
  242.52,1440.48 242.52,1419.58 
  "/>
<polyline clip-path="url(#clip1300)" style="stroke:#000000; stroke-width:4; stroke-opacity:1; fill:none" points="
  654.641,1440.48 654.641,1419.58 
  "/>
<polyline clip-path="url(#clip1300)" style="stroke:#000000; stroke-width:4; stroke-opacity:1; fill:none" points="
  1066.76,1440.48 1066.76,1419.58 
  "/>
<polyline clip-path="url(#clip1300)" style="stroke:#000000; stroke-width:4; stroke-opacity:1; fill:none" points="
  1478.88,1440.48 1478.88,1419.58 
  "/>
<polyline clip-path="url(#clip1300)" style="stroke:#000000; stroke-width:4; stroke-opacity:1; fill:none" points="
  1891.01,1440.48 1891.01,1419.58 
  "/>
<polyline clip-path="url(#clip1300)" style="stroke:#000000; stroke-width:4; stroke-opacity:1; fill:none" points="
  2303.13,1440.48 2303.13,1419.58 
  "/>
<polyline clip-path="url(#clip1300)" style="stroke:#000000; stroke-width:4; stroke-opacity:1; fill:none" points="
  224.386,1401.05 255.839,1401.05 
  "/>
<polyline clip-path="url(#clip1300)" style="stroke:#000000; stroke-width:4; stroke-opacity:1; fill:none" points="
  224.386,1086.65 255.839,1086.65 
  "/>
<polyline clip-path="url(#clip1300)" style="stroke:#000000; stroke-width:4; stroke-opacity:1; fill:none" points="
  224.386,772.252 255.839,772.252 
  "/>
<polyline clip-path="url(#clip1300)" style="stroke:#000000; stroke-width:4; stroke-opacity:1; fill:none" points="
  224.386,457.852 255.839,457.852 
  "/>
<polyline clip-path="url(#clip1300)" style="stroke:#000000; stroke-width:4; stroke-opacity:1; fill:none" points="
  224.386,143.452 255.839,143.452 
  "/>
<g clip-path="url(#clip1300)">
<text style="fill:#000000; fill-opacity:1; font-family:Arial,Helvetica Neue,Helvetica,sans-serif; font-size:48px; text-anchor:middle;" transform="rotate(0, 242.52, 1494.48)" x="242.52" y="1494.48">0</text>
</g>
<g clip-path="url(#clip1300)">
<text style="fill:#000000; fill-opacity:1; font-family:Arial,Helvetica Neue,Helvetica,sans-serif; font-size:48px; text-anchor:middle;" transform="rotate(0, 654.641, 1494.48)" x="654.641" y="1494.48">10</text>
</g>
<g clip-path="url(#clip1300)">
<text style="fill:#000000; fill-opacity:1; font-family:Arial,Helvetica Neue,Helvetica,sans-serif; font-size:48px; text-anchor:middle;" transform="rotate(0, 1066.76, 1494.48)" x="1066.76" y="1494.48">20</text>
</g>
<g clip-path="url(#clip1300)">
<text style="fill:#000000; fill-opacity:1; font-family:Arial,Helvetica Neue,Helvetica,sans-serif; font-size:48px; text-anchor:middle;" transform="rotate(0, 1478.88, 1494.48)" x="1478.88" y="1494.48">30</text>
</g>
<g clip-path="url(#clip1300)">
<text style="fill:#000000; fill-opacity:1; font-family:Arial,Helvetica Neue,Helvetica,sans-serif; font-size:48px; text-anchor:middle;" transform="rotate(0, 1891.01, 1494.48)" x="1891.01" y="1494.48">40</text>
</g>
<g clip-path="url(#clip1300)">
<text style="fill:#000000; fill-opacity:1; font-family:Arial,Helvetica Neue,Helvetica,sans-serif; font-size:48px; text-anchor:middle;" transform="rotate(0, 2303.13, 1494.48)" x="2303.13" y="1494.48">50</text>
</g>
<g clip-path="url(#clip1300)">
<text style="fill:#000000; fill-opacity:1; font-family:Arial,Helvetica Neue,Helvetica,sans-serif; font-size:48px; text-anchor:end;" transform="rotate(0, 200.386, 1418.55)" x="200.386" y="1418.55">0.0</text>
</g>
<g clip-path="url(#clip1300)">
<text style="fill:#000000; fill-opacity:1; font-family:Arial,Helvetica Neue,Helvetica,sans-serif; font-size:48px; text-anchor:end;" transform="rotate(0, 200.386, 1104.15)" x="200.386" y="1104.15">0.2</text>
</g>
<g clip-path="url(#clip1300)">
<text style="fill:#000000; fill-opacity:1; font-family:Arial,Helvetica Neue,Helvetica,sans-serif; font-size:48px; text-anchor:end;" transform="rotate(0, 200.386, 789.752)" x="200.386" y="789.752">0.4</text>
</g>
<g clip-path="url(#clip1300)">
<text style="fill:#000000; fill-opacity:1; font-family:Arial,Helvetica Neue,Helvetica,sans-serif; font-size:48px; text-anchor:end;" transform="rotate(0, 200.386, 475.352)" x="200.386" y="475.352">0.6</text>
</g>
<g clip-path="url(#clip1300)">
<text style="fill:#000000; fill-opacity:1; font-family:Arial,Helvetica Neue,Helvetica,sans-serif; font-size:48px; text-anchor:end;" transform="rotate(0, 200.386, 160.952)" x="200.386" y="160.952">0.8</text>
</g>
<g clip-path="url(#clip1300)">
<text style="fill:#000000; fill-opacity:1; font-family:Arial,Helvetica Neue,Helvetica,sans-serif; font-size:66px; text-anchor:middle;" transform="rotate(0, 1272.82, 1590.4)" x="1272.82" y="1590.4"># subdivisions along each axis</text>
</g>
<g clip-path="url(#clip1300)">
<text style="fill:#000000; fill-opacity:1; font-family:Arial,Helvetica Neue,Helvetica,sans-serif; font-size:66px; text-anchor:middle;" transform="rotate(-90, 57.6, 743.863)" x="57.6" y="743.863">Transfer entropy (bits)</text>
</g>
<polyline clip-path="url(#clip1302)" style="stroke:#000000; stroke-width:4; stroke-opacity:1; fill:none" points="
  283.732,1401.05 366.156,1334.53 448.58,1080.55 531.004,964.583 613.429,768.254 695.853,720.791 778.277,583.807 860.702,439.896 943.126,383.19 1025.55,264.976 
  1107.97,209.549 1190.4,276.168 1272.82,86.6754 1355.25,152.387 1437.67,160.551 1520.1,156.969 1602.52,138.918 1684.94,205.228 1767.37,197.05 1849.79,207.656 
  1932.22,196.063 2014.64,272.803 2097.07,289.584 2179.49,310.681 2261.91,299.432 
  "/>
<polyline clip-path="url(#clip1302)" style="stroke:#ff0000; stroke-width:4; stroke-opacity:1; fill:none" points="
  283.732,1401.05 366.156,1401.05 448.58,1341.57 531.004,1342.99 613.429,1333.45 695.853,1302.25 778.277,1257.07 860.702,1200.5 943.126,1151.57 1025.55,1088.61 
  1107.97,1041.73 1190.4,971.576 1272.82,993.861 1355.25,986.81 1437.67,875.092 1520.1,905.506 1602.52,870.36 1684.94,831.553 1767.37,799.079 1849.79,822.97 
  1932.22,745.812 2014.64,817.748 2097.07,795.641 2179.49,717.082 2261.91,674.476 
  "/>
<path clip-path="url(#clip1300)" d="
M1784.57 312.204 L2249.26 312.204 L2249.26 130.764 L1784.57 130.764  Z
  " fill="#ffffff" fill-rule="evenodd" fill-opacity="1"/>
<polyline clip-path="url(#clip1300)" style="stroke:#000000; stroke-width:4; stroke-opacity:1; fill:none" points="
  1784.57,312.204 2249.26,312.204 2249.26,130.764 1784.57,130.764 1784.57,312.204 
  "/>
<polyline clip-path="url(#clip1300)" style="stroke:#000000; stroke-width:4; stroke-opacity:1; fill:none" points="
  1808.57,191.244 1952.57,191.244 
  "/>
<g clip-path="url(#clip1300)">
<text style="fill:#000000; fill-opacity:1; font-family:Arial,Helvetica Neue,Helvetica,sans-serif; font-size:48px; text-anchor:start;" transform="rotate(0, 1976.57, 208.744)" x="1976.57" y="208.744">TE(x -&gt; y)</text>
</g>
<polyline clip-path="url(#clip1300)" style="stroke:#ff0000; stroke-width:4; stroke-opacity:1; fill:none" points="
  1808.57,251.724 1952.57,251.724 
  "/>
<g clip-path="url(#clip1300)">
<text style="fill:#000000; fill-opacity:1; font-family:Arial,Helvetica Neue,Helvetica,sans-serif; font-size:48px; text-anchor:start;" transform="rotate(0, 1976.57, 269.224)" x="1976.57" y="269.224">TE(y -&gt; x)</text>
</g>
</svg>
