<?xml version="1.0" encoding="utf-8"?>
<svg xmlns="http://www.w3.org/2000/svg" xmlns:xlink="http://www.w3.org/1999/xlink" width="600" height="400" viewBox="0 0 2400 1600">
<defs>
  <clipPath id="clip600">
    <rect x="0" y="0" width="2400" height="1600"/>
  </clipPath>
</defs>
<path clip-path="url(#clip600)" d="
M0 1600 L2400 1600 L2400 0 L0 0  Z
  " fill="#ffffff" fill-rule="evenodd" fill-opacity="1"/>
<defs>
  <clipPath id="clip601">
    <rect x="480" y="0" width="1681" height="1600"/>
  </clipPath>
</defs>
<path clip-path="url(#clip600)" d="
M219.866 1423.18 L2352.76 1423.18 L2352.76 47.2441 L219.866 47.2441  Z
  " fill="#ffffff" fill-rule="evenodd" fill-opacity="1"/>
<defs>
  <clipPath id="clip602">
    <rect x="219" y="47" width="2134" height="1377"/>
  </clipPath>
</defs>
<polyline clip-path="url(#clip602)" style="stroke:#000000; stroke-linecap:butt; stroke-linejoin:round; stroke-width:2; stroke-opacity:0.1; fill:none" points="
  280.231,1423.18 280.231,47.2441 
  "/>
<polyline clip-path="url(#clip602)" style="stroke:#000000; stroke-linecap:butt; stroke-linejoin:round; stroke-width:2; stroke-opacity:0.1; fill:none" points="
  783.271,1423.18 783.271,47.2441 
  "/>
<polyline clip-path="url(#clip602)" style="stroke:#000000; stroke-linecap:butt; stroke-linejoin:round; stroke-width:2; stroke-opacity:0.1; fill:none" points="
  1286.31,1423.18 1286.31,47.2441 
  "/>
<polyline clip-path="url(#clip602)" style="stroke:#000000; stroke-linecap:butt; stroke-linejoin:round; stroke-width:2; stroke-opacity:0.1; fill:none" points="
  1789.35,1423.18 1789.35,47.2441 
  "/>
<polyline clip-path="url(#clip602)" style="stroke:#000000; stroke-linecap:butt; stroke-linejoin:round; stroke-width:2; stroke-opacity:0.1; fill:none" points="
  2292.39,1423.18 2292.39,47.2441 
  "/>
<polyline clip-path="url(#clip600)" style="stroke:#000000; stroke-linecap:butt; stroke-linejoin:round; stroke-width:4; stroke-opacity:1; fill:none" points="
  219.866,1423.18 2352.76,1423.18 
  "/>
<polyline clip-path="url(#clip600)" style="stroke:#000000; stroke-linecap:butt; stroke-linejoin:round; stroke-width:4; stroke-opacity:1; fill:none" points="
  280.231,1423.18 280.231,1404.28 
  "/>
<polyline clip-path="url(#clip600)" style="stroke:#000000; stroke-linecap:butt; stroke-linejoin:round; stroke-width:4; stroke-opacity:1; fill:none" points="
  783.271,1423.18 783.271,1404.28 
  "/>
<polyline clip-path="url(#clip600)" style="stroke:#000000; stroke-linecap:butt; stroke-linejoin:round; stroke-width:4; stroke-opacity:1; fill:none" points="
  1286.31,1423.18 1286.31,1404.28 
  "/>
<polyline clip-path="url(#clip600)" style="stroke:#000000; stroke-linecap:butt; stroke-linejoin:round; stroke-width:4; stroke-opacity:1; fill:none" points="
  1789.35,1423.18 1789.35,1404.28 
  "/>
<polyline clip-path="url(#clip600)" style="stroke:#000000; stroke-linecap:butt; stroke-linejoin:round; stroke-width:4; stroke-opacity:1; fill:none" points="
  2292.39,1423.18 2292.39,1404.28 
  "/>
<path clip-path="url(#clip600)" d="M242.535 1454.1 Q238.923 1454.1 237.095 1457.66 Q235.289 1461.2 235.289 1468.33 Q235.289 1475.44 237.095 1479.01 Q238.923 1482.55 242.535 1482.55 Q246.169 1482.55 247.974 1479.01 Q249.803 1475.44 249.803 1468.33 Q249.803 1461.2 247.974 1457.66 Q246.169 1454.1 242.535 1454.1 M242.535 1450.39 Q248.345 1450.39 251.4 1455 Q254.479 1459.58 254.479 1468.33 Q254.479 1477.06 251.4 1481.67 Q248.345 1486.25 242.535 1486.25 Q236.724 1486.25 233.646 1481.67 Q230.59 1477.06 230.59 1468.33 Q230.59 1459.58 233.646 1455 Q236.724 1450.39 242.535 1450.39 Z" fill="#000000" fill-rule="evenodd" fill-opacity="1" /><path clip-path="url(#clip600)" d="M262.696 1479.7 L267.581 1479.7 L267.581 1485.58 L262.696 1485.58 L262.696 1479.7 Z" fill="#000000" fill-rule="evenodd" fill-opacity="1" /><path clip-path="url(#clip600)" d="M287.766 1454.1 Q284.155 1454.1 282.326 1457.66 Q280.52 1461.2 280.52 1468.33 Q280.52 1475.44 282.326 1479.01 Q284.155 1482.55 287.766 1482.55 Q291.4 1482.55 293.206 1479.01 Q295.034 1475.44 295.034 1468.33 Q295.034 1461.2 293.206 1457.66 Q291.4 1454.1 287.766 1454.1 M287.766 1450.39 Q293.576 1450.39 296.631 1455 Q299.71 1459.58 299.71 1468.33 Q299.71 1477.06 296.631 1481.67 Q293.576 1486.25 287.766 1486.25 Q281.956 1486.25 278.877 1481.67 Q275.821 1477.06 275.821 1468.33 Q275.821 1459.58 278.877 1455 Q281.956 1450.39 287.766 1450.39 Z" fill="#000000" fill-rule="evenodd" fill-opacity="1" /><path clip-path="url(#clip600)" d="M317.928 1454.1 Q314.317 1454.1 312.488 1457.66 Q310.682 1461.2 310.682 1468.33 Q310.682 1475.44 312.488 1479.01 Q314.317 1482.55 317.928 1482.55 Q321.562 1482.55 323.367 1479.01 Q325.196 1475.44 325.196 1468.33 Q325.196 1461.2 323.367 1457.66 Q321.562 1454.1 317.928 1454.1 M317.928 1450.39 Q323.738 1450.39 326.793 1455 Q329.872 1459.58 329.872 1468.33 Q329.872 1477.06 326.793 1481.67 Q323.738 1486.25 317.928 1486.25 Q312.117 1486.25 309.039 1481.67 Q305.983 1477.06 305.983 1468.33 Q305.983 1459.58 309.039 1455 Q312.117 1450.39 317.928 1450.39 Z" fill="#000000" fill-rule="evenodd" fill-opacity="1" /><path clip-path="url(#clip600)" d="M746.072 1454.1 Q742.461 1454.1 740.632 1457.66 Q738.827 1461.2 738.827 1468.33 Q738.827 1475.44 740.632 1479.01 Q742.461 1482.55 746.072 1482.55 Q749.706 1482.55 751.512 1479.01 Q753.341 1475.44 753.341 1468.33 Q753.341 1461.2 751.512 1457.66 Q749.706 1454.1 746.072 1454.1 M746.072 1450.39 Q751.882 1450.39 754.938 1455 Q758.017 1459.58 758.017 1468.33 Q758.017 1477.06 754.938 1481.67 Q751.882 1486.25 746.072 1486.25 Q740.262 1486.25 737.183 1481.67 Q734.128 1477.06 734.128 1468.33 Q734.128 1459.58 737.183 1455 Q740.262 1450.39 746.072 1450.39 Z" fill="#000000" fill-rule="evenodd" fill-opacity="1" /><path clip-path="url(#clip600)" d="M766.234 1479.7 L771.118 1479.7 L771.118 1485.58 L766.234 1485.58 L766.234 1479.7 Z" fill="#000000" fill-rule="evenodd" fill-opacity="1" /><path clip-path="url(#clip600)" d="M785.331 1481.64 L801.651 1481.64 L801.651 1485.58 L779.706 1485.58 L779.706 1481.64 Q782.368 1478.89 786.952 1474.26 Q791.558 1469.61 792.739 1468.27 Q794.984 1465.74 795.864 1464.01 Q796.766 1462.25 796.766 1460.56 Q796.766 1457.8 794.822 1456.07 Q792.901 1454.33 789.799 1454.33 Q787.6 1454.33 785.146 1455.09 Q782.716 1455.86 779.938 1457.41 L779.938 1452.69 Q782.762 1451.55 785.216 1450.97 Q787.669 1450.39 789.706 1450.39 Q795.077 1450.39 798.271 1453.08 Q801.465 1455.77 801.465 1460.26 Q801.465 1462.39 800.655 1464.31 Q799.868 1466.2 797.762 1468.8 Q797.183 1469.47 794.081 1472.69 Q790.979 1475.88 785.331 1481.64 Z" fill="#000000" fill-rule="evenodd" fill-opacity="1" /><path clip-path="url(#clip600)" d="M811.512 1451.02 L829.868 1451.02 L829.868 1454.96 L815.794 1454.96 L815.794 1463.43 Q816.813 1463.08 817.831 1462.92 Q818.85 1462.73 819.868 1462.73 Q825.655 1462.73 829.035 1465.9 Q832.414 1469.08 832.414 1474.49 Q832.414 1480.07 828.942 1483.17 Q825.47 1486.25 819.151 1486.25 Q816.975 1486.25 814.706 1485.88 Q812.461 1485.51 810.053 1484.77 L810.053 1480.07 Q812.137 1481.2 814.359 1481.76 Q816.581 1482.32 819.058 1482.32 Q823.063 1482.32 825.4 1480.21 Q827.738 1478.1 827.738 1474.49 Q827.738 1470.88 825.4 1468.77 Q823.063 1466.67 819.058 1466.67 Q817.183 1466.67 815.308 1467.08 Q813.456 1467.5 811.512 1468.38 L811.512 1451.02 Z" fill="#000000" fill-rule="evenodd" fill-opacity="1" /><path clip-path="url(#clip600)" d="M1248.61 1454.1 Q1245 1454.1 1243.17 1457.66 Q1241.37 1461.2 1241.37 1468.33 Q1241.37 1475.44 1243.17 1479.01 Q1245 1482.55 1248.61 1482.55 Q1252.25 1482.55 1254.05 1479.01 Q1255.88 1475.44 1255.88 1468.33 Q1255.88 1461.2 1254.05 1457.66 Q1252.25 1454.1 1248.61 1454.1 M1248.61 1450.39 Q1254.42 1450.39 1257.48 1455 Q1260.56 1459.58 1260.56 1468.33 Q1260.56 1477.06 1257.48 1481.67 Q1254.42 1486.25 1248.61 1486.25 Q1242.8 1486.25 1239.73 1481.67 Q1236.67 1477.06 1236.67 1468.33 Q1236.67 1459.58 1239.73 1455 Q1242.8 1450.39 1248.61 1450.39 Z" fill="#000000" fill-rule="evenodd" fill-opacity="1" /><path clip-path="url(#clip600)" d="M1268.78 1479.7 L1273.66 1479.7 L1273.66 1485.58 L1268.78 1485.58 L1268.78 1479.7 Z" fill="#000000" fill-rule="evenodd" fill-opacity="1" /><path clip-path="url(#clip600)" d="M1283.89 1451.02 L1302.25 1451.02 L1302.25 1454.96 L1288.17 1454.96 L1288.17 1463.43 Q1289.19 1463.08 1290.21 1462.92 Q1291.23 1462.73 1292.25 1462.73 Q1298.04 1462.73 1301.42 1465.9 Q1304.79 1469.08 1304.79 1474.49 Q1304.79 1480.07 1301.32 1483.17 Q1297.85 1486.25 1291.53 1486.25 Q1289.36 1486.25 1287.09 1485.88 Q1284.84 1485.51 1282.43 1484.77 L1282.43 1480.07 Q1284.52 1481.2 1286.74 1481.76 Q1288.96 1482.32 1291.44 1482.32 Q1295.44 1482.32 1297.78 1480.21 Q1300.12 1478.1 1300.12 1474.49 Q1300.12 1470.88 1297.78 1468.77 Q1295.44 1466.67 1291.44 1466.67 Q1289.56 1466.67 1287.69 1467.08 Q1285.84 1467.5 1283.89 1468.38 L1283.89 1451.02 Z" fill="#000000" fill-rule="evenodd" fill-opacity="1" /><path clip-path="url(#clip600)" d="M1324.01 1454.1 Q1320.4 1454.1 1318.57 1457.66 Q1316.76 1461.2 1316.76 1468.33 Q1316.76 1475.44 1318.57 1479.01 Q1320.4 1482.55 1324.01 1482.55 Q1327.64 1482.55 1329.45 1479.01 Q1331.28 1475.44 1331.28 1468.33 Q1331.28 1461.2 1329.45 1457.66 Q1327.64 1454.1 1324.01 1454.1 M1324.01 1450.39 Q1329.82 1450.39 1332.87 1455 Q1335.95 1459.58 1335.95 1468.33 Q1335.95 1477.06 1332.87 1481.67 Q1329.82 1486.25 1324.01 1486.25 Q1318.2 1486.25 1315.12 1481.67 Q1312.06 1477.06 1312.06 1468.33 Q1312.06 1459.58 1315.12 1455 Q1318.2 1450.39 1324.01 1450.39 Z" fill="#000000" fill-rule="evenodd" fill-opacity="1" /><path clip-path="url(#clip600)" d="M1752.15 1454.1 Q1748.54 1454.1 1746.71 1457.66 Q1744.91 1461.2 1744.91 1468.33 Q1744.91 1475.44 1746.71 1479.01 Q1748.54 1482.55 1752.15 1482.55 Q1755.79 1482.55 1757.59 1479.01 Q1759.42 1475.44 1759.42 1468.33 Q1759.42 1461.2 1757.59 1457.66 Q1755.79 1454.1 1752.15 1454.1 M1752.15 1450.39 Q1757.96 1450.39 1761.02 1455 Q1764.1 1459.58 1764.1 1468.33 Q1764.1 1477.06 1761.02 1481.67 Q1757.96 1486.25 1752.15 1486.25 Q1746.34 1486.25 1743.26 1481.67 Q1740.21 1477.06 1740.21 1468.33 Q1740.21 1459.58 1743.26 1455 Q1746.34 1450.39 1752.15 1450.39 Z" fill="#000000" fill-rule="evenodd" fill-opacity="1" /><path clip-path="url(#clip600)" d="M1772.31 1479.7 L1777.2 1479.7 L1777.2 1485.58 L1772.31 1485.58 L1772.31 1479.7 Z" fill="#000000" fill-rule="evenodd" fill-opacity="1" /><path clip-path="url(#clip600)" d="M1786.2 1451.02 L1808.43 1451.02 L1808.43 1453.01 L1795.88 1485.58 L1790.99 1485.58 L1802.8 1454.96 L1786.2 1454.96 L1786.2 1451.02 Z" fill="#000000" fill-rule="evenodd" fill-opacity="1" /><path clip-path="url(#clip600)" d="M1817.59 1451.02 L1835.95 1451.02 L1835.95 1454.96 L1821.87 1454.96 L1821.87 1463.43 Q1822.89 1463.08 1823.91 1462.92 Q1824.93 1462.73 1825.95 1462.73 Q1831.74 1462.73 1835.11 1465.9 Q1838.49 1469.08 1838.49 1474.49 Q1838.49 1480.07 1835.02 1483.17 Q1831.55 1486.25 1825.23 1486.25 Q1823.05 1486.25 1820.79 1485.88 Q1818.54 1485.51 1816.13 1484.77 L1816.13 1480.07 Q1818.22 1481.2 1820.44 1481.76 Q1822.66 1482.32 1825.14 1482.32 Q1829.14 1482.32 1831.48 1480.21 Q1833.82 1478.1 1833.82 1474.49 Q1833.82 1470.88 1831.48 1468.77 Q1829.14 1466.67 1825.14 1466.67 Q1823.26 1466.67 1821.39 1467.08 Q1819.54 1467.5 1817.59 1468.38 L1817.59 1451.02 Z" fill="#000000" fill-rule="evenodd" fill-opacity="1" /><path clip-path="url(#clip600)" d="M2244.46 1481.64 L2252.1 1481.64 L2252.1 1455.28 L2243.79 1456.95 L2243.79 1452.69 L2252.06 1451.02 L2256.73 1451.02 L2256.73 1481.64 L2264.37 1481.64 L2264.37 1485.58 L2244.46 1485.58 L2244.46 1481.64 Z" fill="#000000" fill-rule="evenodd" fill-opacity="1" /><path clip-path="url(#clip600)" d="M2273.81 1479.7 L2278.7 1479.7 L2278.7 1485.58 L2273.81 1485.58 L2273.81 1479.7 Z" fill="#000000" fill-rule="evenodd" fill-opacity="1" /><path clip-path="url(#clip600)" d="M2298.88 1454.1 Q2295.27 1454.1 2293.44 1457.66 Q2291.64 1461.2 2291.64 1468.33 Q2291.64 1475.44 2293.44 1479.01 Q2295.27 1482.55 2298.88 1482.55 Q2302.52 1482.55 2304.32 1479.01 Q2306.15 1475.44 2306.15 1468.33 Q2306.15 1461.2 2304.32 1457.66 Q2302.52 1454.1 2298.88 1454.1 M2298.88 1450.39 Q2304.69 1450.39 2307.75 1455 Q2310.83 1459.58 2310.83 1468.33 Q2310.83 1477.06 2307.75 1481.67 Q2304.69 1486.25 2298.88 1486.25 Q2293.07 1486.25 2290 1481.67 Q2286.94 1477.06 2286.94 1468.33 Q2286.94 1459.58 2290 1455 Q2293.07 1450.39 2298.88 1450.39 Z" fill="#000000" fill-rule="evenodd" fill-opacity="1" /><path clip-path="url(#clip600)" d="M2329.05 1454.1 Q2325.43 1454.1 2323.61 1457.66 Q2321.8 1461.2 2321.8 1468.33 Q2321.8 1475.44 2323.61 1479.01 Q2325.43 1482.55 2329.05 1482.55 Q2332.68 1482.55 2334.49 1479.01 Q2336.31 1475.44 2336.31 1468.33 Q2336.31 1461.2 2334.49 1457.66 Q2332.68 1454.1 2329.05 1454.1 M2329.05 1450.39 Q2334.86 1450.39 2337.91 1455 Q2340.99 1459.58 2340.99 1468.33 Q2340.99 1477.06 2337.91 1481.67 Q2334.86 1486.25 2329.05 1486.25 Q2323.24 1486.25 2320.16 1481.67 Q2317.1 1477.06 2317.1 1468.33 Q2317.1 1459.58 2320.16 1455 Q2323.24 1450.39 2329.05 1450.39 Z" fill="#000000" fill-rule="evenodd" fill-opacity="1" /><path clip-path="url(#clip600)" d="M1038.1 1524.18 L1038.1 1530.96 Q1034.85 1527.94 1031.16 1526.44 Q1027.5 1524.95 1023.36 1524.95 Q1015.21 1524.95 1010.88 1529.95 Q1006.55 1534.91 1006.55 1544.33 Q1006.55 1553.72 1010.88 1558.72 Q1015.21 1563.68 1023.36 1563.68 Q1027.5 1563.68 1031.16 1562.19 Q1034.85 1560.69 1038.1 1557.67 L1038.1 1564.38 Q1034.72 1566.68 1030.93 1567.82 Q1027.18 1568.97 1022.98 1568.97 Q1012.19 1568.97 1005.98 1562.38 Q999.775 1555.76 999.775 1544.33 Q999.775 1532.87 1005.98 1526.28 Q1012.19 1519.66 1022.98 1519.66 Q1027.24 1519.66 1031 1520.81 Q1034.79 1521.92 1038.1 1524.18 Z" fill="#000000" fill-rule="evenodd" fill-opacity="1" /><path clip-path="url(#clip600)" d="M1061.59 1536.5 Q1056.88 1536.5 1054.14 1540.19 Q1051.4 1543.85 1051.4 1550.25 Q1051.4 1556.65 1054.11 1560.34 Q1056.84 1564 1061.59 1564 Q1066.26 1564 1069 1560.31 Q1071.74 1556.62 1071.74 1550.25 Q1071.74 1543.92 1069 1540.23 Q1066.26 1536.5 1061.59 1536.5 M1061.59 1531.54 Q1069.22 1531.54 1073.59 1536.5 Q1077.95 1541.47 1077.95 1550.25 Q1077.95 1559 1073.59 1564 Q1069.22 1568.97 1061.59 1568.97 Q1053.92 1568.97 1049.55 1564 Q1045.23 1559 1045.23 1550.25 Q1045.23 1541.47 1049.55 1536.5 Q1053.92 1531.54 1061.59 1531.54 Z" fill="#000000" fill-rule="evenodd" fill-opacity="1" /><path clip-path="url(#clip600)" d="M1087.05 1553.98 L1087.05 1532.4 L1092.91 1532.4 L1092.91 1553.75 Q1092.91 1558.81 1094.88 1561.36 Q1096.85 1563.87 1100.8 1563.87 Q1105.54 1563.87 1108.28 1560.85 Q1111.05 1557.83 1111.05 1552.61 L1111.05 1532.4 L1116.9 1532.4 L1116.9 1568.04 L1111.05 1568.04 L1111.05 1562.57 Q1108.91 1565.82 1106.08 1567.41 Q1103.28 1568.97 1099.56 1568.97 Q1093.41 1568.97 1090.23 1565.15 Q1087.05 1561.33 1087.05 1553.98 M1101.79 1531.54 L1101.79 1531.54 Z" fill="#000000" fill-rule="evenodd" fill-opacity="1" /><path clip-path="url(#clip600)" d="M1134.63 1562.7 L1134.63 1581.6 L1128.74 1581.6 L1128.74 1532.4 L1134.63 1532.4 L1134.63 1537.81 Q1136.48 1534.62 1139.28 1533.1 Q1142.11 1531.54 1146.03 1531.54 Q1152.52 1531.54 1156.56 1536.69 Q1160.64 1541.85 1160.64 1550.25 Q1160.64 1558.65 1156.56 1563.81 Q1152.52 1568.97 1146.03 1568.97 Q1142.11 1568.97 1139.28 1567.44 Q1136.48 1565.88 1134.63 1562.7 M1154.56 1550.25 Q1154.56 1543.79 1151.88 1540.13 Q1149.24 1536.44 1144.59 1536.44 Q1139.95 1536.44 1137.27 1540.13 Q1134.63 1543.79 1134.63 1550.25 Q1134.63 1556.71 1137.27 1560.4 Q1139.95 1564.07 1144.59 1564.07 Q1149.24 1564.07 1151.88 1560.4 Q1154.56 1556.71 1154.56 1550.25 Z" fill="#000000" fill-rule="evenodd" fill-opacity="1" /><path clip-path="url(#clip600)" d="M1170.34 1518.52 L1176.2 1518.52 L1176.2 1568.04 L1170.34 1568.04 L1170.34 1518.52 Z" fill="#000000" fill-rule="evenodd" fill-opacity="1" /><path clip-path="url(#clip600)" d="M1188.45 1532.4 L1194.31 1532.4 L1194.31 1568.04 L1188.45 1568.04 L1188.45 1532.4 M1188.45 1518.52 L1194.31 1518.52 L1194.31 1525.93 L1188.45 1525.93 L1188.45 1518.52 Z" fill="#000000" fill-rule="evenodd" fill-opacity="1" /><path clip-path="url(#clip600)" d="M1236.2 1546.53 L1236.2 1568.04 L1230.34 1568.04 L1230.34 1546.72 Q1230.34 1541.66 1228.37 1539.14 Q1226.39 1536.63 1222.45 1536.63 Q1217.7 1536.63 1214.97 1539.65 Q1212.23 1542.68 1212.23 1547.9 L1212.23 1568.04 L1206.34 1568.04 L1206.34 1532.4 L1212.23 1532.4 L1212.23 1537.93 Q1214.33 1534.72 1217.16 1533.13 Q1220.03 1531.54 1223.75 1531.54 Q1229.9 1531.54 1233.05 1535.36 Q1236.2 1539.14 1236.2 1546.53 Z" fill="#000000" fill-rule="evenodd" fill-opacity="1" /><path clip-path="url(#clip600)" d="M1271.34 1549.81 Q1271.34 1543.44 1268.69 1539.94 Q1266.08 1536.44 1261.34 1536.44 Q1256.63 1536.44 1253.99 1539.94 Q1251.38 1543.44 1251.38 1549.81 Q1251.38 1556.14 1253.99 1559.64 Q1256.63 1563.14 1261.34 1563.14 Q1266.08 1563.14 1268.69 1559.64 Q1271.34 1556.14 1271.34 1549.81 M1277.19 1563.62 Q1277.19 1572.72 1273.15 1577.15 Q1269.11 1581.6 1260.77 1581.6 Q1257.68 1581.6 1254.94 1581.13 Q1252.21 1580.68 1249.63 1579.72 L1249.63 1574.03 Q1252.21 1575.43 1254.72 1576.1 Q1257.24 1576.76 1259.85 1576.76 Q1265.61 1576.76 1268.47 1573.74 Q1271.34 1570.75 1271.34 1564.67 L1271.34 1561.77 Q1269.52 1564.92 1266.69 1566.48 Q1263.86 1568.04 1259.91 1568.04 Q1253.35 1568.04 1249.34 1563.05 Q1245.33 1558.05 1245.33 1549.81 Q1245.33 1541.53 1249.34 1536.53 Q1253.35 1531.54 1259.91 1531.54 Q1263.86 1531.54 1266.69 1533.1 Q1269.52 1534.66 1271.34 1537.81 L1271.34 1532.4 L1277.19 1532.4 L1277.19 1563.62 Z" fill="#000000" fill-rule="evenodd" fill-opacity="1" /><path clip-path="url(#clip600)" d="M1332.7 1533.45 L1332.7 1538.98 Q1330.22 1537.71 1327.54 1537.07 Q1324.87 1536.44 1322.01 1536.44 Q1317.65 1536.44 1315.45 1537.77 Q1313.29 1539.11 1313.29 1541.79 Q1313.29 1543.82 1314.85 1545 Q1316.4 1546.15 1321.12 1547.2 L1323.12 1547.64 Q1329.36 1548.98 1331.97 1551.43 Q1334.61 1553.85 1334.61 1558.21 Q1334.61 1563.17 1330.66 1566.07 Q1326.75 1568.97 1319.87 1568.97 Q1317.01 1568.97 1313.89 1568.39 Q1310.8 1567.85 1307.37 1566.74 L1307.37 1560.69 Q1310.61 1562.38 1313.76 1563.24 Q1316.91 1564.07 1320 1564.07 Q1324.14 1564.07 1326.37 1562.66 Q1328.6 1561.23 1328.6 1558.65 Q1328.6 1556.27 1326.97 1554.99 Q1325.38 1553.72 1319.94 1552.54 L1317.9 1552.07 Q1312.46 1550.92 1310.04 1548.56 Q1307.62 1546.18 1307.62 1542.04 Q1307.62 1537.01 1311.19 1534.27 Q1314.75 1531.54 1321.31 1531.54 Q1324.55 1531.54 1327.42 1532.01 Q1330.28 1532.49 1332.7 1533.45 Z" fill="#000000" fill-rule="evenodd" fill-opacity="1" /><path clip-path="url(#clip600)" d="M1349.73 1522.27 L1349.73 1532.4 L1361.79 1532.4 L1361.79 1536.95 L1349.73 1536.95 L1349.73 1556.3 Q1349.73 1560.66 1350.91 1561.9 Q1352.12 1563.14 1355.78 1563.14 L1361.79 1563.14 L1361.79 1568.04 L1355.78 1568.04 Q1349 1568.04 1346.42 1565.53 Q1343.84 1562.98 1343.84 1556.3 L1343.84 1536.95 L1339.54 1536.95 L1339.54 1532.4 L1343.84 1532.4 L1343.84 1522.27 L1349.73 1522.27 Z" fill="#000000" fill-rule="evenodd" fill-opacity="1" /><path clip-path="url(#clip600)" d="M1390.15 1537.87 Q1389.16 1537.3 1387.99 1537.04 Q1386.84 1536.76 1385.44 1536.76 Q1380.48 1536.76 1377.8 1540 Q1375.16 1543.22 1375.16 1549.27 L1375.16 1568.04 L1369.27 1568.04 L1369.27 1532.4 L1375.16 1532.4 L1375.16 1537.93 Q1377.01 1534.69 1379.97 1533.13 Q1382.93 1531.54 1387.16 1531.54 Q1387.76 1531.54 1388.5 1531.63 Q1389.23 1531.7 1390.12 1531.85 L1390.15 1537.87 Z" fill="#000000" fill-rule="evenodd" fill-opacity="1" /><path clip-path="url(#clip600)" d="M1425.35 1548.76 L1425.35 1551.62 L1398.43 1551.62 Q1398.81 1557.67 1402.06 1560.85 Q1405.33 1564 1411.16 1564 Q1414.53 1564 1417.68 1563.17 Q1420.87 1562.35 1423.99 1560.69 L1423.99 1566.23 Q1420.83 1567.57 1417.52 1568.27 Q1414.21 1568.97 1410.81 1568.97 Q1402.28 1568.97 1397.28 1564 Q1392.32 1559.04 1392.32 1550.57 Q1392.32 1541.82 1397.03 1536.69 Q1401.77 1531.54 1409.79 1531.54 Q1416.98 1531.54 1421.15 1536.18 Q1425.35 1540.8 1425.35 1548.76 M1419.5 1547.04 Q1419.43 1542.23 1416.79 1539.37 Q1414.18 1536.5 1409.85 1536.5 Q1404.95 1536.5 1401.99 1539.27 Q1399.06 1542.04 1398.62 1547.07 L1419.5 1547.04 Z" fill="#000000" fill-rule="evenodd" fill-opacity="1" /><path clip-path="url(#clip600)" d="M1464.6 1546.53 L1464.6 1568.04 L1458.74 1568.04 L1458.74 1546.72 Q1458.74 1541.66 1456.77 1539.14 Q1454.8 1536.63 1450.85 1536.63 Q1446.11 1536.63 1443.37 1539.65 Q1440.63 1542.68 1440.63 1547.9 L1440.63 1568.04 L1434.74 1568.04 L1434.74 1532.4 L1440.63 1532.4 L1440.63 1537.93 Q1442.73 1534.72 1445.57 1533.13 Q1448.43 1531.54 1452.15 1531.54 Q1458.3 1531.54 1461.45 1535.36 Q1464.6 1539.14 1464.6 1546.53 Z" fill="#000000" fill-rule="evenodd" fill-opacity="1" /><path clip-path="url(#clip600)" d="M1499.74 1549.81 Q1499.74 1543.44 1497.1 1539.94 Q1494.49 1536.44 1489.74 1536.44 Q1485.03 1536.44 1482.39 1539.94 Q1479.78 1543.44 1479.78 1549.81 Q1479.78 1556.14 1482.39 1559.64 Q1485.03 1563.14 1489.74 1563.14 Q1494.49 1563.14 1497.1 1559.64 Q1499.74 1556.14 1499.74 1549.81 M1505.59 1563.62 Q1505.59 1572.72 1501.55 1577.15 Q1497.51 1581.6 1489.17 1581.6 Q1486.08 1581.6 1483.35 1581.13 Q1480.61 1580.68 1478.03 1579.72 L1478.03 1574.03 Q1480.61 1575.43 1483.12 1576.1 Q1485.64 1576.76 1488.25 1576.76 Q1494.01 1576.76 1496.87 1573.74 Q1499.74 1570.75 1499.74 1564.67 L1499.74 1561.77 Q1497.92 1564.92 1495.09 1566.48 Q1492.26 1568.04 1488.31 1568.04 Q1481.75 1568.04 1477.74 1563.05 Q1473.73 1558.05 1473.73 1549.81 Q1473.73 1541.53 1477.74 1536.53 Q1481.75 1531.54 1488.31 1531.54 Q1492.26 1531.54 1495.09 1533.1 Q1497.92 1534.66 1499.74 1537.81 L1499.74 1532.4 L1505.59 1532.4 L1505.59 1563.62 Z" fill="#000000" fill-rule="evenodd" fill-opacity="1" /><path clip-path="url(#clip600)" d="M1523.45 1522.27 L1523.45 1532.4 L1535.51 1532.4 L1535.51 1536.95 L1523.45 1536.95 L1523.45 1556.3 Q1523.45 1560.66 1524.63 1561.9 Q1525.84 1563.14 1529.5 1563.14 L1535.51 1563.14 L1535.51 1568.04 L1529.5 1568.04 Q1522.72 1568.04 1520.14 1565.53 Q1517.56 1562.98 1517.56 1556.3 L1517.56 1536.95 L1513.26 1536.95 L1513.26 1532.4 L1517.56 1532.4 L1517.56 1522.27 L1523.45 1522.27 Z" fill="#000000" fill-rule="evenodd" fill-opacity="1" /><path clip-path="url(#clip600)" d="M1572.85 1546.53 L1572.85 1568.04 L1566.99 1568.04 L1566.99 1546.72 Q1566.99 1541.66 1565.02 1539.14 Q1563.04 1536.63 1559.1 1536.63 Q1554.36 1536.63 1551.62 1539.65 Q1548.88 1542.68 1548.88 1547.9 L1548.88 1568.04 L1542.99 1568.04 L1542.99 1518.52 L1548.88 1518.52 L1548.88 1537.93 Q1550.98 1534.72 1553.81 1533.13 Q1556.68 1531.54 1560.4 1531.54 Q1566.55 1531.54 1569.7 1535.36 Q1572.85 1539.14 1572.85 1546.53 Z" fill="#000000" fill-rule="evenodd" fill-opacity="1" /><polyline clip-path="url(#clip602)" style="stroke:#000000; stroke-linecap:butt; stroke-linejoin:round; stroke-width:2; stroke-opacity:0.1; fill:none" points="
  219.866,1388.85 2352.76,1388.85 
  "/>
<polyline clip-path="url(#clip602)" style="stroke:#000000; stroke-linecap:butt; stroke-linejoin:round; stroke-width:2; stroke-opacity:0.1; fill:none" points="
  219.866,1100.55 2352.76,1100.55 
  "/>
<polyline clip-path="url(#clip602)" style="stroke:#000000; stroke-linecap:butt; stroke-linejoin:round; stroke-width:2; stroke-opacity:0.1; fill:none" points="
  219.866,812.252 2352.76,812.252 
  "/>
<polyline clip-path="url(#clip602)" style="stroke:#000000; stroke-linecap:butt; stroke-linejoin:round; stroke-width:2; stroke-opacity:0.1; fill:none" points="
  219.866,523.953 2352.76,523.953 
  "/>
<polyline clip-path="url(#clip602)" style="stroke:#000000; stroke-linecap:butt; stroke-linejoin:round; stroke-width:2; stroke-opacity:0.1; fill:none" points="
  219.866,235.655 2352.76,235.655 
  "/>
<polyline clip-path="url(#clip600)" style="stroke:#000000; stroke-linecap:butt; stroke-linejoin:round; stroke-width:4; stroke-opacity:1; fill:none" points="
  219.866,1423.18 219.866,47.2441 
  "/>
<polyline clip-path="url(#clip600)" style="stroke:#000000; stroke-linecap:butt; stroke-linejoin:round; stroke-width:4; stroke-opacity:1; fill:none" points="
  219.866,1388.85 238.764,1388.85 
  "/>
<polyline clip-path="url(#clip600)" style="stroke:#000000; stroke-linecap:butt; stroke-linejoin:round; stroke-width:4; stroke-opacity:1; fill:none" points="
  219.866,1100.55 238.764,1100.55 
  "/>
<polyline clip-path="url(#clip600)" style="stroke:#000000; stroke-linecap:butt; stroke-linejoin:round; stroke-width:4; stroke-opacity:1; fill:none" points="
  219.866,812.252 238.764,812.252 
  "/>
<polyline clip-path="url(#clip600)" style="stroke:#000000; stroke-linecap:butt; stroke-linejoin:round; stroke-width:4; stroke-opacity:1; fill:none" points="
  219.866,523.953 238.764,523.953 
  "/>
<polyline clip-path="url(#clip600)" style="stroke:#000000; stroke-linecap:butt; stroke-linejoin:round; stroke-width:4; stroke-opacity:1; fill:none" points="
  219.866,235.655 238.764,235.655 
  "/>
<path clip-path="url(#clip600)" d="M126.691 1374.65 Q123.08 1374.65 121.251 1378.21 Q119.445 1381.76 119.445 1388.88 Q119.445 1395.99 121.251 1399.56 Q123.08 1403.1 126.691 1403.1 Q130.325 1403.1 132.13 1399.56 Q133.959 1395.99 133.959 1388.88 Q133.959 1381.76 132.13 1378.21 Q130.325 1374.65 126.691 1374.65 M126.691 1370.94 Q132.501 1370.94 135.556 1375.55 Q138.635 1380.13 138.635 1388.88 Q138.635 1397.61 135.556 1402.22 Q132.501 1406.8 126.691 1406.8 Q120.88 1406.8 117.802 1402.22 Q114.746 1397.61 114.746 1388.88 Q114.746 1380.13 117.802 1375.55 Q120.88 1370.94 126.691 1370.94 Z" fill="#000000" fill-rule="evenodd" fill-opacity="1" /><path clip-path="url(#clip600)" d="M146.853 1400.25 L151.737 1400.25 L151.737 1406.13 L146.853 1406.13 L146.853 1400.25 Z" fill="#000000" fill-rule="evenodd" fill-opacity="1" /><path clip-path="url(#clip600)" d="M171.922 1374.65 Q168.311 1374.65 166.482 1378.21 Q164.677 1381.76 164.677 1388.88 Q164.677 1395.99 166.482 1399.56 Q168.311 1403.1 171.922 1403.1 Q175.556 1403.1 177.362 1399.56 Q179.19 1395.99 179.19 1388.88 Q179.19 1381.76 177.362 1378.21 Q175.556 1374.65 171.922 1374.65 M171.922 1370.94 Q177.732 1370.94 180.788 1375.55 Q183.866 1380.13 183.866 1388.88 Q183.866 1397.61 180.788 1402.22 Q177.732 1406.8 171.922 1406.8 Q166.112 1406.8 163.033 1402.22 Q159.978 1397.61 159.978 1388.88 Q159.978 1380.13 163.033 1375.55 Q166.112 1370.94 171.922 1370.94 Z" fill="#000000" fill-rule="evenodd" fill-opacity="1" /><path clip-path="url(#clip600)" d="M128.288 1086.35 Q124.677 1086.35 122.848 1089.91 Q121.043 1093.46 121.043 1100.59 Q121.043 1107.69 122.848 1111.26 Q124.677 1114.8 128.288 1114.8 Q131.922 1114.8 133.728 1111.26 Q135.556 1107.69 135.556 1100.59 Q135.556 1093.46 133.728 1089.91 Q131.922 1086.35 128.288 1086.35 M128.288 1082.65 Q134.098 1082.65 137.154 1087.25 Q140.232 1091.84 140.232 1100.59 Q140.232 1109.31 137.154 1113.92 Q134.098 1118.5 128.288 1118.5 Q122.478 1118.5 119.399 1113.92 Q116.343 1109.31 116.343 1100.59 Q116.343 1091.84 119.399 1087.25 Q122.478 1082.65 128.288 1082.65 Z" fill="#000000" fill-rule="evenodd" fill-opacity="1" /><path clip-path="url(#clip600)" d="M148.45 1111.95 L153.334 1111.95 L153.334 1117.83 L148.45 1117.83 L148.45 1111.95 Z" fill="#000000" fill-rule="evenodd" fill-opacity="1" /><path clip-path="url(#clip600)" d="M167.547 1113.9 L183.866 1113.9 L183.866 1117.83 L161.922 1117.83 L161.922 1113.9 Q164.584 1111.14 169.167 1106.51 Q173.774 1101.86 174.954 1100.52 Q177.2 1097.99 178.079 1096.26 Q178.982 1094.5 178.982 1092.81 Q178.982 1090.05 177.038 1088.32 Q175.116 1086.58 172.014 1086.58 Q169.815 1086.58 167.362 1087.35 Q164.931 1088.11 162.153 1089.66 L162.153 1084.94 Q164.977 1083.8 167.431 1083.22 Q169.885 1082.65 171.922 1082.65 Q177.292 1082.65 180.487 1085.33 Q183.681 1088.02 183.681 1092.51 Q183.681 1094.64 182.871 1096.56 Q182.084 1098.46 179.977 1101.05 Q179.399 1101.72 176.297 1104.94 Q173.195 1108.13 167.547 1113.9 Z" fill="#000000" fill-rule="evenodd" fill-opacity="1" /><path clip-path="url(#clip600)" d="M126.205 798.051 Q122.593 798.051 120.765 801.616 Q118.959 805.157 118.959 812.287 Q118.959 819.393 120.765 822.958 Q122.593 826.5 126.205 826.5 Q129.839 826.5 131.644 822.958 Q133.473 819.393 133.473 812.287 Q133.473 805.157 131.644 801.616 Q129.839 798.051 126.205 798.051 M126.205 794.347 Q132.015 794.347 135.07 798.954 Q138.149 803.537 138.149 812.287 Q138.149 821.014 135.07 825.62 Q132.015 830.204 126.205 830.204 Q120.394 830.204 117.316 825.62 Q114.26 821.014 114.26 812.287 Q114.26 803.537 117.316 798.954 Q120.394 794.347 126.205 794.347 Z" fill="#000000" fill-rule="evenodd" fill-opacity="1" /><path clip-path="url(#clip600)" d="M146.366 823.653 L151.251 823.653 L151.251 829.532 L146.366 829.532 L146.366 823.653 Z" fill="#000000" fill-rule="evenodd" fill-opacity="1" /><path clip-path="url(#clip600)" d="M174.283 799.046 L162.477 817.495 L174.283 817.495 L174.283 799.046 M173.056 794.972 L178.936 794.972 L178.936 817.495 L183.866 817.495 L183.866 821.384 L178.936 821.384 L178.936 829.532 L174.283 829.532 L174.283 821.384 L158.681 821.384 L158.681 816.87 L173.056 794.972 Z" fill="#000000" fill-rule="evenodd" fill-opacity="1" /><path clip-path="url(#clip600)" d="M126.529 509.752 Q122.918 509.752 121.089 513.317 Q119.283 516.859 119.283 523.988 Q119.283 531.095 121.089 534.659 Q122.918 538.201 126.529 538.201 Q130.163 538.201 131.968 534.659 Q133.797 531.095 133.797 523.988 Q133.797 516.859 131.968 513.317 Q130.163 509.752 126.529 509.752 M126.529 506.048 Q132.339 506.048 135.394 510.655 Q138.473 515.238 138.473 523.988 Q138.473 532.715 135.394 537.321 Q132.339 541.905 126.529 541.905 Q120.718 541.905 117.64 537.321 Q114.584 532.715 114.584 523.988 Q114.584 515.238 117.64 510.655 Q120.718 506.048 126.529 506.048 Z" fill="#000000" fill-rule="evenodd" fill-opacity="1" /><path clip-path="url(#clip600)" d="M146.691 535.354 L151.575 535.354 L151.575 541.233 L146.691 541.233 L146.691 535.354 Z" fill="#000000" fill-rule="evenodd" fill-opacity="1" /><path clip-path="url(#clip600)" d="M172.339 522.09 Q169.19 522.09 167.339 524.243 Q165.51 526.396 165.51 530.146 Q165.51 533.872 167.339 536.048 Q169.19 538.201 172.339 538.201 Q175.487 538.201 177.315 536.048 Q179.167 533.872 179.167 530.146 Q179.167 526.396 177.315 524.243 Q175.487 522.09 172.339 522.09 M181.621 507.437 L181.621 511.697 Q179.862 510.863 178.056 510.423 Q176.274 509.984 174.514 509.984 Q169.885 509.984 167.431 513.109 Q165.001 516.234 164.653 522.553 Q166.019 520.539 168.079 519.474 Q170.139 518.386 172.616 518.386 Q177.825 518.386 180.834 521.558 Q183.866 524.706 183.866 530.146 Q183.866 535.47 180.718 538.687 Q177.57 541.905 172.339 541.905 Q166.343 541.905 163.172 537.321 Q160.001 532.715 160.001 523.988 Q160.001 515.794 163.89 510.933 Q167.778 506.048 174.329 506.048 Q176.089 506.048 177.871 506.396 Q179.676 506.743 181.621 507.437 Z" fill="#000000" fill-rule="evenodd" fill-opacity="1" /><path clip-path="url(#clip600)" d="M126.783 221.453 Q123.172 221.453 121.343 225.018 Q119.538 228.56 119.538 235.689 Q119.538 242.796 121.343 246.361 Q123.172 249.902 126.783 249.902 Q130.417 249.902 132.223 246.361 Q134.052 242.796 134.052 235.689 Q134.052 228.56 132.223 225.018 Q130.417 221.453 126.783 221.453 M126.783 217.75 Q132.593 217.75 135.649 222.356 Q138.728 226.939 138.728 235.689 Q138.728 244.416 135.649 249.023 Q132.593 253.606 126.783 253.606 Q120.973 253.606 117.894 249.023 Q114.839 244.416 114.839 235.689 Q114.839 226.939 117.894 222.356 Q120.973 217.75 126.783 217.75 Z" fill="#000000" fill-rule="evenodd" fill-opacity="1" /><path clip-path="url(#clip600)" d="M146.945 247.055 L151.829 247.055 L151.829 252.935 L146.945 252.935 L146.945 247.055 Z" fill="#000000" fill-rule="evenodd" fill-opacity="1" /><path clip-path="url(#clip600)" d="M172.014 236.523 Q168.681 236.523 166.76 238.305 Q164.862 240.087 164.862 243.212 Q164.862 246.337 166.76 248.12 Q168.681 249.902 172.014 249.902 Q175.348 249.902 177.269 248.12 Q179.19 246.314 179.19 243.212 Q179.19 240.087 177.269 238.305 Q175.371 236.523 172.014 236.523 M167.339 234.532 Q164.329 233.791 162.64 231.731 Q160.973 229.671 160.973 226.708 Q160.973 222.564 163.913 220.157 Q166.876 217.75 172.014 217.75 Q177.176 217.75 180.116 220.157 Q183.056 222.564 183.056 226.708 Q183.056 229.671 181.366 231.731 Q179.7 233.791 176.714 234.532 Q180.093 235.319 181.968 237.611 Q183.866 239.902 183.866 243.212 Q183.866 248.236 180.788 250.921 Q177.732 253.606 172.014 253.606 Q166.297 253.606 163.218 250.921 Q160.163 248.236 160.163 243.212 Q160.163 239.902 162.061 237.611 Q163.959 235.319 167.339 234.532 M165.626 227.148 Q165.626 229.833 167.292 231.338 Q168.982 232.842 172.014 232.842 Q175.024 232.842 176.714 231.338 Q178.426 229.833 178.426 227.148 Q178.426 224.463 176.714 222.958 Q175.024 221.453 172.014 221.453 Q168.982 221.453 167.292 222.958 Q165.626 224.463 165.626 227.148 Z" fill="#000000" fill-rule="evenodd" fill-opacity="1" /><path clip-path="url(#clip600)" d="M16.4842 1038.95 L16.4842 1029.37 L48.8219 1017.24 L16.4842 1005.05 L16.4842 995.474 L64.0042 995.474 L64.0042 1001.74 L22.277 1001.74 L54.8694 1014 L54.8694 1020.46 L22.277 1032.71 L64.0042 1032.71 L64.0042 1038.95 L16.4842 1038.95 Z" fill="#000000" fill-rule="evenodd" fill-opacity="1" /><path clip-path="url(#clip600)" d="M49.9359 983.57 L28.3562 983.57 L28.3562 977.714 L49.7131 977.714 Q54.7739 977.714 57.3202 975.74 Q59.8346 973.767 59.8346 969.82 Q59.8346 965.078 56.8109 962.34 Q53.7872 959.571 48.5673 959.571 L28.3562 959.571 L28.3562 953.715 L64.0042 953.715 L64.0042 959.571 L58.5296 959.571 Q61.7762 961.704 63.3676 964.537 Q64.9272 967.337 64.9272 971.061 Q64.9272 977.204 61.1078 980.387 Q57.2883 983.57 49.9359 983.57 M27.4968 968.833 L27.4968 968.833 Z" fill="#000000" fill-rule="evenodd" fill-opacity="1" /><path clip-path="url(#clip600)" d="M18.2347 935.859 L28.3562 935.859 L28.3562 923.796 L32.9077 923.796 L32.9077 935.859 L52.2594 935.859 Q56.6199 935.859 57.8613 934.681 Q59.1026 933.472 59.1026 929.812 L59.1026 923.796 L64.0042 923.796 L64.0042 929.812 Q64.0042 936.591 61.4897 939.169 Q58.9434 941.747 52.2594 941.747 L32.9077 941.747 L32.9077 946.044 L28.3562 946.044 L28.3562 941.747 L18.2347 941.747 L18.2347 935.859 Z" fill="#000000" fill-rule="evenodd" fill-opacity="1" /><path clip-path="url(#clip600)" d="M49.9359 916.698 L28.3562 916.698 L28.3562 910.842 L49.7131 910.842 Q54.7739 910.842 57.3202 908.868 Q59.8346 906.895 59.8346 902.948 Q59.8346 898.206 56.8109 895.469 Q53.7872 892.7 48.5673 892.7 L28.3562 892.7 L28.3562 886.843 L64.0042 886.843 L64.0042 892.7 L58.5296 892.7 Q61.7762 894.832 63.3676 897.665 Q64.9272 900.466 64.9272 904.19 Q64.9272 910.333 61.1078 913.515 Q57.2883 916.698 49.9359 916.698 M27.4968 901.962 L27.4968 901.962 Z" fill="#000000" fill-rule="evenodd" fill-opacity="1" /><path clip-path="url(#clip600)" d="M46.0847 858.579 Q46.0847 865.677 47.7079 868.414 Q49.3312 871.152 53.2461 871.152 Q56.3653 871.152 58.2114 869.115 Q60.0256 867.046 60.0256 863.513 Q60.0256 858.643 56.5881 855.715 Q53.1188 852.755 47.3897 852.755 L46.0847 852.755 L46.0847 858.579 M43.6657 846.898 L64.0042 846.898 L64.0042 852.755 L58.5933 852.755 Q61.8398 854.76 63.3994 857.752 Q64.9272 860.744 64.9272 865.072 Q64.9272 870.547 61.8716 873.793 Q58.7843 877.008 53.6281 877.008 Q47.6125 877.008 44.5569 872.998 Q41.5014 868.955 41.5014 860.967 L41.5014 852.755 L40.9285 852.755 Q36.8862 852.755 34.6901 855.428 Q32.4621 858.07 32.4621 862.876 Q32.4621 865.932 33.1941 868.828 Q33.9262 871.725 35.3903 874.398 L29.9795 874.398 Q28.7381 871.183 28.1334 868.16 Q27.4968 865.136 27.4968 862.271 Q27.4968 854.537 31.5072 850.718 Q35.5176 846.898 43.6657 846.898 Z" fill="#000000" fill-rule="evenodd" fill-opacity="1" /><path clip-path="url(#clip600)" d="M14.479 834.835 L14.479 828.979 L64.0042 828.979 L64.0042 834.835 L14.479 834.835 Z" fill="#000000" fill-rule="evenodd" fill-opacity="1" /><path clip-path="url(#clip600)" d="M28.3562 796.004 L28.3562 790.148 L64.0042 790.148 L64.0042 796.004 L28.3562 796.004 M14.479 796.004 L14.479 790.148 L21.895 790.148 L21.895 796.004 L14.479 796.004 Z" fill="#000000" fill-rule="evenodd" fill-opacity="1" /><path clip-path="url(#clip600)" d="M42.4881 748.262 L64.0042 748.262 L64.0042 754.118 L42.679 754.118 Q37.6183 754.118 35.1038 756.091 Q32.5894 758.065 32.5894 762.012 Q32.5894 766.754 35.6131 769.491 Q38.6368 772.229 43.8567 772.229 L64.0042 772.229 L64.0042 778.117 L28.3562 778.117 L28.3562 772.229 L33.8944 772.229 Q30.6797 770.128 29.0883 767.295 Q27.4968 764.431 27.4968 760.707 Q27.4968 754.564 31.3163 751.413 Q35.1038 748.262 42.4881 748.262 Z" fill="#000000" fill-rule="evenodd" fill-opacity="1" /><path clip-path="url(#clip600)" d="M14.479 718.534 L19.3487 718.534 L19.3487 724.136 Q19.3487 727.287 20.6219 728.528 Q21.895 729.737 25.2052 729.737 L28.3562 729.737 L28.3562 720.093 L32.9077 720.093 L32.9077 729.737 L64.0042 729.737 L64.0042 735.626 L32.9077 735.626 L32.9077 741.228 L28.3562 741.228 L28.3562 735.626 L25.8736 735.626 Q19.9216 735.626 17.2162 732.857 Q14.479 730.088 14.479 724.072 L14.479 718.534 Z" fill="#000000" fill-rule="evenodd" fill-opacity="1" /><path clip-path="url(#clip600)" d="M32.4621 699.819 Q32.4621 704.529 36.1542 707.267 Q39.8145 710.004 46.212 710.004 Q52.6095 710.004 56.3017 707.298 Q59.9619 704.561 59.9619 699.819 Q59.9619 695.14 56.2698 692.403 Q52.5777 689.665 46.212 689.665 Q39.8781 689.665 36.186 692.403 Q32.4621 695.14 32.4621 699.819 M27.4968 699.819 Q27.4968 692.18 32.4621 687.819 Q37.4273 683.459 46.212 683.459 Q54.9649 683.459 59.9619 687.819 Q64.9272 692.18 64.9272 699.819 Q64.9272 707.489 59.9619 711.85 Q54.9649 716.179 46.212 716.179 Q37.4273 716.179 32.4621 711.85 Q27.4968 707.489 27.4968 699.819 Z" fill="#000000" fill-rule="evenodd" fill-opacity="1" /><path clip-path="url(#clip600)" d="M33.8307 653.094 Q33.2578 654.081 33.0032 655.259 Q32.7167 656.405 32.7167 657.805 Q32.7167 662.77 35.9632 665.444 Q39.1779 668.086 45.2253 668.086 L64.0042 668.086 L64.0042 673.974 L28.3562 673.974 L28.3562 668.086 L33.8944 668.086 Q30.6479 666.24 29.0883 663.279 Q27.4968 660.319 27.4968 656.086 Q27.4968 655.481 27.5923 654.749 Q27.656 654.017 27.8151 653.126 L33.8307 653.094 Z" fill="#000000" fill-rule="evenodd" fill-opacity="1" /><path clip-path="url(#clip600)" d="M35.1993 620.343 Q31.2526 618.147 29.3747 615.091 Q27.4968 612.036 27.4968 607.898 Q27.4968 602.328 31.4117 599.304 Q35.2948 596.28 42.4881 596.28 L64.0042 596.28 L64.0042 602.169 L42.679 602.169 Q37.5546 602.169 35.072 603.983 Q32.5894 605.797 32.5894 609.521 Q32.5894 614.073 35.6131 616.714 Q38.6368 619.356 43.8567 619.356 L64.0042 619.356 L64.0042 625.244 L42.679 625.244 Q37.5228 625.244 35.072 627.059 Q32.5894 628.873 32.5894 632.66 Q32.5894 637.148 35.6449 639.79 Q38.6686 642.432 43.8567 642.432 L64.0042 642.432 L64.0042 648.32 L28.3562 648.32 L28.3562 642.432 L33.8944 642.432 Q30.616 640.427 29.0564 637.626 Q27.4968 634.825 27.4968 630.974 Q27.4968 627.09 29.4702 624.385 Q31.4436 621.648 35.1993 620.343 Z" fill="#000000" fill-rule="evenodd" fill-opacity="1" /><path clip-path="url(#clip600)" d="M46.0847 568.399 Q46.0847 575.496 47.7079 578.234 Q49.3312 580.971 53.2461 580.971 Q56.3653 580.971 58.2114 578.934 Q60.0256 576.865 60.0256 573.332 Q60.0256 568.462 56.5881 565.534 Q53.1188 562.574 47.3897 562.574 L46.0847 562.574 L46.0847 568.399 M43.6657 556.718 L64.0042 556.718 L64.0042 562.574 L58.5933 562.574 Q61.8398 564.579 63.3994 567.571 Q64.9272 570.563 64.9272 574.892 Q64.9272 580.366 61.8716 583.613 Q58.7843 586.827 53.6281 586.827 Q47.6125 586.827 44.5569 582.817 Q41.5014 578.775 41.5014 570.786 L41.5014 562.574 L40.9285 562.574 Q36.8862 562.574 34.6901 565.248 Q32.4621 567.889 32.4621 572.695 Q32.4621 575.751 33.1941 578.647 Q33.9262 581.544 35.3903 584.217 L29.9795 584.217 Q28.7381 581.003 28.1334 577.979 Q27.4968 574.955 27.4968 572.091 Q27.4968 564.356 31.5072 560.537 Q35.5176 556.718 43.6657 556.718 Z" fill="#000000" fill-rule="evenodd" fill-opacity="1" /><path clip-path="url(#clip600)" d="M18.2347 538.862 L28.3562 538.862 L28.3562 526.799 L32.9077 526.799 L32.9077 538.862 L52.2594 538.862 Q56.6199 538.862 57.8613 537.684 Q59.1026 536.475 59.1026 532.814 L59.1026 526.799 L64.0042 526.799 L64.0042 532.814 Q64.0042 539.594 61.4897 542.172 Q58.9434 544.75 52.2594 544.75 L32.9077 544.75 L32.9077 549.047 L28.3562 549.047 L28.3562 544.75 L18.2347 544.75 L18.2347 538.862 Z" fill="#000000" fill-rule="evenodd" fill-opacity="1" /><path clip-path="url(#clip600)" d="M28.3562 519.096 L28.3562 513.24 L64.0042 513.24 L64.0042 519.096 L28.3562 519.096 M14.479 519.096 L14.479 513.24 L21.895 513.24 L21.895 519.096 L14.479 519.096 Z" fill="#000000" fill-rule="evenodd" fill-opacity="1" /><path clip-path="url(#clip600)" d="M32.4621 487.172 Q32.4621 491.883 36.1542 494.62 Q39.8145 497.357 46.212 497.357 Q52.6095 497.357 56.3017 494.652 Q59.9619 491.915 59.9619 487.172 Q59.9619 482.493 56.2698 479.756 Q52.5777 477.019 46.212 477.019 Q39.8781 477.019 36.186 479.756 Q32.4621 482.493 32.4621 487.172 M27.4968 487.172 Q27.4968 479.533 32.4621 475.173 Q37.4273 470.812 46.212 470.812 Q54.9649 470.812 59.9619 475.173 Q64.9272 479.533 64.9272 487.172 Q64.9272 494.843 59.9619 499.203 Q54.9649 503.532 46.212 503.532 Q37.4273 503.532 32.4621 499.203 Q27.4968 494.843 27.4968 487.172 Z" fill="#000000" fill-rule="evenodd" fill-opacity="1" /><path clip-path="url(#clip600)" d="M42.4881 431.472 L64.0042 431.472 L64.0042 437.329 L42.679 437.329 Q37.6183 437.329 35.1038 439.302 Q32.5894 441.275 32.5894 445.222 Q32.5894 449.965 35.6131 452.702 Q38.6368 455.439 43.8567 455.439 L64.0042 455.439 L64.0042 461.327 L28.3562 461.327 L28.3562 455.439 L33.8944 455.439 Q30.6797 453.338 29.0883 450.506 Q27.4968 447.641 27.4968 443.917 Q27.4968 437.774 31.3163 434.623 Q35.1038 431.472 42.4881 431.472 Z" fill="#000000" fill-rule="evenodd" fill-opacity="1" /><path clip-path="url(#clip602)" d="
M280.231 1384.24 L481.447 1383.3 L682.663 1367.47 L883.879 1334.54 L1085.1 1265.19 L1286.31 1236.57 L1487.53 1146.6 L1688.74 1031.97 L1889.96 920.796 L2091.18 750.436 
  L2292.39 546.763 L2292.39 86.1857 L2091.18 309.105 L1889.96 528.865 L1688.74 684.829 L1487.53 859.232 L1286.31 1031.68 L1085.1 1101.54 L883.879 1202.01 L682.663 1265.69 
  L481.447 1330.37 L280.231 1347.11  Z
  " fill="#000000" fill-rule="evenodd" fill-opacity="0.3"/>
<polyline clip-path="url(#clip602)" style="stroke:#000000; stroke-linecap:butt; stroke-linejoin:round; stroke-width:4; stroke-opacity:1; fill:none" points="
  280.231,1372.36 481.447,1367.89 682.663,1334.68 883.879,1283.93 1085.1,1198.73 1286.31,1154.03 1487.53,1027.37 1688.74,889.754 1889.96,742.69 2091.18,537.017 
  2292.39,328.528 
  "/>
<path clip-path="url(#clip602)" d="
M280.231 1381.8 L481.447 1358.08 L682.663 1274.82 L883.879 1176.28 L1085.1 1077.62 L1286.31 986.175 L1487.53 937.894 L1688.74 899.161 L1889.96 855.18 L2091.18 844.754 
  L2292.39 797.232 L2292.39 345.311 L2091.18 364.918 L1889.96 393.929 L1688.74 447.201 L1487.53 499.011 L1286.31 583.301 L1085.1 696.455 L883.879 824.384 L682.663 1023.83 
  L481.447 1224.64 L280.231 1336.72  Z
  " fill="#ff0000" fill-rule="evenodd" fill-opacity="0.3"/>
<polyline clip-path="url(#clip602)" style="stroke:#ff0000; stroke-linecap:butt; stroke-linejoin:round; stroke-width:4; stroke-opacity:1; fill:none" points="
  280.231,1366 481.447,1306.1 682.663,1165.27 883.879,1016.23 1085.1,891.298 1286.31,800.636 1487.53,728.361 1688.74,674.497 1889.96,639.431 2091.18,610.179 
  2292.39,592.769 
  "/>
<path clip-path="url(#clip600)" d="
M290.963 248.629 L1141.21 248.629 L1141.21 93.1086 L290.963 93.1086  Z
  " fill="#ffffff" fill-rule="evenodd" fill-opacity="1"/>
<polyline clip-path="url(#clip600)" style="stroke:#000000; stroke-linecap:butt; stroke-linejoin:round; stroke-width:4; stroke-opacity:1; fill:none" points="
  290.963,248.629 1141.21,248.629 1141.21,93.1086 290.963,93.1086 290.963,248.629 
  "/>
<polyline clip-path="url(#clip600)" style="stroke:#000000; stroke-linecap:butt; stroke-linejoin:round; stroke-width:4; stroke-opacity:1; fill:none" points="
  314.661,144.949 456.854,144.949 
  "/>
<path clip-path="url(#clip600)" d="M486.178 158.293 L502.497 158.293 L502.497 162.229 L480.553 162.229 L480.553 158.293 Q483.215 155.539 487.798 150.909 Q492.405 146.256 493.585 144.914 Q495.83 142.391 496.71 140.655 Q497.613 138.895 497.613 137.206 Q497.613 134.451 495.668 132.715 Q493.747 130.979 490.645 130.979 Q488.446 130.979 485.993 131.743 Q483.562 132.507 480.784 134.057 L480.784 129.335 Q483.608 128.201 486.062 127.622 Q488.516 127.044 490.553 127.044 Q495.923 127.044 499.117 129.729 Q502.312 132.414 502.312 136.905 Q502.312 139.034 501.502 140.956 Q500.715 142.854 498.608 145.446 Q498.03 146.118 494.928 149.335 Q491.826 152.53 486.178 158.293 Z" fill="#000000" fill-rule="evenodd" fill-opacity="1" /><path clip-path="url(#clip600)" d="M516.571 131.511 L516.571 158.386 L522.219 158.386 Q529.372 158.386 532.682 155.145 Q536.015 151.905 536.015 144.914 Q536.015 137.969 532.682 134.752 Q529.372 131.511 522.219 131.511 L516.571 131.511 M511.895 127.669 L521.502 127.669 Q531.548 127.669 536.247 131.858 Q540.946 136.025 540.946 144.914 Q540.946 153.849 536.224 158.039 Q531.502 162.229 521.502 162.229 L511.895 162.229 L511.895 127.669 Z" fill="#000000" fill-rule="evenodd" fill-opacity="1" /><path clip-path="url(#clip600)" d="M581.941 137.298 L581.941 141.28 Q580.136 140.284 578.307 139.798 Q576.501 139.289 574.649 139.289 Q570.506 139.289 568.214 141.928 Q565.923 144.544 565.923 149.289 Q565.923 154.034 568.214 156.673 Q570.506 159.289 574.649 159.289 Q576.501 159.289 578.307 158.803 Q580.136 158.293 581.941 157.298 L581.941 161.233 Q580.159 162.067 578.237 162.483 Q576.339 162.9 574.187 162.9 Q568.33 162.9 564.881 159.219 Q561.432 155.539 561.432 149.289 Q561.432 142.946 564.904 139.312 Q568.4 135.678 574.464 135.678 Q576.432 135.678 578.307 136.095 Q580.182 136.488 581.941 137.298 Z" fill="#000000" fill-rule="evenodd" fill-opacity="1" /><path clip-path="url(#clip600)" d="M610.899 146.581 L610.899 162.229 L606.64 162.229 L606.64 146.719 Q606.64 143.039 605.205 141.21 Q603.77 139.382 600.899 139.382 Q597.45 139.382 595.46 141.581 Q593.469 143.78 593.469 147.576 L593.469 162.229 L589.186 162.229 L589.186 126.21 L593.469 126.21 L593.469 140.331 Q594.997 137.993 597.057 136.835 Q599.14 135.678 601.848 135.678 Q606.316 135.678 608.608 138.456 Q610.899 141.21 610.899 146.581 Z" fill="#000000" fill-rule="evenodd" fill-opacity="1" /><path clip-path="url(#clip600)" d="M631.177 149.196 Q626.015 149.196 624.024 150.377 Q622.034 151.557 622.034 154.405 Q622.034 156.673 623.515 158.016 Q625.02 159.335 627.589 159.335 Q631.131 159.335 633.26 156.835 Q635.413 154.312 635.413 150.145 L635.413 149.196 L631.177 149.196 M639.672 147.437 L639.672 162.229 L635.413 162.229 L635.413 158.293 Q633.955 160.655 631.779 161.789 Q629.603 162.9 626.455 162.9 Q622.473 162.9 620.112 160.678 Q617.774 158.432 617.774 154.682 Q617.774 150.307 620.691 148.085 Q623.631 145.863 629.441 145.863 L635.413 145.863 L635.413 145.446 Q635.413 142.507 633.469 140.909 Q631.547 139.289 628.052 139.289 Q625.83 139.289 623.723 139.821 Q621.617 140.354 619.672 141.419 L619.672 137.483 Q622.01 136.581 624.209 136.141 Q626.408 135.678 628.492 135.678 Q634.117 135.678 636.895 138.594 Q639.672 141.511 639.672 147.437 Z" fill="#000000" fill-rule="evenodd" fill-opacity="1" /><path clip-path="url(#clip600)" d="M658.492 139.289 Q655.066 139.289 653.075 141.974 Q651.084 144.636 651.084 149.289 Q651.084 153.942 653.052 156.627 Q655.043 159.289 658.492 159.289 Q661.894 159.289 663.885 156.604 Q665.876 153.918 665.876 149.289 Q665.876 144.682 663.885 141.997 Q661.894 139.289 658.492 139.289 M658.492 135.678 Q664.047 135.678 667.218 139.289 Q670.39 142.9 670.39 149.289 Q670.39 155.655 667.218 159.289 Q664.047 162.9 658.492 162.9 Q652.913 162.9 649.742 159.289 Q646.594 155.655 646.594 149.289 Q646.594 142.9 649.742 139.289 Q652.913 135.678 658.492 135.678 Z" fill="#000000" fill-rule="evenodd" fill-opacity="1" /><path clip-path="url(#clip600)" d="M681.663 128.942 L681.663 136.303 L690.436 136.303 L690.436 139.613 L681.663 139.613 L681.663 153.687 Q681.663 156.858 682.519 157.761 Q683.399 158.664 686.061 158.664 L690.436 158.664 L690.436 162.229 L686.061 162.229 Q681.13 162.229 679.255 160.4 Q677.38 158.548 677.38 153.687 L677.38 139.613 L674.255 139.613 L674.255 136.303 L677.38 136.303 L677.38 128.942 L681.663 128.942 Z" fill="#000000" fill-rule="evenodd" fill-opacity="1" /><path clip-path="url(#clip600)" d="M696.038 136.303 L700.297 136.303 L700.297 162.229 L696.038 162.229 L696.038 136.303 M696.038 126.21 L700.297 126.21 L700.297 131.604 L696.038 131.604 L696.038 126.21 Z" fill="#000000" fill-rule="evenodd" fill-opacity="1" /><path clip-path="url(#clip600)" d="M727.866 137.298 L727.866 141.28 Q726.061 140.284 724.232 139.798 Q722.426 139.289 720.575 139.289 Q716.431 139.289 714.139 141.928 Q711.848 144.544 711.848 149.289 Q711.848 154.034 714.139 156.673 Q716.431 159.289 720.575 159.289 Q722.426 159.289 724.232 158.803 Q726.061 158.293 727.866 157.298 L727.866 161.233 Q726.084 162.067 724.163 162.483 Q722.264 162.9 720.112 162.9 Q714.255 162.9 710.806 159.219 Q707.357 155.539 707.357 149.289 Q707.357 142.946 710.829 139.312 Q714.325 135.678 720.389 135.678 Q722.357 135.678 724.232 136.095 Q726.107 136.488 727.866 137.298 Z" fill="#000000" fill-rule="evenodd" fill-opacity="1" /><path clip-path="url(#clip600)" d="M750.343 126.21 L754.602 126.21 L754.602 162.229 L750.343 162.229 L750.343 126.21 Z" fill="#000000" fill-rule="evenodd" fill-opacity="1" /><path clip-path="url(#clip600)" d="M773.56 139.289 Q770.135 139.289 768.144 141.974 Q766.153 144.636 766.153 149.289 Q766.153 153.942 768.121 156.627 Q770.111 159.289 773.56 159.289 Q776.963 159.289 778.954 156.604 Q780.945 153.918 780.945 149.289 Q780.945 144.682 778.954 141.997 Q776.963 139.289 773.56 139.289 M773.56 135.678 Q779.116 135.678 782.287 139.289 Q785.459 142.9 785.459 149.289 Q785.459 155.655 782.287 159.289 Q779.116 162.9 773.56 162.9 Q767.982 162.9 764.811 159.289 Q761.662 155.655 761.662 149.289 Q761.662 142.9 764.811 139.289 Q767.982 135.678 773.56 135.678 Z" fill="#000000" fill-rule="evenodd" fill-opacity="1" /><path clip-path="url(#clip600)" d="M809.579 148.965 Q809.579 144.335 807.658 141.789 Q805.759 139.243 802.31 139.243 Q798.884 139.243 796.963 141.789 Q795.065 144.335 795.065 148.965 Q795.065 153.571 796.963 156.118 Q798.884 158.664 802.31 158.664 Q805.759 158.664 807.658 156.118 Q809.579 153.571 809.579 148.965 M813.838 159.011 Q813.838 165.631 810.898 168.849 Q807.958 172.09 801.894 172.09 Q799.648 172.09 797.658 171.742 Q795.667 171.418 793.792 170.724 L793.792 166.58 Q795.667 167.599 797.496 168.085 Q799.324 168.571 801.222 168.571 Q805.412 168.571 807.495 166.372 Q809.579 164.196 809.579 159.775 L809.579 157.668 Q808.259 159.96 806.199 161.094 Q804.139 162.229 801.269 162.229 Q796.5 162.229 793.584 158.594 Q790.667 154.96 790.667 148.965 Q790.667 142.946 793.584 139.312 Q796.5 135.678 801.269 135.678 Q804.139 135.678 806.199 136.812 Q808.259 137.946 809.579 140.238 L809.579 136.303 L813.838 136.303 L813.838 159.011 Z" fill="#000000" fill-rule="evenodd" fill-opacity="1" /><path clip-path="url(#clip600)" d="M822.611 136.303 L826.87 136.303 L826.87 162.229 L822.611 162.229 L822.611 136.303 M822.611 126.21 L826.87 126.21 L826.87 131.604 L822.611 131.604 L822.611 126.21 Z" fill="#000000" fill-rule="evenodd" fill-opacity="1" /><path clip-path="url(#clip600)" d="M852.31 137.067 L852.31 141.094 Q850.504 140.169 848.56 139.706 Q846.616 139.243 844.532 139.243 Q841.361 139.243 839.764 140.215 Q838.19 141.187 838.19 143.131 Q838.19 144.613 839.324 145.469 Q840.458 146.303 843.884 147.067 L845.342 147.391 Q849.88 148.363 851.778 150.145 Q853.699 151.905 853.699 155.076 Q853.699 158.687 850.829 160.793 Q847.981 162.9 842.981 162.9 Q840.898 162.9 838.63 162.483 Q836.384 162.09 833.884 161.28 L833.884 156.881 Q836.245 158.108 838.537 158.733 Q840.829 159.335 843.074 159.335 Q846.083 159.335 847.704 158.317 Q849.324 157.275 849.324 155.4 Q849.324 153.664 848.143 152.738 Q846.986 151.812 843.028 150.956 L841.546 150.608 Q837.588 149.775 835.829 148.062 Q834.069 146.326 834.069 143.317 Q834.069 139.659 836.662 137.669 Q839.255 135.678 844.023 135.678 Q846.384 135.678 848.467 136.025 Q850.551 136.372 852.31 137.067 Z" fill="#000000" fill-rule="evenodd" fill-opacity="1" /><path clip-path="url(#clip600)" d="M864.694 128.942 L864.694 136.303 L873.467 136.303 L873.467 139.613 L864.694 139.613 L864.694 153.687 Q864.694 156.858 865.551 157.761 Q866.43 158.664 869.092 158.664 L873.467 158.664 L873.467 162.229 L869.092 162.229 Q864.162 162.229 862.287 160.4 Q860.412 158.548 860.412 153.687 L860.412 139.613 L857.287 139.613 L857.287 136.303 L860.412 136.303 L860.412 128.942 L864.694 128.942 Z" fill="#000000" fill-rule="evenodd" fill-opacity="1" /><path clip-path="url(#clip600)" d="M879.069 136.303 L883.328 136.303 L883.328 162.229 L879.069 162.229 L879.069 136.303 M879.069 126.21 L883.328 126.21 L883.328 131.604 L879.069 131.604 L879.069 126.21 Z" fill="#000000" fill-rule="evenodd" fill-opacity="1" /><path clip-path="url(#clip600)" d="M910.898 137.298 L910.898 141.28 Q909.092 140.284 907.263 139.798 Q905.458 139.289 903.606 139.289 Q899.463 139.289 897.171 141.928 Q894.879 144.544 894.879 149.289 Q894.879 154.034 897.171 156.673 Q899.463 159.289 903.606 159.289 Q905.458 159.289 907.263 158.803 Q909.092 158.293 910.898 157.298 L910.898 161.233 Q909.115 162.067 907.194 162.483 Q905.296 162.9 903.143 162.9 Q897.287 162.9 893.838 159.219 Q890.389 155.539 890.389 149.289 Q890.389 142.946 893.861 139.312 Q897.356 135.678 903.421 135.678 Q905.388 135.678 907.263 136.095 Q909.138 136.488 910.898 137.298 Z" fill="#000000" fill-rule="evenodd" fill-opacity="1" /><path clip-path="url(#clip600)" d="M953.56 141.28 Q955.157 138.409 957.379 137.044 Q959.601 135.678 962.61 135.678 Q966.661 135.678 968.86 138.525 Q971.059 141.349 971.059 146.581 L971.059 162.229 L966.777 162.229 L966.777 146.719 Q966.777 142.993 965.458 141.187 Q964.138 139.382 961.43 139.382 Q958.12 139.382 956.198 141.581 Q954.277 143.78 954.277 147.576 L954.277 162.229 L949.995 162.229 L949.995 146.719 Q949.995 142.969 948.675 141.187 Q947.356 139.382 944.601 139.382 Q941.337 139.382 939.416 141.604 Q937.495 143.803 937.495 147.576 L937.495 162.229 L933.212 162.229 L933.212 136.303 L937.495 136.303 L937.495 140.331 Q938.953 137.946 940.99 136.812 Q943.027 135.678 945.828 135.678 Q948.652 135.678 950.62 137.113 Q952.61 138.548 953.56 141.28 Z" fill="#000000" fill-rule="evenodd" fill-opacity="1" /><path clip-path="url(#clip600)" d="M991.337 149.196 Q986.175 149.196 984.184 150.377 Q982.194 151.557 982.194 154.405 Q982.194 156.673 983.675 158.016 Q985.18 159.335 987.749 159.335 Q991.291 159.335 993.42 156.835 Q995.573 154.312 995.573 150.145 L995.573 149.196 L991.337 149.196 M999.832 147.437 L999.832 162.229 L995.573 162.229 L995.573 158.293 Q994.115 160.655 991.939 161.789 Q989.763 162.9 986.615 162.9 Q982.633 162.9 980.272 160.678 Q977.934 158.432 977.934 154.682 Q977.934 150.307 980.851 148.085 Q983.791 145.863 989.601 145.863 L995.573 145.863 L995.573 145.446 Q995.573 142.507 993.629 140.909 Q991.707 139.289 988.212 139.289 Q985.99 139.289 983.883 139.821 Q981.777 140.354 979.833 141.419 L979.833 137.483 Q982.17 136.581 984.37 136.141 Q986.569 135.678 988.652 135.678 Q994.277 135.678 997.055 138.594 Q999.832 141.511 999.832 147.437 Z" fill="#000000" fill-rule="evenodd" fill-opacity="1" /><path clip-path="url(#clip600)" d="M1012.73 158.34 L1012.73 172.09 L1008.44 172.09 L1008.44 136.303 L1012.73 136.303 L1012.73 140.238 Q1014.07 137.923 1016.11 136.812 Q1018.17 135.678 1021.01 135.678 Q1025.74 135.678 1028.67 139.428 Q1031.64 143.178 1031.64 149.289 Q1031.64 155.4 1028.67 159.15 Q1025.74 162.9 1021.01 162.9 Q1018.17 162.9 1016.11 161.789 Q1014.07 160.655 1012.73 158.34 M1027.22 149.289 Q1027.22 144.59 1025.27 141.928 Q1023.35 139.243 1019.97 139.243 Q1016.59 139.243 1014.65 141.928 Q1012.73 144.59 1012.73 149.289 Q1012.73 153.988 1014.65 156.673 Q1016.59 159.335 1019.97 159.335 Q1023.35 159.335 1025.27 156.673 Q1027.22 153.988 1027.22 149.289 Z" fill="#000000" fill-rule="evenodd" fill-opacity="1" /><path clip-path="url(#clip600)" d="M1055.23 137.067 L1055.23 141.094 Q1053.42 140.169 1051.48 139.706 Q1049.53 139.243 1047.45 139.243 Q1044.28 139.243 1042.68 140.215 Q1041.11 141.187 1041.11 143.131 Q1041.11 144.613 1042.24 145.469 Q1043.37 146.303 1046.8 147.067 L1048.26 147.391 Q1052.8 148.363 1054.69 150.145 Q1056.61 151.905 1056.61 155.076 Q1056.61 158.687 1053.74 160.793 Q1050.9 162.9 1045.9 162.9 Q1043.81 162.9 1041.55 162.483 Q1039.3 162.09 1036.8 161.28 L1036.8 156.881 Q1039.16 158.108 1041.45 158.733 Q1043.74 159.335 1045.99 159.335 Q1049 159.335 1050.62 158.317 Q1052.24 157.275 1052.24 155.4 Q1052.24 153.664 1051.06 152.738 Q1049.9 151.812 1045.94 150.956 L1044.46 150.608 Q1040.5 149.775 1038.74 148.062 Q1036.98 146.326 1036.98 143.317 Q1036.98 139.659 1039.58 137.669 Q1042.17 135.678 1046.94 135.678 Q1049.3 135.678 1051.38 136.025 Q1053.47 136.372 1055.23 137.067 Z" fill="#000000" fill-rule="evenodd" fill-opacity="1" /><polyline clip-path="url(#clip600)" style="stroke:#ff0000; stroke-linecap:butt; stroke-linejoin:round; stroke-width:4; stroke-opacity:1; fill:none" points="
  314.661,196.789 456.854,196.789 
  "/>
<path clip-path="url(#clip600)" d="M486.178 210.133 L502.497 210.133 L502.497 214.069 L480.553 214.069 L480.553 210.133 Q483.215 207.379 487.798 202.749 Q492.405 198.096 493.585 196.754 Q495.83 194.231 496.71 192.495 Q497.613 190.735 497.613 189.046 Q497.613 186.291 495.668 184.555 Q493.747 182.819 490.645 182.819 Q488.446 182.819 485.993 183.583 Q483.562 184.347 480.784 185.897 L480.784 181.175 Q483.608 180.041 486.062 179.462 Q488.516 178.884 490.553 178.884 Q495.923 178.884 499.117 181.569 Q502.312 184.254 502.312 188.745 Q502.312 190.874 501.502 192.796 Q500.715 194.694 498.608 197.286 Q498.03 197.958 494.928 201.175 Q491.826 204.37 486.178 210.133 Z" fill="#000000" fill-rule="evenodd" fill-opacity="1" /><path clip-path="url(#clip600)" d="M516.571 183.351 L516.571 210.226 L522.219 210.226 Q529.372 210.226 532.682 206.985 Q536.015 203.745 536.015 196.754 Q536.015 189.809 532.682 186.592 Q529.372 183.351 522.219 183.351 L516.571 183.351 M511.895 179.509 L521.502 179.509 Q531.548 179.509 536.247 183.698 Q540.946 187.865 540.946 196.754 Q540.946 205.689 536.224 209.879 Q531.502 214.069 521.502 214.069 L511.895 214.069 L511.895 179.509 Z" fill="#000000" fill-rule="evenodd" fill-opacity="1" /><path clip-path="url(#clip600)" d="M573.33 191.129 Q569.904 191.129 567.913 193.814 Q565.923 196.476 565.923 201.129 Q565.923 205.782 567.89 208.467 Q569.881 211.129 573.33 211.129 Q576.733 211.129 578.724 208.444 Q580.714 205.758 580.714 201.129 Q580.714 196.522 578.724 193.837 Q576.733 191.129 573.33 191.129 M573.33 187.518 Q578.886 187.518 582.057 191.129 Q585.228 194.74 585.228 201.129 Q585.228 207.495 582.057 211.129 Q578.886 214.74 573.33 214.74 Q567.751 214.74 564.58 211.129 Q561.432 207.495 561.432 201.129 Q561.432 194.74 564.58 191.129 Q567.751 187.518 573.33 187.518 Z" fill="#000000" fill-rule="evenodd" fill-opacity="1" /><path clip-path="url(#clip600)" d="M607.311 192.124 Q606.594 191.708 605.737 191.522 Q604.904 191.314 603.885 191.314 Q600.274 191.314 598.33 193.675 Q596.409 196.013 596.409 200.411 L596.409 214.069 L592.126 214.069 L592.126 188.143 L596.409 188.143 L596.409 192.171 Q597.751 189.809 599.904 188.675 Q602.057 187.518 605.135 187.518 Q605.575 187.518 606.108 187.587 Q606.64 187.634 607.288 187.749 L607.311 192.124 Z" fill="#000000" fill-rule="evenodd" fill-opacity="1" /><path clip-path="url(#clip600)" d="M628.006 192.078 L628.006 178.05 L632.265 178.05 L632.265 214.069 L628.006 214.069 L628.006 210.18 Q626.663 212.495 624.603 213.629 Q622.566 214.74 619.696 214.74 Q614.997 214.74 612.034 210.99 Q609.094 207.24 609.094 201.129 Q609.094 195.018 612.034 191.268 Q614.997 187.518 619.696 187.518 Q622.566 187.518 624.603 188.652 Q626.663 189.763 628.006 192.078 M613.492 201.129 Q613.492 205.828 615.413 208.513 Q617.358 211.175 620.737 211.175 Q624.117 211.175 626.061 208.513 Q628.006 205.828 628.006 201.129 Q628.006 196.43 626.061 193.768 Q624.117 191.083 620.737 191.083 Q617.358 191.083 615.413 193.768 Q613.492 196.43 613.492 201.129 Z" fill="#000000" fill-rule="evenodd" fill-opacity="1" /><path clip-path="url(#clip600)" d="M663.214 200.041 L663.214 202.124 L643.631 202.124 Q643.908 206.522 646.269 208.837 Q648.654 211.129 652.89 211.129 Q655.344 211.129 657.635 210.527 Q659.95 209.925 662.218 208.721 L662.218 212.749 Q659.927 213.721 657.519 214.231 Q655.112 214.74 652.635 214.74 Q646.432 214.74 642.797 211.129 Q639.186 207.518 639.186 201.36 Q639.186 194.995 642.612 191.268 Q646.061 187.518 651.894 187.518 Q657.126 187.518 660.158 190.897 Q663.214 194.254 663.214 200.041 M658.955 198.791 Q658.908 195.296 656.987 193.212 Q655.089 191.129 651.941 191.129 Q648.376 191.129 646.223 193.143 Q644.094 195.157 643.769 198.814 L658.955 198.791 Z" fill="#000000" fill-rule="evenodd" fill-opacity="1" /><path clip-path="url(#clip600)" d="M685.228 192.124 Q684.51 191.708 683.654 191.522 Q682.82 191.314 681.802 191.314 Q678.191 191.314 676.246 193.675 Q674.325 196.013 674.325 200.411 L674.325 214.069 L670.043 214.069 L670.043 188.143 L674.325 188.143 L674.325 192.171 Q675.667 189.809 677.82 188.675 Q679.973 187.518 683.052 187.518 Q683.492 187.518 684.024 187.587 Q684.556 187.634 685.204 187.749 L685.228 192.124 Z" fill="#000000" fill-rule="evenodd" fill-opacity="1" /><path clip-path="url(#clip600)" d="M684.51 199.184 L696.987 199.184 L696.987 202.981 L684.51 202.981 L684.51 199.184 Z" fill="#000000" fill-rule="evenodd" fill-opacity="1" /><path clip-path="url(#clip600)" d="M705.181 210.133 L712.82 210.133 L712.82 183.768 L704.51 185.435 L704.51 181.175 L712.774 179.509 L717.45 179.509 L717.45 210.133 L725.089 210.133 L725.089 214.069 L705.181 214.069 L705.181 210.133 Z" fill="#000000" fill-rule="evenodd" fill-opacity="1" /><path clip-path="url(#clip600)" d="M760.783 201.036 Q755.621 201.036 753.63 202.217 Q751.639 203.397 751.639 206.245 Q751.639 208.513 753.121 209.856 Q754.625 211.175 757.195 211.175 Q760.736 211.175 762.866 208.675 Q765.019 206.152 765.019 201.985 L765.019 201.036 L760.783 201.036 M769.278 199.277 L769.278 214.069 L765.019 214.069 L765.019 210.133 Q763.561 212.495 761.385 213.629 Q759.209 214.74 756.061 214.74 Q752.079 214.74 749.718 212.518 Q747.38 210.272 747.38 206.522 Q747.38 202.147 750.297 199.925 Q753.237 197.703 759.047 197.703 L765.019 197.703 L765.019 197.286 Q765.019 194.347 763.074 192.749 Q761.153 191.129 757.658 191.129 Q755.436 191.129 753.329 191.661 Q751.223 192.194 749.278 193.259 L749.278 189.323 Q751.616 188.421 753.815 187.981 Q756.014 187.518 758.098 187.518 Q763.723 187.518 766.5 190.434 Q769.278 193.351 769.278 199.277 Z" fill="#000000" fill-rule="evenodd" fill-opacity="1" /><path clip-path="url(#clip600)" d="M777.611 203.837 L777.611 188.143 L781.871 188.143 L781.871 203.675 Q781.871 207.356 783.306 209.208 Q784.741 211.036 787.611 211.036 Q791.06 211.036 793.051 208.837 Q795.065 206.638 795.065 202.842 L795.065 188.143 L799.324 188.143 L799.324 214.069 L795.065 214.069 L795.065 210.087 Q793.514 212.448 791.454 213.606 Q789.417 214.74 786.709 214.74 Q782.241 214.74 779.926 211.962 Q777.611 209.184 777.611 203.837 M788.329 187.518 L788.329 187.518 Z" fill="#000000" fill-rule="evenodd" fill-opacity="1" /><path clip-path="url(#clip600)" d="M812.31 180.782 L812.31 188.143 L821.083 188.143 L821.083 191.453 L812.31 191.453 L812.31 205.527 Q812.31 208.698 813.167 209.601 Q814.046 210.504 816.708 210.504 L821.083 210.504 L821.083 214.069 L816.708 214.069 Q811.778 214.069 809.903 212.24 Q808.028 210.388 808.028 205.527 L808.028 191.453 L804.903 191.453 L804.903 188.143 L808.028 188.143 L808.028 180.782 L812.31 180.782 Z" fill="#000000" fill-rule="evenodd" fill-opacity="1" /><path clip-path="url(#clip600)" d="M836.731 191.129 Q833.306 191.129 831.315 193.814 Q829.324 196.476 829.324 201.129 Q829.324 205.782 831.292 208.467 Q833.282 211.129 836.731 211.129 Q840.134 211.129 842.125 208.444 Q844.116 205.758 844.116 201.129 Q844.116 196.522 842.125 193.837 Q840.134 191.129 836.731 191.129 M836.731 187.518 Q842.287 187.518 845.458 191.129 Q848.63 194.74 848.63 201.129 Q848.63 207.495 845.458 211.129 Q842.287 214.74 836.731 214.74 Q831.153 214.74 827.981 211.129 Q824.833 207.495 824.833 201.129 Q824.833 194.74 827.981 191.129 Q831.153 187.518 836.731 187.518 Z" fill="#000000" fill-rule="evenodd" fill-opacity="1" /><path clip-path="url(#clip600)" d="M870.713 192.124 Q869.995 191.708 869.139 191.522 Q868.305 191.314 867.287 191.314 Q863.676 191.314 861.731 193.675 Q859.81 196.013 859.81 200.411 L859.81 214.069 L855.528 214.069 L855.528 188.143 L859.81 188.143 L859.81 192.171 Q861.153 189.809 863.305 188.675 Q865.458 187.518 868.537 187.518 Q868.977 187.518 869.509 187.587 Q870.041 187.634 870.69 187.749 L870.713 192.124 Z" fill="#000000" fill-rule="evenodd" fill-opacity="1" /><path clip-path="url(#clip600)" d="M896.314 200.041 L896.314 202.124 L876.731 202.124 Q877.009 206.522 879.37 208.837 Q881.754 211.129 885.99 211.129 Q888.444 211.129 890.736 210.527 Q893.051 209.925 895.319 208.721 L895.319 212.749 Q893.027 213.721 890.62 214.231 Q888.213 214.74 885.736 214.74 Q879.532 214.74 875.898 211.129 Q872.287 207.518 872.287 201.36 Q872.287 194.995 875.713 191.268 Q879.162 187.518 884.995 187.518 Q890.227 187.518 893.259 190.897 Q896.314 194.254 896.314 200.041 M892.055 198.791 Q892.009 195.296 890.088 193.212 Q888.189 191.129 885.041 191.129 Q881.477 191.129 879.324 193.143 Q877.194 195.157 876.87 198.814 L892.055 198.791 Z" fill="#000000" fill-rule="evenodd" fill-opacity="1" /><path clip-path="url(#clip600)" d="M920.365 200.805 Q920.365 196.175 918.444 193.629 Q916.546 191.083 913.097 191.083 Q909.671 191.083 907.75 193.629 Q905.851 196.175 905.851 200.805 Q905.851 205.411 907.75 207.958 Q909.671 210.504 913.097 210.504 Q916.546 210.504 918.444 207.958 Q920.365 205.411 920.365 200.805 M924.624 210.851 Q924.624 217.471 921.685 220.689 Q918.745 223.93 912.68 223.93 Q910.435 223.93 908.444 223.582 Q906.453 223.258 904.578 222.564 L904.578 218.42 Q906.453 219.439 908.282 219.925 Q910.111 220.411 912.009 220.411 Q916.199 220.411 918.282 218.212 Q920.365 216.036 920.365 211.615 L920.365 209.508 Q919.046 211.8 916.986 212.934 Q914.925 214.069 912.055 214.069 Q907.287 214.069 904.37 210.434 Q901.453 206.8 901.453 200.805 Q901.453 194.786 904.37 191.152 Q907.287 187.518 912.055 187.518 Q914.925 187.518 916.986 188.652 Q919.046 189.786 920.365 192.078 L920.365 188.143 L924.624 188.143 L924.624 210.851 Z" fill="#000000" fill-rule="evenodd" fill-opacity="1" /><path clip-path="url(#clip600)" d="M948.421 192.124 Q947.703 191.708 946.847 191.522 Q946.013 191.314 944.995 191.314 Q941.384 191.314 939.439 193.675 Q937.518 196.013 937.518 200.411 L937.518 214.069 L933.236 214.069 L933.236 188.143 L937.518 188.143 L937.518 192.171 Q938.861 189.809 941.013 188.675 Q943.166 187.518 946.245 187.518 Q946.685 187.518 947.217 187.587 Q947.749 187.634 948.397 187.749 L948.421 192.124 Z" fill="#000000" fill-rule="evenodd" fill-opacity="1" /><path clip-path="url(#clip600)" d="M974.022 200.041 L974.022 202.124 L954.439 202.124 Q954.717 206.522 957.078 208.837 Q959.462 211.129 963.698 211.129 Q966.152 211.129 968.444 210.527 Q970.758 209.925 973.027 208.721 L973.027 212.749 Q970.735 213.721 968.328 214.231 Q965.921 214.74 963.444 214.74 Q957.24 214.74 953.606 211.129 Q949.995 207.518 949.995 201.36 Q949.995 194.995 953.421 191.268 Q956.87 187.518 962.703 187.518 Q967.934 187.518 970.967 190.897 Q974.022 194.254 974.022 200.041 M969.763 198.791 Q969.717 195.296 967.796 193.212 Q965.897 191.129 962.749 191.129 Q959.184 191.129 957.032 193.143 Q954.902 195.157 954.578 198.814 L969.763 198.791 Z" fill="#000000" fill-rule="evenodd" fill-opacity="1" /><path clip-path="url(#clip600)" d="M997.541 188.907 L997.541 192.934 Q995.735 192.009 993.791 191.546 Q991.846 191.083 989.763 191.083 Q986.592 191.083 984.995 192.055 Q983.42 193.027 983.42 194.971 Q983.42 196.453 984.555 197.309 Q985.689 198.143 989.115 198.907 L990.573 199.231 Q995.11 200.203 997.008 201.985 Q998.93 203.745 998.93 206.916 Q998.93 210.527 996.059 212.633 Q993.212 214.74 988.212 214.74 Q986.129 214.74 983.86 214.323 Q981.615 213.93 979.115 213.12 L979.115 208.721 Q981.476 209.948 983.768 210.573 Q986.059 211.175 988.305 211.175 Q991.314 211.175 992.934 210.157 Q994.555 209.115 994.555 207.24 Q994.555 205.504 993.374 204.578 Q992.217 203.652 988.258 202.796 L986.777 202.448 Q982.819 201.615 981.059 199.902 Q979.3 198.166 979.3 195.157 Q979.3 191.499 981.893 189.509 Q984.485 187.518 989.254 187.518 Q991.615 187.518 993.698 187.865 Q995.781 188.212 997.541 188.907 Z" fill="#000000" fill-rule="evenodd" fill-opacity="1" /><path clip-path="url(#clip600)" d="M1022.24 188.907 L1022.24 192.934 Q1020.43 192.009 1018.49 191.546 Q1016.55 191.083 1014.46 191.083 Q1011.29 191.083 1009.69 192.055 Q1008.12 193.027 1008.12 194.971 Q1008.12 196.453 1009.25 197.309 Q1010.39 198.143 1013.81 198.907 L1015.27 199.231 Q1019.81 200.203 1021.71 201.985 Q1023.63 203.745 1023.63 206.916 Q1023.63 210.527 1020.76 212.633 Q1017.91 214.74 1012.91 214.74 Q1010.83 214.74 1008.56 214.323 Q1006.31 213.93 1003.81 213.12 L1003.81 208.721 Q1006.17 209.948 1008.47 210.573 Q1010.76 211.175 1013 211.175 Q1016.01 211.175 1017.63 210.157 Q1019.25 209.115 1019.25 207.24 Q1019.25 205.504 1018.07 204.578 Q1016.92 203.652 1012.96 202.796 L1011.48 202.448 Q1007.52 201.615 1005.76 199.902 Q1004 198.166 1004 195.157 Q1004 191.499 1006.59 189.509 Q1009.18 187.518 1013.95 187.518 Q1016.31 187.518 1018.4 187.865 Q1020.48 188.212 1022.24 188.907 Z" fill="#000000" fill-rule="evenodd" fill-opacity="1" /><path clip-path="url(#clip600)" d="M1030.41 188.143 L1034.67 188.143 L1034.67 214.069 L1030.41 214.069 L1030.41 188.143 M1030.41 178.05 L1034.67 178.05 L1034.67 183.444 L1030.41 183.444 L1030.41 178.05 Z" fill="#000000" fill-rule="evenodd" fill-opacity="1" /><path clip-path="url(#clip600)" d="M1040.53 188.143 L1045.04 188.143 L1053.14 209.902 L1061.24 188.143 L1065.76 188.143 L1056.04 214.069 L1050.25 214.069 L1040.53 188.143 Z" fill="#000000" fill-rule="evenodd" fill-opacity="1" /><path clip-path="url(#clip600)" d="M1093.81 200.041 L1093.81 202.124 L1074.23 202.124 Q1074.51 206.522 1076.87 208.837 Q1079.25 211.129 1083.49 211.129 Q1085.94 211.129 1088.23 210.527 Q1090.55 209.925 1092.82 208.721 L1092.82 212.749 Q1090.53 213.721 1088.12 214.231 Q1085.71 214.74 1083.23 214.74 Q1077.03 214.74 1073.4 211.129 Q1069.79 207.518 1069.79 201.36 Q1069.79 194.995 1073.21 191.268 Q1076.66 187.518 1082.49 187.518 Q1087.73 187.518 1090.76 190.897 Q1093.81 194.254 1093.81 200.041 M1089.55 198.791 Q1089.51 195.296 1087.59 193.212 Q1085.69 191.129 1082.54 191.129 Q1078.98 191.129 1076.82 193.143 Q1074.69 195.157 1074.37 198.814 L1089.55 198.791 Z" fill="#000000" fill-rule="evenodd" fill-opacity="1" /></svg>
