<?xml version="1.0" encoding="utf-8"?>
<svg xmlns="http://www.w3.org/2000/svg" xmlns:xlink="http://www.w3.org/1999/xlink" width="600" height="400" viewBox="0 0 2400 1600">
<defs>
  <clipPath id="clip690">
    <rect x="0" y="0" width="2400" height="1600"/>
  </clipPath>
</defs>
<path clip-path="url(#clip690)" d="
M0 1600 L2400 1600 L2400 0 L0 0  Z
  " fill="#ffffff" fill-rule="evenodd" fill-opacity="1"/>
<defs>
  <clipPath id="clip691">
    <rect x="480" y="0" width="1681" height="1600"/>
  </clipPath>
</defs>
<path clip-path="url(#clip690)" d="
M287.366 1423.18 L2352.76 1423.18 L2352.76 47.2441 L287.366 47.2441  Z
  " fill="#ffffff" fill-rule="evenodd" fill-opacity="1"/>
<defs>
  <clipPath id="clip692">
    <rect x="287" y="47" width="2066" height="1377"/>
  </clipPath>
</defs>
<polyline clip-path="url(#clip692)" style="stroke:#000000; stroke-linecap:butt; stroke-linejoin:round; stroke-width:2; stroke-opacity:0.1; fill:none" points="
  562.318,1423.18 562.318,47.2441 
  "/>
<polyline clip-path="url(#clip692)" style="stroke:#000000; stroke-linecap:butt; stroke-linejoin:round; stroke-width:2; stroke-opacity:0.1; fill:none" points="
  995.314,1423.18 995.314,47.2441 
  "/>
<polyline clip-path="url(#clip692)" style="stroke:#000000; stroke-linecap:butt; stroke-linejoin:round; stroke-width:2; stroke-opacity:0.1; fill:none" points="
  1428.31,1423.18 1428.31,47.2441 
  "/>
<polyline clip-path="url(#clip692)" style="stroke:#000000; stroke-linecap:butt; stroke-linejoin:round; stroke-width:2; stroke-opacity:0.1; fill:none" points="
  1861.31,1423.18 1861.31,47.2441 
  "/>
<polyline clip-path="url(#clip692)" style="stroke:#000000; stroke-linecap:butt; stroke-linejoin:round; stroke-width:2; stroke-opacity:0.1; fill:none" points="
  2294.3,1423.18 2294.3,47.2441 
  "/>
<polyline clip-path="url(#clip690)" style="stroke:#000000; stroke-linecap:butt; stroke-linejoin:round; stroke-width:4; stroke-opacity:1; fill:none" points="
  287.366,1423.18 2352.76,1423.18 
  "/>
<polyline clip-path="url(#clip690)" style="stroke:#000000; stroke-linecap:butt; stroke-linejoin:round; stroke-width:4; stroke-opacity:1; fill:none" points="
  562.318,1423.18 562.318,1404.28 
  "/>
<polyline clip-path="url(#clip690)" style="stroke:#000000; stroke-linecap:butt; stroke-linejoin:round; stroke-width:4; stroke-opacity:1; fill:none" points="
  995.314,1423.18 995.314,1404.28 
  "/>
<polyline clip-path="url(#clip690)" style="stroke:#000000; stroke-linecap:butt; stroke-linejoin:round; stroke-width:4; stroke-opacity:1; fill:none" points="
  1428.31,1423.18 1428.31,1404.28 
  "/>
<polyline clip-path="url(#clip690)" style="stroke:#000000; stroke-linecap:butt; stroke-linejoin:round; stroke-width:4; stroke-opacity:1; fill:none" points="
  1861.31,1423.18 1861.31,1404.28 
  "/>
<polyline clip-path="url(#clip690)" style="stroke:#000000; stroke-linecap:butt; stroke-linejoin:round; stroke-width:4; stroke-opacity:1; fill:none" points="
  2294.3,1423.18 2294.3,1404.28 
  "/>
<path clip-path="url(#clip690)" d="M556.971 1481.64 L573.29 1481.64 L573.29 1485.58 L551.346 1485.58 L551.346 1481.64 Q554.008 1478.89 558.591 1474.26 Q563.198 1469.61 564.378 1468.27 Q566.624 1465.74 567.503 1464.01 Q568.406 1462.25 568.406 1460.56 Q568.406 1457.8 566.462 1456.07 Q564.54 1454.33 561.439 1454.33 Q559.24 1454.33 556.786 1455.09 Q554.355 1455.86 551.578 1457.41 L551.578 1452.69 Q554.402 1451.55 556.855 1450.97 Q559.309 1450.39 561.346 1450.39 Q566.716 1450.39 569.911 1453.08 Q573.105 1455.77 573.105 1460.26 Q573.105 1462.39 572.295 1464.31 Q571.508 1466.2 569.402 1468.8 Q568.823 1469.47 565.721 1472.69 Q562.619 1475.88 556.971 1481.64 Z" fill="#000000" fill-rule="evenodd" fill-opacity="1" /><path clip-path="url(#clip690)" d="M998.323 1455.09 L986.518 1473.54 L998.323 1473.54 L998.323 1455.09 M997.096 1451.02 L1002.98 1451.02 L1002.98 1473.54 L1007.91 1473.54 L1007.91 1477.43 L1002.98 1477.43 L1002.98 1485.58 L998.323 1485.58 L998.323 1477.43 L982.722 1477.43 L982.722 1472.92 L997.096 1451.02 Z" fill="#000000" fill-rule="evenodd" fill-opacity="1" /><path clip-path="url(#clip690)" d="M1428.71 1466.44 Q1425.57 1466.44 1423.71 1468.59 Q1421.89 1470.74 1421.89 1474.49 Q1421.89 1478.22 1423.71 1480.39 Q1425.57 1482.55 1428.71 1482.55 Q1431.86 1482.55 1433.69 1480.39 Q1435.54 1478.22 1435.54 1474.49 Q1435.54 1470.74 1433.69 1468.59 Q1431.86 1466.44 1428.71 1466.44 M1438 1451.78 L1438 1456.04 Q1436.24 1455.21 1434.43 1454.77 Q1432.65 1454.33 1430.89 1454.33 Q1426.26 1454.33 1423.81 1457.45 Q1421.38 1460.58 1421.03 1466.9 Q1422.4 1464.89 1424.46 1463.82 Q1426.52 1462.73 1428.99 1462.73 Q1434.2 1462.73 1437.21 1465.9 Q1440.24 1469.05 1440.24 1474.49 Q1440.24 1479.82 1437.09 1483.03 Q1433.95 1486.25 1428.71 1486.25 Q1422.72 1486.25 1419.55 1481.67 Q1416.38 1477.06 1416.38 1468.33 Q1416.38 1460.14 1420.27 1455.28 Q1424.15 1450.39 1430.71 1450.39 Q1432.46 1450.39 1434.25 1450.74 Q1436.05 1451.09 1438 1451.78 Z" fill="#000000" fill-rule="evenodd" fill-opacity="1" /><path clip-path="url(#clip690)" d="M1861.31 1469.17 Q1857.97 1469.17 1856.05 1470.95 Q1854.15 1472.73 1854.15 1475.86 Q1854.15 1478.98 1856.05 1480.77 Q1857.97 1482.55 1861.31 1482.55 Q1864.64 1482.55 1866.56 1480.77 Q1868.48 1478.96 1868.48 1475.86 Q1868.48 1472.73 1866.56 1470.95 Q1864.66 1469.17 1861.31 1469.17 M1856.63 1467.18 Q1853.62 1466.44 1851.93 1464.38 Q1850.26 1462.32 1850.26 1459.35 Q1850.26 1455.21 1853.2 1452.8 Q1856.17 1450.39 1861.31 1450.39 Q1866.47 1450.39 1869.41 1452.8 Q1872.35 1455.21 1872.35 1459.35 Q1872.35 1462.32 1870.66 1464.38 Q1868.99 1466.44 1866 1467.18 Q1869.38 1467.96 1871.26 1470.26 Q1873.16 1472.55 1873.16 1475.86 Q1873.16 1480.88 1870.08 1483.57 Q1867.02 1486.25 1861.31 1486.25 Q1855.59 1486.25 1852.51 1483.57 Q1849.45 1480.88 1849.45 1475.86 Q1849.45 1472.55 1851.35 1470.26 Q1853.25 1467.96 1856.63 1467.18 M1854.92 1459.79 Q1854.92 1462.48 1856.58 1463.98 Q1858.27 1465.49 1861.31 1465.49 Q1864.31 1465.49 1866 1463.98 Q1867.72 1462.48 1867.72 1459.79 Q1867.72 1457.11 1866 1455.6 Q1864.31 1454.1 1861.31 1454.1 Q1858.27 1454.1 1856.58 1455.6 Q1854.92 1457.11 1854.92 1459.79 Z" fill="#000000" fill-rule="evenodd" fill-opacity="1" /><path clip-path="url(#clip690)" d="M2268.99 1481.64 L2276.63 1481.64 L2276.63 1455.28 L2268.32 1456.95 L2268.32 1452.69 L2276.58 1451.02 L2281.26 1451.02 L2281.26 1481.64 L2288.9 1481.64 L2288.9 1485.58 L2268.99 1485.58 L2268.99 1481.64 Z" fill="#000000" fill-rule="evenodd" fill-opacity="1" /><path clip-path="url(#clip690)" d="M2308.34 1454.1 Q2304.73 1454.1 2302.9 1457.66 Q2301.1 1461.2 2301.1 1468.33 Q2301.1 1475.44 2302.9 1479.01 Q2304.73 1482.55 2308.34 1482.55 Q2311.97 1482.55 2313.78 1479.01 Q2315.61 1475.44 2315.61 1468.33 Q2315.61 1461.2 2313.78 1457.66 Q2311.97 1454.1 2308.34 1454.1 M2308.34 1450.39 Q2314.15 1450.39 2317.21 1455 Q2320.29 1459.58 2320.29 1468.33 Q2320.29 1477.06 2317.21 1481.67 Q2314.15 1486.25 2308.34 1486.25 Q2302.53 1486.25 2299.45 1481.67 Q2296.4 1477.06 2296.4 1468.33 Q2296.4 1459.58 2299.45 1455 Q2302.53 1450.39 2308.34 1450.39 Z" fill="#000000" fill-rule="evenodd" fill-opacity="1" /><path clip-path="url(#clip690)" d="M1054.05 1525.81 L1054.05 1543.66 L1062.14 1543.66 Q1066.63 1543.66 1069.08 1541.34 Q1071.53 1539.02 1071.53 1534.72 Q1071.53 1530.45 1069.08 1528.13 Q1066.63 1525.81 1062.14 1525.81 L1054.05 1525.81 M1047.62 1520.52 L1062.14 1520.52 Q1070.13 1520.52 1074.2 1524.15 Q1078.31 1527.75 1078.31 1534.72 Q1078.31 1541.75 1074.2 1545.35 Q1070.13 1548.95 1062.14 1548.95 L1054.05 1548.95 L1054.05 1568.04 L1047.62 1568.04 L1047.62 1520.52 Z" fill="#000000" fill-rule="evenodd" fill-opacity="1" /><path clip-path="url(#clip690)" d="M1106.19 1537.87 Q1105.2 1537.3 1104.02 1537.04 Q1102.88 1536.76 1101.48 1536.76 Q1096.51 1536.76 1093.84 1540 Q1091.2 1543.22 1091.2 1549.27 L1091.2 1568.04 L1085.31 1568.04 L1085.31 1532.4 L1091.2 1532.4 L1091.2 1537.93 Q1093.04 1534.69 1096 1533.13 Q1098.96 1531.54 1103.2 1531.54 Q1103.8 1531.54 1104.53 1531.63 Q1105.27 1531.7 1106.16 1531.85 L1106.19 1537.87 Z" fill="#000000" fill-rule="evenodd" fill-opacity="1" /><path clip-path="url(#clip690)" d="M1141.39 1548.76 L1141.39 1551.62 L1114.46 1551.62 Q1114.85 1557.67 1118.09 1560.85 Q1121.37 1564 1127.2 1564 Q1130.57 1564 1133.72 1563.17 Q1136.9 1562.35 1140.02 1560.69 L1140.02 1566.23 Q1136.87 1567.57 1133.56 1568.27 Q1130.25 1568.97 1126.85 1568.97 Q1118.32 1568.97 1113.32 1564 Q1108.35 1559.04 1108.35 1550.57 Q1108.35 1541.82 1113.06 1536.69 Q1117.81 1531.54 1125.83 1531.54 Q1133.02 1531.54 1137.19 1536.18 Q1141.39 1540.8 1141.39 1548.76 M1135.53 1547.04 Q1135.47 1542.23 1132.83 1539.37 Q1130.22 1536.5 1125.89 1536.5 Q1120.99 1536.5 1118.03 1539.27 Q1115.1 1542.04 1114.66 1547.07 L1135.53 1547.04 Z" fill="#000000" fill-rule="evenodd" fill-opacity="1" /><path clip-path="url(#clip690)" d="M1174.46 1537.81 L1174.46 1518.52 L1180.32 1518.52 L1180.32 1568.04 L1174.46 1568.04 L1174.46 1562.7 Q1172.62 1565.88 1169.78 1567.44 Q1166.98 1568.97 1163.03 1568.97 Q1156.57 1568.97 1152.5 1563.81 Q1148.46 1558.65 1148.46 1550.25 Q1148.46 1541.85 1152.5 1536.69 Q1156.57 1531.54 1163.03 1531.54 Q1166.98 1531.54 1169.78 1533.1 Q1172.62 1534.62 1174.46 1537.81 M1154.5 1550.25 Q1154.5 1556.71 1157.15 1560.4 Q1159.82 1564.07 1164.47 1564.07 Q1169.11 1564.07 1171.79 1560.4 Q1174.46 1556.71 1174.46 1550.25 Q1174.46 1543.79 1171.79 1540.13 Q1169.11 1536.44 1164.47 1536.44 Q1159.82 1536.44 1157.15 1540.13 Q1154.5 1543.79 1154.5 1550.25 Z" fill="#000000" fill-rule="evenodd" fill-opacity="1" /><path clip-path="url(#clip690)" d="M1192.38 1532.4 L1198.24 1532.4 L1198.24 1568.04 L1192.38 1568.04 L1192.38 1532.4 M1192.38 1518.52 L1198.24 1518.52 L1198.24 1525.93 L1192.38 1525.93 L1192.38 1518.52 Z" fill="#000000" fill-rule="evenodd" fill-opacity="1" /><path clip-path="url(#clip690)" d="M1236.14 1533.76 L1236.14 1539.24 Q1233.66 1537.87 1231.15 1537.2 Q1228.67 1536.5 1226.12 1536.5 Q1220.42 1536.5 1217.27 1540.13 Q1214.12 1543.73 1214.12 1550.25 Q1214.12 1556.78 1217.27 1560.4 Q1220.42 1564 1226.12 1564 Q1228.67 1564 1231.15 1563.33 Q1233.66 1562.63 1236.14 1561.26 L1236.14 1566.68 Q1233.69 1567.82 1231.05 1568.39 Q1228.44 1568.97 1225.48 1568.97 Q1217.43 1568.97 1212.69 1563.91 Q1207.94 1558.85 1207.94 1550.25 Q1207.94 1541.53 1212.72 1536.53 Q1217.53 1531.54 1225.86 1531.54 Q1228.57 1531.54 1231.15 1532.11 Q1233.73 1532.65 1236.14 1533.76 Z" fill="#000000" fill-rule="evenodd" fill-opacity="1" /><path clip-path="url(#clip690)" d="M1252.12 1522.27 L1252.12 1532.4 L1264.19 1532.4 L1264.19 1536.95 L1252.12 1536.95 L1252.12 1556.3 Q1252.12 1560.66 1253.3 1561.9 Q1254.51 1563.14 1258.17 1563.14 L1264.19 1563.14 L1264.19 1568.04 L1258.17 1568.04 Q1251.39 1568.04 1248.81 1565.53 Q1246.23 1562.98 1246.23 1556.3 L1246.23 1536.95 L1241.94 1536.95 L1241.94 1532.4 L1246.23 1532.4 L1246.23 1522.27 L1252.12 1522.27 Z" fill="#000000" fill-rule="evenodd" fill-opacity="1" /><path clip-path="url(#clip690)" d="M1271.89 1532.4 L1277.74 1532.4 L1277.74 1568.04 L1271.89 1568.04 L1271.89 1532.4 M1271.89 1518.52 L1277.74 1518.52 L1277.74 1525.93 L1271.89 1525.93 L1271.89 1518.52 Z" fill="#000000" fill-rule="evenodd" fill-opacity="1" /><path clip-path="url(#clip690)" d="M1303.81 1536.5 Q1299.1 1536.5 1296.36 1540.19 Q1293.63 1543.85 1293.63 1550.25 Q1293.63 1556.65 1296.33 1560.34 Q1299.07 1564 1303.81 1564 Q1308.49 1564 1311.23 1560.31 Q1313.97 1556.62 1313.97 1550.25 Q1313.97 1543.92 1311.23 1540.23 Q1308.49 1536.5 1303.81 1536.5 M1303.81 1531.54 Q1311.45 1531.54 1315.81 1536.5 Q1320.17 1541.47 1320.17 1550.25 Q1320.17 1559 1315.81 1564 Q1311.45 1568.97 1303.81 1568.97 Q1296.14 1568.97 1291.78 1564 Q1287.45 1559 1287.45 1550.25 Q1287.45 1541.47 1291.78 1536.5 Q1296.14 1531.54 1303.81 1531.54 Z" fill="#000000" fill-rule="evenodd" fill-opacity="1" /><path clip-path="url(#clip690)" d="M1359.51 1546.53 L1359.51 1568.04 L1353.66 1568.04 L1353.66 1546.72 Q1353.66 1541.66 1351.68 1539.14 Q1349.71 1536.63 1345.76 1536.63 Q1341.02 1536.63 1338.28 1539.65 Q1335.55 1542.68 1335.55 1547.9 L1335.55 1568.04 L1329.66 1568.04 L1329.66 1532.4 L1335.55 1532.4 L1335.55 1537.93 Q1337.65 1534.72 1340.48 1533.13 Q1343.34 1531.54 1347.07 1531.54 Q1353.21 1531.54 1356.36 1535.36 Q1359.51 1539.14 1359.51 1546.53 Z" fill="#000000" fill-rule="evenodd" fill-opacity="1" /><path clip-path="url(#clip690)" d="M1391.91 1518.52 L1397.77 1518.52 L1397.77 1568.04 L1391.91 1568.04 L1391.91 1518.52 Z" fill="#000000" fill-rule="evenodd" fill-opacity="1" /><path clip-path="url(#clip690)" d="M1426.22 1550.12 Q1419.13 1550.12 1416.39 1551.75 Q1413.65 1553.37 1413.65 1557.29 Q1413.65 1560.4 1415.69 1562.25 Q1417.76 1564.07 1421.29 1564.07 Q1426.16 1564.07 1429.09 1560.63 Q1432.05 1557.16 1432.05 1551.43 L1432.05 1550.12 L1426.22 1550.12 M1437.91 1547.71 L1437.91 1568.04 L1432.05 1568.04 L1432.05 1562.63 Q1430.04 1565.88 1427.05 1567.44 Q1424.06 1568.97 1419.73 1568.97 Q1414.26 1568.97 1411.01 1565.91 Q1407.8 1562.82 1407.8 1557.67 Q1407.8 1551.65 1411.81 1548.6 Q1415.85 1545.54 1423.84 1545.54 L1432.05 1545.54 L1432.05 1544.97 Q1432.05 1540.93 1429.38 1538.73 Q1426.73 1536.5 1421.93 1536.5 Q1418.87 1536.5 1415.98 1537.23 Q1413.08 1537.97 1410.41 1539.43 L1410.41 1534.02 Q1413.62 1532.78 1416.64 1532.17 Q1419.67 1531.54 1422.53 1531.54 Q1430.27 1531.54 1434.09 1535.55 Q1437.91 1539.56 1437.91 1547.71 Z" fill="#000000" fill-rule="evenodd" fill-opacity="1" /><path clip-path="url(#clip690)" d="M1473.43 1549.81 Q1473.43 1543.44 1470.78 1539.94 Q1468.17 1536.44 1463.43 1536.44 Q1458.72 1536.44 1456.08 1539.94 Q1453.47 1543.44 1453.47 1549.81 Q1453.47 1556.14 1456.08 1559.64 Q1458.72 1563.14 1463.43 1563.14 Q1468.17 1563.14 1470.78 1559.64 Q1473.43 1556.14 1473.43 1549.81 M1479.28 1563.62 Q1479.28 1572.72 1475.24 1577.15 Q1471.2 1581.6 1462.86 1581.6 Q1459.77 1581.6 1457.03 1581.13 Q1454.3 1580.68 1451.72 1579.72 L1451.72 1574.03 Q1454.3 1575.43 1456.81 1576.1 Q1459.33 1576.76 1461.94 1576.76 Q1467.7 1576.76 1470.56 1573.74 Q1473.43 1570.75 1473.43 1564.67 L1473.43 1561.77 Q1471.61 1564.92 1468.78 1566.48 Q1465.95 1568.04 1462 1568.04 Q1455.44 1568.04 1451.43 1563.05 Q1447.42 1558.05 1447.42 1549.81 Q1447.42 1541.53 1451.43 1536.53 Q1455.44 1531.54 1462 1531.54 Q1465.95 1531.54 1468.78 1533.1 Q1471.61 1534.66 1473.43 1537.81 L1473.43 1532.4 L1479.28 1532.4 L1479.28 1563.62 Z" fill="#000000" fill-rule="evenodd" fill-opacity="1" /><path clip-path="url(#clip690)" d="M1526.13 1518.58 Q1521.87 1525.9 1519.8 1533.06 Q1517.73 1540.23 1517.73 1547.58 Q1517.73 1554.93 1519.8 1562.16 Q1521.9 1569.35 1526.13 1576.64 L1521.04 1576.64 Q1516.27 1569.16 1513.88 1561.93 Q1511.53 1554.71 1511.53 1547.58 Q1511.53 1540.48 1513.88 1533.29 Q1516.24 1526.09 1521.04 1518.58 L1526.13 1518.58 Z" fill="#000000" fill-rule="evenodd" fill-opacity="1" /><path clip-path="url(#clip690)" d="M1567.13 1546.53 L1567.13 1581.6 L1561.27 1581.6 L1561.27 1546.72 Q1561.27 1541.66 1559.3 1539.14 Q1557.33 1536.63 1553.38 1536.63 Q1548.64 1536.63 1545.9 1539.65 Q1543.16 1542.68 1543.16 1547.9 L1543.16 1568.04 L1537.27 1568.04 L1537.27 1532.4 L1543.16 1532.4 L1543.16 1537.93 Q1545.26 1534.72 1548.1 1533.13 Q1550.96 1531.54 1554.68 1531.54 Q1560.83 1531.54 1563.98 1535.32 Q1567.13 1539.14 1567.13 1546.53 Z" fill="#000000" fill-rule="evenodd" fill-opacity="1" /><path clip-path="url(#clip690)" d="M1577.89 1518.58 L1582.98 1518.58 Q1587.75 1526.09 1590.11 1533.29 Q1592.5 1540.48 1592.5 1547.58 Q1592.5 1554.71 1590.11 1561.93 Q1587.75 1569.16 1582.98 1576.64 L1577.89 1576.64 Q1582.12 1569.35 1584.19 1562.16 Q1586.29 1554.93 1586.29 1547.58 Q1586.29 1540.23 1584.19 1533.06 Q1582.12 1525.9 1577.89 1518.58 Z" fill="#000000" fill-rule="evenodd" fill-opacity="1" /><polyline clip-path="url(#clip692)" style="stroke:#000000; stroke-linecap:butt; stroke-linejoin:round; stroke-width:2; stroke-opacity:0.1; fill:none" points="
  287.366,1423.18 2352.76,1423.18 
  "/>
<polyline clip-path="url(#clip692)" style="stroke:#000000; stroke-linecap:butt; stroke-linejoin:round; stroke-width:2; stroke-opacity:0.1; fill:none" points="
  287.366,1079.2 2352.76,1079.2 
  "/>
<polyline clip-path="url(#clip692)" style="stroke:#000000; stroke-linecap:butt; stroke-linejoin:round; stroke-width:2; stroke-opacity:0.1; fill:none" points="
  287.366,735.212 2352.76,735.212 
  "/>
<polyline clip-path="url(#clip692)" style="stroke:#000000; stroke-linecap:butt; stroke-linejoin:round; stroke-width:2; stroke-opacity:0.1; fill:none" points="
  287.366,391.228 2352.76,391.228 
  "/>
<polyline clip-path="url(#clip692)" style="stroke:#000000; stroke-linecap:butt; stroke-linejoin:round; stroke-width:2; stroke-opacity:0.1; fill:none" points="
  287.366,47.2441 2352.76,47.2441 
  "/>
<polyline clip-path="url(#clip690)" style="stroke:#000000; stroke-linecap:butt; stroke-linejoin:round; stroke-width:4; stroke-opacity:1; fill:none" points="
  287.366,1423.18 287.366,47.2441 
  "/>
<polyline clip-path="url(#clip690)" style="stroke:#000000; stroke-linecap:butt; stroke-linejoin:round; stroke-width:4; stroke-opacity:1; fill:none" points="
  287.366,1423.18 306.264,1423.18 
  "/>
<polyline clip-path="url(#clip690)" style="stroke:#000000; stroke-linecap:butt; stroke-linejoin:round; stroke-width:4; stroke-opacity:1; fill:none" points="
  287.366,1079.2 306.264,1079.2 
  "/>
<polyline clip-path="url(#clip690)" style="stroke:#000000; stroke-linecap:butt; stroke-linejoin:round; stroke-width:4; stroke-opacity:1; fill:none" points="
  287.366,735.212 306.264,735.212 
  "/>
<polyline clip-path="url(#clip690)" style="stroke:#000000; stroke-linecap:butt; stroke-linejoin:round; stroke-width:4; stroke-opacity:1; fill:none" points="
  287.366,391.228 306.264,391.228 
  "/>
<polyline clip-path="url(#clip690)" style="stroke:#000000; stroke-linecap:butt; stroke-linejoin:round; stroke-width:4; stroke-opacity:1; fill:none" points="
  287.366,47.2441 306.264,47.2441 
  "/>
<path clip-path="url(#clip690)" d="M114.26 1423.63 L143.936 1423.63 L143.936 1427.57 L114.26 1427.57 L114.26 1423.63 Z" fill="#000000" fill-rule="evenodd" fill-opacity="1" /><path clip-path="url(#clip690)" d="M164.028 1408.98 Q160.417 1408.98 158.589 1412.54 Q156.783 1416.08 156.783 1423.21 Q156.783 1430.32 158.589 1433.89 Q160.417 1437.43 164.028 1437.43 Q167.663 1437.43 169.468 1433.89 Q171.297 1430.32 171.297 1423.21 Q171.297 1416.08 169.468 1412.54 Q167.663 1408.98 164.028 1408.98 M164.028 1405.27 Q169.839 1405.27 172.894 1409.88 Q175.973 1414.46 175.973 1423.21 Q175.973 1431.94 172.894 1436.55 Q169.839 1441.13 164.028 1441.13 Q158.218 1441.13 155.14 1436.55 Q152.084 1431.94 152.084 1423.21 Q152.084 1414.46 155.14 1409.88 Q158.218 1405.27 164.028 1405.27 Z" fill="#000000" fill-rule="evenodd" fill-opacity="1" /><path clip-path="url(#clip690)" d="M184.19 1434.58 L189.075 1434.58 L189.075 1440.46 L184.19 1440.46 L184.19 1434.58 Z" fill="#000000" fill-rule="evenodd" fill-opacity="1" /><path clip-path="url(#clip690)" d="M200.07 1436.52 L207.709 1436.52 L207.709 1410.16 L199.399 1411.83 L199.399 1407.57 L207.662 1405.9 L212.338 1405.9 L212.338 1436.52 L219.977 1436.52 L219.977 1440.46 L200.07 1440.46 L200.07 1436.52 Z" fill="#000000" fill-rule="evenodd" fill-opacity="1" /><path clip-path="url(#clip690)" d="M239.422 1408.98 Q235.81 1408.98 233.982 1412.54 Q232.176 1416.08 232.176 1423.21 Q232.176 1430.32 233.982 1433.89 Q235.81 1437.43 239.422 1437.43 Q243.056 1437.43 244.861 1433.89 Q246.69 1430.32 246.69 1423.21 Q246.69 1416.08 244.861 1412.54 Q243.056 1408.98 239.422 1408.98 M239.422 1405.27 Q245.232 1405.27 248.287 1409.88 Q251.366 1414.46 251.366 1423.21 Q251.366 1431.94 248.287 1436.55 Q245.232 1441.13 239.422 1441.13 Q233.611 1441.13 230.533 1436.55 Q227.477 1431.94 227.477 1423.21 Q227.477 1414.46 230.533 1409.88 Q233.611 1405.27 239.422 1405.27 Z" fill="#000000" fill-rule="evenodd" fill-opacity="1" /><path clip-path="url(#clip690)" d="M115.256 1079.65 L144.931 1079.65 L144.931 1083.58 L115.256 1083.58 L115.256 1079.65 Z" fill="#000000" fill-rule="evenodd" fill-opacity="1" /><path clip-path="url(#clip690)" d="M165.024 1064.99 Q161.413 1064.99 159.584 1068.56 Q157.778 1072.1 157.778 1079.23 Q157.778 1086.34 159.584 1089.9 Q161.413 1093.44 165.024 1093.44 Q168.658 1093.44 170.464 1089.9 Q172.292 1086.34 172.292 1079.23 Q172.292 1072.1 170.464 1068.56 Q168.658 1064.99 165.024 1064.99 M165.024 1061.29 Q170.834 1061.29 173.889 1065.9 Q176.968 1070.48 176.968 1079.23 Q176.968 1087.96 173.889 1092.56 Q170.834 1097.15 165.024 1097.15 Q159.214 1097.15 156.135 1092.56 Q153.079 1087.96 153.079 1079.23 Q153.079 1070.48 156.135 1065.9 Q159.214 1061.29 165.024 1061.29 Z" fill="#000000" fill-rule="evenodd" fill-opacity="1" /><path clip-path="url(#clip690)" d="M185.186 1090.6 L190.07 1090.6 L190.07 1096.48 L185.186 1096.48 L185.186 1090.6 Z" fill="#000000" fill-rule="evenodd" fill-opacity="1" /><path clip-path="url(#clip690)" d="M210.255 1064.99 Q206.644 1064.99 204.815 1068.56 Q203.01 1072.1 203.01 1079.23 Q203.01 1086.34 204.815 1089.9 Q206.644 1093.44 210.255 1093.44 Q213.889 1093.44 215.695 1089.9 Q217.523 1086.34 217.523 1079.23 Q217.523 1072.1 215.695 1068.56 Q213.889 1064.99 210.255 1064.99 M210.255 1061.29 Q216.065 1061.29 219.121 1065.9 Q222.199 1070.48 222.199 1079.23 Q222.199 1087.96 219.121 1092.56 Q216.065 1097.15 210.255 1097.15 Q204.445 1097.15 201.366 1092.56 Q198.311 1087.96 198.311 1079.23 Q198.311 1070.48 201.366 1065.9 Q204.445 1061.29 210.255 1061.29 Z" fill="#000000" fill-rule="evenodd" fill-opacity="1" /><path clip-path="url(#clip690)" d="M230.463 1061.92 L248.82 1061.92 L248.82 1065.85 L234.746 1065.85 L234.746 1074.32 Q235.764 1073.98 236.783 1073.81 Q237.801 1073.63 238.82 1073.63 Q244.607 1073.63 247.986 1076.8 Q251.366 1079.97 251.366 1085.39 Q251.366 1090.97 247.894 1094.07 Q244.421 1097.15 238.102 1097.15 Q235.926 1097.15 233.658 1096.78 Q231.412 1096.41 229.005 1095.67 L229.005 1090.97 Q231.088 1092.1 233.31 1092.66 Q235.533 1093.21 238.009 1093.21 Q242.014 1093.21 244.352 1091.11 Q246.69 1089 246.69 1085.39 Q246.69 1081.78 244.352 1079.67 Q242.014 1077.56 238.009 1077.56 Q236.135 1077.56 234.26 1077.98 Q232.408 1078.4 230.463 1079.28 L230.463 1061.92 Z" fill="#000000" fill-rule="evenodd" fill-opacity="1" /><path clip-path="url(#clip690)" d="M164.028 721.011 Q160.417 721.011 158.589 724.575 Q156.783 728.117 156.783 735.247 Q156.783 742.353 158.589 745.918 Q160.417 749.46 164.028 749.46 Q167.663 749.46 169.468 745.918 Q171.297 742.353 171.297 735.247 Q171.297 728.117 169.468 724.575 Q167.663 721.011 164.028 721.011 M164.028 717.307 Q169.839 717.307 172.894 721.913 Q175.973 726.497 175.973 735.247 Q175.973 743.973 172.894 748.58 Q169.839 753.163 164.028 753.163 Q158.218 753.163 155.14 748.58 Q152.084 743.973 152.084 735.247 Q152.084 726.497 155.14 721.913 Q158.218 717.307 164.028 717.307 Z" fill="#000000" fill-rule="evenodd" fill-opacity="1" /><path clip-path="url(#clip690)" d="M184.19 746.612 L189.075 746.612 L189.075 752.492 L184.19 752.492 L184.19 746.612 Z" fill="#000000" fill-rule="evenodd" fill-opacity="1" /><path clip-path="url(#clip690)" d="M209.26 721.011 Q205.649 721.011 203.82 724.575 Q202.014 728.117 202.014 735.247 Q202.014 742.353 203.82 745.918 Q205.649 749.46 209.26 749.46 Q212.894 749.46 214.699 745.918 Q216.528 742.353 216.528 735.247 Q216.528 728.117 214.699 724.575 Q212.894 721.011 209.26 721.011 M209.26 717.307 Q215.07 717.307 218.125 721.913 Q221.204 726.497 221.204 735.247 Q221.204 743.973 218.125 748.58 Q215.07 753.163 209.26 753.163 Q203.449 753.163 200.371 748.58 Q197.315 743.973 197.315 735.247 Q197.315 726.497 200.371 721.913 Q203.449 717.307 209.26 717.307 Z" fill="#000000" fill-rule="evenodd" fill-opacity="1" /><path clip-path="url(#clip690)" d="M239.422 721.011 Q235.81 721.011 233.982 724.575 Q232.176 728.117 232.176 735.247 Q232.176 742.353 233.982 745.918 Q235.81 749.46 239.422 749.46 Q243.056 749.46 244.861 745.918 Q246.69 742.353 246.69 735.247 Q246.69 728.117 244.861 724.575 Q243.056 721.011 239.422 721.011 M239.422 717.307 Q245.232 717.307 248.287 721.913 Q251.366 726.497 251.366 735.247 Q251.366 743.973 248.287 748.58 Q245.232 753.163 239.422 753.163 Q233.611 753.163 230.533 748.58 Q227.477 743.973 227.477 735.247 Q227.477 726.497 230.533 721.913 Q233.611 717.307 239.422 717.307 Z" fill="#000000" fill-rule="evenodd" fill-opacity="1" /><path clip-path="url(#clip690)" d="M165.024 377.027 Q161.413 377.027 159.584 380.592 Q157.778 384.133 157.778 391.263 Q157.778 398.369 159.584 401.934 Q161.413 405.476 165.024 405.476 Q168.658 405.476 170.464 401.934 Q172.292 398.369 172.292 391.263 Q172.292 384.133 170.464 380.592 Q168.658 377.027 165.024 377.027 M165.024 373.323 Q170.834 373.323 173.889 377.929 Q176.968 382.513 176.968 391.263 Q176.968 399.99 173.889 404.596 Q170.834 409.179 165.024 409.179 Q159.214 409.179 156.135 404.596 Q153.079 399.99 153.079 391.263 Q153.079 382.513 156.135 377.929 Q159.214 373.323 165.024 373.323 Z" fill="#000000" fill-rule="evenodd" fill-opacity="1" /><path clip-path="url(#clip690)" d="M185.186 402.628 L190.07 402.628 L190.07 408.508 L185.186 408.508 L185.186 402.628 Z" fill="#000000" fill-rule="evenodd" fill-opacity="1" /><path clip-path="url(#clip690)" d="M210.255 377.027 Q206.644 377.027 204.815 380.592 Q203.01 384.133 203.01 391.263 Q203.01 398.369 204.815 401.934 Q206.644 405.476 210.255 405.476 Q213.889 405.476 215.695 401.934 Q217.523 398.369 217.523 391.263 Q217.523 384.133 215.695 380.592 Q213.889 377.027 210.255 377.027 M210.255 373.323 Q216.065 373.323 219.121 377.929 Q222.199 382.513 222.199 391.263 Q222.199 399.99 219.121 404.596 Q216.065 409.179 210.255 409.179 Q204.445 409.179 201.366 404.596 Q198.311 399.99 198.311 391.263 Q198.311 382.513 201.366 377.929 Q204.445 373.323 210.255 373.323 Z" fill="#000000" fill-rule="evenodd" fill-opacity="1" /><path clip-path="url(#clip690)" d="M230.463 373.948 L248.82 373.948 L248.82 377.883 L234.746 377.883 L234.746 386.355 Q235.764 386.008 236.783 385.846 Q237.801 385.661 238.82 385.661 Q244.607 385.661 247.986 388.832 Q251.366 392.003 251.366 397.42 Q251.366 402.999 247.894 406.101 Q244.421 409.179 238.102 409.179 Q235.926 409.179 233.658 408.809 Q231.412 408.439 229.005 407.698 L229.005 402.999 Q231.088 404.133 233.31 404.689 Q235.533 405.244 238.009 405.244 Q242.014 405.244 244.352 403.138 Q246.69 401.031 246.69 397.42 Q246.69 393.809 244.352 391.703 Q242.014 389.596 238.009 389.596 Q236.135 389.596 234.26 390.013 Q232.408 390.429 230.463 391.309 L230.463 373.948 Z" fill="#000000" fill-rule="evenodd" fill-opacity="1" /><path clip-path="url(#clip690)" d="M164.028 33.0428 Q160.417 33.0428 158.589 36.6076 Q156.783 40.1492 156.783 47.2788 Q156.783 54.3853 158.589 57.9501 Q160.417 61.4917 164.028 61.4917 Q167.663 61.4917 169.468 57.9501 Q171.297 54.3853 171.297 47.2788 Q171.297 40.1492 169.468 36.6076 Q167.663 33.0428 164.028 33.0428 M164.028 29.3391 Q169.839 29.3391 172.894 33.9456 Q175.973 38.5289 175.973 47.2788 Q175.973 56.0056 172.894 60.6121 Q169.839 65.1954 164.028 65.1954 Q158.218 65.1954 155.14 60.6121 Q152.084 56.0056 152.084 47.2788 Q152.084 38.5289 155.14 33.9456 Q158.218 29.3391 164.028 29.3391 Z" fill="#000000" fill-rule="evenodd" fill-opacity="1" /><path clip-path="url(#clip690)" d="M184.19 58.6445 L189.075 58.6445 L189.075 64.5241 L184.19 64.5241 L184.19 58.6445 Z" fill="#000000" fill-rule="evenodd" fill-opacity="1" /><path clip-path="url(#clip690)" d="M200.07 60.5889 L207.709 60.5889 L207.709 34.2233 L199.399 35.89 L199.399 31.6308 L207.662 29.9641 L212.338 29.9641 L212.338 60.5889 L219.977 60.5889 L219.977 64.5241 L200.07 64.5241 L200.07 60.5889 Z" fill="#000000" fill-rule="evenodd" fill-opacity="1" /><path clip-path="url(#clip690)" d="M239.422 33.0428 Q235.81 33.0428 233.982 36.6076 Q232.176 40.1492 232.176 47.2788 Q232.176 54.3853 233.982 57.9501 Q235.81 61.4917 239.422 61.4917 Q243.056 61.4917 244.861 57.9501 Q246.69 54.3853 246.69 47.2788 Q246.69 40.1492 244.861 36.6076 Q243.056 33.0428 239.422 33.0428 M239.422 29.3391 Q245.232 29.3391 248.287 33.9456 Q251.366 38.5289 251.366 47.2788 Q251.366 56.0056 248.287 60.6121 Q245.232 65.1954 239.422 65.1954 Q233.611 65.1954 230.533 60.6121 Q227.477 56.0056 227.477 47.2788 Q227.477 38.5289 230.533 33.9456 Q233.611 29.3391 239.422 29.3391 Z" fill="#000000" fill-rule="evenodd" fill-opacity="1" /><path clip-path="url(#clip690)" d="M21.7677 1174.35 L39.6235 1174.35 L39.6235 1166.27 Q39.6235 1161.78 37.3 1159.33 Q34.9765 1156.88 30.6797 1156.88 Q26.4147 1156.88 24.0912 1159.33 Q21.7677 1161.78 21.7677 1166.27 L21.7677 1174.35 M16.4842 1180.78 L16.4842 1166.27 Q16.4842 1158.28 20.1126 1154.2 Q23.7092 1150.1 30.6797 1150.1 Q37.7138 1150.1 41.3104 1154.2 Q44.907 1158.28 44.907 1166.27 L44.907 1174.35 L64.0042 1174.35 L64.0042 1180.78 L16.4842 1180.78 Z" fill="#000000" fill-rule="evenodd" fill-opacity="1" /><path clip-path="url(#clip690)" d="M33.8307 1122.22 Q33.2578 1123.2 33.0032 1124.38 Q32.7167 1125.53 32.7167 1126.93 Q32.7167 1131.89 35.9632 1134.56 Q39.1779 1137.21 45.2253 1137.21 L64.0042 1137.21 L64.0042 1143.09 L28.3562 1143.09 L28.3562 1137.21 L33.8944 1137.21 Q30.6479 1135.36 29.0883 1132.4 Q27.4968 1129.44 27.4968 1125.21 Q27.4968 1124.6 27.5923 1123.87 Q27.656 1123.14 27.8151 1122.25 L33.8307 1122.22 Z" fill="#000000" fill-rule="evenodd" fill-opacity="1" /><path clip-path="url(#clip690)" d="M44.7161 1087.01 L47.5806 1087.01 L47.5806 1113.94 Q53.6281 1113.56 56.8109 1110.31 Q59.9619 1107.03 59.9619 1101.21 Q59.9619 1097.83 59.1344 1094.68 Q58.3069 1091.5 56.6518 1088.38 L62.1899 1088.38 Q63.5267 1091.53 64.227 1094.84 Q64.9272 1098.15 64.9272 1101.56 Q64.9272 1110.09 59.9619 1115.09 Q54.9967 1120.05 46.5303 1120.05 Q37.7774 1120.05 32.6531 1115.34 Q27.4968 1110.6 27.4968 1102.58 Q27.4968 1095.38 32.1438 1091.21 Q36.7589 1087.01 44.7161 1087.01 M42.9973 1092.87 Q38.1912 1092.93 35.3266 1095.57 Q32.4621 1098.18 32.4621 1102.51 Q32.4621 1107.41 35.2312 1110.37 Q38.0002 1113.3 43.0292 1113.75 L42.9973 1092.87 Z" fill="#000000" fill-rule="evenodd" fill-opacity="1" /><path clip-path="url(#clip690)" d="M33.7671 1053.94 L14.479 1053.94 L14.479 1048.09 L64.0042 1048.09 L64.0042 1053.94 L58.657 1053.94 Q61.8398 1055.79 63.3994 1058.62 Q64.9272 1061.42 64.9272 1065.37 Q64.9272 1071.83 59.771 1075.9 Q54.6147 1079.95 46.212 1079.95 Q37.8093 1079.95 32.6531 1075.9 Q27.4968 1071.83 27.4968 1065.37 Q27.4968 1061.42 29.0564 1058.62 Q30.5842 1055.79 33.7671 1053.94 M46.212 1073.9 Q52.6732 1073.9 56.3653 1071.26 Q60.0256 1068.58 60.0256 1063.94 Q60.0256 1059.29 56.3653 1056.62 Q52.6732 1053.94 46.212 1053.94 Q39.7508 1053.94 36.0905 1056.62 Q32.3984 1059.29 32.3984 1063.94 Q32.3984 1068.58 36.0905 1071.26 Q39.7508 1073.9 46.212 1073.9 Z" fill="#000000" fill-rule="evenodd" fill-opacity="1" /><path clip-path="url(#clip690)" d="M28.3562 1036.02 L28.3562 1030.17 L64.0042 1030.17 L64.0042 1036.02 L28.3562 1036.02 M14.479 1036.02 L14.479 1030.17 L21.895 1030.17 L21.895 1036.02 L14.479 1036.02 Z" fill="#000000" fill-rule="evenodd" fill-opacity="1" /><path clip-path="url(#clip690)" d="M29.7248 992.259 L35.1993 992.259 Q33.8307 994.742 33.1623 997.256 Q32.4621 999.739 32.4621 1002.29 Q32.4621 1007.98 36.0905 1011.13 Q39.6872 1014.28 46.212 1014.28 Q52.7369 1014.28 56.3653 1011.13 Q59.9619 1007.98 59.9619 1002.29 Q59.9619 999.739 59.2935 997.256 Q58.5933 994.742 57.2247 992.259 L62.6355 992.259 Q63.7814 994.71 64.3543 997.352 Q64.9272 999.962 64.9272 1002.92 Q64.9272 1010.97 59.8664 1015.72 Q54.8057 1020.46 46.212 1020.46 Q37.491 1020.46 32.4939 1015.69 Q27.4968 1010.88 27.4968 1002.54 Q27.4968 999.834 28.0697 997.256 Q28.6108 994.678 29.7248 992.259 Z" fill="#000000" fill-rule="evenodd" fill-opacity="1" /><path clip-path="url(#clip690)" d="M18.2347 976.281 L28.3562 976.281 L28.3562 964.218 L32.9077 964.218 L32.9077 976.281 L52.2594 976.281 Q56.6199 976.281 57.8613 975.104 Q59.1026 973.894 59.1026 970.234 L59.1026 964.218 L64.0042 964.218 L64.0042 970.234 Q64.0042 977.013 61.4897 979.591 Q58.9434 982.17 52.2594 982.17 L32.9077 982.17 L32.9077 986.466 L28.3562 986.466 L28.3562 982.17 L18.2347 982.17 L18.2347 976.281 Z" fill="#000000" fill-rule="evenodd" fill-opacity="1" /><path clip-path="url(#clip690)" d="M28.3562 956.516 L28.3562 950.659 L64.0042 950.659 L64.0042 956.516 L28.3562 956.516 M14.479 956.516 L14.479 950.659 L21.895 950.659 L21.895 956.516 L14.479 956.516 Z" fill="#000000" fill-rule="evenodd" fill-opacity="1" /><path clip-path="url(#clip690)" d="M28.3562 942.607 L28.3562 936.4 L58.275 925.26 L28.3562 914.12 L28.3562 907.914 L64.0042 921.282 L64.0042 929.239 L28.3562 942.607 Z" fill="#000000" fill-rule="evenodd" fill-opacity="1" /><path clip-path="url(#clip690)" d="M44.7161 869.337 L47.5806 869.337 L47.5806 896.264 Q53.6281 895.882 56.8109 892.636 Q59.9619 889.358 59.9619 883.533 Q59.9619 880.159 59.1344 877.008 Q58.3069 873.825 56.6518 870.706 L62.1899 870.706 Q63.5267 873.857 64.227 877.167 Q64.9272 880.477 64.9272 883.883 Q64.9272 892.413 59.9619 897.41 Q54.9967 902.375 46.5303 902.375 Q37.7774 902.375 32.6531 897.665 Q27.4968 892.922 27.4968 884.902 Q27.4968 877.708 32.1438 873.539 Q36.7589 869.337 44.7161 869.337 M42.9973 875.194 Q38.1912 875.258 35.3266 877.899 Q32.4621 880.509 32.4621 884.838 Q32.4621 889.739 35.2312 892.7 Q38.0002 895.628 43.0292 896.073 L42.9973 875.194 Z" fill="#000000" fill-rule="evenodd" fill-opacity="1" /><path clip-path="url(#clip690)" d="M46.0847 822.804 Q46.0847 829.902 47.7079 832.639 Q49.3312 835.376 53.2461 835.376 Q56.3653 835.376 58.2114 833.339 Q60.0256 831.27 60.0256 827.738 Q60.0256 822.868 56.5881 819.94 Q53.1188 816.979 47.3897 816.979 L46.0847 816.979 L46.0847 822.804 M43.6657 811.123 L64.0042 811.123 L64.0042 816.979 L58.5933 816.979 Q61.8398 818.985 63.3994 821.977 Q64.9272 824.968 64.9272 829.297 Q64.9272 834.772 61.8716 838.018 Q58.7843 841.233 53.6281 841.233 Q47.6125 841.233 44.5569 837.222 Q41.5014 833.18 41.5014 825.191 L41.5014 816.979 L40.9285 816.979 Q36.8862 816.979 34.6901 819.653 Q32.4621 822.295 32.4621 827.101 Q32.4621 830.156 33.1941 833.053 Q33.9262 835.949 35.3903 838.623 L29.9795 838.623 Q28.7381 835.408 28.1334 832.384 Q27.4968 829.361 27.4968 826.496 Q27.4968 818.762 31.5072 814.942 Q35.5176 811.123 43.6657 811.123 Z" fill="#000000" fill-rule="evenodd" fill-opacity="1" /><path clip-path="url(#clip690)" d="M29.4065 776.334 L34.9447 776.334 Q33.6716 778.817 33.035 781.491 Q32.3984 784.164 32.3984 787.029 Q32.3984 791.389 33.7352 793.585 Q35.072 795.75 37.7456 795.75 Q39.7826 795.75 40.9603 794.19 Q42.1061 792.631 43.1565 787.92 L43.6021 785.915 Q44.9389 779.676 47.3897 777.066 Q49.8086 774.425 54.1691 774.425 Q59.1344 774.425 62.0308 778.371 Q64.9272 782.286 64.9272 789.161 Q64.9272 792.026 64.3543 795.145 Q63.8132 798.232 62.6992 801.67 L56.6518 801.67 Q58.3387 798.423 59.198 795.272 Q60.0256 792.121 60.0256 789.034 Q60.0256 784.896 58.6251 782.668 Q57.1929 780.44 54.6147 780.44 Q52.2276 780.44 50.9545 782.064 Q49.6813 783.655 48.5037 789.098 L48.0262 791.135 Q46.8804 796.577 44.5251 798.996 Q42.138 801.415 38.0002 801.415 Q32.9713 801.415 30.2341 797.851 Q27.4968 794.286 27.4968 787.729 Q27.4968 784.483 27.9743 781.618 Q28.4517 778.753 29.4065 776.334 Z" fill="#000000" fill-rule="evenodd" fill-opacity="1" /><path clip-path="url(#clip690)" d="M67.3143 750.267 Q73.68 752.749 75.6216 755.105 Q77.5631 757.46 77.5631 761.407 L77.5631 766.086 L72.6615 766.086 L72.6615 762.648 Q72.6615 760.229 71.5157 758.892 Q70.3699 757.556 66.1048 755.932 L63.4312 754.882 L28.3562 769.3 L28.3562 763.094 L56.238 751.954 L28.3562 740.814 L28.3562 734.607 L67.3143 750.267 Z" fill="#000000" fill-rule="evenodd" fill-opacity="1" /><path clip-path="url(#clip690)" d="M35.1993 698.768 Q31.2526 696.572 29.3747 693.517 Q27.4968 690.461 27.4968 686.323 Q27.4968 680.753 31.4117 677.73 Q35.2948 674.706 42.4881 674.706 L64.0042 674.706 L64.0042 680.594 L42.679 680.594 Q37.5546 680.594 35.072 682.408 Q32.5894 684.223 32.5894 687.947 Q32.5894 692.498 35.6131 695.14 Q38.6368 697.782 43.8567 697.782 L64.0042 697.782 L64.0042 703.67 L42.679 703.67 Q37.5228 703.67 35.072 705.484 Q32.5894 707.298 32.5894 711.086 Q32.5894 715.574 35.6449 718.216 Q38.6686 720.857 43.8567 720.857 L64.0042 720.857 L64.0042 726.746 L28.3562 726.746 L28.3562 720.857 L33.8944 720.857 Q30.616 718.852 29.0564 716.051 Q27.4968 713.25 27.4968 709.399 Q27.4968 705.516 29.4702 702.811 Q31.4436 700.073 35.1993 698.768 Z" fill="#000000" fill-rule="evenodd" fill-opacity="1" /><path clip-path="url(#clip690)" d="M35.1993 635.27 Q31.2526 633.074 29.3747 630.019 Q27.4968 626.963 27.4968 622.825 Q27.4968 617.255 31.4117 614.232 Q35.2948 611.208 42.4881 611.208 L64.0042 611.208 L64.0042 617.096 L42.679 617.096 Q37.5546 617.096 35.072 618.911 Q32.5894 620.725 32.5894 624.449 Q32.5894 629 35.6131 631.642 Q38.6368 634.284 43.8567 634.284 L64.0042 634.284 L64.0042 640.172 L42.679 640.172 Q37.5228 640.172 35.072 641.986 Q32.5894 643.8 32.5894 647.588 Q32.5894 652.076 35.6449 654.718 Q38.6686 657.359 43.8567 657.359 L64.0042 657.359 L64.0042 663.248 L28.3562 663.248 L28.3562 657.359 L33.8944 657.359 Q30.616 655.354 29.0564 652.553 Q27.4968 649.752 27.4968 645.901 Q27.4968 642.018 29.4702 639.313 Q31.4436 636.575 35.1993 635.27 Z" fill="#000000" fill-rule="evenodd" fill-opacity="1" /><path clip-path="url(#clip690)" d="M44.7161 569.035 L47.5806 569.035 L47.5806 595.962 Q53.6281 595.58 56.8109 592.334 Q59.9619 589.055 59.9619 583.231 Q59.9619 579.857 59.1344 576.706 Q58.3069 573.523 56.6518 570.404 L62.1899 570.404 Q63.5267 573.555 64.227 576.865 Q64.9272 580.175 64.9272 583.581 Q64.9272 592.111 59.9619 597.108 Q54.9967 602.073 46.5303 602.073 Q37.7774 602.073 32.6531 597.363 Q27.4968 592.62 27.4968 584.599 Q27.4968 577.406 32.1438 573.237 Q36.7589 569.035 44.7161 569.035 M42.9973 574.892 Q38.1912 574.955 35.3266 577.597 Q32.4621 580.207 32.4621 584.536 Q32.4621 589.437 35.2312 592.397 Q38.0002 595.326 43.0292 595.771 L42.9973 574.892 Z" fill="#000000" fill-rule="evenodd" fill-opacity="1" /><path clip-path="url(#clip690)" d="M18.2347 553.63 L28.3562 553.63 L28.3562 541.567 L32.9077 541.567 L32.9077 553.63 L52.2594 553.63 Q56.6199 553.63 57.8613 552.453 Q59.1026 551.243 59.1026 547.583 L59.1026 541.567 L64.0042 541.567 L64.0042 547.583 Q64.0042 554.362 61.4897 556.94 Q58.9434 559.518 52.2594 559.518 L32.9077 559.518 L32.9077 563.815 L28.3562 563.815 L28.3562 559.518 L18.2347 559.518 L18.2347 553.63 Z" fill="#000000" fill-rule="evenodd" fill-opacity="1" /><path clip-path="url(#clip690)" d="M33.8307 513.208 Q33.2578 514.195 33.0032 515.372 Q32.7167 516.518 32.7167 517.919 Q32.7167 522.884 35.9632 525.557 Q39.1779 528.199 45.2253 528.199 L64.0042 528.199 L64.0042 534.087 L28.3562 534.087 L28.3562 528.199 L33.8944 528.199 Q30.6479 526.353 29.0883 523.393 Q27.4968 520.433 27.4968 516.2 Q27.4968 515.595 27.5923 514.863 Q27.656 514.131 27.8151 513.24 L33.8307 513.208 Z" fill="#000000" fill-rule="evenodd" fill-opacity="1" /><path clip-path="url(#clip690)" d="M67.3143 492.233 Q73.68 494.716 75.6216 497.071 Q77.5631 499.426 77.5631 503.373 L77.5631 508.052 L72.6615 508.052 L72.6615 504.614 Q72.6615 502.195 71.5157 500.858 Q70.3699 499.522 66.1048 497.898 L63.4312 496.848 L28.3562 511.266 L28.3562 505.06 L56.238 493.92 L28.3562 482.78 L28.3562 476.573 L67.3143 492.233 Z" fill="#000000" fill-rule="evenodd" fill-opacity="1" /><path clip-path="url(#clip690)" d="M14.5426 433.7 Q21.8632 437.965 29.0246 440.034 Q36.186 442.103 43.5384 442.103 Q50.8908 442.103 58.1159 440.034 Q65.3091 437.933 72.5979 433.7 L72.5979 438.793 Q65.1182 443.567 57.8931 445.954 Q50.668 448.31 43.5384 448.31 Q36.4406 448.31 29.2474 445.954 Q22.0542 443.599 14.5426 438.793 L14.5426 433.7 Z" fill="#000000" fill-rule="evenodd" fill-opacity="1" /><path clip-path="url(#clip690)" d="M46.212 396.747 Q39.7508 396.747 36.0905 399.421 Q32.3984 402.063 32.3984 406.71 Q32.3984 411.357 36.0905 414.03 Q39.7508 416.672 46.212 416.672 Q52.6732 416.672 56.3653 414.03 Q60.0256 411.357 60.0256 406.71 Q60.0256 402.063 56.3653 399.421 Q52.6732 396.747 46.212 396.747 M33.7671 416.672 Q30.5842 414.826 29.0564 412.025 Q27.4968 409.192 27.4968 405.277 Q27.4968 398.784 32.6531 394.742 Q37.8093 390.668 46.212 390.668 Q54.6147 390.668 59.771 394.742 Q64.9272 398.784 64.9272 405.277 Q64.9272 409.192 63.3994 412.025 Q61.8398 414.826 58.657 416.672 L64.0042 416.672 L64.0042 422.56 L14.479 422.56 L14.479 416.672 L33.7671 416.672 Z" fill="#000000" fill-rule="evenodd" fill-opacity="1" /><path clip-path="url(#clip690)" d="M28.3562 380.96 L28.3562 375.104 L64.0042 375.104 L64.0042 380.96 L28.3562 380.96 M14.479 380.96 L14.479 375.104 L21.895 375.104 L21.895 380.96 L14.479 380.96 Z" fill="#000000" fill-rule="evenodd" fill-opacity="1" /><path clip-path="url(#clip690)" d="M18.2347 357.057 L28.3562 357.057 L28.3562 344.994 L32.9077 344.994 L32.9077 357.057 L52.2594 357.057 Q56.6199 357.057 57.8613 355.88 Q59.1026 354.67 59.1026 351.01 L59.1026 344.994 L64.0042 344.994 L64.0042 351.01 Q64.0042 357.789 61.4897 360.367 Q58.9434 362.945 52.2594 362.945 L32.9077 362.945 L32.9077 367.242 L28.3562 367.242 L28.3562 362.945 L18.2347 362.945 L18.2347 357.057 Z" fill="#000000" fill-rule="evenodd" fill-opacity="1" /><path clip-path="url(#clip690)" d="M29.4065 314.566 L34.9447 314.566 Q33.6716 317.049 33.035 319.722 Q32.3984 322.396 32.3984 325.26 Q32.3984 329.621 33.7352 331.817 Q35.072 333.981 37.7456 333.981 Q39.7826 333.981 40.9603 332.422 Q42.1061 330.862 43.1565 326.152 L43.6021 324.146 Q44.9389 317.908 47.3897 315.298 Q49.8086 312.656 54.1691 312.656 Q59.1344 312.656 62.0308 316.603 Q64.9272 320.518 64.9272 327.393 Q64.9272 330.258 64.3543 333.377 Q63.8132 336.464 62.6992 339.902 L56.6518 339.902 Q58.3387 336.655 59.198 333.504 Q60.0256 330.353 60.0256 327.266 Q60.0256 323.128 58.6251 320.9 Q57.1929 318.672 54.6147 318.672 Q52.2276 318.672 50.9545 320.295 Q49.6813 321.887 48.5037 327.329 L48.0262 329.366 Q46.8804 334.809 44.5251 337.228 Q42.138 339.647 38.0002 339.647 Q32.9713 339.647 30.2341 336.082 Q27.4968 332.517 27.4968 325.961 Q27.4968 322.714 27.9743 319.85 Q28.4517 316.985 29.4065 314.566 Z" fill="#000000" fill-rule="evenodd" fill-opacity="1" /><path clip-path="url(#clip690)" d="M14.5426 304.254 L14.5426 299.161 Q22.0542 294.387 29.2474 292.031 Q36.4406 289.644 43.5384 289.644 Q50.668 289.644 57.8931 292.031 Q65.1182 294.387 72.5979 299.161 L72.5979 304.254 Q65.3091 300.02 58.1159 297.952 Q50.8908 295.851 43.5384 295.851 Q36.186 295.851 29.0246 297.952 Q21.8632 300.02 14.5426 304.254 Z" fill="#000000" fill-rule="evenodd" fill-opacity="1" /><polyline clip-path="url(#clip692)" style="stroke:#000000; stroke-linecap:butt; stroke-linejoin:round; stroke-width:4; stroke-opacity:1; fill:none" points="
  345.82,759.875 562.318,750.997 778.816,747.406 995.314,746.26 1211.81,746.436 1428.31,743.663 1644.81,744.515 1861.31,745.953 2077.8,743.964 2294.3,741.797 
  
  "/>
<polyline clip-path="url(#clip692)" style="stroke:#ff0000; stroke-linecap:butt; stroke-linejoin:round; stroke-width:4; stroke-opacity:1; fill:none" points="
  345.82,732.43 562.318,726.905 778.816,728.269 995.314,731.924 1211.81,733.889 1428.31,732.681 1644.81,734.608 1861.31,735.788 2077.8,736.386 2294.3,736.461 
  
  "/>
<path clip-path="url(#clip690)" d="
M1916.58 248.629 L2283.91 248.629 L2283.91 93.1086 L1916.58 93.1086  Z
  " fill="#ffffff" fill-rule="evenodd" fill-opacity="1"/>
<polyline clip-path="url(#clip690)" style="stroke:#000000; stroke-linecap:butt; stroke-linejoin:round; stroke-width:4; stroke-opacity:1; fill:none" points="
  1916.58,248.629 2283.91,248.629 2283.91,93.1086 1916.58,93.1086 1916.58,248.629 
  "/>
<polyline clip-path="url(#clip690)" style="stroke:#000000; stroke-linecap:butt; stroke-linejoin:round; stroke-width:4; stroke-opacity:1; fill:none" points="
  1939.52,144.949 2077.22,144.949 
  "/>
<path clip-path="url(#clip690)" d="M2101.74 127.669 L2106.76 127.669 L2115.35 140.516 L2123.98 127.669 L2129.01 127.669 L2117.9 144.266 L2129.75 162.229 L2124.73 162.229 L2115 147.53 L2105.21 162.229 L2100.17 162.229 L2112.5 143.78 L2101.74 127.669 Z" fill="#000000" fill-rule="evenodd" fill-opacity="1" /><path clip-path="url(#clip690)" d="M2154.98 128.942 L2154.98 136.303 L2163.75 136.303 L2163.75 139.613 L2154.98 139.613 L2154.98 153.687 Q2154.98 156.858 2155.84 157.761 Q2156.72 158.664 2159.38 158.664 L2163.75 158.664 L2163.75 162.229 L2159.38 162.229 Q2154.45 162.229 2152.57 160.4 Q2150.7 158.548 2150.7 153.687 L2150.7 139.613 L2147.57 139.613 L2147.57 136.303 L2150.7 136.303 L2150.7 128.942 L2154.98 128.942 Z" fill="#000000" fill-rule="evenodd" fill-opacity="1" /><path clip-path="url(#clip690)" d="M2179.4 139.289 Q2175.98 139.289 2173.98 141.974 Q2171.99 144.636 2171.99 149.289 Q2171.99 153.942 2173.96 156.627 Q2175.95 159.289 2179.4 159.289 Q2182.8 159.289 2184.79 156.604 Q2186.79 153.918 2186.79 149.289 Q2186.79 144.682 2184.79 141.997 Q2182.8 139.289 2179.4 139.289 M2179.4 135.678 Q2184.96 135.678 2188.13 139.289 Q2191.3 142.9 2191.3 149.289 Q2191.3 155.655 2188.13 159.289 Q2184.96 162.9 2179.4 162.9 Q2173.82 162.9 2170.65 159.289 Q2167.5 155.655 2167.5 149.289 Q2167.5 142.9 2170.65 139.289 Q2173.82 135.678 2179.4 135.678 Z" fill="#000000" fill-rule="evenodd" fill-opacity="1" /><path clip-path="url(#clip690)" d="M2208.87 127.669 L2213.89 127.669 L2223.48 141.882 L2232.99 127.669 L2238.01 127.669 L2225.79 145.77 L2225.79 162.229 L2221.09 162.229 L2221.09 145.77 L2208.87 127.669 Z" fill="#000000" fill-rule="evenodd" fill-opacity="1" /><polyline clip-path="url(#clip690)" style="stroke:#ff0000; stroke-linecap:butt; stroke-linejoin:round; stroke-width:4; stroke-opacity:1; fill:none" points="
  1939.52,196.789 2077.22,196.789 
  "/>
<path clip-path="url(#clip690)" d="M2100.17 179.509 L2105.19 179.509 L2114.77 193.722 L2124.29 179.509 L2129.31 179.509 L2117.09 197.61 L2117.09 214.069 L2112.39 214.069 L2112.39 197.61 L2100.17 179.509 Z" fill="#000000" fill-rule="evenodd" fill-opacity="1" /><path clip-path="url(#clip690)" d="M2152.97 180.782 L2152.97 188.143 L2161.74 188.143 L2161.74 191.453 L2152.97 191.453 L2152.97 205.527 Q2152.97 208.698 2153.82 209.601 Q2154.7 210.504 2157.36 210.504 L2161.74 210.504 L2161.74 214.069 L2157.36 214.069 Q2152.43 214.069 2150.56 212.24 Q2148.68 210.388 2148.68 205.527 L2148.68 191.453 L2145.56 191.453 L2145.56 188.143 L2148.68 188.143 L2148.68 180.782 L2152.97 180.782 Z" fill="#000000" fill-rule="evenodd" fill-opacity="1" /><path clip-path="url(#clip690)" d="M2177.39 191.129 Q2173.96 191.129 2171.97 193.814 Q2169.98 196.476 2169.98 201.129 Q2169.98 205.782 2171.95 208.467 Q2173.94 211.129 2177.39 211.129 Q2180.79 211.129 2182.78 208.444 Q2184.77 205.758 2184.77 201.129 Q2184.77 196.522 2182.78 193.837 Q2180.79 191.129 2177.39 191.129 M2177.39 187.518 Q2182.94 187.518 2186.11 191.129 Q2189.29 194.74 2189.29 201.129 Q2189.29 207.495 2186.11 211.129 Q2182.94 214.74 2177.39 214.74 Q2171.81 214.74 2168.64 211.129 Q2165.49 207.495 2165.49 201.129 Q2165.49 194.74 2168.64 191.129 Q2171.81 187.518 2177.39 187.518 Z" fill="#000000" fill-rule="evenodd" fill-opacity="1" /><path clip-path="url(#clip690)" d="M2209.93 179.509 L2214.96 179.509 L2223.54 192.356 L2232.18 179.509 L2237.2 179.509 L2226.09 196.106 L2237.94 214.069 L2232.92 214.069 L2223.2 199.37 L2213.41 214.069 L2208.36 214.069 L2220.7 195.62 L2209.93 179.509 Z" fill="#000000" fill-rule="evenodd" fill-opacity="1" /></svg>
