<?xml version="1.0" encoding="utf-8"?>
<svg xmlns="http://www.w3.org/2000/svg" xmlns:xlink="http://www.w3.org/1999/xlink" width="600" height="400" viewBox="0 0 2400 1600">
<defs>
  <clipPath id="clip6500">
    <rect x="0" y="0" width="2400" height="1600"/>
  </clipPath>
</defs>
<path clip-path="url(#clip6500)" d="
M0 1600 L2400 1600 L2400 0 L0 0  Z
  " fill="#ffffff" fill-rule="evenodd" fill-opacity="1"/>
<defs>
  <clipPath id="clip6501">
    <rect x="480" y="0" width="1681" height="1600"/>
  </clipPath>
</defs>
<path clip-path="url(#clip6500)" d="
M215.754 1425.62 L2352.76 1425.62 L2352.76 47.2441 L215.754 47.2441  Z
  " fill="#ffffff" fill-rule="evenodd" fill-opacity="1"/>
<defs>
  <clipPath id="clip6502">
    <rect x="215" y="47" width="2138" height="1379"/>
  </clipPath>
</defs>
<polyline clip-path="url(#clip6502)" style="stroke:#000000; stroke-width:2; stroke-opacity:0.1; fill:none" points="
  256.075,1425.62 256.075,47.2441 
  "/>
<polyline clip-path="url(#clip6502)" style="stroke:#000000; stroke-width:2; stroke-opacity:0.1; fill:none" points="
  760.085,1425.62 760.085,47.2441 
  "/>
<polyline clip-path="url(#clip6502)" style="stroke:#000000; stroke-width:2; stroke-opacity:0.1; fill:none" points="
  1264.09,1425.62 1264.09,47.2441 
  "/>
<polyline clip-path="url(#clip6502)" style="stroke:#000000; stroke-width:2; stroke-opacity:0.1; fill:none" points="
  1768.1,1425.62 1768.1,47.2441 
  "/>
<polyline clip-path="url(#clip6502)" style="stroke:#000000; stroke-width:2; stroke-opacity:0.1; fill:none" points="
  2272.11,1425.62 2272.11,47.2441 
  "/>
<polyline clip-path="url(#clip6502)" style="stroke:#000000; stroke-width:2; stroke-opacity:0.1; fill:none" points="
  215.754,1221.95 2352.76,1221.95 
  "/>
<polyline clip-path="url(#clip6502)" style="stroke:#000000; stroke-width:2; stroke-opacity:0.1; fill:none" points="
  215.754,915.968 2352.76,915.968 
  "/>
<polyline clip-path="url(#clip6502)" style="stroke:#000000; stroke-width:2; stroke-opacity:0.1; fill:none" points="
  215.754,609.99 2352.76,609.99 
  "/>
<polyline clip-path="url(#clip6502)" style="stroke:#000000; stroke-width:2; stroke-opacity:0.1; fill:none" points="
  215.754,304.011 2352.76,304.011 
  "/>
<polyline clip-path="url(#clip6500)" style="stroke:#000000; stroke-width:4; stroke-opacity:1; fill:none" points="
  215.754,1425.62 2352.76,1425.62 
  "/>
<polyline clip-path="url(#clip6500)" style="stroke:#000000; stroke-width:4; stroke-opacity:1; fill:none" points="
  215.754,1425.62 215.754,47.2441 
  "/>
<polyline clip-path="url(#clip6500)" style="stroke:#000000; stroke-width:4; stroke-opacity:1; fill:none" points="
  256.075,1425.62 256.075,1404.94 
  "/>
<polyline clip-path="url(#clip6500)" style="stroke:#000000; stroke-width:4; stroke-opacity:1; fill:none" points="
  760.085,1425.62 760.085,1404.94 
  "/>
<polyline clip-path="url(#clip6500)" style="stroke:#000000; stroke-width:4; stroke-opacity:1; fill:none" points="
  1264.09,1425.62 1264.09,1404.94 
  "/>
<polyline clip-path="url(#clip6500)" style="stroke:#000000; stroke-width:4; stroke-opacity:1; fill:none" points="
  1768.1,1425.62 1768.1,1404.94 
  "/>
<polyline clip-path="url(#clip6500)" style="stroke:#000000; stroke-width:4; stroke-opacity:1; fill:none" points="
  2272.11,1425.62 2272.11,1404.94 
  "/>
<polyline clip-path="url(#clip6500)" style="stroke:#000000; stroke-width:4; stroke-opacity:1; fill:none" points="
  215.754,1221.95 247.809,1221.95 
  "/>
<polyline clip-path="url(#clip6500)" style="stroke:#000000; stroke-width:4; stroke-opacity:1; fill:none" points="
  215.754,915.968 247.809,915.968 
  "/>
<polyline clip-path="url(#clip6500)" style="stroke:#000000; stroke-width:4; stroke-opacity:1; fill:none" points="
  215.754,609.99 247.809,609.99 
  "/>
<polyline clip-path="url(#clip6500)" style="stroke:#000000; stroke-width:4; stroke-opacity:1; fill:none" points="
  215.754,304.011 247.809,304.011 
  "/>
<g clip-path="url(#clip6500)">
<text style="fill:#000000; fill-opacity:1; font-family:Arial,Helvetica Neue,Helvetica,sans-serif; font-size:48px; text-anchor:middle;" transform="rotate(0, 256.075, 1479.62)" x="256.075" y="1479.62">0</text>
</g>
<g clip-path="url(#clip6500)">
<text style="fill:#000000; fill-opacity:1; font-family:Arial,Helvetica Neue,Helvetica,sans-serif; font-size:48px; text-anchor:middle;" transform="rotate(0, 760.085, 1479.62)" x="760.085" y="1479.62">25</text>
</g>
<g clip-path="url(#clip6500)">
<text style="fill:#000000; fill-opacity:1; font-family:Arial,Helvetica Neue,Helvetica,sans-serif; font-size:48px; text-anchor:middle;" transform="rotate(0, 1264.09, 1479.62)" x="1264.09" y="1479.62">50</text>
</g>
<g clip-path="url(#clip6500)">
<text style="fill:#000000; fill-opacity:1; font-family:Arial,Helvetica Neue,Helvetica,sans-serif; font-size:48px; text-anchor:middle;" transform="rotate(0, 1768.1, 1479.62)" x="1768.1" y="1479.62">75</text>
</g>
<g clip-path="url(#clip6500)">
<text style="fill:#000000; fill-opacity:1; font-family:Arial,Helvetica Neue,Helvetica,sans-serif; font-size:48px; text-anchor:middle;" transform="rotate(0, 2272.11, 1479.62)" x="2272.11" y="1479.62">100</text>
</g>
<g clip-path="url(#clip6500)">
<text style="fill:#000000; fill-opacity:1; font-family:Arial,Helvetica Neue,Helvetica,sans-serif; font-size:48px; text-anchor:end;" transform="rotate(0, 191.754, 1239.45)" x="191.754" y="1239.45">0.2</text>
</g>
<g clip-path="url(#clip6500)">
<text style="fill:#000000; fill-opacity:1; font-family:Arial,Helvetica Neue,Helvetica,sans-serif; font-size:48px; text-anchor:end;" transform="rotate(0, 191.754, 933.468)" x="191.754" y="933.468">0.4</text>
</g>
<g clip-path="url(#clip6500)">
<text style="fill:#000000; fill-opacity:1; font-family:Arial,Helvetica Neue,Helvetica,sans-serif; font-size:48px; text-anchor:end;" transform="rotate(0, 191.754, 627.49)" x="191.754" y="627.49">0.6</text>
</g>
<g clip-path="url(#clip6500)">
<text style="fill:#000000; fill-opacity:1; font-family:Arial,Helvetica Neue,Helvetica,sans-serif; font-size:48px; text-anchor:end;" transform="rotate(0, 191.754, 321.511)" x="191.754" y="321.511">0.8</text>
</g>
<g clip-path="url(#clip6500)">
<text style="fill:#000000; fill-opacity:1; font-family:Arial,Helvetica Neue,Helvetica,sans-serif; font-size:66px; text-anchor:middle;" transform="rotate(0, 1284.25, 1559.48)" x="1284.25" y="1559.48">Time step</text>
</g>
<g clip-path="url(#clip6500)">
<text style="fill:#000000; fill-opacity:1; font-family:Arial,Helvetica Neue,Helvetica,sans-serif; font-size:66px; text-anchor:middle;" transform="rotate(-90, 89.2861, 736.431)" x="89.2861" y="736.431">Value</text>
</g>
<polyline clip-path="url(#clip6502)" style="stroke:#000000; stroke-width:4; stroke-opacity:1; fill:none" points="
  276.235,1386.61 296.396,1058.48 316.556,336.979 336.716,562.224 356.877,224.49 377.037,821.777 397.198,136.345 417.358,1067.47 437.518,349.878 457.679,536.33 
  477.839,250.967 498,755.237 518.16,128.217 538.32,1092 558.481,387.048 578.641,466.167 598.802,338.831 618.962,558.456 639.122,228.144 659.283,812.395 
  679.443,133.916 699.604,1074.77 719.764,360.634 739.924,515.346 760.085,274.776 780.245,698.266 800.406,138.092 820.566,1062.24 840.726,342.32 860.887,551.405 
  881.047,235.162 901.207,794.553 921.368,130.459 941.528,1085.2 961.689,376.46 981.849,485.479 1002.01,312.297 1022.17,613.989 1042.33,181.179 1062.49,937.856 
  1082.65,201.236 1102.81,882.984 1122.97,162.527 1143.13,990.61 1163.29,252.035 1183.45,752.624 1203.61,128.331 1223.77,1091.65 1243.93,386.507 1264.09,467.14 
  1284.25,337.452 1304.42,561.26 1324.58,225.419 1344.74,819.387 1364.9,135.686 1385.06,1069.45 1405.22,352.765 1425.38,530.643 1445.54,257.212 1465.7,740.032 
  1485.86,129.334 1506.02,1088.61 1526.18,381.743 1546.34,475.777 1566.5,325.405 1586.66,586.135 1606.82,202.891 1626.98,878.542 1647.14,160.023 1667.3,997.817 
  1687.46,260.008 1707.62,733.283 1727.78,130.184 1747.94,1086.03 1768.1,377.747 1788.26,483.105 1808.43,315.464 1828.59,607.184 1848.75,186.141 1868.91,924.103 
  1889.07,190.181 1909.23,912.99 1929.39,181.909 1949.55,935.823 1969.71,199.545 1989.87,887.536 2010.03,165.19 2030.19,982.976 2050.35,243.86 2070.51,772.769 
  2090.67,128.303 2110.83,1091.73 2130.99,386.637 2151.15,466.906 2171.31,337.783 2191.47,560.586 2211.63,226.071 2231.79,817.711 2251.95,135.241 2272.11,1070.78 
  2292.27,354.732 
  "/>
<polyline clip-path="url(#clip6502)" style="stroke:#ff0000; stroke-width:4; stroke-opacity:1; fill:none" points="
  276.235,426.584 296.396,364.857 316.556,476.585 336.716,288.122 356.877,641.659 377.037,122.272 397.198,1097.58 417.358,361.895 437.518,482.418 457.679,279.972 
  477.839,660.895 498,111.682 518.16,1131.3 538.32,420.296 558.481,375.38 578.641,456.209 598.802,317.904 618.962,574.144 639.122,173.873 659.283,941.202 
  679.443,164.275 699.604,969.295 719.764,190.896 739.924,892.491 760.085,127.336 780.245,1081.65 800.406,336.253 820.566,534.726 840.726,214.386 860.887,827.62 
  881.047,96.2988 901.207,1181.26 921.368,517.138 941.528,234.935 961.689,773.104 981.849,86.2547 1002.01,1214.51 1022.17,588.407 1042.33,161.1 1062.49,978.689 
  1082.65,200.665 1102.81,865.184 1122.97,111.743 1143.13,1131.1 1163.29,419.939 1183.45,375.984 1203.61,455.058 1223.77,319.649 1243.93,570.325 1264.09,177.463 
  1284.25,930.81 1304.42,155.413 1324.58,995.639 1344.74,219.392 1364.9,814.147 1385.06,92.454 1405.22,1193.93 1425.38,543.651 1445.54,204.543 1465.7,854.473 
  1485.86,106.631 1506.02,1147.57 1526.18,450.494 1546.34,326.625 1566.5,555.202 1586.66,192.385 1606.82,888.297 1626.98,124.702 1647.14,1089.92 1667.3,349.407 
  1687.46,507.488 1707.62,246.856 1727.78,742.43 1747.94,87.0425 1768.1,1211.88 1788.26,582.58 1808.43,166.197 1828.59,963.633 1848.75,185.217 1868.91,908.581 
  1889.07,138.244 1909.23,1047.77 1929.39,285.871 1949.55,646.938 1969.71,119.184 1989.87,1107.35 2010.03,378.247 2030.19,450.753 2050.35,326.227 2070.51,556.058 
  2090.67,191.511 2110.83,890.758 2130.99,126.237 2151.15,1085.1 2171.31,341.695 2191.47,523.353 2211.63,227.5 2231.79,792.59 2251.95,88.1627 2272.11,1208.15 
  2292.27,574.365 
  "/>
<path clip-path="url(#clip6500)" d="
M2016.69 312.204 L2280.76 312.204 L2280.76 130.764 L2016.69 130.764  Z
  " fill="#ffffff" fill-rule="evenodd" fill-opacity="1"/>
<polyline clip-path="url(#clip6500)" style="stroke:#000000; stroke-width:4; stroke-opacity:1; fill:none" points="
  2016.69,312.204 2280.76,312.204 2280.76,130.764 2016.69,130.764 2016.69,312.204 
  "/>
<polyline clip-path="url(#clip6500)" style="stroke:#000000; stroke-width:4; stroke-opacity:1; fill:none" points="
  2040.69,191.244 2184.69,191.244 
  "/>
<g clip-path="url(#clip6500)">
<text style="fill:#000000; fill-opacity:1; font-family:Arial,Helvetica Neue,Helvetica,sans-serif; font-size:48px; text-anchor:start;" transform="rotate(0, 2208.69, 208.744)" x="2208.69" y="208.744">x</text>
</g>
<polyline clip-path="url(#clip6500)" style="stroke:#ff0000; stroke-width:4; stroke-opacity:1; fill:none" points="
  2040.69,251.724 2184.69,251.724 
  "/>
<g clip-path="url(#clip6500)">
<text style="fill:#000000; fill-opacity:1; font-family:Arial,Helvetica Neue,Helvetica,sans-serif; font-size:48px; text-anchor:start;" transform="rotate(0, 2208.69, 269.224)" x="2208.69" y="269.224">y</text>
</g>
</svg>
