<?xml version="1.0" encoding="utf-8"?>
<svg xmlns="http://www.w3.org/2000/svg" xmlns:xlink="http://www.w3.org/1999/xlink" width="600" height="400" viewBox="0 0 2400 1600">
<defs>
  <clipPath id="clip6800">
    <rect x="0" y="0" width="2400" height="1600"/>
  </clipPath>
</defs>
<path clip-path="url(#clip6800)" d="
M0 1600 L2400 1600 L2400 0 L0 0  Z
  " fill="#ffffff" fill-rule="evenodd" fill-opacity="1"/>
<defs>
  <clipPath id="clip6801">
    <rect x="480" y="0" width="1681" height="1600"/>
  </clipPath>
</defs>
<path clip-path="url(#clip6800)" d="
M215.754 1425.62 L2352.76 1425.62 L2352.76 47.2441 L215.754 47.2441  Z
  " fill="#ffffff" fill-rule="evenodd" fill-opacity="1"/>
<defs>
  <clipPath id="clip6802">
    <rect x="215" y="47" width="2138" height="1379"/>
  </clipPath>
</defs>
<polyline clip-path="url(#clip6802)" style="stroke:#000000; stroke-width:2; stroke-opacity:0.1; fill:none" points="
  234.234,1425.62 234.234,47.2441 
  "/>
<polyline clip-path="url(#clip6802)" style="stroke:#000000; stroke-width:2; stroke-opacity:0.1; fill:none" points="
  654.243,1425.62 654.243,47.2441 
  "/>
<polyline clip-path="url(#clip6802)" style="stroke:#000000; stroke-width:2; stroke-opacity:0.1; fill:none" points="
  1074.25,1425.62 1074.25,47.2441 
  "/>
<polyline clip-path="url(#clip6802)" style="stroke:#000000; stroke-width:2; stroke-opacity:0.1; fill:none" points="
  1494.26,1425.62 1494.26,47.2441 
  "/>
<polyline clip-path="url(#clip6802)" style="stroke:#000000; stroke-width:2; stroke-opacity:0.1; fill:none" points="
  1914.27,1425.62 1914.27,47.2441 
  "/>
<polyline clip-path="url(#clip6802)" style="stroke:#000000; stroke-width:2; stroke-opacity:0.1; fill:none" points="
  2334.28,1425.62 2334.28,47.2441 
  "/>
<polyline clip-path="url(#clip6802)" style="stroke:#000000; stroke-width:2; stroke-opacity:0.1; fill:none" points="
  215.754,1386.61 2352.76,1386.61 
  "/>
<polyline clip-path="url(#clip6802)" style="stroke:#000000; stroke-width:2; stroke-opacity:0.1; fill:none" points="
  215.754,1092.61 2352.76,1092.61 
  "/>
<polyline clip-path="url(#clip6802)" style="stroke:#000000; stroke-width:2; stroke-opacity:0.1; fill:none" points="
  215.754,798.607 2352.76,798.607 
  "/>
<polyline clip-path="url(#clip6802)" style="stroke:#000000; stroke-width:2; stroke-opacity:0.1; fill:none" points="
  215.754,504.606 2352.76,504.606 
  "/>
<polyline clip-path="url(#clip6802)" style="stroke:#000000; stroke-width:2; stroke-opacity:0.1; fill:none" points="
  215.754,210.605 2352.76,210.605 
  "/>
<polyline clip-path="url(#clip6800)" style="stroke:#000000; stroke-width:4; stroke-opacity:1; fill:none" points="
  215.754,1425.62 2352.76,1425.62 
  "/>
<polyline clip-path="url(#clip6800)" style="stroke:#000000; stroke-width:4; stroke-opacity:1; fill:none" points="
  215.754,1425.62 215.754,47.2441 
  "/>
<polyline clip-path="url(#clip6800)" style="stroke:#000000; stroke-width:4; stroke-opacity:1; fill:none" points="
  234.234,1425.62 234.234,1404.94 
  "/>
<polyline clip-path="url(#clip6800)" style="stroke:#000000; stroke-width:4; stroke-opacity:1; fill:none" points="
  654.243,1425.62 654.243,1404.94 
  "/>
<polyline clip-path="url(#clip6800)" style="stroke:#000000; stroke-width:4; stroke-opacity:1; fill:none" points="
  1074.25,1425.62 1074.25,1404.94 
  "/>
<polyline clip-path="url(#clip6800)" style="stroke:#000000; stroke-width:4; stroke-opacity:1; fill:none" points="
  1494.26,1425.62 1494.26,1404.94 
  "/>
<polyline clip-path="url(#clip6800)" style="stroke:#000000; stroke-width:4; stroke-opacity:1; fill:none" points="
  1914.27,1425.62 1914.27,1404.94 
  "/>
<polyline clip-path="url(#clip6800)" style="stroke:#000000; stroke-width:4; stroke-opacity:1; fill:none" points="
  2334.28,1425.62 2334.28,1404.94 
  "/>
<polyline clip-path="url(#clip6800)" style="stroke:#000000; stroke-width:4; stroke-opacity:1; fill:none" points="
  215.754,1386.61 247.809,1386.61 
  "/>
<polyline clip-path="url(#clip6800)" style="stroke:#000000; stroke-width:4; stroke-opacity:1; fill:none" points="
  215.754,1092.61 247.809,1092.61 
  "/>
<polyline clip-path="url(#clip6800)" style="stroke:#000000; stroke-width:4; stroke-opacity:1; fill:none" points="
  215.754,798.607 247.809,798.607 
  "/>
<polyline clip-path="url(#clip6800)" style="stroke:#000000; stroke-width:4; stroke-opacity:1; fill:none" points="
  215.754,504.606 247.809,504.606 
  "/>
<polyline clip-path="url(#clip6800)" style="stroke:#000000; stroke-width:4; stroke-opacity:1; fill:none" points="
  215.754,210.605 247.809,210.605 
  "/>
<g clip-path="url(#clip6800)">
<text style="fill:#000000; fill-opacity:1; font-family:Arial,Helvetica Neue,Helvetica,sans-serif; font-size:48px; text-anchor:middle;" transform="rotate(0, 234.234, 1479.62)" x="234.234" y="1479.62">0</text>
</g>
<g clip-path="url(#clip6800)">
<text style="fill:#000000; fill-opacity:1; font-family:Arial,Helvetica Neue,Helvetica,sans-serif; font-size:48px; text-anchor:middle;" transform="rotate(0, 654.243, 1479.62)" x="654.243" y="1479.62">10</text>
</g>
<g clip-path="url(#clip6800)">
<text style="fill:#000000; fill-opacity:1; font-family:Arial,Helvetica Neue,Helvetica,sans-serif; font-size:48px; text-anchor:middle;" transform="rotate(0, 1074.25, 1479.62)" x="1074.25" y="1479.62">20</text>
</g>
<g clip-path="url(#clip6800)">
<text style="fill:#000000; fill-opacity:1; font-family:Arial,Helvetica Neue,Helvetica,sans-serif; font-size:48px; text-anchor:middle;" transform="rotate(0, 1494.26, 1479.62)" x="1494.26" y="1479.62">30</text>
</g>
<g clip-path="url(#clip6800)">
<text style="fill:#000000; fill-opacity:1; font-family:Arial,Helvetica Neue,Helvetica,sans-serif; font-size:48px; text-anchor:middle;" transform="rotate(0, 1914.27, 1479.62)" x="1914.27" y="1479.62">40</text>
</g>
<g clip-path="url(#clip6800)">
<text style="fill:#000000; fill-opacity:1; font-family:Arial,Helvetica Neue,Helvetica,sans-serif; font-size:48px; text-anchor:middle;" transform="rotate(0, 2334.28, 1479.62)" x="2334.28" y="1479.62">50</text>
</g>
<g clip-path="url(#clip6800)">
<text style="fill:#000000; fill-opacity:1; font-family:Arial,Helvetica Neue,Helvetica,sans-serif; font-size:48px; text-anchor:end;" transform="rotate(0, 191.754, 1404.11)" x="191.754" y="1404.11">0.0</text>
</g>
<g clip-path="url(#clip6800)">
<text style="fill:#000000; fill-opacity:1; font-family:Arial,Helvetica Neue,Helvetica,sans-serif; font-size:48px; text-anchor:end;" transform="rotate(0, 191.754, 1110.11)" x="191.754" y="1110.11">0.2</text>
</g>
<g clip-path="url(#clip6800)">
<text style="fill:#000000; fill-opacity:1; font-family:Arial,Helvetica Neue,Helvetica,sans-serif; font-size:48px; text-anchor:end;" transform="rotate(0, 191.754, 816.107)" x="191.754" y="816.107">0.4</text>
</g>
<g clip-path="url(#clip6800)">
<text style="fill:#000000; fill-opacity:1; font-family:Arial,Helvetica Neue,Helvetica,sans-serif; font-size:48px; text-anchor:end;" transform="rotate(0, 191.754, 522.106)" x="191.754" y="522.106">0.6</text>
</g>
<g clip-path="url(#clip6800)">
<text style="fill:#000000; fill-opacity:1; font-family:Arial,Helvetica Neue,Helvetica,sans-serif; font-size:48px; text-anchor:end;" transform="rotate(0, 191.754, 228.105)" x="191.754" y="228.105">0.8</text>
</g>
<g clip-path="url(#clip6800)">
<text style="fill:#000000; fill-opacity:1; font-family:Arial,Helvetica Neue,Helvetica,sans-serif; font-size:66px; text-anchor:middle;" transform="rotate(0, 1284.25, 1559.48)" x="1284.25" y="1559.48"># subdivisions along each axis</text>
</g>
<g clip-path="url(#clip6800)">
<text style="fill:#000000; fill-opacity:1; font-family:Arial,Helvetica Neue,Helvetica,sans-serif; font-size:66px; text-anchor:middle;" transform="rotate(-90, 89.2861, 736.431)" x="89.2861" y="736.431">Transfer entropy (bits)</text>
</g>
<polyline clip-path="url(#clip6802)" style="stroke:#000000; stroke-width:4; stroke-opacity:1; fill:none" points="
  276.235,1386.61 360.237,1313.21 444.239,1090.62 528.24,931.182 612.242,855.861 696.243,651.493 780.245,547.412 864.247,465.007 948.248,326.465 1032.25,264.46 
  1116.25,285.975 1200.25,198.974 1284.25,206.116 1368.26,135.614 1452.26,126.349 1536.26,119.187 1620.26,129.713 1704.26,86.2547 1788.26,229.548 1872.27,161.313 
  1956.27,168.964 2040.27,215.922 2124.27,231.137 2208.27,184.311 2292.27,155.841 
  "/>
<polyline clip-path="url(#clip6802)" style="stroke:#ff0000; stroke-width:4; stroke-opacity:1; fill:none" points="
  276.235,1386.61 360.237,1384.8 444.239,1242.73 528.24,1329.63 612.242,1271.05 696.243,1283.82 780.245,1209.16 864.247,1154.84 948.248,1158.7 1032.25,1030.45 
  1116.25,1069.8 1200.25,1010.48 1284.25,977.266 1368.26,987.069 1452.26,911.381 1536.26,878.592 1620.26,895.045 1704.26,949.365 1788.26,829.793 1872.27,784.954 
  1956.27,827.827 2040.27,812.026 2124.27,794.828 2208.27,829.538 2292.27,782.038 
  "/>
<path clip-path="url(#clip6800)" d="
M1816.07 312.204 L2280.76 312.204 L2280.76 130.764 L1816.07 130.764  Z
  " fill="#ffffff" fill-rule="evenodd" fill-opacity="1"/>
<polyline clip-path="url(#clip6800)" style="stroke:#000000; stroke-width:4; stroke-opacity:1; fill:none" points="
  1816.07,312.204 2280.76,312.204 2280.76,130.764 1816.07,130.764 1816.07,312.204 
  "/>
<polyline clip-path="url(#clip6800)" style="stroke:#000000; stroke-width:4; stroke-opacity:1; fill:none" points="
  1840.07,191.244 1984.07,191.244 
  "/>
<g clip-path="url(#clip6800)">
<text style="fill:#000000; fill-opacity:1; font-family:Arial,Helvetica Neue,Helvetica,sans-serif; font-size:48px; text-anchor:start;" transform="rotate(0, 2008.07, 208.744)" x="2008.07" y="208.744">TE(x -&gt; y)</text>
</g>
<polyline clip-path="url(#clip6800)" style="stroke:#ff0000; stroke-width:4; stroke-opacity:1; fill:none" points="
  1840.07,251.724 1984.07,251.724 
  "/>
<g clip-path="url(#clip6800)">
<text style="fill:#000000; fill-opacity:1; font-family:Arial,Helvetica Neue,Helvetica,sans-serif; font-size:48px; text-anchor:start;" transform="rotate(0, 2008.07, 269.224)" x="2008.07" y="269.224">TE(y -&gt; x)</text>
</g>
</svg>
