<?xml version="1.0" encoding="utf-8"?>
<svg xmlns="http://www.w3.org/2000/svg" xmlns:xlink="http://www.w3.org/1999/xlink" width="600" height="400" viewBox="0 0 2400 1600">
<defs>
  <clipPath id="clip6600">
    <rect x="0" y="0" width="2400" height="1600"/>
  </clipPath>
</defs>
<path clip-path="url(#clip6600)" d="
M0 1600 L2400 1600 L2400 0 L0 0  Z
  " fill="#ffffff" fill-rule="evenodd" fill-opacity="1"/>
<defs>
  <clipPath id="clip6601">
    <rect x="480" y="0" width="1681" height="1600"/>
  </clipPath>
</defs>
<path clip-path="url(#clip6600)" d="
M252.496 671.979 L2321.26 671.979 L2321.26 47.2441 L252.496 47.2441  Z
  " fill="#ffffff" fill-rule="evenodd" fill-opacity="1"/>
<defs>
  <clipPath id="clip6602">
    <rect x="252" y="47" width="2070" height="626"/>
  </clipPath>
</defs>
<polyline clip-path="url(#clip6602)" style="stroke:#000000; stroke-width:2; stroke-opacity:0.1; fill:none" points="
  291.332,671.979 291.332,47.2441 
  "/>
<polyline clip-path="url(#clip6602)" style="stroke:#000000; stroke-width:2; stroke-opacity:0.1; fill:none" points="
  784.177,671.979 784.177,47.2441 
  "/>
<polyline clip-path="url(#clip6602)" style="stroke:#000000; stroke-width:2; stroke-opacity:0.1; fill:none" points="
  1277.02,671.979 1277.02,47.2441 
  "/>
<polyline clip-path="url(#clip6602)" style="stroke:#000000; stroke-width:2; stroke-opacity:0.1; fill:none" points="
  1769.87,671.979 1769.87,47.2441 
  "/>
<polyline clip-path="url(#clip6602)" style="stroke:#000000; stroke-width:2; stroke-opacity:0.1; fill:none" points="
  2262.71,671.979 2262.71,47.2441 
  "/>
<polyline clip-path="url(#clip6602)" style="stroke:#000000; stroke-width:2; stroke-opacity:0.1; fill:none" points="
  252.496,586.559 2321.26,586.559 
  "/>
<polyline clip-path="url(#clip6602)" style="stroke:#000000; stroke-width:2; stroke-opacity:0.1; fill:none" points="
  252.496,474.003 2321.26,474.003 
  "/>
<polyline clip-path="url(#clip6602)" style="stroke:#000000; stroke-width:2; stroke-opacity:0.1; fill:none" points="
  252.496,361.446 2321.26,361.446 
  "/>
<polyline clip-path="url(#clip6602)" style="stroke:#000000; stroke-width:2; stroke-opacity:0.1; fill:none" points="
  252.496,248.889 2321.26,248.889 
  "/>
<polyline clip-path="url(#clip6602)" style="stroke:#000000; stroke-width:2; stroke-opacity:0.1; fill:none" points="
  252.496,136.332 2321.26,136.332 
  "/>
<polyline clip-path="url(#clip6600)" style="stroke:#000000; stroke-width:4; stroke-opacity:1; fill:none" points="
  252.496,671.979 2321.26,671.979 
  "/>
<polyline clip-path="url(#clip6600)" style="stroke:#000000; stroke-width:4; stroke-opacity:1; fill:none" points="
  252.496,671.979 252.496,47.2441 
  "/>
<polyline clip-path="url(#clip6600)" style="stroke:#000000; stroke-width:4; stroke-opacity:1; fill:none" points="
  291.332,671.979 291.332,662.608 
  "/>
<polyline clip-path="url(#clip6600)" style="stroke:#000000; stroke-width:4; stroke-opacity:1; fill:none" points="
  784.177,671.979 784.177,662.608 
  "/>
<polyline clip-path="url(#clip6600)" style="stroke:#000000; stroke-width:4; stroke-opacity:1; fill:none" points="
  1277.02,671.979 1277.02,662.608 
  "/>
<polyline clip-path="url(#clip6600)" style="stroke:#000000; stroke-width:4; stroke-opacity:1; fill:none" points="
  1769.87,671.979 1769.87,662.608 
  "/>
<polyline clip-path="url(#clip6600)" style="stroke:#000000; stroke-width:4; stroke-opacity:1; fill:none" points="
  2262.71,671.979 2262.71,662.608 
  "/>
<polyline clip-path="url(#clip6600)" style="stroke:#000000; stroke-width:4; stroke-opacity:1; fill:none" points="
  252.496,586.559 283.528,586.559 
  "/>
<polyline clip-path="url(#clip6600)" style="stroke:#000000; stroke-width:4; stroke-opacity:1; fill:none" points="
  252.496,474.003 283.528,474.003 
  "/>
<polyline clip-path="url(#clip6600)" style="stroke:#000000; stroke-width:4; stroke-opacity:1; fill:none" points="
  252.496,361.446 283.528,361.446 
  "/>
<polyline clip-path="url(#clip6600)" style="stroke:#000000; stroke-width:4; stroke-opacity:1; fill:none" points="
  252.496,248.889 283.528,248.889 
  "/>
<polyline clip-path="url(#clip6600)" style="stroke:#000000; stroke-width:4; stroke-opacity:1; fill:none" points="
  252.496,136.332 283.528,136.332 
  "/>
<g clip-path="url(#clip6600)">
<text style="fill:#000000; fill-opacity:1; font-family:Arial,Helvetica Neue,Helvetica,sans-serif; font-size:48px; text-anchor:middle;" transform="rotate(0, 291.332, 725.979)" x="291.332" y="725.979">0</text>
</g>
<g clip-path="url(#clip6600)">
<text style="fill:#000000; fill-opacity:1; font-family:Arial,Helvetica Neue,Helvetica,sans-serif; font-size:48px; text-anchor:middle;" transform="rotate(0, 784.177, 725.979)" x="784.177" y="725.979">25</text>
</g>
<g clip-path="url(#clip6600)">
<text style="fill:#000000; fill-opacity:1; font-family:Arial,Helvetica Neue,Helvetica,sans-serif; font-size:48px; text-anchor:middle;" transform="rotate(0, 1277.02, 725.979)" x="1277.02" y="725.979">50</text>
</g>
<g clip-path="url(#clip6600)">
<text style="fill:#000000; fill-opacity:1; font-family:Arial,Helvetica Neue,Helvetica,sans-serif; font-size:48px; text-anchor:middle;" transform="rotate(0, 1769.87, 725.979)" x="1769.87" y="725.979">75</text>
</g>
<g clip-path="url(#clip6600)">
<text style="fill:#000000; fill-opacity:1; font-family:Arial,Helvetica Neue,Helvetica,sans-serif; font-size:48px; text-anchor:middle;" transform="rotate(0, 2262.71, 725.979)" x="2262.71" y="725.979">100</text>
</g>
<g clip-path="url(#clip6600)">
<text style="fill:#000000; fill-opacity:1; font-family:Arial,Helvetica Neue,Helvetica,sans-serif; font-size:48px; text-anchor:end;" transform="rotate(0, 228.496, 604.059)" x="228.496" y="604.059">-1.0</text>
</g>
<g clip-path="url(#clip6600)">
<text style="fill:#000000; fill-opacity:1; font-family:Arial,Helvetica Neue,Helvetica,sans-serif; font-size:48px; text-anchor:end;" transform="rotate(0, 228.496, 491.503)" x="228.496" y="491.503">-0.5</text>
</g>
<g clip-path="url(#clip6600)">
<text style="fill:#000000; fill-opacity:1; font-family:Arial,Helvetica Neue,Helvetica,sans-serif; font-size:48px; text-anchor:end;" transform="rotate(0, 228.496, 378.946)" x="228.496" y="378.946">0.0</text>
</g>
<g clip-path="url(#clip6600)">
<text style="fill:#000000; fill-opacity:1; font-family:Arial,Helvetica Neue,Helvetica,sans-serif; font-size:48px; text-anchor:end;" transform="rotate(0, 228.496, 266.389)" x="228.496" y="266.389">0.5</text>
</g>
<g clip-path="url(#clip6600)">
<text style="fill:#000000; fill-opacity:1; font-family:Arial,Helvetica Neue,Helvetica,sans-serif; font-size:48px; text-anchor:end;" transform="rotate(0, 228.496, 153.832)" x="228.496" y="153.832">1.0</text>
</g>
<g clip-path="url(#clip6600)">
<text style="fill:#000000; fill-opacity:1; font-family:Arial,Helvetica Neue,Helvetica,sans-serif; font-size:66px; text-anchor:middle;" transform="rotate(-90, 57.6, 359.611)" x="57.6" y="359.611">Value</text>
</g>
<polyline clip-path="url(#clip6602)" style="stroke:#000000; stroke-width:4; stroke-opacity:1; fill:none" points="
  311.046,181.699 330.76,64.9253 350.474,233.04 370.187,132.235 389.901,288.601 409.615,273.361 429.329,399.567 449.043,418.682 468.756,377.167 488.47,595.84 
  508.184,485.301 527.898,606.159 547.611,609.939 567.325,519.842 587.039,643.392 606.753,454.975 626.467,517.623 646.18,430.075 665.894,472.427 685.608,283.664 
  705.322,305.186 725.035,222.311 744.749,143.853 764.463,180.124 784.177,167.933 803.891,162.945 823.604,74.4792 843.318,187.047 863.032,235.094 882.746,252.37 
  902.459,313.011 922.173,331.712 941.887,482.551 961.601,478.197 981.315,474.486 1001.03,535.275 1020.74,603.502 1040.46,575.407 1060.17,619.307 1079.88,527.39 
  1099.6,586.435 1119.31,412.783 1139.02,432.234 1158.74,443.363 1178.45,284.996 1198.17,252.314 1217.88,253.997 1237.59,202.322 1257.31,69.6607 1277.02,216.783 
  1296.73,134.998 1316.45,112.258 1336.16,217.937 1355.88,212.48 1375.59,255.561 1395.3,348.629 1415.02,322.29 1434.73,418.92 1454.45,503.712 1474.16,581.012 
  1493.87,570.822 1513.59,522.192 1533.3,552.327 1553.01,654.297 1572.73,512.14 1592.44,527.585 1612.16,520.216 1631.87,370.124 1651.58,403.04 1671.3,235.399 
  1691.01,279.454 1710.72,192.398 1730.44,171.551 1750.15,164.809 1769.87,144.246 1789.58,110.879 1809.29,245.626 1829.01,134.155 1848.72,235.969 1868.43,309.109 
  1888.15,322.82 1907.86,345.015 1927.58,463.831 1947.29,554.84 1967,461.527 1986.72,590.25 2006.43,626.417 2026.14,540.18 2045.86,595.106 2065.57,595.561 
  2085.29,477.696 2105,426.514 2124.71,391.891 2144.43,403.104 2164.14,326.544 2183.85,220.536 2203.57,178.956 2223.28,170.068 2243,134.96 2262.71,85.2337 
  
  "/>
<path clip-path="url(#clip6600)" d="
M1971.81 251.724 L2249.26 251.724 L2249.26 130.764 L1971.81 130.764  Z
  " fill="#ffffff" fill-rule="evenodd" fill-opacity="1"/>
<polyline clip-path="url(#clip6600)" style="stroke:#000000; stroke-width:4; stroke-opacity:1; fill:none" points="
  1971.81,251.724 2249.26,251.724 2249.26,130.764 1971.81,130.764 1971.81,251.724 
  "/>
<polyline clip-path="url(#clip6600)" style="stroke:#000000; stroke-width:4; stroke-opacity:1; fill:none" points="
  1995.81,191.244 2139.81,191.244 
  "/>
<g clip-path="url(#clip6600)">
<text style="fill:#000000; fill-opacity:1; font-family:Arial,Helvetica Neue,Helvetica,sans-serif; font-size:48px; text-anchor:start;" transform="rotate(0, 2163.81, 208.744)" x="2163.81" y="208.744">ts</text>
</g>
<path clip-path="url(#clip6600)" d="
M252.496 1440.48 L2321.26 1440.48 L2321.26 815.748 L252.496 815.748  Z
  " fill="#ffffff" fill-rule="evenodd" fill-opacity="1"/>
<defs>
  <clipPath id="clip6603">
    <rect x="252" y="815" width="2070" height="626"/>
  </clipPath>
</defs>
<polyline clip-path="url(#clip6603)" style="stroke:#000000; stroke-width:2; stroke-opacity:0.1; fill:none" points="
  291.332,1440.48 291.332,815.748 
  "/>
<polyline clip-path="url(#clip6603)" style="stroke:#000000; stroke-width:2; stroke-opacity:0.1; fill:none" points="
  784.177,1440.48 784.177,815.748 
  "/>
<polyline clip-path="url(#clip6603)" style="stroke:#000000; stroke-width:2; stroke-opacity:0.1; fill:none" points="
  1277.02,1440.48 1277.02,815.748 
  "/>
<polyline clip-path="url(#clip6603)" style="stroke:#000000; stroke-width:2; stroke-opacity:0.1; fill:none" points="
  1769.87,1440.48 1769.87,815.748 
  "/>
<polyline clip-path="url(#clip6603)" style="stroke:#000000; stroke-width:2; stroke-opacity:0.1; fill:none" points="
  2262.71,1440.48 2262.71,815.748 
  "/>
<polyline clip-path="url(#clip6603)" style="stroke:#000000; stroke-width:2; stroke-opacity:0.1; fill:none" points="
  252.496,1355.06 2321.26,1355.06 
  "/>
<polyline clip-path="url(#clip6603)" style="stroke:#000000; stroke-width:2; stroke-opacity:0.1; fill:none" points="
  252.496,1242.51 2321.26,1242.51 
  "/>
<polyline clip-path="url(#clip6603)" style="stroke:#000000; stroke-width:2; stroke-opacity:0.1; fill:none" points="
  252.496,1129.95 2321.26,1129.95 
  "/>
<polyline clip-path="url(#clip6603)" style="stroke:#000000; stroke-width:2; stroke-opacity:0.1; fill:none" points="
  252.496,1017.39 2321.26,1017.39 
  "/>
<polyline clip-path="url(#clip6603)" style="stroke:#000000; stroke-width:2; stroke-opacity:0.1; fill:none" points="
  252.496,904.836 2321.26,904.836 
  "/>
<polyline clip-path="url(#clip6600)" style="stroke:#000000; stroke-width:4; stroke-opacity:1; fill:none" points="
  252.496,1440.48 2321.26,1440.48 
  "/>
<polyline clip-path="url(#clip6600)" style="stroke:#000000; stroke-width:4; stroke-opacity:1; fill:none" points="
  252.496,1440.48 252.496,815.748 
  "/>
<polyline clip-path="url(#clip6600)" style="stroke:#000000; stroke-width:4; stroke-opacity:1; fill:none" points="
  291.332,1440.48 291.332,1431.11 
  "/>
<polyline clip-path="url(#clip6600)" style="stroke:#000000; stroke-width:4; stroke-opacity:1; fill:none" points="
  784.177,1440.48 784.177,1431.11 
  "/>
<polyline clip-path="url(#clip6600)" style="stroke:#000000; stroke-width:4; stroke-opacity:1; fill:none" points="
  1277.02,1440.48 1277.02,1431.11 
  "/>
<polyline clip-path="url(#clip6600)" style="stroke:#000000; stroke-width:4; stroke-opacity:1; fill:none" points="
  1769.87,1440.48 1769.87,1431.11 
  "/>
<polyline clip-path="url(#clip6600)" style="stroke:#000000; stroke-width:4; stroke-opacity:1; fill:none" points="
  2262.71,1440.48 2262.71,1431.11 
  "/>
<polyline clip-path="url(#clip6600)" style="stroke:#000000; stroke-width:4; stroke-opacity:1; fill:none" points="
  252.496,1355.06 283.528,1355.06 
  "/>
<polyline clip-path="url(#clip6600)" style="stroke:#000000; stroke-width:4; stroke-opacity:1; fill:none" points="
  252.496,1242.51 283.528,1242.51 
  "/>
<polyline clip-path="url(#clip6600)" style="stroke:#000000; stroke-width:4; stroke-opacity:1; fill:none" points="
  252.496,1129.95 283.528,1129.95 
  "/>
<polyline clip-path="url(#clip6600)" style="stroke:#000000; stroke-width:4; stroke-opacity:1; fill:none" points="
  252.496,1017.39 283.528,1017.39 
  "/>
<polyline clip-path="url(#clip6600)" style="stroke:#000000; stroke-width:4; stroke-opacity:1; fill:none" points="
  252.496,904.836 283.528,904.836 
  "/>
<g clip-path="url(#clip6600)">
<text style="fill:#000000; fill-opacity:1; font-family:Arial,Helvetica Neue,Helvetica,sans-serif; font-size:48px; text-anchor:middle;" transform="rotate(0, 291.332, 1494.48)" x="291.332" y="1494.48">0</text>
</g>
<g clip-path="url(#clip6600)">
<text style="fill:#000000; fill-opacity:1; font-family:Arial,Helvetica Neue,Helvetica,sans-serif; font-size:48px; text-anchor:middle;" transform="rotate(0, 784.177, 1494.48)" x="784.177" y="1494.48">25</text>
</g>
<g clip-path="url(#clip6600)">
<text style="fill:#000000; fill-opacity:1; font-family:Arial,Helvetica Neue,Helvetica,sans-serif; font-size:48px; text-anchor:middle;" transform="rotate(0, 1277.02, 1494.48)" x="1277.02" y="1494.48">50</text>
</g>
<g clip-path="url(#clip6600)">
<text style="fill:#000000; fill-opacity:1; font-family:Arial,Helvetica Neue,Helvetica,sans-serif; font-size:48px; text-anchor:middle;" transform="rotate(0, 1769.87, 1494.48)" x="1769.87" y="1494.48">75</text>
</g>
<g clip-path="url(#clip6600)">
<text style="fill:#000000; fill-opacity:1; font-family:Arial,Helvetica Neue,Helvetica,sans-serif; font-size:48px; text-anchor:middle;" transform="rotate(0, 2262.71, 1494.48)" x="2262.71" y="1494.48">100</text>
</g>
<g clip-path="url(#clip6600)">
<text style="fill:#000000; fill-opacity:1; font-family:Arial,Helvetica Neue,Helvetica,sans-serif; font-size:48px; text-anchor:end;" transform="rotate(0, 228.496, 1372.56)" x="228.496" y="1372.56">-1.0</text>
</g>
<g clip-path="url(#clip6600)">
<text style="fill:#000000; fill-opacity:1; font-family:Arial,Helvetica Neue,Helvetica,sans-serif; font-size:48px; text-anchor:end;" transform="rotate(0, 228.496, 1260.01)" x="228.496" y="1260.01">-0.5</text>
</g>
<g clip-path="url(#clip6600)">
<text style="fill:#000000; fill-opacity:1; font-family:Arial,Helvetica Neue,Helvetica,sans-serif; font-size:48px; text-anchor:end;" transform="rotate(0, 228.496, 1147.45)" x="228.496" y="1147.45">0.0</text>
</g>
<g clip-path="url(#clip6600)">
<text style="fill:#000000; fill-opacity:1; font-family:Arial,Helvetica Neue,Helvetica,sans-serif; font-size:48px; text-anchor:end;" transform="rotate(0, 228.496, 1034.89)" x="228.496" y="1034.89">0.5</text>
</g>
<g clip-path="url(#clip6600)">
<text style="fill:#000000; fill-opacity:1; font-family:Arial,Helvetica Neue,Helvetica,sans-serif; font-size:48px; text-anchor:end;" transform="rotate(0, 228.496, 922.336)" x="228.496" y="922.336">1.0</text>
</g>
<g clip-path="url(#clip6600)">
<text style="fill:#000000; fill-opacity:1; font-family:Arial,Helvetica Neue,Helvetica,sans-serif; font-size:66px; text-anchor:middle;" transform="rotate(0, 1286.88, 1590.4)" x="1286.88" y="1590.4">Time step</text>
</g>
<g clip-path="url(#clip6600)">
<text style="fill:#000000; fill-opacity:1; font-family:Arial,Helvetica Neue,Helvetica,sans-serif; font-size:66px; text-anchor:middle;" transform="rotate(-90, 57.6, 1128.12)" x="57.6" y="1128.12">Value</text>
</g>
<polyline clip-path="url(#clip6603)" style="stroke:#009af9; stroke-width:4; stroke-opacity:1; fill:none" points="
  311.046,960.902 330.76,1363.61 350.474,1320.83 370.187,1253.8 389.901,1223.48 409.615,1113.52 429.329,931.449 449.043,833.429 468.756,1288.35 488.47,947.46 
  508.184,1280.64 527.898,842.983 547.611,1160.39 567.325,1343.91 587.039,1358.75 606.753,880.762 626.467,1354.94 646.18,1242.99 665.894,1053.5 685.608,1411.9 
  705.322,900.739 725.035,1195.02 744.749,1349.52 764.463,1187.19 784.177,936.436 803.891,1081.51 823.604,1246.7 843.318,1052.17 863.032,1288.72 882.746,912.75 
  902.459,948.628 922.173,989.04 941.887,970.825 961.601,1378.44 981.315,1251.06 1001.03,1004.47 1020.74,1364.07 1040.46,1394.92 1060.17,1422.8 1079.88,1290.7 
  1099.6,986.441 1119.31,1323.34 1139.02,903.502 1158.74,879.383 1178.45,938.572 1198.17,980.984 1217.88,1295.89 1237.59,1117.13 1257.31,1022.5 1277.02,1187.42 
  1296.73,1024.06 1316.45,1001.54 1336.16,1047.96 1355.88,1387.81 1375.59,1303.78 1395.3,1240.93 1415.02,1014.13 1434.73,903.464 1454.45,1091.32 1474.16,1138.63 
  1493.87,1272.22 1513.59,1286.13 1533.3,1057.11 1553.01,1168.07 1572.73,1095.05 1592.44,1020.87 1612.16,1364.34 1631.87,838.165 1651.58,1230.03 1671.3,1145.67 
  1691.01,1003.6 1710.72,1308.68 1730.44,933.313 1750.15,1198.58 1769.87,1181.29 1789.58,912.357 1809.29,1211.87 1829.01,1171.54 1848.72,1374.66 1868.43,1100.22 
  1888.15,1246.2 1907.86,1372.01 1927.58,853.738 1947.29,1003.9 1967,955.551 1986.72,1232.33 2006.43,902.659 2026.14,1339.33 2045.86,990.814 2065.57,1090.79 
  2085.29,1171.61 2105,950.203 2124.71,940.055 2144.43,1041.86 2164.14,1296.09 2183.85,1077.61 2203.57,1073.69 2223.28,1020.82 2243,1200.74 2262.71,985.287 
  
  "/>
<path clip-path="url(#clip6600)" d="
M1634.78 1020.23 L2249.26 1020.23 L2249.26 899.268 L1634.78 899.268  Z
  " fill="#ffffff" fill-rule="evenodd" fill-opacity="1"/>
<polyline clip-path="url(#clip6600)" style="stroke:#000000; stroke-width:4; stroke-opacity:1; fill:none" points="
  1634.78,1020.23 2249.26,1020.23 2249.26,899.268 1634.78,899.268 1634.78,1020.23 
  "/>
<polyline clip-path="url(#clip6600)" style="stroke:#009af9; stroke-width:4; stroke-opacity:1; fill:none" points="
  1658.78,959.748 1802.78,959.748 
  "/>
<g clip-path="url(#clip6600)">
<text style="fill:#000000; fill-opacity:1; font-family:Arial,Helvetica Neue,Helvetica,sans-serif; font-size:48px; text-anchor:start;" transform="rotate(0, 1826.78, 977.248)" x="1826.78" y="977.248">randomshuffle(ts)</text>
</g>
</svg>
