<?xml version="1.0" encoding="utf-8"?>
<svg xmlns="http://www.w3.org/2000/svg" xmlns:xlink="http://www.w3.org/1999/xlink" width="600" height="400" viewBox="0 0 2400 1600">
<defs>
  <clipPath id="clip6000">
    <rect x="0" y="0" width="2400" height="1600"/>
  </clipPath>
</defs>
<path clip-path="url(#clip6000)" d="
M0 1600 L2400 1600 L2400 0 L0 0  Z
  " fill="#ffffff" fill-rule="evenodd" fill-opacity="1"/>
<defs>
  <clipPath id="clip6001">
    <rect x="480" y="0" width="1681" height="1600"/>
  </clipPath>
</defs>
<path clip-path="url(#clip6000)" d="
M252.496 671.979 L2321.26 671.979 L2321.26 47.2441 L252.496 47.2441  Z
  " fill="#ffffff" fill-rule="evenodd" fill-opacity="1"/>
<defs>
  <clipPath id="clip6002">
    <rect x="252" y="47" width="2070" height="626"/>
  </clipPath>
</defs>
<polyline clip-path="url(#clip6002)" style="stroke:#000000; stroke-width:2; stroke-opacity:0.1; fill:none" points="
  298.035,671.979 298.035,47.2441 
  "/>
<polyline clip-path="url(#clip6002)" style="stroke:#000000; stroke-width:2; stroke-opacity:0.1; fill:none" points="
  948.59,671.979 948.59,47.2441 
  "/>
<polyline clip-path="url(#clip6002)" style="stroke:#000000; stroke-width:2; stroke-opacity:0.1; fill:none" points="
  1599.14,671.979 1599.14,47.2441 
  "/>
<polyline clip-path="url(#clip6002)" style="stroke:#000000; stroke-width:2; stroke-opacity:0.1; fill:none" points="
  2249.7,671.979 2249.7,47.2441 
  "/>
<polyline clip-path="url(#clip6002)" style="stroke:#000000; stroke-width:2; stroke-opacity:0.1; fill:none" points="
  252.496,654.526 2321.26,654.526 
  "/>
<polyline clip-path="url(#clip6002)" style="stroke:#000000; stroke-width:2; stroke-opacity:0.1; fill:none" points="
  252.496,505.753 2321.26,505.753 
  "/>
<polyline clip-path="url(#clip6002)" style="stroke:#000000; stroke-width:2; stroke-opacity:0.1; fill:none" points="
  252.496,356.98 2321.26,356.98 
  "/>
<polyline clip-path="url(#clip6002)" style="stroke:#000000; stroke-width:2; stroke-opacity:0.1; fill:none" points="
  252.496,208.207 2321.26,208.207 
  "/>
<polyline clip-path="url(#clip6002)" style="stroke:#000000; stroke-width:2; stroke-opacity:0.1; fill:none" points="
  252.496,59.4339 2321.26,59.4339 
  "/>
<polyline clip-path="url(#clip6000)" style="stroke:#000000; stroke-width:4; stroke-opacity:1; fill:none" points="
  252.496,671.979 2321.26,671.979 
  "/>
<polyline clip-path="url(#clip6000)" style="stroke:#000000; stroke-width:4; stroke-opacity:1; fill:none" points="
  252.496,671.979 252.496,47.2441 
  "/>
<polyline clip-path="url(#clip6000)" style="stroke:#000000; stroke-width:4; stroke-opacity:1; fill:none" points="
  298.035,671.979 298.035,662.608 
  "/>
<polyline clip-path="url(#clip6000)" style="stroke:#000000; stroke-width:4; stroke-opacity:1; fill:none" points="
  948.59,671.979 948.59,662.608 
  "/>
<polyline clip-path="url(#clip6000)" style="stroke:#000000; stroke-width:4; stroke-opacity:1; fill:none" points="
  1599.14,671.979 1599.14,662.608 
  "/>
<polyline clip-path="url(#clip6000)" style="stroke:#000000; stroke-width:4; stroke-opacity:1; fill:none" points="
  2249.7,671.979 2249.7,662.608 
  "/>
<polyline clip-path="url(#clip6000)" style="stroke:#000000; stroke-width:4; stroke-opacity:1; fill:none" points="
  252.496,654.526 283.528,654.526 
  "/>
<polyline clip-path="url(#clip6000)" style="stroke:#000000; stroke-width:4; stroke-opacity:1; fill:none" points="
  252.496,505.753 283.528,505.753 
  "/>
<polyline clip-path="url(#clip6000)" style="stroke:#000000; stroke-width:4; stroke-opacity:1; fill:none" points="
  252.496,356.98 283.528,356.98 
  "/>
<polyline clip-path="url(#clip6000)" style="stroke:#000000; stroke-width:4; stroke-opacity:1; fill:none" points="
  252.496,208.207 283.528,208.207 
  "/>
<polyline clip-path="url(#clip6000)" style="stroke:#000000; stroke-width:4; stroke-opacity:1; fill:none" points="
  252.496,59.4339 283.528,59.4339 
  "/>
<g clip-path="url(#clip6000)">
<text style="fill:#000000; fill-opacity:1; font-family:Arial,Helvetica Neue,Helvetica,sans-serif; font-size:48px; text-anchor:middle;" transform="rotate(0, 298.035, 725.979)" x="298.035" y="725.979">0</text>
</g>
<g clip-path="url(#clip6000)">
<text style="fill:#000000; fill-opacity:1; font-family:Arial,Helvetica Neue,Helvetica,sans-serif; font-size:48px; text-anchor:middle;" transform="rotate(0, 948.59, 725.979)" x="948.59" y="725.979">50</text>
</g>
<g clip-path="url(#clip6000)">
<text style="fill:#000000; fill-opacity:1; font-family:Arial,Helvetica Neue,Helvetica,sans-serif; font-size:48px; text-anchor:middle;" transform="rotate(0, 1599.14, 725.979)" x="1599.14" y="725.979">100</text>
</g>
<g clip-path="url(#clip6000)">
<text style="fill:#000000; fill-opacity:1; font-family:Arial,Helvetica Neue,Helvetica,sans-serif; font-size:48px; text-anchor:middle;" transform="rotate(0, 2249.7, 725.979)" x="2249.7" y="725.979">150</text>
</g>
<g clip-path="url(#clip6000)">
<text style="fill:#000000; fill-opacity:1; font-family:Arial,Helvetica Neue,Helvetica,sans-serif; font-size:48px; text-anchor:end;" transform="rotate(0, 228.496, 672.026)" x="228.496" y="672.026">-1.0</text>
</g>
<g clip-path="url(#clip6000)">
<text style="fill:#000000; fill-opacity:1; font-family:Arial,Helvetica Neue,Helvetica,sans-serif; font-size:48px; text-anchor:end;" transform="rotate(0, 228.496, 523.253)" x="228.496" y="523.253">-0.5</text>
</g>
<g clip-path="url(#clip6000)">
<text style="fill:#000000; fill-opacity:1; font-family:Arial,Helvetica Neue,Helvetica,sans-serif; font-size:48px; text-anchor:end;" transform="rotate(0, 228.496, 374.48)" x="228.496" y="374.48">0.0</text>
</g>
<g clip-path="url(#clip6000)">
<text style="fill:#000000; fill-opacity:1; font-family:Arial,Helvetica Neue,Helvetica,sans-serif; font-size:48px; text-anchor:end;" transform="rotate(0, 228.496, 225.707)" x="228.496" y="225.707">0.5</text>
</g>
<g clip-path="url(#clip6000)">
<text style="fill:#000000; fill-opacity:1; font-family:Arial,Helvetica Neue,Helvetica,sans-serif; font-size:48px; text-anchor:end;" transform="rotate(0, 228.496, 76.9339)" x="228.496" y="76.9339">1.0</text>
</g>
<g clip-path="url(#clip6000)">
<text style="fill:#000000; fill-opacity:1; font-family:Arial,Helvetica Neue,Helvetica,sans-serif; font-size:66px; text-anchor:middle;" transform="rotate(-90, 57.6, 359.611)" x="57.6" y="359.611">Value</text>
</g>
<polyline clip-path="url(#clip6002)" style="stroke:#000000; stroke-width:4; stroke-opacity:1; fill:none" points="
  311.046,198.272 324.057,64.9253 337.068,374.96 350.079,423.677 363.091,620.831 376.102,546.68 389.113,650.962 402.124,654.043 415.135,546.838 428.146,533.907 
  441.157,548.425 454.168,567.705 467.179,499.81 480.19,611.292 493.201,445.334 506.213,499.18 519.224,496.091 532.235,482.221 545.246,378.838 558.257,436.094 
  571.268,389.973 584.279,491.649 597.29,419.763 610.301,654.297 623.312,538.21 636.323,454.285 649.335,566.949 662.346,508.917 675.357,535.311 688.368,602.415 
  701.379,623.189 714.39,431.982 727.401,366.096 740.412,392.611 753.423,491.608 766.434,441.162 779.445,435.513 792.457,386.314 805.468,474.57 818.479,603.434 
  831.49,651.867 844.501,518.096 857.512,608.902 870.523,378.141 883.534,432.802 896.545,378.707 909.556,438.405 922.567,475.159 935.579,424.944 948.59,391.368 
  961.601,506.187 974.612,588.573 987.623,520.173 1000.63,478.414 1013.65,439.3 1026.66,457.736 1039.67,517.211 1052.68,364.531 1065.69,380.468 1078.7,457.655 
  1091.71,584.478 1104.72,363.285 1117.73,383.029 1130.74,470.973 1143.76,392.47 1156.77,512.356 1169.78,636.026 1182.79,438.679 1195.8,476.18 1208.81,412.285 
  1221.82,588.644 1234.83,596.472 1247.84,575.707 1260.86,596.547 1273.87,602.403 1286.88,370.73 1299.89,414.322 1312.9,620.792 1325.91,411.564 1338.92,562.698 
  1351.93,535.992 1364.94,542.905 1377.96,494.779 1390.97,542.429 1403.98,558.1 1416.99,628.4 1430,581.36 1443.01,560.622 1456.02,427.777 1469.03,641.48 
  1482.04,476.642 1495.06,383.768 1508.07,447.864 1521.08,529.249 1534.09,517.046 1547.1,637.205 1560.11,523.093 1573.12,400.779 1586.13,517.351 1599.14,432.171 
  1612.16,396.301 1625.17,495.849 1638.18,575.002 1651.19,377.926 1664.2,443.108 1677.21,450.348 1690.22,466.563 1703.23,621.979 1716.24,632.277 1729.26,648.784 
  1742.27,409.248 1755.28,555.154 1768.29,446.66 1781.3,463.901 1794.31,558.3 1807.32,394.865 1820.33,492.779 1833.34,533.472 1846.35,490.947 1859.37,410.666 
  1872.38,607.478 1885.39,641.104 1898.4,555.858 1911.41,402.75 1924.42,569.475 1937.43,613.725 1950.44,425.226 1963.45,643.693 1976.47,614.772 1989.48,607.729 
  2002.49,520.903 2015.5,375.745 2028.51,419.587 2041.52,641.879 2054.53,565.966 2067.54,498.012 2080.55,595.13 2093.57,588.465 2106.58,510.162 2119.59,382.112 
  2132.6,456.716 2145.61,499.397 2158.62,583.077 2171.63,651.022 2184.64,611.009 2197.65,445.954 2210.67,510.33 2223.68,610.325 2236.69,503.636 2249.7,636.064 
  2262.71,391.413 
  "/>
<path clip-path="url(#clip6000)" d="
M1985.19 251.724 L2249.26 251.724 L2249.26 130.764 L1985.19 130.764  Z
  " fill="#ffffff" fill-rule="evenodd" fill-opacity="1"/>
<polyline clip-path="url(#clip6000)" style="stroke:#000000; stroke-width:4; stroke-opacity:1; fill:none" points="
  1985.19,251.724 2249.26,251.724 2249.26,130.764 1985.19,130.764 1985.19,251.724 
  "/>
<polyline clip-path="url(#clip6000)" style="stroke:#000000; stroke-width:4; stroke-opacity:1; fill:none" points="
  2009.19,191.244 2153.19,191.244 
  "/>
<g clip-path="url(#clip6000)">
<text style="fill:#000000; fill-opacity:1; font-family:Arial,Helvetica Neue,Helvetica,sans-serif; font-size:48px; text-anchor:start;" transform="rotate(0, 2177.19, 208.744)" x="2177.19" y="208.744">x</text>
</g>
<path clip-path="url(#clip6000)" d="
M252.496 1440.48 L2321.26 1440.48 L2321.26 815.748 L252.496 815.748  Z
  " fill="#ffffff" fill-rule="evenodd" fill-opacity="1"/>
<defs>
  <clipPath id="clip6003">
    <rect x="252" y="815" width="2070" height="626"/>
  </clipPath>
</defs>
<polyline clip-path="url(#clip6003)" style="stroke:#000000; stroke-width:2; stroke-opacity:0.1; fill:none" points="
  298.035,1440.48 298.035,815.748 
  "/>
<polyline clip-path="url(#clip6003)" style="stroke:#000000; stroke-width:2; stroke-opacity:0.1; fill:none" points="
  948.59,1440.48 948.59,815.748 
  "/>
<polyline clip-path="url(#clip6003)" style="stroke:#000000; stroke-width:2; stroke-opacity:0.1; fill:none" points="
  1599.14,1440.48 1599.14,815.748 
  "/>
<polyline clip-path="url(#clip6003)" style="stroke:#000000; stroke-width:2; stroke-opacity:0.1; fill:none" points="
  2249.7,1440.48 2249.7,815.748 
  "/>
<polyline clip-path="url(#clip6003)" style="stroke:#000000; stroke-width:2; stroke-opacity:0.1; fill:none" points="
  252.496,1405.75 2321.26,1405.75 
  "/>
<polyline clip-path="url(#clip6003)" style="stroke:#000000; stroke-width:2; stroke-opacity:0.1; fill:none" points="
  252.496,1314.22 2321.26,1314.22 
  "/>
<polyline clip-path="url(#clip6003)" style="stroke:#000000; stroke-width:2; stroke-opacity:0.1; fill:none" points="
  252.496,1222.7 2321.26,1222.7 
  "/>
<polyline clip-path="url(#clip6003)" style="stroke:#000000; stroke-width:2; stroke-opacity:0.1; fill:none" points="
  252.496,1131.17 2321.26,1131.17 
  "/>
<polyline clip-path="url(#clip6003)" style="stroke:#000000; stroke-width:2; stroke-opacity:0.1; fill:none" points="
  252.496,1039.64 2321.26,1039.64 
  "/>
<polyline clip-path="url(#clip6003)" style="stroke:#000000; stroke-width:2; stroke-opacity:0.1; fill:none" points="
  252.496,948.119 2321.26,948.119 
  "/>
<polyline clip-path="url(#clip6003)" style="stroke:#000000; stroke-width:2; stroke-opacity:0.1; fill:none" points="
  252.496,856.593 2321.26,856.593 
  "/>
<polyline clip-path="url(#clip6000)" style="stroke:#000000; stroke-width:4; stroke-opacity:1; fill:none" points="
  252.496,1440.48 2321.26,1440.48 
  "/>
<polyline clip-path="url(#clip6000)" style="stroke:#000000; stroke-width:4; stroke-opacity:1; fill:none" points="
  252.496,1440.48 252.496,815.748 
  "/>
<polyline clip-path="url(#clip6000)" style="stroke:#000000; stroke-width:4; stroke-opacity:1; fill:none" points="
  298.035,1440.48 298.035,1431.11 
  "/>
<polyline clip-path="url(#clip6000)" style="stroke:#000000; stroke-width:4; stroke-opacity:1; fill:none" points="
  948.59,1440.48 948.59,1431.11 
  "/>
<polyline clip-path="url(#clip6000)" style="stroke:#000000; stroke-width:4; stroke-opacity:1; fill:none" points="
  1599.14,1440.48 1599.14,1431.11 
  "/>
<polyline clip-path="url(#clip6000)" style="stroke:#000000; stroke-width:4; stroke-opacity:1; fill:none" points="
  2249.7,1440.48 2249.7,1431.11 
  "/>
<polyline clip-path="url(#clip6000)" style="stroke:#000000; stroke-width:4; stroke-opacity:1; fill:none" points="
  252.496,1405.75 283.528,1405.75 
  "/>
<polyline clip-path="url(#clip6000)" style="stroke:#000000; stroke-width:4; stroke-opacity:1; fill:none" points="
  252.496,1314.22 283.528,1314.22 
  "/>
<polyline clip-path="url(#clip6000)" style="stroke:#000000; stroke-width:4; stroke-opacity:1; fill:none" points="
  252.496,1222.7 283.528,1222.7 
  "/>
<polyline clip-path="url(#clip6000)" style="stroke:#000000; stroke-width:4; stroke-opacity:1; fill:none" points="
  252.496,1131.17 283.528,1131.17 
  "/>
<polyline clip-path="url(#clip6000)" style="stroke:#000000; stroke-width:4; stroke-opacity:1; fill:none" points="
  252.496,1039.64 283.528,1039.64 
  "/>
<polyline clip-path="url(#clip6000)" style="stroke:#000000; stroke-width:4; stroke-opacity:1; fill:none" points="
  252.496,948.119 283.528,948.119 
  "/>
<polyline clip-path="url(#clip6000)" style="stroke:#000000; stroke-width:4; stroke-opacity:1; fill:none" points="
  252.496,856.593 283.528,856.593 
  "/>
<g clip-path="url(#clip6000)">
<text style="fill:#000000; fill-opacity:1; font-family:Arial,Helvetica Neue,Helvetica,sans-serif; font-size:48px; text-anchor:middle;" transform="rotate(0, 298.035, 1494.48)" x="298.035" y="1494.48">0</text>
</g>
<g clip-path="url(#clip6000)">
<text style="fill:#000000; fill-opacity:1; font-family:Arial,Helvetica Neue,Helvetica,sans-serif; font-size:48px; text-anchor:middle;" transform="rotate(0, 948.59, 1494.48)" x="948.59" y="1494.48">50</text>
</g>
<g clip-path="url(#clip6000)">
<text style="fill:#000000; fill-opacity:1; font-family:Arial,Helvetica Neue,Helvetica,sans-serif; font-size:48px; text-anchor:middle;" transform="rotate(0, 1599.14, 1494.48)" x="1599.14" y="1494.48">100</text>
</g>
<g clip-path="url(#clip6000)">
<text style="fill:#000000; fill-opacity:1; font-family:Arial,Helvetica Neue,Helvetica,sans-serif; font-size:48px; text-anchor:middle;" transform="rotate(0, 2249.7, 1494.48)" x="2249.7" y="1494.48">150</text>
</g>
<g clip-path="url(#clip6000)">
<text style="fill:#000000; fill-opacity:1; font-family:Arial,Helvetica Neue,Helvetica,sans-serif; font-size:48px; text-anchor:end;" transform="rotate(0, 228.496, 1423.25)" x="228.496" y="1423.25">-4</text>
</g>
<g clip-path="url(#clip6000)">
<text style="fill:#000000; fill-opacity:1; font-family:Arial,Helvetica Neue,Helvetica,sans-serif; font-size:48px; text-anchor:end;" transform="rotate(0, 228.496, 1331.72)" x="228.496" y="1331.72">-3</text>
</g>
<g clip-path="url(#clip6000)">
<text style="fill:#000000; fill-opacity:1; font-family:Arial,Helvetica Neue,Helvetica,sans-serif; font-size:48px; text-anchor:end;" transform="rotate(0, 228.496, 1240.2)" x="228.496" y="1240.2">-2</text>
</g>
<g clip-path="url(#clip6000)">
<text style="fill:#000000; fill-opacity:1; font-family:Arial,Helvetica Neue,Helvetica,sans-serif; font-size:48px; text-anchor:end;" transform="rotate(0, 228.496, 1148.67)" x="228.496" y="1148.67">-1</text>
</g>
<g clip-path="url(#clip6000)">
<text style="fill:#000000; fill-opacity:1; font-family:Arial,Helvetica Neue,Helvetica,sans-serif; font-size:48px; text-anchor:end;" transform="rotate(0, 228.496, 1057.14)" x="228.496" y="1057.14">0</text>
</g>
<g clip-path="url(#clip6000)">
<text style="fill:#000000; fill-opacity:1; font-family:Arial,Helvetica Neue,Helvetica,sans-serif; font-size:48px; text-anchor:end;" transform="rotate(0, 228.496, 965.619)" x="228.496" y="965.619">1</text>
</g>
<g clip-path="url(#clip6000)">
<text style="fill:#000000; fill-opacity:1; font-family:Arial,Helvetica Neue,Helvetica,sans-serif; font-size:48px; text-anchor:end;" transform="rotate(0, 228.496, 874.093)" x="228.496" y="874.093">2</text>
</g>
<g clip-path="url(#clip6000)">
<text style="fill:#000000; fill-opacity:1; font-family:Arial,Helvetica Neue,Helvetica,sans-serif; font-size:66px; text-anchor:middle;" transform="rotate(0, 1286.88, 1590.4)" x="1286.88" y="1590.4">Time step</text>
</g>
<g clip-path="url(#clip6000)">
<text style="fill:#000000; fill-opacity:1; font-family:Arial,Helvetica Neue,Helvetica,sans-serif; font-size:66px; text-anchor:middle;" transform="rotate(-90, 57.6, 1128.12)" x="57.6" y="1128.12">Value</text>
</g>
<polyline clip-path="url(#clip6003)" style="stroke:#009af9; stroke-width:4; stroke-opacity:1; fill:none" points="
  311.046,994.827 324.057,833.429 337.068,1128.19 350.079,1192.14 363.091,1381.11 376.102,1237.82 389.113,1374.12 402.124,1420.42 415.135,1294.5 428.146,1258.5 
  441.157,1285.91 454.168,1285.91 467.179,1217.46 480.19,1367.06 493.201,1199.72 506.213,1260.84 519.224,1265.77 532.235,1232.17 545.246,1135.01 558.257,1197.09 
  571.268,1112.28 584.279,1213.24 597.29,1154.28 610.301,1342.69 623.312,1218.53 636.323,1135.42 649.335,1210.43 662.346,1184.81 675.357,1273.59 688.368,1368.74 
  701.379,1406.79 714.39,1251.08 727.401,1153.24 740.412,1118.27 753.423,1222.45 766.434,1154.37 779.445,1202.79 792.457,1095.54 805.468,1127.69 818.479,1289.62 
  831.49,1393.93 844.501,1229.23 857.512,1290.48 870.523,1051.43 883.534,1132.82 896.545,1186.83 909.556,1234.97 922.567,1277.93 935.579,1221.68 948.59,1219.62 
  961.601,1194.52 974.612,1343.37 987.623,1235.16 1000.63,1179.95 1013.65,1099.83 1026.66,1207.48 1039.67,1246 1052.68,1095.83 1065.69,1120.17 1078.7,1214.66 
  1091.71,1312.16 1104.72,1158.32 1117.73,1142.73 1130.74,1205.74 1143.76,1164.18 1156.77,1264.64 1169.78,1353.66 1182.79,1185.01 1195.8,1240.04 1208.81,1142.34 
  1221.82,1284.84 1234.83,1320.74 1247.84,1330.22 1260.86,1321.41 1273.87,1276.24 1286.88,1094.05 1299.89,1155.95 1312.9,1302.77 1325.91,1144.98 1338.92,1294.15 
  1351.93,1264.99 1364.94,1244.9 1377.96,1234.38 1390.97,1282.63 1403.98,1373.62 1416.99,1369.03 1430,1274.31 1443.01,1294.32 1456.02,1197.58 1469.03,1335.37 
  1482.04,1201.95 1495.06,1158.3 1508.07,1210.52 1521.08,1294.64 1534.09,1322.42 1547.1,1407.65 1560.11,1271.87 1573.12,1088.59 1586.13,1159.47 1599.14,1125.37 
  1612.16,1212.38 1625.17,1218.83 1638.18,1320.13 1651.19,1254.72 1664.2,1311.13 1677.21,1242.57 1690.22,1259.13 1703.23,1323.87 1716.24,1336.06 1729.26,1422.8 
  1742.27,1178.39 1755.28,1329.39 1768.29,1178.39 1781.3,1186.34 1794.31,1272.67 1807.32,1185.74 1820.33,1239.23 1833.34,1247.87 1846.35,1239.31 1859.37,1179.95 
  1872.38,1352.82 1885.39,1371.88 1898.4,1324.78 1911.41,1198.25 1924.42,1308.42 1937.43,1337.78 1950.44,1191.62 1963.45,1405.49 1976.47,1353.63 1989.48,1303.63 
  2002.49,1207.81 2015.5,1085.42 2028.51,1175.76 2041.52,1362.96 2054.53,1289.14 2067.54,1248.77 2080.55,1367.22 2093.57,1316.33 2106.58,1317.6 2119.59,1161.75 
  2132.6,1203.57 2145.61,1257.63 2158.62,1376.42 2171.63,1379.41 2184.64,1307.49 2197.65,1143.89 2210.67,1183.47 2223.68,1370.48 2236.69,1327.61 2249.7,1416.49 
  2262.71,1147.56 
  "/>
<path clip-path="url(#clip6000)" d="
M1557.24 1020.23 L2249.26 1020.23 L2249.26 899.268 L1557.24 899.268  Z
  " fill="#ffffff" fill-rule="evenodd" fill-opacity="1"/>
<polyline clip-path="url(#clip6000)" style="stroke:#000000; stroke-width:4; stroke-opacity:1; fill:none" points="
  1557.24,1020.23 2249.26,1020.23 2249.26,899.268 1557.24,899.268 1557.24,1020.23 
  "/>
<polyline clip-path="url(#clip6000)" style="stroke:#009af9; stroke-width:4; stroke-opacity:1; fill:none" points="
  1581.24,959.748 1725.24,959.748 
  "/>
<g clip-path="url(#clip6000)">
<text style="fill:#000000; fill-opacity:1; font-family:Arial,Helvetica Neue,Helvetica,sans-serif; font-size:48px; text-anchor:start;" transform="rotate(0, 1749.24, 977.248)" x="1749.24" y="977.248">randomamplitudes(x)</text>
</g>
</svg>
