<?xml version="1.0" encoding="utf-8"?>
<svg xmlns="http://www.w3.org/2000/svg" xmlns:xlink="http://www.w3.org/1999/xlink" width="600" height="400" viewBox="0 0 2400 1600">
<defs>
  <clipPath id="clip6300">
    <rect x="0" y="0" width="2400" height="1600"/>
  </clipPath>
</defs>
<path clip-path="url(#clip6300)" d="
M0 1600 L2400 1600 L2400 0 L0 0  Z
  " fill="#ffffff" fill-rule="evenodd" fill-opacity="1"/>
<defs>
  <clipPath id="clip6301">
    <rect x="480" y="0" width="1681" height="1600"/>
  </clipPath>
</defs>
<path clip-path="url(#clip6300)" d="
M252.496 671.979 L2321.26 671.979 L2321.26 47.2441 L252.496 47.2441  Z
  " fill="#ffffff" fill-rule="evenodd" fill-opacity="1"/>
<defs>
  <clipPath id="clip6302">
    <rect x="252" y="47" width="2070" height="626"/>
  </clipPath>
</defs>
<polyline clip-path="url(#clip6302)" style="stroke:#000000; stroke-width:2; stroke-opacity:0.1; fill:none" points="
  298.035,671.979 298.035,47.2441 
  "/>
<polyline clip-path="url(#clip6302)" style="stroke:#000000; stroke-width:2; stroke-opacity:0.1; fill:none" points="
  948.59,671.979 948.59,47.2441 
  "/>
<polyline clip-path="url(#clip6302)" style="stroke:#000000; stroke-width:2; stroke-opacity:0.1; fill:none" points="
  1599.14,671.979 1599.14,47.2441 
  "/>
<polyline clip-path="url(#clip6302)" style="stroke:#000000; stroke-width:2; stroke-opacity:0.1; fill:none" points="
  2249.7,671.979 2249.7,47.2441 
  "/>
<polyline clip-path="url(#clip6302)" style="stroke:#000000; stroke-width:2; stroke-opacity:0.1; fill:none" points="
  252.496,654.911 2321.26,654.911 
  "/>
<polyline clip-path="url(#clip6302)" style="stroke:#000000; stroke-width:2; stroke-opacity:0.1; fill:none" points="
  252.496,502.264 2321.26,502.264 
  "/>
<polyline clip-path="url(#clip6302)" style="stroke:#000000; stroke-width:2; stroke-opacity:0.1; fill:none" points="
  252.496,349.618 2321.26,349.618 
  "/>
<polyline clip-path="url(#clip6302)" style="stroke:#000000; stroke-width:2; stroke-opacity:0.1; fill:none" points="
  252.496,196.971 2321.26,196.971 
  "/>
<polyline clip-path="url(#clip6300)" style="stroke:#000000; stroke-width:4; stroke-opacity:1; fill:none" points="
  252.496,671.979 2321.26,671.979 
  "/>
<polyline clip-path="url(#clip6300)" style="stroke:#000000; stroke-width:4; stroke-opacity:1; fill:none" points="
  252.496,671.979 252.496,47.2441 
  "/>
<polyline clip-path="url(#clip6300)" style="stroke:#000000; stroke-width:4; stroke-opacity:1; fill:none" points="
  298.035,671.979 298.035,662.608 
  "/>
<polyline clip-path="url(#clip6300)" style="stroke:#000000; stroke-width:4; stroke-opacity:1; fill:none" points="
  948.59,671.979 948.59,662.608 
  "/>
<polyline clip-path="url(#clip6300)" style="stroke:#000000; stroke-width:4; stroke-opacity:1; fill:none" points="
  1599.14,671.979 1599.14,662.608 
  "/>
<polyline clip-path="url(#clip6300)" style="stroke:#000000; stroke-width:4; stroke-opacity:1; fill:none" points="
  2249.7,671.979 2249.7,662.608 
  "/>
<polyline clip-path="url(#clip6300)" style="stroke:#000000; stroke-width:4; stroke-opacity:1; fill:none" points="
  252.496,654.911 283.528,654.911 
  "/>
<polyline clip-path="url(#clip6300)" style="stroke:#000000; stroke-width:4; stroke-opacity:1; fill:none" points="
  252.496,502.264 283.528,502.264 
  "/>
<polyline clip-path="url(#clip6300)" style="stroke:#000000; stroke-width:4; stroke-opacity:1; fill:none" points="
  252.496,349.618 283.528,349.618 
  "/>
<polyline clip-path="url(#clip6300)" style="stroke:#000000; stroke-width:4; stroke-opacity:1; fill:none" points="
  252.496,196.971 283.528,196.971 
  "/>
<g clip-path="url(#clip6300)">
<text style="fill:#000000; fill-opacity:1; font-family:Arial,Helvetica Neue,Helvetica,sans-serif; font-size:48px; text-anchor:middle;" transform="rotate(0, 298.035, 725.979)" x="298.035" y="725.979">0</text>
</g>
<g clip-path="url(#clip6300)">
<text style="fill:#000000; fill-opacity:1; font-family:Arial,Helvetica Neue,Helvetica,sans-serif; font-size:48px; text-anchor:middle;" transform="rotate(0, 948.59, 725.979)" x="948.59" y="725.979">50</text>
</g>
<g clip-path="url(#clip6300)">
<text style="fill:#000000; fill-opacity:1; font-family:Arial,Helvetica Neue,Helvetica,sans-serif; font-size:48px; text-anchor:middle;" transform="rotate(0, 1599.14, 725.979)" x="1599.14" y="725.979">100</text>
</g>
<g clip-path="url(#clip6300)">
<text style="fill:#000000; fill-opacity:1; font-family:Arial,Helvetica Neue,Helvetica,sans-serif; font-size:48px; text-anchor:middle;" transform="rotate(0, 2249.7, 725.979)" x="2249.7" y="725.979">150</text>
</g>
<g clip-path="url(#clip6300)">
<text style="fill:#000000; fill-opacity:1; font-family:Arial,Helvetica Neue,Helvetica,sans-serif; font-size:48px; text-anchor:end;" transform="rotate(0, 228.496, 672.411)" x="228.496" y="672.411">-1.0</text>
</g>
<g clip-path="url(#clip6300)">
<text style="fill:#000000; fill-opacity:1; font-family:Arial,Helvetica Neue,Helvetica,sans-serif; font-size:48px; text-anchor:end;" transform="rotate(0, 228.496, 519.764)" x="228.496" y="519.764">-0.5</text>
</g>
<g clip-path="url(#clip6300)">
<text style="fill:#000000; fill-opacity:1; font-family:Arial,Helvetica Neue,Helvetica,sans-serif; font-size:48px; text-anchor:end;" transform="rotate(0, 228.496, 367.118)" x="228.496" y="367.118">0.0</text>
</g>
<g clip-path="url(#clip6300)">
<text style="fill:#000000; fill-opacity:1; font-family:Arial,Helvetica Neue,Helvetica,sans-serif; font-size:48px; text-anchor:end;" transform="rotate(0, 228.496, 214.471)" x="228.496" y="214.471">0.5</text>
</g>
<g clip-path="url(#clip6300)">
<text style="fill:#000000; fill-opacity:1; font-family:Arial,Helvetica Neue,Helvetica,sans-serif; font-size:66px; text-anchor:middle;" transform="rotate(-90, 57.6, 359.611)" x="57.6" y="359.611">Value</text>
</g>
<polyline clip-path="url(#clip6302)" style="stroke:#009af9; stroke-width:4; stroke-opacity:1; fill:none" points="
  311.046,137.274 324.057,130.603 337.068,252.057 350.079,161.453 363.091,156.339 376.102,68.2668 389.113,273.644 402.124,139.724 415.135,253.051 428.146,147.658 
  441.157,256.666 454.168,114.563 467.179,308.862 480.19,235.07 493.201,161.232 506.213,146.176 519.224,74.0232 532.235,255.044 545.246,114.373 558.257,326.606 
  571.268,276.734 584.279,124.952 597.29,116.068 610.301,152.364 623.312,156.123 636.323,64.9253 649.335,288.597 662.346,168.898 675.357,201.256 688.368,134.357 
  701.379,298.005 714.39,183.98 727.401,126.46 740.412,105.69 753.423,151.05 766.434,87.5104 779.445,276.566 792.457,189.557 805.468,122.229 818.479,118.46 
  831.49,141.039 844.501,145.425 857.512,250.471 870.523,122.249 883.534,112.798 896.545,129.749 909.556,94.6773 922.567,187.707 935.579,68.3049 948.59,395.252 
  961.601,560.464 974.612,538.336 987.623,607.926 1000.63,519.069 1013.65,403.373 1026.66,550.51 1039.67,463.811 1052.68,352.411 1065.69,359.721 1078.7,391.761 
  1091.71,540.51 1104.72,350.726 1117.73,353.548 1130.74,365.611 1143.76,416.807 1156.77,362.482 1169.78,395.829 1182.79,519.686 1195.8,473.096 1208.81,377.086 
  1221.82,469.482 1234.83,399.988 1247.84,573.837 1260.86,530.399 1273.87,437.505 1286.88,455.411 1299.89,613.788 1312.9,486.476 1325.91,502.513 1338.92,553.302 
  1351.93,617.321 1364.94,409.261 1377.96,577.178 1390.97,406.777 1403.98,612.517 1416.99,653.332 1430,638.926 1443.01,455.809 1456.02,598.172 1469.03,468.618 
  1482.04,599.094 1495.06,546.601 1508.07,546.952 1521.08,377.296 1534.09,448.987 1547.1,502.34 1560.11,531.327 1573.12,509.283 1586.13,405.386 1599.14,611.823 
  1612.16,427.036 1625.17,390.519 1638.18,495.076 1651.19,589.549 1664.2,485.715 1677.21,432.711 1690.22,404.124 1703.23,572.352 1716.24,471.854 1729.26,395.515 
  1742.27,525.467 1755.28,426.58 1768.29,360.096 1781.3,389.558 1794.31,494.542 1807.32,541.155 1820.33,497.283 1833.34,600.357 1846.35,534.619 1859.37,623.121 
  1872.38,571.983 1885.39,600.096 1898.4,435.254 1911.41,439.768 1924.42,511.692 1937.43,427.253 1950.44,422.666 1963.45,368.513 1976.47,430.087 1989.48,448.427 
  2002.49,556.137 2015.5,412.402 2028.51,654.297 2041.52,647.605 2054.53,534.279 2067.54,549.447 2080.55,565.906 2093.57,584.656 2106.58,403.731 2119.59,554.514 
  2132.6,472.868 2145.61,365.854 2158.62,418.357 2171.63,379.949 2184.64,478.694 2197.65,396.228 2210.67,520.788 2223.68,481.639 2236.69,426.251 2249.7,431.128 
  2262.71,458.985 
  "/>
<path clip-path="url(#clip6300)" d="
M1985.19 251.724 L2249.26 251.724 L2249.26 130.764 L1985.19 130.764  Z
  " fill="#ffffff" fill-rule="evenodd" fill-opacity="1"/>
<polyline clip-path="url(#clip6300)" style="stroke:#000000; stroke-width:4; stroke-opacity:1; fill:none" points="
  1985.19,251.724 2249.26,251.724 2249.26,130.764 1985.19,130.764 1985.19,251.724 
  "/>
<polyline clip-path="url(#clip6300)" style="stroke:#009af9; stroke-width:4; stroke-opacity:1; fill:none" points="
  2009.19,191.244 2153.19,191.244 
  "/>
<g clip-path="url(#clip6300)">
<text style="fill:#000000; fill-opacity:1; font-family:Arial,Helvetica Neue,Helvetica,sans-serif; font-size:48px; text-anchor:start;" transform="rotate(0, 2177.19, 208.744)" x="2177.19" y="208.744">x</text>
</g>
<path clip-path="url(#clip6300)" d="
M252.496 1440.48 L2321.26 1440.48 L2321.26 815.748 L252.496 815.748  Z
  " fill="#ffffff" fill-rule="evenodd" fill-opacity="1"/>
<defs>
  <clipPath id="clip6303">
    <rect x="252" y="815" width="2070" height="626"/>
  </clipPath>
</defs>
<polyline clip-path="url(#clip6303)" style="stroke:#000000; stroke-width:2; stroke-opacity:0.1; fill:none" points="
  298.035,1440.48 298.035,815.748 
  "/>
<polyline clip-path="url(#clip6303)" style="stroke:#000000; stroke-width:2; stroke-opacity:0.1; fill:none" points="
  948.59,1440.48 948.59,815.748 
  "/>
<polyline clip-path="url(#clip6303)" style="stroke:#000000; stroke-width:2; stroke-opacity:0.1; fill:none" points="
  1599.14,1440.48 1599.14,815.748 
  "/>
<polyline clip-path="url(#clip6303)" style="stroke:#000000; stroke-width:2; stroke-opacity:0.1; fill:none" points="
  2249.7,1440.48 2249.7,815.748 
  "/>
<polyline clip-path="url(#clip6303)" style="stroke:#000000; stroke-width:2; stroke-opacity:0.1; fill:none" points="
  252.496,1392.36 2321.26,1392.36 
  "/>
<polyline clip-path="url(#clip6303)" style="stroke:#000000; stroke-width:2; stroke-opacity:0.1; fill:none" points="
  252.496,1226.57 2321.26,1226.57 
  "/>
<polyline clip-path="url(#clip6303)" style="stroke:#000000; stroke-width:2; stroke-opacity:0.1; fill:none" points="
  252.496,1060.78 2321.26,1060.78 
  "/>
<polyline clip-path="url(#clip6303)" style="stroke:#000000; stroke-width:2; stroke-opacity:0.1; fill:none" points="
  252.496,894.987 2321.26,894.987 
  "/>
<polyline clip-path="url(#clip6300)" style="stroke:#000000; stroke-width:4; stroke-opacity:1; fill:none" points="
  252.496,1440.48 2321.26,1440.48 
  "/>
<polyline clip-path="url(#clip6300)" style="stroke:#000000; stroke-width:4; stroke-opacity:1; fill:none" points="
  252.496,1440.48 252.496,815.748 
  "/>
<polyline clip-path="url(#clip6300)" style="stroke:#000000; stroke-width:4; stroke-opacity:1; fill:none" points="
  298.035,1440.48 298.035,1431.11 
  "/>
<polyline clip-path="url(#clip6300)" style="stroke:#000000; stroke-width:4; stroke-opacity:1; fill:none" points="
  948.59,1440.48 948.59,1431.11 
  "/>
<polyline clip-path="url(#clip6300)" style="stroke:#000000; stroke-width:4; stroke-opacity:1; fill:none" points="
  1599.14,1440.48 1599.14,1431.11 
  "/>
<polyline clip-path="url(#clip6300)" style="stroke:#000000; stroke-width:4; stroke-opacity:1; fill:none" points="
  2249.7,1440.48 2249.7,1431.11 
  "/>
<polyline clip-path="url(#clip6300)" style="stroke:#000000; stroke-width:4; stroke-opacity:1; fill:none" points="
  252.496,1392.36 283.528,1392.36 
  "/>
<polyline clip-path="url(#clip6300)" style="stroke:#000000; stroke-width:4; stroke-opacity:1; fill:none" points="
  252.496,1226.57 283.528,1226.57 
  "/>
<polyline clip-path="url(#clip6300)" style="stroke:#000000; stroke-width:4; stroke-opacity:1; fill:none" points="
  252.496,1060.78 283.528,1060.78 
  "/>
<polyline clip-path="url(#clip6300)" style="stroke:#000000; stroke-width:4; stroke-opacity:1; fill:none" points="
  252.496,894.987 283.528,894.987 
  "/>
<g clip-path="url(#clip6300)">
<text style="fill:#000000; fill-opacity:1; font-family:Arial,Helvetica Neue,Helvetica,sans-serif; font-size:48px; text-anchor:middle;" transform="rotate(0, 298.035, 1494.48)" x="298.035" y="1494.48">0</text>
</g>
<g clip-path="url(#clip6300)">
<text style="fill:#000000; fill-opacity:1; font-family:Arial,Helvetica Neue,Helvetica,sans-serif; font-size:48px; text-anchor:middle;" transform="rotate(0, 948.59, 1494.48)" x="948.59" y="1494.48">50</text>
</g>
<g clip-path="url(#clip6300)">
<text style="fill:#000000; fill-opacity:1; font-family:Arial,Helvetica Neue,Helvetica,sans-serif; font-size:48px; text-anchor:middle;" transform="rotate(0, 1599.14, 1494.48)" x="1599.14" y="1494.48">100</text>
</g>
<g clip-path="url(#clip6300)">
<text style="fill:#000000; fill-opacity:1; font-family:Arial,Helvetica Neue,Helvetica,sans-serif; font-size:48px; text-anchor:middle;" transform="rotate(0, 2249.7, 1494.48)" x="2249.7" y="1494.48">150</text>
</g>
<g clip-path="url(#clip6300)">
<text style="fill:#000000; fill-opacity:1; font-family:Arial,Helvetica Neue,Helvetica,sans-serif; font-size:48px; text-anchor:end;" transform="rotate(0, 228.496, 1409.86)" x="228.496" y="1409.86">-1.0</text>
</g>
<g clip-path="url(#clip6300)">
<text style="fill:#000000; fill-opacity:1; font-family:Arial,Helvetica Neue,Helvetica,sans-serif; font-size:48px; text-anchor:end;" transform="rotate(0, 228.496, 1244.07)" x="228.496" y="1244.07">-0.5</text>
</g>
<g clip-path="url(#clip6300)">
<text style="fill:#000000; fill-opacity:1; font-family:Arial,Helvetica Neue,Helvetica,sans-serif; font-size:48px; text-anchor:end;" transform="rotate(0, 228.496, 1078.28)" x="228.496" y="1078.28">0.0</text>
</g>
<g clip-path="url(#clip6300)">
<text style="fill:#000000; fill-opacity:1; font-family:Arial,Helvetica Neue,Helvetica,sans-serif; font-size:48px; text-anchor:end;" transform="rotate(0, 228.496, 912.487)" x="228.496" y="912.487">0.5</text>
</g>
<g clip-path="url(#clip6300)">
<text style="fill:#000000; fill-opacity:1; font-family:Arial,Helvetica Neue,Helvetica,sans-serif; font-size:66px; text-anchor:middle;" transform="rotate(0, 1286.88, 1590.4)" x="1286.88" y="1590.4">Time step</text>
</g>
<g clip-path="url(#clip6300)">
<text style="fill:#000000; fill-opacity:1; font-family:Arial,Helvetica Neue,Helvetica,sans-serif; font-size:66px; text-anchor:middle;" transform="rotate(-90, 57.6, 1128.12)" x="57.6" y="1128.12">Value</text>
</g>
<polyline clip-path="url(#clip6303)" style="stroke:#009af9; stroke-width:4; stroke-opacity:1; fill:none" points="
  311.046,1053.05 324.057,1150.3 337.068,1137.02 350.079,1210.02 363.091,1250.84 376.102,1324.98 389.113,1284.51 402.124,1232.84 415.135,1279.11 428.146,1312.74 
  441.157,1422.8 454.168,1249.47 467.179,1260.02 480.19,1329.3 493.201,1244.12 506.213,1203.85 519.224,1081.24 532.235,1184.23 545.246,1134.3 558.257,1192.89 
  571.268,1133.69 584.279,1066.61 597.29,1161.47 610.301,1211.72 623.312,1131.29 636.323,1060.65 649.335,1177.73 662.346,1192.11 675.357,1096.73 688.368,1190.35 
  701.379,1245.97 714.39,1171.1 727.401,1274.43 740.412,1269.11 753.423,1247.75 766.434,1269.2 779.445,1189.88 792.457,1291.13 805.468,1152.17 818.479,1100.48 
  831.49,1151.49 844.501,1187.7 857.512,1133.58 870.523,1216.38 883.534,1127.18 896.545,1218.3 909.556,1163.43 922.567,1269.68 935.579,1190.96 948.59,1131.06 
  961.601,1159.67 974.612,1250.79 987.623,1078.58 1000.63,1158.14 1013.65,1063.03 1026.66,1048.38 1039.67,1071.94 1052.68,1111.04 1065.69,1074.99 1078.7,1091.41 
  1091.71,1022.54 1104.72,1079.44 1117.73,1144.52 1130.74,1173.59 1143.76,1089.18 1156.77,1085.16 1169.78,1075.58 1182.79,1108.69 1195.8,1044.18 1208.81,1109.9 
  1221.82,1074.4 1234.83,1111.75 1247.84,1026.16 1260.86,1072.69 1273.87,1019.22 1286.88,1056.19 1299.89,1068.58 1312.9,1090.7 1325.91,1016.52 1338.92,1047.21 
  1351.93,1010.14 1364.94,1019.85 1377.96,971.407 1390.97,1022.19 1403.98,979.891 1416.99,1020.23 1430,1000.62 1443.01,1032.3 1456.02,1020.65 1469.03,960.671 
  1482.04,1031.26 1495.06,1008.35 1508.07,1033.08 1521.08,1005.92 1534.09,1100.08 1547.1,1032.15 1560.11,1047.75 1573.12,1007.06 1586.13,1048.21 1599.14,1025.81 
  1612.16,985.427 1625.17,1103.21 1638.18,942.292 1651.19,1037.33 1664.2,857.812 1677.21,907.7 1690.22,861.264 1703.23,892.944 1716.24,965.408 1729.26,968.907 
  1742.27,978.269 1755.28,955.684 1768.29,928.631 1781.3,943.719 1794.31,999.467 1807.32,952.054 1820.33,1089.66 1833.34,1112.08 1846.35,896.516 1859.37,1023.85 
  1872.38,1040.03 1885.39,964.552 1898.4,833.429 1911.41,1107.16 1924.42,992.411 1937.43,1184.77 1950.44,993.226 1963.45,1131.26 1976.47,1109.06 1989.48,1114.28 
  2002.49,1241.81 2015.5,1185.66 2028.51,1069.34 2041.52,1149.46 2054.53,1077.84 2067.54,963.593 2080.55,1062.89 2093.57,987.289 2106.58,991.718 2119.59,947.174 
  2132.6,1070.75 2145.61,1159.66 2158.62,1021.06 2171.63,1018.26 2184.64,1082.52 2197.65,1081.81 2210.67,1144.79 2223.68,997.332 2236.69,1303.22 2249.7,1007.81 
  2262.71,1145.39 
  "/>
<path clip-path="url(#clip6300)" d="
M1634.78 1020.23 L2249.26 1020.23 L2249.26 899.268 L1634.78 899.268  Z
  " fill="#ffffff" fill-rule="evenodd" fill-opacity="1"/>
<polyline clip-path="url(#clip6300)" style="stroke:#000000; stroke-width:4; stroke-opacity:1; fill:none" points="
  1634.78,1020.23 2249.26,1020.23 2249.26,899.268 1634.78,899.268 1634.78,1020.23 
  "/>
<polyline clip-path="url(#clip6300)" style="stroke:#009af9; stroke-width:4; stroke-opacity:1; fill:none" points="
  1658.78,959.748 1802.78,959.748 
  "/>
<g clip-path="url(#clip6300)">
<text style="fill:#000000; fill-opacity:1; font-family:Arial,Helvetica Neue,Helvetica,sans-serif; font-size:48px; text-anchor:start;" transform="rotate(0, 1826.78, 977.248)" x="1826.78" y="977.248">randomphases(x)</text>
</g>
</svg>
