<?xml version="1.0" encoding="utf-8"?>
<svg xmlns="http://www.w3.org/2000/svg" xmlns:xlink="http://www.w3.org/1999/xlink" width="600" height="400" viewBox="0 0 2400 1600">
<defs>
  <clipPath id="clip3700">
    <rect x="0" y="0" width="2400" height="1600"/>
  </clipPath>
</defs>
<path clip-path="url(#clip3700)" d="
M0 1600 L2400 1600 L2400 0 L0 0  Z
  " fill="#ffffff" fill-rule="evenodd" fill-opacity="1"/>
<defs>
  <clipPath id="clip3701">
    <rect x="480" y="0" width="1681" height="1600"/>
  </clipPath>
</defs>
<path clip-path="url(#clip3700)" d="
M215.754 1425.62 L2352.76 1425.62 L2352.76 47.2441 L215.754 47.2441  Z
  " fill="#ffffff" fill-rule="evenodd" fill-opacity="1"/>
<defs>
  <clipPath id="clip3702">
    <rect x="215" y="47" width="2138" height="1379"/>
  </clipPath>
</defs>
<polyline clip-path="url(#clip3702)" style="stroke:#000000; stroke-width:2; stroke-opacity:0.1; fill:none" points="
  234.234,1425.62 234.234,47.2441 
  "/>
<polyline clip-path="url(#clip3702)" style="stroke:#000000; stroke-width:2; stroke-opacity:0.1; fill:none" points="
  654.243,1425.62 654.243,47.2441 
  "/>
<polyline clip-path="url(#clip3702)" style="stroke:#000000; stroke-width:2; stroke-opacity:0.1; fill:none" points="
  1074.25,1425.62 1074.25,47.2441 
  "/>
<polyline clip-path="url(#clip3702)" style="stroke:#000000; stroke-width:2; stroke-opacity:0.1; fill:none" points="
  1494.26,1425.62 1494.26,47.2441 
  "/>
<polyline clip-path="url(#clip3702)" style="stroke:#000000; stroke-width:2; stroke-opacity:0.1; fill:none" points="
  1914.27,1425.62 1914.27,47.2441 
  "/>
<polyline clip-path="url(#clip3702)" style="stroke:#000000; stroke-width:2; stroke-opacity:0.1; fill:none" points="
  2334.28,1425.62 2334.28,47.2441 
  "/>
<polyline clip-path="url(#clip3702)" style="stroke:#000000; stroke-width:2; stroke-opacity:0.1; fill:none" points="
  215.754,1386.61 2352.76,1386.61 
  "/>
<polyline clip-path="url(#clip3702)" style="stroke:#000000; stroke-width:2; stroke-opacity:0.1; fill:none" points="
  215.754,1071.31 2352.76,1071.31 
  "/>
<polyline clip-path="url(#clip3702)" style="stroke:#000000; stroke-width:2; stroke-opacity:0.1; fill:none" points="
  215.754,756.01 2352.76,756.01 
  "/>
<polyline clip-path="url(#clip3702)" style="stroke:#000000; stroke-width:2; stroke-opacity:0.1; fill:none" points="
  215.754,440.711 2352.76,440.711 
  "/>
<polyline clip-path="url(#clip3702)" style="stroke:#000000; stroke-width:2; stroke-opacity:0.1; fill:none" points="
  215.754,125.412 2352.76,125.412 
  "/>
<polyline clip-path="url(#clip3700)" style="stroke:#000000; stroke-width:4; stroke-opacity:1; fill:none" points="
  215.754,1425.62 2352.76,1425.62 
  "/>
<polyline clip-path="url(#clip3700)" style="stroke:#000000; stroke-width:4; stroke-opacity:1; fill:none" points="
  215.754,1425.62 215.754,47.2441 
  "/>
<polyline clip-path="url(#clip3700)" style="stroke:#000000; stroke-width:4; stroke-opacity:1; fill:none" points="
  234.234,1425.62 234.234,1404.94 
  "/>
<polyline clip-path="url(#clip3700)" style="stroke:#000000; stroke-width:4; stroke-opacity:1; fill:none" points="
  654.243,1425.62 654.243,1404.94 
  "/>
<polyline clip-path="url(#clip3700)" style="stroke:#000000; stroke-width:4; stroke-opacity:1; fill:none" points="
  1074.25,1425.62 1074.25,1404.94 
  "/>
<polyline clip-path="url(#clip3700)" style="stroke:#000000; stroke-width:4; stroke-opacity:1; fill:none" points="
  1494.26,1425.62 1494.26,1404.94 
  "/>
<polyline clip-path="url(#clip3700)" style="stroke:#000000; stroke-width:4; stroke-opacity:1; fill:none" points="
  1914.27,1425.62 1914.27,1404.94 
  "/>
<polyline clip-path="url(#clip3700)" style="stroke:#000000; stroke-width:4; stroke-opacity:1; fill:none" points="
  2334.28,1425.62 2334.28,1404.94 
  "/>
<polyline clip-path="url(#clip3700)" style="stroke:#000000; stroke-width:4; stroke-opacity:1; fill:none" points="
  215.754,1386.61 247.809,1386.61 
  "/>
<polyline clip-path="url(#clip3700)" style="stroke:#000000; stroke-width:4; stroke-opacity:1; fill:none" points="
  215.754,1071.31 247.809,1071.31 
  "/>
<polyline clip-path="url(#clip3700)" style="stroke:#000000; stroke-width:4; stroke-opacity:1; fill:none" points="
  215.754,756.01 247.809,756.01 
  "/>
<polyline clip-path="url(#clip3700)" style="stroke:#000000; stroke-width:4; stroke-opacity:1; fill:none" points="
  215.754,440.711 247.809,440.711 
  "/>
<polyline clip-path="url(#clip3700)" style="stroke:#000000; stroke-width:4; stroke-opacity:1; fill:none" points="
  215.754,125.412 247.809,125.412 
  "/>
<g clip-path="url(#clip3700)">
<text style="fill:#000000; fill-opacity:1; font-family:Arial,Helvetica Neue,Helvetica,sans-serif; font-size:48px; text-anchor:middle;" transform="rotate(0, 234.234, 1479.62)" x="234.234" y="1479.62">0</text>
</g>
<g clip-path="url(#clip3700)">
<text style="fill:#000000; fill-opacity:1; font-family:Arial,Helvetica Neue,Helvetica,sans-serif; font-size:48px; text-anchor:middle;" transform="rotate(0, 654.243, 1479.62)" x="654.243" y="1479.62">10</text>
</g>
<g clip-path="url(#clip3700)">
<text style="fill:#000000; fill-opacity:1; font-family:Arial,Helvetica Neue,Helvetica,sans-serif; font-size:48px; text-anchor:middle;" transform="rotate(0, 1074.25, 1479.62)" x="1074.25" y="1479.62">20</text>
</g>
<g clip-path="url(#clip3700)">
<text style="fill:#000000; fill-opacity:1; font-family:Arial,Helvetica Neue,Helvetica,sans-serif; font-size:48px; text-anchor:middle;" transform="rotate(0, 1494.26, 1479.62)" x="1494.26" y="1479.62">30</text>
</g>
<g clip-path="url(#clip3700)">
<text style="fill:#000000; fill-opacity:1; font-family:Arial,Helvetica Neue,Helvetica,sans-serif; font-size:48px; text-anchor:middle;" transform="rotate(0, 1914.27, 1479.62)" x="1914.27" y="1479.62">40</text>
</g>
<g clip-path="url(#clip3700)">
<text style="fill:#000000; fill-opacity:1; font-family:Arial,Helvetica Neue,Helvetica,sans-serif; font-size:48px; text-anchor:middle;" transform="rotate(0, 2334.28, 1479.62)" x="2334.28" y="1479.62">50</text>
</g>
<g clip-path="url(#clip3700)">
<text style="fill:#000000; fill-opacity:1; font-family:Arial,Helvetica Neue,Helvetica,sans-serif; font-size:48px; text-anchor:end;" transform="rotate(0, 191.754, 1404.11)" x="191.754" y="1404.11">0.0</text>
</g>
<g clip-path="url(#clip3700)">
<text style="fill:#000000; fill-opacity:1; font-family:Arial,Helvetica Neue,Helvetica,sans-serif; font-size:48px; text-anchor:end;" transform="rotate(0, 191.754, 1088.81)" x="191.754" y="1088.81">0.2</text>
</g>
<g clip-path="url(#clip3700)">
<text style="fill:#000000; fill-opacity:1; font-family:Arial,Helvetica Neue,Helvetica,sans-serif; font-size:48px; text-anchor:end;" transform="rotate(0, 191.754, 773.51)" x="191.754" y="773.51">0.4</text>
</g>
<g clip-path="url(#clip3700)">
<text style="fill:#000000; fill-opacity:1; font-family:Arial,Helvetica Neue,Helvetica,sans-serif; font-size:48px; text-anchor:end;" transform="rotate(0, 191.754, 458.211)" x="191.754" y="458.211">0.6</text>
</g>
<g clip-path="url(#clip3700)">
<text style="fill:#000000; fill-opacity:1; font-family:Arial,Helvetica Neue,Helvetica,sans-serif; font-size:48px; text-anchor:end;" transform="rotate(0, 191.754, 142.912)" x="191.754" y="142.912">0.8</text>
</g>
<g clip-path="url(#clip3700)">
<text style="fill:#000000; fill-opacity:1; font-family:Arial,Helvetica Neue,Helvetica,sans-serif; font-size:66px; text-anchor:middle;" transform="rotate(0, 1284.25, 1559.48)" x="1284.25" y="1559.48"># subdivisions along each axis</text>
</g>
<g clip-path="url(#clip3700)">
<text style="fill:#000000; fill-opacity:1; font-family:Arial,Helvetica Neue,Helvetica,sans-serif; font-size:66px; text-anchor:middle;" transform="rotate(-90, 89.2861, 736.431)" x="89.2861" y="736.431">Transfer entropy (bits)</text>
</g>
<polyline clip-path="url(#clip3702)" style="stroke:#000000; stroke-width:4; stroke-opacity:1; fill:none" points="
  276.235,1386.61 360.237,1271.79 444.239,917.955 528.24,846.46 612.242,669.746 696.243,582.038 780.245,379.123 864.247,354.526 948.248,289.963 1032.25,86.7762 
  1116.25,216.462 1200.25,214.695 1284.25,173.876 1368.26,86.2547 1452.26,122.715 1536.26,145.853 1620.26,215.809 1704.26,127.858 1788.26,206.799 1872.27,142.604 
  1956.27,185.844 2040.27,173.868 2124.27,191.135 2208.27,231.973 2292.27,320.045 
  "/>
<polyline clip-path="url(#clip3702)" style="stroke:#ff0000; stroke-width:4; stroke-opacity:1; fill:none" points="
  276.235,1386.61 360.237,1382.85 444.239,1286.86 528.24,1279.16 612.242,1327.61 696.243,1251.69 780.245,1208.81 864.247,1204.29 948.248,1142.5 1032.25,1045.36 
  1116.25,1040.22 1200.25,947.349 1284.25,1069.87 1368.26,1010.15 1452.26,971.846 1536.26,836.419 1620.26,845.507 1704.26,898.338 1788.26,773.512 1872.27,832.813 
  1956.27,808.638 2040.27,836.178 2124.27,741.864 2208.27,719.911 2292.27,776.723 
  "/>
<path clip-path="url(#clip3700)" d="
M1816.07 312.204 L2280.76 312.204 L2280.76 130.764 L1816.07 130.764  Z
  " fill="#ffffff" fill-rule="evenodd" fill-opacity="1"/>
<polyline clip-path="url(#clip3700)" style="stroke:#000000; stroke-width:4; stroke-opacity:1; fill:none" points="
  1816.07,312.204 2280.76,312.204 2280.76,130.764 1816.07,130.764 1816.07,312.204 
  "/>
<polyline clip-path="url(#clip3700)" style="stroke:#000000; stroke-width:4; stroke-opacity:1; fill:none" points="
  1840.07,191.244 1984.07,191.244 
  "/>
<g clip-path="url(#clip3700)">
<text style="fill:#000000; fill-opacity:1; font-family:Arial,Helvetica Neue,Helvetica,sans-serif; font-size:48px; text-anchor:start;" transform="rotate(0, 2008.07, 208.744)" x="2008.07" y="208.744">TE(x -&gt; y)</text>
</g>
<polyline clip-path="url(#clip3700)" style="stroke:#ff0000; stroke-width:4; stroke-opacity:1; fill:none" points="
  1840.07,251.724 1984.07,251.724 
  "/>
<g clip-path="url(#clip3700)">
<text style="fill:#000000; fill-opacity:1; font-family:Arial,Helvetica Neue,Helvetica,sans-serif; font-size:48px; text-anchor:start;" transform="rotate(0, 2008.07, 269.224)" x="2008.07" y="269.224">TE(y -&gt; x)</text>
</g>
</svg>
