<?xml version="1.0" encoding="utf-8" standalone="no"?>
<!DOCTYPE svg PUBLIC "-//W3C//DTD SVG 1.1//EN"
  "http://www.w3.org/Graphics/SVG/1.1/DTD/svg11.dtd">
<!-- Created with matplotlib (https://matplotlib.org/) -->
<svg height="288pt" version="1.1" viewBox="0 0 432 288" width="432pt" xmlns="http://www.w3.org/2000/svg" xmlns:xlink="http://www.w3.org/1999/xlink">
 <defs>
  <style type="text/css">
*{stroke-linecap:butt;stroke-linejoin:round;}
  </style>
 </defs>
 <g id="figure_1">
  <g id="patch_1">
   <path d="M 0 288 
L 432 288 
L 432 0 
L 0 0 
z
" style="fill:#ffffff;"/>
  </g>
  <g id="axes_1">
   <g id="patch_2">
    <path d="M 36.614646 123.065354 
L 429.165354 123.065354 
L 429.165354 2.834646 
L 36.614646 2.834646 
z
" style="fill:#ffffff;"/>
   </g>
   <g id="matplotlib.axis_1">
    <g id="xtick_1">
     <g id="line2d_1">
      <path clip-path="url(#p34e9dd4d02)" d="M 45.863612 123.065354 
L 45.863612 2.834646 
" style="fill:none;stroke:#000000;stroke-linecap:square;stroke-opacity:0.1;stroke-width:0.5;"/>
     </g>
     <g id="line2d_2">
      <defs>
       <path d="M 0 0 
L 0 -3.5 
" id="m2883c535ab" style="stroke:#000000;stroke-width:0.8;"/>
      </defs>
      <g>
       <use style="stroke:#000000;stroke-width:0.8;" x="45.863612" xlink:href="#m2883c535ab" y="123.065354"/>
      </g>
     </g>
     <g id="text_1">
      <!-- 0 -->
      <defs>
       <path d="M 31.78125 66.40625 
Q 24.171875 66.40625 20.328125 58.90625 
Q 16.5 51.421875 16.5 36.375 
Q 16.5 21.390625 20.328125 13.890625 
Q 24.171875 6.390625 31.78125 6.390625 
Q 39.453125 6.390625 43.28125 13.890625 
Q 47.125 21.390625 47.125 36.375 
Q 47.125 51.421875 43.28125 58.90625 
Q 39.453125 66.40625 31.78125 66.40625 
z
M 31.78125 74.21875 
Q 44.046875 74.21875 50.515625 64.515625 
Q 56.984375 54.828125 56.984375 36.375 
Q 56.984375 17.96875 50.515625 8.265625 
Q 44.046875 -1.421875 31.78125 -1.421875 
Q 19.53125 -1.421875 13.0625 8.265625 
Q 6.59375 17.96875 6.59375 36.375 
Q 6.59375 54.828125 13.0625 64.515625 
Q 19.53125 74.21875 31.78125 74.21875 
z
" id="DejaVuSans-48"/>
      </defs>
      <g transform="translate(43.318612 132.644104)scale(0.08 -0.08)">
       <use xlink:href="#DejaVuSans-48"/>
      </g>
     </g>
    </g>
    <g id="xtick_2">
     <g id="line2d_3">
      <path clip-path="url(#p34e9dd4d02)" d="M 138.911566 123.065354 
L 138.911566 2.834646 
" style="fill:none;stroke:#000000;stroke-linecap:square;stroke-opacity:0.1;stroke-width:0.5;"/>
     </g>
     <g id="line2d_4">
      <g>
       <use style="stroke:#000000;stroke-width:0.8;" x="138.911566" xlink:href="#m2883c535ab" y="123.065354"/>
      </g>
     </g>
     <g id="text_2">
      <!-- 50 -->
      <defs>
       <path d="M 10.796875 72.90625 
L 49.515625 72.90625 
L 49.515625 64.59375 
L 19.828125 64.59375 
L 19.828125 46.734375 
Q 21.96875 47.46875 24.109375 47.828125 
Q 26.265625 48.1875 28.421875 48.1875 
Q 40.625 48.1875 47.75 41.5 
Q 54.890625 34.8125 54.890625 23.390625 
Q 54.890625 11.625 47.5625 5.09375 
Q 40.234375 -1.421875 26.90625 -1.421875 
Q 22.3125 -1.421875 17.546875 -0.640625 
Q 12.796875 0.140625 7.71875 1.703125 
L 7.71875 11.625 
Q 12.109375 9.234375 16.796875 8.0625 
Q 21.484375 6.890625 26.703125 6.890625 
Q 35.15625 6.890625 40.078125 11.328125 
Q 45.015625 15.765625 45.015625 23.390625 
Q 45.015625 31 40.078125 35.4375 
Q 35.15625 39.890625 26.703125 39.890625 
Q 22.75 39.890625 18.8125 39.015625 
Q 14.890625 38.140625 10.796875 36.28125 
z
" id="DejaVuSans-53"/>
      </defs>
      <g transform="translate(133.821566 132.644104)scale(0.08 -0.08)">
       <use xlink:href="#DejaVuSans-53"/>
       <use x="63.623047" xlink:href="#DejaVuSans-48"/>
      </g>
     </g>
    </g>
    <g id="xtick_3">
     <g id="line2d_5">
      <path clip-path="url(#p34e9dd4d02)" d="M 231.95952 123.065354 
L 231.95952 2.834646 
" style="fill:none;stroke:#000000;stroke-linecap:square;stroke-opacity:0.1;stroke-width:0.5;"/>
     </g>
     <g id="line2d_6">
      <g>
       <use style="stroke:#000000;stroke-width:0.8;" x="231.95952" xlink:href="#m2883c535ab" y="123.065354"/>
      </g>
     </g>
     <g id="text_3">
      <!-- 100 -->
      <defs>
       <path d="M 12.40625 8.296875 
L 28.515625 8.296875 
L 28.515625 63.921875 
L 10.984375 60.40625 
L 10.984375 69.390625 
L 28.421875 72.90625 
L 38.28125 72.90625 
L 38.28125 8.296875 
L 54.390625 8.296875 
L 54.390625 0 
L 12.40625 0 
z
" id="DejaVuSans-49"/>
      </defs>
      <g transform="translate(224.32452 132.644104)scale(0.08 -0.08)">
       <use xlink:href="#DejaVuSans-49"/>
       <use x="63.623047" xlink:href="#DejaVuSans-48"/>
       <use x="127.246094" xlink:href="#DejaVuSans-48"/>
      </g>
     </g>
    </g>
    <g id="xtick_4">
     <g id="line2d_7">
      <path clip-path="url(#p34e9dd4d02)" d="M 325.007475 123.065354 
L 325.007475 2.834646 
" style="fill:none;stroke:#000000;stroke-linecap:square;stroke-opacity:0.1;stroke-width:0.5;"/>
     </g>
     <g id="line2d_8">
      <g>
       <use style="stroke:#000000;stroke-width:0.8;" x="325.007475" xlink:href="#m2883c535ab" y="123.065354"/>
      </g>
     </g>
     <g id="text_4">
      <!-- 150 -->
      <g transform="translate(317.372475 132.644104)scale(0.08 -0.08)">
       <use xlink:href="#DejaVuSans-49"/>
       <use x="63.623047" xlink:href="#DejaVuSans-53"/>
       <use x="127.246094" xlink:href="#DejaVuSans-48"/>
      </g>
     </g>
    </g>
    <g id="xtick_5">
     <g id="line2d_9">
      <path clip-path="url(#p34e9dd4d02)" d="M 418.055429 123.065354 
L 418.055429 2.834646 
" style="fill:none;stroke:#000000;stroke-linecap:square;stroke-opacity:0.1;stroke-width:0.5;"/>
     </g>
     <g id="line2d_10">
      <g>
       <use style="stroke:#000000;stroke-width:0.8;" x="418.055429" xlink:href="#m2883c535ab" y="123.065354"/>
      </g>
     </g>
     <g id="text_5">
      <!-- 200 -->
      <defs>
       <path d="M 19.1875 8.296875 
L 53.609375 8.296875 
L 53.609375 0 
L 7.328125 0 
L 7.328125 8.296875 
Q 12.9375 14.109375 22.625 23.890625 
Q 32.328125 33.6875 34.8125 36.53125 
Q 39.546875 41.84375 41.421875 45.53125 
Q 43.3125 49.21875 43.3125 52.78125 
Q 43.3125 58.59375 39.234375 62.25 
Q 35.15625 65.921875 28.609375 65.921875 
Q 23.96875 65.921875 18.8125 64.3125 
Q 13.671875 62.703125 7.8125 59.421875 
L 7.8125 69.390625 
Q 13.765625 71.78125 18.9375 73 
Q 24.125 74.21875 28.421875 74.21875 
Q 39.75 74.21875 46.484375 68.546875 
Q 53.21875 62.890625 53.21875 53.421875 
Q 53.21875 48.921875 51.53125 44.890625 
Q 49.859375 40.875 45.40625 35.40625 
Q 44.1875 33.984375 37.640625 27.21875 
Q 31.109375 20.453125 19.1875 8.296875 
z
" id="DejaVuSans-50"/>
      </defs>
      <g transform="translate(410.420429 132.644104)scale(0.08 -0.08)">
       <use xlink:href="#DejaVuSans-50"/>
       <use x="63.623047" xlink:href="#DejaVuSans-48"/>
       <use x="127.246094" xlink:href="#DejaVuSans-48"/>
      </g>
     </g>
    </g>
   </g>
   <g id="matplotlib.axis_2">
    <g id="ytick_1">
     <g id="line2d_11">
      <path clip-path="url(#p34e9dd4d02)" d="M 36.614646 104.449563 
L 429.165354 104.449563 
" style="fill:none;stroke:#000000;stroke-linecap:square;stroke-opacity:0.1;stroke-width:0.5;"/>
     </g>
     <g id="line2d_12">
      <defs>
       <path d="M 0 0 
L 3.5 0 
" id="m925b1a8c6d" style="stroke:#000000;stroke-width:0.8;"/>
      </defs>
      <g>
       <use style="stroke:#000000;stroke-width:0.8;" x="36.614646" xlink:href="#m925b1a8c6d" y="104.449563"/>
      </g>
     </g>
     <g id="text_6">
      <!-- -1.0 -->
      <defs>
       <path d="M 4.890625 31.390625 
L 31.203125 31.390625 
L 31.203125 23.390625 
L 4.890625 23.390625 
z
" id="DejaVuSans-45"/>
       <path d="M 10.6875 12.40625 
L 21 12.40625 
L 21 0 
L 10.6875 0 
z
" id="DejaVuSans-46"/>
      </defs>
      <g transform="translate(17.505896 107.488938)scale(0.08 -0.08)">
       <use xlink:href="#DejaVuSans-45"/>
       <use x="36.083984" xlink:href="#DejaVuSans-49"/>
       <use x="99.707031" xlink:href="#DejaVuSans-46"/>
       <use x="131.494141" xlink:href="#DejaVuSans-48"/>
      </g>
     </g>
    </g>
    <g id="ytick_2">
     <g id="line2d_13">
      <path clip-path="url(#p34e9dd4d02)" d="M 36.614646 83.991227 
L 429.165354 83.991227 
" style="fill:none;stroke:#000000;stroke-linecap:square;stroke-opacity:0.1;stroke-width:0.5;"/>
     </g>
     <g id="line2d_14">
      <g>
       <use style="stroke:#000000;stroke-width:0.8;" x="36.614646" xlink:href="#m925b1a8c6d" y="83.991227"/>
      </g>
     </g>
     <g id="text_7">
      <!-- -0.5 -->
      <g transform="translate(17.505896 87.030602)scale(0.08 -0.08)">
       <use xlink:href="#DejaVuSans-45"/>
       <use x="36.083984" xlink:href="#DejaVuSans-48"/>
       <use x="99.707031" xlink:href="#DejaVuSans-46"/>
       <use x="131.494141" xlink:href="#DejaVuSans-53"/>
      </g>
     </g>
    </g>
    <g id="ytick_3">
     <g id="line2d_15">
      <path clip-path="url(#p34e9dd4d02)" d="M 36.614646 63.532891 
L 429.165354 63.532891 
" style="fill:none;stroke:#000000;stroke-linecap:square;stroke-opacity:0.1;stroke-width:0.5;"/>
     </g>
     <g id="line2d_16">
      <g>
       <use style="stroke:#000000;stroke-width:0.8;" x="36.614646" xlink:href="#m925b1a8c6d" y="63.532891"/>
      </g>
     </g>
     <g id="text_8">
      <!-- 0.0 -->
      <g transform="translate(20.392146 66.572266)scale(0.08 -0.08)">
       <use xlink:href="#DejaVuSans-48"/>
       <use x="63.623047" xlink:href="#DejaVuSans-46"/>
       <use x="95.410156" xlink:href="#DejaVuSans-48"/>
      </g>
     </g>
    </g>
    <g id="ytick_4">
     <g id="line2d_17">
      <path clip-path="url(#p34e9dd4d02)" d="M 36.614646 43.074554 
L 429.165354 43.074554 
" style="fill:none;stroke:#000000;stroke-linecap:square;stroke-opacity:0.1;stroke-width:0.5;"/>
     </g>
     <g id="line2d_18">
      <g>
       <use style="stroke:#000000;stroke-width:0.8;" x="36.614646" xlink:href="#m925b1a8c6d" y="43.074554"/>
      </g>
     </g>
     <g id="text_9">
      <!-- 0.5 -->
      <g transform="translate(20.392146 46.113929)scale(0.08 -0.08)">
       <use xlink:href="#DejaVuSans-48"/>
       <use x="63.623047" xlink:href="#DejaVuSans-46"/>
       <use x="95.410156" xlink:href="#DejaVuSans-53"/>
      </g>
     </g>
    </g>
    <g id="ytick_5">
     <g id="line2d_19">
      <path clip-path="url(#p34e9dd4d02)" d="M 36.614646 22.616218 
L 429.165354 22.616218 
" style="fill:none;stroke:#000000;stroke-linecap:square;stroke-opacity:0.1;stroke-width:0.5;"/>
     </g>
     <g id="line2d_20">
      <g>
       <use style="stroke:#000000;stroke-width:0.8;" x="36.614646" xlink:href="#m925b1a8c6d" y="22.616218"/>
      </g>
     </g>
     <g id="text_10">
      <!-- 1.0 -->
      <g transform="translate(20.392146 25.655593)scale(0.08 -0.08)">
       <use xlink:href="#DejaVuSans-49"/>
       <use x="63.623047" xlink:href="#DejaVuSans-46"/>
       <use x="95.410156" xlink:href="#DejaVuSans-48"/>
      </g>
     </g>
    </g>
    <g id="text_11">
     <!-- Value -->
     <defs>
      <path d="M 28.609375 0 
L 0.78125 72.90625 
L 11.078125 72.90625 
L 34.1875 11.53125 
L 57.328125 72.90625 
L 67.578125 72.90625 
L 39.796875 0 
z
" id="DejaVuSans-86"/>
      <path d="M 34.28125 27.484375 
Q 23.390625 27.484375 19.1875 25 
Q 14.984375 22.515625 14.984375 16.5 
Q 14.984375 11.71875 18.140625 8.90625 
Q 21.296875 6.109375 26.703125 6.109375 
Q 34.1875 6.109375 38.703125 11.40625 
Q 43.21875 16.703125 43.21875 25.484375 
L 43.21875 27.484375 
z
M 52.203125 31.203125 
L 52.203125 0 
L 43.21875 0 
L 43.21875 8.296875 
Q 40.140625 3.328125 35.546875 0.953125 
Q 30.953125 -1.421875 24.3125 -1.421875 
Q 15.921875 -1.421875 10.953125 3.296875 
Q 6 8.015625 6 15.921875 
Q 6 25.140625 12.171875 29.828125 
Q 18.359375 34.515625 30.609375 34.515625 
L 43.21875 34.515625 
L 43.21875 35.40625 
Q 43.21875 41.609375 39.140625 45 
Q 35.0625 48.390625 27.6875 48.390625 
Q 23 48.390625 18.546875 47.265625 
Q 14.109375 46.140625 10.015625 43.890625 
L 10.015625 52.203125 
Q 14.9375 54.109375 19.578125 55.046875 
Q 24.21875 56 28.609375 56 
Q 40.484375 56 46.34375 49.84375 
Q 52.203125 43.703125 52.203125 31.203125 
z
" id="DejaVuSans-97"/>
      <path d="M 9.421875 75.984375 
L 18.40625 75.984375 
L 18.40625 0 
L 9.421875 0 
z
" id="DejaVuSans-108"/>
      <path d="M 8.5 21.578125 
L 8.5 54.6875 
L 17.484375 54.6875 
L 17.484375 21.921875 
Q 17.484375 14.15625 20.5 10.265625 
Q 23.53125 6.390625 29.59375 6.390625 
Q 36.859375 6.390625 41.078125 11.03125 
Q 45.3125 15.671875 45.3125 23.6875 
L 45.3125 54.6875 
L 54.296875 54.6875 
L 54.296875 0 
L 45.3125 0 
L 45.3125 8.40625 
Q 42.046875 3.421875 37.71875 1 
Q 33.40625 -1.421875 27.6875 -1.421875 
Q 18.265625 -1.421875 13.375 4.4375 
Q 8.5 10.296875 8.5 21.578125 
z
M 31.109375 56 
z
" id="DejaVuSans-117"/>
      <path d="M 56.203125 29.59375 
L 56.203125 25.203125 
L 14.890625 25.203125 
Q 15.484375 15.921875 20.484375 11.0625 
Q 25.484375 6.203125 34.421875 6.203125 
Q 39.59375 6.203125 44.453125 7.46875 
Q 49.3125 8.734375 54.109375 11.28125 
L 54.109375 2.78125 
Q 49.265625 0.734375 44.1875 -0.34375 
Q 39.109375 -1.421875 33.890625 -1.421875 
Q 20.796875 -1.421875 13.15625 6.1875 
Q 5.515625 13.8125 5.515625 26.8125 
Q 5.515625 40.234375 12.765625 48.109375 
Q 20.015625 56 32.328125 56 
Q 43.359375 56 49.78125 48.890625 
Q 56.203125 41.796875 56.203125 29.59375 
z
M 47.21875 32.234375 
Q 47.125 39.59375 43.09375 43.984375 
Q 39.0625 48.390625 32.421875 48.390625 
Q 24.90625 48.390625 20.390625 44.140625 
Q 15.875 39.890625 15.1875 32.171875 
z
" id="DejaVuSans-101"/>
     </defs>
     <g transform="translate(11.218239 78.474609)rotate(-90)scale(0.11 -0.11)">
      <use xlink:href="#DejaVuSans-86"/>
      <use x="68.298828" xlink:href="#DejaVuSans-97"/>
      <use x="129.578125" xlink:href="#DejaVuSans-108"/>
      <use x="157.361328" xlink:href="#DejaVuSans-117"/>
      <use x="220.740234" xlink:href="#DejaVuSans-101"/>
     </g>
    </g>
   </g>
   <g id="line2d_21">
    <path clip-path="url(#p34e9dd4d02)" d="M 47.724571 17.969491 
L 49.58553 37.266365 
L 51.44649 16.40057 
L 53.307449 36.288203 
L 55.168408 37.12212 
L 57.029367 48.518002 
L 58.890326 43.147392 
L 60.751285 72.762718 
L 62.612244 63.375123 
L 64.473203 87.153957 
L 66.334162 79.143004 
L 68.195121 99.392835 
L 70.05608 91.003091 
L 71.917039 107.238518 
L 73.777999 101.303352 
L 75.638958 105.03888 
L 77.499917 113.530649 
L 79.360876 82.057586 
L 81.221835 94.8806 
L 83.082794 88.911019 
L 84.943753 68.588749 
L 86.804712 66.361116 
L 88.665671 57.300177 
L 90.52663 58.741929 
L 92.387589 38.065227 
L 94.248548 28.088733 
L 96.109508 30.679147 
L 97.970467 36.353921 
L 99.831426 6.237402 
L 101.692385 24.246604 
L 103.553344 36.141846 
L 105.414303 18.974252 
L 107.275262 36.812842 
L 109.136221 49.265283 
L 110.99718 45.814821 
L 112.858139 67.754992 
L 114.719098 52.225154 
L 116.580057 83.434788 
L 118.441016 79.178027 
L 120.301976 106.007665 
L 122.162935 95.615667 
L 124.023894 102.196741 
L 125.884853 98.771094 
L 127.745812 113.577647 
L 129.606771 95.200704 
L 131.46773 104.795275 
L 133.328689 84.444768 
L 135.189648 95.178649 
L 137.050607 76.625319 
L 138.911566 75.400606 
L 140.772525 59.579475 
L 142.633485 53.459394 
L 144.494444 35.739951 
L 146.355403 34.400595 
L 148.216362 28.770124 
L 150.077321 33.965389 
L 151.93828 9.892555 
L 153.799239 37.987569 
L 155.660198 18.209437 
L 157.521157 16.063129 
L 159.382116 41.704339 
L 161.243075 33.632072 
L 163.104034 48.618869 
L 164.964994 52.981961 
L 166.825953 76.538259 
L 168.686912 61.143051 
L 170.547871 87.786799 
L 172.40883 80.818418 
L 174.269789 100.20844 
L 176.130748 102.632516 
L 177.991707 94.123879 
L 179.852666 119.662598 
L 181.713625 92.000659 
L 183.574584 96.966955 
L 185.435543 93.892085 
L 187.296503 97.484695 
L 189.157462 74.095548 
L 191.018421 90.286965 
L 192.87938 60.284858 
L 194.740339 59.976043 
L 196.601298 40.0076 
L 198.462257 36.125773 
L 200.323216 41.535992 
L 202.184175 17.543836 
L 204.045134 35.568208 
L 205.906093 13.277906 
L 207.767052 23.34817 
L 209.628011 35.437247 
L 211.488971 19.082884 
L 213.34993 41.934749 
L 215.210889 35.231155 
L 217.071848 62.369372 
L 218.932807 49.575694 
L 220.793766 78.875103 
L 222.654725 80.331856 
L 224.515684 69.810761 
L 226.376643 106.942417 
L 228.237602 86.219881 
L 230.098561 110.874209 
L 231.95952 93.727484 
L 233.82048 113.958538 
L 235.681439 103.307682 
L 237.542398 104.779702 
L 239.403357 90.891545 
L 241.264316 71.52849 
L 243.125275 90.152055 
L 244.986234 70.69212 
L 246.847193 58.293815 
L 248.708152 47.006456 
L 250.569111 52.250321 
L 252.43007 30.105525 
L 254.291029 30.657417 
L 256.151989 14.026573 
L 258.012948 35.440881 
L 259.873907 18.224102 
L 261.734866 23.015726 
L 263.595825 17.755019 
L 265.456784 47.666361 
L 267.317743 24.835775 
L 269.178702 59.869749 
L 271.039661 52.059358 
L 272.90062 73.381839 
L 274.761579 59.844462 
L 276.622538 95.503231 
L 278.483497 80.899174 
L 280.344457 103.111081 
L 282.205416 97.25907 
L 284.066375 107.624389 
L 285.927334 104.174652 
L 287.788293 92.526472 
L 289.649252 110.489281 
L 291.510211 89.133094 
L 293.37117 88.782558 
L 295.232129 90.049745 
L 297.093088 59.464569 
L 298.954047 63.640982 
L 300.815006 63.922346 
L 302.675966 55.194636 
L 304.536925 25.472471 
L 306.397884 33.206545 
L 308.258843 29.072941 
L 310.119802 30.463006 
L 311.980761 14.039938 
L 313.84172 33.335988 
L 315.702679 15.022489 
L 317.563638 38.506346 
L 319.424597 33.759564 
L 321.285556 40.235784 
L 323.146515 64.222612 
L 325.007475 48.901319 
L 326.868434 64.97877 
L 328.729393 93.439991 
L 330.590352 87.038252 
L 332.451311 96.62722 
L 334.31227 92.519858 
L 336.173229 93.586639 
L 338.034188 105.371681 
L 339.895147 100.05528 
L 341.756106 105.421988 
L 343.617065 103.037165 
L 345.478024 97.290712 
L 347.338984 80.535655 
L 349.199943 83.692148 
L 351.060902 63.772058 
L 352.921861 53.189654 
L 354.78282 46.501685 
L 356.643779 41.615226 
L 358.504738 46.041061 
L 360.365697 21.058654 
L 362.226656 28.096944 
L 364.087615 30.193257 
L 365.948574 14.307412 
L 367.809533 19.725591 
L 369.670492 36.63622 
L 371.531452 37.727113 
L 373.392411 29.978674 
L 375.25337 46.459395 
L 377.114329 69.023182 
L 378.975288 62.773732 
L 380.836247 79.219109 
L 382.697206 74.512237 
L 384.558165 96.675006 
L 386.419124 84.182768 
L 388.280083 108.420401 
L 390.141042 113.708691 
L 392.002001 91.845517 
L 393.862961 104.859758 
L 395.72392 100.078933 
L 397.584879 97.312996 
L 399.445838 92.891302 
L 403.167756 73.688328 
L 405.028715 55.102264 
L 406.889674 49.823778 
L 408.750633 53.58528 
L 410.611592 34.42483 
L 412.472551 36.433758 
L 414.33351 22.184168 
L 416.19447 20.630555 
L 418.055429 22.104509 
L 418.055429 22.104509 
" style="fill:none;stroke:#000000;stroke-linecap:round;"/>
   </g>
   <g id="patch_3">
    <path d="M 36.614646 123.065354 
L 36.614646 2.834646 
" style="fill:none;stroke:#000000;stroke-linecap:square;stroke-linejoin:miter;"/>
   </g>
   <g id="patch_4">
    <path d="M 36.614646 123.065354 
L 429.165354 123.065354 
" style="fill:none;stroke:#000000;stroke-linecap:square;stroke-linejoin:miter;"/>
   </g>
   <g id="legend_1">
    <g id="patch_5">
     <path d="M 216.438125 20.977146 
L 249.341875 20.977146 
Q 250.941875 20.977146 250.941875 19.377146 
L 250.941875 8.434646 
Q 250.941875 6.834646 249.341875 6.834646 
L 216.438125 6.834646 
Q 214.838125 6.834646 214.838125 8.434646 
L 214.838125 19.377146 
Q 214.838125 20.977146 216.438125 20.977146 
z
" style="fill:#ffffff;stroke:#000000;stroke-linejoin:miter;"/>
    </g>
    <g id="line2d_22">
     <path d="M 218.038125 13.313396 
L 234.038125 13.313396 
" style="fill:none;stroke:#000000;stroke-linecap:square;"/>
    </g>
    <g id="line2d_23"/>
    <g id="text_12">
     <!-- ts -->
     <defs>
      <path d="M 18.3125 70.21875 
L 18.3125 54.6875 
L 36.8125 54.6875 
L 36.8125 47.703125 
L 18.3125 47.703125 
L 18.3125 18.015625 
Q 18.3125 11.328125 20.140625 9.421875 
Q 21.96875 7.515625 27.59375 7.515625 
L 36.8125 7.515625 
L 36.8125 0 
L 27.59375 0 
Q 17.1875 0 13.234375 3.875 
Q 9.28125 7.765625 9.28125 18.015625 
L 9.28125 47.703125 
L 2.6875 47.703125 
L 2.6875 54.6875 
L 9.28125 54.6875 
L 9.28125 70.21875 
z
" id="DejaVuSans-116"/>
      <path d="M 44.28125 53.078125 
L 44.28125 44.578125 
Q 40.484375 46.53125 36.375 47.5 
Q 32.28125 48.484375 27.875 48.484375 
Q 21.1875 48.484375 17.84375 46.4375 
Q 14.5 44.390625 14.5 40.28125 
Q 14.5 37.15625 16.890625 35.375 
Q 19.28125 33.59375 26.515625 31.984375 
L 29.59375 31.296875 
Q 39.15625 29.25 43.1875 25.515625 
Q 47.21875 21.78125 47.21875 15.09375 
Q 47.21875 7.46875 41.1875 3.015625 
Q 35.15625 -1.421875 24.609375 -1.421875 
Q 20.21875 -1.421875 15.453125 -0.5625 
Q 10.6875 0.296875 5.421875 2 
L 5.421875 11.28125 
Q 10.40625 8.6875 15.234375 7.390625 
Q 20.0625 6.109375 24.8125 6.109375 
Q 31.15625 6.109375 34.5625 8.28125 
Q 37.984375 10.453125 37.984375 14.40625 
Q 37.984375 18.0625 35.515625 20.015625 
Q 33.0625 21.96875 24.703125 23.78125 
L 21.578125 24.515625 
Q 13.234375 26.265625 9.515625 29.90625 
Q 5.8125 33.546875 5.8125 39.890625 
Q 5.8125 47.609375 11.28125 51.796875 
Q 16.75 56 26.8125 56 
Q 31.78125 56 36.171875 55.265625 
Q 40.578125 54.546875 44.28125 53.078125 
z
" id="DejaVuSans-115"/>
     </defs>
     <g transform="translate(240.438125 16.113396)scale(0.08 -0.08)">
      <use xlink:href="#DejaVuSans-116"/>
      <use x="39.208984" xlink:href="#DejaVuSans-115"/>
     </g>
    </g>
   </g>
  </g>
  <g id="axes_2">
   <g id="patch_6">
    <path d="M 36.614646 259.665354 
L 429.165354 259.665354 
L 429.165354 139.434646 
L 36.614646 139.434646 
z
" style="fill:#ffffff;"/>
   </g>
   <g id="matplotlib.axis_3">
    <g id="xtick_6">
     <g id="line2d_24">
      <path clip-path="url(#pd9acad3dfc)" d="M 45.863612 259.665354 
L 45.863612 139.434646 
" style="fill:none;stroke:#000000;stroke-linecap:square;stroke-opacity:0.1;stroke-width:0.5;"/>
     </g>
     <g id="line2d_25">
      <g>
       <use style="stroke:#000000;stroke-width:0.8;" x="45.863612" xlink:href="#m2883c535ab" y="259.665354"/>
      </g>
     </g>
     <g id="text_13">
      <!-- 0 -->
      <g transform="translate(43.318612 269.244104)scale(0.08 -0.08)">
       <use xlink:href="#DejaVuSans-48"/>
      </g>
     </g>
    </g>
    <g id="xtick_7">
     <g id="line2d_26">
      <path clip-path="url(#pd9acad3dfc)" d="M 138.911566 259.665354 
L 138.911566 139.434646 
" style="fill:none;stroke:#000000;stroke-linecap:square;stroke-opacity:0.1;stroke-width:0.5;"/>
     </g>
     <g id="line2d_27">
      <g>
       <use style="stroke:#000000;stroke-width:0.8;" x="138.911566" xlink:href="#m2883c535ab" y="259.665354"/>
      </g>
     </g>
     <g id="text_14">
      <!-- 50 -->
      <g transform="translate(133.821566 269.244104)scale(0.08 -0.08)">
       <use xlink:href="#DejaVuSans-53"/>
       <use x="63.623047" xlink:href="#DejaVuSans-48"/>
      </g>
     </g>
    </g>
    <g id="xtick_8">
     <g id="line2d_28">
      <path clip-path="url(#pd9acad3dfc)" d="M 231.95952 259.665354 
L 231.95952 139.434646 
" style="fill:none;stroke:#000000;stroke-linecap:square;stroke-opacity:0.1;stroke-width:0.5;"/>
     </g>
     <g id="line2d_29">
      <g>
       <use style="stroke:#000000;stroke-width:0.8;" x="231.95952" xlink:href="#m2883c535ab" y="259.665354"/>
      </g>
     </g>
     <g id="text_15">
      <!-- 100 -->
      <g transform="translate(224.32452 269.244104)scale(0.08 -0.08)">
       <use xlink:href="#DejaVuSans-49"/>
       <use x="63.623047" xlink:href="#DejaVuSans-48"/>
       <use x="127.246094" xlink:href="#DejaVuSans-48"/>
      </g>
     </g>
    </g>
    <g id="xtick_9">
     <g id="line2d_30">
      <path clip-path="url(#pd9acad3dfc)" d="M 325.007475 259.665354 
L 325.007475 139.434646 
" style="fill:none;stroke:#000000;stroke-linecap:square;stroke-opacity:0.1;stroke-width:0.5;"/>
     </g>
     <g id="line2d_31">
      <g>
       <use style="stroke:#000000;stroke-width:0.8;" x="325.007475" xlink:href="#m2883c535ab" y="259.665354"/>
      </g>
     </g>
     <g id="text_16">
      <!-- 150 -->
      <g transform="translate(317.372475 269.244104)scale(0.08 -0.08)">
       <use xlink:href="#DejaVuSans-49"/>
       <use x="63.623047" xlink:href="#DejaVuSans-53"/>
       <use x="127.246094" xlink:href="#DejaVuSans-48"/>
      </g>
     </g>
    </g>
    <g id="xtick_10">
     <g id="line2d_32">
      <path clip-path="url(#pd9acad3dfc)" d="M 418.055429 259.665354 
L 418.055429 139.434646 
" style="fill:none;stroke:#000000;stroke-linecap:square;stroke-opacity:0.1;stroke-width:0.5;"/>
     </g>
     <g id="line2d_33">
      <g>
       <use style="stroke:#000000;stroke-width:0.8;" x="418.055429" xlink:href="#m2883c535ab" y="259.665354"/>
      </g>
     </g>
     <g id="text_17">
      <!-- 200 -->
      <g transform="translate(410.420429 269.244104)scale(0.08 -0.08)">
       <use xlink:href="#DejaVuSans-50"/>
       <use x="63.623047" xlink:href="#DejaVuSans-48"/>
       <use x="127.246094" xlink:href="#DejaVuSans-48"/>
      </g>
     </g>
    </g>
    <g id="text_18">
     <!-- Time step -->
     <defs>
      <path d="M -0.296875 72.90625 
L 61.375 72.90625 
L 61.375 64.59375 
L 35.5 64.59375 
L 35.5 0 
L 25.59375 0 
L 25.59375 64.59375 
L -0.296875 64.59375 
z
" id="DejaVuSans-84"/>
      <path d="M 9.421875 54.6875 
L 18.40625 54.6875 
L 18.40625 0 
L 9.421875 0 
z
M 9.421875 75.984375 
L 18.40625 75.984375 
L 18.40625 64.59375 
L 9.421875 64.59375 
z
" id="DejaVuSans-105"/>
      <path d="M 52 44.1875 
Q 55.375 50.25 60.0625 53.125 
Q 64.75 56 71.09375 56 
Q 79.640625 56 84.28125 50.015625 
Q 88.921875 44.046875 88.921875 33.015625 
L 88.921875 0 
L 79.890625 0 
L 79.890625 32.71875 
Q 79.890625 40.578125 77.09375 44.375 
Q 74.3125 48.1875 68.609375 48.1875 
Q 61.625 48.1875 57.5625 43.546875 
Q 53.515625 38.921875 53.515625 30.90625 
L 53.515625 0 
L 44.484375 0 
L 44.484375 32.71875 
Q 44.484375 40.625 41.703125 44.40625 
Q 38.921875 48.1875 33.109375 48.1875 
Q 26.21875 48.1875 22.15625 43.53125 
Q 18.109375 38.875 18.109375 30.90625 
L 18.109375 0 
L 9.078125 0 
L 9.078125 54.6875 
L 18.109375 54.6875 
L 18.109375 46.1875 
Q 21.1875 51.21875 25.484375 53.609375 
Q 29.78125 56 35.6875 56 
Q 41.65625 56 45.828125 52.96875 
Q 50 49.953125 52 44.1875 
z
" id="DejaVuSans-109"/>
      <path id="DejaVuSans-32"/>
      <path d="M 18.109375 8.203125 
L 18.109375 -20.796875 
L 9.078125 -20.796875 
L 9.078125 54.6875 
L 18.109375 54.6875 
L 18.109375 46.390625 
Q 20.953125 51.265625 25.265625 53.625 
Q 29.59375 56 35.59375 56 
Q 45.5625 56 51.78125 48.09375 
Q 58.015625 40.1875 58.015625 27.296875 
Q 58.015625 14.40625 51.78125 6.484375 
Q 45.5625 -1.421875 35.59375 -1.421875 
Q 29.59375 -1.421875 25.265625 0.953125 
Q 20.953125 3.328125 18.109375 8.203125 
z
M 48.6875 27.296875 
Q 48.6875 37.203125 44.609375 42.84375 
Q 40.53125 48.484375 33.40625 48.484375 
Q 26.265625 48.484375 22.1875 42.84375 
Q 18.109375 37.203125 18.109375 27.296875 
Q 18.109375 17.390625 22.1875 11.75 
Q 26.265625 6.109375 33.40625 6.109375 
Q 40.53125 6.109375 44.609375 11.75 
Q 48.6875 17.390625 48.6875 27.296875 
z
" id="DejaVuSans-112"/>
     </defs>
     <g transform="translate(205.618594 283.266136)scale(0.11 -0.11)">
      <use xlink:href="#DejaVuSans-84"/>
      <use x="61.037109" xlink:href="#DejaVuSans-105"/>
      <use x="88.820312" xlink:href="#DejaVuSans-109"/>
      <use x="186.232422" xlink:href="#DejaVuSans-101"/>
      <use x="247.755859" xlink:href="#DejaVuSans-32"/>
      <use x="279.542969" xlink:href="#DejaVuSans-115"/>
      <use x="331.642578" xlink:href="#DejaVuSans-116"/>
      <use x="370.851562" xlink:href="#DejaVuSans-101"/>
      <use x="432.375" xlink:href="#DejaVuSans-112"/>
     </g>
    </g>
   </g>
   <g id="matplotlib.axis_4">
    <g id="ytick_6">
     <g id="line2d_34">
      <path clip-path="url(#pd9acad3dfc)" d="M 36.614646 241.049563 
L 429.165354 241.049563 
" style="fill:none;stroke:#000000;stroke-linecap:square;stroke-opacity:0.1;stroke-width:0.5;"/>
     </g>
     <g id="line2d_35">
      <g>
       <use style="stroke:#000000;stroke-width:0.8;" x="36.614646" xlink:href="#m925b1a8c6d" y="241.049563"/>
      </g>
     </g>
     <g id="text_19">
      <!-- -1.0 -->
      <g transform="translate(17.505896 244.088938)scale(0.08 -0.08)">
       <use xlink:href="#DejaVuSans-45"/>
       <use x="36.083984" xlink:href="#DejaVuSans-49"/>
       <use x="99.707031" xlink:href="#DejaVuSans-46"/>
       <use x="131.494141" xlink:href="#DejaVuSans-48"/>
      </g>
     </g>
    </g>
    <g id="ytick_7">
     <g id="line2d_36">
      <path clip-path="url(#pd9acad3dfc)" d="M 36.614646 220.591227 
L 429.165354 220.591227 
" style="fill:none;stroke:#000000;stroke-linecap:square;stroke-opacity:0.1;stroke-width:0.5;"/>
     </g>
     <g id="line2d_37">
      <g>
       <use style="stroke:#000000;stroke-width:0.8;" x="36.614646" xlink:href="#m925b1a8c6d" y="220.591227"/>
      </g>
     </g>
     <g id="text_20">
      <!-- -0.5 -->
      <g transform="translate(17.505896 223.630602)scale(0.08 -0.08)">
       <use xlink:href="#DejaVuSans-45"/>
       <use x="36.083984" xlink:href="#DejaVuSans-48"/>
       <use x="99.707031" xlink:href="#DejaVuSans-46"/>
       <use x="131.494141" xlink:href="#DejaVuSans-53"/>
      </g>
     </g>
    </g>
    <g id="ytick_8">
     <g id="line2d_38">
      <path clip-path="url(#pd9acad3dfc)" d="M 36.614646 200.132891 
L 429.165354 200.132891 
" style="fill:none;stroke:#000000;stroke-linecap:square;stroke-opacity:0.1;stroke-width:0.5;"/>
     </g>
     <g id="line2d_39">
      <g>
       <use style="stroke:#000000;stroke-width:0.8;" x="36.614646" xlink:href="#m925b1a8c6d" y="200.132891"/>
      </g>
     </g>
     <g id="text_21">
      <!-- 0.0 -->
      <g transform="translate(20.392146 203.172266)scale(0.08 -0.08)">
       <use xlink:href="#DejaVuSans-48"/>
       <use x="63.623047" xlink:href="#DejaVuSans-46"/>
       <use x="95.410156" xlink:href="#DejaVuSans-48"/>
      </g>
     </g>
    </g>
    <g id="ytick_9">
     <g id="line2d_40">
      <path clip-path="url(#pd9acad3dfc)" d="M 36.614646 179.674554 
L 429.165354 179.674554 
" style="fill:none;stroke:#000000;stroke-linecap:square;stroke-opacity:0.1;stroke-width:0.5;"/>
     </g>
     <g id="line2d_41">
      <g>
       <use style="stroke:#000000;stroke-width:0.8;" x="36.614646" xlink:href="#m925b1a8c6d" y="179.674554"/>
      </g>
     </g>
     <g id="text_22">
      <!-- 0.5 -->
      <g transform="translate(20.392146 182.713929)scale(0.08 -0.08)">
       <use xlink:href="#DejaVuSans-48"/>
       <use x="63.623047" xlink:href="#DejaVuSans-46"/>
       <use x="95.410156" xlink:href="#DejaVuSans-53"/>
      </g>
     </g>
    </g>
    <g id="ytick_10">
     <g id="line2d_42">
      <path clip-path="url(#pd9acad3dfc)" d="M 36.614646 159.216218 
L 429.165354 159.216218 
" style="fill:none;stroke:#000000;stroke-linecap:square;stroke-opacity:0.1;stroke-width:0.5;"/>
     </g>
     <g id="line2d_43">
      <g>
       <use style="stroke:#000000;stroke-width:0.8;" x="36.614646" xlink:href="#m925b1a8c6d" y="159.216218"/>
      </g>
     </g>
     <g id="text_23">
      <!-- 1.0 -->
      <g transform="translate(20.392146 162.255593)scale(0.08 -0.08)">
       <use xlink:href="#DejaVuSans-49"/>
       <use x="63.623047" xlink:href="#DejaVuSans-46"/>
       <use x="95.410156" xlink:href="#DejaVuSans-48"/>
      </g>
     </g>
    </g>
    <g id="text_24">
     <!-- Value -->
     <g transform="translate(11.218239 215.074609)rotate(-90)scale(0.11 -0.11)">
      <use xlink:href="#DejaVuSans-86"/>
      <use x="68.298828" xlink:href="#DejaVuSans-97"/>
      <use x="129.578125" xlink:href="#DejaVuSans-108"/>
      <use x="157.361328" xlink:href="#DejaVuSans-117"/>
      <use x="220.740234" xlink:href="#DejaVuSans-101"/>
     </g>
    </g>
   </g>
   <g id="line2d_44">
    <path clip-path="url(#pd9acad3dfc)" d="M 47.724571 171.02483 
L 49.58553 162.072471 
L 51.44649 167.063006 
L 53.307449 159.94817 
L 55.168408 142.837402 
L 58.890326 167.279147 
L 60.751285 164.696944 
L 62.612244 174.587569 
L 64.473203 183.101685 
L 66.334162 188.659358 
L 68.195121 200.822612 
L 70.05608 196.884858 
L 71.917039 223.753957 
L 73.777999 238.796741 
L 75.638958 215.819109 
L 77.499917 250.558538 
L 79.360876 231.800704 
L 81.221835 241.971681 
L 83.082794 236.65528 
L 84.943753 250.177647 
L 86.804712 233.275006 
L 88.665671 227.603091 
L 90.52663 216.931856 
L 92.387589 217.135655 
L 94.248548 199.975123 
L 96.109508 188.825154 
L 97.970467 182.414821 
L 99.831426 178.215226 
L 101.692385 166.793257 
L 103.553344 173.412842 
L 105.414303 149.877906 
L 107.275262 153.00057 
L 109.136221 150.626573 
L 110.99718 154.569491 
L 112.858139 173.23622 
L 114.719098 172.339951 
L 116.580057 175.106346 
L 118.441016 189.789654 
L 120.301976 197.743051 
L 122.162935 199.373732 
L 124.023894 219.791934 
L 125.884853 217.499174 
L 127.745812 226.752055 
L 129.606771 232.103231 
L 131.46773 247.089281 
L 133.328689 239.711081 
L 135.189648 236.80844 
L 137.050607 243.542417 
L 138.911566 229.126472 
L 140.772525 231.778649 
L 142.633485 210.288328 
L 144.494444 230.186639 
L 146.355403 196.576043 
L 148.216362 205.188749 
L 150.077321 185.501319 
L 151.93828 178.534749 
L 153.799239 174.327113 
L 155.660198 158.784168 
L 157.521157 172.037247 
L 159.382116 164.688733 
L 161.243075 150.639938 
L 163.104034 161.435775 
L 166.825953 171.831155 
L 168.686912 174.665227 
L 170.547871 183.606456 
L 172.40883 185.865283 
L 174.269789 205.623182 
L 176.130748 202.961116 
L 177.991707 220.292148 
L 179.852666 220.034788 
L 181.713625 237.903352 
L 183.574584 231.4806 
L 185.435543 244.224389 
L 187.296503 236.678933 
L 189.157462 241.395275 
L 191.018421 233.890712 
L 192.87938 230.039991 
L 194.740339 225.733094 
L 196.601298 226.649745 
L 198.462257 209.981839 
L 200.323216 204.354992 
L 202.184175 190.059394 
L 204.045134 188.850321 
L 205.906093 173.866365 
L 207.767052 172.888203 
L 209.628011 166.705525 
L 211.488971 165.370124 
L 213.34993 155.574252 
L 215.210889 165.672941 
L 217.071848 156.325591 
L 218.932807 170.565389 
L 220.793766 171.000595 
L 222.654725 182.641061 
L 224.515684 185.118002 
L 226.376643 200.372058 
L 228.237602 200.240982 
L 230.098561 215.778027 
L 231.95952 221.044768 
L 233.82048 225.511019 
L 235.681439 235.371094 
L 237.542398 235.992835 
L 239.403357 242.021988 
L 241.264316 241.63888 
L 243.125275 234.084695 
L 244.986234 232.215667 
L 246.847193 228.445517 
L 248.708152 225.382558 
L 250.569111 217.418418 
L 252.43007 207.29212 
L 254.291029 196.444462 
L 256.151989 190.18528 
L 258.012948 178.135992 
L 259.873907 173.033758 
L 261.734866 172.725773 
L 263.595825 172.741846 
L 265.456784 150.907412 
L 267.317743 170.359564 
L 269.178702 154.143836 
L 271.039661 169.806545 
L 272.90062 167.257417 
L 274.761579 178.304339 
L 276.622538 183.059395 
L 278.483497 194.893815 
L 280.344457 191.702264 
L 282.205416 218.657586 
L 284.066375 215.475103 
L 285.927334 226.886965 
L 287.788293 230.492085 
L 289.649252 233.566955 
L 291.510211 241.459758 
L 293.37117 242.607665 
L 295.232129 245.020401 
L 297.093088 230.723879 
L 298.954047 239.232516 
L 300.815006 229.119858 
L 302.675966 213.225319 
L 304.536925 212.000606 
L 306.397884 201.57877 
L 308.258843 200.522346 
L 310.119802 172.953921 
L 311.980761 185.218869 
L 313.84172 169.935988 
L 315.702679 160.846604 
L 317.563638 155.682884 
L 319.424597 158.704509 
L 321.285556 157.230555 
L 323.146515 157.658654 
L 325.007475 154.355019 
L 326.868434 179.747392 
L 328.729393 172.168208 
L 330.590352 191.794636 
L 332.451311 193.900177 
L 334.31227 208.12849 
L 336.173229 211.112237 
L 338.034188 228.600659 
L 339.895147 222.819881 
L 341.756106 247.474209 
L 343.617065 229.491302 
L 345.478024 250.308691 
L 347.338984 233.85907 
L 349.199943 250.130649 
L 351.060902 240.774652 
L 352.921861 223.638252 
L 354.78282 227.491545 
L 356.643779 215.743004 
L 358.504738 206.410761 
L 360.365697 196.469749 
L 362.226656 196.064569 
L 364.087615 173.72212 
L 365.948574 186.423778 
L 367.809533 151.622489 
L 369.670492 159.615726 
L 371.531452 154.809437 
L 373.392411 152.663129 
L 375.25337 146.492555 
L 377.114329 176.6076 
L 378.975288 170.232072 
L 380.836247 172.040881 
L 382.697206 176.835784 
L 384.558165 189.581961 
L 386.419124 198.969372 
L 388.280083 195.341929 
L 390.141042 233.22722 
L 392.002001 209.362718 
L 393.862961 256.262598 
L 395.72392 220.782768 
L 397.584879 239.637165 
L 399.445838 243.838518 
L 401.306797 239.907682 
L 403.167756 233.912996 
L 405.028715 241.379702 
L 406.889674 230.327484 
L 408.750633 224.386799 
L 410.611592 213.138259 
L 412.472551 210.695548 
L 414.33351 186.175694 
L 416.19447 196.179475 
L 418.055429 184.266361 
L 418.055429 184.266361 
" style="fill:none;stroke:#009afa;stroke-linecap:round;"/>
   </g>
   <g id="patch_7">
    <path d="M 36.614646 259.665354 
L 36.614646 139.434646 
" style="fill:none;stroke:#000000;stroke-linecap:square;stroke-linejoin:miter;"/>
   </g>
   <g id="patch_8">
    <path d="M 36.614646 259.665354 
L 429.165354 259.665354 
" style="fill:none;stroke:#000000;stroke-linecap:square;stroke-linejoin:miter;"/>
   </g>
   <g id="legend_2">
    <g id="patch_9">
     <path d="M 42.214646 157.577146 
L 97.117146 157.577146 
Q 98.717146 157.577146 98.717146 155.977146 
L 98.717146 145.034646 
Q 98.717146 143.434646 97.117146 143.434646 
L 42.214646 143.434646 
Q 40.614646 143.434646 40.614646 145.034646 
L 40.614646 155.977146 
Q 40.614646 157.577146 42.214646 157.577146 
z
" style="fill:#ffffff;stroke:#000000;stroke-linejoin:miter;"/>
    </g>
    <g id="line2d_45">
     <path d="M 43.814646 149.913396 
L 59.814646 149.913396 
" style="fill:none;stroke:#009afa;stroke-linecap:square;"/>
    </g>
    <g id="line2d_46"/>
    <g id="text_25">
     <!-- aaft(ts) -->
     <defs>
      <path d="M 37.109375 75.984375 
L 37.109375 68.5 
L 28.515625 68.5 
Q 23.6875 68.5 21.796875 66.546875 
Q 19.921875 64.59375 19.921875 59.515625 
L 19.921875 54.6875 
L 34.71875 54.6875 
L 34.71875 47.703125 
L 19.921875 47.703125 
L 19.921875 0 
L 10.890625 0 
L 10.890625 47.703125 
L 2.296875 47.703125 
L 2.296875 54.6875 
L 10.890625 54.6875 
L 10.890625 58.5 
Q 10.890625 67.625 15.140625 71.796875 
Q 19.390625 75.984375 28.609375 75.984375 
z
" id="DejaVuSans-102"/>
      <path d="M 31 75.875 
Q 24.46875 64.65625 21.28125 53.65625 
Q 18.109375 42.671875 18.109375 31.390625 
Q 18.109375 20.125 21.3125 9.0625 
Q 24.515625 -2 31 -13.1875 
L 23.1875 -13.1875 
Q 15.875 -1.703125 12.234375 9.375 
Q 8.59375 20.453125 8.59375 31.390625 
Q 8.59375 42.28125 12.203125 53.3125 
Q 15.828125 64.359375 23.1875 75.875 
z
" id="DejaVuSans-40"/>
      <path d="M 8.015625 75.875 
L 15.828125 75.875 
Q 23.140625 64.359375 26.78125 53.3125 
Q 30.421875 42.28125 30.421875 31.390625 
Q 30.421875 20.453125 26.78125 9.375 
Q 23.140625 -1.703125 15.828125 -13.1875 
L 8.015625 -13.1875 
Q 14.5 -2 17.703125 9.0625 
Q 20.90625 20.125 20.90625 31.390625 
Q 20.90625 42.671875 17.703125 53.65625 
Q 14.5 64.65625 8.015625 75.875 
z
" id="DejaVuSans-41"/>
     </defs>
     <g transform="translate(66.214646 152.713396)scale(0.08 -0.08)">
      <use xlink:href="#DejaVuSans-97"/>
      <use x="61.279297" xlink:href="#DejaVuSans-97"/>
      <use x="122.558594" xlink:href="#DejaVuSans-102"/>
      <use x="157.748047" xlink:href="#DejaVuSans-116"/>
      <use x="196.957031" xlink:href="#DejaVuSans-40"/>
      <use x="235.970703" xlink:href="#DejaVuSans-116"/>
      <use x="275.179688" xlink:href="#DejaVuSans-115"/>
      <use x="327.279297" xlink:href="#DejaVuSans-41"/>
     </g>
    </g>
   </g>
  </g>
 </g>
 <defs>
  <clipPath id="p34e9dd4d02">
   <rect height="120.230709" width="392.550709" x="36.614646" y="2.834646"/>
  </clipPath>
  <clipPath id="pd9acad3dfc">
   <rect height="120.230709" width="392.550709" x="36.614646" y="139.434646"/>
  </clipPath>
 </defs>
</svg>
