<?xml version="1.0" encoding="utf-8" standalone="no"?>
<!DOCTYPE svg PUBLIC "-//W3C//DTD SVG 1.1//EN"
  "http://www.w3.org/Graphics/SVG/1.1/DTD/svg11.dtd">
<!-- Created with matplotlib (https://matplotlib.org/) -->
<svg height="288pt" version="1.1" viewBox="0 0 432 288" width="432pt" xmlns="http://www.w3.org/2000/svg" xmlns:xlink="http://www.w3.org/1999/xlink">
 <defs>
  <style type="text/css">
*{stroke-linecap:butt;stroke-linejoin:round;}
  </style>
 </defs>
 <g id="figure_1">
  <g id="patch_1">
   <path d="M 0 288 
L 432 288 
L 432 0 
L 0 0 
z
" style="fill:#ffffff;"/>
  </g>
  <g id="axes_1">
   <g id="patch_2">
    <path d="M 36.614646 123.065354 
L 429.165354 123.065354 
L 429.165354 2.834646 
L 36.614646 2.834646 
z
" style="fill:#ffffff;"/>
   </g>
   <g id="matplotlib.axis_1">
    <g id="xtick_1">
     <g id="line2d_1">
      <path clip-path="url(#p8b586a5812)" d="M 45.863612 123.065354 
L 45.863612 2.834646 
" style="fill:none;stroke:#000000;stroke-linecap:square;stroke-opacity:0.1;stroke-width:0.5;"/>
     </g>
     <g id="line2d_2">
      <defs>
       <path d="M 0 0 
L 0 -3.5 
" id="me12e224f75" style="stroke:#000000;stroke-width:0.8;"/>
      </defs>
      <g>
       <use style="stroke:#000000;stroke-width:0.8;" x="45.863612" xlink:href="#me12e224f75" y="123.065354"/>
      </g>
     </g>
     <g id="text_1">
      <!-- 0 -->
      <defs>
       <path d="M 31.78125 66.40625 
Q 24.171875 66.40625 20.328125 58.90625 
Q 16.5 51.421875 16.5 36.375 
Q 16.5 21.390625 20.328125 13.890625 
Q 24.171875 6.390625 31.78125 6.390625 
Q 39.453125 6.390625 43.28125 13.890625 
Q 47.125 21.390625 47.125 36.375 
Q 47.125 51.421875 43.28125 58.90625 
Q 39.453125 66.40625 31.78125 66.40625 
z
M 31.78125 74.21875 
Q 44.046875 74.21875 50.515625 64.515625 
Q 56.984375 54.828125 56.984375 36.375 
Q 56.984375 17.96875 50.515625 8.265625 
Q 44.046875 -1.421875 31.78125 -1.421875 
Q 19.53125 -1.421875 13.0625 8.265625 
Q 6.59375 17.96875 6.59375 36.375 
Q 6.59375 54.828125 13.0625 64.515625 
Q 19.53125 74.21875 31.78125 74.21875 
z
" id="DejaVuSans-48"/>
      </defs>
      <g transform="translate(43.318612 132.644104)scale(0.08 -0.08)">
       <use xlink:href="#DejaVuSans-48"/>
      </g>
     </g>
    </g>
    <g id="xtick_2">
     <g id="line2d_3">
      <path clip-path="url(#p8b586a5812)" d="M 138.911566 123.065354 
L 138.911566 2.834646 
" style="fill:none;stroke:#000000;stroke-linecap:square;stroke-opacity:0.1;stroke-width:0.5;"/>
     </g>
     <g id="line2d_4">
      <g>
       <use style="stroke:#000000;stroke-width:0.8;" x="138.911566" xlink:href="#me12e224f75" y="123.065354"/>
      </g>
     </g>
     <g id="text_2">
      <!-- 50 -->
      <defs>
       <path d="M 10.796875 72.90625 
L 49.515625 72.90625 
L 49.515625 64.59375 
L 19.828125 64.59375 
L 19.828125 46.734375 
Q 21.96875 47.46875 24.109375 47.828125 
Q 26.265625 48.1875 28.421875 48.1875 
Q 40.625 48.1875 47.75 41.5 
Q 54.890625 34.8125 54.890625 23.390625 
Q 54.890625 11.625 47.5625 5.09375 
Q 40.234375 -1.421875 26.90625 -1.421875 
Q 22.3125 -1.421875 17.546875 -0.640625 
Q 12.796875 0.140625 7.71875 1.703125 
L 7.71875 11.625 
Q 12.109375 9.234375 16.796875 8.0625 
Q 21.484375 6.890625 26.703125 6.890625 
Q 35.15625 6.890625 40.078125 11.328125 
Q 45.015625 15.765625 45.015625 23.390625 
Q 45.015625 31 40.078125 35.4375 
Q 35.15625 39.890625 26.703125 39.890625 
Q 22.75 39.890625 18.8125 39.015625 
Q 14.890625 38.140625 10.796875 36.28125 
z
" id="DejaVuSans-53"/>
      </defs>
      <g transform="translate(133.821566 132.644104)scale(0.08 -0.08)">
       <use xlink:href="#DejaVuSans-53"/>
       <use x="63.623047" xlink:href="#DejaVuSans-48"/>
      </g>
     </g>
    </g>
    <g id="xtick_3">
     <g id="line2d_5">
      <path clip-path="url(#p8b586a5812)" d="M 231.95952 123.065354 
L 231.95952 2.834646 
" style="fill:none;stroke:#000000;stroke-linecap:square;stroke-opacity:0.1;stroke-width:0.5;"/>
     </g>
     <g id="line2d_6">
      <g>
       <use style="stroke:#000000;stroke-width:0.8;" x="231.95952" xlink:href="#me12e224f75" y="123.065354"/>
      </g>
     </g>
     <g id="text_3">
      <!-- 100 -->
      <defs>
       <path d="M 12.40625 8.296875 
L 28.515625 8.296875 
L 28.515625 63.921875 
L 10.984375 60.40625 
L 10.984375 69.390625 
L 28.421875 72.90625 
L 38.28125 72.90625 
L 38.28125 8.296875 
L 54.390625 8.296875 
L 54.390625 0 
L 12.40625 0 
z
" id="DejaVuSans-49"/>
      </defs>
      <g transform="translate(224.32452 132.644104)scale(0.08 -0.08)">
       <use xlink:href="#DejaVuSans-49"/>
       <use x="63.623047" xlink:href="#DejaVuSans-48"/>
       <use x="127.246094" xlink:href="#DejaVuSans-48"/>
      </g>
     </g>
    </g>
    <g id="xtick_4">
     <g id="line2d_7">
      <path clip-path="url(#p8b586a5812)" d="M 325.007475 123.065354 
L 325.007475 2.834646 
" style="fill:none;stroke:#000000;stroke-linecap:square;stroke-opacity:0.1;stroke-width:0.5;"/>
     </g>
     <g id="line2d_8">
      <g>
       <use style="stroke:#000000;stroke-width:0.8;" x="325.007475" xlink:href="#me12e224f75" y="123.065354"/>
      </g>
     </g>
     <g id="text_4">
      <!-- 150 -->
      <g transform="translate(317.372475 132.644104)scale(0.08 -0.08)">
       <use xlink:href="#DejaVuSans-49"/>
       <use x="63.623047" xlink:href="#DejaVuSans-53"/>
       <use x="127.246094" xlink:href="#DejaVuSans-48"/>
      </g>
     </g>
    </g>
    <g id="xtick_5">
     <g id="line2d_9">
      <path clip-path="url(#p8b586a5812)" d="M 418.055429 123.065354 
L 418.055429 2.834646 
" style="fill:none;stroke:#000000;stroke-linecap:square;stroke-opacity:0.1;stroke-width:0.5;"/>
     </g>
     <g id="line2d_10">
      <g>
       <use style="stroke:#000000;stroke-width:0.8;" x="418.055429" xlink:href="#me12e224f75" y="123.065354"/>
      </g>
     </g>
     <g id="text_5">
      <!-- 200 -->
      <defs>
       <path d="M 19.1875 8.296875 
L 53.609375 8.296875 
L 53.609375 0 
L 7.328125 0 
L 7.328125 8.296875 
Q 12.9375 14.109375 22.625 23.890625 
Q 32.328125 33.6875 34.8125 36.53125 
Q 39.546875 41.84375 41.421875 45.53125 
Q 43.3125 49.21875 43.3125 52.78125 
Q 43.3125 58.59375 39.234375 62.25 
Q 35.15625 65.921875 28.609375 65.921875 
Q 23.96875 65.921875 18.8125 64.3125 
Q 13.671875 62.703125 7.8125 59.421875 
L 7.8125 69.390625 
Q 13.765625 71.78125 18.9375 73 
Q 24.125 74.21875 28.421875 74.21875 
Q 39.75 74.21875 46.484375 68.546875 
Q 53.21875 62.890625 53.21875 53.421875 
Q 53.21875 48.921875 51.53125 44.890625 
Q 49.859375 40.875 45.40625 35.40625 
Q 44.1875 33.984375 37.640625 27.21875 
Q 31.109375 20.453125 19.1875 8.296875 
z
" id="DejaVuSans-50"/>
      </defs>
      <g transform="translate(410.420429 132.644104)scale(0.08 -0.08)">
       <use xlink:href="#DejaVuSans-50"/>
       <use x="63.623047" xlink:href="#DejaVuSans-48"/>
       <use x="127.246094" xlink:href="#DejaVuSans-48"/>
      </g>
     </g>
    </g>
   </g>
   <g id="matplotlib.axis_2">
    <g id="ytick_1">
     <g id="line2d_11">
      <path clip-path="url(#p8b586a5812)" d="M 36.614646 105.504378 
L 429.165354 105.504378 
" style="fill:none;stroke:#000000;stroke-linecap:square;stroke-opacity:0.1;stroke-width:0.5;"/>
     </g>
     <g id="line2d_12">
      <defs>
       <path d="M 0 0 
L 3.5 0 
" id="mfbd760c00f" style="stroke:#000000;stroke-width:0.8;"/>
      </defs>
      <g>
       <use style="stroke:#000000;stroke-width:0.8;" x="36.614646" xlink:href="#mfbd760c00f" y="105.504378"/>
      </g>
     </g>
     <g id="text_6">
      <!-- -1.0 -->
      <defs>
       <path d="M 4.890625 31.390625 
L 31.203125 31.390625 
L 31.203125 23.390625 
L 4.890625 23.390625 
z
" id="DejaVuSans-45"/>
       <path d="M 10.6875 12.40625 
L 21 12.40625 
L 21 0 
L 10.6875 0 
z
" id="DejaVuSans-46"/>
      </defs>
      <g transform="translate(17.505896 108.543753)scale(0.08 -0.08)">
       <use xlink:href="#DejaVuSans-45"/>
       <use x="36.083984" xlink:href="#DejaVuSans-49"/>
       <use x="99.707031" xlink:href="#DejaVuSans-46"/>
       <use x="131.494141" xlink:href="#DejaVuSans-48"/>
      </g>
     </g>
    </g>
    <g id="ytick_2">
     <g id="line2d_13">
      <path clip-path="url(#p8b586a5812)" d="M 36.614646 83.894543 
L 429.165354 83.894543 
" style="fill:none;stroke:#000000;stroke-linecap:square;stroke-opacity:0.1;stroke-width:0.5;"/>
     </g>
     <g id="line2d_14">
      <g>
       <use style="stroke:#000000;stroke-width:0.8;" x="36.614646" xlink:href="#mfbd760c00f" y="83.894543"/>
      </g>
     </g>
     <g id="text_7">
      <!-- -0.5 -->
      <g transform="translate(17.505896 86.933918)scale(0.08 -0.08)">
       <use xlink:href="#DejaVuSans-45"/>
       <use x="36.083984" xlink:href="#DejaVuSans-48"/>
       <use x="99.707031" xlink:href="#DejaVuSans-46"/>
       <use x="131.494141" xlink:href="#DejaVuSans-53"/>
      </g>
     </g>
    </g>
    <g id="ytick_3">
     <g id="line2d_15">
      <path clip-path="url(#p8b586a5812)" d="M 36.614646 62.284709 
L 429.165354 62.284709 
" style="fill:none;stroke:#000000;stroke-linecap:square;stroke-opacity:0.1;stroke-width:0.5;"/>
     </g>
     <g id="line2d_16">
      <g>
       <use style="stroke:#000000;stroke-width:0.8;" x="36.614646" xlink:href="#mfbd760c00f" y="62.284709"/>
      </g>
     </g>
     <g id="text_8">
      <!-- 0.0 -->
      <g transform="translate(20.392146 65.324084)scale(0.08 -0.08)">
       <use xlink:href="#DejaVuSans-48"/>
       <use x="63.623047" xlink:href="#DejaVuSans-46"/>
       <use x="95.410156" xlink:href="#DejaVuSans-48"/>
      </g>
     </g>
    </g>
    <g id="ytick_4">
     <g id="line2d_17">
      <path clip-path="url(#p8b586a5812)" d="M 36.614646 40.674874 
L 429.165354 40.674874 
" style="fill:none;stroke:#000000;stroke-linecap:square;stroke-opacity:0.1;stroke-width:0.5;"/>
     </g>
     <g id="line2d_18">
      <g>
       <use style="stroke:#000000;stroke-width:0.8;" x="36.614646" xlink:href="#mfbd760c00f" y="40.674874"/>
      </g>
     </g>
     <g id="text_9">
      <!-- 0.5 -->
      <g transform="translate(20.392146 43.714249)scale(0.08 -0.08)">
       <use xlink:href="#DejaVuSans-48"/>
       <use x="63.623047" xlink:href="#DejaVuSans-46"/>
       <use x="95.410156" xlink:href="#DejaVuSans-53"/>
      </g>
     </g>
    </g>
    <g id="ytick_5">
     <g id="line2d_19">
      <path clip-path="url(#p8b586a5812)" d="M 36.614646 19.06504 
L 429.165354 19.06504 
" style="fill:none;stroke:#000000;stroke-linecap:square;stroke-opacity:0.1;stroke-width:0.5;"/>
     </g>
     <g id="line2d_20">
      <g>
       <use style="stroke:#000000;stroke-width:0.8;" x="36.614646" xlink:href="#mfbd760c00f" y="19.06504"/>
      </g>
     </g>
     <g id="text_10">
      <!-- 1.0 -->
      <g transform="translate(20.392146 22.104415)scale(0.08 -0.08)">
       <use xlink:href="#DejaVuSans-49"/>
       <use x="63.623047" xlink:href="#DejaVuSans-46"/>
       <use x="95.410156" xlink:href="#DejaVuSans-48"/>
      </g>
     </g>
    </g>
    <g id="text_11">
     <!-- Value -->
     <defs>
      <path d="M 28.609375 0 
L 0.78125 72.90625 
L 11.078125 72.90625 
L 34.1875 11.53125 
L 57.328125 72.90625 
L 67.578125 72.90625 
L 39.796875 0 
z
" id="DejaVuSans-86"/>
      <path d="M 34.28125 27.484375 
Q 23.390625 27.484375 19.1875 25 
Q 14.984375 22.515625 14.984375 16.5 
Q 14.984375 11.71875 18.140625 8.90625 
Q 21.296875 6.109375 26.703125 6.109375 
Q 34.1875 6.109375 38.703125 11.40625 
Q 43.21875 16.703125 43.21875 25.484375 
L 43.21875 27.484375 
z
M 52.203125 31.203125 
L 52.203125 0 
L 43.21875 0 
L 43.21875 8.296875 
Q 40.140625 3.328125 35.546875 0.953125 
Q 30.953125 -1.421875 24.3125 -1.421875 
Q 15.921875 -1.421875 10.953125 3.296875 
Q 6 8.015625 6 15.921875 
Q 6 25.140625 12.171875 29.828125 
Q 18.359375 34.515625 30.609375 34.515625 
L 43.21875 34.515625 
L 43.21875 35.40625 
Q 43.21875 41.609375 39.140625 45 
Q 35.0625 48.390625 27.6875 48.390625 
Q 23 48.390625 18.546875 47.265625 
Q 14.109375 46.140625 10.015625 43.890625 
L 10.015625 52.203125 
Q 14.9375 54.109375 19.578125 55.046875 
Q 24.21875 56 28.609375 56 
Q 40.484375 56 46.34375 49.84375 
Q 52.203125 43.703125 52.203125 31.203125 
z
" id="DejaVuSans-97"/>
      <path d="M 9.421875 75.984375 
L 18.40625 75.984375 
L 18.40625 0 
L 9.421875 0 
z
" id="DejaVuSans-108"/>
      <path d="M 8.5 21.578125 
L 8.5 54.6875 
L 17.484375 54.6875 
L 17.484375 21.921875 
Q 17.484375 14.15625 20.5 10.265625 
Q 23.53125 6.390625 29.59375 6.390625 
Q 36.859375 6.390625 41.078125 11.03125 
Q 45.3125 15.671875 45.3125 23.6875 
L 45.3125 54.6875 
L 54.296875 54.6875 
L 54.296875 0 
L 45.3125 0 
L 45.3125 8.40625 
Q 42.046875 3.421875 37.71875 1 
Q 33.40625 -1.421875 27.6875 -1.421875 
Q 18.265625 -1.421875 13.375 4.4375 
Q 8.5 10.296875 8.5 21.578125 
z
M 31.109375 56 
z
" id="DejaVuSans-117"/>
      <path d="M 56.203125 29.59375 
L 56.203125 25.203125 
L 14.890625 25.203125 
Q 15.484375 15.921875 20.484375 11.0625 
Q 25.484375 6.203125 34.421875 6.203125 
Q 39.59375 6.203125 44.453125 7.46875 
Q 49.3125 8.734375 54.109375 11.28125 
L 54.109375 2.78125 
Q 49.265625 0.734375 44.1875 -0.34375 
Q 39.109375 -1.421875 33.890625 -1.421875 
Q 20.796875 -1.421875 13.15625 6.1875 
Q 5.515625 13.8125 5.515625 26.8125 
Q 5.515625 40.234375 12.765625 48.109375 
Q 20.015625 56 32.328125 56 
Q 43.359375 56 49.78125 48.890625 
Q 56.203125 41.796875 56.203125 29.59375 
z
M 47.21875 32.234375 
Q 47.125 39.59375 43.09375 43.984375 
Q 39.0625 48.390625 32.421875 48.390625 
Q 24.90625 48.390625 20.390625 44.140625 
Q 15.875 39.890625 15.1875 32.171875 
z
" id="DejaVuSans-101"/>
     </defs>
     <g transform="translate(11.218239 78.474609)rotate(-90)scale(0.11 -0.11)">
      <use xlink:href="#DejaVuSans-86"/>
      <use x="68.298828" xlink:href="#DejaVuSans-97"/>
      <use x="129.578125" xlink:href="#DejaVuSans-108"/>
      <use x="157.361328" xlink:href="#DejaVuSans-117"/>
      <use x="220.740234" xlink:href="#DejaVuSans-101"/>
     </g>
    </g>
   </g>
   <g id="line2d_21">
    <path clip-path="url(#p8b586a5812)" d="M 47.724571 26.057751 
L 49.58553 22.569968 
L 51.44649 16.599033 
L 53.307449 20.165351 
L 55.168408 33.478108 
L 58.890326 56.53934 
L 60.751285 56.647547 
L 62.612244 69.028489 
L 64.473203 87.896881 
L 66.334162 87.381499 
L 68.195121 86.100673 
L 70.05608 102.819124 
L 71.917039 102.040182 
L 73.777999 108.079125 
L 75.638958 105.870445 
L 77.499917 102.501388 
L 79.360876 103.43263 
L 81.221835 90.100419 
L 83.082794 74.732348 
L 84.943753 85.939411 
L 86.804712 55.902721 
L 88.665671 72.387601 
L 90.52663 46.752469 
L 92.387589 28.493524 
L 94.248548 39.936349 
L 96.109508 23.507911 
L 97.970467 11.337365 
L 99.831426 12.322353 
L 101.692385 19.331325 
L 103.553344 31.77426 
L 105.414303 29.555436 
L 107.275262 28.873165 
L 109.136221 33.181524 
L 110.99718 41.368279 
L 112.858139 66.161076 
L 114.719098 77.835456 
L 116.580057 63.326952 
L 118.441016 88.116788 
L 120.301976 89.911163 
L 122.162935 98.670019 
L 124.023894 99.446895 
L 125.884853 118.817074 
L 127.745812 100.645953 
L 129.606771 94.523747 
L 131.46773 100.711294 
L 133.328689 99.700641 
L 135.189648 94.230815 
L 137.050607 70.051547 
L 138.911566 76.363331 
L 140.772525 53.641051 
L 142.633485 43.62951 
L 144.494444 53.08528 
L 146.355403 24.546495 
L 148.216362 37.32869 
L 150.077321 23.689848 
L 151.93828 6.237402 
L 153.799239 34.015173 
L 155.660198 8.177842 
L 157.521157 24.99108 
L 159.382116 33.698163 
L 161.243075 35.913899 
L 163.104034 47.618898 
L 164.964994 51.367288 
L 166.825953 57.928849 
L 168.686912 81.393499 
L 170.547871 71.624421 
L 172.40883 84.906676 
L 174.269789 103.667896 
L 176.130748 98.975263 
L 177.991707 96.020431 
L 181.713625 114.135658 
L 183.574584 107.498802 
L 185.435543 90.097849 
L 187.296503 96.401063 
L 189.157462 66.246762 
L 191.018421 85.949643 
L 192.87938 65.717654 
L 194.740339 58.472037 
L 196.601298 28.942671 
L 198.462257 53.748043 
L 200.323216 22.266778 
L 202.184175 25.958515 
L 204.045134 9.043783 
L 205.906093 28.506004 
L 207.767052 27.789365 
L 209.628011 11.168045 
L 211.488971 28.429554 
L 213.34993 34.432518 
L 215.210889 29.429851 
L 217.071848 58.58111 
L 218.932807 60.8781 
L 220.793766 62.353023 
L 222.654725 87.614044 
L 224.515684 87.128752 
L 226.376643 82.398553 
L 228.237602 99.504908 
L 230.098561 102.619416 
L 231.95952 110.316862 
L 233.82048 109.823836 
L 235.681439 95.746395 
L 237.542398 107.215755 
L 239.403357 90.844916 
L 241.264316 81.596291 
L 243.125275 85.932533 
L 244.986234 68.541865 
L 246.847193 57.192682 
L 248.708152 39.852365 
L 250.569111 31.72375 
L 252.43007 44.375081 
L 254.291029 16.406132 
L 256.151989 34.87204 
L 258.012948 10.192645 
L 259.873907 25.126635 
L 261.734866 21.864648 
L 263.595825 29.454961 
L 265.456784 23.681276 
L 267.317743 27.450952 
L 269.178702 58.90282 
L 271.039661 53.204764 
L 272.90062 58.687299 
L 274.761579 73.8139 
L 276.622538 80.250961 
L 278.483497 92.41351 
L 280.344457 101.7988 
L 282.205416 88.515952 
L 284.066375 107.242386 
L 285.927334 119.662598 
L 287.788293 94.123059 
L 289.649252 98.771955 
L 291.510211 94.853156 
L 293.37117 103.99671 
L 295.232129 78.473158 
L 297.093088 61.484328 
L 298.954047 59.547261 
L 300.815006 55.564164 
L 302.675966 39.264843 
L 304.536925 48.981004 
L 306.397884 16.487269 
L 308.258843 24.264774 
L 310.119802 20.105168 
L 311.980761 18.020166 
L 313.84172 18.897158 
L 315.702679 38.185705 
L 317.563638 22.308815 
L 319.424597 38.675383 
L 321.285556 36.033195 
L 323.146515 53.313229 
L 325.007475 56.933959 
L 326.868434 76.322609 
L 328.729393 76.473788 
L 330.590352 85.445265 
L 332.451311 82.955193 
L 334.31227 98.617237 
L 336.173229 118.913098 
L 338.034188 95.710257 
L 339.895147 100.053737 
L 341.756106 115.600202 
L 343.617065 87.588028 
L 345.478024 94.392533 
L 347.338984 86.377132 
L 349.199943 75.48425 
L 351.060902 67.705303 
L 352.921861 50.124653 
L 354.78282 57.528262 
L 356.643779 34.371359 
L 358.504738 42.702232 
L 360.365697 13.973958 
L 362.226656 24.993048 
L 364.087615 14.6538 
L 365.948574 23.94259 
L 367.809533 13.984034 
L 369.670492 33.673355 
L 371.531452 24.503389 
L 373.392411 35.92661 
L 375.25337 61.284481 
L 377.114329 44.302232 
L 378.975288 62.60999 
L 380.836247 74.702055 
L 382.697206 91.310669 
L 384.558165 79.308929 
L 386.419124 106.160617 
L 388.280083 107.427385 
L 390.141042 105.869399 
L 393.862961 94.914279 
L 395.72392 100.959058 
L 397.584879 97.964365 
L 399.445838 83.529505 
L 401.306797 83.585809 
L 403.167756 76.803482 
L 405.028715 60.219692 
L 406.889674 44.814324 
L 408.750633 57.108336 
L 410.611592 29.728982 
L 412.472551 28.291415 
L 414.33351 27.765803 
L 416.19447 20.056857 
L 418.055429 15.749942 
L 418.055429 15.749942 
" style="fill:none;stroke:#000000;stroke-linecap:round;"/>
   </g>
   <g id="patch_3">
    <path d="M 36.614646 123.065354 
L 36.614646 2.834646 
" style="fill:none;stroke:#000000;stroke-linecap:square;stroke-linejoin:miter;"/>
   </g>
   <g id="patch_4">
    <path d="M 36.614646 123.065354 
L 429.165354 123.065354 
" style="fill:none;stroke:#000000;stroke-linecap:square;stroke-linejoin:miter;"/>
   </g>
   <g id="legend_1">
    <g id="patch_5">
     <path d="M 216.438125 20.977146 
L 249.341875 20.977146 
Q 250.941875 20.977146 250.941875 19.377146 
L 250.941875 8.434646 
Q 250.941875 6.834646 249.341875 6.834646 
L 216.438125 6.834646 
Q 214.838125 6.834646 214.838125 8.434646 
L 214.838125 19.377146 
Q 214.838125 20.977146 216.438125 20.977146 
z
" style="fill:#ffffff;stroke:#000000;stroke-linejoin:miter;"/>
    </g>
    <g id="line2d_22">
     <path d="M 218.038125 13.313396 
L 234.038125 13.313396 
" style="fill:none;stroke:#000000;stroke-linecap:square;"/>
    </g>
    <g id="line2d_23"/>
    <g id="text_12">
     <!-- ts -->
     <defs>
      <path d="M 18.3125 70.21875 
L 18.3125 54.6875 
L 36.8125 54.6875 
L 36.8125 47.703125 
L 18.3125 47.703125 
L 18.3125 18.015625 
Q 18.3125 11.328125 20.140625 9.421875 
Q 21.96875 7.515625 27.59375 7.515625 
L 36.8125 7.515625 
L 36.8125 0 
L 27.59375 0 
Q 17.1875 0 13.234375 3.875 
Q 9.28125 7.765625 9.28125 18.015625 
L 9.28125 47.703125 
L 2.6875 47.703125 
L 2.6875 54.6875 
L 9.28125 54.6875 
L 9.28125 70.21875 
z
" id="DejaVuSans-116"/>
      <path d="M 44.28125 53.078125 
L 44.28125 44.578125 
Q 40.484375 46.53125 36.375 47.5 
Q 32.28125 48.484375 27.875 48.484375 
Q 21.1875 48.484375 17.84375 46.4375 
Q 14.5 44.390625 14.5 40.28125 
Q 14.5 37.15625 16.890625 35.375 
Q 19.28125 33.59375 26.515625 31.984375 
L 29.59375 31.296875 
Q 39.15625 29.25 43.1875 25.515625 
Q 47.21875 21.78125 47.21875 15.09375 
Q 47.21875 7.46875 41.1875 3.015625 
Q 35.15625 -1.421875 24.609375 -1.421875 
Q 20.21875 -1.421875 15.453125 -0.5625 
Q 10.6875 0.296875 5.421875 2 
L 5.421875 11.28125 
Q 10.40625 8.6875 15.234375 7.390625 
Q 20.0625 6.109375 24.8125 6.109375 
Q 31.15625 6.109375 34.5625 8.28125 
Q 37.984375 10.453125 37.984375 14.40625 
Q 37.984375 18.0625 35.515625 20.015625 
Q 33.0625 21.96875 24.703125 23.78125 
L 21.578125 24.515625 
Q 13.234375 26.265625 9.515625 29.90625 
Q 5.8125 33.546875 5.8125 39.890625 
Q 5.8125 47.609375 11.28125 51.796875 
Q 16.75 56 26.8125 56 
Q 31.78125 56 36.171875 55.265625 
Q 40.578125 54.546875 44.28125 53.078125 
z
" id="DejaVuSans-115"/>
     </defs>
     <g transform="translate(240.438125 16.113396)scale(0.08 -0.08)">
      <use xlink:href="#DejaVuSans-116"/>
      <use x="39.208984" xlink:href="#DejaVuSans-115"/>
     </g>
    </g>
   </g>
  </g>
  <g id="axes_2">
   <g id="patch_6">
    <path d="M 36.614646 259.665354 
L 429.165354 259.665354 
L 429.165354 139.434646 
L 36.614646 139.434646 
z
" style="fill:#ffffff;"/>
   </g>
   <g id="matplotlib.axis_3">
    <g id="xtick_6">
     <g id="line2d_24">
      <path clip-path="url(#p28bf557d4f)" d="M 45.863612 259.665354 
L 45.863612 139.434646 
" style="fill:none;stroke:#000000;stroke-linecap:square;stroke-opacity:0.1;stroke-width:0.5;"/>
     </g>
     <g id="line2d_25">
      <g>
       <use style="stroke:#000000;stroke-width:0.8;" x="45.863612" xlink:href="#me12e224f75" y="259.665354"/>
      </g>
     </g>
     <g id="text_13">
      <!-- 0 -->
      <g transform="translate(43.318612 269.244104)scale(0.08 -0.08)">
       <use xlink:href="#DejaVuSans-48"/>
      </g>
     </g>
    </g>
    <g id="xtick_7">
     <g id="line2d_26">
      <path clip-path="url(#p28bf557d4f)" d="M 138.911566 259.665354 
L 138.911566 139.434646 
" style="fill:none;stroke:#000000;stroke-linecap:square;stroke-opacity:0.1;stroke-width:0.5;"/>
     </g>
     <g id="line2d_27">
      <g>
       <use style="stroke:#000000;stroke-width:0.8;" x="138.911566" xlink:href="#me12e224f75" y="259.665354"/>
      </g>
     </g>
     <g id="text_14">
      <!-- 50 -->
      <g transform="translate(133.821566 269.244104)scale(0.08 -0.08)">
       <use xlink:href="#DejaVuSans-53"/>
       <use x="63.623047" xlink:href="#DejaVuSans-48"/>
      </g>
     </g>
    </g>
    <g id="xtick_8">
     <g id="line2d_28">
      <path clip-path="url(#p28bf557d4f)" d="M 231.95952 259.665354 
L 231.95952 139.434646 
" style="fill:none;stroke:#000000;stroke-linecap:square;stroke-opacity:0.1;stroke-width:0.5;"/>
     </g>
     <g id="line2d_29">
      <g>
       <use style="stroke:#000000;stroke-width:0.8;" x="231.95952" xlink:href="#me12e224f75" y="259.665354"/>
      </g>
     </g>
     <g id="text_15">
      <!-- 100 -->
      <g transform="translate(224.32452 269.244104)scale(0.08 -0.08)">
       <use xlink:href="#DejaVuSans-49"/>
       <use x="63.623047" xlink:href="#DejaVuSans-48"/>
       <use x="127.246094" xlink:href="#DejaVuSans-48"/>
      </g>
     </g>
    </g>
    <g id="xtick_9">
     <g id="line2d_30">
      <path clip-path="url(#p28bf557d4f)" d="M 325.007475 259.665354 
L 325.007475 139.434646 
" style="fill:none;stroke:#000000;stroke-linecap:square;stroke-opacity:0.1;stroke-width:0.5;"/>
     </g>
     <g id="line2d_31">
      <g>
       <use style="stroke:#000000;stroke-width:0.8;" x="325.007475" xlink:href="#me12e224f75" y="259.665354"/>
      </g>
     </g>
     <g id="text_16">
      <!-- 150 -->
      <g transform="translate(317.372475 269.244104)scale(0.08 -0.08)">
       <use xlink:href="#DejaVuSans-49"/>
       <use x="63.623047" xlink:href="#DejaVuSans-53"/>
       <use x="127.246094" xlink:href="#DejaVuSans-48"/>
      </g>
     </g>
    </g>
    <g id="xtick_10">
     <g id="line2d_32">
      <path clip-path="url(#p28bf557d4f)" d="M 418.055429 259.665354 
L 418.055429 139.434646 
" style="fill:none;stroke:#000000;stroke-linecap:square;stroke-opacity:0.1;stroke-width:0.5;"/>
     </g>
     <g id="line2d_33">
      <g>
       <use style="stroke:#000000;stroke-width:0.8;" x="418.055429" xlink:href="#me12e224f75" y="259.665354"/>
      </g>
     </g>
     <g id="text_17">
      <!-- 200 -->
      <g transform="translate(410.420429 269.244104)scale(0.08 -0.08)">
       <use xlink:href="#DejaVuSans-50"/>
       <use x="63.623047" xlink:href="#DejaVuSans-48"/>
       <use x="127.246094" xlink:href="#DejaVuSans-48"/>
      </g>
     </g>
    </g>
    <g id="text_18">
     <!-- Time step -->
     <defs>
      <path d="M -0.296875 72.90625 
L 61.375 72.90625 
L 61.375 64.59375 
L 35.5 64.59375 
L 35.5 0 
L 25.59375 0 
L 25.59375 64.59375 
L -0.296875 64.59375 
z
" id="DejaVuSans-84"/>
      <path d="M 9.421875 54.6875 
L 18.40625 54.6875 
L 18.40625 0 
L 9.421875 0 
z
M 9.421875 75.984375 
L 18.40625 75.984375 
L 18.40625 64.59375 
L 9.421875 64.59375 
z
" id="DejaVuSans-105"/>
      <path d="M 52 44.1875 
Q 55.375 50.25 60.0625 53.125 
Q 64.75 56 71.09375 56 
Q 79.640625 56 84.28125 50.015625 
Q 88.921875 44.046875 88.921875 33.015625 
L 88.921875 0 
L 79.890625 0 
L 79.890625 32.71875 
Q 79.890625 40.578125 77.09375 44.375 
Q 74.3125 48.1875 68.609375 48.1875 
Q 61.625 48.1875 57.5625 43.546875 
Q 53.515625 38.921875 53.515625 30.90625 
L 53.515625 0 
L 44.484375 0 
L 44.484375 32.71875 
Q 44.484375 40.625 41.703125 44.40625 
Q 38.921875 48.1875 33.109375 48.1875 
Q 26.21875 48.1875 22.15625 43.53125 
Q 18.109375 38.875 18.109375 30.90625 
L 18.109375 0 
L 9.078125 0 
L 9.078125 54.6875 
L 18.109375 54.6875 
L 18.109375 46.1875 
Q 21.1875 51.21875 25.484375 53.609375 
Q 29.78125 56 35.6875 56 
Q 41.65625 56 45.828125 52.96875 
Q 50 49.953125 52 44.1875 
z
" id="DejaVuSans-109"/>
      <path id="DejaVuSans-32"/>
      <path d="M 18.109375 8.203125 
L 18.109375 -20.796875 
L 9.078125 -20.796875 
L 9.078125 54.6875 
L 18.109375 54.6875 
L 18.109375 46.390625 
Q 20.953125 51.265625 25.265625 53.625 
Q 29.59375 56 35.59375 56 
Q 45.5625 56 51.78125 48.09375 
Q 58.015625 40.1875 58.015625 27.296875 
Q 58.015625 14.40625 51.78125 6.484375 
Q 45.5625 -1.421875 35.59375 -1.421875 
Q 29.59375 -1.421875 25.265625 0.953125 
Q 20.953125 3.328125 18.109375 8.203125 
z
M 48.6875 27.296875 
Q 48.6875 37.203125 44.609375 42.84375 
Q 40.53125 48.484375 33.40625 48.484375 
Q 26.265625 48.484375 22.1875 42.84375 
Q 18.109375 37.203125 18.109375 27.296875 
Q 18.109375 17.390625 22.1875 11.75 
Q 26.265625 6.109375 33.40625 6.109375 
Q 40.53125 6.109375 44.609375 11.75 
Q 48.6875 17.390625 48.6875 27.296875 
z
" id="DejaVuSans-112"/>
     </defs>
     <g transform="translate(205.618594 283.266136)scale(0.11 -0.11)">
      <use xlink:href="#DejaVuSans-84"/>
      <use x="61.037109" xlink:href="#DejaVuSans-105"/>
      <use x="88.820312" xlink:href="#DejaVuSans-109"/>
      <use x="186.232422" xlink:href="#DejaVuSans-101"/>
      <use x="247.755859" xlink:href="#DejaVuSans-32"/>
      <use x="279.542969" xlink:href="#DejaVuSans-115"/>
      <use x="331.642578" xlink:href="#DejaVuSans-116"/>
      <use x="370.851562" xlink:href="#DejaVuSans-101"/>
      <use x="432.375" xlink:href="#DejaVuSans-112"/>
     </g>
    </g>
   </g>
   <g id="matplotlib.axis_4">
    <g id="ytick_6">
     <g id="line2d_34">
      <path clip-path="url(#p28bf557d4f)" d="M 36.614646 242.104378 
L 429.165354 242.104378 
" style="fill:none;stroke:#000000;stroke-linecap:square;stroke-opacity:0.1;stroke-width:0.5;"/>
     </g>
     <g id="line2d_35">
      <g>
       <use style="stroke:#000000;stroke-width:0.8;" x="36.614646" xlink:href="#mfbd760c00f" y="242.104378"/>
      </g>
     </g>
     <g id="text_19">
      <!-- -1.0 -->
      <g transform="translate(17.505896 245.143753)scale(0.08 -0.08)">
       <use xlink:href="#DejaVuSans-45"/>
       <use x="36.083984" xlink:href="#DejaVuSans-49"/>
       <use x="99.707031" xlink:href="#DejaVuSans-46"/>
       <use x="131.494141" xlink:href="#DejaVuSans-48"/>
      </g>
     </g>
    </g>
    <g id="ytick_7">
     <g id="line2d_36">
      <path clip-path="url(#p28bf557d4f)" d="M 36.614646 220.494543 
L 429.165354 220.494543 
" style="fill:none;stroke:#000000;stroke-linecap:square;stroke-opacity:0.1;stroke-width:0.5;"/>
     </g>
     <g id="line2d_37">
      <g>
       <use style="stroke:#000000;stroke-width:0.8;" x="36.614646" xlink:href="#mfbd760c00f" y="220.494543"/>
      </g>
     </g>
     <g id="text_20">
      <!-- -0.5 -->
      <g transform="translate(17.505896 223.533918)scale(0.08 -0.08)">
       <use xlink:href="#DejaVuSans-45"/>
       <use x="36.083984" xlink:href="#DejaVuSans-48"/>
       <use x="99.707031" xlink:href="#DejaVuSans-46"/>
       <use x="131.494141" xlink:href="#DejaVuSans-53"/>
      </g>
     </g>
    </g>
    <g id="ytick_8">
     <g id="line2d_38">
      <path clip-path="url(#p28bf557d4f)" d="M 36.614646 198.884709 
L 429.165354 198.884709 
" style="fill:none;stroke:#000000;stroke-linecap:square;stroke-opacity:0.1;stroke-width:0.5;"/>
     </g>
     <g id="line2d_39">
      <g>
       <use style="stroke:#000000;stroke-width:0.8;" x="36.614646" xlink:href="#mfbd760c00f" y="198.884709"/>
      </g>
     </g>
     <g id="text_21">
      <!-- 0.0 -->
      <g transform="translate(20.392146 201.924084)scale(0.08 -0.08)">
       <use xlink:href="#DejaVuSans-48"/>
       <use x="63.623047" xlink:href="#DejaVuSans-46"/>
       <use x="95.410156" xlink:href="#DejaVuSans-48"/>
      </g>
     </g>
    </g>
    <g id="ytick_9">
     <g id="line2d_40">
      <path clip-path="url(#p28bf557d4f)" d="M 36.614646 177.274874 
L 429.165354 177.274874 
" style="fill:none;stroke:#000000;stroke-linecap:square;stroke-opacity:0.1;stroke-width:0.5;"/>
     </g>
     <g id="line2d_41">
      <g>
       <use style="stroke:#000000;stroke-width:0.8;" x="36.614646" xlink:href="#mfbd760c00f" y="177.274874"/>
      </g>
     </g>
     <g id="text_22">
      <!-- 0.5 -->
      <g transform="translate(20.392146 180.314249)scale(0.08 -0.08)">
       <use xlink:href="#DejaVuSans-48"/>
       <use x="63.623047" xlink:href="#DejaVuSans-46"/>
       <use x="95.410156" xlink:href="#DejaVuSans-53"/>
      </g>
     </g>
    </g>
    <g id="ytick_10">
     <g id="line2d_42">
      <path clip-path="url(#p28bf557d4f)" d="M 36.614646 155.66504 
L 429.165354 155.66504 
" style="fill:none;stroke:#000000;stroke-linecap:square;stroke-opacity:0.1;stroke-width:0.5;"/>
     </g>
     <g id="line2d_43">
      <g>
       <use style="stroke:#000000;stroke-width:0.8;" x="36.614646" xlink:href="#mfbd760c00f" y="155.66504"/>
      </g>
     </g>
     <g id="text_23">
      <!-- 1.0 -->
      <g transform="translate(20.392146 158.704415)scale(0.08 -0.08)">
       <use xlink:href="#DejaVuSans-49"/>
       <use x="63.623047" xlink:href="#DejaVuSans-46"/>
       <use x="95.410156" xlink:href="#DejaVuSans-48"/>
      </g>
     </g>
    </g>
    <g id="text_24">
     <!-- Value -->
     <g transform="translate(11.218239 215.074609)rotate(-90)scale(0.11 -0.11)">
      <use xlink:href="#DejaVuSans-86"/>
      <use x="68.298828" xlink:href="#DejaVuSans-97"/>
      <use x="129.578125" xlink:href="#DejaVuSans-108"/>
      <use x="157.361328" xlink:href="#DejaVuSans-117"/>
      <use x="220.740234" xlink:href="#DejaVuSans-101"/>
     </g>
    </g>
   </g>
   <g id="line2d_44">
    <path clip-path="url(#p28bf557d4f)" d="M 47.724571 202.846762 
L 49.58553 185.581004 
L 51.44649 177.968279 
L 53.307449 175.275383 
L 55.168408 170.078108 
L 57.029367 164.050952 
L 58.890326 160.289848 
L 60.751285 161.146495 
L 62.612244 146.792645 
L 64.473203 165.029554 
L 66.334162 161.593048 
L 68.195121 161.726635 
L 70.05608 176.536349 
L 71.917039 195.50282 
L 73.777999 192.502721 
L 75.638958 193.708336 
L 77.499917 216.850961 
L 79.360876 231.123747 
L 81.221835 224.188028 
L 83.082794 235.575263 
L 84.943753 237.105506 
L 86.804712 232.310257 
L 88.665671 256.262598 
L 92.387589 230.830815 
L 94.248548 224.214044 
L 96.109508 212.963331 
L 97.970467 220.129505 
L 99.831426 196.819692 
L 101.692385 199.20999 
L 103.553344 195.18111 
L 105.414303 168.32375 
L 107.275262 166.328982 
L 109.136221 162.558515 
L 110.99718 160.281276 
L 112.858139 170.273355 
L 114.719098 147.768045 
L 118.441016 170.615173 
L 120.301976 156.765351 
L 122.162935 194.528849 
L 124.023894 174.785705 
L 125.884853 194.128262 
L 127.745812 197.4781 
L 129.606771 220.185809 
L 131.46773 218.998553 
L 133.328689 226.511163 
L 135.189648 231.514279 
L 137.050607 235.371955 
L 138.911566 243.815755 
L 140.772525 239.219416 
L 142.633485 235.270019 
L 144.494444 230.723059 
L 146.355403 226.700419 
L 148.216362 212.922609 
L 150.077321 208.987601 
L 151.93828 226.697849 
L 153.799239 189.804764 
L 155.660198 176.452365 
L 157.521157 192.164164 
L 159.382116 169.781524 
L 161.243075 164.891415 
L 163.104034 170.298163 
L 164.964994 145.643783 
L 166.825953 164.389365 
L 168.686912 166.029851 
L 170.547871 148.922353 
L 172.40883 165.106004 
L 174.269789 165.542671 
L 176.130748 189.913229 
L 177.991707 195.287299 
L 179.852666 183.352469 
L 181.713625 211.332348 
L 183.574584 223.728752 
L 185.435543 212.08425 
L 187.296503 234.564365 
L 189.157462 232.620431 
L 191.018421 236.300641 
L 192.87938 242.469399 
L 194.740339 240.267896 
L 196.601298 231.453156 
L 198.462257 241.922734 
L 200.323216 218.196291 
L 202.184175 224.716788 
L 204.045134 198.953023 
L 205.906093 205.628489 
L 207.767052 206.651547 
L 209.628011 181.656577 
L 213.34993 166.054961 
L 215.210889 180.22951 
L 217.071848 153.006132 
L 218.932807 158.464648 
L 220.793766 154.620166 
L 222.654725 158.866778 
L 224.515684 160.54259 
L 226.376643 156.705168 
L 228.237602 180.975081 
L 230.098561 172.52661 
L 231.95952 193.247547 
L 233.82048 190.241051 
L 235.681439 213.073788 
L 237.542398 211.302055 
L 239.403357 232.346395 
L 241.264316 224.496881 
L 243.125275 227.910669 
L 244.986234 229.01351 
L 246.847193 250.735658 
L 248.708152 237.559058 
L 250.569111 255.417074 
L 252.43007 221.506676 
L 254.291029 237.311294 
L 256.151989 222.977132 
L 258.012948 202.317654 
L 259.873907 202.761076 
L 261.734866 198.084328 
L 263.595825 190.348043 
L 265.456784 165.473165 
L 267.317743 152.349942 
L 269.178702 179.302232 
L 271.039661 153.087269 
L 272.90062 150.573958 
L 274.761579 162.657751 
L 276.622538 144.777842 
L 278.483497 161.59108 
L 280.344457 172.633195 
L 282.205416 181.414324 
L 284.066375 186.724653 
L 285.927334 193.792682 
L 287.788293 199.926952 
L 289.649252 219.555193 
L 291.510211 213.403482 
L 293.37117 240.03263 
L 295.232129 223.981499 
L 297.093088 255.513098 
L 298.954047 238.640182 
L 300.815006 246.916862 
L 302.675966 227.444916 
L 304.536925 238.3988 
L 306.397884 233.001063 
L 308.258843 236.104908 
L 310.119802 214.435456 
L 311.980761 215.073158 
L 313.84172 193.533959 
L 315.702679 175.864843 
L 317.563638 189.68528 
L 319.424597 171.47204 
L 321.285556 155.497158 
L 323.146515 164.365803 
L 325.007475 147.937365 
L 326.868434 155.931325 
L 328.729393 151.2538 
L 330.590352 160.107911 
L 332.451311 161.103389 
L 334.31227 172.513899 
L 336.173229 171.032518 
L 338.034188 184.218898 
L 339.895147 195.072037 
L 341.756106 208.224421 
L 343.617065 225.115952 
L 345.478024 217.993499 
L 347.338984 222.532533 
L 349.199943 244.098802 
L 351.060902 242.760617 
L 352.921861 242.470445 
L 354.78282 239.419124 
L 356.643779 246.423836 
L 358.504738 236.653737 
L 360.365697 235.217237 
L 362.226656 204.305303 
L 364.087615 222.045265 
L 365.948574 215.908929 
L 367.809533 197.884481 
L 369.670492 170.971359 
L 371.531452 180.902232 
L 375.25337 150.584034 
L 377.114329 153.199033 
L 378.975288 156.656857 
L 380.836247 142.837402 
L 382.697206 165.093524 
L 384.558165 159.169968 
L 386.419124 168.37426 
L 388.280083 160.864774 
L 390.141042 187.967288 
L 392.002001 193.13934 
L 393.862961 196.147261 
L 395.72392 222.539411 
L 397.584879 210.4139 
L 399.445838 239.101388 
L 401.306797 237.245953 
L 403.167756 236.046895 
L 405.028715 244.679125 
L 406.889674 252.200202 
L 408.750633 230.992533 
L 410.611592 240.59671 
L 412.472551 244.027385 
L 414.33351 222.549643 
L 416.19447 222.700673 
L 418.055429 205.141865 
L 418.055429 205.141865 
" style="fill:none;stroke:#009afa;stroke-linecap:round;"/>
   </g>
   <g id="patch_7">
    <path d="M 36.614646 259.665354 
L 36.614646 139.434646 
" style="fill:none;stroke:#000000;stroke-linecap:square;stroke-linejoin:miter;"/>
   </g>
   <g id="patch_8">
    <path d="M 36.614646 259.665354 
L 429.165354 259.665354 
" style="fill:none;stroke:#000000;stroke-linecap:square;stroke-linejoin:miter;"/>
   </g>
   <g id="legend_2">
    <g id="patch_9">
     <path d="M 42.214646 157.577146 
L 99.339646 157.577146 
Q 100.939646 157.577146 100.939646 155.977146 
L 100.939646 145.034646 
Q 100.939646 143.434646 99.339646 143.434646 
L 42.214646 143.434646 
Q 40.614646 143.434646 40.614646 145.034646 
L 40.614646 155.977146 
Q 40.614646 157.577146 42.214646 157.577146 
z
" style="fill:#ffffff;stroke:#000000;stroke-linejoin:miter;"/>
    </g>
    <g id="line2d_45">
     <path d="M 43.814646 149.913396 
L 59.814646 149.913396 
" style="fill:none;stroke:#009afa;stroke-linecap:square;"/>
    </g>
    <g id="line2d_46"/>
    <g id="text_25">
     <!-- iaaft(ts) -->
     <defs>
      <path d="M 37.109375 75.984375 
L 37.109375 68.5 
L 28.515625 68.5 
Q 23.6875 68.5 21.796875 66.546875 
Q 19.921875 64.59375 19.921875 59.515625 
L 19.921875 54.6875 
L 34.71875 54.6875 
L 34.71875 47.703125 
L 19.921875 47.703125 
L 19.921875 0 
L 10.890625 0 
L 10.890625 47.703125 
L 2.296875 47.703125 
L 2.296875 54.6875 
L 10.890625 54.6875 
L 10.890625 58.5 
Q 10.890625 67.625 15.140625 71.796875 
Q 19.390625 75.984375 28.609375 75.984375 
z
" id="DejaVuSans-102"/>
      <path d="M 31 75.875 
Q 24.46875 64.65625 21.28125 53.65625 
Q 18.109375 42.671875 18.109375 31.390625 
Q 18.109375 20.125 21.3125 9.0625 
Q 24.515625 -2 31 -13.1875 
L 23.1875 -13.1875 
Q 15.875 -1.703125 12.234375 9.375 
Q 8.59375 20.453125 8.59375 31.390625 
Q 8.59375 42.28125 12.203125 53.3125 
Q 15.828125 64.359375 23.1875 75.875 
z
" id="DejaVuSans-40"/>
      <path d="M 8.015625 75.875 
L 15.828125 75.875 
Q 23.140625 64.359375 26.78125 53.3125 
Q 30.421875 42.28125 30.421875 31.390625 
Q 30.421875 20.453125 26.78125 9.375 
Q 23.140625 -1.703125 15.828125 -13.1875 
L 8.015625 -13.1875 
Q 14.5 -2 17.703125 9.0625 
Q 20.90625 20.125 20.90625 31.390625 
Q 20.90625 42.671875 17.703125 53.65625 
Q 14.5 64.65625 8.015625 75.875 
z
" id="DejaVuSans-41"/>
     </defs>
     <g transform="translate(66.214646 152.713396)scale(0.08 -0.08)">
      <use xlink:href="#DejaVuSans-105"/>
      <use x="27.783203" xlink:href="#DejaVuSans-97"/>
      <use x="89.0625" xlink:href="#DejaVuSans-97"/>
      <use x="150.341797" xlink:href="#DejaVuSans-102"/>
      <use x="185.53125" xlink:href="#DejaVuSans-116"/>
      <use x="224.740234" xlink:href="#DejaVuSans-40"/>
      <use x="263.753906" xlink:href="#DejaVuSans-116"/>
      <use x="302.962891" xlink:href="#DejaVuSans-115"/>
      <use x="355.0625" xlink:href="#DejaVuSans-41"/>
     </g>
    </g>
   </g>
  </g>
 </g>
 <defs>
  <clipPath id="p8b586a5812">
   <rect height="120.230709" width="392.550709" x="36.614646" y="2.834646"/>
  </clipPath>
  <clipPath id="p28bf557d4f">
   <rect height="120.230709" width="392.550709" x="36.614646" y="139.434646"/>
  </clipPath>
 </defs>
</svg>
