<?xml version="1.0" encoding="utf-8"?>
<svg xmlns="http://www.w3.org/2000/svg" xmlns:xlink="http://www.w3.org/1999/xlink" width="600" height="400" viewBox="0 0 2400 1600">
<defs>
  <clipPath id="clip1300">
    <rect x="0" y="0" width="2400" height="1600"/>
  </clipPath>
</defs>
<path clip-path="url(#clip1300)" d="
M0 1600 L2400 1600 L2400 0 L0 0  Z
  " fill="#ffffff" fill-rule="evenodd" fill-opacity="1"/>
<defs>
  <clipPath id="clip1301">
    <rect x="480" y="0" width="1681" height="1600"/>
  </clipPath>
</defs>
<path clip-path="url(#clip1300)" d="
M215.754 1425.62 L2352.76 1425.62 L2352.76 47.2441 L215.754 47.2441  Z
  " fill="#ffffff" fill-rule="evenodd" fill-opacity="1"/>
<defs>
  <clipPath id="clip1302">
    <rect x="215" y="47" width="2138" height="1379"/>
  </clipPath>
</defs>
<polyline clip-path="url(#clip1302)" style="stroke:#000000; stroke-width:2; stroke-opacity:0.1; fill:none" points="
  2068.27,1425.62 2068.27,47.2441 
  "/>
<polyline clip-path="url(#clip1302)" style="stroke:#000000; stroke-width:2; stroke-opacity:0.1; fill:none" points="
  1620.26,1425.62 1620.26,47.2441 
  "/>
<polyline clip-path="url(#clip1302)" style="stroke:#000000; stroke-width:2; stroke-opacity:0.1; fill:none" points="
  1172.25,1425.62 1172.25,47.2441 
  "/>
<polyline clip-path="url(#clip1302)" style="stroke:#000000; stroke-width:2; stroke-opacity:0.1; fill:none" points="
  724.244,1425.62 724.244,47.2441 
  "/>
<polyline clip-path="url(#clip1302)" style="stroke:#000000; stroke-width:2; stroke-opacity:0.1; fill:none" points="
  276.235,1425.62 276.235,47.2441 
  "/>
<polyline clip-path="url(#clip1302)" style="stroke:#000000; stroke-width:2; stroke-opacity:0.1; fill:none" points="
  2352.76,1386.61 215.754,1386.61 
  "/>
<polyline clip-path="url(#clip1302)" style="stroke:#000000; stroke-width:2; stroke-opacity:0.1; fill:none" points="
  2352.76,1187.59 215.754,1187.59 
  "/>
<polyline clip-path="url(#clip1302)" style="stroke:#000000; stroke-width:2; stroke-opacity:0.1; fill:none" points="
  2352.76,988.57 215.754,988.57 
  "/>
<polyline clip-path="url(#clip1302)" style="stroke:#000000; stroke-width:2; stroke-opacity:0.1; fill:none" points="
  2352.76,789.552 215.754,789.552 
  "/>
<polyline clip-path="url(#clip1302)" style="stroke:#000000; stroke-width:2; stroke-opacity:0.1; fill:none" points="
  2352.76,590.533 215.754,590.533 
  "/>
<polyline clip-path="url(#clip1302)" style="stroke:#000000; stroke-width:2; stroke-opacity:0.1; fill:none" points="
  2352.76,391.514 215.754,391.514 
  "/>
<polyline clip-path="url(#clip1302)" style="stroke:#000000; stroke-width:2; stroke-opacity:0.1; fill:none" points="
  2352.76,192.495 215.754,192.495 
  "/>
<polyline clip-path="url(#clip1300)" style="stroke:#000000; stroke-width:4; stroke-opacity:1; fill:none" points="
  2352.76,1425.62 215.754,1425.62 
  "/>
<polyline clip-path="url(#clip1300)" style="stroke:#000000; stroke-width:4; stroke-opacity:1; fill:none" points="
  215.754,1425.62 215.754,47.2441 
  "/>
<polyline clip-path="url(#clip1300)" style="stroke:#000000; stroke-width:4; stroke-opacity:1; fill:none" points="
  2068.27,1425.62 2068.27,1404.94 
  "/>
<polyline clip-path="url(#clip1300)" style="stroke:#000000; stroke-width:4; stroke-opacity:1; fill:none" points="
  1620.26,1425.62 1620.26,1404.94 
  "/>
<polyline clip-path="url(#clip1300)" style="stroke:#000000; stroke-width:4; stroke-opacity:1; fill:none" points="
  1172.25,1425.62 1172.25,1404.94 
  "/>
<polyline clip-path="url(#clip1300)" style="stroke:#000000; stroke-width:4; stroke-opacity:1; fill:none" points="
  724.244,1425.62 724.244,1404.94 
  "/>
<polyline clip-path="url(#clip1300)" style="stroke:#000000; stroke-width:4; stroke-opacity:1; fill:none" points="
  276.235,1425.62 276.235,1404.94 
  "/>
<polyline clip-path="url(#clip1300)" style="stroke:#000000; stroke-width:4; stroke-opacity:1; fill:none" points="
  215.754,1386.61 247.809,1386.61 
  "/>
<polyline clip-path="url(#clip1300)" style="stroke:#000000; stroke-width:4; stroke-opacity:1; fill:none" points="
  215.754,1187.59 247.809,1187.59 
  "/>
<polyline clip-path="url(#clip1300)" style="stroke:#000000; stroke-width:4; stroke-opacity:1; fill:none" points="
  215.754,988.57 247.809,988.57 
  "/>
<polyline clip-path="url(#clip1300)" style="stroke:#000000; stroke-width:4; stroke-opacity:1; fill:none" points="
  215.754,789.552 247.809,789.552 
  "/>
<polyline clip-path="url(#clip1300)" style="stroke:#000000; stroke-width:4; stroke-opacity:1; fill:none" points="
  215.754,590.533 247.809,590.533 
  "/>
<polyline clip-path="url(#clip1300)" style="stroke:#000000; stroke-width:4; stroke-opacity:1; fill:none" points="
  215.754,391.514 247.809,391.514 
  "/>
<polyline clip-path="url(#clip1300)" style="stroke:#000000; stroke-width:4; stroke-opacity:1; fill:none" points="
  215.754,192.495 247.809,192.495 
  "/>
<g clip-path="url(#clip1300)">
<text style="fill:#000000; fill-opacity:1; font-family:Arial,Helvetica Neue,Helvetica,sans-serif; font-size:48px; text-anchor:middle;" transform="rotate(0, 2068.27, 1479.62)" x="2068.27" y="1479.62">0.1</text>
</g>
<g clip-path="url(#clip1300)">
<text style="fill:#000000; fill-opacity:1; font-family:Arial,Helvetica Neue,Helvetica,sans-serif; font-size:48px; text-anchor:middle;" transform="rotate(0, 1620.26, 1479.62)" x="1620.26" y="1479.62">0.2</text>
</g>
<g clip-path="url(#clip1300)">
<text style="fill:#000000; fill-opacity:1; font-family:Arial,Helvetica Neue,Helvetica,sans-serif; font-size:48px; text-anchor:middle;" transform="rotate(0, 1172.25, 1479.62)" x="1172.25" y="1479.62">0.3</text>
</g>
<g clip-path="url(#clip1300)">
<text style="fill:#000000; fill-opacity:1; font-family:Arial,Helvetica Neue,Helvetica,sans-serif; font-size:48px; text-anchor:middle;" transform="rotate(0, 724.244, 1479.62)" x="724.244" y="1479.62">0.4</text>
</g>
<g clip-path="url(#clip1300)">
<text style="fill:#000000; fill-opacity:1; font-family:Arial,Helvetica Neue,Helvetica,sans-serif; font-size:48px; text-anchor:middle;" transform="rotate(0, 276.235, 1479.62)" x="276.235" y="1479.62">0.5</text>
</g>
<g clip-path="url(#clip1300)">
<text style="fill:#000000; fill-opacity:1; font-family:Arial,Helvetica Neue,Helvetica,sans-serif; font-size:48px; text-anchor:end;" transform="rotate(0, 191.754, 1404.11)" x="191.754" y="1404.11">0.0</text>
</g>
<g clip-path="url(#clip1300)">
<text style="fill:#000000; fill-opacity:1; font-family:Arial,Helvetica Neue,Helvetica,sans-serif; font-size:48px; text-anchor:end;" transform="rotate(0, 191.754, 1205.09)" x="191.754" y="1205.09">0.1</text>
</g>
<g clip-path="url(#clip1300)">
<text style="fill:#000000; fill-opacity:1; font-family:Arial,Helvetica Neue,Helvetica,sans-serif; font-size:48px; text-anchor:end;" transform="rotate(0, 191.754, 1006.07)" x="191.754" y="1006.07">0.2</text>
</g>
<g clip-path="url(#clip1300)">
<text style="fill:#000000; fill-opacity:1; font-family:Arial,Helvetica Neue,Helvetica,sans-serif; font-size:48px; text-anchor:end;" transform="rotate(0, 191.754, 807.052)" x="191.754" y="807.052">0.3</text>
</g>
<g clip-path="url(#clip1300)">
<text style="fill:#000000; fill-opacity:1; font-family:Arial,Helvetica Neue,Helvetica,sans-serif; font-size:48px; text-anchor:end;" transform="rotate(0, 191.754, 608.033)" x="191.754" y="608.033">0.4</text>
</g>
<g clip-path="url(#clip1300)">
<text style="fill:#000000; fill-opacity:1; font-family:Arial,Helvetica Neue,Helvetica,sans-serif; font-size:48px; text-anchor:end;" transform="rotate(0, 191.754, 409.014)" x="191.754" y="409.014">0.5</text>
</g>
<g clip-path="url(#clip1300)">
<text style="fill:#000000; fill-opacity:1; font-family:Arial,Helvetica Neue,Helvetica,sans-serif; font-size:48px; text-anchor:end;" transform="rotate(0, 191.754, 209.995)" x="191.754" y="209.995">0.6</text>
</g>
<g clip-path="url(#clip1300)">
<text style="fill:#000000; fill-opacity:1; font-family:Arial,Helvetica Neue,Helvetica,sans-serif; font-size:66px; text-anchor:middle;" transform="rotate(0, 1284.25, 1559.48)" x="1284.25" y="1559.48">Hypercube edge length</text>
</g>
<g clip-path="url(#clip1300)">
<text style="fill:#000000; fill-opacity:1; font-family:Arial,Helvetica Neue,Helvetica,sans-serif; font-size:66px; text-anchor:middle;" transform="rotate(-90, 89.2861, 736.431)" x="89.2861" y="736.431">Transfer entropy (bits)</text>
</g>
<polyline clip-path="url(#clip1302)" style="stroke:#000000; stroke-width:4; stroke-opacity:1; fill:none" points="
  2292.27,86.2547 2068.27,459.118 1844.27,904.59 1620.26,1111.59 1396.26,1129.57 1172.25,1145.13 948.248,1289.35 724.244,1275.84 500.24,1235.05 276.235,1337.49 
  
  "/>
<polyline clip-path="url(#clip1302)" style="stroke:#ff0000; stroke-width:4; stroke-opacity:1; fill:none" points="
  2292.27,1048.89 2068.27,1147.09 1844.27,1311.78 1620.26,1251.4 1396.26,1280.71 1172.25,1104.09 948.248,1272.31 724.244,1378.11 500.24,1386.61 276.235,1210.23 
  
  "/>
<path clip-path="url(#clip1300)" d="
M1816.07 312.204 L2280.76 312.204 L2280.76 130.764 L1816.07 130.764  Z
  " fill="#ffffff" fill-rule="evenodd" fill-opacity="1"/>
<polyline clip-path="url(#clip1300)" style="stroke:#000000; stroke-width:4; stroke-opacity:1; fill:none" points="
  1816.07,312.204 2280.76,312.204 2280.76,130.764 1816.07,130.764 1816.07,312.204 
  "/>
<polyline clip-path="url(#clip1300)" style="stroke:#000000; stroke-width:4; stroke-opacity:1; fill:none" points="
  1840.07,191.244 1984.07,191.244 
  "/>
<g clip-path="url(#clip1300)">
<text style="fill:#000000; fill-opacity:1; font-family:Arial,Helvetica Neue,Helvetica,sans-serif; font-size:48px; text-anchor:start;" transform="rotate(0, 2008.07, 208.744)" x="2008.07" y="208.744">TE(x -&gt; y)</text>
</g>
<polyline clip-path="url(#clip1300)" style="stroke:#ff0000; stroke-width:4; stroke-opacity:1; fill:none" points="
  1840.07,251.724 1984.07,251.724 
  "/>
<g clip-path="url(#clip1300)">
<text style="fill:#000000; fill-opacity:1; font-family:Arial,Helvetica Neue,Helvetica,sans-serif; font-size:48px; text-anchor:start;" transform="rotate(0, 2008.07, 269.224)" x="2008.07" y="269.224">TE(y -&gt; x)</text>
</g>
</svg>
