<?xml version="1.0" encoding="utf-8"?>
<svg xmlns="http://www.w3.org/2000/svg" xmlns:xlink="http://www.w3.org/1999/xlink" width="600" height="400" viewBox="0 0 2400 1600">
<defs>
  <clipPath id="clip1000">
    <rect x="0" y="0" width="2400" height="1600"/>
  </clipPath>
</defs>
<path clip-path="url(#clip1000)" d="
M0 1600 L2400 1600 L2400 0 L0 0  Z
  " fill="#ffffff" fill-rule="evenodd" fill-opacity="1"/>
<defs>
  <clipPath id="clip1001">
    <rect x="480" y="0" width="1681" height="1600"/>
  </clipPath>
</defs>
<path clip-path="url(#clip1000)" d="
M215.754 1425.62 L2352.76 1425.62 L2352.76 47.2441 L215.754 47.2441  Z
  " fill="#ffffff" fill-rule="evenodd" fill-opacity="1"/>
<defs>
  <clipPath id="clip1002">
    <rect x="215" y="47" width="2138" height="1379"/>
  </clipPath>
</defs>
<polyline clip-path="url(#clip1002)" style="stroke:#000000; stroke-width:2; stroke-opacity:0.1; fill:none" points="
  234.234,1425.62 234.234,47.2441 
  "/>
<polyline clip-path="url(#clip1002)" style="stroke:#000000; stroke-width:2; stroke-opacity:0.1; fill:none" points="
  654.243,1425.62 654.243,47.2441 
  "/>
<polyline clip-path="url(#clip1002)" style="stroke:#000000; stroke-width:2; stroke-opacity:0.1; fill:none" points="
  1074.25,1425.62 1074.25,47.2441 
  "/>
<polyline clip-path="url(#clip1002)" style="stroke:#000000; stroke-width:2; stroke-opacity:0.1; fill:none" points="
  1494.26,1425.62 1494.26,47.2441 
  "/>
<polyline clip-path="url(#clip1002)" style="stroke:#000000; stroke-width:2; stroke-opacity:0.1; fill:none" points="
  1914.27,1425.62 1914.27,47.2441 
  "/>
<polyline clip-path="url(#clip1002)" style="stroke:#000000; stroke-width:2; stroke-opacity:0.1; fill:none" points="
  2334.28,1425.62 2334.28,47.2441 
  "/>
<polyline clip-path="url(#clip1002)" style="stroke:#000000; stroke-width:2; stroke-opacity:0.1; fill:none" points="
  215.754,1386.61 2352.76,1386.61 
  "/>
<polyline clip-path="url(#clip1002)" style="stroke:#000000; stroke-width:2; stroke-opacity:0.1; fill:none" points="
  215.754,1075.94 2352.76,1075.94 
  "/>
<polyline clip-path="url(#clip1002)" style="stroke:#000000; stroke-width:2; stroke-opacity:0.1; fill:none" points="
  215.754,765.273 2352.76,765.273 
  "/>
<polyline clip-path="url(#clip1002)" style="stroke:#000000; stroke-width:2; stroke-opacity:0.1; fill:none" points="
  215.754,454.606 2352.76,454.606 
  "/>
<polyline clip-path="url(#clip1002)" style="stroke:#000000; stroke-width:2; stroke-opacity:0.1; fill:none" points="
  215.754,143.939 2352.76,143.939 
  "/>
<polyline clip-path="url(#clip1000)" style="stroke:#000000; stroke-width:4; stroke-opacity:1; fill:none" points="
  215.754,1425.62 2352.76,1425.62 
  "/>
<polyline clip-path="url(#clip1000)" style="stroke:#000000; stroke-width:4; stroke-opacity:1; fill:none" points="
  215.754,1425.62 215.754,47.2441 
  "/>
<polyline clip-path="url(#clip1000)" style="stroke:#000000; stroke-width:4; stroke-opacity:1; fill:none" points="
  234.234,1425.62 234.234,1404.94 
  "/>
<polyline clip-path="url(#clip1000)" style="stroke:#000000; stroke-width:4; stroke-opacity:1; fill:none" points="
  654.243,1425.62 654.243,1404.94 
  "/>
<polyline clip-path="url(#clip1000)" style="stroke:#000000; stroke-width:4; stroke-opacity:1; fill:none" points="
  1074.25,1425.62 1074.25,1404.94 
  "/>
<polyline clip-path="url(#clip1000)" style="stroke:#000000; stroke-width:4; stroke-opacity:1; fill:none" points="
  1494.26,1425.62 1494.26,1404.94 
  "/>
<polyline clip-path="url(#clip1000)" style="stroke:#000000; stroke-width:4; stroke-opacity:1; fill:none" points="
  1914.27,1425.62 1914.27,1404.94 
  "/>
<polyline clip-path="url(#clip1000)" style="stroke:#000000; stroke-width:4; stroke-opacity:1; fill:none" points="
  2334.28,1425.62 2334.28,1404.94 
  "/>
<polyline clip-path="url(#clip1000)" style="stroke:#000000; stroke-width:4; stroke-opacity:1; fill:none" points="
  215.754,1386.61 247.809,1386.61 
  "/>
<polyline clip-path="url(#clip1000)" style="stroke:#000000; stroke-width:4; stroke-opacity:1; fill:none" points="
  215.754,1075.94 247.809,1075.94 
  "/>
<polyline clip-path="url(#clip1000)" style="stroke:#000000; stroke-width:4; stroke-opacity:1; fill:none" points="
  215.754,765.273 247.809,765.273 
  "/>
<polyline clip-path="url(#clip1000)" style="stroke:#000000; stroke-width:4; stroke-opacity:1; fill:none" points="
  215.754,454.606 247.809,454.606 
  "/>
<polyline clip-path="url(#clip1000)" style="stroke:#000000; stroke-width:4; stroke-opacity:1; fill:none" points="
  215.754,143.939 247.809,143.939 
  "/>
<g clip-path="url(#clip1000)">
<text style="fill:#000000; fill-opacity:1; font-family:Arial,Helvetica Neue,Helvetica,sans-serif; font-size:48px; text-anchor:middle;" transform="rotate(0, 234.234, 1479.62)" x="234.234" y="1479.62">0</text>
</g>
<g clip-path="url(#clip1000)">
<text style="fill:#000000; fill-opacity:1; font-family:Arial,Helvetica Neue,Helvetica,sans-serif; font-size:48px; text-anchor:middle;" transform="rotate(0, 654.243, 1479.62)" x="654.243" y="1479.62">10</text>
</g>
<g clip-path="url(#clip1000)">
<text style="fill:#000000; fill-opacity:1; font-family:Arial,Helvetica Neue,Helvetica,sans-serif; font-size:48px; text-anchor:middle;" transform="rotate(0, 1074.25, 1479.62)" x="1074.25" y="1479.62">20</text>
</g>
<g clip-path="url(#clip1000)">
<text style="fill:#000000; fill-opacity:1; font-family:Arial,Helvetica Neue,Helvetica,sans-serif; font-size:48px; text-anchor:middle;" transform="rotate(0, 1494.26, 1479.62)" x="1494.26" y="1479.62">30</text>
</g>
<g clip-path="url(#clip1000)">
<text style="fill:#000000; fill-opacity:1; font-family:Arial,Helvetica Neue,Helvetica,sans-serif; font-size:48px; text-anchor:middle;" transform="rotate(0, 1914.27, 1479.62)" x="1914.27" y="1479.62">40</text>
</g>
<g clip-path="url(#clip1000)">
<text style="fill:#000000; fill-opacity:1; font-family:Arial,Helvetica Neue,Helvetica,sans-serif; font-size:48px; text-anchor:middle;" transform="rotate(0, 2334.28, 1479.62)" x="2334.28" y="1479.62">50</text>
</g>
<g clip-path="url(#clip1000)">
<text style="fill:#000000; fill-opacity:1; font-family:Arial,Helvetica Neue,Helvetica,sans-serif; font-size:48px; text-anchor:end;" transform="rotate(0, 191.754, 1404.11)" x="191.754" y="1404.11">0.0</text>
</g>
<g clip-path="url(#clip1000)">
<text style="fill:#000000; fill-opacity:1; font-family:Arial,Helvetica Neue,Helvetica,sans-serif; font-size:48px; text-anchor:end;" transform="rotate(0, 191.754, 1093.44)" x="191.754" y="1093.44">0.2</text>
</g>
<g clip-path="url(#clip1000)">
<text style="fill:#000000; fill-opacity:1; font-family:Arial,Helvetica Neue,Helvetica,sans-serif; font-size:48px; text-anchor:end;" transform="rotate(0, 191.754, 782.773)" x="191.754" y="782.773">0.4</text>
</g>
<g clip-path="url(#clip1000)">
<text style="fill:#000000; fill-opacity:1; font-family:Arial,Helvetica Neue,Helvetica,sans-serif; font-size:48px; text-anchor:end;" transform="rotate(0, 191.754, 472.106)" x="191.754" y="472.106">0.6</text>
</g>
<g clip-path="url(#clip1000)">
<text style="fill:#000000; fill-opacity:1; font-family:Arial,Helvetica Neue,Helvetica,sans-serif; font-size:48px; text-anchor:end;" transform="rotate(0, 191.754, 161.439)" x="191.754" y="161.439">0.8</text>
</g>
<g clip-path="url(#clip1000)">
<text style="fill:#000000; fill-opacity:1; font-family:Arial,Helvetica Neue,Helvetica,sans-serif; font-size:66px; text-anchor:middle;" transform="rotate(0, 1284.25, 1559.48)" x="1284.25" y="1559.48"># subdivisions along each axis</text>
</g>
<g clip-path="url(#clip1000)">
<text style="fill:#000000; fill-opacity:1; font-family:Arial,Helvetica Neue,Helvetica,sans-serif; font-size:66px; text-anchor:middle;" transform="rotate(-90, 89.2861, 736.431)" x="89.2861" y="736.431">Transfer entropy (bits)</text>
</g>
<polyline clip-path="url(#clip1002)" style="stroke:#000000; stroke-width:4; stroke-opacity:1; fill:none" points="
  276.235,1386.61 360.237,1311.9 444.239,987.71 528.24,963.05 612.242,713.232 696.243,665.881 780.245,519.691 864.247,393.959 948.248,301.926 1032.25,251.618 
  1116.25,161.759 1200.25,143.938 1284.25,202.756 1368.26,132.766 1452.26,168.175 1536.26,196.244 1620.26,145.176 1704.26,86.2547 1788.26,227.413 1872.27,238.584 
  1956.27,273.2 2040.27,269.503 2124.27,303.991 2208.27,317.448 2292.27,355.923 
  "/>
<polyline clip-path="url(#clip1002)" style="stroke:#ff0000; stroke-width:4; stroke-opacity:1; fill:none" points="
  276.235,1386.61 360.237,1386.61 444.239,1278.07 528.24,1305.82 612.242,1288.4 696.243,1230.23 780.245,1150.8 864.247,1189.93 948.248,1069.27 1032.25,1021.45 
  1116.25,983.442 1200.25,933.695 1284.25,960.569 1368.26,905.521 1452.26,966.38 1536.26,854.94 1620.26,896.984 1704.26,847.284 1788.26,890.694 1872.27,893.493 
  1956.27,728.949 2040.27,862.128 2124.27,796.847 2208.27,791.815 2292.27,827.65 
  "/>
<path clip-path="url(#clip1000)" d="
M1816.07 312.204 L2280.76 312.204 L2280.76 130.764 L1816.07 130.764  Z
  " fill="#ffffff" fill-rule="evenodd" fill-opacity="1"/>
<polyline clip-path="url(#clip1000)" style="stroke:#000000; stroke-width:4; stroke-opacity:1; fill:none" points="
  1816.07,312.204 2280.76,312.204 2280.76,130.764 1816.07,130.764 1816.07,312.204 
  "/>
<polyline clip-path="url(#clip1000)" style="stroke:#000000; stroke-width:4; stroke-opacity:1; fill:none" points="
  1840.07,191.244 1984.07,191.244 
  "/>
<g clip-path="url(#clip1000)">
<text style="fill:#000000; fill-opacity:1; font-family:Arial,Helvetica Neue,Helvetica,sans-serif; font-size:48px; text-anchor:start;" transform="rotate(0, 2008.07, 208.744)" x="2008.07" y="208.744">TE(x -&gt; y)</text>
</g>
<polyline clip-path="url(#clip1000)" style="stroke:#ff0000; stroke-width:4; stroke-opacity:1; fill:none" points="
  1840.07,251.724 1984.07,251.724 
  "/>
<g clip-path="url(#clip1000)">
<text style="fill:#000000; fill-opacity:1; font-family:Arial,Helvetica Neue,Helvetica,sans-serif; font-size:48px; text-anchor:start;" transform="rotate(0, 2008.07, 269.224)" x="2008.07" y="269.224">TE(y -&gt; x)</text>
</g>
</svg>
