<?xml version="1.0" encoding="utf-8"?>
<svg xmlns="http://www.w3.org/2000/svg" xmlns:xlink="http://www.w3.org/1999/xlink" width="600" height="400" viewBox="0 0 2400 1600">
<defs>
  <clipPath id="clip4700">
    <rect x="0" y="0" width="2400" height="1600"/>
  </clipPath>
</defs>
<path clip-path="url(#clip4700)" d="
M0 1600 L2400 1600 L2400 0 L0 0  Z
  " fill="#ffffff" fill-rule="evenodd" fill-opacity="1"/>
<defs>
  <clipPath id="clip4701">
    <rect x="480" y="0" width="1681" height="1600"/>
  </clipPath>
</defs>
<path clip-path="url(#clip4700)" d="
M224.386 1440.48 L2321.26 1440.48 L2321.26 47.2441 L224.386 47.2441  Z
  " fill="#ffffff" fill-rule="evenodd" fill-opacity="1"/>
<defs>
  <clipPath id="clip4702">
    <rect x="224" y="47" width="2098" height="1394"/>
  </clipPath>
</defs>
<polyline clip-path="url(#clip4702)" style="stroke:#000000; stroke-width:2; stroke-opacity:0.1; fill:none" points="
  2070.48,1440.48 2070.48,47.2441 
  "/>
<polyline clip-path="url(#clip4702)" style="stroke:#000000; stroke-width:2; stroke-opacity:0.1; fill:none" points="
  1559.98,1440.48 1559.98,47.2441 
  "/>
<polyline clip-path="url(#clip4702)" style="stroke:#000000; stroke-width:2; stroke-opacity:0.1; fill:none" points="
  1049.48,1440.48 1049.48,47.2441 
  "/>
<polyline clip-path="url(#clip4702)" style="stroke:#000000; stroke-width:2; stroke-opacity:0.1; fill:none" points="
  538.981,1440.48 538.981,47.2441 
  "/>
<polyline clip-path="url(#clip4702)" style="stroke:#000000; stroke-width:2; stroke-opacity:0.1; fill:none" points="
  2321.26,1413.73 224.386,1413.73 
  "/>
<polyline clip-path="url(#clip4702)" style="stroke:#000000; stroke-width:2; stroke-opacity:0.1; fill:none" points="
  2321.26,1109.93 224.386,1109.93 
  "/>
<polyline clip-path="url(#clip4702)" style="stroke:#000000; stroke-width:2; stroke-opacity:0.1; fill:none" points="
  2321.26,806.12 224.386,806.12 
  "/>
<polyline clip-path="url(#clip4702)" style="stroke:#000000; stroke-width:2; stroke-opacity:0.1; fill:none" points="
  2321.26,502.315 224.386,502.315 
  "/>
<polyline clip-path="url(#clip4702)" style="stroke:#000000; stroke-width:2; stroke-opacity:0.1; fill:none" points="
  2321.26,198.509 224.386,198.509 
  "/>
<polyline clip-path="url(#clip4700)" style="stroke:#000000; stroke-width:4; stroke-opacity:1; fill:none" points="
  2321.26,1440.48 224.386,1440.48 
  "/>
<polyline clip-path="url(#clip4700)" style="stroke:#000000; stroke-width:4; stroke-opacity:1; fill:none" points="
  224.386,1440.48 224.386,47.2441 
  "/>
<polyline clip-path="url(#clip4700)" style="stroke:#000000; stroke-width:4; stroke-opacity:1; fill:none" points="
  2070.48,1440.48 2070.48,1419.58 
  "/>
<polyline clip-path="url(#clip4700)" style="stroke:#000000; stroke-width:4; stroke-opacity:1; fill:none" points="
  1559.98,1440.48 1559.98,1419.58 
  "/>
<polyline clip-path="url(#clip4700)" style="stroke:#000000; stroke-width:4; stroke-opacity:1; fill:none" points="
  1049.48,1440.48 1049.48,1419.58 
  "/>
<polyline clip-path="url(#clip4700)" style="stroke:#000000; stroke-width:4; stroke-opacity:1; fill:none" points="
  538.981,1440.48 538.981,1419.58 
  "/>
<polyline clip-path="url(#clip4700)" style="stroke:#000000; stroke-width:4; stroke-opacity:1; fill:none" points="
  224.386,1413.73 255.839,1413.73 
  "/>
<polyline clip-path="url(#clip4700)" style="stroke:#000000; stroke-width:4; stroke-opacity:1; fill:none" points="
  224.386,1109.93 255.839,1109.93 
  "/>
<polyline clip-path="url(#clip4700)" style="stroke:#000000; stroke-width:4; stroke-opacity:1; fill:none" points="
  224.386,806.12 255.839,806.12 
  "/>
<polyline clip-path="url(#clip4700)" style="stroke:#000000; stroke-width:4; stroke-opacity:1; fill:none" points="
  224.386,502.315 255.839,502.315 
  "/>
<polyline clip-path="url(#clip4700)" style="stroke:#000000; stroke-width:4; stroke-opacity:1; fill:none" points="
  224.386,198.509 255.839,198.509 
  "/>
<g clip-path="url(#clip4700)">
<text style="fill:#000000; fill-opacity:1; font-family:Arial,Helvetica Neue,Helvetica,sans-serif; font-size:48px; text-anchor:middle;" transform="rotate(0, 2070.48, 1494.48)" x="2070.48" y="1494.48">0.1</text>
</g>
<g clip-path="url(#clip4700)">
<text style="fill:#000000; fill-opacity:1; font-family:Arial,Helvetica Neue,Helvetica,sans-serif; font-size:48px; text-anchor:middle;" transform="rotate(0, 1559.98, 1494.48)" x="1559.98" y="1494.48">0.2</text>
</g>
<g clip-path="url(#clip4700)">
<text style="fill:#000000; fill-opacity:1; font-family:Arial,Helvetica Neue,Helvetica,sans-serif; font-size:48px; text-anchor:middle;" transform="rotate(0, 1049.48, 1494.48)" x="1049.48" y="1494.48">0.3</text>
</g>
<g clip-path="url(#clip4700)">
<text style="fill:#000000; fill-opacity:1; font-family:Arial,Helvetica Neue,Helvetica,sans-serif; font-size:48px; text-anchor:middle;" transform="rotate(0, 538.981, 1494.48)" x="538.981" y="1494.48">0.4</text>
</g>
<g clip-path="url(#clip4700)">
<text style="fill:#000000; fill-opacity:1; font-family:Arial,Helvetica Neue,Helvetica,sans-serif; font-size:48px; text-anchor:end;" transform="rotate(0, 200.386, 1431.23)" x="200.386" y="1431.23">0.0</text>
</g>
<g clip-path="url(#clip4700)">
<text style="fill:#000000; fill-opacity:1; font-family:Arial,Helvetica Neue,Helvetica,sans-serif; font-size:48px; text-anchor:end;" transform="rotate(0, 200.386, 1127.43)" x="200.386" y="1127.43">0.1</text>
</g>
<g clip-path="url(#clip4700)">
<text style="fill:#000000; fill-opacity:1; font-family:Arial,Helvetica Neue,Helvetica,sans-serif; font-size:48px; text-anchor:end;" transform="rotate(0, 200.386, 823.62)" x="200.386" y="823.62">0.2</text>
</g>
<g clip-path="url(#clip4700)">
<text style="fill:#000000; fill-opacity:1; font-family:Arial,Helvetica Neue,Helvetica,sans-serif; font-size:48px; text-anchor:end;" transform="rotate(0, 200.386, 519.815)" x="200.386" y="519.815">0.3</text>
</g>
<g clip-path="url(#clip4700)">
<text style="fill:#000000; fill-opacity:1; font-family:Arial,Helvetica Neue,Helvetica,sans-serif; font-size:48px; text-anchor:end;" transform="rotate(0, 200.386, 216.009)" x="200.386" y="216.009">0.4</text>
</g>
<g clip-path="url(#clip4700)">
<text style="fill:#000000; fill-opacity:1; font-family:Arial,Helvetica Neue,Helvetica,sans-serif; font-size:66px; text-anchor:middle;" transform="rotate(0, 1272.82, 1590.4)" x="1272.82" y="1590.4">Average hypercube edge length</text>
</g>
<g clip-path="url(#clip4700)">
<text style="fill:#000000; fill-opacity:1; font-family:Arial,Helvetica Neue,Helvetica,sans-serif; font-size:66px; text-anchor:middle;" transform="rotate(-90, 57.6, 743.863)" x="57.6" y="743.863">Transfer entropy (bits)</text>
</g>
<polyline clip-path="url(#clip4702)" style="stroke:#000000; stroke-width:4; stroke-opacity:1; fill:none" points="
  2261.91,86.6754 2042.12,692.28 1822.32,801.435 1602.52,816.301 1382.72,1082.65 1162.92,1055.58 943.126,1251.93 723.328,1138.51 503.53,1099.77 283.732,1318.57 
  
  "/>
<polyline clip-path="url(#clip4702)" style="stroke:#ff0000; stroke-width:4; stroke-opacity:1; fill:none" points="
  2261.91,1204.84 2042.12,1269.93 1822.32,1306.38 1602.52,1349.28 1382.72,1225.81 1162.92,1016.11 943.126,1401.05 723.328,917.16 503.53,882.588 283.732,1302.42 
  
  "/>
<path clip-path="url(#clip4700)" d="
M1784.57 312.204 L2249.26 312.204 L2249.26 130.764 L1784.57 130.764  Z
  " fill="#ffffff" fill-rule="evenodd" fill-opacity="1"/>
<polyline clip-path="url(#clip4700)" style="stroke:#000000; stroke-width:4; stroke-opacity:1; fill:none" points="
  1784.57,312.204 2249.26,312.204 2249.26,130.764 1784.57,130.764 1784.57,312.204 
  "/>
<polyline clip-path="url(#clip4700)" style="stroke:#000000; stroke-width:4; stroke-opacity:1; fill:none" points="
  1808.57,191.244 1952.57,191.244 
  "/>
<g clip-path="url(#clip4700)">
<text style="fill:#000000; fill-opacity:1; font-family:Arial,Helvetica Neue,Helvetica,sans-serif; font-size:48px; text-anchor:start;" transform="rotate(0, 1976.57, 208.744)" x="1976.57" y="208.744">TE(x -&gt; y)</text>
</g>
<polyline clip-path="url(#clip4700)" style="stroke:#ff0000; stroke-width:4; stroke-opacity:1; fill:none" points="
  1808.57,251.724 1952.57,251.724 
  "/>
<g clip-path="url(#clip4700)">
<text style="fill:#000000; fill-opacity:1; font-family:Arial,Helvetica Neue,Helvetica,sans-serif; font-size:48px; text-anchor:start;" transform="rotate(0, 1976.57, 269.224)" x="1976.57" y="269.224">TE(y -&gt; x)</text>
</g>
</svg>
