<?xml version="1.0" encoding="utf-8"?>
<svg xmlns="http://www.w3.org/2000/svg" xmlns:xlink="http://www.w3.org/1999/xlink" width="600" height="400" viewBox="0 0 2400 1600">
<defs>
  <clipPath id="clip4100">
    <rect x="0" y="0" width="2400" height="1600"/>
  </clipPath>
</defs>
<path clip-path="url(#clip4100)" d="
M0 1600 L2400 1600 L2400 0 L0 0  Z
  " fill="#ffffff" fill-rule="evenodd" fill-opacity="1"/>
<defs>
  <clipPath id="clip4101">
    <rect x="480" y="0" width="1681" height="1600"/>
  </clipPath>
</defs>
<path clip-path="url(#clip4100)" d="
M251.149 1440.48 L2321.26 1440.48 L2321.26 47.2441 L251.149 47.2441  Z
  " fill="#ffffff" fill-rule="evenodd" fill-opacity="1"/>
<defs>
  <clipPath id="clip4102">
    <rect x="251" y="47" width="2071" height="1394"/>
  </clipPath>
</defs>
<polyline clip-path="url(#clip4102)" style="stroke:#000000; stroke-width:2; stroke-opacity:0.1; fill:none" points="
  269.05,1440.48 269.05,47.2441 
  "/>
<polyline clip-path="url(#clip4102)" style="stroke:#000000; stroke-width:2; stroke-opacity:0.1; fill:none" points="
  675.912,1440.48 675.912,47.2441 
  "/>
<polyline clip-path="url(#clip4102)" style="stroke:#000000; stroke-width:2; stroke-opacity:0.1; fill:none" points="
  1082.77,1440.48 1082.77,47.2441 
  "/>
<polyline clip-path="url(#clip4102)" style="stroke:#000000; stroke-width:2; stroke-opacity:0.1; fill:none" points="
  1489.63,1440.48 1489.63,47.2441 
  "/>
<polyline clip-path="url(#clip4102)" style="stroke:#000000; stroke-width:2; stroke-opacity:0.1; fill:none" points="
  1896.5,1440.48 1896.5,47.2441 
  "/>
<polyline clip-path="url(#clip4102)" style="stroke:#000000; stroke-width:2; stroke-opacity:0.1; fill:none" points="
  2303.36,1440.48 2303.36,47.2441 
  "/>
<polyline clip-path="url(#clip4102)" style="stroke:#000000; stroke-width:2; stroke-opacity:0.1; fill:none" points="
  251.149,1401.05 2321.26,1401.05 
  "/>
<polyline clip-path="url(#clip4102)" style="stroke:#000000; stroke-width:2; stroke-opacity:0.1; fill:none" points="
  251.149,1075.7 2321.26,1075.7 
  "/>
<polyline clip-path="url(#clip4102)" style="stroke:#000000; stroke-width:2; stroke-opacity:0.1; fill:none" points="
  251.149,750.358 2321.26,750.358 
  "/>
<polyline clip-path="url(#clip4102)" style="stroke:#000000; stroke-width:2; stroke-opacity:0.1; fill:none" points="
  251.149,425.012 2321.26,425.012 
  "/>
<polyline clip-path="url(#clip4102)" style="stroke:#000000; stroke-width:2; stroke-opacity:0.1; fill:none" points="
  251.149,99.6654 2321.26,99.6654 
  "/>
<polyline clip-path="url(#clip4100)" style="stroke:#000000; stroke-width:4; stroke-opacity:1; fill:none" points="
  251.149,1440.48 2321.26,1440.48 
  "/>
<polyline clip-path="url(#clip4100)" style="stroke:#000000; stroke-width:4; stroke-opacity:1; fill:none" points="
  251.149,1440.48 251.149,47.2441 
  "/>
<polyline clip-path="url(#clip4100)" style="stroke:#000000; stroke-width:4; stroke-opacity:1; fill:none" points="
  269.05,1440.48 269.05,1419.58 
  "/>
<polyline clip-path="url(#clip4100)" style="stroke:#000000; stroke-width:4; stroke-opacity:1; fill:none" points="
  675.912,1440.48 675.912,1419.58 
  "/>
<polyline clip-path="url(#clip4100)" style="stroke:#000000; stroke-width:4; stroke-opacity:1; fill:none" points="
  1082.77,1440.48 1082.77,1419.58 
  "/>
<polyline clip-path="url(#clip4100)" style="stroke:#000000; stroke-width:4; stroke-opacity:1; fill:none" points="
  1489.63,1440.48 1489.63,1419.58 
  "/>
<polyline clip-path="url(#clip4100)" style="stroke:#000000; stroke-width:4; stroke-opacity:1; fill:none" points="
  1896.5,1440.48 1896.5,1419.58 
  "/>
<polyline clip-path="url(#clip4100)" style="stroke:#000000; stroke-width:4; stroke-opacity:1; fill:none" points="
  2303.36,1440.48 2303.36,1419.58 
  "/>
<polyline clip-path="url(#clip4100)" style="stroke:#000000; stroke-width:4; stroke-opacity:1; fill:none" points="
  251.149,1401.05 282.2,1401.05 
  "/>
<polyline clip-path="url(#clip4100)" style="stroke:#000000; stroke-width:4; stroke-opacity:1; fill:none" points="
  251.149,1075.7 282.2,1075.7 
  "/>
<polyline clip-path="url(#clip4100)" style="stroke:#000000; stroke-width:4; stroke-opacity:1; fill:none" points="
  251.149,750.358 282.2,750.358 
  "/>
<polyline clip-path="url(#clip4100)" style="stroke:#000000; stroke-width:4; stroke-opacity:1; fill:none" points="
  251.149,425.012 282.2,425.012 
  "/>
<polyline clip-path="url(#clip4100)" style="stroke:#000000; stroke-width:4; stroke-opacity:1; fill:none" points="
  251.149,99.6654 282.2,99.6654 
  "/>
<g clip-path="url(#clip4100)">
<text style="fill:#000000; fill-opacity:1; font-family:Arial,Helvetica Neue,Helvetica,sans-serif; font-size:48px; text-anchor:middle;" transform="rotate(0, 269.05, 1494.48)" x="269.05" y="1494.48">0</text>
</g>
<g clip-path="url(#clip4100)">
<text style="fill:#000000; fill-opacity:1; font-family:Arial,Helvetica Neue,Helvetica,sans-serif; font-size:48px; text-anchor:middle;" transform="rotate(0, 675.912, 1494.48)" x="675.912" y="1494.48">10</text>
</g>
<g clip-path="url(#clip4100)">
<text style="fill:#000000; fill-opacity:1; font-family:Arial,Helvetica Neue,Helvetica,sans-serif; font-size:48px; text-anchor:middle;" transform="rotate(0, 1082.77, 1494.48)" x="1082.77" y="1494.48">20</text>
</g>
<g clip-path="url(#clip4100)">
<text style="fill:#000000; fill-opacity:1; font-family:Arial,Helvetica Neue,Helvetica,sans-serif; font-size:48px; text-anchor:middle;" transform="rotate(0, 1489.63, 1494.48)" x="1489.63" y="1494.48">30</text>
</g>
<g clip-path="url(#clip4100)">
<text style="fill:#000000; fill-opacity:1; font-family:Arial,Helvetica Neue,Helvetica,sans-serif; font-size:48px; text-anchor:middle;" transform="rotate(0, 1896.5, 1494.48)" x="1896.5" y="1494.48">40</text>
</g>
<g clip-path="url(#clip4100)">
<text style="fill:#000000; fill-opacity:1; font-family:Arial,Helvetica Neue,Helvetica,sans-serif; font-size:48px; text-anchor:middle;" transform="rotate(0, 2303.36, 1494.48)" x="2303.36" y="1494.48">50</text>
</g>
<g clip-path="url(#clip4100)">
<text style="fill:#000000; fill-opacity:1; font-family:Arial,Helvetica Neue,Helvetica,sans-serif; font-size:48px; text-anchor:end;" transform="rotate(0, 227.149, 1418.55)" x="227.149" y="1418.55">0.00</text>
</g>
<g clip-path="url(#clip4100)">
<text style="fill:#000000; fill-opacity:1; font-family:Arial,Helvetica Neue,Helvetica,sans-serif; font-size:48px; text-anchor:end;" transform="rotate(0, 227.149, 1093.2)" x="227.149" y="1093.2">0.25</text>
</g>
<g clip-path="url(#clip4100)">
<text style="fill:#000000; fill-opacity:1; font-family:Arial,Helvetica Neue,Helvetica,sans-serif; font-size:48px; text-anchor:end;" transform="rotate(0, 227.149, 767.858)" x="227.149" y="767.858">0.50</text>
</g>
<g clip-path="url(#clip4100)">
<text style="fill:#000000; fill-opacity:1; font-family:Arial,Helvetica Neue,Helvetica,sans-serif; font-size:48px; text-anchor:end;" transform="rotate(0, 227.149, 442.512)" x="227.149" y="442.512">0.75</text>
</g>
<g clip-path="url(#clip4100)">
<text style="fill:#000000; fill-opacity:1; font-family:Arial,Helvetica Neue,Helvetica,sans-serif; font-size:48px; text-anchor:end;" transform="rotate(0, 227.149, 117.165)" x="227.149" y="117.165">1.00</text>
</g>
<g clip-path="url(#clip4100)">
<text style="fill:#000000; fill-opacity:1; font-family:Arial,Helvetica Neue,Helvetica,sans-serif; font-size:66px; text-anchor:middle;" transform="rotate(0, 1286.2, 1590.4)" x="1286.2" y="1590.4"># subdivisions along each axis</text>
</g>
<g clip-path="url(#clip4100)">
<text style="fill:#000000; fill-opacity:1; font-family:Arial,Helvetica Neue,Helvetica,sans-serif; font-size:66px; text-anchor:middle;" transform="rotate(-90, 57.6, 743.863)" x="57.6" y="743.863">Transfer entropy (bits)</text>
</g>
<polyline clip-path="url(#clip4102)" style="stroke:#000000; stroke-width:4; stroke-opacity:1; fill:none" points="
  309.737,1401.05 391.109,1325 472.481,1085.01 553.853,984.109 635.226,894.683 716.598,746.393 797.97,675.563 879.343,554.249 960.715,500.627 1042.09,450.441 
  1123.46,364.031 1204.83,272.532 1286.2,247.908 1367.58,202.341 1448.95,193.979 1530.32,237.105 1611.69,169.281 1693.07,86.6754 1774.44,175.175 1855.81,153.009 
  1937.18,110.259 2018.55,224.019 2099.93,263.909 2181.3,306.07 2262.67,299.275 
  "/>
<polyline clip-path="url(#clip4102)" style="stroke:#ff0000; stroke-width:4; stroke-opacity:1; fill:none" points="
  309.737,1401.05 391.109,1396.89 472.481,1281.31 553.853,1365.53 635.226,1329.48 716.598,1290.78 797.97,1228.63 879.343,1176.67 960.715,1141.76 1042.09,1090.3 
  1123.46,1133.34 1204.83,1043.94 1286.2,1038.15 1367.58,999.448 1448.95,947.57 1530.32,881.863 1611.69,916.216 1693.07,954.137 1774.44,881.691 1855.81,866.535 
  1937.18,827.57 2018.55,875.915 2099.93,797.721 2181.3,783.358 2262.67,827.481 
  "/>
<path clip-path="url(#clip4100)" d="
M1784.57 312.204 L2249.26 312.204 L2249.26 130.764 L1784.57 130.764  Z
  " fill="#ffffff" fill-rule="evenodd" fill-opacity="1"/>
<polyline clip-path="url(#clip4100)" style="stroke:#000000; stroke-width:4; stroke-opacity:1; fill:none" points="
  1784.57,312.204 2249.26,312.204 2249.26,130.764 1784.57,130.764 1784.57,312.204 
  "/>
<polyline clip-path="url(#clip4100)" style="stroke:#000000; stroke-width:4; stroke-opacity:1; fill:none" points="
  1808.57,191.244 1952.57,191.244 
  "/>
<g clip-path="url(#clip4100)">
<text style="fill:#000000; fill-opacity:1; font-family:Arial,Helvetica Neue,Helvetica,sans-serif; font-size:48px; text-anchor:start;" transform="rotate(0, 1976.57, 208.744)" x="1976.57" y="208.744">TE(x -&gt; y)</text>
</g>
<polyline clip-path="url(#clip4100)" style="stroke:#ff0000; stroke-width:4; stroke-opacity:1; fill:none" points="
  1808.57,251.724 1952.57,251.724 
  "/>
<g clip-path="url(#clip4100)">
<text style="fill:#000000; fill-opacity:1; font-family:Arial,Helvetica Neue,Helvetica,sans-serif; font-size:48px; text-anchor:start;" transform="rotate(0, 1976.57, 269.224)" x="1976.57" y="269.224">TE(y -&gt; x)</text>
</g>
</svg>
