<?xml version="1.0" encoding="utf-8" standalone="no"?>
<!DOCTYPE svg PUBLIC "-//W3C//DTD SVG 1.1//EN"
  "http://www.w3.org/Graphics/SVG/1.1/DTD/svg11.dtd">
<!-- Created with matplotlib (https://matplotlib.org/) -->
<svg height="288pt" version="1.1" viewBox="0 0 432 288" width="432pt" xmlns="http://www.w3.org/2000/svg" xmlns:xlink="http://www.w3.org/1999/xlink">
 <defs>
  <style type="text/css">
*{stroke-linecap:butt;stroke-linejoin:round;}
  </style>
 </defs>
 <g id="figure_1">
  <g id="patch_1">
   <path d="M 0 288 
L 432 288 
L 432 0 
L 0 0 
z
" style="fill:#ffffff;"/>
  </g>
  <g id="axes_1">
   <g id="patch_2">
    <path d="M 36.614646 122.937394 
L 429.165354 122.937394 
L 429.165354 2.834646 
L 36.614646 2.834646 
z
" style="fill:#ffffff;"/>
   </g>
   <g id="matplotlib.axis_1">
    <g id="xtick_1">
     <g id="line2d_1">
      <path clip-path="url(#p19caec9fb8)" d="M 45.255699 122.937394 
L 45.255699 2.834646 
" style="fill:none;stroke:#000000;stroke-linecap:square;stroke-opacity:0.1;stroke-width:0.5;"/>
     </g>
     <g id="line2d_2">
      <defs>
       <path d="M 0 0 
L 0 -3.5 
" id="me9f5e5cccc" style="stroke:#000000;stroke-width:0.8;"/>
      </defs>
      <g>
       <use style="stroke:#000000;stroke-width:0.8;" x="45.255699" xlink:href="#me9f5e5cccc" y="122.937394"/>
      </g>
     </g>
     <g id="text_1">
      <!-- 0 -->
      <defs>
       <path d="M 31.78125 66.40625 
Q 24.171875 66.40625 20.328125 58.90625 
Q 16.5 51.421875 16.5 36.375 
Q 16.5 21.390625 20.328125 13.890625 
Q 24.171875 6.390625 31.78125 6.390625 
Q 39.453125 6.390625 43.28125 13.890625 
Q 47.125 21.390625 47.125 36.375 
Q 47.125 51.421875 43.28125 58.90625 
Q 39.453125 66.40625 31.78125 66.40625 
z
M 31.78125 74.21875 
Q 44.046875 74.21875 50.515625 64.515625 
Q 56.984375 54.828125 56.984375 36.375 
Q 56.984375 17.96875 50.515625 8.265625 
Q 44.046875 -1.421875 31.78125 -1.421875 
Q 19.53125 -1.421875 13.0625 8.265625 
Q 6.59375 17.96875 6.59375 36.375 
Q 6.59375 54.828125 13.0625 64.515625 
Q 19.53125 74.21875 31.78125 74.21875 
z
" id="DejaVuSans-48"/>
      </defs>
      <g transform="translate(42.710699 132.516144)scale(0.08 -0.08)">
       <use xlink:href="#DejaVuSans-48"/>
      </g>
     </g>
    </g>
    <g id="xtick_2">
     <g id="line2d_3">
      <path clip-path="url(#p19caec9fb8)" d="M 168.699318 122.937394 
L 168.699318 2.834646 
" style="fill:none;stroke:#000000;stroke-linecap:square;stroke-opacity:0.1;stroke-width:0.5;"/>
     </g>
     <g id="line2d_4">
      <g>
       <use style="stroke:#000000;stroke-width:0.8;" x="168.699318" xlink:href="#me9f5e5cccc" y="122.937394"/>
      </g>
     </g>
     <g id="text_2">
      <!-- 50 -->
      <defs>
       <path d="M 10.796875 72.90625 
L 49.515625 72.90625 
L 49.515625 64.59375 
L 19.828125 64.59375 
L 19.828125 46.734375 
Q 21.96875 47.46875 24.109375 47.828125 
Q 26.265625 48.1875 28.421875 48.1875 
Q 40.625 48.1875 47.75 41.5 
Q 54.890625 34.8125 54.890625 23.390625 
Q 54.890625 11.625 47.5625 5.09375 
Q 40.234375 -1.421875 26.90625 -1.421875 
Q 22.3125 -1.421875 17.546875 -0.640625 
Q 12.796875 0.140625 7.71875 1.703125 
L 7.71875 11.625 
Q 12.109375 9.234375 16.796875 8.0625 
Q 21.484375 6.890625 26.703125 6.890625 
Q 35.15625 6.890625 40.078125 11.328125 
Q 45.015625 15.765625 45.015625 23.390625 
Q 45.015625 31 40.078125 35.4375 
Q 35.15625 39.890625 26.703125 39.890625 
Q 22.75 39.890625 18.8125 39.015625 
Q 14.890625 38.140625 10.796875 36.28125 
z
" id="DejaVuSans-53"/>
      </defs>
      <g transform="translate(163.609318 132.516144)scale(0.08 -0.08)">
       <use xlink:href="#DejaVuSans-53"/>
       <use x="63.623047" xlink:href="#DejaVuSans-48"/>
      </g>
     </g>
    </g>
    <g id="xtick_3">
     <g id="line2d_5">
      <path clip-path="url(#p19caec9fb8)" d="M 292.142937 122.937394 
L 292.142937 2.834646 
" style="fill:none;stroke:#000000;stroke-linecap:square;stroke-opacity:0.1;stroke-width:0.5;"/>
     </g>
     <g id="line2d_6">
      <g>
       <use style="stroke:#000000;stroke-width:0.8;" x="292.142937" xlink:href="#me9f5e5cccc" y="122.937394"/>
      </g>
     </g>
     <g id="text_3">
      <!-- 100 -->
      <defs>
       <path d="M 12.40625 8.296875 
L 28.515625 8.296875 
L 28.515625 63.921875 
L 10.984375 60.40625 
L 10.984375 69.390625 
L 28.421875 72.90625 
L 38.28125 72.90625 
L 38.28125 8.296875 
L 54.390625 8.296875 
L 54.390625 0 
L 12.40625 0 
z
" id="DejaVuSans-49"/>
      </defs>
      <g transform="translate(284.507937 132.516144)scale(0.08 -0.08)">
       <use xlink:href="#DejaVuSans-49"/>
       <use x="63.623047" xlink:href="#DejaVuSans-48"/>
       <use x="127.246094" xlink:href="#DejaVuSans-48"/>
      </g>
     </g>
    </g>
    <g id="xtick_4">
     <g id="line2d_7">
      <path clip-path="url(#p19caec9fb8)" d="M 415.586556 122.937394 
L 415.586556 2.834646 
" style="fill:none;stroke:#000000;stroke-linecap:square;stroke-opacity:0.1;stroke-width:0.5;"/>
     </g>
     <g id="line2d_8">
      <g>
       <use style="stroke:#000000;stroke-width:0.8;" x="415.586556" xlink:href="#me9f5e5cccc" y="122.937394"/>
      </g>
     </g>
     <g id="text_4">
      <!-- 150 -->
      <g transform="translate(407.951556 132.516144)scale(0.08 -0.08)">
       <use xlink:href="#DejaVuSans-49"/>
       <use x="63.623047" xlink:href="#DejaVuSans-53"/>
       <use x="127.246094" xlink:href="#DejaVuSans-48"/>
      </g>
     </g>
    </g>
   </g>
   <g id="matplotlib.axis_2">
    <g id="ytick_1">
     <g id="line2d_9">
      <path clip-path="url(#p19caec9fb8)" d="M 36.614646 119.974078 
L 429.165354 119.974078 
" style="fill:none;stroke:#000000;stroke-linecap:square;stroke-opacity:0.1;stroke-width:0.5;"/>
     </g>
     <g id="line2d_10">
      <defs>
       <path d="M 0 0 
L 3.5 0 
" id="mebcf7986d3" style="stroke:#000000;stroke-width:0.8;"/>
      </defs>
      <g>
       <use style="stroke:#000000;stroke-width:0.8;" x="36.614646" xlink:href="#mebcf7986d3" y="119.974078"/>
      </g>
     </g>
     <g id="text_5">
      <!-- -1.0 -->
      <defs>
       <path d="M 4.890625 31.390625 
L 31.203125 31.390625 
L 31.203125 23.390625 
L 4.890625 23.390625 
z
" id="DejaVuSans-45"/>
       <path d="M 10.6875 12.40625 
L 21 12.40625 
L 21 0 
L 10.6875 0 
z
" id="DejaVuSans-46"/>
      </defs>
      <g transform="translate(17.505896 123.013453)scale(0.08 -0.08)">
       <use xlink:href="#DejaVuSans-45"/>
       <use x="36.083984" xlink:href="#DejaVuSans-49"/>
       <use x="99.707031" xlink:href="#DejaVuSans-46"/>
       <use x="131.494141" xlink:href="#DejaVuSans-48"/>
      </g>
     </g>
    </g>
    <g id="ytick_2">
     <g id="line2d_11">
      <path clip-path="url(#p19caec9fb8)" d="M 36.614646 90.277296 
L 429.165354 90.277296 
" style="fill:none;stroke:#000000;stroke-linecap:square;stroke-opacity:0.1;stroke-width:0.5;"/>
     </g>
     <g id="line2d_12">
      <g>
       <use style="stroke:#000000;stroke-width:0.8;" x="36.614646" xlink:href="#mebcf7986d3" y="90.277296"/>
      </g>
     </g>
     <g id="text_6">
      <!-- -0.5 -->
      <g transform="translate(17.505896 93.316671)scale(0.08 -0.08)">
       <use xlink:href="#DejaVuSans-45"/>
       <use x="36.083984" xlink:href="#DejaVuSans-48"/>
       <use x="99.707031" xlink:href="#DejaVuSans-46"/>
       <use x="131.494141" xlink:href="#DejaVuSans-53"/>
      </g>
     </g>
    </g>
    <g id="ytick_3">
     <g id="line2d_13">
      <path clip-path="url(#p19caec9fb8)" d="M 36.614646 60.580514 
L 429.165354 60.580514 
" style="fill:none;stroke:#000000;stroke-linecap:square;stroke-opacity:0.1;stroke-width:0.5;"/>
     </g>
     <g id="line2d_14">
      <g>
       <use style="stroke:#000000;stroke-width:0.8;" x="36.614646" xlink:href="#mebcf7986d3" y="60.580514"/>
      </g>
     </g>
     <g id="text_7">
      <!-- 0.0 -->
      <g transform="translate(20.392146 63.619889)scale(0.08 -0.08)">
       <use xlink:href="#DejaVuSans-48"/>
       <use x="63.623047" xlink:href="#DejaVuSans-46"/>
       <use x="95.410156" xlink:href="#DejaVuSans-48"/>
      </g>
     </g>
    </g>
    <g id="ytick_4">
     <g id="line2d_15">
      <path clip-path="url(#p19caec9fb8)" d="M 36.614646 30.883732 
L 429.165354 30.883732 
" style="fill:none;stroke:#000000;stroke-linecap:square;stroke-opacity:0.1;stroke-width:0.5;"/>
     </g>
     <g id="line2d_16">
      <g>
       <use style="stroke:#000000;stroke-width:0.8;" x="36.614646" xlink:href="#mebcf7986d3" y="30.883732"/>
      </g>
     </g>
     <g id="text_8">
      <!-- 0.5 -->
      <g transform="translate(20.392146 33.923107)scale(0.08 -0.08)">
       <use xlink:href="#DejaVuSans-48"/>
       <use x="63.623047" xlink:href="#DejaVuSans-46"/>
       <use x="95.410156" xlink:href="#DejaVuSans-53"/>
      </g>
     </g>
    </g>
    <g id="text_9">
     <!-- Value -->
     <defs>
      <path d="M 28.609375 0 
L 0.78125 72.90625 
L 11.078125 72.90625 
L 34.1875 11.53125 
L 57.328125 72.90625 
L 67.578125 72.90625 
L 39.796875 0 
z
" id="DejaVuSans-86"/>
      <path d="M 34.28125 27.484375 
Q 23.390625 27.484375 19.1875 25 
Q 14.984375 22.515625 14.984375 16.5 
Q 14.984375 11.71875 18.140625 8.90625 
Q 21.296875 6.109375 26.703125 6.109375 
Q 34.1875 6.109375 38.703125 11.40625 
Q 43.21875 16.703125 43.21875 25.484375 
L 43.21875 27.484375 
z
M 52.203125 31.203125 
L 52.203125 0 
L 43.21875 0 
L 43.21875 8.296875 
Q 40.140625 3.328125 35.546875 0.953125 
Q 30.953125 -1.421875 24.3125 -1.421875 
Q 15.921875 -1.421875 10.953125 3.296875 
Q 6 8.015625 6 15.921875 
Q 6 25.140625 12.171875 29.828125 
Q 18.359375 34.515625 30.609375 34.515625 
L 43.21875 34.515625 
L 43.21875 35.40625 
Q 43.21875 41.609375 39.140625 45 
Q 35.0625 48.390625 27.6875 48.390625 
Q 23 48.390625 18.546875 47.265625 
Q 14.109375 46.140625 10.015625 43.890625 
L 10.015625 52.203125 
Q 14.9375 54.109375 19.578125 55.046875 
Q 24.21875 56 28.609375 56 
Q 40.484375 56 46.34375 49.84375 
Q 52.203125 43.703125 52.203125 31.203125 
z
" id="DejaVuSans-97"/>
      <path d="M 9.421875 75.984375 
L 18.40625 75.984375 
L 18.40625 0 
L 9.421875 0 
z
" id="DejaVuSans-108"/>
      <path d="M 8.5 21.578125 
L 8.5 54.6875 
L 17.484375 54.6875 
L 17.484375 21.921875 
Q 17.484375 14.15625 20.5 10.265625 
Q 23.53125 6.390625 29.59375 6.390625 
Q 36.859375 6.390625 41.078125 11.03125 
Q 45.3125 15.671875 45.3125 23.6875 
L 45.3125 54.6875 
L 54.296875 54.6875 
L 54.296875 0 
L 45.3125 0 
L 45.3125 8.40625 
Q 42.046875 3.421875 37.71875 1 
Q 33.40625 -1.421875 27.6875 -1.421875 
Q 18.265625 -1.421875 13.375 4.4375 
Q 8.5 10.296875 8.5 21.578125 
z
M 31.109375 56 
z
" id="DejaVuSans-117"/>
      <path d="M 56.203125 29.59375 
L 56.203125 25.203125 
L 14.890625 25.203125 
Q 15.484375 15.921875 20.484375 11.0625 
Q 25.484375 6.203125 34.421875 6.203125 
Q 39.59375 6.203125 44.453125 7.46875 
Q 49.3125 8.734375 54.109375 11.28125 
L 54.109375 2.78125 
Q 49.265625 0.734375 44.1875 -0.34375 
Q 39.109375 -1.421875 33.890625 -1.421875 
Q 20.796875 -1.421875 13.15625 6.1875 
Q 5.515625 13.8125 5.515625 26.8125 
Q 5.515625 40.234375 12.765625 48.109375 
Q 20.015625 56 32.328125 56 
Q 43.359375 56 49.78125 48.890625 
Q 56.203125 41.796875 56.203125 29.59375 
z
M 47.21875 32.234375 
Q 47.125 39.59375 43.09375 43.984375 
Q 39.0625 48.390625 32.421875 48.390625 
Q 24.90625 48.390625 20.390625 44.140625 
Q 15.875 39.890625 15.1875 32.171875 
z
" id="DejaVuSans-101"/>
     </defs>
     <g transform="translate(11.218239 78.410629)rotate(-90)scale(0.11 -0.11)">
      <use xlink:href="#DejaVuSans-86"/>
      <use x="68.298828" xlink:href="#DejaVuSans-97"/>
      <use x="129.578125" xlink:href="#DejaVuSans-108"/>
      <use x="157.361328" xlink:href="#DejaVuSans-117"/>
      <use x="220.740234" xlink:href="#DejaVuSans-101"/>
     </g>
    </g>
   </g>
   <g id="line2d_17">
    <path clip-path="url(#p19caec9fb8)" d="M 47.724571 22.156261 
L 50.193444 39.413155 
L 52.662316 15.91063 
L 55.131189 15.137791 
L 57.600061 19.397962 
L 60.068933 14.293618 
L 62.537806 39.435887 
L 65.006678 6.23378 
L 67.47555 45.498872 
L 69.944423 18.797076 
L 72.413295 40.530517 
L 74.882168 23.044816 
L 77.35104 29.138242 
L 79.819912 30.158344 
L 82.288785 8.361579 
L 84.757657 72.277542 
L 87.226529 107.634465 
L 89.695402 68.111075 
L 92.164274 88.888404 
L 94.633147 89.468333 
L 97.102019 89.254312 
L 99.570891 98.594531 
L 102.039764 72.372255 
L 104.508636 116.535903 
L 106.977509 67.64401 
L 109.446381 87.163574 
L 111.915253 75.802705 
L 114.384126 67.599373 
L 116.852998 85.794225 
L 119.32187 76.106795 
L 121.790743 64.76498 
L 124.259615 78.217967 
L 126.728488 87.419297 
L 129.19736 73.820946 
L 131.666232 61.679871 
L 134.135105 64.068517 
L 136.603977 74.194838 
L 139.07285 115.456609 
L 141.541722 111.046696 
L 144.010594 96.601643 
L 146.479467 93.168629 
L 148.948339 111.511855 
L 151.417211 79.941798 
L 153.886084 100.146699 
L 156.354956 61.397509 
L 158.823829 63.19405 
L 161.292701 70.531109 
L 163.761573 97.78631 
L 166.230446 118.04402 
L 168.699318 119.289241 
L 171.16819 118.282057 
L 173.637063 78.734307 
L 176.105935 79.174998 
L 178.574808 95.593178 
L 181.04368 82.9753 
L 183.512552 105.049189 
L 185.981425 115.93105 
L 188.450297 78.072154 
L 190.91917 90.886315 
L 193.388042 115.795271 
L 195.856914 83.311236 
L 198.325787 118.040405 
L 200.794659 104.123458 
L 203.263531 118.588711 
L 205.732404 73.351992 
L 208.201276 110.591269 
L 210.670149 69.164405 
L 213.139021 97.694454 
L 215.607893 94.814029 
L 218.076766 78.050258 
L 220.545638 74.642118 
L 223.01451 69.010413 
L 225.483383 95.125184 
L 227.952255 101.352972 
L 230.421128 98.309054 
L 232.89 64.943928 
L 235.358872 76.991281 
L 237.827745 68.972292 
L 240.296617 98.904817 
L 242.76549 71.817903 
L 245.234362 109.658527 
L 247.703234 75.347726 
L 250.172107 72.746701 
L 252.640979 112.887503 
L 255.109851 98.538096 
L 257.578724 71.453681 
L 260.047596 111.854443 
L 262.516469 75.256236 
L 264.985341 63.9497 
L 267.454213 72.378392 
L 269.923086 108.756864 
L 272.391958 75.034029 
L 274.86083 63.559621 
L 277.329703 70.646917 
L 279.798575 102.919468 
L 282.267448 113.687018 
L 284.73632 104.665278 
L 287.205192 116.794422 
L 289.674065 94.172914 
L 292.142937 78.130155 
L 294.61181 92.303964 
L 297.080682 75.632016 
L 299.549554 74.024429 
L 302.018427 118.374328 
L 304.487299 104.321216 
L 306.956171 65.241626 
L 309.425044 79.199333 
L 311.893916 82.298252 
L 314.362789 112.930369 
L 316.831661 110.979015 
L 319.300533 119.538259 
L 321.769406 62.583048 
L 324.238278 68.385222 
L 326.70715 89.68391 
L 329.176023 96.808522 
L 331.644895 83.266727 
L 334.113768 118.491717 
L 336.58264 107.110151 
L 339.051512 90.066008 
L 341.520385 104.571068 
L 343.989257 71.814057 
L 346.45813 114.369775 
L 348.927002 113.199861 
L 351.395874 89.985961 
L 353.864747 98.269748 
L 356.333619 98.492365 
L 358.802491 112.396356 
L 361.271364 101.96504 
L 363.740236 104.669629 
L 366.209109 68.450126 
L 368.677981 93.521126 
L 371.146853 115.583369 
L 373.615726 117.959347 
L 376.084598 115.310097 
L 378.553471 79.133382 
L 381.022343 89.888389 
L 383.491215 117.869457 
L 385.960088 94.845921 
L 388.42896 99.665093 
L 390.897832 81.880556 
L 393.366705 112.924547 
L 395.835577 62.854132 
L 398.30445 68.119959 
L 400.773322 91.241506 
L 403.242194 69.646192 
L 405.711067 102.343059 
L 408.179939 105.322079 
L 410.648811 66.249345 
L 413.117684 80.838851 
L 415.586556 98.822517 
L 418.055429 98.014006 
L 418.055429 98.014006 
" style="fill:none;stroke:#000000;stroke-linecap:round;"/>
   </g>
   <g id="patch_3">
    <path d="M 36.614646 122.937394 
L 36.614646 2.834646 
" style="fill:none;stroke:#000000;stroke-linecap:square;stroke-linejoin:miter;"/>
   </g>
   <g id="patch_4">
    <path d="M 36.614646 122.937394 
L 429.165354 122.937394 
" style="fill:none;stroke:#000000;stroke-linecap:square;stroke-linejoin:miter;"/>
   </g>
   <g id="legend_1">
    <g id="patch_5">
     <path d="M 393.230354 20.977146 
L 423.565354 20.977146 
Q 425.165354 20.977146 425.165354 19.377146 
L 425.165354 8.434646 
Q 425.165354 6.834646 423.565354 6.834646 
L 393.230354 6.834646 
Q 391.630354 6.834646 391.630354 8.434646 
L 391.630354 19.377146 
Q 391.630354 20.977146 393.230354 20.977146 
z
" style="fill:#ffffff;stroke:#000000;stroke-linejoin:miter;"/>
    </g>
    <g id="line2d_18">
     <path d="M 394.830354 13.313396 
L 410.830354 13.313396 
" style="fill:none;stroke:#000000;stroke-linecap:square;"/>
    </g>
    <g id="line2d_19"/>
    <g id="text_10">
     <!-- x -->
     <defs>
      <path d="M 54.890625 54.6875 
L 35.109375 28.078125 
L 55.90625 0 
L 45.3125 0 
L 29.390625 21.484375 
L 13.484375 0 
L 2.875 0 
L 24.125 28.609375 
L 4.6875 54.6875 
L 15.28125 54.6875 
L 29.78125 35.203125 
L 44.28125 54.6875 
z
" id="DejaVuSans-120"/>
     </defs>
     <g transform="translate(417.230354 16.113396)scale(0.08 -0.08)">
      <use xlink:href="#DejaVuSans-120"/>
     </g>
    </g>
   </g>
  </g>
  <g id="axes_2">
   <g id="patch_6">
    <path d="M 36.614646 259.665354 
L 429.165354 259.665354 
L 429.165354 139.562606 
L 36.614646 139.562606 
z
" style="fill:#ffffff;"/>
   </g>
   <g id="matplotlib.axis_3">
    <g id="xtick_5">
     <g id="line2d_20">
      <path clip-path="url(#p2e3ffee774)" d="M 45.255699 259.665354 
L 45.255699 139.562606 
" style="fill:none;stroke:#000000;stroke-linecap:square;stroke-opacity:0.1;stroke-width:0.5;"/>
     </g>
     <g id="line2d_21">
      <g>
       <use style="stroke:#000000;stroke-width:0.8;" x="45.255699" xlink:href="#me9f5e5cccc" y="259.665354"/>
      </g>
     </g>
     <g id="text_11">
      <!-- 0 -->
      <g transform="translate(42.710699 269.244104)scale(0.08 -0.08)">
       <use xlink:href="#DejaVuSans-48"/>
      </g>
     </g>
    </g>
    <g id="xtick_6">
     <g id="line2d_22">
      <path clip-path="url(#p2e3ffee774)" d="M 168.699318 259.665354 
L 168.699318 139.562606 
" style="fill:none;stroke:#000000;stroke-linecap:square;stroke-opacity:0.1;stroke-width:0.5;"/>
     </g>
     <g id="line2d_23">
      <g>
       <use style="stroke:#000000;stroke-width:0.8;" x="168.699318" xlink:href="#me9f5e5cccc" y="259.665354"/>
      </g>
     </g>
     <g id="text_12">
      <!-- 50 -->
      <g transform="translate(163.609318 269.244104)scale(0.08 -0.08)">
       <use xlink:href="#DejaVuSans-53"/>
       <use x="63.623047" xlink:href="#DejaVuSans-48"/>
      </g>
     </g>
    </g>
    <g id="xtick_7">
     <g id="line2d_24">
      <path clip-path="url(#p2e3ffee774)" d="M 292.142937 259.665354 
L 292.142937 139.562606 
" style="fill:none;stroke:#000000;stroke-linecap:square;stroke-opacity:0.1;stroke-width:0.5;"/>
     </g>
     <g id="line2d_25">
      <g>
       <use style="stroke:#000000;stroke-width:0.8;" x="292.142937" xlink:href="#me9f5e5cccc" y="259.665354"/>
      </g>
     </g>
     <g id="text_13">
      <!-- 100 -->
      <g transform="translate(284.507937 269.244104)scale(0.08 -0.08)">
       <use xlink:href="#DejaVuSans-49"/>
       <use x="63.623047" xlink:href="#DejaVuSans-48"/>
       <use x="127.246094" xlink:href="#DejaVuSans-48"/>
      </g>
     </g>
    </g>
    <g id="xtick_8">
     <g id="line2d_26">
      <path clip-path="url(#p2e3ffee774)" d="M 415.586556 259.665354 
L 415.586556 139.562606 
" style="fill:none;stroke:#000000;stroke-linecap:square;stroke-opacity:0.1;stroke-width:0.5;"/>
     </g>
     <g id="line2d_27">
      <g>
       <use style="stroke:#000000;stroke-width:0.8;" x="415.586556" xlink:href="#me9f5e5cccc" y="259.665354"/>
      </g>
     </g>
     <g id="text_14">
      <!-- 150 -->
      <g transform="translate(407.951556 269.244104)scale(0.08 -0.08)">
       <use xlink:href="#DejaVuSans-49"/>
       <use x="63.623047" xlink:href="#DejaVuSans-53"/>
       <use x="127.246094" xlink:href="#DejaVuSans-48"/>
      </g>
     </g>
    </g>
    <g id="text_15">
     <!-- Time step -->
     <defs>
      <path d="M -0.296875 72.90625 
L 61.375 72.90625 
L 61.375 64.59375 
L 35.5 64.59375 
L 35.5 0 
L 25.59375 0 
L 25.59375 64.59375 
L -0.296875 64.59375 
z
" id="DejaVuSans-84"/>
      <path d="M 9.421875 54.6875 
L 18.40625 54.6875 
L 18.40625 0 
L 9.421875 0 
z
M 9.421875 75.984375 
L 18.40625 75.984375 
L 18.40625 64.59375 
L 9.421875 64.59375 
z
" id="DejaVuSans-105"/>
      <path d="M 52 44.1875 
Q 55.375 50.25 60.0625 53.125 
Q 64.75 56 71.09375 56 
Q 79.640625 56 84.28125 50.015625 
Q 88.921875 44.046875 88.921875 33.015625 
L 88.921875 0 
L 79.890625 0 
L 79.890625 32.71875 
Q 79.890625 40.578125 77.09375 44.375 
Q 74.3125 48.1875 68.609375 48.1875 
Q 61.625 48.1875 57.5625 43.546875 
Q 53.515625 38.921875 53.515625 30.90625 
L 53.515625 0 
L 44.484375 0 
L 44.484375 32.71875 
Q 44.484375 40.625 41.703125 44.40625 
Q 38.921875 48.1875 33.109375 48.1875 
Q 26.21875 48.1875 22.15625 43.53125 
Q 18.109375 38.875 18.109375 30.90625 
L 18.109375 0 
L 9.078125 0 
L 9.078125 54.6875 
L 18.109375 54.6875 
L 18.109375 46.1875 
Q 21.1875 51.21875 25.484375 53.609375 
Q 29.78125 56 35.6875 56 
Q 41.65625 56 45.828125 52.96875 
Q 50 49.953125 52 44.1875 
z
" id="DejaVuSans-109"/>
      <path id="DejaVuSans-32"/>
      <path d="M 44.28125 53.078125 
L 44.28125 44.578125 
Q 40.484375 46.53125 36.375 47.5 
Q 32.28125 48.484375 27.875 48.484375 
Q 21.1875 48.484375 17.84375 46.4375 
Q 14.5 44.390625 14.5 40.28125 
Q 14.5 37.15625 16.890625 35.375 
Q 19.28125 33.59375 26.515625 31.984375 
L 29.59375 31.296875 
Q 39.15625 29.25 43.1875 25.515625 
Q 47.21875 21.78125 47.21875 15.09375 
Q 47.21875 7.46875 41.1875 3.015625 
Q 35.15625 -1.421875 24.609375 -1.421875 
Q 20.21875 -1.421875 15.453125 -0.5625 
Q 10.6875 0.296875 5.421875 2 
L 5.421875 11.28125 
Q 10.40625 8.6875 15.234375 7.390625 
Q 20.0625 6.109375 24.8125 6.109375 
Q 31.15625 6.109375 34.5625 8.28125 
Q 37.984375 10.453125 37.984375 14.40625 
Q 37.984375 18.0625 35.515625 20.015625 
Q 33.0625 21.96875 24.703125 23.78125 
L 21.578125 24.515625 
Q 13.234375 26.265625 9.515625 29.90625 
Q 5.8125 33.546875 5.8125 39.890625 
Q 5.8125 47.609375 11.28125 51.796875 
Q 16.75 56 26.8125 56 
Q 31.78125 56 36.171875 55.265625 
Q 40.578125 54.546875 44.28125 53.078125 
z
" id="DejaVuSans-115"/>
      <path d="M 18.3125 70.21875 
L 18.3125 54.6875 
L 36.8125 54.6875 
L 36.8125 47.703125 
L 18.3125 47.703125 
L 18.3125 18.015625 
Q 18.3125 11.328125 20.140625 9.421875 
Q 21.96875 7.515625 27.59375 7.515625 
L 36.8125 7.515625 
L 36.8125 0 
L 27.59375 0 
Q 17.1875 0 13.234375 3.875 
Q 9.28125 7.765625 9.28125 18.015625 
L 9.28125 47.703125 
L 2.6875 47.703125 
L 2.6875 54.6875 
L 9.28125 54.6875 
L 9.28125 70.21875 
z
" id="DejaVuSans-116"/>
      <path d="M 18.109375 8.203125 
L 18.109375 -20.796875 
L 9.078125 -20.796875 
L 9.078125 54.6875 
L 18.109375 54.6875 
L 18.109375 46.390625 
Q 20.953125 51.265625 25.265625 53.625 
Q 29.59375 56 35.59375 56 
Q 45.5625 56 51.78125 48.09375 
Q 58.015625 40.1875 58.015625 27.296875 
Q 58.015625 14.40625 51.78125 6.484375 
Q 45.5625 -1.421875 35.59375 -1.421875 
Q 29.59375 -1.421875 25.265625 0.953125 
Q 20.953125 3.328125 18.109375 8.203125 
z
M 48.6875 27.296875 
Q 48.6875 37.203125 44.609375 42.84375 
Q 40.53125 48.484375 33.40625 48.484375 
Q 26.265625 48.484375 22.1875 42.84375 
Q 18.109375 37.203125 18.109375 27.296875 
Q 18.109375 17.390625 22.1875 11.75 
Q 26.265625 6.109375 33.40625 6.109375 
Q 40.53125 6.109375 44.609375 11.75 
Q 48.6875 17.390625 48.6875 27.296875 
z
" id="DejaVuSans-112"/>
     </defs>
     <g transform="translate(205.618594 283.266136)scale(0.11 -0.11)">
      <use xlink:href="#DejaVuSans-84"/>
      <use x="61.037109" xlink:href="#DejaVuSans-105"/>
      <use x="88.820312" xlink:href="#DejaVuSans-109"/>
      <use x="186.232422" xlink:href="#DejaVuSans-101"/>
      <use x="247.755859" xlink:href="#DejaVuSans-32"/>
      <use x="279.542969" xlink:href="#DejaVuSans-115"/>
      <use x="331.642578" xlink:href="#DejaVuSans-116"/>
      <use x="370.851562" xlink:href="#DejaVuSans-101"/>
      <use x="432.375" xlink:href="#DejaVuSans-112"/>
     </g>
    </g>
   </g>
   <g id="matplotlib.axis_4">
    <g id="ytick_5">
     <g id="line2d_28">
      <path clip-path="url(#p2e3ffee774)" d="M 36.614646 246.01294 
L 429.165354 246.01294 
" style="fill:none;stroke:#000000;stroke-linecap:square;stroke-opacity:0.1;stroke-width:0.5;"/>
     </g>
     <g id="line2d_29">
      <g>
       <use style="stroke:#000000;stroke-width:0.8;" x="36.614646" xlink:href="#mebcf7986d3" y="246.01294"/>
      </g>
     </g>
     <g id="text_16">
      <!-- -4 -->
      <defs>
       <path d="M 37.796875 64.3125 
L 12.890625 25.390625 
L 37.796875 25.390625 
z
M 35.203125 72.90625 
L 47.609375 72.90625 
L 47.609375 25.390625 
L 58.015625 25.390625 
L 58.015625 17.1875 
L 47.609375 17.1875 
L 47.609375 0 
L 37.796875 0 
L 37.796875 17.1875 
L 4.890625 17.1875 
L 4.890625 26.703125 
z
" id="DejaVuSans-52"/>
      </defs>
      <g transform="translate(25.138396 249.052315)scale(0.08 -0.08)">
       <use xlink:href="#DejaVuSans-45"/>
       <use x="36.083984" xlink:href="#DejaVuSans-52"/>
      </g>
     </g>
    </g>
    <g id="ytick_6">
     <g id="line2d_30">
      <path clip-path="url(#p2e3ffee774)" d="M 36.614646 228.453601 
L 429.165354 228.453601 
" style="fill:none;stroke:#000000;stroke-linecap:square;stroke-opacity:0.1;stroke-width:0.5;"/>
     </g>
     <g id="line2d_31">
      <g>
       <use style="stroke:#000000;stroke-width:0.8;" x="36.614646" xlink:href="#mebcf7986d3" y="228.453601"/>
      </g>
     </g>
     <g id="text_17">
      <!-- -3 -->
      <defs>
       <path d="M 40.578125 39.3125 
Q 47.65625 37.796875 51.625 33 
Q 55.609375 28.21875 55.609375 21.1875 
Q 55.609375 10.40625 48.1875 4.484375 
Q 40.765625 -1.421875 27.09375 -1.421875 
Q 22.515625 -1.421875 17.65625 -0.515625 
Q 12.796875 0.390625 7.625 2.203125 
L 7.625 11.71875 
Q 11.71875 9.328125 16.59375 8.109375 
Q 21.484375 6.890625 26.8125 6.890625 
Q 36.078125 6.890625 40.9375 10.546875 
Q 45.796875 14.203125 45.796875 21.1875 
Q 45.796875 27.640625 41.28125 31.265625 
Q 36.765625 34.90625 28.71875 34.90625 
L 20.21875 34.90625 
L 20.21875 43.015625 
L 29.109375 43.015625 
Q 36.375 43.015625 40.234375 45.921875 
Q 44.09375 48.828125 44.09375 54.296875 
Q 44.09375 59.90625 40.109375 62.90625 
Q 36.140625 65.921875 28.71875 65.921875 
Q 24.65625 65.921875 20.015625 65.03125 
Q 15.375 64.15625 9.8125 62.3125 
L 9.8125 71.09375 
Q 15.4375 72.65625 20.34375 73.4375 
Q 25.25 74.21875 29.59375 74.21875 
Q 40.828125 74.21875 47.359375 69.109375 
Q 53.90625 64.015625 53.90625 55.328125 
Q 53.90625 49.265625 50.4375 45.09375 
Q 46.96875 40.921875 40.578125 39.3125 
z
" id="DejaVuSans-51"/>
      </defs>
      <g transform="translate(25.138396 231.492976)scale(0.08 -0.08)">
       <use xlink:href="#DejaVuSans-45"/>
       <use x="36.083984" xlink:href="#DejaVuSans-51"/>
      </g>
     </g>
    </g>
    <g id="ytick_7">
     <g id="line2d_32">
      <path clip-path="url(#p2e3ffee774)" d="M 36.614646 210.894263 
L 429.165354 210.894263 
" style="fill:none;stroke:#000000;stroke-linecap:square;stroke-opacity:0.1;stroke-width:0.5;"/>
     </g>
     <g id="line2d_33">
      <g>
       <use style="stroke:#000000;stroke-width:0.8;" x="36.614646" xlink:href="#mebcf7986d3" y="210.894263"/>
      </g>
     </g>
     <g id="text_18">
      <!-- -2 -->
      <defs>
       <path d="M 19.1875 8.296875 
L 53.609375 8.296875 
L 53.609375 0 
L 7.328125 0 
L 7.328125 8.296875 
Q 12.9375 14.109375 22.625 23.890625 
Q 32.328125 33.6875 34.8125 36.53125 
Q 39.546875 41.84375 41.421875 45.53125 
Q 43.3125 49.21875 43.3125 52.78125 
Q 43.3125 58.59375 39.234375 62.25 
Q 35.15625 65.921875 28.609375 65.921875 
Q 23.96875 65.921875 18.8125 64.3125 
Q 13.671875 62.703125 7.8125 59.421875 
L 7.8125 69.390625 
Q 13.765625 71.78125 18.9375 73 
Q 24.125 74.21875 28.421875 74.21875 
Q 39.75 74.21875 46.484375 68.546875 
Q 53.21875 62.890625 53.21875 53.421875 
Q 53.21875 48.921875 51.53125 44.890625 
Q 49.859375 40.875 45.40625 35.40625 
Q 44.1875 33.984375 37.640625 27.21875 
Q 31.109375 20.453125 19.1875 8.296875 
z
" id="DejaVuSans-50"/>
      </defs>
      <g transform="translate(25.138396 213.933638)scale(0.08 -0.08)">
       <use xlink:href="#DejaVuSans-45"/>
       <use x="36.083984" xlink:href="#DejaVuSans-50"/>
      </g>
     </g>
    </g>
    <g id="ytick_8">
     <g id="line2d_34">
      <path clip-path="url(#p2e3ffee774)" d="M 36.614646 193.334924 
L 429.165354 193.334924 
" style="fill:none;stroke:#000000;stroke-linecap:square;stroke-opacity:0.1;stroke-width:0.5;"/>
     </g>
     <g id="line2d_35">
      <g>
       <use style="stroke:#000000;stroke-width:0.8;" x="36.614646" xlink:href="#mebcf7986d3" y="193.334924"/>
      </g>
     </g>
     <g id="text_19">
      <!-- -1 -->
      <g transform="translate(25.138396 196.374299)scale(0.08 -0.08)">
       <use xlink:href="#DejaVuSans-45"/>
       <use x="36.083984" xlink:href="#DejaVuSans-49"/>
      </g>
     </g>
    </g>
    <g id="ytick_9">
     <g id="line2d_36">
      <path clip-path="url(#p2e3ffee774)" d="M 36.614646 175.775586 
L 429.165354 175.775586 
" style="fill:none;stroke:#000000;stroke-linecap:square;stroke-opacity:0.1;stroke-width:0.5;"/>
     </g>
     <g id="line2d_37">
      <g>
       <use style="stroke:#000000;stroke-width:0.8;" x="36.614646" xlink:href="#mebcf7986d3" y="175.775586"/>
      </g>
     </g>
     <g id="text_20">
      <!-- 0 -->
      <g transform="translate(28.024646 178.814961)scale(0.08 -0.08)">
       <use xlink:href="#DejaVuSans-48"/>
      </g>
     </g>
    </g>
    <g id="ytick_10">
     <g id="line2d_38">
      <path clip-path="url(#p2e3ffee774)" d="M 36.614646 158.216247 
L 429.165354 158.216247 
" style="fill:none;stroke:#000000;stroke-linecap:square;stroke-opacity:0.1;stroke-width:0.5;"/>
     </g>
     <g id="line2d_39">
      <g>
       <use style="stroke:#000000;stroke-width:0.8;" x="36.614646" xlink:href="#mebcf7986d3" y="158.216247"/>
      </g>
     </g>
     <g id="text_21">
      <!-- 1 -->
      <g transform="translate(28.024646 161.255622)scale(0.08 -0.08)">
       <use xlink:href="#DejaVuSans-49"/>
      </g>
     </g>
    </g>
    <g id="ytick_11">
     <g id="line2d_40">
      <path clip-path="url(#p2e3ffee774)" d="M 36.614646 140.656909 
L 429.165354 140.656909 
" style="fill:none;stroke:#000000;stroke-linecap:square;stroke-opacity:0.1;stroke-width:0.5;"/>
     </g>
     <g id="line2d_41">
      <g>
       <use style="stroke:#000000;stroke-width:0.8;" x="36.614646" xlink:href="#mebcf7986d3" y="140.656909"/>
      </g>
     </g>
     <g id="text_22">
      <!-- 2 -->
      <g transform="translate(28.024646 143.696284)scale(0.08 -0.08)">
       <use xlink:href="#DejaVuSans-50"/>
      </g>
     </g>
    </g>
    <g id="text_23">
     <!-- Value -->
     <g transform="translate(18.850739 215.13859)rotate(-90)scale(0.11 -0.11)">
      <use xlink:href="#DejaVuSans-86"/>
      <use x="68.298828" xlink:href="#DejaVuSans-97"/>
      <use x="129.578125" xlink:href="#DejaVuSans-108"/>
      <use x="157.361328" xlink:href="#DejaVuSans-117"/>
      <use x="220.740234" xlink:href="#DejaVuSans-101"/>
     </g>
    </g>
   </g>
   <g id="line2d_42">
    <path clip-path="url(#p2e3ffee774)" d="M 47.724571 155.327913 
L 50.193444 174.634901 
L 52.662316 162.399427 
L 55.131189 160.891805 
L 57.600061 164.06507 
L 60.068933 148.676685 
L 62.537806 182.84078 
L 65.006678 148.288961 
L 67.47555 185.770832 
L 69.944423 160.126048 
L 72.413295 173.303743 
L 74.882168 171.614342 
L 77.35104 170.300859 
L 79.819912 185.607307 
L 82.288785 142.961741 
L 84.757657 216.698524 
L 87.226529 247.193333 
L 89.695402 198.448353 
L 92.164274 228.903605 
L 94.633147 227.153527 
L 97.102019 239.894225 
L 99.570891 229.758836 
L 102.039764 221.021061 
L 104.508636 250.729851 
L 106.977509 209.929631 
L 109.446381 231.760072 
L 111.915253 230.554128 
L 114.384126 204.875179 
L 116.852998 223.415578 
L 119.32187 221.245092 
L 121.790743 202.634052 
L 124.259615 210.389755 
L 126.728488 216.741667 
L 129.19736 208.754226 
L 131.666232 203.088681 
L 134.135105 202.937954 
L 136.603977 213.890367 
L 139.07285 236.535915 
L 141.541722 231.576346 
L 144.010594 227.030897 
L 146.479467 220.059773 
L 148.948339 238.40535 
L 151.417211 194.673625 
L 153.886084 230.725607 
L 156.354956 182.551851 
L 158.823829 198.224075 
L 161.292701 194.422166 
L 163.761573 207.320134 
L 166.230446 225.580633 
L 168.699318 238.805569 
L 171.16819 235.586805 
L 173.637063 202.165294 
L 176.105935 190.619016 
L 178.574808 227.109692 
L 181.04368 197.756367 
L 183.512552 232.31935 
L 185.981425 247.080944 
L 188.450297 191.386536 
L 190.91917 221.382587 
L 193.388042 230.884626 
L 195.856914 210.535461 
L 198.325787 226.840875 
L 200.794659 226.044537 
L 203.263531 236.051383 
L 205.732404 189.541203 
L 208.201276 230.127263 
L 210.670149 189.869127 
L 213.139021 218.842592 
L 215.607893 215.196465 
L 218.076766 199.40734 
L 220.545638 193.428038 
L 223.01451 187.752009 
L 225.483383 212.429059 
L 227.952255 217.467603 
L 230.421128 204.919339 
L 232.89 180.024401 
L 235.358872 199.495174 
L 237.827745 196.202192 
L 240.296617 212.658744 
L 242.76549 184.877254 
L 245.234362 222.280022 
L 247.703234 190.211578 
L 250.172107 186.516951 
L 252.640979 219.123242 
L 257.578724 171.486612 
L 260.047596 229.978827 
L 262.516469 189.984404 
L 264.985341 171.562578 
L 267.454213 191.176687 
L 269.923086 233.011575 
L 274.86083 187.171155 
L 277.329703 198.179161 
L 279.798575 212.021713 
L 282.267448 227.809808 
L 284.73632 224.854216 
L 287.205192 230.31442 
L 289.674065 213.818063 
L 292.142937 188.703984 
L 294.61181 228.520838 
L 297.080682 187.058011 
L 299.549554 187.853438 
L 302.018427 234.459532 
L 304.487299 216.258398 
L 306.956171 177.766208 
L 309.425044 197.450081 
L 311.893916 200.195246 
L 314.362789 231.712033 
L 316.831661 218.17099 
L 319.300533 233.480016 
L 321.769406 168.385388 
L 324.238278 180.358608 
L 326.70715 212.714413 
L 329.176023 208.382794 
L 331.644895 196.853597 
L 334.113768 225.872494 
L 336.58264 226.073612 
L 339.051512 203.967219 
L 341.520385 222.933556 
L 343.989257 188.185924 
L 346.45813 221.767484 
L 348.927002 235.551454 
L 351.395874 202.064181 
L 353.864747 216.094359 
L 356.333619 212.546951 
L 358.802491 237.196687 
L 361.271364 227.816917 
L 363.740236 230.684943 
L 366.209109 205.794046 
L 368.677981 221.881659 
L 371.146853 248.898635 
L 373.615726 239.393577 
L 376.084598 255.70945 
L 378.553471 204.532745 
L 381.022343 226.178049 
L 383.491215 253.813068 
L 385.960088 232.058563 
L 388.42896 231.236393 
L 390.897832 223.441571 
L 393.366705 256.26622 
L 395.835577 196.566034 
L 398.30445 196.880674 
L 400.773322 228.980437 
L 403.242194 204.341848 
L 405.711067 234.726482 
L 408.179939 227.166094 
L 410.648811 203.315528 
L 413.117684 206.261579 
L 415.586556 242.004927 
L 418.055429 231.647546 
L 418.055429 231.647546 
" style="fill:none;stroke:#009afa;stroke-linecap:round;"/>
   </g>
   <g id="patch_7">
    <path d="M 36.614646 259.665354 
L 36.614646 139.562606 
" style="fill:none;stroke:#000000;stroke-linecap:square;stroke-linejoin:miter;"/>
   </g>
   <g id="patch_8">
    <path d="M 36.614646 259.665354 
L 429.165354 259.665354 
" style="fill:none;stroke:#000000;stroke-linecap:square;stroke-linejoin:miter;"/>
   </g>
   <g id="legend_2">
    <g id="patch_9">
     <path d="M 311.366604 157.705106 
L 423.565354 157.705106 
Q 425.165354 157.705106 425.165354 156.105106 
L 425.165354 145.162606 
Q 425.165354 143.562606 423.565354 143.562606 
L 311.366604 143.562606 
Q 309.766604 143.562606 309.766604 145.162606 
L 309.766604 156.105106 
Q 309.766604 157.705106 311.366604 157.705106 
z
" style="fill:#ffffff;stroke:#000000;stroke-linejoin:miter;"/>
    </g>
    <g id="line2d_43">
     <path d="M 312.966604 150.041356 
L 328.966604 150.041356 
" style="fill:none;stroke:#009afa;stroke-linecap:square;"/>
    </g>
    <g id="line2d_44"/>
    <g id="text_24">
     <!-- randomamplitudes(x) -->
     <defs>
      <path d="M 41.109375 46.296875 
Q 39.59375 47.171875 37.8125 47.578125 
Q 36.03125 48 33.890625 48 
Q 26.265625 48 22.1875 43.046875 
Q 18.109375 38.09375 18.109375 28.8125 
L 18.109375 0 
L 9.078125 0 
L 9.078125 54.6875 
L 18.109375 54.6875 
L 18.109375 46.1875 
Q 20.953125 51.171875 25.484375 53.578125 
Q 30.03125 56 36.53125 56 
Q 37.453125 56 38.578125 55.875 
Q 39.703125 55.765625 41.0625 55.515625 
z
" id="DejaVuSans-114"/>
      <path d="M 54.890625 33.015625 
L 54.890625 0 
L 45.90625 0 
L 45.90625 32.71875 
Q 45.90625 40.484375 42.875 44.328125 
Q 39.84375 48.1875 33.796875 48.1875 
Q 26.515625 48.1875 22.3125 43.546875 
Q 18.109375 38.921875 18.109375 30.90625 
L 18.109375 0 
L 9.078125 0 
L 9.078125 54.6875 
L 18.109375 54.6875 
L 18.109375 46.1875 
Q 21.34375 51.125 25.703125 53.5625 
Q 30.078125 56 35.796875 56 
Q 45.21875 56 50.046875 50.171875 
Q 54.890625 44.34375 54.890625 33.015625 
z
" id="DejaVuSans-110"/>
      <path d="M 45.40625 46.390625 
L 45.40625 75.984375 
L 54.390625 75.984375 
L 54.390625 0 
L 45.40625 0 
L 45.40625 8.203125 
Q 42.578125 3.328125 38.25 0.953125 
Q 33.9375 -1.421875 27.875 -1.421875 
Q 17.96875 -1.421875 11.734375 6.484375 
Q 5.515625 14.40625 5.515625 27.296875 
Q 5.515625 40.1875 11.734375 48.09375 
Q 17.96875 56 27.875 56 
Q 33.9375 56 38.25 53.625 
Q 42.578125 51.265625 45.40625 46.390625 
z
M 14.796875 27.296875 
Q 14.796875 17.390625 18.875 11.75 
Q 22.953125 6.109375 30.078125 6.109375 
Q 37.203125 6.109375 41.296875 11.75 
Q 45.40625 17.390625 45.40625 27.296875 
Q 45.40625 37.203125 41.296875 42.84375 
Q 37.203125 48.484375 30.078125 48.484375 
Q 22.953125 48.484375 18.875 42.84375 
Q 14.796875 37.203125 14.796875 27.296875 
z
" id="DejaVuSans-100"/>
      <path d="M 30.609375 48.390625 
Q 23.390625 48.390625 19.1875 42.75 
Q 14.984375 37.109375 14.984375 27.296875 
Q 14.984375 17.484375 19.15625 11.84375 
Q 23.34375 6.203125 30.609375 6.203125 
Q 37.796875 6.203125 41.984375 11.859375 
Q 46.1875 17.53125 46.1875 27.296875 
Q 46.1875 37.015625 41.984375 42.703125 
Q 37.796875 48.390625 30.609375 48.390625 
z
M 30.609375 56 
Q 42.328125 56 49.015625 48.375 
Q 55.71875 40.765625 55.71875 27.296875 
Q 55.71875 13.875 49.015625 6.21875 
Q 42.328125 -1.421875 30.609375 -1.421875 
Q 18.84375 -1.421875 12.171875 6.21875 
Q 5.515625 13.875 5.515625 27.296875 
Q 5.515625 40.765625 12.171875 48.375 
Q 18.84375 56 30.609375 56 
z
" id="DejaVuSans-111"/>
      <path d="M 31 75.875 
Q 24.46875 64.65625 21.28125 53.65625 
Q 18.109375 42.671875 18.109375 31.390625 
Q 18.109375 20.125 21.3125 9.0625 
Q 24.515625 -2 31 -13.1875 
L 23.1875 -13.1875 
Q 15.875 -1.703125 12.234375 9.375 
Q 8.59375 20.453125 8.59375 31.390625 
Q 8.59375 42.28125 12.203125 53.3125 
Q 15.828125 64.359375 23.1875 75.875 
z
" id="DejaVuSans-40"/>
      <path d="M 8.015625 75.875 
L 15.828125 75.875 
Q 23.140625 64.359375 26.78125 53.3125 
Q 30.421875 42.28125 30.421875 31.390625 
Q 30.421875 20.453125 26.78125 9.375 
Q 23.140625 -1.703125 15.828125 -13.1875 
L 8.015625 -13.1875 
Q 14.5 -2 17.703125 9.0625 
Q 20.90625 20.125 20.90625 31.390625 
Q 20.90625 42.671875 17.703125 53.65625 
Q 14.5 64.65625 8.015625 75.875 
z
" id="DejaVuSans-41"/>
     </defs>
     <g transform="translate(335.366604 152.841356)scale(0.08 -0.08)">
      <use xlink:href="#DejaVuSans-114"/>
      <use x="41.113281" xlink:href="#DejaVuSans-97"/>
      <use x="102.392578" xlink:href="#DejaVuSans-110"/>
      <use x="165.771484" xlink:href="#DejaVuSans-100"/>
      <use x="229.248047" xlink:href="#DejaVuSans-111"/>
      <use x="290.429688" xlink:href="#DejaVuSans-109"/>
      <use x="387.841797" xlink:href="#DejaVuSans-97"/>
      <use x="449.121094" xlink:href="#DejaVuSans-109"/>
      <use x="546.533203" xlink:href="#DejaVuSans-112"/>
      <use x="610.009766" xlink:href="#DejaVuSans-108"/>
      <use x="637.792969" xlink:href="#DejaVuSans-105"/>
      <use x="665.576172" xlink:href="#DejaVuSans-116"/>
      <use x="704.785156" xlink:href="#DejaVuSans-117"/>
      <use x="768.164062" xlink:href="#DejaVuSans-100"/>
      <use x="831.640625" xlink:href="#DejaVuSans-101"/>
      <use x="893.164062" xlink:href="#DejaVuSans-115"/>
      <use x="945.263672" xlink:href="#DejaVuSans-40"/>
      <use x="984.277344" xlink:href="#DejaVuSans-120"/>
      <use x="1043.457031" xlink:href="#DejaVuSans-41"/>
     </g>
    </g>
   </g>
  </g>
 </g>
 <defs>
  <clipPath id="p19caec9fb8">
   <rect height="120.102748" width="392.550709" x="36.614646" y="2.834646"/>
  </clipPath>
  <clipPath id="p2e3ffee774">
   <rect height="120.102748" width="392.550709" x="36.614646" y="139.562606"/>
  </clipPath>
 </defs>
</svg>
