<?xml version="1.0" encoding="utf-8" standalone="no"?>
<!DOCTYPE svg PUBLIC "-//W3C//DTD SVG 1.1//EN"
  "http://www.w3.org/Graphics/SVG/1.1/DTD/svg11.dtd">
<!-- Created with matplotlib (https://matplotlib.org/) -->
<svg height="288pt" version="1.1" viewBox="0 0 432 288" width="432pt" xmlns="http://www.w3.org/2000/svg" xmlns:xlink="http://www.w3.org/1999/xlink">
 <defs>
  <style type="text/css">
*{stroke-linecap:butt;stroke-linejoin:round;}
  </style>
 </defs>
 <g id="figure_1">
  <g id="patch_1">
   <path d="M 0 288 
L 432 288 
L 432 0 
L 0 0 
z
" style="fill:#ffffff;"/>
  </g>
  <g id="axes_1">
   <g id="patch_2">
    <path d="M 36.614646 123.065354 
L 429.165354 123.065354 
L 429.165354 2.834646 
L 36.614646 2.834646 
z
" style="fill:#ffffff;"/>
   </g>
   <g id="matplotlib.axis_1">
    <g id="xtick_1">
     <g id="line2d_1">
      <path clip-path="url(#p92c11ae0a9)" d="M 45.863612 123.065354 
L 45.863612 2.834646 
" style="fill:none;stroke:#000000;stroke-linecap:square;stroke-opacity:0.1;stroke-width:0.5;"/>
     </g>
     <g id="line2d_2">
      <defs>
       <path d="M 0 0 
L 0 -3.5 
" id="m55b8044e0d" style="stroke:#000000;stroke-width:0.8;"/>
      </defs>
      <g>
       <use style="stroke:#000000;stroke-width:0.8;" x="45.863612" xlink:href="#m55b8044e0d" y="123.065354"/>
      </g>
     </g>
     <g id="text_1">
      <!-- 0 -->
      <defs>
       <path d="M 31.78125 66.40625 
Q 24.171875 66.40625 20.328125 58.90625 
Q 16.5 51.421875 16.5 36.375 
Q 16.5 21.390625 20.328125 13.890625 
Q 24.171875 6.390625 31.78125 6.390625 
Q 39.453125 6.390625 43.28125 13.890625 
Q 47.125 21.390625 47.125 36.375 
Q 47.125 51.421875 43.28125 58.90625 
Q 39.453125 66.40625 31.78125 66.40625 
z
M 31.78125 74.21875 
Q 44.046875 74.21875 50.515625 64.515625 
Q 56.984375 54.828125 56.984375 36.375 
Q 56.984375 17.96875 50.515625 8.265625 
Q 44.046875 -1.421875 31.78125 -1.421875 
Q 19.53125 -1.421875 13.0625 8.265625 
Q 6.59375 17.96875 6.59375 36.375 
Q 6.59375 54.828125 13.0625 64.515625 
Q 19.53125 74.21875 31.78125 74.21875 
z
" id="DejaVuSans-48"/>
      </defs>
      <g transform="translate(43.318612 132.644104)scale(0.08 -0.08)">
       <use xlink:href="#DejaVuSans-48"/>
      </g>
     </g>
    </g>
    <g id="xtick_2">
     <g id="line2d_3">
      <path clip-path="url(#p92c11ae0a9)" d="M 138.911566 123.065354 
L 138.911566 2.834646 
" style="fill:none;stroke:#000000;stroke-linecap:square;stroke-opacity:0.1;stroke-width:0.5;"/>
     </g>
     <g id="line2d_4">
      <g>
       <use style="stroke:#000000;stroke-width:0.8;" x="138.911566" xlink:href="#m55b8044e0d" y="123.065354"/>
      </g>
     </g>
     <g id="text_2">
      <!-- 50 -->
      <defs>
       <path d="M 10.796875 72.90625 
L 49.515625 72.90625 
L 49.515625 64.59375 
L 19.828125 64.59375 
L 19.828125 46.734375 
Q 21.96875 47.46875 24.109375 47.828125 
Q 26.265625 48.1875 28.421875 48.1875 
Q 40.625 48.1875 47.75 41.5 
Q 54.890625 34.8125 54.890625 23.390625 
Q 54.890625 11.625 47.5625 5.09375 
Q 40.234375 -1.421875 26.90625 -1.421875 
Q 22.3125 -1.421875 17.546875 -0.640625 
Q 12.796875 0.140625 7.71875 1.703125 
L 7.71875 11.625 
Q 12.109375 9.234375 16.796875 8.0625 
Q 21.484375 6.890625 26.703125 6.890625 
Q 35.15625 6.890625 40.078125 11.328125 
Q 45.015625 15.765625 45.015625 23.390625 
Q 45.015625 31 40.078125 35.4375 
Q 35.15625 39.890625 26.703125 39.890625 
Q 22.75 39.890625 18.8125 39.015625 
Q 14.890625 38.140625 10.796875 36.28125 
z
" id="DejaVuSans-53"/>
      </defs>
      <g transform="translate(133.821566 132.644104)scale(0.08 -0.08)">
       <use xlink:href="#DejaVuSans-53"/>
       <use x="63.623047" xlink:href="#DejaVuSans-48"/>
      </g>
     </g>
    </g>
    <g id="xtick_3">
     <g id="line2d_5">
      <path clip-path="url(#p92c11ae0a9)" d="M 231.95952 123.065354 
L 231.95952 2.834646 
" style="fill:none;stroke:#000000;stroke-linecap:square;stroke-opacity:0.1;stroke-width:0.5;"/>
     </g>
     <g id="line2d_6">
      <g>
       <use style="stroke:#000000;stroke-width:0.8;" x="231.95952" xlink:href="#m55b8044e0d" y="123.065354"/>
      </g>
     </g>
     <g id="text_3">
      <!-- 100 -->
      <defs>
       <path d="M 12.40625 8.296875 
L 28.515625 8.296875 
L 28.515625 63.921875 
L 10.984375 60.40625 
L 10.984375 69.390625 
L 28.421875 72.90625 
L 38.28125 72.90625 
L 38.28125 8.296875 
L 54.390625 8.296875 
L 54.390625 0 
L 12.40625 0 
z
" id="DejaVuSans-49"/>
      </defs>
      <g transform="translate(224.32452 132.644104)scale(0.08 -0.08)">
       <use xlink:href="#DejaVuSans-49"/>
       <use x="63.623047" xlink:href="#DejaVuSans-48"/>
       <use x="127.246094" xlink:href="#DejaVuSans-48"/>
      </g>
     </g>
    </g>
    <g id="xtick_4">
     <g id="line2d_7">
      <path clip-path="url(#p92c11ae0a9)" d="M 325.007475 123.065354 
L 325.007475 2.834646 
" style="fill:none;stroke:#000000;stroke-linecap:square;stroke-opacity:0.1;stroke-width:0.5;"/>
     </g>
     <g id="line2d_8">
      <g>
       <use style="stroke:#000000;stroke-width:0.8;" x="325.007475" xlink:href="#m55b8044e0d" y="123.065354"/>
      </g>
     </g>
     <g id="text_4">
      <!-- 150 -->
      <g transform="translate(317.372475 132.644104)scale(0.08 -0.08)">
       <use xlink:href="#DejaVuSans-49"/>
       <use x="63.623047" xlink:href="#DejaVuSans-53"/>
       <use x="127.246094" xlink:href="#DejaVuSans-48"/>
      </g>
     </g>
    </g>
    <g id="xtick_5">
     <g id="line2d_9">
      <path clip-path="url(#p92c11ae0a9)" d="M 418.055429 123.065354 
L 418.055429 2.834646 
" style="fill:none;stroke:#000000;stroke-linecap:square;stroke-opacity:0.1;stroke-width:0.5;"/>
     </g>
     <g id="line2d_10">
      <g>
       <use style="stroke:#000000;stroke-width:0.8;" x="418.055429" xlink:href="#m55b8044e0d" y="123.065354"/>
      </g>
     </g>
     <g id="text_5">
      <!-- 200 -->
      <defs>
       <path d="M 19.1875 8.296875 
L 53.609375 8.296875 
L 53.609375 0 
L 7.328125 0 
L 7.328125 8.296875 
Q 12.9375 14.109375 22.625 23.890625 
Q 32.328125 33.6875 34.8125 36.53125 
Q 39.546875 41.84375 41.421875 45.53125 
Q 43.3125 49.21875 43.3125 52.78125 
Q 43.3125 58.59375 39.234375 62.25 
Q 35.15625 65.921875 28.609375 65.921875 
Q 23.96875 65.921875 18.8125 64.3125 
Q 13.671875 62.703125 7.8125 59.421875 
L 7.8125 69.390625 
Q 13.765625 71.78125 18.9375 73 
Q 24.125 74.21875 28.421875 74.21875 
Q 39.75 74.21875 46.484375 68.546875 
Q 53.21875 62.890625 53.21875 53.421875 
Q 53.21875 48.921875 51.53125 44.890625 
Q 49.859375 40.875 45.40625 35.40625 
Q 44.1875 33.984375 37.640625 27.21875 
Q 31.109375 20.453125 19.1875 8.296875 
z
" id="DejaVuSans-50"/>
      </defs>
      <g transform="translate(410.420429 132.644104)scale(0.08 -0.08)">
       <use xlink:href="#DejaVuSans-50"/>
       <use x="63.623047" xlink:href="#DejaVuSans-48"/>
       <use x="127.246094" xlink:href="#DejaVuSans-48"/>
      </g>
     </g>
    </g>
   </g>
   <g id="matplotlib.axis_2">
    <g id="ytick_1">
     <g id="line2d_11">
      <path clip-path="url(#p92c11ae0a9)" d="M 36.614646 105.557319 
L 429.165354 105.557319 
" style="fill:none;stroke:#000000;stroke-linecap:square;stroke-opacity:0.1;stroke-width:0.5;"/>
     </g>
     <g id="line2d_12">
      <defs>
       <path d="M 0 0 
L 3.5 0 
" id="m6078de2a75" style="stroke:#000000;stroke-width:0.8;"/>
      </defs>
      <g>
       <use style="stroke:#000000;stroke-width:0.8;" x="36.614646" xlink:href="#m6078de2a75" y="105.557319"/>
      </g>
     </g>
     <g id="text_6">
      <!-- -1.0 -->
      <defs>
       <path d="M 4.890625 31.390625 
L 31.203125 31.390625 
L 31.203125 23.390625 
L 4.890625 23.390625 
z
" id="DejaVuSans-45"/>
       <path d="M 10.6875 12.40625 
L 21 12.40625 
L 21 0 
L 10.6875 0 
z
" id="DejaVuSans-46"/>
      </defs>
      <g transform="translate(17.505896 108.596694)scale(0.08 -0.08)">
       <use xlink:href="#DejaVuSans-45"/>
       <use x="36.083984" xlink:href="#DejaVuSans-49"/>
       <use x="99.707031" xlink:href="#DejaVuSans-46"/>
       <use x="131.494141" xlink:href="#DejaVuSans-48"/>
      </g>
     </g>
    </g>
    <g id="ytick_2">
     <g id="line2d_13">
      <path clip-path="url(#p92c11ae0a9)" d="M 36.614646 84.852518 
L 429.165354 84.852518 
" style="fill:none;stroke:#000000;stroke-linecap:square;stroke-opacity:0.1;stroke-width:0.5;"/>
     </g>
     <g id="line2d_14">
      <g>
       <use style="stroke:#000000;stroke-width:0.8;" x="36.614646" xlink:href="#m6078de2a75" y="84.852518"/>
      </g>
     </g>
     <g id="text_7">
      <!-- -0.5 -->
      <g transform="translate(17.505896 87.891893)scale(0.08 -0.08)">
       <use xlink:href="#DejaVuSans-45"/>
       <use x="36.083984" xlink:href="#DejaVuSans-48"/>
       <use x="99.707031" xlink:href="#DejaVuSans-46"/>
       <use x="131.494141" xlink:href="#DejaVuSans-53"/>
      </g>
     </g>
    </g>
    <g id="ytick_3">
     <g id="line2d_15">
      <path clip-path="url(#p92c11ae0a9)" d="M 36.614646 64.147718 
L 429.165354 64.147718 
" style="fill:none;stroke:#000000;stroke-linecap:square;stroke-opacity:0.1;stroke-width:0.5;"/>
     </g>
     <g id="line2d_16">
      <g>
       <use style="stroke:#000000;stroke-width:0.8;" x="36.614646" xlink:href="#m6078de2a75" y="64.147718"/>
      </g>
     </g>
     <g id="text_8">
      <!-- 0.0 -->
      <g transform="translate(20.392146 67.187093)scale(0.08 -0.08)">
       <use xlink:href="#DejaVuSans-48"/>
       <use x="63.623047" xlink:href="#DejaVuSans-46"/>
       <use x="95.410156" xlink:href="#DejaVuSans-48"/>
      </g>
     </g>
    </g>
    <g id="ytick_4">
     <g id="line2d_17">
      <path clip-path="url(#p92c11ae0a9)" d="M 36.614646 43.442917 
L 429.165354 43.442917 
" style="fill:none;stroke:#000000;stroke-linecap:square;stroke-opacity:0.1;stroke-width:0.5;"/>
     </g>
     <g id="line2d_18">
      <g>
       <use style="stroke:#000000;stroke-width:0.8;" x="36.614646" xlink:href="#m6078de2a75" y="43.442917"/>
      </g>
     </g>
     <g id="text_9">
      <!-- 0.5 -->
      <g transform="translate(20.392146 46.482292)scale(0.08 -0.08)">
       <use xlink:href="#DejaVuSans-48"/>
       <use x="63.623047" xlink:href="#DejaVuSans-46"/>
       <use x="95.410156" xlink:href="#DejaVuSans-53"/>
      </g>
     </g>
    </g>
    <g id="ytick_5">
     <g id="line2d_19">
      <path clip-path="url(#p92c11ae0a9)" d="M 36.614646 22.738117 
L 429.165354 22.738117 
" style="fill:none;stroke:#000000;stroke-linecap:square;stroke-opacity:0.1;stroke-width:0.5;"/>
     </g>
     <g id="line2d_20">
      <g>
       <use style="stroke:#000000;stroke-width:0.8;" x="36.614646" xlink:href="#m6078de2a75" y="22.738117"/>
      </g>
     </g>
     <g id="text_10">
      <!-- 1.0 -->
      <g transform="translate(20.392146 25.777492)scale(0.08 -0.08)">
       <use xlink:href="#DejaVuSans-49"/>
       <use x="63.623047" xlink:href="#DejaVuSans-46"/>
       <use x="95.410156" xlink:href="#DejaVuSans-48"/>
      </g>
     </g>
    </g>
    <g id="text_11">
     <!-- Value -->
     <defs>
      <path d="M 28.609375 0 
L 0.78125 72.90625 
L 11.078125 72.90625 
L 34.1875 11.53125 
L 57.328125 72.90625 
L 67.578125 72.90625 
L 39.796875 0 
z
" id="DejaVuSans-86"/>
      <path d="M 34.28125 27.484375 
Q 23.390625 27.484375 19.1875 25 
Q 14.984375 22.515625 14.984375 16.5 
Q 14.984375 11.71875 18.140625 8.90625 
Q 21.296875 6.109375 26.703125 6.109375 
Q 34.1875 6.109375 38.703125 11.40625 
Q 43.21875 16.703125 43.21875 25.484375 
L 43.21875 27.484375 
z
M 52.203125 31.203125 
L 52.203125 0 
L 43.21875 0 
L 43.21875 8.296875 
Q 40.140625 3.328125 35.546875 0.953125 
Q 30.953125 -1.421875 24.3125 -1.421875 
Q 15.921875 -1.421875 10.953125 3.296875 
Q 6 8.015625 6 15.921875 
Q 6 25.140625 12.171875 29.828125 
Q 18.359375 34.515625 30.609375 34.515625 
L 43.21875 34.515625 
L 43.21875 35.40625 
Q 43.21875 41.609375 39.140625 45 
Q 35.0625 48.390625 27.6875 48.390625 
Q 23 48.390625 18.546875 47.265625 
Q 14.109375 46.140625 10.015625 43.890625 
L 10.015625 52.203125 
Q 14.9375 54.109375 19.578125 55.046875 
Q 24.21875 56 28.609375 56 
Q 40.484375 56 46.34375 49.84375 
Q 52.203125 43.703125 52.203125 31.203125 
z
" id="DejaVuSans-97"/>
      <path d="M 9.421875 75.984375 
L 18.40625 75.984375 
L 18.40625 0 
L 9.421875 0 
z
" id="DejaVuSans-108"/>
      <path d="M 8.5 21.578125 
L 8.5 54.6875 
L 17.484375 54.6875 
L 17.484375 21.921875 
Q 17.484375 14.15625 20.5 10.265625 
Q 23.53125 6.390625 29.59375 6.390625 
Q 36.859375 6.390625 41.078125 11.03125 
Q 45.3125 15.671875 45.3125 23.6875 
L 45.3125 54.6875 
L 54.296875 54.6875 
L 54.296875 0 
L 45.3125 0 
L 45.3125 8.40625 
Q 42.046875 3.421875 37.71875 1 
Q 33.40625 -1.421875 27.6875 -1.421875 
Q 18.265625 -1.421875 13.375 4.4375 
Q 8.5 10.296875 8.5 21.578125 
z
M 31.109375 56 
z
" id="DejaVuSans-117"/>
      <path d="M 56.203125 29.59375 
L 56.203125 25.203125 
L 14.890625 25.203125 
Q 15.484375 15.921875 20.484375 11.0625 
Q 25.484375 6.203125 34.421875 6.203125 
Q 39.59375 6.203125 44.453125 7.46875 
Q 49.3125 8.734375 54.109375 11.28125 
L 54.109375 2.78125 
Q 49.265625 0.734375 44.1875 -0.34375 
Q 39.109375 -1.421875 33.890625 -1.421875 
Q 20.796875 -1.421875 13.15625 6.1875 
Q 5.515625 13.8125 5.515625 26.8125 
Q 5.515625 40.234375 12.765625 48.109375 
Q 20.015625 56 32.328125 56 
Q 43.359375 56 49.78125 48.890625 
Q 56.203125 41.796875 56.203125 29.59375 
z
M 47.21875 32.234375 
Q 47.125 39.59375 43.09375 43.984375 
Q 39.0625 48.390625 32.421875 48.390625 
Q 24.90625 48.390625 20.390625 44.140625 
Q 15.875 39.890625 15.1875 32.171875 
z
" id="DejaVuSans-101"/>
     </defs>
     <g transform="translate(11.218239 78.474609)rotate(-90)scale(0.11 -0.11)">
      <use xlink:href="#DejaVuSans-86"/>
      <use x="68.298828" xlink:href="#DejaVuSans-97"/>
      <use x="129.578125" xlink:href="#DejaVuSans-108"/>
      <use x="157.361328" xlink:href="#DejaVuSans-117"/>
      <use x="220.740234" xlink:href="#DejaVuSans-101"/>
     </g>
    </g>
   </g>
   <g id="line2d_21">
    <path clip-path="url(#p92c11ae0a9)" d="M 47.724571 11.700319 
L 49.58553 24.904781 
L 51.44649 27.56548 
L 53.307449 32.532433 
L 55.168408 50.430627 
L 57.029367 29.179476 
L 58.890326 69.577966 
L 60.751285 50.58106 
L 62.612244 73.616955 
L 64.473203 94.943824 
L 66.334162 81.451627 
L 68.195121 101.668435 
L 70.05608 99.117053 
L 71.917039 102.86255 
L 73.777999 108.220393 
L 75.638958 105.77713 
L 77.499917 89.226127 
L 79.360876 100.173181 
L 81.221835 95.797069 
L 83.082794 76.014303 
L 84.943753 85.985777 
L 86.804712 68.832553 
L 88.665671 47.852992 
L 92.387589 46.213222 
L 94.248548 27.691536 
L 96.109508 39.315715 
L 97.970467 15.950658 
L 99.831426 31.365202 
L 101.692385 13.649238 
L 103.553344 37.545265 
L 105.414303 31.062657 
L 107.275262 26.147855 
L 109.136221 44.055527 
L 110.99718 57.872255 
L 112.858139 53.040719 
L 114.719098 76.489519 
L 116.580057 67.193695 
L 118.441016 84.505419 
L 120.301976 90.740907 
L 122.162935 96.380884 
L 124.023894 111.896251 
L 125.884853 104.844955 
L 127.745812 100.021694 
L 129.606771 97.416559 
L 131.46773 101.676375 
L 133.328689 95.320151 
L 135.189648 101.959493 
L 137.050607 72.067915 
L 138.911566 62.460875 
L 140.772525 66.529739 
L 142.633485 52.741143 
L 144.494444 42.746037 
L 146.355403 47.984969 
L 148.216362 17.301635 
L 150.077321 41.693721 
L 151.93828 7.29701 
L 153.799239 28.830695 
L 155.660198 28.599213 
L 157.521157 31.191953 
L 159.382116 32.498453 
L 161.243075 35.970985 
L 163.104034 44.395065 
L 164.964994 61.302088 
L 166.825953 60.705992 
L 168.686912 78.760938 
L 170.547871 83.00339 
L 172.40883 88.964042 
L 174.269789 91.40427 
L 176.130748 93.342113 
L 179.852666 117.925699 
L 181.713625 104.240147 
L 183.574584 101.317679 
L 185.435543 82.929136 
L 187.296503 94.190929 
L 189.157462 86.806412 
L 191.018421 68.867494 
L 192.87938 63.494324 
L 194.740339 71.362939 
L 196.601298 46.765397 
L 198.462257 29.19944 
L 200.323216 44.476725 
L 202.184175 18.175284 
L 204.045134 34.461267 
L 205.906093 16.397418 
L 207.767052 16.986355 
L 209.628011 39.924632 
L 211.488971 15.511359 
L 213.34993 50.492979 
L 215.210889 30.002104 
L 217.071848 55.79701 
L 218.932807 59.297454 
L 220.793766 63.039934 
L 222.654725 89.019472 
L 224.515684 93.67149 
L 226.376643 77.54193 
L 228.237602 113.106081 
L 230.098561 90.241682 
L 231.95952 112.948222 
L 233.82048 106.094004 
L 235.681439 108.03085 
L 237.542398 97.641298 
L 239.403357 85.683684 
L 241.264316 85.386779 
L 243.125275 74.789607 
L 244.986234 73.445784 
L 246.847193 56.476107 
L 248.708152 60.688108 
L 250.569111 41.751969 
L 252.43007 40.836191 
L 254.291029 23.982462 
L 256.151989 24.918233 
L 258.012948 32.635125 
L 259.873907 25.659168 
L 261.734866 26.028553 
L 263.595825 16.856128 
L 265.456784 43.818176 
L 267.317743 25.978421 
L 269.178702 56.070186 
L 271.039661 56.847514 
L 272.90062 58.917529 
L 274.761579 80.441413 
L 276.622538 84.074096 
L 278.483497 81.332959 
L 280.344457 102.872769 
L 282.205416 105.277002 
L 284.066375 95.026252 
L 287.788293 117.796588 
L 291.510211 84.515386 
L 293.37117 104.240794 
L 295.232129 79.945835 
L 297.093088 72.673115 
L 298.954047 54.204651 
L 300.815006 50.53053 
L 302.675966 63.189254 
L 304.536925 32.896587 
L 306.397884 24.985044 
L 308.258843 37.506232 
L 310.119802 17.589115 
L 311.980761 31.255008 
L 313.84172 7.221819 
L 315.702679 40.885732 
L 317.563638 21.986221 
L 319.424597 30.290461 
L 321.285556 51.652548 
L 323.146515 48.14733 
L 325.007475 64.700447 
L 326.868434 82.562981 
L 328.729393 67.812939 
L 330.590352 99.655023 
L 332.451311 79.724478 
L 334.31227 108.4552 
L 336.173229 98.691121 
L 338.034188 104.080283 
L 339.895147 109.92379 
L 341.756106 109.485965 
L 343.617065 100.004468 
L 345.478024 79.729322 
L 347.338984 99.888626 
L 349.199943 62.763013 
L 351.060902 71.026365 
L 352.921861 58.022603 
L 354.78282 53.744812 
L 356.643779 50.78696 
L 358.504738 29.813668 
L 360.365697 29.531526 
L 362.226656 18.283409 
L 364.087615 33.023149 
L 365.948574 11.610902 
L 367.809533 38.683073 
L 369.670492 20.930805 
L 371.531452 29.141382 
L 373.392411 38.036697 
L 375.25337 61.074477 
L 377.114329 52.120095 
L 378.975288 59.425234 
L 380.836247 80.857873 
L 382.697206 80.429699 
L 384.558165 104.504982 
L 386.419124 84.417102 
L 388.280083 104.647828 
L 390.141042 108.88472 
L 392.002001 99.935227 
L 393.862961 119.662598 
L 395.72392 87.814096 
L 397.584879 104.649096 
L 399.445838 84.049046 
L 401.306797 77.49654 
L 403.167756 77.632862 
L 405.028715 71.07373 
L 406.889674 45.808972 
L 408.750633 46.337857 
L 410.611592 27.732637 
L 412.472551 33.171145 
L 414.33351 25.229634 
L 416.19447 39.900259 
L 418.055429 6.237402 
L 418.055429 6.237402 
" style="fill:none;stroke:#000000;stroke-linecap:round;"/>
   </g>
   <g id="patch_3">
    <path d="M 36.614646 123.065354 
L 36.614646 2.834646 
" style="fill:none;stroke:#000000;stroke-linecap:square;stroke-linejoin:miter;"/>
   </g>
   <g id="patch_4">
    <path d="M 36.614646 123.065354 
L 429.165354 123.065354 
" style="fill:none;stroke:#000000;stroke-linecap:square;stroke-linejoin:miter;"/>
   </g>
   <g id="legend_1">
    <g id="patch_5">
     <path d="M 216.438125 20.977146 
L 249.341875 20.977146 
Q 250.941875 20.977146 250.941875 19.377146 
L 250.941875 8.434646 
Q 250.941875 6.834646 249.341875 6.834646 
L 216.438125 6.834646 
Q 214.838125 6.834646 214.838125 8.434646 
L 214.838125 19.377146 
Q 214.838125 20.977146 216.438125 20.977146 
z
" style="fill:#ffffff;stroke:#000000;stroke-linejoin:miter;"/>
    </g>
    <g id="line2d_22">
     <path d="M 218.038125 13.313396 
L 234.038125 13.313396 
" style="fill:none;stroke:#000000;stroke-linecap:square;"/>
    </g>
    <g id="line2d_23"/>
    <g id="text_12">
     <!-- ts -->
     <defs>
      <path d="M 18.3125 70.21875 
L 18.3125 54.6875 
L 36.8125 54.6875 
L 36.8125 47.703125 
L 18.3125 47.703125 
L 18.3125 18.015625 
Q 18.3125 11.328125 20.140625 9.421875 
Q 21.96875 7.515625 27.59375 7.515625 
L 36.8125 7.515625 
L 36.8125 0 
L 27.59375 0 
Q 17.1875 0 13.234375 3.875 
Q 9.28125 7.765625 9.28125 18.015625 
L 9.28125 47.703125 
L 2.6875 47.703125 
L 2.6875 54.6875 
L 9.28125 54.6875 
L 9.28125 70.21875 
z
" id="DejaVuSans-116"/>
      <path d="M 44.28125 53.078125 
L 44.28125 44.578125 
Q 40.484375 46.53125 36.375 47.5 
Q 32.28125 48.484375 27.875 48.484375 
Q 21.1875 48.484375 17.84375 46.4375 
Q 14.5 44.390625 14.5 40.28125 
Q 14.5 37.15625 16.890625 35.375 
Q 19.28125 33.59375 26.515625 31.984375 
L 29.59375 31.296875 
Q 39.15625 29.25 43.1875 25.515625 
Q 47.21875 21.78125 47.21875 15.09375 
Q 47.21875 7.46875 41.1875 3.015625 
Q 35.15625 -1.421875 24.609375 -1.421875 
Q 20.21875 -1.421875 15.453125 -0.5625 
Q 10.6875 0.296875 5.421875 2 
L 5.421875 11.28125 
Q 10.40625 8.6875 15.234375 7.390625 
Q 20.0625 6.109375 24.8125 6.109375 
Q 31.15625 6.109375 34.5625 8.28125 
Q 37.984375 10.453125 37.984375 14.40625 
Q 37.984375 18.0625 35.515625 20.015625 
Q 33.0625 21.96875 24.703125 23.78125 
L 21.578125 24.515625 
Q 13.234375 26.265625 9.515625 29.90625 
Q 5.8125 33.546875 5.8125 39.890625 
Q 5.8125 47.609375 11.28125 51.796875 
Q 16.75 56 26.8125 56 
Q 31.78125 56 36.171875 55.265625 
Q 40.578125 54.546875 44.28125 53.078125 
z
" id="DejaVuSans-115"/>
     </defs>
     <g transform="translate(240.438125 16.113396)scale(0.08 -0.08)">
      <use xlink:href="#DejaVuSans-116"/>
      <use x="39.208984" xlink:href="#DejaVuSans-115"/>
     </g>
    </g>
   </g>
  </g>
  <g id="axes_2">
   <g id="patch_6">
    <path d="M 36.614646 259.665354 
L 429.165354 259.665354 
L 429.165354 139.434646 
L 36.614646 139.434646 
z
" style="fill:#ffffff;"/>
   </g>
   <g id="matplotlib.axis_3">
    <g id="xtick_6">
     <g id="line2d_24">
      <path clip-path="url(#p3c652f1f22)" d="M 45.863612 259.665354 
L 45.863612 139.434646 
" style="fill:none;stroke:#000000;stroke-linecap:square;stroke-opacity:0.1;stroke-width:0.5;"/>
     </g>
     <g id="line2d_25">
      <g>
       <use style="stroke:#000000;stroke-width:0.8;" x="45.863612" xlink:href="#m55b8044e0d" y="259.665354"/>
      </g>
     </g>
     <g id="text_13">
      <!-- 0 -->
      <g transform="translate(43.318612 269.244104)scale(0.08 -0.08)">
       <use xlink:href="#DejaVuSans-48"/>
      </g>
     </g>
    </g>
    <g id="xtick_7">
     <g id="line2d_26">
      <path clip-path="url(#p3c652f1f22)" d="M 138.911566 259.665354 
L 138.911566 139.434646 
" style="fill:none;stroke:#000000;stroke-linecap:square;stroke-opacity:0.1;stroke-width:0.5;"/>
     </g>
     <g id="line2d_27">
      <g>
       <use style="stroke:#000000;stroke-width:0.8;" x="138.911566" xlink:href="#m55b8044e0d" y="259.665354"/>
      </g>
     </g>
     <g id="text_14">
      <!-- 50 -->
      <g transform="translate(133.821566 269.244104)scale(0.08 -0.08)">
       <use xlink:href="#DejaVuSans-53"/>
       <use x="63.623047" xlink:href="#DejaVuSans-48"/>
      </g>
     </g>
    </g>
    <g id="xtick_8">
     <g id="line2d_28">
      <path clip-path="url(#p3c652f1f22)" d="M 231.95952 259.665354 
L 231.95952 139.434646 
" style="fill:none;stroke:#000000;stroke-linecap:square;stroke-opacity:0.1;stroke-width:0.5;"/>
     </g>
     <g id="line2d_29">
      <g>
       <use style="stroke:#000000;stroke-width:0.8;" x="231.95952" xlink:href="#m55b8044e0d" y="259.665354"/>
      </g>
     </g>
     <g id="text_15">
      <!-- 100 -->
      <g transform="translate(224.32452 269.244104)scale(0.08 -0.08)">
       <use xlink:href="#DejaVuSans-49"/>
       <use x="63.623047" xlink:href="#DejaVuSans-48"/>
       <use x="127.246094" xlink:href="#DejaVuSans-48"/>
      </g>
     </g>
    </g>
    <g id="xtick_9">
     <g id="line2d_30">
      <path clip-path="url(#p3c652f1f22)" d="M 325.007475 259.665354 
L 325.007475 139.434646 
" style="fill:none;stroke:#000000;stroke-linecap:square;stroke-opacity:0.1;stroke-width:0.5;"/>
     </g>
     <g id="line2d_31">
      <g>
       <use style="stroke:#000000;stroke-width:0.8;" x="325.007475" xlink:href="#m55b8044e0d" y="259.665354"/>
      </g>
     </g>
     <g id="text_16">
      <!-- 150 -->
      <g transform="translate(317.372475 269.244104)scale(0.08 -0.08)">
       <use xlink:href="#DejaVuSans-49"/>
       <use x="63.623047" xlink:href="#DejaVuSans-53"/>
       <use x="127.246094" xlink:href="#DejaVuSans-48"/>
      </g>
     </g>
    </g>
    <g id="xtick_10">
     <g id="line2d_32">
      <path clip-path="url(#p3c652f1f22)" d="M 418.055429 259.665354 
L 418.055429 139.434646 
" style="fill:none;stroke:#000000;stroke-linecap:square;stroke-opacity:0.1;stroke-width:0.5;"/>
     </g>
     <g id="line2d_33">
      <g>
       <use style="stroke:#000000;stroke-width:0.8;" x="418.055429" xlink:href="#m55b8044e0d" y="259.665354"/>
      </g>
     </g>
     <g id="text_17">
      <!-- 200 -->
      <g transform="translate(410.420429 269.244104)scale(0.08 -0.08)">
       <use xlink:href="#DejaVuSans-50"/>
       <use x="63.623047" xlink:href="#DejaVuSans-48"/>
       <use x="127.246094" xlink:href="#DejaVuSans-48"/>
      </g>
     </g>
    </g>
    <g id="text_18">
     <!-- Time step -->
     <defs>
      <path d="M -0.296875 72.90625 
L 61.375 72.90625 
L 61.375 64.59375 
L 35.5 64.59375 
L 35.5 0 
L 25.59375 0 
L 25.59375 64.59375 
L -0.296875 64.59375 
z
" id="DejaVuSans-84"/>
      <path d="M 9.421875 54.6875 
L 18.40625 54.6875 
L 18.40625 0 
L 9.421875 0 
z
M 9.421875 75.984375 
L 18.40625 75.984375 
L 18.40625 64.59375 
L 9.421875 64.59375 
z
" id="DejaVuSans-105"/>
      <path d="M 52 44.1875 
Q 55.375 50.25 60.0625 53.125 
Q 64.75 56 71.09375 56 
Q 79.640625 56 84.28125 50.015625 
Q 88.921875 44.046875 88.921875 33.015625 
L 88.921875 0 
L 79.890625 0 
L 79.890625 32.71875 
Q 79.890625 40.578125 77.09375 44.375 
Q 74.3125 48.1875 68.609375 48.1875 
Q 61.625 48.1875 57.5625 43.546875 
Q 53.515625 38.921875 53.515625 30.90625 
L 53.515625 0 
L 44.484375 0 
L 44.484375 32.71875 
Q 44.484375 40.625 41.703125 44.40625 
Q 38.921875 48.1875 33.109375 48.1875 
Q 26.21875 48.1875 22.15625 43.53125 
Q 18.109375 38.875 18.109375 30.90625 
L 18.109375 0 
L 9.078125 0 
L 9.078125 54.6875 
L 18.109375 54.6875 
L 18.109375 46.1875 
Q 21.1875 51.21875 25.484375 53.609375 
Q 29.78125 56 35.6875 56 
Q 41.65625 56 45.828125 52.96875 
Q 50 49.953125 52 44.1875 
z
" id="DejaVuSans-109"/>
      <path id="DejaVuSans-32"/>
      <path d="M 18.109375 8.203125 
L 18.109375 -20.796875 
L 9.078125 -20.796875 
L 9.078125 54.6875 
L 18.109375 54.6875 
L 18.109375 46.390625 
Q 20.953125 51.265625 25.265625 53.625 
Q 29.59375 56 35.59375 56 
Q 45.5625 56 51.78125 48.09375 
Q 58.015625 40.1875 58.015625 27.296875 
Q 58.015625 14.40625 51.78125 6.484375 
Q 45.5625 -1.421875 35.59375 -1.421875 
Q 29.59375 -1.421875 25.265625 0.953125 
Q 20.953125 3.328125 18.109375 8.203125 
z
M 48.6875 27.296875 
Q 48.6875 37.203125 44.609375 42.84375 
Q 40.53125 48.484375 33.40625 48.484375 
Q 26.265625 48.484375 22.1875 42.84375 
Q 18.109375 37.203125 18.109375 27.296875 
Q 18.109375 17.390625 22.1875 11.75 
Q 26.265625 6.109375 33.40625 6.109375 
Q 40.53125 6.109375 44.609375 11.75 
Q 48.6875 17.390625 48.6875 27.296875 
z
" id="DejaVuSans-112"/>
     </defs>
     <g transform="translate(205.618594 283.266136)scale(0.11 -0.11)">
      <use xlink:href="#DejaVuSans-84"/>
      <use x="61.037109" xlink:href="#DejaVuSans-105"/>
      <use x="88.820312" xlink:href="#DejaVuSans-109"/>
      <use x="186.232422" xlink:href="#DejaVuSans-101"/>
      <use x="247.755859" xlink:href="#DejaVuSans-32"/>
      <use x="279.542969" xlink:href="#DejaVuSans-115"/>
      <use x="331.642578" xlink:href="#DejaVuSans-116"/>
      <use x="370.851562" xlink:href="#DejaVuSans-101"/>
      <use x="432.375" xlink:href="#DejaVuSans-112"/>
     </g>
    </g>
   </g>
   <g id="matplotlib.axis_4">
    <g id="ytick_6">
     <g id="line2d_34">
      <path clip-path="url(#p3c652f1f22)" d="M 36.614646 242.157319 
L 429.165354 242.157319 
" style="fill:none;stroke:#000000;stroke-linecap:square;stroke-opacity:0.1;stroke-width:0.5;"/>
     </g>
     <g id="line2d_35">
      <g>
       <use style="stroke:#000000;stroke-width:0.8;" x="36.614646" xlink:href="#m6078de2a75" y="242.157319"/>
      </g>
     </g>
     <g id="text_19">
      <!-- -1.0 -->
      <g transform="translate(17.505896 245.196694)scale(0.08 -0.08)">
       <use xlink:href="#DejaVuSans-45"/>
       <use x="36.083984" xlink:href="#DejaVuSans-49"/>
       <use x="99.707031" xlink:href="#DejaVuSans-46"/>
       <use x="131.494141" xlink:href="#DejaVuSans-48"/>
      </g>
     </g>
    </g>
    <g id="ytick_7">
     <g id="line2d_36">
      <path clip-path="url(#p3c652f1f22)" d="M 36.614646 221.452518 
L 429.165354 221.452518 
" style="fill:none;stroke:#000000;stroke-linecap:square;stroke-opacity:0.1;stroke-width:0.5;"/>
     </g>
     <g id="line2d_37">
      <g>
       <use style="stroke:#000000;stroke-width:0.8;" x="36.614646" xlink:href="#m6078de2a75" y="221.452518"/>
      </g>
     </g>
     <g id="text_20">
      <!-- -0.5 -->
      <g transform="translate(17.505896 224.491893)scale(0.08 -0.08)">
       <use xlink:href="#DejaVuSans-45"/>
       <use x="36.083984" xlink:href="#DejaVuSans-48"/>
       <use x="99.707031" xlink:href="#DejaVuSans-46"/>
       <use x="131.494141" xlink:href="#DejaVuSans-53"/>
      </g>
     </g>
    </g>
    <g id="ytick_8">
     <g id="line2d_38">
      <path clip-path="url(#p3c652f1f22)" d="M 36.614646 200.747718 
L 429.165354 200.747718 
" style="fill:none;stroke:#000000;stroke-linecap:square;stroke-opacity:0.1;stroke-width:0.5;"/>
     </g>
     <g id="line2d_39">
      <g>
       <use style="stroke:#000000;stroke-width:0.8;" x="36.614646" xlink:href="#m6078de2a75" y="200.747718"/>
      </g>
     </g>
     <g id="text_21">
      <!-- 0.0 -->
      <g transform="translate(20.392146 203.787093)scale(0.08 -0.08)">
       <use xlink:href="#DejaVuSans-48"/>
       <use x="63.623047" xlink:href="#DejaVuSans-46"/>
       <use x="95.410156" xlink:href="#DejaVuSans-48"/>
      </g>
     </g>
    </g>
    <g id="ytick_9">
     <g id="line2d_40">
      <path clip-path="url(#p3c652f1f22)" d="M 36.614646 180.042917 
L 429.165354 180.042917 
" style="fill:none;stroke:#000000;stroke-linecap:square;stroke-opacity:0.1;stroke-width:0.5;"/>
     </g>
     <g id="line2d_41">
      <g>
       <use style="stroke:#000000;stroke-width:0.8;" x="36.614646" xlink:href="#m6078de2a75" y="180.042917"/>
      </g>
     </g>
     <g id="text_22">
      <!-- 0.5 -->
      <g transform="translate(20.392146 183.082292)scale(0.08 -0.08)">
       <use xlink:href="#DejaVuSans-48"/>
       <use x="63.623047" xlink:href="#DejaVuSans-46"/>
       <use x="95.410156" xlink:href="#DejaVuSans-53"/>
      </g>
     </g>
    </g>
    <g id="ytick_10">
     <g id="line2d_42">
      <path clip-path="url(#p3c652f1f22)" d="M 36.614646 159.338117 
L 429.165354 159.338117 
" style="fill:none;stroke:#000000;stroke-linecap:square;stroke-opacity:0.1;stroke-width:0.5;"/>
     </g>
     <g id="line2d_43">
      <g>
       <use style="stroke:#000000;stroke-width:0.8;" x="36.614646" xlink:href="#m6078de2a75" y="159.338117"/>
      </g>
     </g>
     <g id="text_23">
      <!-- 1.0 -->
      <g transform="translate(20.392146 162.377492)scale(0.08 -0.08)">
       <use xlink:href="#DejaVuSans-49"/>
       <use x="63.623047" xlink:href="#DejaVuSans-46"/>
       <use x="95.410156" xlink:href="#DejaVuSans-48"/>
      </g>
     </g>
    </g>
    <g id="text_24">
     <!-- Value -->
     <g transform="translate(11.218239 215.074609)rotate(-90)scale(0.11 -0.11)">
      <use xlink:href="#DejaVuSans-86"/>
      <use x="68.298828" xlink:href="#DejaVuSans-97"/>
      <use x="129.578125" xlink:href="#DejaVuSans-108"/>
      <use x="157.361328" xlink:href="#DejaVuSans-117"/>
      <use x="220.740234" xlink:href="#DejaVuSans-101"/>
     </g>
    </g>
   </g>
   <g id="line2d_44">
    <path clip-path="url(#p3c652f1f22)" d="M 47.724571 224.414096 
L 49.58553 207.67373 
L 51.44649 194.622603 
L 53.307449 197.288108 
L 55.168408 183.673147 
L 57.029367 182.813222 
L 58.890326 175.283073 
L 60.751285 165.199213 
L 62.612244 154.189115 
L 64.473203 174.636697 
L 66.334162 162.259168 
L 68.195121 171.061267 
L 70.05608 165.741382 
L 71.917039 169.496587 
L 73.777999 187.030627 
L 75.638958 195.897454 
L 77.499917 193.447514 
L 79.360876 221.986779 
L 81.221835 199.639934 
L 83.082794 237.917679 
L 84.943753 220.649046 
L 86.804712 227.340907 
L 88.665671 256.262598 
L 90.52663 228.00427 
L 92.387589 242.694004 
L 94.248548 237.900639 
L 96.109508 244.820393 
L 99.831426 207.962939 
L 101.692385 219.529136 
L 103.553344 203.129739 
L 105.414303 203.793695 
L 109.136221 169.771145 
L 110.99718 169.623149 
L 112.858139 154.775284 
L 114.719098 166.890461 
L 116.580057 164.16548 
L 118.441016 152.997418 
L 120.301976 167.965202 
L 122.162935 142.837402 
L 124.023894 166.602104 
L 125.884853 176.500259 
L 127.745812 184.584969 
L 129.606771 199.363013 
L 131.46773 189.640719 
L 133.328689 216.329322 
L 135.189648 201.300447 
L 137.050607 241.249096 
L 138.911566 217.041413 
L 140.772525 241.247828 
L 142.633485 242.720064 
L 144.494444 245.48472 
L 146.355403 235.291121 
L 148.216362 254.396588 
L 150.077321 216.545835 
L 151.93828 241.104982 
L 153.799239 217.029699 
L 155.660198 213.089519 
L 157.521157 215.360938 
L 159.382116 175.915715 
L 161.243075 197.305992 
L 163.104034 167.855008 
L 164.964994 166.131526 
L 166.825953 180.418176 
L 168.686912 143.821819 
L 170.547871 160.582462 
L 172.40883 153.456128 
L 174.269789 164.332637 
L 176.130748 158.586221 
L 177.991707 180.655527 
L 179.852666 169.132433 
L 181.713625 183.365397 
L 183.574584 193.076107 
L 185.435543 214.232862 
L 187.296503 216.324478 
L 189.157462 211.389607 
L 191.018421 235.717053 
L 192.87938 231.626252 
L 194.740339 241.877002 
L 196.601298 254.525699 
L 198.462257 244.63085 
L 200.323216 240.680283 
L 202.184175 230.790929 
L 204.045134 232.980884 
L 205.906093 221.115386 
L 207.767052 236.621694 
L 209.628011 206.177966 
L 211.488971 199.060875 
L 213.34993 177.436191 
L 215.210889 187.13053 
L 217.071848 162.747855 
L 218.932807 167.662657 
L 220.793766 165.79944 
L 222.654725 148.210902 
L 224.515684 161.585044 
L 226.376643 165.430695 
L 228.237602 152.111359 
L 230.098561 182.408972 
L 231.95952 161.829634 
L 233.82048 187.38696 
L 235.681439 182.937857 
L 237.542398 197.902088 
L 239.403357 214.14193 
L 241.264316 217.932959 
L 243.125275 223.406412 
L 244.986234 225.619472 
L 246.847193 238.559493 
L 248.708152 240.840147 
L 250.569111 236.488626 
L 252.43007 249.548222 
L 254.291029 246.52379 
L 256.151989 229.942113 
L 258.012948 231.543824 
L 259.873907 221.105419 
L 261.734866 219.162981 
L 263.595825 195.517529 
L 265.456784 200.094324 
L 267.317743 197.674477 
L 269.178702 169.098453 
L 271.039661 165.779476 
L 272.90062 172.570985 
L 274.761579 153.901635 
L 276.622538 164.291536 
L 278.483497 152.550658 
L 280.344457 157.530805 
L 282.205416 177.485732 
L 284.066375 150.249238 
L 285.927334 196.025234 
L 287.788293 176.524632 
L 289.649252 207.626365 
L 291.510211 189.341143 
L 293.37117 217.457873 
L 295.232129 221.017102 
L 297.093088 230.27149 
L 298.954047 232.397069 
L 300.815006 246.085965 
L 302.675966 238.276375 
L 304.536925 236.773181 
L 306.397884 248.496251 
L 308.258843 239.472769 
L 310.119802 222.585777 
L 311.980761 234.016559 
L 313.84172 218.051627 
L 315.702679 204.412939 
L 317.563638 199.789254 
L 319.424597 179.346037 
L 321.285556 194.472255 
L 325.007475 167.791953 
L 326.868434 162.578421 
L 328.729393 154.883409 
L 330.590352 148.300319 
L 332.451311 180.995065 
L 334.31227 143.89701 
L 336.173229 166.413668 
L 338.034188 178.293721 
L 339.895147 184.452992 
L 341.756106 188.720095 
L 343.617065 190.344812 
L 347.338984 220.674096 
L 349.199943 222.283684 
L 351.060902 210.216955 
L 352.921861 249.706081 
L 354.78282 245.0552 
L 356.643779 236.535227 
L 358.504738 242.000848 
L 360.365697 236.604468 
L 362.226656 242.37713 
L 364.087615 214.09654 
L 365.948574 234.241298 
L 367.809533 210.045784 
L 369.670492 209.273115 
L 371.531452 192.670186 
L 373.392411 178.351969 
L 375.25337 190.804651 
L 377.114329 187.18106 
L 378.975288 153.586355 
L 380.836247 169.235125 
L 382.697206 161.504781 
L 384.558165 161.518233 
L 386.419124 174.145265 
L 388.280083 162.628553 
L 390.141042 174.106232 
L 392.002001 188.252548 
L 393.862961 184.74733 
L 395.72392 192.39701 
L 397.584879 205.467494 
L 399.445838 212.614303 
L 401.306797 208.667915 
L 403.167756 231.920151 
L 405.028715 226.841682 
L 406.889674 240.840794 
L 408.750633 238.268435 
L 410.611592 241.444955 
L 412.472551 236.255023 
L 414.33351 239.46255 
L 416.19447 225.564042 
L 418.055429 219.60339 
L 418.055429 219.60339 
" style="fill:none;stroke:#009afa;stroke-linecap:round;"/>
   </g>
   <g id="patch_7">
    <path d="M 36.614646 259.665354 
L 36.614646 139.434646 
" style="fill:none;stroke:#000000;stroke-linecap:square;stroke-linejoin:miter;"/>
   </g>
   <g id="patch_8">
    <path d="M 36.614646 259.665354 
L 429.165354 259.665354 
" style="fill:none;stroke:#000000;stroke-linecap:square;stroke-linejoin:miter;"/>
   </g>
   <g id="legend_2">
    <g id="patch_9">
     <path d="M 366.440354 255.665354 
L 423.565354 255.665354 
Q 425.165354 255.665354 425.165354 254.065354 
L 425.165354 243.122854 
Q 425.165354 241.522854 423.565354 241.522854 
L 366.440354 241.522854 
Q 364.840354 241.522854 364.840354 243.122854 
L 364.840354 254.065354 
Q 364.840354 255.665354 366.440354 255.665354 
z
" style="fill:#ffffff;stroke:#000000;stroke-linejoin:miter;"/>
    </g>
    <g id="line2d_45">
     <path d="M 368.040354 248.001604 
L 384.040354 248.001604 
" style="fill:none;stroke:#009afa;stroke-linecap:square;"/>
    </g>
    <g id="line2d_46"/>
    <g id="text_25">
     <!-- iaaft(ts) -->
     <defs>
      <path d="M 37.109375 75.984375 
L 37.109375 68.5 
L 28.515625 68.5 
Q 23.6875 68.5 21.796875 66.546875 
Q 19.921875 64.59375 19.921875 59.515625 
L 19.921875 54.6875 
L 34.71875 54.6875 
L 34.71875 47.703125 
L 19.921875 47.703125 
L 19.921875 0 
L 10.890625 0 
L 10.890625 47.703125 
L 2.296875 47.703125 
L 2.296875 54.6875 
L 10.890625 54.6875 
L 10.890625 58.5 
Q 10.890625 67.625 15.140625 71.796875 
Q 19.390625 75.984375 28.609375 75.984375 
z
" id="DejaVuSans-102"/>
      <path d="M 31 75.875 
Q 24.46875 64.65625 21.28125 53.65625 
Q 18.109375 42.671875 18.109375 31.390625 
Q 18.109375 20.125 21.3125 9.0625 
Q 24.515625 -2 31 -13.1875 
L 23.1875 -13.1875 
Q 15.875 -1.703125 12.234375 9.375 
Q 8.59375 20.453125 8.59375 31.390625 
Q 8.59375 42.28125 12.203125 53.3125 
Q 15.828125 64.359375 23.1875 75.875 
z
" id="DejaVuSans-40"/>
      <path d="M 8.015625 75.875 
L 15.828125 75.875 
Q 23.140625 64.359375 26.78125 53.3125 
Q 30.421875 42.28125 30.421875 31.390625 
Q 30.421875 20.453125 26.78125 9.375 
Q 23.140625 -1.703125 15.828125 -13.1875 
L 8.015625 -13.1875 
Q 14.5 -2 17.703125 9.0625 
Q 20.90625 20.125 20.90625 31.390625 
Q 20.90625 42.671875 17.703125 53.65625 
Q 14.5 64.65625 8.015625 75.875 
z
" id="DejaVuSans-41"/>
     </defs>
     <g transform="translate(390.440354 250.801604)scale(0.08 -0.08)">
      <use xlink:href="#DejaVuSans-105"/>
      <use x="27.783203" xlink:href="#DejaVuSans-97"/>
      <use x="89.0625" xlink:href="#DejaVuSans-97"/>
      <use x="150.341797" xlink:href="#DejaVuSans-102"/>
      <use x="185.53125" xlink:href="#DejaVuSans-116"/>
      <use x="224.740234" xlink:href="#DejaVuSans-40"/>
      <use x="263.753906" xlink:href="#DejaVuSans-116"/>
      <use x="302.962891" xlink:href="#DejaVuSans-115"/>
      <use x="355.0625" xlink:href="#DejaVuSans-41"/>
     </g>
    </g>
   </g>
  </g>
 </g>
 <defs>
  <clipPath id="p92c11ae0a9">
   <rect height="120.230709" width="392.550709" x="36.614646" y="2.834646"/>
  </clipPath>
  <clipPath id="p3c652f1f22">
   <rect height="120.230709" width="392.550709" x="36.614646" y="139.434646"/>
  </clipPath>
 </defs>
</svg>
