<?xml version="1.0" encoding="utf-8"?>
<svg xmlns="http://www.w3.org/2000/svg" xmlns:xlink="http://www.w3.org/1999/xlink" width="600" height="400" viewBox="0 0 2400 1600">
<defs>
  <clipPath id="clip4600">
    <rect x="0" y="0" width="2000" height="2000"/>
  </clipPath>
</defs>
<defs>
  <clipPath id="clip4601">
    <rect x="0" y="0" width="2400" height="1600"/>
  </clipPath>
</defs>
<polygon clip-path="url(#clip4601)" points="
0,1600 2400,1600 2400,0 0,0 
  " fill="#ffffff" fill-rule="evenodd" fill-opacity="1"/>
<defs>
  <clipPath id="clip4602">
    <rect x="480" y="0" width="1681" height="1600"/>
  </clipPath>
</defs>
<polygon clip-path="url(#clip4601)" points="
184.243,1440.48 2321.26,1440.48 2321.26,47.2441 184.243,47.2441 
  " fill="#ffffff" fill-rule="evenodd" fill-opacity="1"/>
<defs>
  <clipPath id="clip4603">
    <rect x="184" y="47" width="2138" height="1394"/>
  </clipPath>
</defs>
<polyline clip-path="url(#clip4603)" style="stroke:#000000; stroke-width:2; stroke-opacity:0.1; fill:none" points="
  240.692,1440.48 240.692,47.2441 
  "/>
<polyline clip-path="url(#clip4603)" style="stroke:#000000; stroke-width:2; stroke-opacity:0.1; fill:none" points="
  643.903,1440.48 643.903,47.2441 
  "/>
<polyline clip-path="url(#clip4603)" style="stroke:#000000; stroke-width:2; stroke-opacity:0.1; fill:none" points="
  1047.11,1440.48 1047.11,47.2441 
  "/>
<polyline clip-path="url(#clip4603)" style="stroke:#000000; stroke-width:2; stroke-opacity:0.1; fill:none" points="
  1450.32,1440.48 1450.32,47.2441 
  "/>
<polyline clip-path="url(#clip4603)" style="stroke:#000000; stroke-width:2; stroke-opacity:0.1; fill:none" points="
  1853.54,1440.48 1853.54,47.2441 
  "/>
<polyline clip-path="url(#clip4603)" style="stroke:#000000; stroke-width:2; stroke-opacity:0.1; fill:none" points="
  2256.75,1440.48 2256.75,47.2441 
  "/>
<polyline clip-path="url(#clip4603)" style="stroke:#000000; stroke-width:2; stroke-opacity:0.1; fill:none" points="
  184.243,1395.73 2321.26,1395.73 
  "/>
<polyline clip-path="url(#clip4603)" style="stroke:#000000; stroke-width:2; stroke-opacity:0.1; fill:none" points="
  184.243,1029.15 2321.26,1029.15 
  "/>
<polyline clip-path="url(#clip4603)" style="stroke:#000000; stroke-width:2; stroke-opacity:0.1; fill:none" points="
  184.243,662.564 2321.26,662.564 
  "/>
<polyline clip-path="url(#clip4603)" style="stroke:#000000; stroke-width:2; stroke-opacity:0.1; fill:none" points="
  184.243,295.982 2321.26,295.982 
  "/>
<polyline clip-path="url(#clip4601)" style="stroke:#000000; stroke-width:4; stroke-opacity:1; fill:none" points="
  184.243,1440.48 2321.26,1440.48 
  "/>
<polyline clip-path="url(#clip4601)" style="stroke:#000000; stroke-width:4; stroke-opacity:1; fill:none" points="
  184.243,1440.48 184.243,47.2441 
  "/>
<polyline clip-path="url(#clip4601)" style="stroke:#000000; stroke-width:4; stroke-opacity:1; fill:none" points="
  240.692,1440.48 240.692,1419.58 
  "/>
<polyline clip-path="url(#clip4601)" style="stroke:#000000; stroke-width:4; stroke-opacity:1; fill:none" points="
  643.903,1440.48 643.903,1419.58 
  "/>
<polyline clip-path="url(#clip4601)" style="stroke:#000000; stroke-width:4; stroke-opacity:1; fill:none" points="
  1047.11,1440.48 1047.11,1419.58 
  "/>
<polyline clip-path="url(#clip4601)" style="stroke:#000000; stroke-width:4; stroke-opacity:1; fill:none" points="
  1450.32,1440.48 1450.32,1419.58 
  "/>
<polyline clip-path="url(#clip4601)" style="stroke:#000000; stroke-width:4; stroke-opacity:1; fill:none" points="
  1853.54,1440.48 1853.54,1419.58 
  "/>
<polyline clip-path="url(#clip4601)" style="stroke:#000000; stroke-width:4; stroke-opacity:1; fill:none" points="
  2256.75,1440.48 2256.75,1419.58 
  "/>
<polyline clip-path="url(#clip4601)" style="stroke:#000000; stroke-width:4; stroke-opacity:1; fill:none" points="
  184.243,1395.73 216.298,1395.73 
  "/>
<polyline clip-path="url(#clip4601)" style="stroke:#000000; stroke-width:4; stroke-opacity:1; fill:none" points="
  184.243,1029.15 216.298,1029.15 
  "/>
<polyline clip-path="url(#clip4601)" style="stroke:#000000; stroke-width:4; stroke-opacity:1; fill:none" points="
  184.243,662.564 216.298,662.564 
  "/>
<polyline clip-path="url(#clip4601)" style="stroke:#000000; stroke-width:4; stroke-opacity:1; fill:none" points="
  184.243,295.982 216.298,295.982 
  "/>
<g clip-path="url(#clip4601)">
<text style="fill:#000000; fill-opacity:1; font-family:Arial,Helvetica Neue,Helvetica,sans-serif; font-size:48px; text-anchor:middle;" transform="rotate(0, 240.692, 1494.48)" x="240.692" y="1494.48">0</text>
</g>
<g clip-path="url(#clip4601)">
<text style="fill:#000000; fill-opacity:1; font-family:Arial,Helvetica Neue,Helvetica,sans-serif; font-size:48px; text-anchor:middle;" transform="rotate(0, 643.903, 1494.48)" x="643.903" y="1494.48">100</text>
</g>
<g clip-path="url(#clip4601)">
<text style="fill:#000000; fill-opacity:1; font-family:Arial,Helvetica Neue,Helvetica,sans-serif; font-size:48px; text-anchor:middle;" transform="rotate(0, 1047.11, 1494.48)" x="1047.11" y="1494.48">200</text>
</g>
<g clip-path="url(#clip4601)">
<text style="fill:#000000; fill-opacity:1; font-family:Arial,Helvetica Neue,Helvetica,sans-serif; font-size:48px; text-anchor:middle;" transform="rotate(0, 1450.32, 1494.48)" x="1450.32" y="1494.48">300</text>
</g>
<g clip-path="url(#clip4601)">
<text style="fill:#000000; fill-opacity:1; font-family:Arial,Helvetica Neue,Helvetica,sans-serif; font-size:48px; text-anchor:middle;" transform="rotate(0, 1853.54, 1494.48)" x="1853.54" y="1494.48">400</text>
</g>
<g clip-path="url(#clip4601)">
<text style="fill:#000000; fill-opacity:1; font-family:Arial,Helvetica Neue,Helvetica,sans-serif; font-size:48px; text-anchor:middle;" transform="rotate(0, 2256.75, 1494.48)" x="2256.75" y="1494.48">500</text>
</g>
<g clip-path="url(#clip4601)">
<text style="fill:#000000; fill-opacity:1; font-family:Arial,Helvetica Neue,Helvetica,sans-serif; font-size:48px; text-anchor:end;" transform="rotate(0, 160.243, 1413.23)" x="160.243" y="1413.23">0</text>
</g>
<g clip-path="url(#clip4601)">
<text style="fill:#000000; fill-opacity:1; font-family:Arial,Helvetica Neue,Helvetica,sans-serif; font-size:48px; text-anchor:end;" transform="rotate(0, 160.243, 1046.65)" x="160.243" y="1046.65">1</text>
</g>
<g clip-path="url(#clip4601)">
<text style="fill:#000000; fill-opacity:1; font-family:Arial,Helvetica Neue,Helvetica,sans-serif; font-size:48px; text-anchor:end;" transform="rotate(0, 160.243, 680.064)" x="160.243" y="680.064">2</text>
</g>
<g clip-path="url(#clip4601)">
<text style="fill:#000000; fill-opacity:1; font-family:Arial,Helvetica Neue,Helvetica,sans-serif; font-size:48px; text-anchor:end;" transform="rotate(0, 160.243, 313.482)" x="160.243" y="313.482">3</text>
</g>
<g clip-path="url(#clip4601)">
<text style="fill:#000000; fill-opacity:1; font-family:Arial,Helvetica Neue,Helvetica,sans-serif; font-size:66px; text-anchor:middle;" transform="rotate(0, 1252.75, 1590.4)" x="1252.75" y="1590.4">Time step</text>
</g>
<g clip-path="url(#clip4601)">
<text style="fill:#000000; fill-opacity:1; font-family:Arial,Helvetica Neue,Helvetica,sans-serif; font-size:66px; text-anchor:middle;" transform="rotate(-90, 57.6, 743.863)" x="57.6" y="743.863">Value</text>
</g>
<polyline clip-path="url(#clip4603)" style="stroke:#000000; stroke-width:4; stroke-opacity:1; fill:none" points="
  244.724,1348.24 248.756,125.491 252.788,1310.04 256.821,1260.16 260.853,1309.88 264.885,1265.93 268.917,1335.68 272.949,1311.11 276.981,1282.17 281.013,1318.39 
  285.045,1347.43 289.077,1340.41 293.11,1357.36 297.142,1316.19 301.174,1346.08 305.206,1313.54 309.238,1314.44 313.27,1361.07 317.302,1324.77 321.334,1354.28 
  325.366,1316.27 329.399,1331.06 333.431,1288.56 337.463,1316.17 341.495,1326.18 345.527,1262.38 349.559,1259.18 353.591,1258.68 357.623,1247.14 361.655,1239.56 
  365.688,1214.5 369.72,1148.55 373.752,1125.53 377.784,1183.99 381.816,1145.97 385.848,1110.64 389.88,1082.9 393.912,998.135 397.944,1050.64 401.976,1071.37 
  406.009,1018.31 410.041,955.086 414.073,957.701 418.105,906.407 422.137,958.045 426.169,892.994 430.201,865.113 434.233,902.195 438.265,890.382 442.298,853.13 
  446.33,789.322 450.362,806.515 454.394,771.2 458.426,763.062 462.458,830.781 466.49,800.971 470.522,780.151 474.554,729.961 478.587,730.177 482.619,664.372 
  486.651,677.94 490.683,687.949 494.715,617.35 498.747,624.276 502.779,579.513 506.811,564.469 510.843,506.362 514.876,540.188 518.908,478.722 522.94,469.789 
  526.972,456.746 531.004,442.51 535.036,395.39 539.068,366.845 543.1,272.899 547.132,307.5 551.164,258.394 555.197,245.654 559.229,237.422 563.261,221.534 
  567.293,202.846 571.325,185.159 575.357,141.473 579.389,176.25 583.421,150.034 587.453,135.373 591.486,160.131 595.518,130.549 599.55,110.667 603.582,126.303 
  607.614,124.497 611.646,130.833 615.678,125.578 619.71,131.669 623.742,140.27 627.775,147.715 631.807,154.285 635.839,157.196 639.871,165.254 643.903,169.945 
  647.935,188.54 651.967,186.965 655.999,196.135 660.031,221.192 664.063,208.137 668.096,234.852 672.128,224.144 676.16,219.253 680.192,252.577 684.224,223.946 
  688.256,310.011 692.288,243.657 696.32,315.496 700.352,282.166 704.385,258.494 708.417,322.153 712.449,332.823 716.481,416.048 720.513,355.398 724.545,419.887 
  728.577,462.742 732.609,476.766 736.641,473.774 740.674,492.512 744.706,567.723 748.738,543.077 752.77,608.14 756.802,608.248 760.834,558.03 764.866,694.353 
  768.898,742.437 772.93,683.62 776.963,774.864 780.995,709.344 785.027,829.589 789.059,848.886 793.091,888.238 797.123,873.94 801.155,1006.26 805.187,960.464 
  809.219,1075.41 813.251,982.603 817.284,1033.9 821.316,1154.47 825.348,962.558 829.38,1096.37 833.412,1158.73 837.444,1104.86 841.476,1148.15 845.508,1134.69 
  849.54,1069.09 853.573,1088.54 857.605,1218.52 861.637,1193.21 865.669,1047.6 869.701,1121.04 873.733,1071.62 877.765,1173.98 881.797,1117.86 885.829,1157.48 
  889.862,1225.85 893.894,1083.03 897.926,1159.62 901.958,1019.59 905.99,1126.61 910.022,1094.1 914.054,1187 918.086,1069.68 922.118,1139.43 926.151,1087.3 
  930.183,1054.48 934.215,1121.87 938.247,1083.08 942.279,1081.37 946.311,994.92 950.343,1062.53 954.375,1139.78 958.407,1145.99 962.439,1094.86 966.472,1021.99 
  970.504,1059.3 974.536,962.261 978.568,824.135 982.6,850.979 986.632,940.909 990.664,792.367 994.696,810.393 998.728,795.929 1002.76,779.678 1006.79,697.584 
  1010.82,701.885 1014.86,718.319 1018.89,679.658 1022.92,628.109 1026.95,687.23 1030.99,513.111 1035.02,556.88 1039.05,481.163 1043.08,442.794 1047.11,462.772 
  1051.15,388.9 1055.18,400.926 1059.21,386.746 1063.24,300.045 1067.27,279.11 1071.31,271.864 1075.34,237.547 1079.37,226.108 1083.4,212.985 1087.43,229.049 
  1091.47,224.726 1095.5,208.233 1099.53,206.001 1103.56,194.577 1107.6,226.73 1111.63,190.668 1115.66,168.077 1119.69,180.129 1123.72,189.936 1127.76,186.133 
  1131.79,192.898 1135.82,173.156 1139.85,167.668 1143.88,172.649 1147.92,175.09 1151.95,159.028 1155.98,165.538 1160.01,155.632 1164.04,158.747 1168.08,157.624 
  1172.11,149.456 1176.14,158.858 1180.17,154.135 1184.21,164.006 1188.24,177.661 1192.27,160.795 1196.3,169.378 1200.33,148.489 1204.37,194.659 1208.4,181.669 
  1212.43,235.797 1216.46,229.004 1220.49,245.619 1224.53,275.997 1228.56,273.958 1232.59,310.031 1236.62,347.962 1240.65,330.951 1244.69,369.719 1248.72,407.529 
  1252.75,432.602 1256.78,465.799 1260.82,467.238 1264.85,516.52 1268.88,526.09 1272.91,571.418 1276.94,599.581 1280.98,610.662 1285.01,656.328 1289.04,662.532 
  1293.07,680.508 1297.1,711.935 1301.14,716.471 1305.17,781.544 1309.2,771.308 1313.23,834.114 1317.26,862.476 1321.3,851.756 1325.33,879.92 1329.36,910.307 
  1333.39,913.369 1337.43,880.28 1341.46,889.927 1345.49,928.551 1349.52,946.413 1353.55,936.155 1357.59,975.96 1361.62,1006.63 1365.65,977.042 1369.68,1028.11 
  1373.71,1036.61 1377.75,1040.74 1381.78,1010.68 1385.81,1082.73 1389.84,1079.66 1393.88,1160.68 1397.91,1084.63 1401.94,1179.34 1405.97,1195.89 1410,1176.72 
  1414.04,1247.35 1418.07,1194.19 1422.1,1253.37 1426.13,1277.9 1430.16,1285.82 1434.2,1292.29 1438.23,1281.91 1442.26,1329.7 1446.29,1357.31 1450.32,1344.45 
  1454.36,1339.64 1458.39,1354.93 1462.42,1318.35 1466.45,1382.57 1470.49,1352.96 1474.52,1329.97 1478.55,1333.32 1482.58,1358.87 1486.61,1379.38 1490.65,1368.18 
  1494.68,1323.92 1498.71,1333.65 1502.74,1337.52 1506.77,1313.87 1510.81,1352.86 1514.84,1295.79 1518.87,1293.26 1522.9,1309.68 1526.93,1316.94 1530.97,1310.89 
  1535,1303.25 1539.03,1321.93 1543.06,1264.11 1547.1,1286.69 1551.13,1289.32 1555.16,1282.07 1559.19,1282.37 1563.22,1270.08 1567.26,1288.7 1571.29,1312.52 
  1575.32,1285.81 1579.35,1294.99 1583.38,1286.34 1587.42,1287.55 1591.45,1325.04 1595.48,1293.65 1599.51,1322.55 1603.54,1307.85 1607.58,1320.5 1611.61,1305.22 
  1615.64,1293.95 1619.67,1317.71 1623.71,1280.98 1627.74,1233.76 1631.77,1226.68 1635.8,1246.35 1639.83,1203.4 1643.87,1198.86 1647.9,1182.68 1651.93,1156.98 
  1655.96,1134.71 1659.99,1126.56 1664.03,1085.94 1668.06,1082.63 1672.09,1063.79 1676.12,1012.93 1680.15,1025.99 1684.19,992.485 1688.22,952.561 1692.25,897.436 
  1696.28,938.48 1700.32,884.381 1704.35,879.318 1708.38,870.013 1712.41,881.499 1716.44,805.724 1720.48,794.74 1724.51,804.897 1728.54,753.17 1732.57,818.426 
  1736.6,728.41 1740.64,693.169 1744.67,682.302 1748.7,717.822 1752.73,652.402 1756.76,652.668 1760.8,677.316 1764.83,643.804 1768.86,571.466 1772.89,587.139 
  1776.93,568.751 1780.96,551.605 1784.99,575.788 1789.02,524.368 1793.05,439.534 1797.09,471.144 1801.12,438.829 1805.15,427.12 1809.18,379.226 1813.21,358.742 
  1817.25,315.182 1821.28,320.727 1825.31,255.019 1829.34,247.191 1833.37,209.636 1837.41,206.765 1841.44,188.134 1845.47,182.752 1849.5,171.468 1853.54,134.866 
  1857.57,128.883 1861.6,121.051 1865.63,112.641 1869.66,108.989 1873.7,90.0435 1877.73,90.3077 1881.76,90.9398 1885.79,86.6754 1889.82,99.8311 1893.86,106.047 
  1897.89,103.987 1901.92,114.861 1905.95,112.006 1909.98,142.476 1914.02,150.2 1918.05,172.187 1922.08,162.978 1926.11,193.43 1930.15,195.035 1934.18,208.715 
  1938.21,235.047 1942.24,219.738 1946.27,258.059 1950.31,251.453 1954.34,303.012 1958.37,320.162 1962.4,312.085 1966.43,303.118 1970.47,323.06 1974.5,324.063 
  1978.53,406.345 1982.56,375.62 1986.59,416.974 1990.63,361.88 1994.66,395.345 1998.69,454.183 2002.72,439.895 2006.76,457.878 2010.79,536.97 2014.82,574.685 
  2018.85,529.514 2022.88,561.608 2026.92,542.656 2030.95,574.507 2034.98,702.62 2039.01,597.347 2043.04,660.995 2047.08,731.088 2051.11,707.779 2055.14,733.43 
  2059.17,772.069 2063.2,865.407 2067.24,958.867 2071.27,927.087 2075.3,912.54 2079.33,1043.19 2083.37,913.755 2087.4,1066.18 2091.43,1044.18 2095.46,1008.89 
  2099.49,1024.27 2103.53,1155.21 2107.56,1088.98 2111.59,1090.93 2115.62,1080.32 2119.65,1203.37 2123.69,1169.8 2127.72,1154.42 2131.75,1089.15 2135.78,1196.94 
  2139.81,1111.14 2143.85,1105.41 2147.88,1164.27 2151.91,1150.88 2155.94,1160.12 2159.98,1146.63 2164.01,1155.97 2168.04,1072.72 2172.07,1135.59 2176.1,1134.85 
  2180.14,1133.44 2184.17,1155.02 2188.2,1078.3 2192.23,1179.44 2196.26,1077.28 2200.3,1070.05 2204.33,1117.7 2208.36,1137.93 2212.39,1108.27 2216.43,951.246 
  2220.46,1055.02 2224.49,899.339 2228.52,976.965 2232.55,977.842 2236.59,892.407 2240.62,905.682 2244.65,848.763 2248.68,958.453 2252.71,993.92 2256.75,837.61 
  2260.78,865.127 
  "/>
<polyline clip-path="url(#clip4603)" style="stroke:#ff0000; stroke-width:4; stroke-opacity:1; fill:none" points="
  244.724,1165.57 248.756,1396.25 252.788,1388.21 256.821,1397.5 260.853,1387.5 264.885,1399.94 268.917,1395.38 272.949,1388.58 276.981,1394.34 281.013,1398.89 
  285.045,1394.28 289.077,1397.04 293.11,1388.18 297.142,1392.82 301.174,1385.97 305.206,1383.8 309.238,1392.65 313.27,1382.11 317.302,1388.38 321.334,1382.14 
  325.366,1383.44 329.399,1376.83 333.431,1381.11 337.463,1384.56 341.495,1372.68 345.527,1372.04 349.559,1372.88 353.591,1371.43 357.623,1371.61 361.655,1368.83 
  365.688,1360.67 369.72,1355.42 373.752,1367.87 377.784,1361.88 381.816,1358.09 385.848,1355.03 389.88,1342.44 393.912,1350.56 397.944,1353.95 401.976,1347.28 
  406.009,1338.5 410.041,1338.38 414.073,1330.9 418.105,1338.25 422.137,1328.7 426.169,1324.57 430.201,1328.36 434.233,1326.8 438.265,1319.8 442.298,1310.39 
  446.33,1311.97 450.362,1305.96 454.394,1303.88 458.426,1310.59 462.458,1306.07 466.49,1303.61 470.522,1295.13 474.554,1294.8 478.587,1284.68 482.619,1285.73 
  486.651,1286.55 490.683,1276.26 494.715,1276.27 498.747,1270.73 502.779,1269.34 506.811,1261.49 510.843,1266.04 514.876,1257.15 518.908,1256.52 522.94,1255.11 
  526.972,1254.51 531.004,1246.67 535.036,1245.26 539.068,1226.89 543.1,1234.51 547.132,1226.32 551.164,1224.92 555.197,1223.47 559.229,1219.98 563.261,1216.39 
  567.293,1213.47 571.325,1200.96 575.357,1211.29 579.389,1202.23 583.421,1197.22 587.453,1202.87 591.486,1190.01 595.518,1182.49 599.55,1188.78 603.582,1180.26 
  607.614,1176.24 611.646,1168.61 615.678,1168.73 619.71,1165.95 623.742,1158.57 627.775,1153.53 631.807,1154.23 635.839,1154.83 639.871,1148.38 643.903,1139.14 
  647.935,1140.44 651.967,1136.64 655.999,1131.37 660.031,1132.22 664.063,1123.08 668.096,1123.77 672.128,1124.56 676.16,1116.55 680.192,1122.61 684.224,1105.03 
  688.256,1115.69 692.288,1100.5 696.32,1105.78 700.352,1108.59 704.385,1096.96 708.417,1094.82 712.449,1083.95 716.481,1090.09 720.513,1083.08 724.545,1077.32 
  728.577,1076.42 732.609,1076.17 736.641,1074.72 740.674,1068.39 744.706,1070.51 748.738,1065.16 752.77,1065.34 756.802,1069.56 760.834,1058.8 764.866,1056.41 
  768.898,1060.27 772.93,1054.59 776.963,1060.24 780.995,1051.53 785.027,1051.13 789.059,1048.25 793.091,1049.91 797.123,1041.26 801.155,1044.4 805.187,1037.38 
  809.219,1042.73 813.251,1039.89 817.284,1033.32 821.316,1044.41 825.348,1036.28 829.38,1032.11 833.412,1035.19 837.444,1032.2 841.476,1032.16 845.508,1035.92 
  849.54,1034.18 853.573,1026.76 857.605,1027.47 861.637,1035.64 865.669,1030.61 869.701,1033.17 873.733,1027.38 877.765,1029.6 881.797,1027.24 885.829,1023.38 
  889.862,1031.32 893.894,1027.22 897.926,1035.65 901.958,1028.59 905.99,1031.28 910.022,1026.12 914.054,1032.82 918.086,1028.98 922.118,1032.24 926.151,1034.79 
  930.183,1031.49 934.215,1033.78 938.247,1034.45 942.279,1041.08 946.311,1037.36 950.343,1032.12 954.375,1032.28 958.407,1035.56 962.439,1039.9 966.472,1038.37 
  970.504,1044.46 974.536,1054.49 978.568,1052.13 982.6,1045.92 986.632,1056.47 990.664,1054.66 994.696,1055.27 998.728,1056.61 1002.76,1062.61 1006.79,1061.24 
  1010.82,1059.75 1014.86,1062.13 1018.89,1066.58 1022.92,1060.77 1026.95,1075.62 1030.99,1070.89 1035.02,1077.58 1039.05,1079.83 1043.08,1078.55 1047.11,1085.92 
  1051.15,1084.17 1055.18,1085.81 1059.21,1096.36 1063.24,1099.6 1067.27,1101.75 1071.31,1107.73 1075.34,1112.2 1079.37,1112.78 1083.4,1112 1087.43,1114.53 
  1091.47,1118.76 1095.5,1120.22 1099.53,1126.09 1103.56,1120.03 1107.6,1128.57 1111.63,1137.96 1115.66,1141.41 1119.69,1137.81 1123.72,1138.89 1127.76,1142.21 
  1131.79,1151.27 1135.82,1160.4 1139.85,1158.04 1143.88,1159.37 1147.92,1161.99 1151.95,1173.81 1155.98,1165.11 1160.01,1177.54 1164.04,1180.08 1168.08,1176.18 
  1172.11,1185.93 1176.14,1187.62 1180.17,1194.08 1184.21,1202.7 1188.24,1198.65 1192.27,1204.82 1196.3,1203.2 1200.33,1214.33 1204.37,1211.16 1208.4,1223.13 
  1212.43,1223.73 1216.46,1227.12 1220.49,1233.96 1224.53,1233.18 1228.56,1238.46 1232.59,1245.39 1236.62,1241.64 1240.65,1247.21 1244.69,1253.79 1248.72,1255.22 
  1252.75,1260.27 1256.78,1259.31 1260.82,1266.56 1264.85,1267.25 1268.88,1272.04 1272.91,1276.78 1276.94,1275.49 1280.98,1283.14 1285.01,1283.22 1289.04,1285.43 
  1293.07,1290.2 1297.1,1291.14 1301.14,1299.8 1305.17,1299.29 1309.2,1307.37 1313.23,1314.01 1317.26,1312.34 1321.3,1317.39 1325.33,1321.46 1329.36,1325.75 
  1333.39,1321 1337.43,1321.73 1341.46,1329.59 1345.49,1333.01 1349.52,1332.79 1353.55,1339.13 1357.59,1344.31 1361.62,1340.09 1365.65,1346.91 1369.68,1350.01 
  1373.71,1351.51 1377.75,1346.46 1381.78,1357.06 1385.81,1356.73 1389.84,1369.55 1393.88,1356.6 1397.91,1369.88 1401.94,1372.6 1405.97,1367.9 1410,1379.46 
  1414.04,1369.78 1418.07,1377.03 1422.1,1380.41 1426.13,1381.18 1430.16,1381.65 1434.2,1377.9 1438.23,1383.76 1442.26,1389.92 1446.29,1384.38 1450.32,1385.61 
  1454.36,1386.89 1458.39,1381.7 1462.42,1393.4 1466.45,1387.36 1470.49,1384.81 1474.52,1386.65 1478.55,1391.63 1482.58,1396.05 1486.61,1396.61 1490.65,1389.58 
  1494.68,1390.38 1498.71,1393.68 1502.74,1389.7 1506.77,1399.18 1510.81,1388.73 1514.84,1390.81 1518.87,1392.56 1522.9,1396.33 1526.93,1396.12 1530.97,1395.3 
  1535,1398.97 1539.03,1387.38 1543.06,1392.27 1547.1,1391.98 1551.13,1389.24 1555.16,1390.01 1559.19,1386.84 1563.22,1390.64 1567.26,1392.18 1571.29,1387.1 
  1575.32,1385.43 1579.35,1383.21 1583.38,1382.58 1587.42,1388.64 1591.45,1381.17 1595.48,1385.6 1599.51,1382.01 1603.54,1383.28 1607.58,1380.53 1611.61,1377.08 
  1615.64,1381.25 1619.67,1374.48 1623.71,1365.39 1627.74,1368.19 1631.77,1370.85 1635.8,1362.65 1639.83,1362.89 1643.87,1360.78 1647.9,1358.57 1651.93,1354.97 
  1655.96,1355.83 1659.99,1350.98 1664.03,1352.39 1668.06,1349.43 1672.09,1342.99 1676.12,1346.61 1680.15,1340.91 1684.19,1336.44 1688.22,1329.53 1692.25,1335.05 
  1696.28,1327.59 1700.32,1327.11 1704.35,1326.21 1708.38,1327.21 1712.41,1316.34 1716.44,1313.99 1720.48,1314.52 1724.51,1307.19 1728.54,1316.11 1732.57,1300.43 
  1736.6,1294.85 1740.64,1291.74 1744.67,1296.39 1748.7,1286.1 1752.73,1286.44 1756.76,1287.66 1760.8,1281.92 1764.83,1268.49 1768.86,1271.88 1772.89,1269.17 
  1776.93,1266.29 1780.96,1268.38 1784.99,1261.11 1789.02,1246.33 1793.05,1252.86 1797.09,1248.01 1801.12,1248.03 1805.15,1239.36 1809.18,1238.83 1813.21,1229.83 
  1817.25,1232.78 1821.28,1219.15 1825.31,1219.79 1829.34,1212.21 1833.37,1212.42 1837.41,1208.54 1841.44,1209.6 1845.47,1206.68 1849.5,1198.8 1853.54,1197.88 
  1857.57,1193.93 1861.6,1191.58 1865.63,1188.15 1869.66,1180.52 1873.7,1176.95 1877.73,1173.35 1881.76,1166.08 1885.79,1168.81 1889.82,1160.38 1893.86,1161.33 
  1897.89,1156.05 1901.92,1156.26 1905.95,1145.2 1909.98,1146.27 1914.02,1139.9 1918.05,1148.9 1922.08,1137 1926.11,1135.26 1930.15,1134.67 1934.18,1125.25 
  1938.21,1126.57 1942.24,1117.51 1946.27,1121.16 1950.31,1110.61 1954.34,1108.34 1958.37,1108.2 1962.4,1108.65 1966.43,1103.48 1970.47,1102.49 1974.5,1090.45 
  1978.53,1093.34 1982.56,1086.61 1986.59,1093.52 1990.63,1086.9 1994.66,1080.91 1998.69,1082.37 2002.72,1079.87 2006.76,1071.18 2010.79,1067.74 2014.82,1070.94 
  2018.85,1068.47 2022.88,1069.68 2026.92,1067.59 2030.95,1056.73 2034.98,1065.52 2039.01,1060.72 2043.04,1055.24 2047.08,1057.92 2051.11,1056.23 2055.14,1053.71 
  2059.17,1048.11 2063.2,1042.1 2067.24,1043.84 2071.27,1046.18 2075.3,1037.89 2079.33,1046.07 2083.37,1037.4 2087.4,1039.3 2091.43,1041.61 2095.46,1040.34 
  2099.49,1032.47 2103.53,1036.3 2107.56,1036.48 2111.59,1036.85 2115.62,1029.5 2119.65,1030.69 2123.69,1031.67 2127.72,1035.25 2131.75,1028.69 2135.78,1033.53 
  2139.81,1033.52 2143.85,1029.08 2147.88,1029.96 2151.91,1028.34 2155.94,1029.65 2159.98,1028.25 2164.01,1032.77 2168.04,1028.58 2172.07,1028.97 2176.1,1028.48 
  2180.14,1026.94 2184.17,1031.18 2188.2,1025.91 2192.23,1031.93 2196.26,1032.44 2200.3,1030.05 2204.33,1029.51 2208.36,1030.51 2212.39,1041.31 2216.43,1035.07 
  2220.46,1044.97 2224.49,1040.72 2228.52,1040.98 2232.55,1047.08 2236.59,1047.16 2240.62,1051.37 2244.65,1044.07 2248.68,1042.06 2252.71,1053.36 2256.75,1051.51 
  2260.78,1050.5 
  "/>
<polyline clip-path="url(#clip4603)" style="stroke:#0000ff; stroke-width:4; stroke-opacity:1; fill:none" points="
  244.724,1339.41 248.756,1212.09 252.788,1228.14 256.821,1243.54 260.853,1258.45 264.885,1269.53 268.917,1281.86 272.949,1289.93 276.981,1301.3 281.013,1322.45 
  285.045,1333.21 289.077,1338.74 293.11,1350.72 297.142,1361.72 301.174,1364.26 305.206,1377.21 309.238,1375.86 313.27,1397.1 317.302,1386.62 321.334,1391.93 
  325.366,1390.5 329.399,1391.52 333.431,1398.15 337.463,1388.68 341.495,1392.33 345.527,1386.63 349.559,1384.48 353.591,1374.46 357.623,1369.77 361.655,1366.78 
  365.688,1348.51 369.72,1350.99 373.752,1331.4 377.784,1319.08 381.816,1311.38 385.848,1297.72 389.88,1284.1 393.912,1271.68 397.944,1259.32 401.976,1241.66 
  406.009,1225.96 410.041,1214.32 414.073,1196.7 418.105,1182.52 422.137,1165.03 426.169,1157.12 430.201,1138.62 434.233,1130.65 438.265,1115.64 442.298,1102.65 
  446.33,1093.39 450.362,1081.78 454.394,1080.93 458.426,1064.67 462.458,1056.02 466.49,1051.34 470.522,1037.23 474.554,1039.74 478.587,1038.17 482.619,1033.41 
  486.651,1027.02 490.683,1023.73 494.715,1027.86 498.747,1035.07 502.779,1035.35 506.811,1047.19 510.843,1043.33 514.876,1054.36 518.908,1057.52 522.94,1066.56 
  526.972,1073.38 531.004,1079.13 535.036,1103.76 539.068,1104.9 543.1,1113.89 547.132,1129.47 551.164,1145.96 555.197,1156.24 559.229,1163.12 563.261,1180.05 
  567.293,1197.09 571.325,1212.46 575.357,1229.76 579.389,1237.87 583.421,1255.67 587.453,1273.25 591.486,1284.25 595.518,1292.84 599.55,1304.84 603.582,1318.69 
  607.614,1330.52 611.646,1343.5 615.678,1351.11 619.71,1359.93 623.742,1374.99 627.775,1376 631.807,1377.7 635.839,1388.54 639.871,1391.9 643.903,1394.45 
  647.935,1392.6 651.967,1396.68 655.999,1401.05 660.031,1394.87 664.063,1391.73 668.096,1382.2 672.128,1383.17 676.16,1377.25 680.192,1372.73 684.224,1361.09 
  688.256,1355.04 692.288,1341.23 696.32,1331.39 700.352,1325.04 704.385,1310.14 708.417,1298.3 712.449,1278.49 716.481,1272.55 720.513,1253.35 724.545,1241.36 
  728.577,1231.36 732.609,1211.7 736.641,1199.02 740.674,1183.68 744.706,1164.67 748.738,1154.9 752.77,1142.36 756.802,1134.49 760.834,1115.48 764.866,1098.98 
  768.898,1100.98 772.93,1084.47 776.963,1074.92 780.995,1066.45 785.027,1053.71 789.059,1047.62 793.091,1043 797.123,1039.27 801.155,1032.81 805.187,1031.32 
  809.219,1040.44 813.251,1030.57 817.284,1021.86 821.316,1030.3 825.348,1028.94 829.38,1033.58 833.412,1036.76 837.444,1043.59 841.476,1053.75 845.508,1067.07 
  849.54,1070.7 853.573,1076.55 857.605,1088.02 861.637,1101.18 865.669,1115.06 869.701,1127.79 873.733,1138.95 877.765,1155.16 881.797,1174 885.829,1186.51 
  889.862,1198.54 893.894,1213.85 897.926,1231.27 901.958,1243.65 905.99,1256.12 910.022,1265.29 914.054,1279.98 918.086,1294.39 922.118,1309.05 926.151,1315.91 
  930.183,1331.51 934.215,1337.76 938.247,1356.56 942.279,1371.48 946.311,1378.52 950.343,1375.82 954.375,1385.29 958.407,1386.17 962.439,1382.67 966.472,1393.11 
  970.504,1396.13 974.536,1397.93 978.568,1393.67 982.6,1389.94 986.632,1389.64 990.664,1386.42 994.696,1379.6 998.728,1379.79 1002.76,1369.92 1006.79,1354.32 
  1010.82,1351.5 1014.86,1342.64 1018.89,1329.07 1022.92,1322.93 1026.95,1313.9 1030.99,1296.54 1035.02,1284.8 1039.05,1268.57 1043.08,1256.24 1047.11,1243.16 
  1051.15,1234.56 1055.18,1218.24 1059.21,1203.46 1063.24,1183.21 1067.27,1166.06 1071.31,1151.55 1075.34,1141.04 1079.37,1134.67 1083.4,1117.06 1087.43,1102.99 
  1091.47,1096.51 1095.5,1086.77 1099.53,1072.58 1103.56,1066.4 1107.6,1057.36 1111.63,1054.81 1115.66,1036.23 1119.69,1038.53 1123.72,1040.12 1127.76,1024.04 
  1131.79,1027.08 1135.82,1026.82 1139.85,1029.91 1143.88,1024.36 1147.92,1035.6 1151.95,1039.84 1155.98,1042.54 1160.01,1051.8 1164.04,1059.82 1168.08,1062.74 
  1172.11,1067.72 1176.14,1075.11 1180.17,1092 1184.21,1105.99 1188.24,1114.94 1192.27,1124.13 1196.3,1150.07 1200.33,1150.23 1204.37,1175.09 1208.4,1183.82 
  1212.43,1204.23 1216.46,1214.91 1220.49,1222.88 1224.53,1245.32 1228.56,1252.81 1232.59,1271.29 1236.62,1276.88 1240.65,1296.67 1244.69,1310.19 1248.72,1320.26 
  1252.75,1337.64 1256.78,1345.14 1260.82,1349.44 1264.85,1357.68 1268.88,1369.76 1272.91,1372.22 1276.94,1384.32 1280.98,1386.07 1285.01,1387.83 1289.04,1396.32 
  1293.07,1392.44 1297.1,1396.17 1301.14,1398.88 1305.17,1386.51 1309.2,1390.81 1313.23,1381.67 1317.26,1380.64 1321.3,1377.35 1325.33,1372.08 1329.36,1349.79 
  1333.39,1345.33 1337.43,1346.57 1341.46,1334.21 1345.49,1316.46 1349.52,1302.3 1353.55,1291.67 1357.59,1283.64 1361.62,1269.58 1365.65,1256.37 1369.68,1243.92 
  1373.71,1221.71 1377.75,1213.47 1381.78,1195.86 1385.81,1183.21 1389.84,1171.96 1393.88,1149.03 1397.91,1137.48 1401.94,1130.69 1405.97,1115.89 1410,1108.31 
  1414.04,1096.35 1418.07,1077.94 1422.1,1070.9 1426.13,1060.62 1430.16,1063.08 1434.2,1049.41 1438.23,1036.83 1442.26,1037.6 1446.29,1026.69 1450.32,1030.5 
  1454.36,1027.97 1458.39,1036.19 1462.42,1026.58 1466.45,1033.59 1470.49,1035.14 1474.52,1039.88 1478.55,1038.32 1482.58,1046.38 1486.61,1056.31 1490.65,1065.16 
  1494.68,1071.5 1498.71,1077.67 1502.74,1093.07 1506.77,1099.67 1510.81,1115.4 1514.84,1130.45 1518.87,1143.84 1522.9,1150.79 1526.93,1172.99 1530.97,1183.16 
  1535,1198.27 1539.03,1210.51 1543.06,1226.99 1547.1,1240.26 1551.13,1258.05 1555.16,1270.92 1559.19,1287.36 1563.22,1291.17 1567.26,1308.44 1571.29,1316.68 
  1575.32,1327.78 1579.35,1342.22 1583.38,1352.8 1587.42,1357.31 1591.45,1372 1595.48,1382.76 1599.51,1380.45 1603.54,1384.58 1607.58,1389.67 1611.61,1391.29 
  1615.64,1395.32 1619.67,1398.05 1623.71,1395.04 1627.74,1385.92 1631.77,1388.72 1635.8,1390.99 1639.83,1386.77 1643.87,1377.63 1647.9,1365.89 1651.93,1366.87 
  1655.96,1350.78 1659.99,1347.39 1664.03,1323.78 1668.06,1318.13 1672.09,1304.57 1676.12,1288.29 1680.15,1284.24 1684.19,1270.9 1688.22,1251.51 1692.25,1240.09 
  1696.28,1224.69 1700.32,1211.58 1704.35,1196.06 1708.38,1182.29 1712.41,1171.39 1716.44,1158.34 1720.48,1134.72 1724.51,1136.4 1728.54,1124.92 1732.57,1103.9 
  1736.6,1093.7 1740.64,1078.49 1744.67,1070.99 1748.7,1059.8 1752.73,1061.06 1756.76,1049.22 1760.8,1043.6 1764.83,1031.64 1768.86,1031.5 1772.89,1033.05 
  1776.93,1035.71 1780.96,1024.81 1784.99,1026.85 1789.02,1024.26 1793.05,1031.36 1797.09,1039.19 1801.12,1049.51 1805.15,1048.33 1809.18,1060.7 1813.21,1062.56 
  1817.25,1079.49 1821.28,1083.16 1825.31,1092.61 1829.34,1109.51 1833.37,1119.42 1837.41,1124.52 1841.44,1141.78 1845.47,1156.53 1849.5,1174.34 1853.54,1181.21 
  1857.57,1195.1 1861.6,1207.09 1865.63,1229.61 1869.66,1239.01 1873.7,1259.62 1877.73,1268.94 1881.76,1283.03 1885.79,1290.97 1889.82,1309.14 1893.86,1313.94 
  1897.89,1321.14 1901.92,1340.39 1905.95,1351.71 1909.98,1360.28 1914.02,1373.17 1918.05,1379.72 1922.08,1381.38 1926.11,1388.85 1930.15,1393.73 1934.18,1397.08 
  1938.21,1390.59 1942.24,1392.02 1946.27,1393.78 1950.31,1396.75 1954.34,1399.62 1958.37,1389.37 1962.4,1381.62 1966.43,1372.52 1970.47,1369.4 1974.5,1358.06 
  1978.53,1348.75 1982.56,1338.91 1986.59,1331.59 1990.63,1316.67 1994.66,1303.85 1998.69,1299.36 2002.72,1285.73 2006.76,1268.89 2010.79,1257.04 2014.82,1239.76 
  2018.85,1231.43 2022.88,1215.33 2026.92,1193.78 2030.95,1183.88 2034.98,1165.51 2039.01,1160.77 2043.04,1143.81 2047.08,1127.39 2051.11,1120.13 2055.14,1105.42 
  2059.17,1086.61 2063.2,1084.25 2067.24,1079.71 2071.27,1058.73 2075.3,1056.25 2079.33,1056.75 2083.37,1042.33 2087.4,1034.14 2091.43,1033.12 2095.46,1030.34 
  2099.49,1029.78 2103.53,1028.7 2107.56,1029.13 2111.59,1026.43 2115.62,1029.2 2119.65,1038.57 2123.69,1044.82 2127.72,1050.44 2131.75,1061.42 2135.78,1061.6 
  2139.81,1069.91 2143.85,1080.81 2147.88,1088.37 2151.91,1107.68 2155.94,1109.62 2159.98,1130.3 2164.01,1138.84 2168.04,1154.31 2172.07,1167.17 2176.1,1186.24 
  2180.14,1195.59 2184.17,1217.49 2188.2,1226.55 2192.23,1232.78 2196.26,1254.48 2200.3,1267.13 2204.33,1290.64 2208.36,1295.26 2212.39,1313.42 2216.43,1327.77 
  2220.46,1331.95 2224.49,1335.82 2228.52,1353.69 2232.55,1361.99 2236.59,1372.01 2240.62,1379.09 2244.65,1379.64 2248.68,1382.05 2252.71,1390.9 2256.75,1396.85 
  2260.78,1390.92 
  "/>
<polygon clip-path="url(#clip4601)" points="
1985.19,372.684 2249.26,372.684 2249.26,130.764 1985.19,130.764 
  " fill="#ffffff" fill-rule="evenodd" fill-opacity="1"/>
<polyline clip-path="url(#clip4601)" style="stroke:#000000; stroke-width:4; stroke-opacity:1; fill:none" points="
  1985.19,372.684 2249.26,372.684 2249.26,130.764 1985.19,130.764 1985.19,372.684 
  "/>
<polyline clip-path="url(#clip4601)" style="stroke:#000000; stroke-width:4; stroke-opacity:1; fill:none" points="
  2009.19,191.244 2153.19,191.244 
  "/>
<g clip-path="url(#clip4601)">
<text style="fill:#000000; fill-opacity:1; font-family:Arial,Helvetica Neue,Helvetica,sans-serif; font-size:48px; text-anchor:start;" transform="rotate(0, 2177.19, 208.744)" x="2177.19" y="208.744">x</text>
</g>
<polyline clip-path="url(#clip4601)" style="stroke:#ff0000; stroke-width:4; stroke-opacity:1; fill:none" points="
  2009.19,251.724 2153.19,251.724 
  "/>
<g clip-path="url(#clip4601)">
<text style="fill:#000000; fill-opacity:1; font-family:Arial,Helvetica Neue,Helvetica,sans-serif; font-size:48px; text-anchor:start;" transform="rotate(0, 2177.19, 269.224)" x="2177.19" y="269.224">y</text>
</g>
<polyline clip-path="url(#clip4601)" style="stroke:#0000ff; stroke-width:4; stroke-opacity:1; fill:none" points="
  2009.19,312.204 2153.19,312.204 
  "/>
<g clip-path="url(#clip4601)">
<text style="fill:#000000; fill-opacity:1; font-family:Arial,Helvetica Neue,Helvetica,sans-serif; font-size:48px; text-anchor:start;" transform="rotate(0, 2177.19, 329.704)" x="2177.19" y="329.704">z</text>
</g>
</svg>
