<?xml version="1.0" encoding="utf-8"?>
<svg xmlns="http://www.w3.org/2000/svg" xmlns:xlink="http://www.w3.org/1999/xlink" width="600" height="400" viewBox="0 0 2400 1600">
<defs>
  <clipPath id="clip0800">
    <rect x="0" y="0" width="2400" height="1600"/>
  </clipPath>
</defs>
<path clip-path="url(#clip0800)" d="
M0 1600 L2400 1600 L2400 0 L0 0  Z
  " fill="#ffffff" fill-rule="evenodd" fill-opacity="1"/>
<defs>
  <clipPath id="clip0801">
    <rect x="480" y="0" width="1681" height="1600"/>
  </clipPath>
</defs>
<path clip-path="url(#clip0800)" d="
M252.496 671.979 L2321.26 671.979 L2321.26 47.2441 L252.496 47.2441  Z
  " fill="#ffffff" fill-rule="evenodd" fill-opacity="1"/>
<defs>
  <clipPath id="clip0802">
    <rect x="252" y="47" width="2070" height="626"/>
  </clipPath>
</defs>
<polyline clip-path="url(#clip0802)" style="stroke:#000000; stroke-width:2; stroke-opacity:0.1; fill:none" points="
  298.035,671.979 298.035,47.2441 
  "/>
<polyline clip-path="url(#clip0802)" style="stroke:#000000; stroke-width:2; stroke-opacity:0.1; fill:none" points="
  948.59,671.979 948.59,47.2441 
  "/>
<polyline clip-path="url(#clip0802)" style="stroke:#000000; stroke-width:2; stroke-opacity:0.1; fill:none" points="
  1599.14,671.979 1599.14,47.2441 
  "/>
<polyline clip-path="url(#clip0802)" style="stroke:#000000; stroke-width:2; stroke-opacity:0.1; fill:none" points="
  2249.7,671.979 2249.7,47.2441 
  "/>
<polyline clip-path="url(#clip0802)" style="stroke:#000000; stroke-width:2; stroke-opacity:0.1; fill:none" points="
  252.496,655.403 2321.26,655.403 
  "/>
<polyline clip-path="url(#clip0802)" style="stroke:#000000; stroke-width:2; stroke-opacity:0.1; fill:none" points="
  252.496,503.606 2321.26,503.606 
  "/>
<polyline clip-path="url(#clip0802)" style="stroke:#000000; stroke-width:2; stroke-opacity:0.1; fill:none" points="
  252.496,351.809 2321.26,351.809 
  "/>
<polyline clip-path="url(#clip0802)" style="stroke:#000000; stroke-width:2; stroke-opacity:0.1; fill:none" points="
  252.496,200.012 2321.26,200.012 
  "/>
<polyline clip-path="url(#clip0802)" style="stroke:#000000; stroke-width:2; stroke-opacity:0.1; fill:none" points="
  252.496,48.2144 2321.26,48.2144 
  "/>
<polyline clip-path="url(#clip0800)" style="stroke:#000000; stroke-width:4; stroke-opacity:1; fill:none" points="
  252.496,671.979 2321.26,671.979 
  "/>
<polyline clip-path="url(#clip0800)" style="stroke:#000000; stroke-width:4; stroke-opacity:1; fill:none" points="
  252.496,671.979 252.496,47.2441 
  "/>
<polyline clip-path="url(#clip0800)" style="stroke:#000000; stroke-width:4; stroke-opacity:1; fill:none" points="
  298.035,671.979 298.035,662.608 
  "/>
<polyline clip-path="url(#clip0800)" style="stroke:#000000; stroke-width:4; stroke-opacity:1; fill:none" points="
  948.59,671.979 948.59,662.608 
  "/>
<polyline clip-path="url(#clip0800)" style="stroke:#000000; stroke-width:4; stroke-opacity:1; fill:none" points="
  1599.14,671.979 1599.14,662.608 
  "/>
<polyline clip-path="url(#clip0800)" style="stroke:#000000; stroke-width:4; stroke-opacity:1; fill:none" points="
  2249.7,671.979 2249.7,662.608 
  "/>
<polyline clip-path="url(#clip0800)" style="stroke:#000000; stroke-width:4; stroke-opacity:1; fill:none" points="
  252.496,655.403 283.528,655.403 
  "/>
<polyline clip-path="url(#clip0800)" style="stroke:#000000; stroke-width:4; stroke-opacity:1; fill:none" points="
  252.496,503.606 283.528,503.606 
  "/>
<polyline clip-path="url(#clip0800)" style="stroke:#000000; stroke-width:4; stroke-opacity:1; fill:none" points="
  252.496,351.809 283.528,351.809 
  "/>
<polyline clip-path="url(#clip0800)" style="stroke:#000000; stroke-width:4; stroke-opacity:1; fill:none" points="
  252.496,200.012 283.528,200.012 
  "/>
<polyline clip-path="url(#clip0800)" style="stroke:#000000; stroke-width:4; stroke-opacity:1; fill:none" points="
  252.496,48.2144 283.528,48.2144 
  "/>
<g clip-path="url(#clip0800)">
<text style="fill:#000000; fill-opacity:1; font-family:Arial,Helvetica Neue,Helvetica,sans-serif; font-size:48px; text-anchor:middle;" transform="rotate(0, 298.035, 725.979)" x="298.035" y="725.979">0</text>
</g>
<g clip-path="url(#clip0800)">
<text style="fill:#000000; fill-opacity:1; font-family:Arial,Helvetica Neue,Helvetica,sans-serif; font-size:48px; text-anchor:middle;" transform="rotate(0, 948.59, 725.979)" x="948.59" y="725.979">50</text>
</g>
<g clip-path="url(#clip0800)">
<text style="fill:#000000; fill-opacity:1; font-family:Arial,Helvetica Neue,Helvetica,sans-serif; font-size:48px; text-anchor:middle;" transform="rotate(0, 1599.14, 725.979)" x="1599.14" y="725.979">100</text>
</g>
<g clip-path="url(#clip0800)">
<text style="fill:#000000; fill-opacity:1; font-family:Arial,Helvetica Neue,Helvetica,sans-serif; font-size:48px; text-anchor:middle;" transform="rotate(0, 2249.7, 725.979)" x="2249.7" y="725.979">150</text>
</g>
<g clip-path="url(#clip0800)">
<text style="fill:#000000; fill-opacity:1; font-family:Arial,Helvetica Neue,Helvetica,sans-serif; font-size:48px; text-anchor:end;" transform="rotate(0, 228.496, 672.903)" x="228.496" y="672.903">-1.0</text>
</g>
<g clip-path="url(#clip0800)">
<text style="fill:#000000; fill-opacity:1; font-family:Arial,Helvetica Neue,Helvetica,sans-serif; font-size:48px; text-anchor:end;" transform="rotate(0, 228.496, 521.106)" x="228.496" y="521.106">-0.5</text>
</g>
<g clip-path="url(#clip0800)">
<text style="fill:#000000; fill-opacity:1; font-family:Arial,Helvetica Neue,Helvetica,sans-serif; font-size:48px; text-anchor:end;" transform="rotate(0, 228.496, 369.309)" x="228.496" y="369.309">0.0</text>
</g>
<g clip-path="url(#clip0800)">
<text style="fill:#000000; fill-opacity:1; font-family:Arial,Helvetica Neue,Helvetica,sans-serif; font-size:48px; text-anchor:end;" transform="rotate(0, 228.496, 217.512)" x="228.496" y="217.512">0.5</text>
</g>
<g clip-path="url(#clip0800)">
<text style="fill:#000000; fill-opacity:1; font-family:Arial,Helvetica Neue,Helvetica,sans-serif; font-size:48px; text-anchor:end;" transform="rotate(0, 228.496, 65.7144)" x="228.496" y="65.7144">1.0</text>
</g>
<g clip-path="url(#clip0800)">
<text style="fill:#000000; fill-opacity:1; font-family:Arial,Helvetica Neue,Helvetica,sans-serif; font-size:66px; text-anchor:middle;" transform="rotate(-90, 57.6, 359.611)" x="57.6" y="359.611">Value</text>
</g>
<polyline clip-path="url(#clip0802)" style="stroke:#009af9; stroke-width:4; stroke-opacity:1; fill:none" points="
  311.046,158.219 324.057,177.755 337.068,224.975 350.079,64.9253 363.091,355.108 376.102,362.63 389.113,389.291 402.124,488.511 415.135,483.621 428.146,374.432 
  441.157,446.849 454.168,515.166 467.179,599.975 480.19,594.321 493.201,413.592 506.213,597.144 519.224,499.188 532.235,621.983 545.246,566.121 558.257,577.548 
  571.268,602.186 584.279,353.688 597.29,359.276 610.301,380.756 623.312,455.66 636.323,540.911 649.335,496.107 662.346,562.797 675.357,415.689 688.368,608.613 
  701.379,580.808 714.39,526.651 727.401,530.368 740.412,511.597 753.423,568.306 766.434,594.061 779.445,453.581 792.457,494.89 805.468,586.97 818.479,469.947 
  831.49,638.542 844.501,485.955 857.512,508.021 870.523,644.212 883.534,569.992 896.545,555.137 909.556,610.035 922.567,414.011 935.579,626.039 948.59,653.336 
  961.601,621.812 974.612,501.234 987.623,521.911 1000.63,396.351 1013.65,514.383 1026.66,414.492 1039.67,620.173 1052.68,602.292 1065.69,646.352 1078.7,469.973 
  1091.71,604.502 1104.72,562.426 1117.73,358.168 1130.74,378.01 1143.76,464.715 1156.77,652.38 1169.78,469.709 1182.79,402.511 1195.8,586.952 1208.81,473.934 
  1221.82,370.754 1234.83,432.286 1247.84,451.856 1260.86,553.92 1273.87,622.156 1286.88,424.161 1299.89,641.565 1312.9,484.327 1325.91,470.5 1338.92,616.139 
  1351.93,647.093 1364.94,597.012 1377.96,532.233 1390.97,437.635 1403.98,446.776 1416.99,549.14 1430,434.307 1443.01,458.028 1456.02,569.473 1469.03,627.372 
  1482.04,616.063 1495.06,429.535 1508.07,370.425 1521.08,423.975 1534.09,639.807 1547.1,442.02 1560.11,479.18 1573.12,649.724 1586.13,588.171 1599.14,476.414 
  1612.16,376.471 1625.17,434.982 1638.18,472.486 1651.19,420.519 1664.2,378.92 1677.21,459.318 1690.22,528.744 1703.23,548.86 1716.24,359.606 1729.26,376.169 
  1742.27,455.526 1755.28,574.532 1768.29,494.132 1781.3,504.562 1794.31,514.873 1807.32,445.475 1820.33,534.207 1833.34,563.631 1846.35,413.816 1859.37,612.046 
  1872.38,530.113 1885.39,523.114 1898.4,365.369 1911.41,402.855 1924.42,539.438 1937.43,351.919 1950.44,352.23 1963.45,353.261 1976.47,356.285 1989.48,369.385 
  2002.49,416.701 2015.5,363.286 2028.51,399.368 2041.52,572.18 2054.53,626.732 2067.54,475.669 2080.55,447.105 2093.57,548.775 2106.58,423.077 2119.59,378.344 
  2132.6,444.38 2145.61,496.819 2158.62,465.368 2171.63,654.297 2184.64,477.471 2197.65,641.556 2210.67,465.601 2223.68,636.85 2236.69,484.838 2249.7,459.812 
  2262.71,530.741 
  "/>
<path clip-path="url(#clip0800)" d="
M1985.19 251.724 L2249.26 251.724 L2249.26 130.764 L1985.19 130.764  Z
  " fill="#ffffff" fill-rule="evenodd" fill-opacity="1"/>
<polyline clip-path="url(#clip0800)" style="stroke:#000000; stroke-width:4; stroke-opacity:1; fill:none" points="
  1985.19,251.724 2249.26,251.724 2249.26,130.764 1985.19,130.764 1985.19,251.724 
  "/>
<polyline clip-path="url(#clip0800)" style="stroke:#009af9; stroke-width:4; stroke-opacity:1; fill:none" points="
  2009.19,191.244 2153.19,191.244 
  "/>
<g clip-path="url(#clip0800)">
<text style="fill:#000000; fill-opacity:1; font-family:Arial,Helvetica Neue,Helvetica,sans-serif; font-size:48px; text-anchor:start;" transform="rotate(0, 2177.19, 208.744)" x="2177.19" y="208.744">x</text>
</g>
<path clip-path="url(#clip0800)" d="
M252.496 1440.48 L2321.26 1440.48 L2321.26 815.748 L252.496 815.748  Z
  " fill="#ffffff" fill-rule="evenodd" fill-opacity="1"/>
<defs>
  <clipPath id="clip0803">
    <rect x="252" y="815" width="2070" height="626"/>
  </clipPath>
</defs>
<polyline clip-path="url(#clip0803)" style="stroke:#000000; stroke-width:2; stroke-opacity:0.1; fill:none" points="
  298.035,1440.48 298.035,815.748 
  "/>
<polyline clip-path="url(#clip0803)" style="stroke:#000000; stroke-width:2; stroke-opacity:0.1; fill:none" points="
  948.59,1440.48 948.59,815.748 
  "/>
<polyline clip-path="url(#clip0803)" style="stroke:#000000; stroke-width:2; stroke-opacity:0.1; fill:none" points="
  1599.14,1440.48 1599.14,815.748 
  "/>
<polyline clip-path="url(#clip0803)" style="stroke:#000000; stroke-width:2; stroke-opacity:0.1; fill:none" points="
  2249.7,1440.48 2249.7,815.748 
  "/>
<polyline clip-path="url(#clip0803)" style="stroke:#000000; stroke-width:2; stroke-opacity:0.1; fill:none" points="
  252.496,1360.28 2321.26,1360.28 
  "/>
<polyline clip-path="url(#clip0803)" style="stroke:#000000; stroke-width:2; stroke-opacity:0.1; fill:none" points="
  252.496,1272.52 2321.26,1272.52 
  "/>
<polyline clip-path="url(#clip0803)" style="stroke:#000000; stroke-width:2; stroke-opacity:0.1; fill:none" points="
  252.496,1184.76 2321.26,1184.76 
  "/>
<polyline clip-path="url(#clip0803)" style="stroke:#000000; stroke-width:2; stroke-opacity:0.1; fill:none" points="
  252.496,1097 2321.26,1097 
  "/>
<polyline clip-path="url(#clip0803)" style="stroke:#000000; stroke-width:2; stroke-opacity:0.1; fill:none" points="
  252.496,1009.24 2321.26,1009.24 
  "/>
<polyline clip-path="url(#clip0803)" style="stroke:#000000; stroke-width:2; stroke-opacity:0.1; fill:none" points="
  252.496,921.474 2321.26,921.474 
  "/>
<polyline clip-path="url(#clip0803)" style="stroke:#000000; stroke-width:2; stroke-opacity:0.1; fill:none" points="
  252.496,833.712 2321.26,833.712 
  "/>
<polyline clip-path="url(#clip0800)" style="stroke:#000000; stroke-width:4; stroke-opacity:1; fill:none" points="
  252.496,1440.48 2321.26,1440.48 
  "/>
<polyline clip-path="url(#clip0800)" style="stroke:#000000; stroke-width:4; stroke-opacity:1; fill:none" points="
  252.496,1440.48 252.496,815.748 
  "/>
<polyline clip-path="url(#clip0800)" style="stroke:#000000; stroke-width:4; stroke-opacity:1; fill:none" points="
  298.035,1440.48 298.035,1431.11 
  "/>
<polyline clip-path="url(#clip0800)" style="stroke:#000000; stroke-width:4; stroke-opacity:1; fill:none" points="
  948.59,1440.48 948.59,1431.11 
  "/>
<polyline clip-path="url(#clip0800)" style="stroke:#000000; stroke-width:4; stroke-opacity:1; fill:none" points="
  1599.14,1440.48 1599.14,1431.11 
  "/>
<polyline clip-path="url(#clip0800)" style="stroke:#000000; stroke-width:4; stroke-opacity:1; fill:none" points="
  2249.7,1440.48 2249.7,1431.11 
  "/>
<polyline clip-path="url(#clip0800)" style="stroke:#000000; stroke-width:4; stroke-opacity:1; fill:none" points="
  252.496,1360.28 283.528,1360.28 
  "/>
<polyline clip-path="url(#clip0800)" style="stroke:#000000; stroke-width:4; stroke-opacity:1; fill:none" points="
  252.496,1272.52 283.528,1272.52 
  "/>
<polyline clip-path="url(#clip0800)" style="stroke:#000000; stroke-width:4; stroke-opacity:1; fill:none" points="
  252.496,1184.76 283.528,1184.76 
  "/>
<polyline clip-path="url(#clip0800)" style="stroke:#000000; stroke-width:4; stroke-opacity:1; fill:none" points="
  252.496,1097 283.528,1097 
  "/>
<polyline clip-path="url(#clip0800)" style="stroke:#000000; stroke-width:4; stroke-opacity:1; fill:none" points="
  252.496,1009.24 283.528,1009.24 
  "/>
<polyline clip-path="url(#clip0800)" style="stroke:#000000; stroke-width:4; stroke-opacity:1; fill:none" points="
  252.496,921.474 283.528,921.474 
  "/>
<polyline clip-path="url(#clip0800)" style="stroke:#000000; stroke-width:4; stroke-opacity:1; fill:none" points="
  252.496,833.712 283.528,833.712 
  "/>
<g clip-path="url(#clip0800)">
<text style="fill:#000000; fill-opacity:1; font-family:Arial,Helvetica Neue,Helvetica,sans-serif; font-size:48px; text-anchor:middle;" transform="rotate(0, 298.035, 1494.48)" x="298.035" y="1494.48">0</text>
</g>
<g clip-path="url(#clip0800)">
<text style="fill:#000000; fill-opacity:1; font-family:Arial,Helvetica Neue,Helvetica,sans-serif; font-size:48px; text-anchor:middle;" transform="rotate(0, 948.59, 1494.48)" x="948.59" y="1494.48">50</text>
</g>
<g clip-path="url(#clip0800)">
<text style="fill:#000000; fill-opacity:1; font-family:Arial,Helvetica Neue,Helvetica,sans-serif; font-size:48px; text-anchor:middle;" transform="rotate(0, 1599.14, 1494.48)" x="1599.14" y="1494.48">100</text>
</g>
<g clip-path="url(#clip0800)">
<text style="fill:#000000; fill-opacity:1; font-family:Arial,Helvetica Neue,Helvetica,sans-serif; font-size:48px; text-anchor:middle;" transform="rotate(0, 2249.7, 1494.48)" x="2249.7" y="1494.48">150</text>
</g>
<g clip-path="url(#clip0800)">
<text style="fill:#000000; fill-opacity:1; font-family:Arial,Helvetica Neue,Helvetica,sans-serif; font-size:48px; text-anchor:end;" transform="rotate(0, 228.496, 1377.78)" x="228.496" y="1377.78">-0.2</text>
</g>
<g clip-path="url(#clip0800)">
<text style="fill:#000000; fill-opacity:1; font-family:Arial,Helvetica Neue,Helvetica,sans-serif; font-size:48px; text-anchor:end;" transform="rotate(0, 228.496, 1290.02)" x="228.496" y="1290.02">0.0</text>
</g>
<g clip-path="url(#clip0800)">
<text style="fill:#000000; fill-opacity:1; font-family:Arial,Helvetica Neue,Helvetica,sans-serif; font-size:48px; text-anchor:end;" transform="rotate(0, 228.496, 1202.26)" x="228.496" y="1202.26">0.2</text>
</g>
<g clip-path="url(#clip0800)">
<text style="fill:#000000; fill-opacity:1; font-family:Arial,Helvetica Neue,Helvetica,sans-serif; font-size:48px; text-anchor:end;" transform="rotate(0, 228.496, 1114.5)" x="228.496" y="1114.5">0.4</text>
</g>
<g clip-path="url(#clip0800)">
<text style="fill:#000000; fill-opacity:1; font-family:Arial,Helvetica Neue,Helvetica,sans-serif; font-size:48px; text-anchor:end;" transform="rotate(0, 228.496, 1026.74)" x="228.496" y="1026.74">0.6</text>
</g>
<g clip-path="url(#clip0800)">
<text style="fill:#000000; fill-opacity:1; font-family:Arial,Helvetica Neue,Helvetica,sans-serif; font-size:48px; text-anchor:end;" transform="rotate(0, 228.496, 938.974)" x="228.496" y="938.974">0.8</text>
</g>
<g clip-path="url(#clip0800)">
<text style="fill:#000000; fill-opacity:1; font-family:Arial,Helvetica Neue,Helvetica,sans-serif; font-size:48px; text-anchor:end;" transform="rotate(0, 228.496, 851.212)" x="228.496" y="851.212">1.0</text>
</g>
<g clip-path="url(#clip0800)">
<text style="fill:#000000; fill-opacity:1; font-family:Arial,Helvetica Neue,Helvetica,sans-serif; font-size:66px; text-anchor:middle;" transform="rotate(0, 1286.88, 1590.4)" x="1286.88" y="1590.4">Time step</text>
</g>
<g clip-path="url(#clip0800)">
<text style="fill:#000000; fill-opacity:1; font-family:Arial,Helvetica Neue,Helvetica,sans-serif; font-size:66px; text-anchor:middle;" transform="rotate(-90, 57.6, 1128.12)" x="57.6" y="1128.12">Value</text>
</g>
<polyline clip-path="url(#clip0803)" style="stroke:#009af9; stroke-width:4; stroke-opacity:1; fill:none" points="
  311.046,1322.2 324.057,1146.86 337.068,859.435 350.079,964.36 363.091,861.616 376.102,1145.2 389.113,874.209 402.124,1027.31 415.135,1346.56 428.146,1230.47 
  441.157,1113.24 454.168,1146.85 467.179,1021.88 480.19,878.797 493.201,1107.88 506.213,934.293 519.224,1023.94 532.235,1060.92 545.246,833.429 558.257,1109.73 
  571.268,892.469 584.279,980.89 597.29,1042.41 610.301,905.181 623.312,1024.79 636.323,1086.8 649.335,1014.34 662.346,988.784 675.357,1085.73 688.368,1137.51 
  701.379,1294.23 714.39,1422.8 727.401,1158.44 740.412,1107.77 753.423,1076.2 766.434,993.529 779.445,1049.59 792.457,1063.17 805.468,1086.75 818.479,1053.75 
  831.49,1089.73 844.501,1073.66 857.512,913.376 870.523,988.234 883.534,1049.91 896.545,1071.28 909.556,1099.93 922.567,1111 935.579,975.9 948.59,993.228 
  961.601,1035.62 974.612,1072.16 987.623,1036.55 1000.63,1174.27 1013.65,1139.53 1026.66,1226.93 1039.67,1148.5 1052.68,1089.12 1065.69,1118.79 1078.7,1171.45 
  1091.71,1089.76 1104.72,1094.68 1117.73,1097.51 1130.74,962.026 1143.76,1056.62 1156.77,971.064 1169.78,1061.38 1182.79,1090.88 1195.8,1062.43 1208.81,1114.68 
  1221.82,1075.5 1234.83,1020.48 1247.84,1032.88 1260.86,1039.61 1273.87,1035.99 1286.88,1047.59 1299.89,1074.49 1312.9,1167.21 1325.91,1102.02 1338.92,1109.2 
  1351.93,1030.18 1364.94,1090.82 1377.96,1124.26 1390.97,987.25 1403.98,1037.95 1416.99,1063.16 1430,1007.67 1443.01,1090.23 1456.02,1032.08 1469.03,1144.82 
  1482.04,1131.23 1495.06,1143.79 1508.07,1116.98 1521.08,1131.83 1534.09,1073.76 1547.1,1228.14 1560.11,1109.27 1573.12,1072.61 1586.13,1220.48 1599.14,1088.12 
  1612.16,1092.34 1625.17,1000.06 1638.18,1062.33 1651.19,1035.76 1664.2,874.279 1677.21,900.235 1690.22,935.945 1703.23,1026.14 1716.24,922.487 1729.26,900.389 
  1742.27,1064.31 1755.28,1053.8 1768.29,1095.66 1781.3,974.681 1794.31,1145.85 1807.32,1223.65 1820.33,1093.44 1833.34,962.937 1846.35,1352.2 1859.37,1175.57 
  1872.38,1241.64 1885.39,1026.82 1898.4,1068.3 1911.41,1101.61 1924.42,971.114 1937.43,945.319 1950.44,1171.79 1963.45,1072.36 1976.47,1204.16 1989.48,1245.05 
  2002.49,851.463 2015.5,963.93 2028.51,857.511 2041.52,917.279 2054.53,1060.48 2067.54,964.782 2080.55,1124.15 2093.57,1258.35 2106.58,1151.12 2119.59,927.174 
  2132.6,1116.85 2145.61,1204.14 2158.62,1181.76 2171.63,1128.49 2184.64,1123.93 2197.65,1038.64 2210.67,1338.42 2223.68,1129.7 2236.69,1068.9 2249.7,1082.29 
  2262.71,1236.9 
  "/>
<path clip-path="url(#clip0800)" d="
M1634.78 1020.23 L2249.26 1020.23 L2249.26 899.268 L1634.78 899.268  Z
  " fill="#ffffff" fill-rule="evenodd" fill-opacity="1"/>
<polyline clip-path="url(#clip0800)" style="stroke:#000000; stroke-width:4; stroke-opacity:1; fill:none" points="
  1634.78,1020.23 2249.26,1020.23 2249.26,899.268 1634.78,899.268 1634.78,1020.23 
  "/>
<polyline clip-path="url(#clip0800)" style="stroke:#009af9; stroke-width:4; stroke-opacity:1; fill:none" points="
  1658.78,959.748 1802.78,959.748 
  "/>
<g clip-path="url(#clip0800)">
<text style="fill:#000000; fill-opacity:1; font-family:Arial,Helvetica Neue,Helvetica,sans-serif; font-size:48px; text-anchor:start;" transform="rotate(0, 1826.78, 977.248)" x="1826.78" y="977.248">randomphases(x)</text>
</g>
</svg>
