<?xml version="1.0" encoding="utf-8"?>
<svg xmlns="http://www.w3.org/2000/svg" xmlns:xlink="http://www.w3.org/1999/xlink" width="600" height="400" viewBox="0 0 2400 1600">
<defs>
  <clipPath id="clip1100">
    <rect x="0" y="0" width="2400" height="1600"/>
  </clipPath>
</defs>
<path clip-path="url(#clip1100)" d="
M0 1600 L2400 1600 L2400 0 L0 0  Z
  " fill="#ffffff" fill-rule="evenodd" fill-opacity="1"/>
<defs>
  <clipPath id="clip1101">
    <rect x="480" y="0" width="1681" height="1600"/>
  </clipPath>
</defs>
<path clip-path="url(#clip1100)" d="
M252.496 671.979 L2321.26 671.979 L2321.26 47.2441 L252.496 47.2441  Z
  " fill="#ffffff" fill-rule="evenodd" fill-opacity="1"/>
<defs>
  <clipPath id="clip1102">
    <rect x="252" y="47" width="2070" height="626"/>
  </clipPath>
</defs>
<polyline clip-path="url(#clip1102)" style="stroke:#000000; stroke-width:2; stroke-opacity:0.1; fill:none" points="
  291.332,671.979 291.332,47.2441 
  "/>
<polyline clip-path="url(#clip1102)" style="stroke:#000000; stroke-width:2; stroke-opacity:0.1; fill:none" points="
  784.177,671.979 784.177,47.2441 
  "/>
<polyline clip-path="url(#clip1102)" style="stroke:#000000; stroke-width:2; stroke-opacity:0.1; fill:none" points="
  1277.02,671.979 1277.02,47.2441 
  "/>
<polyline clip-path="url(#clip1102)" style="stroke:#000000; stroke-width:2; stroke-opacity:0.1; fill:none" points="
  1769.87,671.979 1769.87,47.2441 
  "/>
<polyline clip-path="url(#clip1102)" style="stroke:#000000; stroke-width:2; stroke-opacity:0.1; fill:none" points="
  2262.71,671.979 2262.71,47.2441 
  "/>
<polyline clip-path="url(#clip1102)" style="stroke:#000000; stroke-width:2; stroke-opacity:0.1; fill:none" points="
  252.496,589.167 2321.26,589.167 
  "/>
<polyline clip-path="url(#clip1102)" style="stroke:#000000; stroke-width:2; stroke-opacity:0.1; fill:none" points="
  252.496,474.897 2321.26,474.897 
  "/>
<polyline clip-path="url(#clip1102)" style="stroke:#000000; stroke-width:2; stroke-opacity:0.1; fill:none" points="
  252.496,360.627 2321.26,360.627 
  "/>
<polyline clip-path="url(#clip1102)" style="stroke:#000000; stroke-width:2; stroke-opacity:0.1; fill:none" points="
  252.496,246.357 2321.26,246.357 
  "/>
<polyline clip-path="url(#clip1102)" style="stroke:#000000; stroke-width:2; stroke-opacity:0.1; fill:none" points="
  252.496,132.086 2321.26,132.086 
  "/>
<polyline clip-path="url(#clip1100)" style="stroke:#000000; stroke-width:4; stroke-opacity:1; fill:none" points="
  252.496,671.979 2321.26,671.979 
  "/>
<polyline clip-path="url(#clip1100)" style="stroke:#000000; stroke-width:4; stroke-opacity:1; fill:none" points="
  252.496,671.979 252.496,47.2441 
  "/>
<polyline clip-path="url(#clip1100)" style="stroke:#000000; stroke-width:4; stroke-opacity:1; fill:none" points="
  291.332,671.979 291.332,662.608 
  "/>
<polyline clip-path="url(#clip1100)" style="stroke:#000000; stroke-width:4; stroke-opacity:1; fill:none" points="
  784.177,671.979 784.177,662.608 
  "/>
<polyline clip-path="url(#clip1100)" style="stroke:#000000; stroke-width:4; stroke-opacity:1; fill:none" points="
  1277.02,671.979 1277.02,662.608 
  "/>
<polyline clip-path="url(#clip1100)" style="stroke:#000000; stroke-width:4; stroke-opacity:1; fill:none" points="
  1769.87,671.979 1769.87,662.608 
  "/>
<polyline clip-path="url(#clip1100)" style="stroke:#000000; stroke-width:4; stroke-opacity:1; fill:none" points="
  2262.71,671.979 2262.71,662.608 
  "/>
<polyline clip-path="url(#clip1100)" style="stroke:#000000; stroke-width:4; stroke-opacity:1; fill:none" points="
  252.496,589.167 283.528,589.167 
  "/>
<polyline clip-path="url(#clip1100)" style="stroke:#000000; stroke-width:4; stroke-opacity:1; fill:none" points="
  252.496,474.897 283.528,474.897 
  "/>
<polyline clip-path="url(#clip1100)" style="stroke:#000000; stroke-width:4; stroke-opacity:1; fill:none" points="
  252.496,360.627 283.528,360.627 
  "/>
<polyline clip-path="url(#clip1100)" style="stroke:#000000; stroke-width:4; stroke-opacity:1; fill:none" points="
  252.496,246.357 283.528,246.357 
  "/>
<polyline clip-path="url(#clip1100)" style="stroke:#000000; stroke-width:4; stroke-opacity:1; fill:none" points="
  252.496,132.086 283.528,132.086 
  "/>
<g clip-path="url(#clip1100)">
<text style="fill:#000000; fill-opacity:1; font-family:Arial,Helvetica Neue,Helvetica,sans-serif; font-size:48px; text-anchor:middle;" transform="rotate(0, 291.332, 725.979)" x="291.332" y="725.979">0</text>
</g>
<g clip-path="url(#clip1100)">
<text style="fill:#000000; fill-opacity:1; font-family:Arial,Helvetica Neue,Helvetica,sans-serif; font-size:48px; text-anchor:middle;" transform="rotate(0, 784.177, 725.979)" x="784.177" y="725.979">25</text>
</g>
<g clip-path="url(#clip1100)">
<text style="fill:#000000; fill-opacity:1; font-family:Arial,Helvetica Neue,Helvetica,sans-serif; font-size:48px; text-anchor:middle;" transform="rotate(0, 1277.02, 725.979)" x="1277.02" y="725.979">50</text>
</g>
<g clip-path="url(#clip1100)">
<text style="fill:#000000; fill-opacity:1; font-family:Arial,Helvetica Neue,Helvetica,sans-serif; font-size:48px; text-anchor:middle;" transform="rotate(0, 1769.87, 725.979)" x="1769.87" y="725.979">75</text>
</g>
<g clip-path="url(#clip1100)">
<text style="fill:#000000; fill-opacity:1; font-family:Arial,Helvetica Neue,Helvetica,sans-serif; font-size:48px; text-anchor:middle;" transform="rotate(0, 2262.71, 725.979)" x="2262.71" y="725.979">100</text>
</g>
<g clip-path="url(#clip1100)">
<text style="fill:#000000; fill-opacity:1; font-family:Arial,Helvetica Neue,Helvetica,sans-serif; font-size:48px; text-anchor:end;" transform="rotate(0, 228.496, 606.667)" x="228.496" y="606.667">-1.0</text>
</g>
<g clip-path="url(#clip1100)">
<text style="fill:#000000; fill-opacity:1; font-family:Arial,Helvetica Neue,Helvetica,sans-serif; font-size:48px; text-anchor:end;" transform="rotate(0, 228.496, 492.397)" x="228.496" y="492.397">-0.5</text>
</g>
<g clip-path="url(#clip1100)">
<text style="fill:#000000; fill-opacity:1; font-family:Arial,Helvetica Neue,Helvetica,sans-serif; font-size:48px; text-anchor:end;" transform="rotate(0, 228.496, 378.127)" x="228.496" y="378.127">0.0</text>
</g>
<g clip-path="url(#clip1100)">
<text style="fill:#000000; fill-opacity:1; font-family:Arial,Helvetica Neue,Helvetica,sans-serif; font-size:48px; text-anchor:end;" transform="rotate(0, 228.496, 263.857)" x="228.496" y="263.857">0.5</text>
</g>
<g clip-path="url(#clip1100)">
<text style="fill:#000000; fill-opacity:1; font-family:Arial,Helvetica Neue,Helvetica,sans-serif; font-size:48px; text-anchor:end;" transform="rotate(0, 228.496, 149.586)" x="228.496" y="149.586">1.0</text>
</g>
<g clip-path="url(#clip1100)">
<text style="fill:#000000; fill-opacity:1; font-family:Arial,Helvetica Neue,Helvetica,sans-serif; font-size:66px; text-anchor:middle;" transform="rotate(-90, 57.6, 359.611)" x="57.6" y="359.611">Value</text>
</g>
<polyline clip-path="url(#clip1102)" style="stroke:#000000; stroke-width:4; stroke-opacity:1; fill:none" points="
  311.046,82.2276 330.76,190.488 350.474,128.301 370.187,210.017 389.901,189.478 409.615,318.104 429.329,342.591 449.043,420.488 468.756,420.774 488.47,580.408 
  508.184,553.467 527.898,572.123 547.611,544.544 567.325,567.941 587.039,601.366 606.753,523.08 626.467,545.256 646.18,447.637 665.894,380.184 685.608,306 
  705.322,320.668 725.035,189.788 744.749,173.16 764.463,140.549 784.177,130.088 803.891,204.105 823.604,71.7677 843.318,178.96 863.032,232.525 882.746,214.54 
  902.459,336.291 922.173,397.44 941.887,438.305 961.601,471.367 981.315,500.674 1001.03,514.341 1020.74,577.601 1040.46,641.523 1060.17,538.892 1079.88,592.726 
  1099.6,555.041 1119.31,460.485 1139.02,402.172 1158.74,440.064 1178.45,287.205 1198.17,309.448 1217.88,233.684 1237.59,84.2151 1257.31,210.867 1277.02,80.8845 
  1296.73,184.429 1316.45,113.006 1336.16,236.629 1355.88,161.708 1375.59,302.918 1395.3,298.624 1415.02,347.358 1434.73,450.537 1454.45,555.981 1474.16,442.369 
  1493.87,611.641 1513.59,557.504 1533.3,654.297 1553.01,560.613 1572.73,548.461 1592.44,453.203 1612.16,474.227 1631.87,463.02 1651.58,325.943 1671.3,360.612 
  1691.01,230.827 1710.72,247.329 1730.44,148.983 1750.15,165.448 1769.87,64.9253 1789.58,155.031 1809.29,129.456 1829.01,274.782 1848.72,136.691 1868.43,324.794 
  1888.15,386.076 1907.86,369.545 1927.58,476.872 1947.29,470.629 1967,485.914 1986.72,637.067 2006.43,590.496 2026.14,587.5 2045.86,555.476 2065.57,514.616 
  2085.29,539.816 2105,459.642 2124.71,390.429 2144.43,335.621 2164.14,359.889 2183.85,225.664 2203.57,179.63 2223.28,171.548 2243,72.3193 2262.71,129.236 
  
  "/>
<path clip-path="url(#clip1100)" d="
M1971.81 251.724 L2249.26 251.724 L2249.26 130.764 L1971.81 130.764  Z
  " fill="#ffffff" fill-rule="evenodd" fill-opacity="1"/>
<polyline clip-path="url(#clip1100)" style="stroke:#000000; stroke-width:4; stroke-opacity:1; fill:none" points="
  1971.81,251.724 2249.26,251.724 2249.26,130.764 1971.81,130.764 1971.81,251.724 
  "/>
<polyline clip-path="url(#clip1100)" style="stroke:#000000; stroke-width:4; stroke-opacity:1; fill:none" points="
  1995.81,191.244 2139.81,191.244 
  "/>
<g clip-path="url(#clip1100)">
<text style="fill:#000000; fill-opacity:1; font-family:Arial,Helvetica Neue,Helvetica,sans-serif; font-size:48px; text-anchor:start;" transform="rotate(0, 2163.81, 208.744)" x="2163.81" y="208.744">ts</text>
</g>
<path clip-path="url(#clip1100)" d="
M252.496 1440.48 L2321.26 1440.48 L2321.26 815.748 L252.496 815.748  Z
  " fill="#ffffff" fill-rule="evenodd" fill-opacity="1"/>
<defs>
  <clipPath id="clip1103">
    <rect x="252" y="815" width="2070" height="626"/>
  </clipPath>
</defs>
<polyline clip-path="url(#clip1103)" style="stroke:#000000; stroke-width:2; stroke-opacity:0.1; fill:none" points="
  291.332,1440.48 291.332,815.748 
  "/>
<polyline clip-path="url(#clip1103)" style="stroke:#000000; stroke-width:2; stroke-opacity:0.1; fill:none" points="
  784.177,1440.48 784.177,815.748 
  "/>
<polyline clip-path="url(#clip1103)" style="stroke:#000000; stroke-width:2; stroke-opacity:0.1; fill:none" points="
  1277.02,1440.48 1277.02,815.748 
  "/>
<polyline clip-path="url(#clip1103)" style="stroke:#000000; stroke-width:2; stroke-opacity:0.1; fill:none" points="
  1769.87,1440.48 1769.87,815.748 
  "/>
<polyline clip-path="url(#clip1103)" style="stroke:#000000; stroke-width:2; stroke-opacity:0.1; fill:none" points="
  2262.71,1440.48 2262.71,815.748 
  "/>
<polyline clip-path="url(#clip1103)" style="stroke:#000000; stroke-width:2; stroke-opacity:0.1; fill:none" points="
  252.496,1357.67 2321.26,1357.67 
  "/>
<polyline clip-path="url(#clip1103)" style="stroke:#000000; stroke-width:2; stroke-opacity:0.1; fill:none" points="
  252.496,1243.4 2321.26,1243.4 
  "/>
<polyline clip-path="url(#clip1103)" style="stroke:#000000; stroke-width:2; stroke-opacity:0.1; fill:none" points="
  252.496,1129.13 2321.26,1129.13 
  "/>
<polyline clip-path="url(#clip1103)" style="stroke:#000000; stroke-width:2; stroke-opacity:0.1; fill:none" points="
  252.496,1014.86 2321.26,1014.86 
  "/>
<polyline clip-path="url(#clip1103)" style="stroke:#000000; stroke-width:2; stroke-opacity:0.1; fill:none" points="
  252.496,900.59 2321.26,900.59 
  "/>
<polyline clip-path="url(#clip1100)" style="stroke:#000000; stroke-width:4; stroke-opacity:1; fill:none" points="
  252.496,1440.48 2321.26,1440.48 
  "/>
<polyline clip-path="url(#clip1100)" style="stroke:#000000; stroke-width:4; stroke-opacity:1; fill:none" points="
  252.496,1440.48 252.496,815.748 
  "/>
<polyline clip-path="url(#clip1100)" style="stroke:#000000; stroke-width:4; stroke-opacity:1; fill:none" points="
  291.332,1440.48 291.332,1431.11 
  "/>
<polyline clip-path="url(#clip1100)" style="stroke:#000000; stroke-width:4; stroke-opacity:1; fill:none" points="
  784.177,1440.48 784.177,1431.11 
  "/>
<polyline clip-path="url(#clip1100)" style="stroke:#000000; stroke-width:4; stroke-opacity:1; fill:none" points="
  1277.02,1440.48 1277.02,1431.11 
  "/>
<polyline clip-path="url(#clip1100)" style="stroke:#000000; stroke-width:4; stroke-opacity:1; fill:none" points="
  1769.87,1440.48 1769.87,1431.11 
  "/>
<polyline clip-path="url(#clip1100)" style="stroke:#000000; stroke-width:4; stroke-opacity:1; fill:none" points="
  2262.71,1440.48 2262.71,1431.11 
  "/>
<polyline clip-path="url(#clip1100)" style="stroke:#000000; stroke-width:4; stroke-opacity:1; fill:none" points="
  252.496,1357.67 283.528,1357.67 
  "/>
<polyline clip-path="url(#clip1100)" style="stroke:#000000; stroke-width:4; stroke-opacity:1; fill:none" points="
  252.496,1243.4 283.528,1243.4 
  "/>
<polyline clip-path="url(#clip1100)" style="stroke:#000000; stroke-width:4; stroke-opacity:1; fill:none" points="
  252.496,1129.13 283.528,1129.13 
  "/>
<polyline clip-path="url(#clip1100)" style="stroke:#000000; stroke-width:4; stroke-opacity:1; fill:none" points="
  252.496,1014.86 283.528,1014.86 
  "/>
<polyline clip-path="url(#clip1100)" style="stroke:#000000; stroke-width:4; stroke-opacity:1; fill:none" points="
  252.496,900.59 283.528,900.59 
  "/>
<g clip-path="url(#clip1100)">
<text style="fill:#000000; fill-opacity:1; font-family:Arial,Helvetica Neue,Helvetica,sans-serif; font-size:48px; text-anchor:middle;" transform="rotate(0, 291.332, 1494.48)" x="291.332" y="1494.48">0</text>
</g>
<g clip-path="url(#clip1100)">
<text style="fill:#000000; fill-opacity:1; font-family:Arial,Helvetica Neue,Helvetica,sans-serif; font-size:48px; text-anchor:middle;" transform="rotate(0, 784.177, 1494.48)" x="784.177" y="1494.48">25</text>
</g>
<g clip-path="url(#clip1100)">
<text style="fill:#000000; fill-opacity:1; font-family:Arial,Helvetica Neue,Helvetica,sans-serif; font-size:48px; text-anchor:middle;" transform="rotate(0, 1277.02, 1494.48)" x="1277.02" y="1494.48">50</text>
</g>
<g clip-path="url(#clip1100)">
<text style="fill:#000000; fill-opacity:1; font-family:Arial,Helvetica Neue,Helvetica,sans-serif; font-size:48px; text-anchor:middle;" transform="rotate(0, 1769.87, 1494.48)" x="1769.87" y="1494.48">75</text>
</g>
<g clip-path="url(#clip1100)">
<text style="fill:#000000; fill-opacity:1; font-family:Arial,Helvetica Neue,Helvetica,sans-serif; font-size:48px; text-anchor:middle;" transform="rotate(0, 2262.71, 1494.48)" x="2262.71" y="1494.48">100</text>
</g>
<g clip-path="url(#clip1100)">
<text style="fill:#000000; fill-opacity:1; font-family:Arial,Helvetica Neue,Helvetica,sans-serif; font-size:48px; text-anchor:end;" transform="rotate(0, 228.496, 1375.17)" x="228.496" y="1375.17">-1.0</text>
</g>
<g clip-path="url(#clip1100)">
<text style="fill:#000000; fill-opacity:1; font-family:Arial,Helvetica Neue,Helvetica,sans-serif; font-size:48px; text-anchor:end;" transform="rotate(0, 228.496, 1260.9)" x="228.496" y="1260.9">-0.5</text>
</g>
<g clip-path="url(#clip1100)">
<text style="fill:#000000; fill-opacity:1; font-family:Arial,Helvetica Neue,Helvetica,sans-serif; font-size:48px; text-anchor:end;" transform="rotate(0, 228.496, 1146.63)" x="228.496" y="1146.63">0.0</text>
</g>
<g clip-path="url(#clip1100)">
<text style="fill:#000000; fill-opacity:1; font-family:Arial,Helvetica Neue,Helvetica,sans-serif; font-size:48px; text-anchor:end;" transform="rotate(0, 228.496, 1032.36)" x="228.496" y="1032.36">0.5</text>
</g>
<g clip-path="url(#clip1100)">
<text style="fill:#000000; fill-opacity:1; font-family:Arial,Helvetica Neue,Helvetica,sans-serif; font-size:48px; text-anchor:end;" transform="rotate(0, 228.496, 918.09)" x="228.496" y="918.09">1.0</text>
</g>
<g clip-path="url(#clip1100)">
<text style="fill:#000000; fill-opacity:1; font-family:Arial,Helvetica Neue,Helvetica,sans-serif; font-size:66px; text-anchor:middle;" transform="rotate(0, 1286.88, 1590.4)" x="1286.88" y="1590.4">Time step</text>
</g>
<g clip-path="url(#clip1100)">
<text style="fill:#000000; fill-opacity:1; font-family:Arial,Helvetica Neue,Helvetica,sans-serif; font-size:66px; text-anchor:middle;" transform="rotate(-90, 57.6, 1128.12)" x="57.6" y="1128.12">Value</text>
</g>
<polyline clip-path="url(#clip1103)" style="stroke:#009af9; stroke-width:4; stroke-opacity:1; fill:none" points="
  311.046,1015.83 330.76,1094.45 350.474,1242.73 370.187,1170.68 389.901,1111.1 409.615,1422.8 429.329,1077.95 449.043,1316.96 468.756,1074.5 488.47,933.952 
  508.184,840.823 527.898,1313.76 547.611,1055.71 567.325,917.487 587.039,849.388 606.753,852.719 626.467,1128.39 646.18,1154.58 665.894,1336.44 685.608,1086.61 
  705.322,1324.48 725.035,972.609 744.749,979.371 764.463,1216.14 784.177,1380.15 803.891,1089.17 823.604,1307.4 843.318,1283.12 863.032,1346.11 882.746,994.168 
  902.459,898.592 922.173,957.982 941.887,897.74 961.601,1321.97 981.315,1067.13 1001.03,1269.18 1020.74,923.535 1040.46,1340.63 1060.17,1104.12 1079.88,1326.01 
  1099.6,1188.99 1119.31,948.134 1139.02,930.212 1158.74,1129.12 1178.45,881.51 1198.17,1189.28 1217.88,1323.54 1237.59,999.331 1257.31,952.933 1277.02,1158.93 
  1296.73,897.96 1316.45,1329.12 1336.16,1104.79 1355.88,1348.91 1375.59,1239.13 1395.3,840.272 1415.02,978.521 1434.73,1093.3 1454.45,1410.03 1474.16,850.732 
  1493.87,1165.94 1513.59,1043.29 1533.3,905.195 1553.01,1405.57 1572.73,896.805 1592.44,1221.71 1612.16,1369.87 1631.87,1323.98 1651.58,1231.52 1671.3,1291.58 
  1691.01,1239.87 1710.72,1228.15 1730.44,1254.42 1750.15,1356 1769.87,1071.42 1789.58,1313.05 1809.29,1210.87 1829.01,1361.23 1848.72,1308.32 1868.43,947.464 
  1888.15,983.044 1907.86,1005.13 1927.58,1148.69 1947.29,1206.81 1967,1001.03 1986.72,1138.05 2006.43,940.052 2026.14,958.292 2045.86,1115.86 2065.57,1359 
  2085.29,1245.38 2105,833.429 2124.71,1282.84 2144.43,1002.19 2164.14,1219.04 2183.85,941.664 2203.57,1208.57 2223.28,1228.99 2243,909.053 2262.71,958.992 
  
  "/>
<path clip-path="url(#clip1100)" d="
M1634.78 1020.23 L2249.26 1020.23 L2249.26 899.268 L1634.78 899.268  Z
  " fill="#ffffff" fill-rule="evenodd" fill-opacity="1"/>
<polyline clip-path="url(#clip1100)" style="stroke:#000000; stroke-width:4; stroke-opacity:1; fill:none" points="
  1634.78,1020.23 2249.26,1020.23 2249.26,899.268 1634.78,899.268 1634.78,1020.23 
  "/>
<polyline clip-path="url(#clip1100)" style="stroke:#009af9; stroke-width:4; stroke-opacity:1; fill:none" points="
  1658.78,959.748 1802.78,959.748 
  "/>
<g clip-path="url(#clip1100)">
<text style="fill:#000000; fill-opacity:1; font-family:Arial,Helvetica Neue,Helvetica,sans-serif; font-size:48px; text-anchor:start;" transform="rotate(0, 1826.78, 977.248)" x="1826.78" y="977.248">randomshuffle(ts)</text>
</g>
</svg>
