<?xml version="1.0" encoding="utf-8"?>
<svg xmlns="http://www.w3.org/2000/svg" xmlns:xlink="http://www.w3.org/1999/xlink" width="600" height="400" viewBox="0 0 2400 1600">
<defs>
  <clipPath id="clip9900">
    <rect x="0" y="0" width="2400" height="1600"/>
  </clipPath>
</defs>
<path clip-path="url(#clip9900)" d="
M0 1600 L2400 1600 L2400 0 L0 0  Z
  " fill="#ffffff" fill-rule="evenodd" fill-opacity="1"/>
<defs>
  <clipPath id="clip9901">
    <rect x="480" y="0" width="1681" height="1600"/>
  </clipPath>
</defs>
<path clip-path="url(#clip9900)" d="
M252.496 671.979 L2321.26 671.979 L2321.26 47.2441 L252.496 47.2441  Z
  " fill="#ffffff" fill-rule="evenodd" fill-opacity="1"/>
<defs>
  <clipPath id="clip9902">
    <rect x="252" y="47" width="2070" height="626"/>
  </clipPath>
</defs>
<polyline clip-path="url(#clip9902)" style="stroke:#000000; stroke-width:2; stroke-opacity:0.1; fill:none" points="
  301.239,671.979 301.239,47.2441 
  "/>
<polyline clip-path="url(#clip9902)" style="stroke:#000000; stroke-width:2; stroke-opacity:0.1; fill:none" points="
  791.607,671.979 791.607,47.2441 
  "/>
<polyline clip-path="url(#clip9902)" style="stroke:#000000; stroke-width:2; stroke-opacity:0.1; fill:none" points="
  1281.97,671.979 1281.97,47.2441 
  "/>
<polyline clip-path="url(#clip9902)" style="stroke:#000000; stroke-width:2; stroke-opacity:0.1; fill:none" points="
  1772.34,671.979 1772.34,47.2441 
  "/>
<polyline clip-path="url(#clip9902)" style="stroke:#000000; stroke-width:2; stroke-opacity:0.1; fill:none" points="
  2262.71,671.979 2262.71,47.2441 
  "/>
<polyline clip-path="url(#clip9902)" style="stroke:#000000; stroke-width:2; stroke-opacity:0.1; fill:none" points="
  252.496,590.066 2321.26,590.066 
  "/>
<polyline clip-path="url(#clip9902)" style="stroke:#000000; stroke-width:2; stroke-opacity:0.1; fill:none" points="
  252.496,478.844 2321.26,478.844 
  "/>
<polyline clip-path="url(#clip9902)" style="stroke:#000000; stroke-width:2; stroke-opacity:0.1; fill:none" points="
  252.496,367.622 2321.26,367.622 
  "/>
<polyline clip-path="url(#clip9902)" style="stroke:#000000; stroke-width:2; stroke-opacity:0.1; fill:none" points="
  252.496,256.4 2321.26,256.4 
  "/>
<polyline clip-path="url(#clip9902)" style="stroke:#000000; stroke-width:2; stroke-opacity:0.1; fill:none" points="
  252.496,145.178 2321.26,145.178 
  "/>
<polyline clip-path="url(#clip9900)" style="stroke:#000000; stroke-width:4; stroke-opacity:1; fill:none" points="
  252.496,671.979 2321.26,671.979 
  "/>
<polyline clip-path="url(#clip9900)" style="stroke:#000000; stroke-width:4; stroke-opacity:1; fill:none" points="
  252.496,671.979 252.496,47.2441 
  "/>
<polyline clip-path="url(#clip9900)" style="stroke:#000000; stroke-width:4; stroke-opacity:1; fill:none" points="
  301.239,671.979 301.239,662.608 
  "/>
<polyline clip-path="url(#clip9900)" style="stroke:#000000; stroke-width:4; stroke-opacity:1; fill:none" points="
  791.607,671.979 791.607,662.608 
  "/>
<polyline clip-path="url(#clip9900)" style="stroke:#000000; stroke-width:4; stroke-opacity:1; fill:none" points="
  1281.97,671.979 1281.97,662.608 
  "/>
<polyline clip-path="url(#clip9900)" style="stroke:#000000; stroke-width:4; stroke-opacity:1; fill:none" points="
  1772.34,671.979 1772.34,662.608 
  "/>
<polyline clip-path="url(#clip9900)" style="stroke:#000000; stroke-width:4; stroke-opacity:1; fill:none" points="
  2262.71,671.979 2262.71,662.608 
  "/>
<polyline clip-path="url(#clip9900)" style="stroke:#000000; stroke-width:4; stroke-opacity:1; fill:none" points="
  252.496,590.066 283.528,590.066 
  "/>
<polyline clip-path="url(#clip9900)" style="stroke:#000000; stroke-width:4; stroke-opacity:1; fill:none" points="
  252.496,478.844 283.528,478.844 
  "/>
<polyline clip-path="url(#clip9900)" style="stroke:#000000; stroke-width:4; stroke-opacity:1; fill:none" points="
  252.496,367.622 283.528,367.622 
  "/>
<polyline clip-path="url(#clip9900)" style="stroke:#000000; stroke-width:4; stroke-opacity:1; fill:none" points="
  252.496,256.4 283.528,256.4 
  "/>
<polyline clip-path="url(#clip9900)" style="stroke:#000000; stroke-width:4; stroke-opacity:1; fill:none" points="
  252.496,145.178 283.528,145.178 
  "/>
<g clip-path="url(#clip9900)">
<text style="fill:#000000; fill-opacity:1; font-family:Arial,Helvetica Neue,Helvetica,sans-serif; font-size:48px; text-anchor:middle;" transform="rotate(0, 301.239, 725.979)" x="301.239" y="725.979">0</text>
</g>
<g clip-path="url(#clip9900)">
<text style="fill:#000000; fill-opacity:1; font-family:Arial,Helvetica Neue,Helvetica,sans-serif; font-size:48px; text-anchor:middle;" transform="rotate(0, 791.607, 725.979)" x="791.607" y="725.979">50</text>
</g>
<g clip-path="url(#clip9900)">
<text style="fill:#000000; fill-opacity:1; font-family:Arial,Helvetica Neue,Helvetica,sans-serif; font-size:48px; text-anchor:middle;" transform="rotate(0, 1281.97, 725.979)" x="1281.97" y="725.979">100</text>
</g>
<g clip-path="url(#clip9900)">
<text style="fill:#000000; fill-opacity:1; font-family:Arial,Helvetica Neue,Helvetica,sans-serif; font-size:48px; text-anchor:middle;" transform="rotate(0, 1772.34, 725.979)" x="1772.34" y="725.979">150</text>
</g>
<g clip-path="url(#clip9900)">
<text style="fill:#000000; fill-opacity:1; font-family:Arial,Helvetica Neue,Helvetica,sans-serif; font-size:48px; text-anchor:middle;" transform="rotate(0, 2262.71, 725.979)" x="2262.71" y="725.979">200</text>
</g>
<g clip-path="url(#clip9900)">
<text style="fill:#000000; fill-opacity:1; font-family:Arial,Helvetica Neue,Helvetica,sans-serif; font-size:48px; text-anchor:end;" transform="rotate(0, 228.496, 607.566)" x="228.496" y="607.566">-1.0</text>
</g>
<g clip-path="url(#clip9900)">
<text style="fill:#000000; fill-opacity:1; font-family:Arial,Helvetica Neue,Helvetica,sans-serif; font-size:48px; text-anchor:end;" transform="rotate(0, 228.496, 496.344)" x="228.496" y="496.344">-0.5</text>
</g>
<g clip-path="url(#clip9900)">
<text style="fill:#000000; fill-opacity:1; font-family:Arial,Helvetica Neue,Helvetica,sans-serif; font-size:48px; text-anchor:end;" transform="rotate(0, 228.496, 385.122)" x="228.496" y="385.122">0.0</text>
</g>
<g clip-path="url(#clip9900)">
<text style="fill:#000000; fill-opacity:1; font-family:Arial,Helvetica Neue,Helvetica,sans-serif; font-size:48px; text-anchor:end;" transform="rotate(0, 228.496, 273.9)" x="228.496" y="273.9">0.5</text>
</g>
<g clip-path="url(#clip9900)">
<text style="fill:#000000; fill-opacity:1; font-family:Arial,Helvetica Neue,Helvetica,sans-serif; font-size:48px; text-anchor:end;" transform="rotate(0, 228.496, 162.678)" x="228.496" y="162.678">1.0</text>
</g>
<g clip-path="url(#clip9900)">
<text style="fill:#000000; fill-opacity:1; font-family:Arial,Helvetica Neue,Helvetica,sans-serif; font-size:66px; text-anchor:middle;" transform="rotate(-90, 57.6, 359.611)" x="57.6" y="359.611">Value</text>
</g>
<polyline clip-path="url(#clip9902)" style="stroke:#000000; stroke-width:4; stroke-opacity:1; fill:none" points="
  311.046,64.9253 320.854,167.682 330.661,217.608 340.468,198.877 350.276,202.717 360.083,250.754 369.89,275.728 379.698,425.433 389.505,411.318 399.312,430.055 
  409.12,453.136 418.927,547.644 428.734,646.146 438.542,505.818 448.349,591.741 458.156,654.297 467.964,487.376 477.771,619.693 487.579,485.062 497.386,475.241 
  507.193,488.332 517.001,351.09 526.808,289.93 536.615,338.694 546.423,256.504 556.23,140.79 566.037,225.145 575.845,134.659 585.652,173.603 595.459,115.082 
  605.267,142.189 615.074,175.025 624.882,200.498 634.689,278.898 644.496,339.675 654.304,280.44 664.111,455.186 673.918,444.267 683.726,397.459 693.533,522.49 
  703.34,626.638 713.148,572.982 722.955,515.757 732.762,591.115 742.57,596.093 752.377,567.053 762.185,590.828 771.992,422.483 781.799,533.426 791.607,331.29 
  801.414,375.28 811.221,261.221 821.029,337.183 830.836,195.899 840.643,175.651 850.451,195.475 860.258,104.187 870.065,204.37 879.873,131.288 889.68,205.826 
  899.487,122.657 909.295,229.283 919.102,268.144 928.91,374.026 938.717,401.097 948.524,339.355 958.332,457.167 968.139,567.085 977.946,503.527 987.754,592.233 
  997.561,610.946 1007.37,527.86 1017.18,575.915 1026.98,589.701 1036.79,608.986 1046.6,503.711 1056.41,456.336 1066.21,444.989 1076.02,331.23 1085.83,291.641 
  1095.63,315.306 1105.44,234.201 1115.25,200.76 1125.06,184.044 1134.86,136.04 1144.67,106.038 1154.48,222.268 1164.29,138.458 1174.09,156.831 1183.9,270.791 
  1193.71,180.355 1203.52,302.012 1213.32,371.452 1223.13,439.449 1232.94,410.634 1242.74,524.591 1252.55,501.396 1262.36,537.123 1272.17,643.942 1281.97,568.069 
  1291.78,520.953 1301.59,600.329 1311.4,616.735 1321.2,469.613 1331.01,537.719 1340.82,387.358 1350.63,459.229 1360.43,364.719 1370.24,287.323 1380.05,187.93 
  1389.86,212.4 1399.66,254.37 1409.47,138.762 1419.28,181.644 1429.08,77.5917 1438.89,167.75 1448.7,188.586 1458.51,224.097 1468.31,161.31 1478.12,356.849 
  1487.93,340.013 1497.74,382.563 1507.54,341.59 1517.35,495.725 1527.16,546.876 1536.97,509.139 1546.77,632.443 1556.58,547.11 1566.39,575.764 1576.2,626.531 
  1586,570.463 1595.81,528.814 1605.62,494.533 1615.42,453.029 1625.23,374.615 1635.04,369.622 1644.85,385.841 1654.65,276.511 1664.46,176.603 1674.27,198.857 
  1684.08,238.321 1693.88,123.646 1703.69,166.623 1713.5,136.387 1723.31,109.907 1733.11,215.387 1742.92,267.562 1752.73,196.361 1762.53,307.351 1772.34,414.964 
  1782.15,327.638 1791.96,443.556 1801.76,502.457 1811.57,577.568 1821.38,595.518 1831.19,563.971 1840.99,565.054 1850.8,597.255 1860.61,559.497 1870.42,521.114 
  1880.22,592.734 1890.03,426.29 1899.84,462.587 1909.65,428.724 1919.45,318.495 1929.26,267.137 1939.07,257.721 1948.87,184.007 1958.68,170.458 1968.49,228.989 
  1978.3,111.365 1988.1,158.963 1997.91,176.361 2007.72,165.63 2017.53,211.576 2027.33,247.441 2037.14,225.512 2046.95,321.922 2056.76,434.432 2066.56,442.77 
  2076.37,480.223 2086.18,448.772 2095.98,577.68 2105.79,625.669 2115.6,512.658 2125.41,648.251 2135.21,595.081 2145.02,522.445 2154.83,557.911 2164.64,441.855 
  2174.44,511.272 2184.25,359.627 2194.06,425.418 2203.87,350.454 2213.67,185.652 2223.48,290.398 2233.29,139.47 2243.1,229.588 2252.9,133.804 2262.71,124.989 
  
  "/>
<path clip-path="url(#clip9900)" d="
M1971.81 251.724 L2249.26 251.724 L2249.26 130.764 L1971.81 130.764  Z
  " fill="#ffffff" fill-rule="evenodd" fill-opacity="1"/>
<polyline clip-path="url(#clip9900)" style="stroke:#000000; stroke-width:4; stroke-opacity:1; fill:none" points="
  1971.81,251.724 2249.26,251.724 2249.26,130.764 1971.81,130.764 1971.81,251.724 
  "/>
<polyline clip-path="url(#clip9900)" style="stroke:#000000; stroke-width:4; stroke-opacity:1; fill:none" points="
  1995.81,191.244 2139.81,191.244 
  "/>
<g clip-path="url(#clip9900)">
<text style="fill:#000000; fill-opacity:1; font-family:Arial,Helvetica Neue,Helvetica,sans-serif; font-size:48px; text-anchor:start;" transform="rotate(0, 2163.81, 208.744)" x="2163.81" y="208.744">ts</text>
</g>
<path clip-path="url(#clip9900)" d="
M252.496 1440.48 L2321.26 1440.48 L2321.26 815.748 L252.496 815.748  Z
  " fill="#ffffff" fill-rule="evenodd" fill-opacity="1"/>
<defs>
  <clipPath id="clip9903">
    <rect x="252" y="815" width="2070" height="626"/>
  </clipPath>
</defs>
<polyline clip-path="url(#clip9903)" style="stroke:#000000; stroke-width:2; stroke-opacity:0.1; fill:none" points="
  301.239,1440.48 301.239,815.748 
  "/>
<polyline clip-path="url(#clip9903)" style="stroke:#000000; stroke-width:2; stroke-opacity:0.1; fill:none" points="
  791.607,1440.48 791.607,815.748 
  "/>
<polyline clip-path="url(#clip9903)" style="stroke:#000000; stroke-width:2; stroke-opacity:0.1; fill:none" points="
  1281.97,1440.48 1281.97,815.748 
  "/>
<polyline clip-path="url(#clip9903)" style="stroke:#000000; stroke-width:2; stroke-opacity:0.1; fill:none" points="
  1772.34,1440.48 1772.34,815.748 
  "/>
<polyline clip-path="url(#clip9903)" style="stroke:#000000; stroke-width:2; stroke-opacity:0.1; fill:none" points="
  2262.71,1440.48 2262.71,815.748 
  "/>
<polyline clip-path="url(#clip9903)" style="stroke:#000000; stroke-width:2; stroke-opacity:0.1; fill:none" points="
  252.496,1358.57 2321.26,1358.57 
  "/>
<polyline clip-path="url(#clip9903)" style="stroke:#000000; stroke-width:2; stroke-opacity:0.1; fill:none" points="
  252.496,1247.35 2321.26,1247.35 
  "/>
<polyline clip-path="url(#clip9903)" style="stroke:#000000; stroke-width:2; stroke-opacity:0.1; fill:none" points="
  252.496,1136.13 2321.26,1136.13 
  "/>
<polyline clip-path="url(#clip9903)" style="stroke:#000000; stroke-width:2; stroke-opacity:0.1; fill:none" points="
  252.496,1024.9 2321.26,1024.9 
  "/>
<polyline clip-path="url(#clip9903)" style="stroke:#000000; stroke-width:2; stroke-opacity:0.1; fill:none" points="
  252.496,913.681 2321.26,913.681 
  "/>
<polyline clip-path="url(#clip9900)" style="stroke:#000000; stroke-width:4; stroke-opacity:1; fill:none" points="
  252.496,1440.48 2321.26,1440.48 
  "/>
<polyline clip-path="url(#clip9900)" style="stroke:#000000; stroke-width:4; stroke-opacity:1; fill:none" points="
  252.496,1440.48 252.496,815.748 
  "/>
<polyline clip-path="url(#clip9900)" style="stroke:#000000; stroke-width:4; stroke-opacity:1; fill:none" points="
  301.239,1440.48 301.239,1431.11 
  "/>
<polyline clip-path="url(#clip9900)" style="stroke:#000000; stroke-width:4; stroke-opacity:1; fill:none" points="
  791.607,1440.48 791.607,1431.11 
  "/>
<polyline clip-path="url(#clip9900)" style="stroke:#000000; stroke-width:4; stroke-opacity:1; fill:none" points="
  1281.97,1440.48 1281.97,1431.11 
  "/>
<polyline clip-path="url(#clip9900)" style="stroke:#000000; stroke-width:4; stroke-opacity:1; fill:none" points="
  1772.34,1440.48 1772.34,1431.11 
  "/>
<polyline clip-path="url(#clip9900)" style="stroke:#000000; stroke-width:4; stroke-opacity:1; fill:none" points="
  2262.71,1440.48 2262.71,1431.11 
  "/>
<polyline clip-path="url(#clip9900)" style="stroke:#000000; stroke-width:4; stroke-opacity:1; fill:none" points="
  252.496,1358.57 283.528,1358.57 
  "/>
<polyline clip-path="url(#clip9900)" style="stroke:#000000; stroke-width:4; stroke-opacity:1; fill:none" points="
  252.496,1247.35 283.528,1247.35 
  "/>
<polyline clip-path="url(#clip9900)" style="stroke:#000000; stroke-width:4; stroke-opacity:1; fill:none" points="
  252.496,1136.13 283.528,1136.13 
  "/>
<polyline clip-path="url(#clip9900)" style="stroke:#000000; stroke-width:4; stroke-opacity:1; fill:none" points="
  252.496,1024.9 283.528,1024.9 
  "/>
<polyline clip-path="url(#clip9900)" style="stroke:#000000; stroke-width:4; stroke-opacity:1; fill:none" points="
  252.496,913.681 283.528,913.681 
  "/>
<g clip-path="url(#clip9900)">
<text style="fill:#000000; fill-opacity:1; font-family:Arial,Helvetica Neue,Helvetica,sans-serif; font-size:48px; text-anchor:middle;" transform="rotate(0, 301.239, 1494.48)" x="301.239" y="1494.48">0</text>
</g>
<g clip-path="url(#clip9900)">
<text style="fill:#000000; fill-opacity:1; font-family:Arial,Helvetica Neue,Helvetica,sans-serif; font-size:48px; text-anchor:middle;" transform="rotate(0, 791.607, 1494.48)" x="791.607" y="1494.48">50</text>
</g>
<g clip-path="url(#clip9900)">
<text style="fill:#000000; fill-opacity:1; font-family:Arial,Helvetica Neue,Helvetica,sans-serif; font-size:48px; text-anchor:middle;" transform="rotate(0, 1281.97, 1494.48)" x="1281.97" y="1494.48">100</text>
</g>
<g clip-path="url(#clip9900)">
<text style="fill:#000000; fill-opacity:1; font-family:Arial,Helvetica Neue,Helvetica,sans-serif; font-size:48px; text-anchor:middle;" transform="rotate(0, 1772.34, 1494.48)" x="1772.34" y="1494.48">150</text>
</g>
<g clip-path="url(#clip9900)">
<text style="fill:#000000; fill-opacity:1; font-family:Arial,Helvetica Neue,Helvetica,sans-serif; font-size:48px; text-anchor:middle;" transform="rotate(0, 2262.71, 1494.48)" x="2262.71" y="1494.48">200</text>
</g>
<g clip-path="url(#clip9900)">
<text style="fill:#000000; fill-opacity:1; font-family:Arial,Helvetica Neue,Helvetica,sans-serif; font-size:48px; text-anchor:end;" transform="rotate(0, 228.496, 1376.07)" x="228.496" y="1376.07">-1.0</text>
</g>
<g clip-path="url(#clip9900)">
<text style="fill:#000000; fill-opacity:1; font-family:Arial,Helvetica Neue,Helvetica,sans-serif; font-size:48px; text-anchor:end;" transform="rotate(0, 228.496, 1264.85)" x="228.496" y="1264.85">-0.5</text>
</g>
<g clip-path="url(#clip9900)">
<text style="fill:#000000; fill-opacity:1; font-family:Arial,Helvetica Neue,Helvetica,sans-serif; font-size:48px; text-anchor:end;" transform="rotate(0, 228.496, 1153.63)" x="228.496" y="1153.63">0.0</text>
</g>
<g clip-path="url(#clip9900)">
<text style="fill:#000000; fill-opacity:1; font-family:Arial,Helvetica Neue,Helvetica,sans-serif; font-size:48px; text-anchor:end;" transform="rotate(0, 228.496, 1042.4)" x="228.496" y="1042.4">0.5</text>
</g>
<g clip-path="url(#clip9900)">
<text style="fill:#000000; fill-opacity:1; font-family:Arial,Helvetica Neue,Helvetica,sans-serif; font-size:48px; text-anchor:end;" transform="rotate(0, 228.496, 931.181)" x="228.496" y="931.181">1.0</text>
</g>
<g clip-path="url(#clip9900)">
<text style="fill:#000000; fill-opacity:1; font-family:Arial,Helvetica Neue,Helvetica,sans-serif; font-size:66px; text-anchor:middle;" transform="rotate(0, 1286.88, 1590.4)" x="1286.88" y="1590.4">Time step</text>
</g>
<g clip-path="url(#clip9900)">
<text style="fill:#000000; fill-opacity:1; font-family:Arial,Helvetica Neue,Helvetica,sans-serif; font-size:66px; text-anchor:middle;" transform="rotate(-90, 57.6, 1128.12)" x="57.6" y="1128.12">Value</text>
</g>
<polyline clip-path="url(#clip9903)" style="stroke:#009af9; stroke-width:4; stroke-opacity:1; fill:none" points="
  311.046,1022.87 320.854,944.155 330.661,1388.2 340.468,1197.23 350.276,1333.56 360.083,1029.72 369.89,969.002 379.698,1217.28 389.505,1212.77 399.312,967.361 
  409.12,1193.94 418.927,1359.62 428.734,1058.43 438.542,874.541 448.349,1301.93 458.156,909.293 467.964,943.529 477.771,1344.42 487.579,904.891 497.386,879.869 
  507.193,1243.75 517.001,1296.36 526.808,942.106 536.615,990.771 546.423,1227.73 556.23,1194.79 566.037,1305.63 575.845,1060.14 585.652,1344.27 595.459,1099.79 
  605.267,1263.04 615.074,1364.02 624.882,1332.47 634.689,1274.32 644.496,1346.18 654.304,948.859 664.111,1231.09 673.918,1414.65 683.726,944.865 693.533,954.156 
  703.34,1256.84 713.148,1183.47 722.955,997.787 732.762,1070.52 742.57,1039.29 752.377,902.308 762.185,1212.06 771.992,1096.14 781.799,936.186 791.607,1026.22 
  801.414,1290.99 811.221,1315.38 821.029,891.16 830.836,1210.36 840.643,1377.49 850.451,974.33 860.258,1179.14 870.065,992.601 879.873,1272.03 889.68,1363.59 
  899.487,1143.12 909.295,1255.88 919.102,1036.07 928.91,998.092 938.717,1412.45 948.524,883.586 958.332,1315.61 968.139,1264.23 977.946,957.09 987.754,1221.53 
  997.561,1143.78 1007.37,1269.9 1017.18,967.381 1026.98,1202.94 1036.79,964.865 1046.6,1198.56 1056.41,1139.96 1066.21,1006.83 1076.02,1169.6 1085.83,1025.01 
  1095.63,1083.81 1105.44,1119.59 1115.25,927.467 1125.06,1358.2 1134.86,1211.27 1144.67,963.979 1154.48,1193.92 1164.29,1272.21 1174.09,1154.35 1183.9,1238.12 
  1193.71,1207.95 1203.52,1165.96 1213.32,1289.46 1223.13,1290.95 1232.94,1047.4 1242.74,997.493 1252.55,1293.1 1262.36,1107.2 1272.17,1128.13 1281.97,1253.57 
  1291.78,971.221 1301.59,938.962 1311.4,1279.78 1321.2,1045.01 1331.01,969.263 1340.82,1142.53 1350.63,980.904 1360.43,980.08 1370.24,1118.96 1380.05,1179.82 
  1389.86,903.163 1399.66,1306.22 1409.47,1055.83 1419.28,1058.9 1429.08,1289.62 1438.89,1044.23 1448.7,1346.07 1458.51,1125.35 1468.31,1316.15 1478.12,929.814 
  1487.93,1361.24 1497.74,1326.42 1507.54,1087 1517.35,1048.94 1527.16,1099.73 1536.97,1395.14 1546.77,935.127 1556.58,1281.16 1566.39,936.253 1576.2,1190.99 
  1586,1225.67 1595.81,993.649 1605.62,950.148 1615.42,1221.64 1625.23,910.693 1635.04,904.544 1644.85,1213.49 1654.65,1248.73 1664.46,925.335 1674.27,1019.26 
  1684.08,1270.96 1693.88,986.112 1703.69,1155.86 1713.5,1138.13 1723.31,1110.09 1733.11,1360.25 1742.92,1277.64 1752.73,1107.86 1762.53,1075.86 1772.34,1364.6 
  1782.15,1360.74 1791.96,952.511 1801.76,1297.32 1811.57,899.792 1821.38,1400.95 1831.19,1328 1840.99,872.691 1850.8,1090.43 1860.61,1336.57 1870.42,1223.69 
  1880.22,945.107 1890.03,952.548 1899.84,878.411 1909.65,1338.97 1919.45,934.134 1929.26,1224.84 1939.07,906.962 1948.87,994.016 1958.68,1385.24 1968.49,907.973 
  1978.3,1379.45 1988.1,1365.76 1997.91,1015.94 2007.72,972.874 2017.53,1368.83 2027.33,1108.18 2037.14,1394.17 2046.95,1105.69 2056.76,1335.59 2066.56,1335.56 
  2076.37,1284.26 2086.18,1151.07 2095.98,964.403 2105.79,1416.75 2115.6,846.096 2125.41,1422.8 2135.21,833.429 2145.02,1341.49 2154.83,1133.22 2164.64,956.434 
  2174.44,892.15 2184.25,893.493 2194.06,1395.03 2203.87,983.891 2213.67,1108.52 2223.48,1036.65 2233.29,907.266 2243.1,1035.64 2252.9,1359.33 2262.71,1002.7 
  
  "/>
<path clip-path="url(#clip9900)" d="
M1859.47 1020.23 L2249.26 1020.23 L2249.26 899.268 L1859.47 899.268  Z
  " fill="#ffffff" fill-rule="evenodd" fill-opacity="1"/>
<polyline clip-path="url(#clip9900)" style="stroke:#000000; stroke-width:4; stroke-opacity:1; fill:none" points="
  1859.47,1020.23 2249.26,1020.23 2249.26,899.268 1859.47,899.268 1859.47,1020.23 
  "/>
<polyline clip-path="url(#clip9900)" style="stroke:#009af9; stroke-width:4; stroke-opacity:1; fill:none" points="
  1883.47,959.748 2027.47,959.748 
  "/>
<g clip-path="url(#clip9900)">
<text style="fill:#000000; fill-opacity:1; font-family:Arial,Helvetica Neue,Helvetica,sans-serif; font-size:48px; text-anchor:start;" transform="rotate(0, 2051.47, 977.248)" x="2051.47" y="977.248">aaft(ts)</text>
</g>
</svg>
