<?xml version="1.0" encoding="utf-8"?>
<svg xmlns="http://www.w3.org/2000/svg" xmlns:xlink="http://www.w3.org/1999/xlink" width="600" height="400" viewBox="0 0 2400 1600">
<defs>
  <clipPath id="clip3500">
    <rect x="0" y="0" width="2400" height="1600"/>
  </clipPath>
</defs>
<path clip-path="url(#clip3500)" d="
M0 1600 L2400 1600 L2400 0 L0 0  Z
  " fill="#ffffff" fill-rule="evenodd" fill-opacity="1"/>
<defs>
  <clipPath id="clip3501">
    <rect x="480" y="0" width="1681" height="1600"/>
  </clipPath>
</defs>
<path clip-path="url(#clip3500)" d="
M215.754 1425.62 L2352.76 1425.62 L2352.76 47.2441 L215.754 47.2441  Z
  " fill="#ffffff" fill-rule="evenodd" fill-opacity="1"/>
<defs>
  <clipPath id="clip3502">
    <rect x="215" y="47" width="2138" height="1379"/>
  </clipPath>
</defs>
<polyline clip-path="url(#clip3502)" style="stroke:#000000; stroke-width:2; stroke-opacity:0.1; fill:none" points="
  234.234,1425.62 234.234,47.2441 
  "/>
<polyline clip-path="url(#clip3502)" style="stroke:#000000; stroke-width:2; stroke-opacity:0.1; fill:none" points="
  654.243,1425.62 654.243,47.2441 
  "/>
<polyline clip-path="url(#clip3502)" style="stroke:#000000; stroke-width:2; stroke-opacity:0.1; fill:none" points="
  1074.25,1425.62 1074.25,47.2441 
  "/>
<polyline clip-path="url(#clip3502)" style="stroke:#000000; stroke-width:2; stroke-opacity:0.1; fill:none" points="
  1494.26,1425.62 1494.26,47.2441 
  "/>
<polyline clip-path="url(#clip3502)" style="stroke:#000000; stroke-width:2; stroke-opacity:0.1; fill:none" points="
  1914.27,1425.62 1914.27,47.2441 
  "/>
<polyline clip-path="url(#clip3502)" style="stroke:#000000; stroke-width:2; stroke-opacity:0.1; fill:none" points="
  2334.28,1425.62 2334.28,47.2441 
  "/>
<polyline clip-path="url(#clip3502)" style="stroke:#000000; stroke-width:2; stroke-opacity:0.1; fill:none" points="
  215.754,1386.61 2352.76,1386.61 
  "/>
<polyline clip-path="url(#clip3502)" style="stroke:#000000; stroke-width:2; stroke-opacity:0.1; fill:none" points="
  215.754,1073.9 2352.76,1073.9 
  "/>
<polyline clip-path="url(#clip3502)" style="stroke:#000000; stroke-width:2; stroke-opacity:0.1; fill:none" points="
  215.754,761.202 2352.76,761.202 
  "/>
<polyline clip-path="url(#clip3502)" style="stroke:#000000; stroke-width:2; stroke-opacity:0.1; fill:none" points="
  215.754,448.499 2352.76,448.499 
  "/>
<polyline clip-path="url(#clip3502)" style="stroke:#000000; stroke-width:2; stroke-opacity:0.1; fill:none" points="
  215.754,135.796 2352.76,135.796 
  "/>
<polyline clip-path="url(#clip3500)" style="stroke:#000000; stroke-width:4; stroke-opacity:1; fill:none" points="
  215.754,1425.62 2352.76,1425.62 
  "/>
<polyline clip-path="url(#clip3500)" style="stroke:#000000; stroke-width:4; stroke-opacity:1; fill:none" points="
  215.754,1425.62 215.754,47.2441 
  "/>
<polyline clip-path="url(#clip3500)" style="stroke:#000000; stroke-width:4; stroke-opacity:1; fill:none" points="
  234.234,1425.62 234.234,1409.08 
  "/>
<polyline clip-path="url(#clip3500)" style="stroke:#000000; stroke-width:4; stroke-opacity:1; fill:none" points="
  654.243,1425.62 654.243,1409.08 
  "/>
<polyline clip-path="url(#clip3500)" style="stroke:#000000; stroke-width:4; stroke-opacity:1; fill:none" points="
  1074.25,1425.62 1074.25,1409.08 
  "/>
<polyline clip-path="url(#clip3500)" style="stroke:#000000; stroke-width:4; stroke-opacity:1; fill:none" points="
  1494.26,1425.62 1494.26,1409.08 
  "/>
<polyline clip-path="url(#clip3500)" style="stroke:#000000; stroke-width:4; stroke-opacity:1; fill:none" points="
  1914.27,1425.62 1914.27,1409.08 
  "/>
<polyline clip-path="url(#clip3500)" style="stroke:#000000; stroke-width:4; stroke-opacity:1; fill:none" points="
  2334.28,1425.62 2334.28,1409.08 
  "/>
<polyline clip-path="url(#clip3500)" style="stroke:#000000; stroke-width:4; stroke-opacity:1; fill:none" points="
  215.754,1386.61 241.398,1386.61 
  "/>
<polyline clip-path="url(#clip3500)" style="stroke:#000000; stroke-width:4; stroke-opacity:1; fill:none" points="
  215.754,1073.9 241.398,1073.9 
  "/>
<polyline clip-path="url(#clip3500)" style="stroke:#000000; stroke-width:4; stroke-opacity:1; fill:none" points="
  215.754,761.202 241.398,761.202 
  "/>
<polyline clip-path="url(#clip3500)" style="stroke:#000000; stroke-width:4; stroke-opacity:1; fill:none" points="
  215.754,448.499 241.398,448.499 
  "/>
<polyline clip-path="url(#clip3500)" style="stroke:#000000; stroke-width:4; stroke-opacity:1; fill:none" points="
  215.754,135.796 241.398,135.796 
  "/>
<g clip-path="url(#clip3500)">
<text style="fill:#000000; fill-opacity:1; font-family:Arial,Helvetica Neue,Helvetica,sans-serif; font-size:48px; text-anchor:middle;" transform="rotate(0, 234.234, 1479.62)" x="234.234" y="1479.62">0</text>
</g>
<g clip-path="url(#clip3500)">
<text style="fill:#000000; fill-opacity:1; font-family:Arial,Helvetica Neue,Helvetica,sans-serif; font-size:48px; text-anchor:middle;" transform="rotate(0, 654.243, 1479.62)" x="654.243" y="1479.62">10</text>
</g>
<g clip-path="url(#clip3500)">
<text style="fill:#000000; fill-opacity:1; font-family:Arial,Helvetica Neue,Helvetica,sans-serif; font-size:48px; text-anchor:middle;" transform="rotate(0, 1074.25, 1479.62)" x="1074.25" y="1479.62">20</text>
</g>
<g clip-path="url(#clip3500)">
<text style="fill:#000000; fill-opacity:1; font-family:Arial,Helvetica Neue,Helvetica,sans-serif; font-size:48px; text-anchor:middle;" transform="rotate(0, 1494.26, 1479.62)" x="1494.26" y="1479.62">30</text>
</g>
<g clip-path="url(#clip3500)">
<text style="fill:#000000; fill-opacity:1; font-family:Arial,Helvetica Neue,Helvetica,sans-serif; font-size:48px; text-anchor:middle;" transform="rotate(0, 1914.27, 1479.62)" x="1914.27" y="1479.62">40</text>
</g>
<g clip-path="url(#clip3500)">
<text style="fill:#000000; fill-opacity:1; font-family:Arial,Helvetica Neue,Helvetica,sans-serif; font-size:48px; text-anchor:middle;" transform="rotate(0, 2334.28, 1479.62)" x="2334.28" y="1479.62">50</text>
</g>
<g clip-path="url(#clip3500)">
<text style="fill:#000000; fill-opacity:1; font-family:Arial,Helvetica Neue,Helvetica,sans-serif; font-size:48px; text-anchor:end;" transform="rotate(0, 191.754, 1404.11)" x="191.754" y="1404.11">0.0</text>
</g>
<g clip-path="url(#clip3500)">
<text style="fill:#000000; fill-opacity:1; font-family:Arial,Helvetica Neue,Helvetica,sans-serif; font-size:48px; text-anchor:end;" transform="rotate(0, 191.754, 1091.4)" x="191.754" y="1091.4">0.2</text>
</g>
<g clip-path="url(#clip3500)">
<text style="fill:#000000; fill-opacity:1; font-family:Arial,Helvetica Neue,Helvetica,sans-serif; font-size:48px; text-anchor:end;" transform="rotate(0, 191.754, 778.702)" x="191.754" y="778.702">0.4</text>
</g>
<g clip-path="url(#clip3500)">
<text style="fill:#000000; fill-opacity:1; font-family:Arial,Helvetica Neue,Helvetica,sans-serif; font-size:48px; text-anchor:end;" transform="rotate(0, 191.754, 465.999)" x="191.754" y="465.999">0.6</text>
</g>
<g clip-path="url(#clip3500)">
<text style="fill:#000000; fill-opacity:1; font-family:Arial,Helvetica Neue,Helvetica,sans-serif; font-size:48px; text-anchor:end;" transform="rotate(0, 191.754, 153.296)" x="191.754" y="153.296">0.8</text>
</g>
<g clip-path="url(#clip3500)">
<text style="fill:#000000; fill-opacity:1; font-family:Arial,Helvetica Neue,Helvetica,sans-serif; font-size:66px; text-anchor:middle;" transform="rotate(0, 1284.25, 1559.48)" x="1284.25" y="1559.48"># subdivisions along each axis</text>
</g>
<g clip-path="url(#clip3500)">
<text style="fill:#000000; fill-opacity:1; font-family:Arial,Helvetica Neue,Helvetica,sans-serif; font-size:66px; text-anchor:middle;" transform="rotate(-90, 89.2861, 736.431)" x="89.2861" y="736.431">Transfer entropy (bits)</text>
</g>
<polyline clip-path="url(#clip3502)" style="stroke:#000000; stroke-width:4; stroke-opacity:1; fill:none" points="
  276.235,1386.61 360.237,1280.92 444.239,1028.6 528.24,877.052 612.242,713.519 696.243,552.125 780.245,413.867 864.247,357.072 948.248,336.416 1032.25,257.094 
  1116.25,221.436 1200.25,146.534 1284.25,157.268 1368.26,118.009 1452.26,197.791 1536.26,86.2547 1620.26,134.459 1704.26,151.989 1788.26,139.828 1872.27,194.051 
  1956.27,244.237 2040.27,294.757 2124.27,197.891 2208.27,280.259 2292.27,305.47 
  "/>
<polyline clip-path="url(#clip3502)" style="stroke:#ff0000; stroke-width:4; stroke-opacity:1; fill:none" points="
  276.235,1386.61 360.237,1382.3 444.239,1275.13 528.24,1313.5 612.242,1302.8 696.243,1273.51 780.245,1280.82 864.247,1186.33 948.248,1191.91 1032.25,1115.28 
  1116.25,1113.1 1200.25,1014.71 1284.25,972.671 1368.26,973.241 1452.26,835.624 1536.26,896.05 1620.26,925.476 1704.26,884.124 1788.26,865.262 1872.27,819.04 
  1956.27,790.956 2040.27,851.101 2124.27,785.011 2208.27,761.657 2292.27,817.735 
  "/>
<path clip-path="url(#clip3500)" d="
M1816.07 312.204 L2280.76 312.204 L2280.76 130.764 L1816.07 130.764  Z
  " fill="#ffffff" fill-rule="evenodd" fill-opacity="1"/>
<polyline clip-path="url(#clip3500)" style="stroke:#000000; stroke-width:4; stroke-opacity:1; fill:none" points="
  1816.07,312.204 2280.76,312.204 2280.76,130.764 1816.07,130.764 1816.07,312.204 
  "/>
<polyline clip-path="url(#clip3500)" style="stroke:#000000; stroke-width:4; stroke-opacity:1; fill:none" points="
  1840.07,191.244 1984.07,191.244 
  "/>
<g clip-path="url(#clip3500)">
<text style="fill:#000000; fill-opacity:1; font-family:Arial,Helvetica Neue,Helvetica,sans-serif; font-size:48px; text-anchor:start;" transform="rotate(0, 2008.07, 208.744)" x="2008.07" y="208.744">TE(x -&gt; y)</text>
</g>
<polyline clip-path="url(#clip3500)" style="stroke:#ff0000; stroke-width:4; stroke-opacity:1; fill:none" points="
  1840.07,251.724 1984.07,251.724 
  "/>
<g clip-path="url(#clip3500)">
<text style="fill:#000000; fill-opacity:1; font-family:Arial,Helvetica Neue,Helvetica,sans-serif; font-size:48px; text-anchor:start;" transform="rotate(0, 2008.07, 269.224)" x="2008.07" y="269.224">TE(y -&gt; x)</text>
</g>
</svg>
