<?xml version="1.0" encoding="utf-8"?>
<svg xmlns="http://www.w3.org/2000/svg" xmlns:xlink="http://www.w3.org/1999/xlink" width="600" height="400" viewBox="0 0 2400 1600">
<defs>
  <clipPath id="clip5600">
    <rect x="0" y="0" width="2000" height="2000"/>
  </clipPath>
</defs>
<defs>
  <clipPath id="clip5601">
    <rect x="0" y="0" width="2400" height="1600"/>
  </clipPath>
</defs>
<polygon clip-path="url(#clip5601)" points="
0,1600 2400,1600 2400,0 0,0 
  " fill="#ffffff" fill-rule="evenodd" fill-opacity="1"/>
<defs>
  <clipPath id="clip5602">
    <rect x="480" y="0" width="1681" height="1600"/>
  </clipPath>
</defs>
<polygon clip-path="url(#clip5601)" points="
252.496,671.979 2321.26,671.979 2321.26,47.2441 252.496,47.2441 
  " fill="#ffffff" fill-rule="evenodd" fill-opacity="1"/>
<defs>
  <clipPath id="clip5603">
    <rect x="252" y="47" width="2070" height="626"/>
  </clipPath>
</defs>
<polyline clip-path="url(#clip5603)" style="stroke:#000000; stroke-width:2; stroke-opacity:0.1; fill:none" points="
  298.035,671.979 298.035,47.2441 
  "/>
<polyline clip-path="url(#clip5603)" style="stroke:#000000; stroke-width:2; stroke-opacity:0.1; fill:none" points="
  948.59,671.979 948.59,47.2441 
  "/>
<polyline clip-path="url(#clip5603)" style="stroke:#000000; stroke-width:2; stroke-opacity:0.1; fill:none" points="
  1599.14,671.979 1599.14,47.2441 
  "/>
<polyline clip-path="url(#clip5603)" style="stroke:#000000; stroke-width:2; stroke-opacity:0.1; fill:none" points="
  2249.7,671.979 2249.7,47.2441 
  "/>
<polyline clip-path="url(#clip5603)" style="stroke:#000000; stroke-width:2; stroke-opacity:0.1; fill:none" points="
  252.496,654.694 2321.26,654.694 
  "/>
<polyline clip-path="url(#clip5603)" style="stroke:#000000; stroke-width:2; stroke-opacity:0.1; fill:none" points="
  252.496,502.367 2321.26,502.367 
  "/>
<polyline clip-path="url(#clip5603)" style="stroke:#000000; stroke-width:2; stroke-opacity:0.1; fill:none" points="
  252.496,350.041 2321.26,350.041 
  "/>
<polyline clip-path="url(#clip5603)" style="stroke:#000000; stroke-width:2; stroke-opacity:0.1; fill:none" points="
  252.496,197.714 2321.26,197.714 
  "/>
<polyline clip-path="url(#clip5601)" style="stroke:#000000; stroke-width:4; stroke-opacity:1; fill:none" points="
  252.496,671.979 2321.26,671.979 
  "/>
<polyline clip-path="url(#clip5601)" style="stroke:#000000; stroke-width:4; stroke-opacity:1; fill:none" points="
  252.496,671.979 252.496,47.2441 
  "/>
<polyline clip-path="url(#clip5601)" style="stroke:#000000; stroke-width:4; stroke-opacity:1; fill:none" points="
  298.035,671.979 298.035,662.608 
  "/>
<polyline clip-path="url(#clip5601)" style="stroke:#000000; stroke-width:4; stroke-opacity:1; fill:none" points="
  948.59,671.979 948.59,662.608 
  "/>
<polyline clip-path="url(#clip5601)" style="stroke:#000000; stroke-width:4; stroke-opacity:1; fill:none" points="
  1599.14,671.979 1599.14,662.608 
  "/>
<polyline clip-path="url(#clip5601)" style="stroke:#000000; stroke-width:4; stroke-opacity:1; fill:none" points="
  2249.7,671.979 2249.7,662.608 
  "/>
<polyline clip-path="url(#clip5601)" style="stroke:#000000; stroke-width:4; stroke-opacity:1; fill:none" points="
  252.496,654.694 283.528,654.694 
  "/>
<polyline clip-path="url(#clip5601)" style="stroke:#000000; stroke-width:4; stroke-opacity:1; fill:none" points="
  252.496,502.367 283.528,502.367 
  "/>
<polyline clip-path="url(#clip5601)" style="stroke:#000000; stroke-width:4; stroke-opacity:1; fill:none" points="
  252.496,350.041 283.528,350.041 
  "/>
<polyline clip-path="url(#clip5601)" style="stroke:#000000; stroke-width:4; stroke-opacity:1; fill:none" points="
  252.496,197.714 283.528,197.714 
  "/>
<g clip-path="url(#clip5601)">
<text style="fill:#000000; fill-opacity:1; font-family:Arial,Helvetica Neue,Helvetica,sans-serif; font-size:48px; text-anchor:middle;" transform="rotate(0, 298.035, 725.979)" x="298.035" y="725.979">0</text>
</g>
<g clip-path="url(#clip5601)">
<text style="fill:#000000; fill-opacity:1; font-family:Arial,Helvetica Neue,Helvetica,sans-serif; font-size:48px; text-anchor:middle;" transform="rotate(0, 948.59, 725.979)" x="948.59" y="725.979">50</text>
</g>
<g clip-path="url(#clip5601)">
<text style="fill:#000000; fill-opacity:1; font-family:Arial,Helvetica Neue,Helvetica,sans-serif; font-size:48px; text-anchor:middle;" transform="rotate(0, 1599.14, 725.979)" x="1599.14" y="725.979">100</text>
</g>
<g clip-path="url(#clip5601)">
<text style="fill:#000000; fill-opacity:1; font-family:Arial,Helvetica Neue,Helvetica,sans-serif; font-size:48px; text-anchor:middle;" transform="rotate(0, 2249.7, 725.979)" x="2249.7" y="725.979">150</text>
</g>
<g clip-path="url(#clip5601)">
<text style="fill:#000000; fill-opacity:1; font-family:Arial,Helvetica Neue,Helvetica,sans-serif; font-size:48px; text-anchor:end;" transform="rotate(0, 228.496, 672.194)" x="228.496" y="672.194">-1.0</text>
</g>
<g clip-path="url(#clip5601)">
<text style="fill:#000000; fill-opacity:1; font-family:Arial,Helvetica Neue,Helvetica,sans-serif; font-size:48px; text-anchor:end;" transform="rotate(0, 228.496, 519.867)" x="228.496" y="519.867">-0.5</text>
</g>
<g clip-path="url(#clip5601)">
<text style="fill:#000000; fill-opacity:1; font-family:Arial,Helvetica Neue,Helvetica,sans-serif; font-size:48px; text-anchor:end;" transform="rotate(0, 228.496, 367.541)" x="228.496" y="367.541">0.0</text>
</g>
<g clip-path="url(#clip5601)">
<text style="fill:#000000; fill-opacity:1; font-family:Arial,Helvetica Neue,Helvetica,sans-serif; font-size:48px; text-anchor:end;" transform="rotate(0, 228.496, 215.214)" x="228.496" y="215.214">0.5</text>
</g>
<g clip-path="url(#clip5601)">
<text style="fill:#000000; fill-opacity:1; font-family:Arial,Helvetica Neue,Helvetica,sans-serif; font-size:66px; text-anchor:middle;" transform="rotate(-90, 57.6, 359.611)" x="57.6" y="359.611">Value</text>
</g>
<polyline clip-path="url(#clip5603)" style="stroke:#000000; stroke-width:4; stroke-opacity:1; fill:none" points="
  311.046,68.8346 324.057,332.378 337.068,297.16 350.079,211.775 363.091,162.615 376.102,157.545 389.113,64.9253 402.124,283.615 415.135,155.357 428.146,188.526 
  441.157,189.942 454.168,96.5791 467.179,397.216 480.19,547.888 493.201,546.204 506.213,417.112 519.224,359.203 532.235,381.783 545.246,463.801 558.257,616.005 
  571.268,526.354 584.279,553.517 597.29,483.234 610.301,488.532 623.312,476.715 636.323,459.797 649.335,638.756 662.346,413.538 675.357,620.285 688.368,616.472 
  701.379,477.639 714.39,386.804 727.401,481.699 740.412,465.331 753.423,598.31 766.434,437.086 779.445,443.079 792.457,443.627 805.468,518.417 818.479,387.298 
  831.49,481.765 844.501,482.978 857.512,445.932 870.523,457.68 883.534,625.723 896.545,587.085 909.556,387.175 922.567,517.168 935.579,471.62 948.59,421.563 
  961.601,392.746 974.612,527.572 987.623,559.73 1000.63,545.331 1013.65,380.309 1026.66,464.504 1039.67,576.412 1052.68,625.289 1065.69,360.107 1078.7,390.348 
  1091.71,512.042 1104.72,428.853 1117.73,442.392 1130.74,529.233 1143.76,576.326 1156.77,374.149 1169.78,443.238 1182.79,533.573 1195.8,613.096 1208.81,478.96 
  1221.82,448.467 1234.83,497.562 1247.84,494.069 1260.86,511.048 1273.87,571.944 1286.88,649.659 1299.89,498.261 1312.9,493.556 1325.91,523.842 1338.92,535.042 
  1351.93,622.238 1364.94,560.865 1377.96,474.956 1390.97,630.285 1403.98,352.606 1416.99,359.59 1430,380.923 1443.01,474.153 1456.02,626.546 1469.03,614.978 
  1482.04,413.027 1495.06,598.25 1508.07,549.842 1521.08,580.379 1534.09,371.483 1547.1,422.914 1560.11,388.388 1573.12,492.35 1586.13,494.348 1599.14,453.858 
  1612.16,581.042 1625.17,611.23 1638.18,536.25 1651.19,576.237 1664.2,505.848 1677.21,631.385 1690.22,445.46 1703.23,507.335 1716.24,546.61 1729.26,413.567 
  1742.27,639.952 1755.28,563.537 1768.29,443.727 1781.3,454.321 1794.31,568.074 1807.32,426.534 1820.33,412.28 1833.34,603.955 1846.35,512.273 1859.37,605.668 
  1872.38,549.113 1885.39,575.423 1898.4,650.726 1911.41,385.5 1924.42,482.394 1937.43,411.793 1950.44,596.956 1963.45,488.63 1976.47,552.754 1989.48,483.732 
  2002.49,512.21 2015.5,426.182 2028.51,417.215 2041.52,651.147 2054.53,631.725 2067.54,386.297 2080.55,507.051 2093.57,618.632 2106.58,549.868 2119.59,449.778 
  2132.6,554.523 2145.61,350.533 2158.62,351.614 2171.63,355.417 2184.64,366.919 2197.65,419.388 2210.67,654.297 2223.68,352.731 2236.69,360.979 2249.7,395.503 
  2262.71,555.697 
  "/>
<polygon clip-path="url(#clip5601)" points="
1985.19,251.724 2249.26,251.724 2249.26,130.764 1985.19,130.764 
  " fill="#ffffff" fill-rule="evenodd" fill-opacity="1"/>
<polyline clip-path="url(#clip5601)" style="stroke:#000000; stroke-width:4; stroke-opacity:1; fill:none" points="
  1985.19,251.724 2249.26,251.724 2249.26,130.764 1985.19,130.764 1985.19,251.724 
  "/>
<polyline clip-path="url(#clip5601)" style="stroke:#000000; stroke-width:4; stroke-opacity:1; fill:none" points="
  2009.19,191.244 2153.19,191.244 
  "/>
<g clip-path="url(#clip5601)">
<text style="fill:#000000; fill-opacity:1; font-family:Arial,Helvetica Neue,Helvetica,sans-serif; font-size:48px; text-anchor:start;" transform="rotate(0, 2177.19, 208.744)" x="2177.19" y="208.744">x</text>
</g>
<polygon clip-path="url(#clip5601)" points="
252.496,1440.48 2321.26,1440.48 2321.26,815.748 252.496,815.748 
  " fill="#ffffff" fill-rule="evenodd" fill-opacity="1"/>
<defs>
  <clipPath id="clip5604">
    <rect x="252" y="815" width="2070" height="626"/>
  </clipPath>
</defs>
<polyline clip-path="url(#clip5604)" style="stroke:#000000; stroke-width:2; stroke-opacity:0.1; fill:none" points="
  298.035,1440.48 298.035,815.748 
  "/>
<polyline clip-path="url(#clip5604)" style="stroke:#000000; stroke-width:2; stroke-opacity:0.1; fill:none" points="
  948.59,1440.48 948.59,815.748 
  "/>
<polyline clip-path="url(#clip5604)" style="stroke:#000000; stroke-width:2; stroke-opacity:0.1; fill:none" points="
  1599.14,1440.48 1599.14,815.748 
  "/>
<polyline clip-path="url(#clip5604)" style="stroke:#000000; stroke-width:2; stroke-opacity:0.1; fill:none" points="
  2249.7,1440.48 2249.7,815.748 
  "/>
<polyline clip-path="url(#clip5604)" style="stroke:#000000; stroke-width:2; stroke-opacity:0.1; fill:none" points="
  252.496,1401 2321.26,1401 
  "/>
<polyline clip-path="url(#clip5604)" style="stroke:#000000; stroke-width:2; stroke-opacity:0.1; fill:none" points="
  252.496,1237.58 2321.26,1237.58 
  "/>
<polyline clip-path="url(#clip5604)" style="stroke:#000000; stroke-width:2; stroke-opacity:0.1; fill:none" points="
  252.496,1074.16 2321.26,1074.16 
  "/>
<polyline clip-path="url(#clip5604)" style="stroke:#000000; stroke-width:2; stroke-opacity:0.1; fill:none" points="
  252.496,910.732 2321.26,910.732 
  "/>
<polyline clip-path="url(#clip5601)" style="stroke:#000000; stroke-width:4; stroke-opacity:1; fill:none" points="
  252.496,1440.48 2321.26,1440.48 
  "/>
<polyline clip-path="url(#clip5601)" style="stroke:#000000; stroke-width:4; stroke-opacity:1; fill:none" points="
  252.496,1440.48 252.496,815.748 
  "/>
<polyline clip-path="url(#clip5601)" style="stroke:#000000; stroke-width:4; stroke-opacity:1; fill:none" points="
  298.035,1440.48 298.035,1431.11 
  "/>
<polyline clip-path="url(#clip5601)" style="stroke:#000000; stroke-width:4; stroke-opacity:1; fill:none" points="
  948.59,1440.48 948.59,1431.11 
  "/>
<polyline clip-path="url(#clip5601)" style="stroke:#000000; stroke-width:4; stroke-opacity:1; fill:none" points="
  1599.14,1440.48 1599.14,1431.11 
  "/>
<polyline clip-path="url(#clip5601)" style="stroke:#000000; stroke-width:4; stroke-opacity:1; fill:none" points="
  2249.7,1440.48 2249.7,1431.11 
  "/>
<polyline clip-path="url(#clip5601)" style="stroke:#000000; stroke-width:4; stroke-opacity:1; fill:none" points="
  252.496,1401 283.528,1401 
  "/>
<polyline clip-path="url(#clip5601)" style="stroke:#000000; stroke-width:4; stroke-opacity:1; fill:none" points="
  252.496,1237.58 283.528,1237.58 
  "/>
<polyline clip-path="url(#clip5601)" style="stroke:#000000; stroke-width:4; stroke-opacity:1; fill:none" points="
  252.496,1074.16 283.528,1074.16 
  "/>
<polyline clip-path="url(#clip5601)" style="stroke:#000000; stroke-width:4; stroke-opacity:1; fill:none" points="
  252.496,910.732 283.528,910.732 
  "/>
<g clip-path="url(#clip5601)">
<text style="fill:#000000; fill-opacity:1; font-family:Arial,Helvetica Neue,Helvetica,sans-serif; font-size:48px; text-anchor:middle;" transform="rotate(0, 298.035, 1494.48)" x="298.035" y="1494.48">0</text>
</g>
<g clip-path="url(#clip5601)">
<text style="fill:#000000; fill-opacity:1; font-family:Arial,Helvetica Neue,Helvetica,sans-serif; font-size:48px; text-anchor:middle;" transform="rotate(0, 948.59, 1494.48)" x="948.59" y="1494.48">50</text>
</g>
<g clip-path="url(#clip5601)">
<text style="fill:#000000; fill-opacity:1; font-family:Arial,Helvetica Neue,Helvetica,sans-serif; font-size:48px; text-anchor:middle;" transform="rotate(0, 1599.14, 1494.48)" x="1599.14" y="1494.48">100</text>
</g>
<g clip-path="url(#clip5601)">
<text style="fill:#000000; fill-opacity:1; font-family:Arial,Helvetica Neue,Helvetica,sans-serif; font-size:48px; text-anchor:middle;" transform="rotate(0, 2249.7, 1494.48)" x="2249.7" y="1494.48">150</text>
</g>
<g clip-path="url(#clip5601)">
<text style="fill:#000000; fill-opacity:1; font-family:Arial,Helvetica Neue,Helvetica,sans-serif; font-size:48px; text-anchor:end;" transform="rotate(0, 228.496, 1418.5)" x="228.496" y="1418.5">-4</text>
</g>
<g clip-path="url(#clip5601)">
<text style="fill:#000000; fill-opacity:1; font-family:Arial,Helvetica Neue,Helvetica,sans-serif; font-size:48px; text-anchor:end;" transform="rotate(0, 228.496, 1255.08)" x="228.496" y="1255.08">-2</text>
</g>
<g clip-path="url(#clip5601)">
<text style="fill:#000000; fill-opacity:1; font-family:Arial,Helvetica Neue,Helvetica,sans-serif; font-size:48px; text-anchor:end;" transform="rotate(0, 228.496, 1091.66)" x="228.496" y="1091.66">0</text>
</g>
<g clip-path="url(#clip5601)">
<text style="fill:#000000; fill-opacity:1; font-family:Arial,Helvetica Neue,Helvetica,sans-serif; font-size:48px; text-anchor:end;" transform="rotate(0, 228.496, 928.232)" x="228.496" y="928.232">2</text>
</g>
<g clip-path="url(#clip5601)">
<text style="fill:#000000; fill-opacity:1; font-family:Arial,Helvetica Neue,Helvetica,sans-serif; font-size:66px; text-anchor:middle;" transform="rotate(0, 1286.88, 1590.4)" x="1286.88" y="1590.4">Time step</text>
</g>
<g clip-path="url(#clip5601)">
<text style="fill:#000000; fill-opacity:1; font-family:Arial,Helvetica Neue,Helvetica,sans-serif; font-size:66px; text-anchor:middle;" transform="rotate(-90, 57.6, 1128.12)" x="57.6" y="1128.12">Value</text>
</g>
<polyline clip-path="url(#clip5604)" style="stroke:#009af9; stroke-width:4; stroke-opacity:1; fill:none" points="
  311.046,876.793 324.057,1118.29 337.068,1098.79 350.079,980.276 363.091,974.634 376.102,1012.03 389.113,833.429 402.124,1003.23 415.135,934.678 428.146,950.554 
  441.157,1009.2 454.168,851.046 467.179,1162.1 480.19,1321.52 493.201,1315.82 506.213,1139.68 519.224,1101.98 532.235,1094.2 545.246,1212.77 558.257,1342.79 
  571.268,1278.35 584.279,1294.26 597.29,1206.44 610.301,1158.46 623.312,1219.35 636.323,1207.57 649.335,1330.89 662.346,1157.85 675.357,1341.8 688.368,1347.02 
  701.379,1230.88 714.39,1106.26 727.401,1185.38 740.412,1222.35 753.423,1298.38 766.434,1147.61 779.445,1161.63 792.457,1225.73 805.468,1306.36 818.479,1115.18 
  831.49,1207.55 844.501,1224.47 857.512,1140.48 870.523,1158.44 883.534,1320.31 896.545,1336.05 909.556,1166.44 922.567,1274.31 935.579,1171.35 948.59,1251.49 
  961.601,1211.79 974.612,1290.6 987.623,1293.22 1000.63,1343.8 1013.65,1165.09 1026.66,1264.03 1039.67,1356.63 1052.68,1422.8 1065.69,1191.12 1078.7,1214.82 
  1091.71,1276.07 1104.72,1194.35 1117.73,1226.93 1130.74,1321.65 1143.76,1308.3 1156.77,1101.19 1169.78,1228.16 1182.79,1252.9 1195.8,1315.49 1208.81,1155.12 
  1221.82,1138.63 1234.83,1209.45 1247.84,1203.52 1260.86,1156.2 1273.87,1244.18 1286.88,1300.87 1299.89,1218.31 1312.9,1180.78 1325.91,1153.41 1338.92,1152.76 
  1351.93,1275.78 1364.94,1206.34 1377.96,1241.82 1390.97,1298.41 1403.98,1029.61 1416.99,1063.45 1430,1133.58 1443.01,1189.45 1456.02,1285.42 1469.03,1261.82 
  1482.04,1145 1495.06,1308.2 1508.07,1303.34 1521.08,1241.96 1534.09,1126.49 1547.1,1173.78 1560.11,1192.35 1573.12,1211.11 1586.13,1259.11 1599.14,1247.44 
  1612.16,1331.56 1625.17,1383.81 1638.18,1351.09 1651.19,1358.58 1664.2,1270.21 1677.21,1384.14 1690.22,1228.46 1703.23,1397.77 1716.24,1342.02 1729.26,1180.16 
  1742.27,1410.8 1755.28,1359.37 1768.29,1227.49 1781.3,1229.73 1794.31,1292.85 1807.32,1200.38 1820.33,1160.1 1833.34,1315.85 1846.35,1235.99 1859.37,1277.29 
  1872.38,1238.73 1885.39,1284.36 1898.4,1324.24 1911.41,1073.74 1924.42,1112.09 1937.43,1131.95 1950.44,1305.04 1963.45,1209.71 1976.47,1233.47 1989.48,1204.86 
  2002.49,1230.31 2015.5,1220.93 2028.51,1119.6 2041.52,1360.86 2054.53,1343.14 2067.54,1167.37 2080.55,1212.76 2093.57,1348.75 2106.58,1266.52 2119.59,1217.89 
  2132.6,1330.89 2145.61,1129.67 2158.62,1093.98 2171.63,1134.37 2184.64,1160.65 2197.65,1205.96 2210.67,1376.35 2223.68,1127.42 2236.69,1076.03 2249.7,1093.94 
  2262.71,1246.91 
  "/>
<polygon clip-path="url(#clip5601)" points="
1557.24,1020.23 2249.26,1020.23 2249.26,899.268 1557.24,899.268 
  " fill="#ffffff" fill-rule="evenodd" fill-opacity="1"/>
<polyline clip-path="url(#clip5601)" style="stroke:#000000; stroke-width:4; stroke-opacity:1; fill:none" points="
  1557.24,1020.23 2249.26,1020.23 2249.26,899.268 1557.24,899.268 1557.24,1020.23 
  "/>
<polyline clip-path="url(#clip5601)" style="stroke:#009af9; stroke-width:4; stroke-opacity:1; fill:none" points="
  1581.24,959.748 1725.24,959.748 
  "/>
<g clip-path="url(#clip5601)">
<text style="fill:#000000; fill-opacity:1; font-family:Arial,Helvetica Neue,Helvetica,sans-serif; font-size:48px; text-anchor:start;" transform="rotate(0, 1749.24, 977.248)" x="1749.24" y="977.248">randomamplitudes(x)</text>
</g>
</svg>
