<?xml version="1.0" encoding="utf-8"?>
<svg xmlns="http://www.w3.org/2000/svg" xmlns:xlink="http://www.w3.org/1999/xlink" width="600" height="400" viewBox="0 0 2400 1600">
<defs>
  <clipPath id="clip4200">
    <rect x="0" y="0" width="2000" height="2000"/>
  </clipPath>
</defs>
<defs>
  <clipPath id="clip4201">
    <rect x="0" y="0" width="2400" height="1600"/>
  </clipPath>
</defs>
<polygon clip-path="url(#clip4201)" points="
0,1600 2400,1600 2400,0 0,0 
  " fill="#ffffff" fill-rule="evenodd" fill-opacity="1"/>
<defs>
  <clipPath id="clip4202">
    <rect x="480" y="0" width="1681" height="1600"/>
  </clipPath>
</defs>
<polygon clip-path="url(#clip4201)" points="
252.496,671.979 2321.26,671.979 2321.26,47.2441 252.496,47.2441 
  " fill="#ffffff" fill-rule="evenodd" fill-opacity="1"/>
<defs>
  <clipPath id="clip4203">
    <rect x="252" y="47" width="2070" height="626"/>
  </clipPath>
</defs>
<polyline clip-path="url(#clip4203)" style="stroke:#000000; stroke-width:2; stroke-opacity:0.1; fill:none" points="
  298.035,671.979 298.035,47.2441 
  "/>
<polyline clip-path="url(#clip4203)" style="stroke:#000000; stroke-width:2; stroke-opacity:0.1; fill:none" points="
  948.59,671.979 948.59,47.2441 
  "/>
<polyline clip-path="url(#clip4203)" style="stroke:#000000; stroke-width:2; stroke-opacity:0.1; fill:none" points="
  1599.14,671.979 1599.14,47.2441 
  "/>
<polyline clip-path="url(#clip4203)" style="stroke:#000000; stroke-width:2; stroke-opacity:0.1; fill:none" points="
  2249.7,671.979 2249.7,47.2441 
  "/>
<polyline clip-path="url(#clip4203)" style="stroke:#000000; stroke-width:2; stroke-opacity:0.1; fill:none" points="
  252.496,654.738 2321.26,654.738 
  "/>
<polyline clip-path="url(#clip4203)" style="stroke:#000000; stroke-width:2; stroke-opacity:0.1; fill:none" points="
  252.496,504.942 2321.26,504.942 
  "/>
<polyline clip-path="url(#clip4203)" style="stroke:#000000; stroke-width:2; stroke-opacity:0.1; fill:none" points="
  252.496,355.146 2321.26,355.146 
  "/>
<polyline clip-path="url(#clip4203)" style="stroke:#000000; stroke-width:2; stroke-opacity:0.1; fill:none" points="
  252.496,205.349 2321.26,205.349 
  "/>
<polyline clip-path="url(#clip4203)" style="stroke:#000000; stroke-width:2; stroke-opacity:0.1; fill:none" points="
  252.496,55.5525 2321.26,55.5525 
  "/>
<polyline clip-path="url(#clip4201)" style="stroke:#000000; stroke-width:4; stroke-opacity:1; fill:none" points="
  252.496,671.979 2321.26,671.979 
  "/>
<polyline clip-path="url(#clip4201)" style="stroke:#000000; stroke-width:4; stroke-opacity:1; fill:none" points="
  252.496,671.979 252.496,47.2441 
  "/>
<polyline clip-path="url(#clip4201)" style="stroke:#000000; stroke-width:4; stroke-opacity:1; fill:none" points="
  298.035,671.979 298.035,662.608 
  "/>
<polyline clip-path="url(#clip4201)" style="stroke:#000000; stroke-width:4; stroke-opacity:1; fill:none" points="
  948.59,671.979 948.59,662.608 
  "/>
<polyline clip-path="url(#clip4201)" style="stroke:#000000; stroke-width:4; stroke-opacity:1; fill:none" points="
  1599.14,671.979 1599.14,662.608 
  "/>
<polyline clip-path="url(#clip4201)" style="stroke:#000000; stroke-width:4; stroke-opacity:1; fill:none" points="
  2249.7,671.979 2249.7,662.608 
  "/>
<polyline clip-path="url(#clip4201)" style="stroke:#000000; stroke-width:4; stroke-opacity:1; fill:none" points="
  252.496,654.738 283.528,654.738 
  "/>
<polyline clip-path="url(#clip4201)" style="stroke:#000000; stroke-width:4; stroke-opacity:1; fill:none" points="
  252.496,504.942 283.528,504.942 
  "/>
<polyline clip-path="url(#clip4201)" style="stroke:#000000; stroke-width:4; stroke-opacity:1; fill:none" points="
  252.496,355.146 283.528,355.146 
  "/>
<polyline clip-path="url(#clip4201)" style="stroke:#000000; stroke-width:4; stroke-opacity:1; fill:none" points="
  252.496,205.349 283.528,205.349 
  "/>
<polyline clip-path="url(#clip4201)" style="stroke:#000000; stroke-width:4; stroke-opacity:1; fill:none" points="
  252.496,55.5525 283.528,55.5525 
  "/>
<g clip-path="url(#clip4201)">
<text style="fill:#000000; fill-opacity:1; font-family:Arial,Helvetica Neue,Helvetica,sans-serif; font-size:48px; text-anchor:middle;" transform="rotate(0, 298.035, 725.979)" x="298.035" y="725.979">0</text>
</g>
<g clip-path="url(#clip4201)">
<text style="fill:#000000; fill-opacity:1; font-family:Arial,Helvetica Neue,Helvetica,sans-serif; font-size:48px; text-anchor:middle;" transform="rotate(0, 948.59, 725.979)" x="948.59" y="725.979">50</text>
</g>
<g clip-path="url(#clip4201)">
<text style="fill:#000000; fill-opacity:1; font-family:Arial,Helvetica Neue,Helvetica,sans-serif; font-size:48px; text-anchor:middle;" transform="rotate(0, 1599.14, 725.979)" x="1599.14" y="725.979">100</text>
</g>
<g clip-path="url(#clip4201)">
<text style="fill:#000000; fill-opacity:1; font-family:Arial,Helvetica Neue,Helvetica,sans-serif; font-size:48px; text-anchor:middle;" transform="rotate(0, 2249.7, 725.979)" x="2249.7" y="725.979">150</text>
</g>
<g clip-path="url(#clip4201)">
<text style="fill:#000000; fill-opacity:1; font-family:Arial,Helvetica Neue,Helvetica,sans-serif; font-size:48px; text-anchor:end;" transform="rotate(0, 228.496, 672.238)" x="228.496" y="672.238">-1.0</text>
</g>
<g clip-path="url(#clip4201)">
<text style="fill:#000000; fill-opacity:1; font-family:Arial,Helvetica Neue,Helvetica,sans-serif; font-size:48px; text-anchor:end;" transform="rotate(0, 228.496, 522.442)" x="228.496" y="522.442">-0.5</text>
</g>
<g clip-path="url(#clip4201)">
<text style="fill:#000000; fill-opacity:1; font-family:Arial,Helvetica Neue,Helvetica,sans-serif; font-size:48px; text-anchor:end;" transform="rotate(0, 228.496, 372.646)" x="228.496" y="372.646">0.0</text>
</g>
<g clip-path="url(#clip4201)">
<text style="fill:#000000; fill-opacity:1; font-family:Arial,Helvetica Neue,Helvetica,sans-serif; font-size:48px; text-anchor:end;" transform="rotate(0, 228.496, 222.849)" x="228.496" y="222.849">0.5</text>
</g>
<g clip-path="url(#clip4201)">
<text style="fill:#000000; fill-opacity:1; font-family:Arial,Helvetica Neue,Helvetica,sans-serif; font-size:48px; text-anchor:end;" transform="rotate(0, 228.496, 73.0525)" x="228.496" y="73.0525">1.0</text>
</g>
<g clip-path="url(#clip4201)">
<text style="fill:#000000; fill-opacity:1; font-family:Arial,Helvetica Neue,Helvetica,sans-serif; font-size:66px; text-anchor:middle;" transform="rotate(-90, 57.6, 359.611)" x="57.6" y="359.611">Value</text>
</g>
<polyline clip-path="url(#clip4203)" style="stroke:#009af9; stroke-width:4; stroke-opacity:1; fill:none" points="
  311.046,309.805 324.057,224.996 337.068,184.129 350.079,64.9253 363.091,381.245 376.102,450.193 389.113,485.904 402.124,420.058 415.135,614.487 428.146,388.147 
  441.157,470.422 454.168,386.211 467.179,482.28 480.19,368.926 493.201,408.602 506.213,560.866 519.224,463.04 532.235,537.996 545.246,627.479 558.257,562.454 
  571.268,390.1 584.279,490.738 597.29,411.666 610.301,621.523 623.312,493.348 636.323,445.263 649.335,481.037 662.346,474.274 675.357,417.301 688.368,646.814 
  701.379,406.561 714.39,545.983 727.401,403.607 740.412,575.818 753.423,585.913 766.434,493.402 779.445,565.568 792.457,588.653 805.468,502.009 818.479,575.061 
  831.49,474.164 844.501,404.208 857.512,557.368 870.523,517.279 883.534,452.177 896.545,553.627 909.556,358.51 922.567,365.632 935.579,397.254 948.59,525.866 
  961.601,360.505 974.612,376.877 987.623,445.639 1000.63,485.217 1013.65,500.23 1026.66,607.86 1039.67,637.124 1052.68,500.59 1065.69,571.263 1078.7,458.011 
  1091.71,569.392 1104.72,421.925 1117.73,371.107 1130.74,413.306 1143.76,576.704 1156.77,378.369 1169.78,445.485 1182.79,525.651 1195.8,529.385 1208.81,550.48 
  1221.82,411.375 1234.83,585.06 1247.84,582.848 1260.86,386.053 1273.87,463.724 1286.88,614.475 1299.89,560.994 1312.9,473.726 1325.91,609.331 1338.92,388.263 
  1351.93,480.864 1364.94,654.297 1377.96,573.123 1390.97,499.642 1403.98,514.028 1416.99,596.889 1430,491.254 1443.01,552.552 1456.02,468.781 1469.03,381.421 
  1482.04,464.655 1495.06,576.783 1508.07,516.122 1521.08,371.167 1534.09,423.417 1547.1,391.531 1560.11,519.69 1573.12,479.399 1586.13,458.263 1599.14,593.705 
  1612.16,430.606 1625.17,362.128 1638.18,383.291 1651.19,467.564 1664.2,566.984 1677.21,571.539 1690.22,518.585 1703.23,607.567 1716.24,404.917 1729.26,569.962 
  1742.27,438.159 1755.28,458.406 1768.29,526.823 1781.3,451.238 1794.31,564.985 1807.32,585.73 1820.33,489.196 1833.34,525.413 1846.35,469.932 1859.37,588.966 
  1872.38,442.51 1885.39,425.497 1898.4,387.174 1911.41,474.488 1924.42,631.823 1937.43,509.813 1950.44,553.96 1963.45,426.274 1976.47,648.003 1989.48,454.208 
  2002.49,488.062 2015.5,521.78 2028.51,491.785 2041.52,526.11 2054.53,423.44 2067.54,627.984 2080.55,575.876 2093.57,513.386 2106.58,623.306 2119.59,647.78 
  2132.6,477.757 2145.61,633.153 2158.62,641.979 2171.63,609.183 2184.64,524.628 2197.65,420.994 2210.67,613.638 2223.68,458.481 2236.69,563.955 2249.7,578.893 
  2262.71,420.984 
  "/>
<polygon clip-path="url(#clip4201)" points="
1985.19,251.724 2249.26,251.724 2249.26,130.764 1985.19,130.764 
  " fill="#ffffff" fill-rule="evenodd" fill-opacity="1"/>
<polyline clip-path="url(#clip4201)" style="stroke:#000000; stroke-width:4; stroke-opacity:1; fill:none" points="
  1985.19,251.724 2249.26,251.724 2249.26,130.764 1985.19,130.764 1985.19,251.724 
  "/>
<polyline clip-path="url(#clip4201)" style="stroke:#009af9; stroke-width:4; stroke-opacity:1; fill:none" points="
  2009.19,191.244 2153.19,191.244 
  "/>
<g clip-path="url(#clip4201)">
<text style="fill:#000000; fill-opacity:1; font-family:Arial,Helvetica Neue,Helvetica,sans-serif; font-size:48px; text-anchor:start;" transform="rotate(0, 2177.19, 208.744)" x="2177.19" y="208.744">x</text>
</g>
<polygon clip-path="url(#clip4201)" points="
252.496,1440.48 2321.26,1440.48 2321.26,815.748 252.496,815.748 
  " fill="#ffffff" fill-rule="evenodd" fill-opacity="1"/>
<defs>
  <clipPath id="clip4204">
    <rect x="252" y="815" width="2070" height="626"/>
  </clipPath>
</defs>
<polyline clip-path="url(#clip4204)" style="stroke:#000000; stroke-width:2; stroke-opacity:0.1; fill:none" points="
  298.035,1440.48 298.035,815.748 
  "/>
<polyline clip-path="url(#clip4204)" style="stroke:#000000; stroke-width:2; stroke-opacity:0.1; fill:none" points="
  948.59,1440.48 948.59,815.748 
  "/>
<polyline clip-path="url(#clip4204)" style="stroke:#000000; stroke-width:2; stroke-opacity:0.1; fill:none" points="
  1599.14,1440.48 1599.14,815.748 
  "/>
<polyline clip-path="url(#clip4204)" style="stroke:#000000; stroke-width:2; stroke-opacity:0.1; fill:none" points="
  2249.7,1440.48 2249.7,815.748 
  "/>
<polyline clip-path="url(#clip4204)" style="stroke:#000000; stroke-width:2; stroke-opacity:0.1; fill:none" points="
  252.496,1345.64 2321.26,1345.64 
  "/>
<polyline clip-path="url(#clip4204)" style="stroke:#000000; stroke-width:2; stroke-opacity:0.1; fill:none" points="
  252.496,1234.37 2321.26,1234.37 
  "/>
<polyline clip-path="url(#clip4204)" style="stroke:#000000; stroke-width:2; stroke-opacity:0.1; fill:none" points="
  252.496,1123.1 2321.26,1123.1 
  "/>
<polyline clip-path="url(#clip4204)" style="stroke:#000000; stroke-width:2; stroke-opacity:0.1; fill:none" points="
  252.496,1011.83 2321.26,1011.83 
  "/>
<polyline clip-path="url(#clip4204)" style="stroke:#000000; stroke-width:2; stroke-opacity:0.1; fill:none" points="
  252.496,900.553 2321.26,900.553 
  "/>
<polyline clip-path="url(#clip4201)" style="stroke:#000000; stroke-width:4; stroke-opacity:1; fill:none" points="
  252.496,1440.48 2321.26,1440.48 
  "/>
<polyline clip-path="url(#clip4201)" style="stroke:#000000; stroke-width:4; stroke-opacity:1; fill:none" points="
  252.496,1440.48 252.496,815.748 
  "/>
<polyline clip-path="url(#clip4201)" style="stroke:#000000; stroke-width:4; stroke-opacity:1; fill:none" points="
  298.035,1440.48 298.035,1431.11 
  "/>
<polyline clip-path="url(#clip4201)" style="stroke:#000000; stroke-width:4; stroke-opacity:1; fill:none" points="
  948.59,1440.48 948.59,1431.11 
  "/>
<polyline clip-path="url(#clip4201)" style="stroke:#000000; stroke-width:4; stroke-opacity:1; fill:none" points="
  1599.14,1440.48 1599.14,1431.11 
  "/>
<polyline clip-path="url(#clip4201)" style="stroke:#000000; stroke-width:4; stroke-opacity:1; fill:none" points="
  2249.7,1440.48 2249.7,1431.11 
  "/>
<polyline clip-path="url(#clip4201)" style="stroke:#000000; stroke-width:4; stroke-opacity:1; fill:none" points="
  252.496,1345.64 283.528,1345.64 
  "/>
<polyline clip-path="url(#clip4201)" style="stroke:#000000; stroke-width:4; stroke-opacity:1; fill:none" points="
  252.496,1234.37 283.528,1234.37 
  "/>
<polyline clip-path="url(#clip4201)" style="stroke:#000000; stroke-width:4; stroke-opacity:1; fill:none" points="
  252.496,1123.1 283.528,1123.1 
  "/>
<polyline clip-path="url(#clip4201)" style="stroke:#000000; stroke-width:4; stroke-opacity:1; fill:none" points="
  252.496,1011.83 283.528,1011.83 
  "/>
<polyline clip-path="url(#clip4201)" style="stroke:#000000; stroke-width:4; stroke-opacity:1; fill:none" points="
  252.496,900.553 283.528,900.553 
  "/>
<g clip-path="url(#clip4201)">
<text style="fill:#000000; fill-opacity:1; font-family:Arial,Helvetica Neue,Helvetica,sans-serif; font-size:48px; text-anchor:middle;" transform="rotate(0, 298.035, 1494.48)" x="298.035" y="1494.48">0</text>
</g>
<g clip-path="url(#clip4201)">
<text style="fill:#000000; fill-opacity:1; font-family:Arial,Helvetica Neue,Helvetica,sans-serif; font-size:48px; text-anchor:middle;" transform="rotate(0, 948.59, 1494.48)" x="948.59" y="1494.48">50</text>
</g>
<g clip-path="url(#clip4201)">
<text style="fill:#000000; fill-opacity:1; font-family:Arial,Helvetica Neue,Helvetica,sans-serif; font-size:48px; text-anchor:middle;" transform="rotate(0, 1599.14, 1494.48)" x="1599.14" y="1494.48">100</text>
</g>
<g clip-path="url(#clip4201)">
<text style="fill:#000000; fill-opacity:1; font-family:Arial,Helvetica Neue,Helvetica,sans-serif; font-size:48px; text-anchor:middle;" transform="rotate(0, 2249.7, 1494.48)" x="2249.7" y="1494.48">150</text>
</g>
<g clip-path="url(#clip4201)">
<text style="fill:#000000; fill-opacity:1; font-family:Arial,Helvetica Neue,Helvetica,sans-serif; font-size:48px; text-anchor:end;" transform="rotate(0, 228.496, 1363.14)" x="228.496" y="1363.14">0.00</text>
</g>
<g clip-path="url(#clip4201)">
<text style="fill:#000000; fill-opacity:1; font-family:Arial,Helvetica Neue,Helvetica,sans-serif; font-size:48px; text-anchor:end;" transform="rotate(0, 228.496, 1251.87)" x="228.496" y="1251.87">0.25</text>
</g>
<g clip-path="url(#clip4201)">
<text style="fill:#000000; fill-opacity:1; font-family:Arial,Helvetica Neue,Helvetica,sans-serif; font-size:48px; text-anchor:end;" transform="rotate(0, 228.496, 1140.6)" x="228.496" y="1140.6">0.50</text>
</g>
<g clip-path="url(#clip4201)">
<text style="fill:#000000; fill-opacity:1; font-family:Arial,Helvetica Neue,Helvetica,sans-serif; font-size:48px; text-anchor:end;" transform="rotate(0, 228.496, 1029.33)" x="228.496" y="1029.33">0.75</text>
</g>
<g clip-path="url(#clip4201)">
<text style="fill:#000000; fill-opacity:1; font-family:Arial,Helvetica Neue,Helvetica,sans-serif; font-size:48px; text-anchor:end;" transform="rotate(0, 228.496, 918.053)" x="228.496" y="918.053">1.00</text>
</g>
<g clip-path="url(#clip4201)">
<text style="fill:#000000; fill-opacity:1; font-family:Arial,Helvetica Neue,Helvetica,sans-serif; font-size:66px; text-anchor:middle;" transform="rotate(0, 1286.88, 1590.4)" x="1286.88" y="1590.4">Time step</text>
</g>
<g clip-path="url(#clip4201)">
<text style="fill:#000000; fill-opacity:1; font-family:Arial,Helvetica Neue,Helvetica,sans-serif; font-size:66px; text-anchor:middle;" transform="rotate(-90, 57.6, 1128.12)" x="57.6" y="1128.12">Value</text>
</g>
<polyline clip-path="url(#clip4204)" style="stroke:#009af9; stroke-width:4; stroke-opacity:1; fill:none" points="
  311.046,1227.84 324.057,1176.9 337.068,1161.72 350.079,971.937 363.091,1059.3 376.102,1045.76 389.113,1079.42 402.124,997.405 415.135,1198.73 428.146,1095.65 
  441.157,1159.74 454.168,1072.32 467.179,1422.8 480.19,1114.39 493.201,1287.97 506.213,1289.41 519.224,1166.09 532.235,1276.36 545.246,849.789 558.257,1063.25 
  571.268,833.429 584.279,954.047 597.29,1180.94 610.301,1189.54 623.312,1031.12 636.323,1228.2 649.335,1179.98 662.346,1232.47 675.357,989.407 688.368,924.867 
  701.379,1178.66 714.39,903.175 727.401,1148.52 740.412,1189.07 753.423,1025.84 766.434,1224.16 779.445,1178.14 792.457,1350.34 805.468,1111.32 818.479,1302.95 
  831.49,1184.49 844.501,1317.09 857.512,1204.31 870.523,1391.22 883.534,1253.47 896.545,1176.56 909.556,1155.74 922.567,1090.39 935.579,1114.33 948.59,1069.4 
  961.601,1104.46 974.612,1153.42 987.623,1101.88 1000.63,1029.8 1013.65,1159.98 1026.66,1076.53 1039.67,1040.73 1052.68,1114.01 1065.69,1105.86 1078.7,1150.85 
  1091.71,1154.12 1104.72,1174.72 1117.73,1178.71 1130.74,1152.02 1143.76,1206.9 1156.77,1160.77 1169.78,1166.94 1182.79,1115.25 1195.8,1102.37 1208.81,1147.71 
  1221.82,1114.32 1234.83,1185.91 1247.84,1149.77 1260.86,1211.87 1273.87,1191.09 1286.88,1212.19 1299.89,1217.9 1312.9,1114.05 1325.91,1129.62 1338.92,1100.39 
  1351.93,1131.58 1364.94,1053.47 1377.96,1244.78 1390.97,1131.83 1403.98,1186.97 1416.99,1151.52 1430,1162.84 1443.01,1149.84 1456.02,1059.48 1469.03,1211.45 
  1482.04,1139.74 1495.06,1141.8 1508.07,1145.02 1521.08,1218.54 1534.09,1081.48 1547.1,1119.16 1560.11,1037.98 1573.12,1223.91 1586.13,1191.54 1599.14,1092 
  1612.16,1251.27 1625.17,1158.14 1638.18,1162.35 1651.19,1308.84 1664.2,1164.14 1677.21,1187.51 1690.22,1118 1703.23,1149.71 1716.24,1132.64 1729.26,1190.65 
  1742.27,1032.77 1755.28,1161.94 1768.29,1036.89 1781.3,1355.48 1794.31,1220.92 1807.32,1093.06 1820.33,1187.27 1833.34,1098.71 1846.35,1110.96 1859.37,999.375 
  1872.38,1103.41 1885.39,976.733 1898.4,1105.05 1911.41,1178.59 1924.42,1313.99 1937.43,1204.62 1950.44,1184.12 1963.45,1225.65 1976.47,1075.8 1989.48,1144.42 
  2002.49,1308.91 2015.5,1267.61 2028.51,1333.84 2041.52,1153.53 2054.53,1361.12 2067.54,1264.98 2080.55,1255.64 2093.57,1085.87 2106.58,939.198 2119.59,995.158 
  2132.6,1117.39 2145.61,1263.6 2158.62,1244.05 2171.63,1185.69 2184.64,1300.61 2197.65,1269.14 2210.67,1167.6 2223.68,1008.17 2236.69,843.612 2249.7,1160.25 
  2262.71,1081.59 
  "/>
<polygon clip-path="url(#clip4201)" points="
1634.78,1020.23 2249.26,1020.23 2249.26,899.268 1634.78,899.268 
  " fill="#ffffff" fill-rule="evenodd" fill-opacity="1"/>
<polyline clip-path="url(#clip4201)" style="stroke:#000000; stroke-width:4; stroke-opacity:1; fill:none" points="
  1634.78,1020.23 2249.26,1020.23 2249.26,899.268 1634.78,899.268 1634.78,1020.23 
  "/>
<polyline clip-path="url(#clip4201)" style="stroke:#009af9; stroke-width:4; stroke-opacity:1; fill:none" points="
  1658.78,959.748 1802.78,959.748 
  "/>
<g clip-path="url(#clip4201)">
<text style="fill:#000000; fill-opacity:1; font-family:Arial,Helvetica Neue,Helvetica,sans-serif; font-size:48px; text-anchor:start;" transform="rotate(0, 1826.78, 977.248)" x="1826.78" y="977.248">randomphases(x)</text>
</g>
</svg>
