<?xml version="1.0" encoding="utf-8"?>
<svg xmlns="http://www.w3.org/2000/svg" xmlns:xlink="http://www.w3.org/1999/xlink" width="600" height="400" viewBox="0 0 2400 1600">
<defs>
  <clipPath id="clip9800">
    <rect x="0" y="0" width="2400" height="1600"/>
  </clipPath>
</defs>
<path clip-path="url(#clip9800)" d="
M0 1600 L2400 1600 L2400 0 L0 0  Z
  " fill="#ffffff" fill-rule="evenodd" fill-opacity="1"/>
<defs>
  <clipPath id="clip9801">
    <rect x="480" y="0" width="1681" height="1600"/>
  </clipPath>
</defs>
<path clip-path="url(#clip9800)" d="
M243.864 656.547 L2352.76 656.547 L2352.76 47.2441 L243.864 47.2441  Z
  " fill="#ffffff" fill-rule="evenodd" fill-opacity="1"/>
<defs>
  <clipPath id="clip9802">
    <rect x="243" y="47" width="2110" height="610"/>
  </clipPath>
</defs>
<polyline clip-path="url(#clip9802)" style="stroke:#000000; stroke-width:2; stroke-opacity:0.1; fill:none" points="
  293.552,656.547 293.552,47.2441 
  "/>
<polyline clip-path="url(#clip9802)" style="stroke:#000000; stroke-width:2; stroke-opacity:0.1; fill:none" points="
  793.432,656.547 793.432,47.2441 
  "/>
<polyline clip-path="url(#clip9802)" style="stroke:#000000; stroke-width:2; stroke-opacity:0.1; fill:none" points="
  1293.31,656.547 1293.31,47.2441 
  "/>
<polyline clip-path="url(#clip9802)" style="stroke:#000000; stroke-width:2; stroke-opacity:0.1; fill:none" points="
  1793.19,656.547 1793.19,47.2441 
  "/>
<polyline clip-path="url(#clip9802)" style="stroke:#000000; stroke-width:2; stroke-opacity:0.1; fill:none" points="
  2293.07,656.547 2293.07,47.2441 
  "/>
<polyline clip-path="url(#clip9802)" style="stroke:#000000; stroke-width:2; stroke-opacity:0.1; fill:none" points="
  243.864,556.77 2352.76,556.77 
  "/>
<polyline clip-path="url(#clip9802)" style="stroke:#000000; stroke-width:2; stroke-opacity:0.1; fill:none" points="
  243.864,450.272 2352.76,450.272 
  "/>
<polyline clip-path="url(#clip9802)" style="stroke:#000000; stroke-width:2; stroke-opacity:0.1; fill:none" points="
  243.864,343.775 2352.76,343.775 
  "/>
<polyline clip-path="url(#clip9802)" style="stroke:#000000; stroke-width:2; stroke-opacity:0.1; fill:none" points="
  243.864,237.277 2352.76,237.277 
  "/>
<polyline clip-path="url(#clip9802)" style="stroke:#000000; stroke-width:2; stroke-opacity:0.1; fill:none" points="
  243.864,130.78 2352.76,130.78 
  "/>
<polyline clip-path="url(#clip9800)" style="stroke:#000000; stroke-width:4; stroke-opacity:1; fill:none" points="
  243.864,656.547 2352.76,656.547 
  "/>
<polyline clip-path="url(#clip9800)" style="stroke:#000000; stroke-width:4; stroke-opacity:1; fill:none" points="
  243.864,656.547 243.864,47.2441 
  "/>
<polyline clip-path="url(#clip9800)" style="stroke:#000000; stroke-width:4; stroke-opacity:1; fill:none" points="
  293.552,656.547 293.552,647.407 
  "/>
<polyline clip-path="url(#clip9800)" style="stroke:#000000; stroke-width:4; stroke-opacity:1; fill:none" points="
  793.432,656.547 793.432,647.407 
  "/>
<polyline clip-path="url(#clip9800)" style="stroke:#000000; stroke-width:4; stroke-opacity:1; fill:none" points="
  1293.31,656.547 1293.31,647.407 
  "/>
<polyline clip-path="url(#clip9800)" style="stroke:#000000; stroke-width:4; stroke-opacity:1; fill:none" points="
  1793.19,656.547 1793.19,647.407 
  "/>
<polyline clip-path="url(#clip9800)" style="stroke:#000000; stroke-width:4; stroke-opacity:1; fill:none" points="
  2293.07,656.547 2293.07,647.407 
  "/>
<polyline clip-path="url(#clip9800)" style="stroke:#000000; stroke-width:4; stroke-opacity:1; fill:none" points="
  243.864,556.77 275.498,556.77 
  "/>
<polyline clip-path="url(#clip9800)" style="stroke:#000000; stroke-width:4; stroke-opacity:1; fill:none" points="
  243.864,450.272 275.498,450.272 
  "/>
<polyline clip-path="url(#clip9800)" style="stroke:#000000; stroke-width:4; stroke-opacity:1; fill:none" points="
  243.864,343.775 275.498,343.775 
  "/>
<polyline clip-path="url(#clip9800)" style="stroke:#000000; stroke-width:4; stroke-opacity:1; fill:none" points="
  243.864,237.277 275.498,237.277 
  "/>
<polyline clip-path="url(#clip9800)" style="stroke:#000000; stroke-width:4; stroke-opacity:1; fill:none" points="
  243.864,130.78 275.498,130.78 
  "/>
<g clip-path="url(#clip9800)">
<text style="fill:#000000; fill-opacity:1; font-family:Arial,Helvetica Neue,Helvetica,sans-serif; font-size:48px; text-anchor:middle;" transform="rotate(0, 293.552, 710.547)" x="293.552" y="710.547">0</text>
</g>
<g clip-path="url(#clip9800)">
<text style="fill:#000000; fill-opacity:1; font-family:Arial,Helvetica Neue,Helvetica,sans-serif; font-size:48px; text-anchor:middle;" transform="rotate(0, 793.432, 710.547)" x="793.432" y="710.547">50</text>
</g>
<g clip-path="url(#clip9800)">
<text style="fill:#000000; fill-opacity:1; font-family:Arial,Helvetica Neue,Helvetica,sans-serif; font-size:48px; text-anchor:middle;" transform="rotate(0, 1293.31, 710.547)" x="1293.31" y="710.547">100</text>
</g>
<g clip-path="url(#clip9800)">
<text style="fill:#000000; fill-opacity:1; font-family:Arial,Helvetica Neue,Helvetica,sans-serif; font-size:48px; text-anchor:middle;" transform="rotate(0, 1793.19, 710.547)" x="1793.19" y="710.547">150</text>
</g>
<g clip-path="url(#clip9800)">
<text style="fill:#000000; fill-opacity:1; font-family:Arial,Helvetica Neue,Helvetica,sans-serif; font-size:48px; text-anchor:middle;" transform="rotate(0, 2293.07, 710.547)" x="2293.07" y="710.547">200</text>
</g>
<g clip-path="url(#clip9800)">
<text style="fill:#000000; fill-opacity:1; font-family:Arial,Helvetica Neue,Helvetica,sans-serif; font-size:48px; text-anchor:end;" transform="rotate(0, 219.864, 574.27)" x="219.864" y="574.27">-1.0</text>
</g>
<g clip-path="url(#clip9800)">
<text style="fill:#000000; fill-opacity:1; font-family:Arial,Helvetica Neue,Helvetica,sans-serif; font-size:48px; text-anchor:end;" transform="rotate(0, 219.864, 467.772)" x="219.864" y="467.772">-0.5</text>
</g>
<g clip-path="url(#clip9800)">
<text style="fill:#000000; fill-opacity:1; font-family:Arial,Helvetica Neue,Helvetica,sans-serif; font-size:48px; text-anchor:end;" transform="rotate(0, 219.864, 361.275)" x="219.864" y="361.275">0.0</text>
</g>
<g clip-path="url(#clip9800)">
<text style="fill:#000000; fill-opacity:1; font-family:Arial,Helvetica Neue,Helvetica,sans-serif; font-size:48px; text-anchor:end;" transform="rotate(0, 219.864, 254.777)" x="219.864" y="254.777">0.5</text>
</g>
<g clip-path="url(#clip9800)">
<text style="fill:#000000; fill-opacity:1; font-family:Arial,Helvetica Neue,Helvetica,sans-serif; font-size:48px; text-anchor:end;" transform="rotate(0, 219.864, 148.28)" x="219.864" y="148.28">1.0</text>
</g>
<g clip-path="url(#clip9800)">
<text style="fill:#000000; fill-opacity:1; font-family:Arial,Helvetica Neue,Helvetica,sans-serif; font-size:66px; text-anchor:middle;" transform="rotate(-90, 89.2861, 351.895)" x="89.2861" y="351.895">Value</text>
</g>
<polyline clip-path="url(#clip9802)" style="stroke:#000000; stroke-width:4; stroke-opacity:1; fill:none" points="
  303.55,92.0763 313.547,95.1471 323.545,164.46 333.543,236.865 343.54,186.532 353.538,246.877 363.535,297.981 373.533,365.328 383.531,325.674 393.528,427.613 
  403.526,456.969 413.523,506.684 423.521,587.398 433.518,559.573 443.516,504.309 453.514,563.135 463.511,579.29 473.509,518.839 483.506,472.28 493.504,404.175 
  503.502,473.31 513.499,302.461 523.497,325.793 533.494,212.516 543.492,302.353 553.49,207.395 563.487,132.12 573.485,111.278 583.482,150.792 593.48,112.666 
  603.477,105.224 613.475,182.859 623.473,220.122 633.47,185.811 643.468,356.927 653.465,256.799 663.463,426.388 673.461,345.452 683.458,486.802 693.456,465.315 
  703.453,562.424 713.451,559.869 723.449,527.394 733.446,513.318 743.444,592.836 753.441,556.145 763.439,442.374 773.437,432.659 783.434,442.098 793.432,418.059 
  803.429,303.397 813.427,257.61 823.424,243.282 833.422,219.889 843.42,224.023 853.417,114.635 863.415,125.448 873.412,123.261 883.41,151.593 893.408,142.705 
  903.405,161.938 913.403,246.545 923.4,251.814 933.398,336.157 943.396,315.887 953.393,378.615 963.391,500.586 973.388,389.375 983.386,560.913 993.384,540.217 
  1003.38,503.933 1013.38,575.113 1023.38,566.127 1033.37,515.492 1043.37,584.712 1053.37,415.719 1063.37,480.861 1073.36,339.344 1083.36,434.201 1093.36,260.883 
  1103.36,251.714 1113.35,224.46 1123.35,141.458 1133.35,236.663 1143.35,69.6586 1153.34,123.207 1163.34,200.129 1173.34,140.535 1183.34,152.262 1193.34,220.502 
  1203.33,202.306 1213.33,270.186 1223.33,371.057 1233.33,370.426 1243.32,378.642 1253.32,484.516 1263.32,440.76 1273.32,511.577 1283.31,604.957 1293.31,497.073 
  1303.31,639.302 1313.31,530.264 1323.3,450.234 1333.3,557.084 1343.3,461.903 1353.3,369.307 1363.29,390.629 1373.29,331.197 1383.29,266.291 1393.29,216.829 
  1403.28,207.854 1413.28,160.34 1423.28,195.338 1433.28,121.513 1443.28,174.244 1453.27,136.912 1463.27,91.0962 1473.27,197.21 1483.27,242.072 1493.26,304.058 
  1503.26,224.152 1513.26,404.444 1523.26,433.922 1533.25,445.083 1543.25,473.635 1553.25,509.915 1563.25,498.917 1573.24,576.868 1583.24,563.488 1593.24,568.561 
  1603.24,468.974 1613.23,578.055 1623.23,407.703 1633.23,457.541 1643.23,384.356 1653.22,370.042 1663.22,272.023 1673.22,219.055 1683.22,228.63 1693.21,185.755 
  1703.21,152.4 1713.21,161.777 1723.21,147.257 1733.21,88.817 1743.2,142.448 1753.2,181.621 1763.2,268.452 1773.2,169.546 1783.19,335.49 1793.19,283.038 
  1803.19,406.269 1813.19,465.291 1823.18,412.811 1833.18,542.76 1843.18,523.474 1853.18,572.054 1863.17,517.309 1873.17,509.562 1883.17,554.384 1893.17,537.201 
  1903.16,502.775 1913.16,454.02 1923.16,405.993 1933.16,343.52 1943.15,335.066 1953.15,311.775 1963.15,244.205 1973.15,156.432 1983.14,171.367 1993.14,188.585 
  2003.14,64.4885 2013.14,174.521 2023.14,77.9547 2033.13,195.814 2043.13,158.978 2053.13,305 2063.13,268.884 2073.12,251.852 2083.12,416.147 2093.12,360.264 
  2103.12,460.058 2113.11,478.989 2123.11,512.263 2133.11,538.25 2143.11,549.789 2153.1,517.142 2163.1,597.529 2173.1,493.95 2183.1,578.992 2193.09,391.654 
  2203.09,461.055 2213.09,372.654 2223.09,397.072 2233.08,276.383 2243.08,200.168 2253.08,268.546 2263.08,197.367 2273.08,97.4914 2283.07,111.794 2293.07,110.563 
  
  "/>
<path clip-path="url(#clip9800)" d="
M2003.31 251.724 L2280.76 251.724 L2280.76 130.764 L2003.31 130.764  Z
  " fill="#ffffff" fill-rule="evenodd" fill-opacity="1"/>
<polyline clip-path="url(#clip9800)" style="stroke:#000000; stroke-width:4; stroke-opacity:1; fill:none" points="
  2003.31,251.724 2280.76,251.724 2280.76,130.764 2003.31,130.764 2003.31,251.724 
  "/>
<polyline clip-path="url(#clip9800)" style="stroke:#000000; stroke-width:4; stroke-opacity:1; fill:none" points="
  2027.31,191.244 2171.31,191.244 
  "/>
<g clip-path="url(#clip9800)">
<text style="fill:#000000; fill-opacity:1; font-family:Arial,Helvetica Neue,Helvetica,sans-serif; font-size:48px; text-anchor:start;" transform="rotate(0, 2195.31, 208.744)" x="2195.31" y="208.744">ts</text>
</g>
<path clip-path="url(#clip9800)" d="
M243.864 1425.62 L2352.76 1425.62 L2352.76 816.316 L243.864 816.316  Z
  " fill="#ffffff" fill-rule="evenodd" fill-opacity="1"/>
<defs>
  <clipPath id="clip9803">
    <rect x="243" y="816" width="2110" height="610"/>
  </clipPath>
</defs>
<polyline clip-path="url(#clip9803)" style="stroke:#000000; stroke-width:2; stroke-opacity:0.1; fill:none" points="
  293.552,1425.62 293.552,816.316 
  "/>
<polyline clip-path="url(#clip9803)" style="stroke:#000000; stroke-width:2; stroke-opacity:0.1; fill:none" points="
  793.432,1425.62 793.432,816.316 
  "/>
<polyline clip-path="url(#clip9803)" style="stroke:#000000; stroke-width:2; stroke-opacity:0.1; fill:none" points="
  1293.31,1425.62 1293.31,816.316 
  "/>
<polyline clip-path="url(#clip9803)" style="stroke:#000000; stroke-width:2; stroke-opacity:0.1; fill:none" points="
  1793.19,1425.62 1793.19,816.316 
  "/>
<polyline clip-path="url(#clip9803)" style="stroke:#000000; stroke-width:2; stroke-opacity:0.1; fill:none" points="
  2293.07,1425.62 2293.07,816.316 
  "/>
<polyline clip-path="url(#clip9803)" style="stroke:#000000; stroke-width:2; stroke-opacity:0.1; fill:none" points="
  243.864,1325.84 2352.76,1325.84 
  "/>
<polyline clip-path="url(#clip9803)" style="stroke:#000000; stroke-width:2; stroke-opacity:0.1; fill:none" points="
  243.864,1219.34 2352.76,1219.34 
  "/>
<polyline clip-path="url(#clip9803)" style="stroke:#000000; stroke-width:2; stroke-opacity:0.1; fill:none" points="
  243.864,1112.85 2352.76,1112.85 
  "/>
<polyline clip-path="url(#clip9803)" style="stroke:#000000; stroke-width:2; stroke-opacity:0.1; fill:none" points="
  243.864,1006.35 2352.76,1006.35 
  "/>
<polyline clip-path="url(#clip9803)" style="stroke:#000000; stroke-width:2; stroke-opacity:0.1; fill:none" points="
  243.864,899.852 2352.76,899.852 
  "/>
<polyline clip-path="url(#clip9800)" style="stroke:#000000; stroke-width:4; stroke-opacity:1; fill:none" points="
  243.864,1425.62 2352.76,1425.62 
  "/>
<polyline clip-path="url(#clip9800)" style="stroke:#000000; stroke-width:4; stroke-opacity:1; fill:none" points="
  243.864,1425.62 243.864,816.316 
  "/>
<polyline clip-path="url(#clip9800)" style="stroke:#000000; stroke-width:4; stroke-opacity:1; fill:none" points="
  293.552,1425.62 293.552,1416.48 
  "/>
<polyline clip-path="url(#clip9800)" style="stroke:#000000; stroke-width:4; stroke-opacity:1; fill:none" points="
  793.432,1425.62 793.432,1416.48 
  "/>
<polyline clip-path="url(#clip9800)" style="stroke:#000000; stroke-width:4; stroke-opacity:1; fill:none" points="
  1293.31,1425.62 1293.31,1416.48 
  "/>
<polyline clip-path="url(#clip9800)" style="stroke:#000000; stroke-width:4; stroke-opacity:1; fill:none" points="
  1793.19,1425.62 1793.19,1416.48 
  "/>
<polyline clip-path="url(#clip9800)" style="stroke:#000000; stroke-width:4; stroke-opacity:1; fill:none" points="
  2293.07,1425.62 2293.07,1416.48 
  "/>
<polyline clip-path="url(#clip9800)" style="stroke:#000000; stroke-width:4; stroke-opacity:1; fill:none" points="
  243.864,1325.84 275.498,1325.84 
  "/>
<polyline clip-path="url(#clip9800)" style="stroke:#000000; stroke-width:4; stroke-opacity:1; fill:none" points="
  243.864,1219.34 275.498,1219.34 
  "/>
<polyline clip-path="url(#clip9800)" style="stroke:#000000; stroke-width:4; stroke-opacity:1; fill:none" points="
  243.864,1112.85 275.498,1112.85 
  "/>
<polyline clip-path="url(#clip9800)" style="stroke:#000000; stroke-width:4; stroke-opacity:1; fill:none" points="
  243.864,1006.35 275.498,1006.35 
  "/>
<polyline clip-path="url(#clip9800)" style="stroke:#000000; stroke-width:4; stroke-opacity:1; fill:none" points="
  243.864,899.852 275.498,899.852 
  "/>
<g clip-path="url(#clip9800)">
<text style="fill:#000000; fill-opacity:1; font-family:Arial,Helvetica Neue,Helvetica,sans-serif; font-size:48px; text-anchor:middle;" transform="rotate(0, 293.552, 1479.62)" x="293.552" y="1479.62">0</text>
</g>
<g clip-path="url(#clip9800)">
<text style="fill:#000000; fill-opacity:1; font-family:Arial,Helvetica Neue,Helvetica,sans-serif; font-size:48px; text-anchor:middle;" transform="rotate(0, 793.432, 1479.62)" x="793.432" y="1479.62">50</text>
</g>
<g clip-path="url(#clip9800)">
<text style="fill:#000000; fill-opacity:1; font-family:Arial,Helvetica Neue,Helvetica,sans-serif; font-size:48px; text-anchor:middle;" transform="rotate(0, 1293.31, 1479.62)" x="1293.31" y="1479.62">100</text>
</g>
<g clip-path="url(#clip9800)">
<text style="fill:#000000; fill-opacity:1; font-family:Arial,Helvetica Neue,Helvetica,sans-serif; font-size:48px; text-anchor:middle;" transform="rotate(0, 1793.19, 1479.62)" x="1793.19" y="1479.62">150</text>
</g>
<g clip-path="url(#clip9800)">
<text style="fill:#000000; fill-opacity:1; font-family:Arial,Helvetica Neue,Helvetica,sans-serif; font-size:48px; text-anchor:middle;" transform="rotate(0, 2293.07, 1479.62)" x="2293.07" y="1479.62">200</text>
</g>
<g clip-path="url(#clip9800)">
<text style="fill:#000000; fill-opacity:1; font-family:Arial,Helvetica Neue,Helvetica,sans-serif; font-size:48px; text-anchor:end;" transform="rotate(0, 219.864, 1343.34)" x="219.864" y="1343.34">-1.0</text>
</g>
<g clip-path="url(#clip9800)">
<text style="fill:#000000; fill-opacity:1; font-family:Arial,Helvetica Neue,Helvetica,sans-serif; font-size:48px; text-anchor:end;" transform="rotate(0, 219.864, 1236.84)" x="219.864" y="1236.84">-0.5</text>
</g>
<g clip-path="url(#clip9800)">
<text style="fill:#000000; fill-opacity:1; font-family:Arial,Helvetica Neue,Helvetica,sans-serif; font-size:48px; text-anchor:end;" transform="rotate(0, 219.864, 1130.35)" x="219.864" y="1130.35">0.0</text>
</g>
<g clip-path="url(#clip9800)">
<text style="fill:#000000; fill-opacity:1; font-family:Arial,Helvetica Neue,Helvetica,sans-serif; font-size:48px; text-anchor:end;" transform="rotate(0, 219.864, 1023.85)" x="219.864" y="1023.85">0.5</text>
</g>
<g clip-path="url(#clip9800)">
<text style="fill:#000000; fill-opacity:1; font-family:Arial,Helvetica Neue,Helvetica,sans-serif; font-size:48px; text-anchor:end;" transform="rotate(0, 219.864, 917.352)" x="219.864" y="917.352">1.0</text>
</g>
<g clip-path="url(#clip9800)">
<text style="fill:#000000; fill-opacity:1; font-family:Arial,Helvetica Neue,Helvetica,sans-serif; font-size:66px; text-anchor:middle;" transform="rotate(0, 1298.31, 1559.48)" x="1298.31" y="1559.48">Time step</text>
</g>
<g clip-path="url(#clip9800)">
<text style="fill:#000000; fill-opacity:1; font-family:Arial,Helvetica Neue,Helvetica,sans-serif; font-size:66px; text-anchor:middle;" transform="rotate(-90, 89.2861, 1120.97)" x="89.2861" y="1120.97">Value</text>
</g>
<polyline clip-path="url(#clip9803)" style="stroke:#009af9; stroke-width:4; stroke-opacity:1; fill:none" points="
  303.55,940.439 313.547,892.279 323.545,928.05 333.543,910.53 343.54,985.901 353.538,1015.95 363.535,981.588 373.533,988.127 383.531,1129.34 393.528,1153.43 
  403.526,1175.06 413.523,1185.22 423.521,1255.87 433.518,1249.93 443.516,1329.99 453.514,1296.47 463.511,1309.29 473.509,1273.38 483.506,1348.06 493.504,1226.04 
  503.502,1211.45 513.499,1173.52 523.497,1159.7 533.494,1080.85 543.492,1026.68 553.49,1052.11 563.487,1011.14 573.485,901.192 583.482,971.378 593.48,920.665 
  603.477,860.168 613.475,880.35 623.473,950.693 633.47,1013.28 643.468,911.52 653.465,1035.36 663.463,1039.26 673.461,1158.45 683.458,1139.11 693.456,1147.71 
  703.453,1248.06 713.451,1263.02 723.449,1286.21 733.446,1292.55 743.444,1211.17 753.441,1374.03 763.439,1328.65 773.437,1273.01 783.434,1229.13 793.432,1196.68 
  803.429,1214.15 813.427,1041.09 823.424,1147.69 833.422,993.224 843.42,966.439 853.417,1020.92 863.415,938.618 873.412,954.883 883.41,847.027 893.408,890.585 
  903.405,894.52 913.403,919.864 923.4,1005.94 933.398,966.282 943.396,1067.05 953.393,1073.13 963.391,1166.14 973.388,1173.25 983.386,1195.46 993.384,1226.61 
  1003.38,1341.13 1013.38,1287.91 1023.38,1284.56 1033.37,1337.63 1043.37,1361.91 1053.37,1328.94 1063.37,1242.38 1073.36,1307.32 1083.36,1140.13 1093.36,1230.13 
  1103.36,1037.52 1113.35,1094.87 1123.35,976.467 1133.35,969.201 1143.35,921.472 1153.34,969.24 1163.34,857.889 1173.34,916.329 1183.34,861.148 1193.34,833.56 
  1203.33,976.926 1213.33,997.702 1223.33,957.657 1233.33,1037.96 1243.32,1126 1253.32,1138.38 1263.32,1175.34 1273.32,1202.99 1283.31,1278.99 1293.31,1353.78 
  1303.31,1331.5 1313.31,1234.39 1323.3,1408.37 1333.3,1325.22 1343.3,1323.46 1353.3,1306.27 1363.29,1266.15 1373.29,1184.79 1383.29,1203.27 1393.29,1029.95 
  1403.28,1020.79 1413.28,1074.07 1423.28,954.827 1433.28,921.334 1443.28,892.333 1453.27,964.41 1463.27,881.738 1473.27,909.607 1483.27,883.707 1493.26,989.194 
  1503.26,989.574 1513.26,988.961 1523.26,1084.96 1533.25,1108.42 1543.25,1105.23 1553.25,1280.65 1563.25,1234.36 1573.24,1299.34 1583.24,1344.19 1593.24,1332.21 
  1603.24,1347.13 1613.23,1286.38 1623.23,1366.6 1633.23,1241.35 1643.23,1223.09 1653.22,1242.71 1663.22,1160.73 1673.22,1104.56 1683.22,1112.59 1693.21,951.931 
  1703.21,1114.52 1713.21,879.635 1723.21,955.604 1733.21,864.219 1743.2,905.984 1753.2,874.296 1763.2,964.886 1773.2,933.532 1783.19,929.412 1793.19,1012.35 
  1803.19,1025.87 1813.19,1071.43 1823.18,1181.88 1833.18,1187.13 1843.18,1238.05 1853.18,1275.76 1863.17,1201.73 1873.17,1356.47 1883.17,1348.36 1893.17,1311.83 
  1903.16,1326.16 1913.16,1278.63 1923.16,1332.56 1933.16,1134.4 1943.15,1267.99 1953.15,1139.5 1963.15,1072.47 1973.15,1100.27 1983.14,993.532 1993.14,1015.62 
  2003.14,838.731 2013.14,931.01 2023.14,911.776 2033.13,866.563 2043.13,930.849 2053.13,880.866 2063.13,943.592 2073.12,925.504 2083.12,1045.46 2093.12,1020.89 
  2103.12,1141.73 2113.11,1094.75 2123.11,1209.83 2133.11,1230.98 2143.11,1269.66 2153.1,1271.85 2163.1,1335.2 2173.1,1282.39 2183.1,1345.94 2193.09,1318.86 
  2203.09,1281.33 2213.09,1253.59 2223.09,1219.31 2233.08,1104.14 2243.08,1176.77 2253.08,1071.53 2263.08,1037.62 2273.08,1005.73 2283.07,943.316 2293.07,993.095 
  
  "/>
<path clip-path="url(#clip9800)" d="
M1880.28 1020.8 L2280.76 1020.8 L2280.76 899.836 L1880.28 899.836  Z
  " fill="#ffffff" fill-rule="evenodd" fill-opacity="1"/>
<polyline clip-path="url(#clip9800)" style="stroke:#000000; stroke-width:4; stroke-opacity:1; fill:none" points="
  1880.28,1020.8 2280.76,1020.8 2280.76,899.836 1880.28,899.836 1880.28,1020.8 
  "/>
<polyline clip-path="url(#clip9800)" style="stroke:#009af9; stroke-width:4; stroke-opacity:1; fill:none" points="
  1904.28,960.316 2048.28,960.316 
  "/>
<g clip-path="url(#clip9800)">
<text style="fill:#000000; fill-opacity:1; font-family:Arial,Helvetica Neue,Helvetica,sans-serif; font-size:48px; text-anchor:start;" transform="rotate(0, 2072.28, 977.816)" x="2072.28" y="977.816">iaaft(ts)</text>
</g>
</svg>
