<?xml version="1.0" encoding="utf-8" standalone="no"?>
<!DOCTYPE svg PUBLIC "-//W3C//DTD SVG 1.1//EN"
  "http://www.w3.org/Graphics/SVG/1.1/DTD/svg11.dtd">
<!-- Created with matplotlib (https://matplotlib.org/) -->
<svg height="288pt" version="1.1" viewBox="0 0 432 288" width="432pt" xmlns="http://www.w3.org/2000/svg" xmlns:xlink="http://www.w3.org/1999/xlink">
 <defs>
  <style type="text/css">
*{stroke-linecap:butt;stroke-linejoin:round;}
  </style>
 </defs>
 <g id="figure_1">
  <g id="patch_1">
   <path d="M 0 288 
L 432 288 
L 432 0 
L 0 0 
z
" style="fill:#ffffff;"/>
  </g>
  <g id="axes_1">
   <g id="patch_2">
    <path d="M 36.614646 123.065354 
L 429.165354 123.065354 
L 429.165354 2.834646 
L 36.614646 2.834646 
z
" style="fill:#ffffff;"/>
   </g>
   <g id="matplotlib.axis_1">
    <g id="xtick_1">
     <g id="line2d_1">
      <path clip-path="url(#p9b5bd81b47)" d="M 45.863612 123.065354 
L 45.863612 2.834646 
" style="fill:none;stroke:#000000;stroke-linecap:square;stroke-opacity:0.1;stroke-width:0.5;"/>
     </g>
     <g id="line2d_2">
      <defs>
       <path d="M 0 0 
L 0 -3.5 
" id="mff249897de" style="stroke:#000000;stroke-width:0.8;"/>
      </defs>
      <g>
       <use style="stroke:#000000;stroke-width:0.8;" x="45.863612" xlink:href="#mff249897de" y="123.065354"/>
      </g>
     </g>
     <g id="text_1">
      <!-- 0 -->
      <defs>
       <path d="M 31.78125 66.40625 
Q 24.171875 66.40625 20.328125 58.90625 
Q 16.5 51.421875 16.5 36.375 
Q 16.5 21.390625 20.328125 13.890625 
Q 24.171875 6.390625 31.78125 6.390625 
Q 39.453125 6.390625 43.28125 13.890625 
Q 47.125 21.390625 47.125 36.375 
Q 47.125 51.421875 43.28125 58.90625 
Q 39.453125 66.40625 31.78125 66.40625 
z
M 31.78125 74.21875 
Q 44.046875 74.21875 50.515625 64.515625 
Q 56.984375 54.828125 56.984375 36.375 
Q 56.984375 17.96875 50.515625 8.265625 
Q 44.046875 -1.421875 31.78125 -1.421875 
Q 19.53125 -1.421875 13.0625 8.265625 
Q 6.59375 17.96875 6.59375 36.375 
Q 6.59375 54.828125 13.0625 64.515625 
Q 19.53125 74.21875 31.78125 74.21875 
z
" id="DejaVuSans-48"/>
      </defs>
      <g transform="translate(43.318612 132.644104)scale(0.08 -0.08)">
       <use xlink:href="#DejaVuSans-48"/>
      </g>
     </g>
    </g>
    <g id="xtick_2">
     <g id="line2d_3">
      <path clip-path="url(#p9b5bd81b47)" d="M 138.911566 123.065354 
L 138.911566 2.834646 
" style="fill:none;stroke:#000000;stroke-linecap:square;stroke-opacity:0.1;stroke-width:0.5;"/>
     </g>
     <g id="line2d_4">
      <g>
       <use style="stroke:#000000;stroke-width:0.8;" x="138.911566" xlink:href="#mff249897de" y="123.065354"/>
      </g>
     </g>
     <g id="text_2">
      <!-- 50 -->
      <defs>
       <path d="M 10.796875 72.90625 
L 49.515625 72.90625 
L 49.515625 64.59375 
L 19.828125 64.59375 
L 19.828125 46.734375 
Q 21.96875 47.46875 24.109375 47.828125 
Q 26.265625 48.1875 28.421875 48.1875 
Q 40.625 48.1875 47.75 41.5 
Q 54.890625 34.8125 54.890625 23.390625 
Q 54.890625 11.625 47.5625 5.09375 
Q 40.234375 -1.421875 26.90625 -1.421875 
Q 22.3125 -1.421875 17.546875 -0.640625 
Q 12.796875 0.140625 7.71875 1.703125 
L 7.71875 11.625 
Q 12.109375 9.234375 16.796875 8.0625 
Q 21.484375 6.890625 26.703125 6.890625 
Q 35.15625 6.890625 40.078125 11.328125 
Q 45.015625 15.765625 45.015625 23.390625 
Q 45.015625 31 40.078125 35.4375 
Q 35.15625 39.890625 26.703125 39.890625 
Q 22.75 39.890625 18.8125 39.015625 
Q 14.890625 38.140625 10.796875 36.28125 
z
" id="DejaVuSans-53"/>
      </defs>
      <g transform="translate(133.821566 132.644104)scale(0.08 -0.08)">
       <use xlink:href="#DejaVuSans-53"/>
       <use x="63.623047" xlink:href="#DejaVuSans-48"/>
      </g>
     </g>
    </g>
    <g id="xtick_3">
     <g id="line2d_5">
      <path clip-path="url(#p9b5bd81b47)" d="M 231.95952 123.065354 
L 231.95952 2.834646 
" style="fill:none;stroke:#000000;stroke-linecap:square;stroke-opacity:0.1;stroke-width:0.5;"/>
     </g>
     <g id="line2d_6">
      <g>
       <use style="stroke:#000000;stroke-width:0.8;" x="231.95952" xlink:href="#mff249897de" y="123.065354"/>
      </g>
     </g>
     <g id="text_3">
      <!-- 100 -->
      <defs>
       <path d="M 12.40625 8.296875 
L 28.515625 8.296875 
L 28.515625 63.921875 
L 10.984375 60.40625 
L 10.984375 69.390625 
L 28.421875 72.90625 
L 38.28125 72.90625 
L 38.28125 8.296875 
L 54.390625 8.296875 
L 54.390625 0 
L 12.40625 0 
z
" id="DejaVuSans-49"/>
      </defs>
      <g transform="translate(224.32452 132.644104)scale(0.08 -0.08)">
       <use xlink:href="#DejaVuSans-49"/>
       <use x="63.623047" xlink:href="#DejaVuSans-48"/>
       <use x="127.246094" xlink:href="#DejaVuSans-48"/>
      </g>
     </g>
    </g>
    <g id="xtick_4">
     <g id="line2d_7">
      <path clip-path="url(#p9b5bd81b47)" d="M 325.007475 123.065354 
L 325.007475 2.834646 
" style="fill:none;stroke:#000000;stroke-linecap:square;stroke-opacity:0.1;stroke-width:0.5;"/>
     </g>
     <g id="line2d_8">
      <g>
       <use style="stroke:#000000;stroke-width:0.8;" x="325.007475" xlink:href="#mff249897de" y="123.065354"/>
      </g>
     </g>
     <g id="text_4">
      <!-- 150 -->
      <g transform="translate(317.372475 132.644104)scale(0.08 -0.08)">
       <use xlink:href="#DejaVuSans-49"/>
       <use x="63.623047" xlink:href="#DejaVuSans-53"/>
       <use x="127.246094" xlink:href="#DejaVuSans-48"/>
      </g>
     </g>
    </g>
    <g id="xtick_5">
     <g id="line2d_9">
      <path clip-path="url(#p9b5bd81b47)" d="M 418.055429 123.065354 
L 418.055429 2.834646 
" style="fill:none;stroke:#000000;stroke-linecap:square;stroke-opacity:0.1;stroke-width:0.5;"/>
     </g>
     <g id="line2d_10">
      <g>
       <use style="stroke:#000000;stroke-width:0.8;" x="418.055429" xlink:href="#mff249897de" y="123.065354"/>
      </g>
     </g>
     <g id="text_5">
      <!-- 200 -->
      <defs>
       <path d="M 19.1875 8.296875 
L 53.609375 8.296875 
L 53.609375 0 
L 7.328125 0 
L 7.328125 8.296875 
Q 12.9375 14.109375 22.625 23.890625 
Q 32.328125 33.6875 34.8125 36.53125 
Q 39.546875 41.84375 41.421875 45.53125 
Q 43.3125 49.21875 43.3125 52.78125 
Q 43.3125 58.59375 39.234375 62.25 
Q 35.15625 65.921875 28.609375 65.921875 
Q 23.96875 65.921875 18.8125 64.3125 
Q 13.671875 62.703125 7.8125 59.421875 
L 7.8125 69.390625 
Q 13.765625 71.78125 18.9375 73 
Q 24.125 74.21875 28.421875 74.21875 
Q 39.75 74.21875 46.484375 68.546875 
Q 53.21875 62.890625 53.21875 53.421875 
Q 53.21875 48.921875 51.53125 44.890625 
Q 49.859375 40.875 45.40625 35.40625 
Q 44.1875 33.984375 37.640625 27.21875 
Q 31.109375 20.453125 19.1875 8.296875 
z
" id="DejaVuSans-50"/>
      </defs>
      <g transform="translate(410.420429 132.644104)scale(0.08 -0.08)">
       <use xlink:href="#DejaVuSans-50"/>
       <use x="63.623047" xlink:href="#DejaVuSans-48"/>
       <use x="127.246094" xlink:href="#DejaVuSans-48"/>
      </g>
     </g>
    </g>
   </g>
   <g id="matplotlib.axis_2">
    <g id="ytick_1">
     <g id="line2d_11">
      <path clip-path="url(#p9b5bd81b47)" d="M 36.614646 105.653823 
L 429.165354 105.653823 
" style="fill:none;stroke:#000000;stroke-linecap:square;stroke-opacity:0.1;stroke-width:0.5;"/>
     </g>
     <g id="line2d_12">
      <defs>
       <path d="M 0 0 
L 3.5 0 
" id="m9bc924514d" style="stroke:#000000;stroke-width:0.8;"/>
      </defs>
      <g>
       <use style="stroke:#000000;stroke-width:0.8;" x="36.614646" xlink:href="#m9bc924514d" y="105.653823"/>
      </g>
     </g>
     <g id="text_6">
      <!-- -1.0 -->
      <defs>
       <path d="M 4.890625 31.390625 
L 31.203125 31.390625 
L 31.203125 23.390625 
L 4.890625 23.390625 
z
" id="DejaVuSans-45"/>
       <path d="M 10.6875 12.40625 
L 21 12.40625 
L 21 0 
L 10.6875 0 
z
" id="DejaVuSans-46"/>
      </defs>
      <g transform="translate(17.505896 108.693198)scale(0.08 -0.08)">
       <use xlink:href="#DejaVuSans-45"/>
       <use x="36.083984" xlink:href="#DejaVuSans-49"/>
       <use x="99.707031" xlink:href="#DejaVuSans-46"/>
       <use x="131.494141" xlink:href="#DejaVuSans-48"/>
      </g>
     </g>
    </g>
    <g id="ytick_2">
     <g id="line2d_13">
      <path clip-path="url(#p9b5bd81b47)" d="M 36.614646 83.55912 
L 429.165354 83.55912 
" style="fill:none;stroke:#000000;stroke-linecap:square;stroke-opacity:0.1;stroke-width:0.5;"/>
     </g>
     <g id="line2d_14">
      <g>
       <use style="stroke:#000000;stroke-width:0.8;" x="36.614646" xlink:href="#m9bc924514d" y="83.55912"/>
      </g>
     </g>
     <g id="text_7">
      <!-- -0.5 -->
      <g transform="translate(17.505896 86.598495)scale(0.08 -0.08)">
       <use xlink:href="#DejaVuSans-45"/>
       <use x="36.083984" xlink:href="#DejaVuSans-48"/>
       <use x="99.707031" xlink:href="#DejaVuSans-46"/>
       <use x="131.494141" xlink:href="#DejaVuSans-53"/>
      </g>
     </g>
    </g>
    <g id="ytick_3">
     <g id="line2d_15">
      <path clip-path="url(#p9b5bd81b47)" d="M 36.614646 61.464418 
L 429.165354 61.464418 
" style="fill:none;stroke:#000000;stroke-linecap:square;stroke-opacity:0.1;stroke-width:0.5;"/>
     </g>
     <g id="line2d_16">
      <g>
       <use style="stroke:#000000;stroke-width:0.8;" x="36.614646" xlink:href="#m9bc924514d" y="61.464418"/>
      </g>
     </g>
     <g id="text_8">
      <!-- 0.0 -->
      <g transform="translate(20.392146 64.503793)scale(0.08 -0.08)">
       <use xlink:href="#DejaVuSans-48"/>
       <use x="63.623047" xlink:href="#DejaVuSans-46"/>
       <use x="95.410156" xlink:href="#DejaVuSans-48"/>
      </g>
     </g>
    </g>
    <g id="ytick_4">
     <g id="line2d_17">
      <path clip-path="url(#p9b5bd81b47)" d="M 36.614646 39.369715 
L 429.165354 39.369715 
" style="fill:none;stroke:#000000;stroke-linecap:square;stroke-opacity:0.1;stroke-width:0.5;"/>
     </g>
     <g id="line2d_18">
      <g>
       <use style="stroke:#000000;stroke-width:0.8;" x="36.614646" xlink:href="#m9bc924514d" y="39.369715"/>
      </g>
     </g>
     <g id="text_9">
      <!-- 0.5 -->
      <g transform="translate(20.392146 42.40909)scale(0.08 -0.08)">
       <use xlink:href="#DejaVuSans-48"/>
       <use x="63.623047" xlink:href="#DejaVuSans-46"/>
       <use x="95.410156" xlink:href="#DejaVuSans-53"/>
      </g>
     </g>
    </g>
    <g id="ytick_5">
     <g id="line2d_19">
      <path clip-path="url(#p9b5bd81b47)" d="M 36.614646 17.275013 
L 429.165354 17.275013 
" style="fill:none;stroke:#000000;stroke-linecap:square;stroke-opacity:0.1;stroke-width:0.5;"/>
     </g>
     <g id="line2d_20">
      <g>
       <use style="stroke:#000000;stroke-width:0.8;" x="36.614646" xlink:href="#m9bc924514d" y="17.275013"/>
      </g>
     </g>
     <g id="text_10">
      <!-- 1.0 -->
      <g transform="translate(20.392146 20.314388)scale(0.08 -0.08)">
       <use xlink:href="#DejaVuSans-49"/>
       <use x="63.623047" xlink:href="#DejaVuSans-46"/>
       <use x="95.410156" xlink:href="#DejaVuSans-48"/>
      </g>
     </g>
    </g>
    <g id="text_11">
     <!-- Value -->
     <defs>
      <path d="M 28.609375 0 
L 0.78125 72.90625 
L 11.078125 72.90625 
L 34.1875 11.53125 
L 57.328125 72.90625 
L 67.578125 72.90625 
L 39.796875 0 
z
" id="DejaVuSans-86"/>
      <path d="M 34.28125 27.484375 
Q 23.390625 27.484375 19.1875 25 
Q 14.984375 22.515625 14.984375 16.5 
Q 14.984375 11.71875 18.140625 8.90625 
Q 21.296875 6.109375 26.703125 6.109375 
Q 34.1875 6.109375 38.703125 11.40625 
Q 43.21875 16.703125 43.21875 25.484375 
L 43.21875 27.484375 
z
M 52.203125 31.203125 
L 52.203125 0 
L 43.21875 0 
L 43.21875 8.296875 
Q 40.140625 3.328125 35.546875 0.953125 
Q 30.953125 -1.421875 24.3125 -1.421875 
Q 15.921875 -1.421875 10.953125 3.296875 
Q 6 8.015625 6 15.921875 
Q 6 25.140625 12.171875 29.828125 
Q 18.359375 34.515625 30.609375 34.515625 
L 43.21875 34.515625 
L 43.21875 35.40625 
Q 43.21875 41.609375 39.140625 45 
Q 35.0625 48.390625 27.6875 48.390625 
Q 23 48.390625 18.546875 47.265625 
Q 14.109375 46.140625 10.015625 43.890625 
L 10.015625 52.203125 
Q 14.9375 54.109375 19.578125 55.046875 
Q 24.21875 56 28.609375 56 
Q 40.484375 56 46.34375 49.84375 
Q 52.203125 43.703125 52.203125 31.203125 
z
" id="DejaVuSans-97"/>
      <path d="M 9.421875 75.984375 
L 18.40625 75.984375 
L 18.40625 0 
L 9.421875 0 
z
" id="DejaVuSans-108"/>
      <path d="M 8.5 21.578125 
L 8.5 54.6875 
L 17.484375 54.6875 
L 17.484375 21.921875 
Q 17.484375 14.15625 20.5 10.265625 
Q 23.53125 6.390625 29.59375 6.390625 
Q 36.859375 6.390625 41.078125 11.03125 
Q 45.3125 15.671875 45.3125 23.6875 
L 45.3125 54.6875 
L 54.296875 54.6875 
L 54.296875 0 
L 45.3125 0 
L 45.3125 8.40625 
Q 42.046875 3.421875 37.71875 1 
Q 33.40625 -1.421875 27.6875 -1.421875 
Q 18.265625 -1.421875 13.375 4.4375 
Q 8.5 10.296875 8.5 21.578125 
z
M 31.109375 56 
z
" id="DejaVuSans-117"/>
      <path d="M 56.203125 29.59375 
L 56.203125 25.203125 
L 14.890625 25.203125 
Q 15.484375 15.921875 20.484375 11.0625 
Q 25.484375 6.203125 34.421875 6.203125 
Q 39.59375 6.203125 44.453125 7.46875 
Q 49.3125 8.734375 54.109375 11.28125 
L 54.109375 2.78125 
Q 49.265625 0.734375 44.1875 -0.34375 
Q 39.109375 -1.421875 33.890625 -1.421875 
Q 20.796875 -1.421875 13.15625 6.1875 
Q 5.515625 13.8125 5.515625 26.8125 
Q 5.515625 40.234375 12.765625 48.109375 
Q 20.015625 56 32.328125 56 
Q 43.359375 56 49.78125 48.890625 
Q 56.203125 41.796875 56.203125 29.59375 
z
M 47.21875 32.234375 
Q 47.125 39.59375 43.09375 43.984375 
Q 39.0625 48.390625 32.421875 48.390625 
Q 24.90625 48.390625 20.390625 44.140625 
Q 15.875 39.890625 15.1875 32.171875 
z
" id="DejaVuSans-101"/>
     </defs>
     <g transform="translate(11.218239 78.474609)rotate(-90)scale(0.11 -0.11)">
      <use xlink:href="#DejaVuSans-86"/>
      <use x="68.298828" xlink:href="#DejaVuSans-97"/>
      <use x="129.578125" xlink:href="#DejaVuSans-108"/>
      <use x="157.361328" xlink:href="#DejaVuSans-117"/>
      <use x="220.740234" xlink:href="#DejaVuSans-101"/>
     </g>
    </g>
   </g>
   <g id="line2d_21">
    <path clip-path="url(#p9b5bd81b47)" d="M 47.724571 6.237402 
L 49.58553 23.402833 
L 51.44649 28.997521 
L 53.307449 27.844824 
L 55.168408 27.997189 
L 57.029367 34.946334 
L 58.890326 46.579553 
L 60.751285 75.335908 
L 62.612244 64.704838 
L 64.473203 75.804836 
L 66.334162 78.890626 
L 68.195121 99.647131 
L 70.05608 102.950854 
L 71.917039 115.140109 
L 73.777999 90.580546 
L 75.638958 110.653819 
L 77.499917 95.168031 
L 79.360876 97.788117 
L 81.221835 97.193328 
L 83.082794 79.551445 
L 84.943753 85.349078 
L 86.804712 64.730826 
L 88.665671 56.336544 
L 90.52663 32.99109 
L 92.387589 35.635365 
L 94.248548 31.526815 
L 96.109508 30.092548 
L 97.970467 24.773063 
L 99.831426 18.140145 
L 101.692385 8.420231 
L 103.553344 15.959158 
L 105.414303 20.715312 
L 107.275262 31.965854 
L 109.136221 55.211359 
L 110.99718 34.384353 
L 112.858139 53.621733 
L 114.719098 76.726692 
L 116.580057 61.290669 
L 118.441016 93.610879 
L 120.301976 92.004606 
L 122.162935 91.97176 
L 124.023894 112.82071 
L 125.884853 111.719448 
L 127.745812 101.487697 
L 129.606771 96.368145 
L 131.46773 98.09853 
L 133.328689 85.675552 
L 135.189648 98.897713 
L 137.050607 74.019628 
L 138.911566 64.383764 
L 140.772525 63.820462 
L 142.633485 44.12453 
L 144.494444 47.806022 
L 146.355403 34.985773 
L 148.216362 26.329662 
L 150.077321 21.624467 
L 151.93828 12.351379 
L 153.799239 21.308065 
L 155.660198 8.63638 
L 157.521157 36.854686 
L 161.243075 17.788503 
L 163.104034 48.933672 
L 164.964994 64.602247 
L 166.825953 62.972365 
L 168.686912 67.882994 
L 170.547871 82.391907 
L 172.40883 79.255408 
L 174.269789 104.6078 
L 176.130748 85.49789 
L 177.991707 119.662598 
L 179.852666 108.61347 
L 181.713625 105.617178 
L 183.574584 97.01556 
L 185.435543 82.712877 
L 187.296503 96.422664 
L 189.157462 75.759773 
L 191.018421 85.773381 
L 192.87938 64.544215 
L 194.740339 58.480882 
L 198.462257 21.30097 
L 200.323216 41.239022 
L 202.184175 18.555988 
L 204.045134 17.002632 
L 205.906093 17.427294 
L 207.767052 9.483267 
L 209.628011 21.60769 
L 211.488971 39.823662 
L 213.34993 17.12446 
L 215.210889 51.729253 
L 217.071848 51.64772 
L 218.932807 53.689236 
L 220.793766 52.884441 
L 222.654725 78.30991 
L 224.515684 94.891656 
L 226.376643 95.531155 
L 228.237602 105.290925 
L 230.098561 101.399088 
L 231.95952 92.872651 
L 233.82048 105.434908 
L 235.681439 108.533603 
L 237.542398 104.978713 
L 239.403357 88.455046 
L 241.264316 92.039145 
L 243.125275 80.242409 
L 244.986234 54.548766 
L 246.847193 65.114094 
L 248.708152 38.181178 
L 250.569111 42.179033 
L 252.43007 30.703285 
L 254.291029 37.825729 
L 256.151989 14.570841 
L 258.012948 8.487518 
L 259.873907 12.51158 
L 261.734866 25.656422 
L 263.595825 23.694779 
L 265.456784 31.113224 
L 267.317743 45.453671 
L 269.178702 44.682011 
L 272.90062 57.009592 
L 274.761579 69.652922 
L 276.622538 91.386571 
L 278.483497 85.824655 
L 280.344457 99.979105 
L 282.205416 100.914302 
L 284.066375 95.112207 
L 285.927334 103.581143 
L 287.788293 103.680713 
L 289.649252 110.603338 
L 295.232129 76.027084 
L 297.093088 63.231053 
L 298.954047 66.231702 
L 300.815006 51.786116 
L 302.675966 54.2715 
L 304.536925 35.272054 
L 306.397884 23.92187 
L 308.258843 10.563911 
L 310.119802 21.392779 
L 311.980761 16.916635 
L 313.84172 28.403834 
L 315.702679 14.306272 
L 317.563638 31.083946 
L 319.424597 23.34582 
L 321.285556 45.811912 
L 323.146515 56.719622 
L 325.007475 56.053228 
L 326.868434 56.763481 
L 328.729393 75.90566 
L 330.590352 96.595797 
L 332.451311 102.853517 
L 334.31227 87.274049 
L 336.173229 106.682012 
L 338.034188 99.195438 
L 339.895147 115.93491 
L 341.756106 89.996435 
L 343.617065 104.034481 
L 345.478024 99.372371 
L 347.338984 86.463333 
L 349.199943 67.851701 
L 351.060902 76.855221 
L 352.921861 51.037875 
L 354.78282 35.109623 
L 356.643779 38.984805 
L 358.504738 29.347889 
L 360.365697 24.584103 
L 362.226656 31.245441 
L 364.087615 19.536728 
L 365.948574 15.536006 
L 367.809533 18.224481 
L 369.670492 21.502202 
L 371.531452 29.219519 
L 373.392411 30.815884 
L 375.25337 51.03533 
L 377.114329 57.222443 
L 378.975288 62.517615 
L 380.836247 69.664891 
L 382.697206 95.672307 
L 384.558165 76.132393 
L 386.419124 102.965192 
L 388.280083 107.820638 
L 390.141042 99.978945 
L 392.002001 114.955196 
L 393.862961 96.51608 
L 395.72392 103.142647 
L 397.584879 95.143015 
L 399.445838 84.594676 
L 401.306797 76.826888 
L 403.167756 70.334511 
L 405.028715 68.590169 
L 406.889674 41.65952 
L 408.750633 36.883848 
L 410.611592 35.192942 
L 412.472551 41.215452 
L 414.33351 14.742686 
L 416.19447 21.564117 
L 418.055429 11.624179 
L 418.055429 11.624179 
" style="fill:none;stroke:#000000;stroke-linecap:round;"/>
   </g>
   <g id="patch_3">
    <path d="M 36.614646 123.065354 
L 36.614646 2.834646 
" style="fill:none;stroke:#000000;stroke-linecap:square;stroke-linejoin:miter;"/>
   </g>
   <g id="patch_4">
    <path d="M 36.614646 123.065354 
L 429.165354 123.065354 
" style="fill:none;stroke:#000000;stroke-linecap:square;stroke-linejoin:miter;"/>
   </g>
   <g id="legend_1">
    <g id="patch_5">
     <path d="M 216.438125 20.977146 
L 249.341875 20.977146 
Q 250.941875 20.977146 250.941875 19.377146 
L 250.941875 8.434646 
Q 250.941875 6.834646 249.341875 6.834646 
L 216.438125 6.834646 
Q 214.838125 6.834646 214.838125 8.434646 
L 214.838125 19.377146 
Q 214.838125 20.977146 216.438125 20.977146 
z
" style="fill:#ffffff;stroke:#000000;stroke-linejoin:miter;"/>
    </g>
    <g id="line2d_22">
     <path d="M 218.038125 13.313396 
L 234.038125 13.313396 
" style="fill:none;stroke:#000000;stroke-linecap:square;"/>
    </g>
    <g id="line2d_23"/>
    <g id="text_12">
     <!-- ts -->
     <defs>
      <path d="M 18.3125 70.21875 
L 18.3125 54.6875 
L 36.8125 54.6875 
L 36.8125 47.703125 
L 18.3125 47.703125 
L 18.3125 18.015625 
Q 18.3125 11.328125 20.140625 9.421875 
Q 21.96875 7.515625 27.59375 7.515625 
L 36.8125 7.515625 
L 36.8125 0 
L 27.59375 0 
Q 17.1875 0 13.234375 3.875 
Q 9.28125 7.765625 9.28125 18.015625 
L 9.28125 47.703125 
L 2.6875 47.703125 
L 2.6875 54.6875 
L 9.28125 54.6875 
L 9.28125 70.21875 
z
" id="DejaVuSans-116"/>
      <path d="M 44.28125 53.078125 
L 44.28125 44.578125 
Q 40.484375 46.53125 36.375 47.5 
Q 32.28125 48.484375 27.875 48.484375 
Q 21.1875 48.484375 17.84375 46.4375 
Q 14.5 44.390625 14.5 40.28125 
Q 14.5 37.15625 16.890625 35.375 
Q 19.28125 33.59375 26.515625 31.984375 
L 29.59375 31.296875 
Q 39.15625 29.25 43.1875 25.515625 
Q 47.21875 21.78125 47.21875 15.09375 
Q 47.21875 7.46875 41.1875 3.015625 
Q 35.15625 -1.421875 24.609375 -1.421875 
Q 20.21875 -1.421875 15.453125 -0.5625 
Q 10.6875 0.296875 5.421875 2 
L 5.421875 11.28125 
Q 10.40625 8.6875 15.234375 7.390625 
Q 20.0625 6.109375 24.8125 6.109375 
Q 31.15625 6.109375 34.5625 8.28125 
Q 37.984375 10.453125 37.984375 14.40625 
Q 37.984375 18.0625 35.515625 20.015625 
Q 33.0625 21.96875 24.703125 23.78125 
L 21.578125 24.515625 
Q 13.234375 26.265625 9.515625 29.90625 
Q 5.8125 33.546875 5.8125 39.890625 
Q 5.8125 47.609375 11.28125 51.796875 
Q 16.75 56 26.8125 56 
Q 31.78125 56 36.171875 55.265625 
Q 40.578125 54.546875 44.28125 53.078125 
z
" id="DejaVuSans-115"/>
     </defs>
     <g transform="translate(240.438125 16.113396)scale(0.08 -0.08)">
      <use xlink:href="#DejaVuSans-116"/>
      <use x="39.208984" xlink:href="#DejaVuSans-115"/>
     </g>
    </g>
   </g>
  </g>
  <g id="axes_2">
   <g id="patch_6">
    <path d="M 36.614646 259.665354 
L 429.165354 259.665354 
L 429.165354 139.434646 
L 36.614646 139.434646 
z
" style="fill:#ffffff;"/>
   </g>
   <g id="matplotlib.axis_3">
    <g id="xtick_6">
     <g id="line2d_24">
      <path clip-path="url(#p3bdbbaa189)" d="M 45.863612 259.665354 
L 45.863612 139.434646 
" style="fill:none;stroke:#000000;stroke-linecap:square;stroke-opacity:0.1;stroke-width:0.5;"/>
     </g>
     <g id="line2d_25">
      <g>
       <use style="stroke:#000000;stroke-width:0.8;" x="45.863612" xlink:href="#mff249897de" y="259.665354"/>
      </g>
     </g>
     <g id="text_13">
      <!-- 0 -->
      <g transform="translate(43.318612 269.244104)scale(0.08 -0.08)">
       <use xlink:href="#DejaVuSans-48"/>
      </g>
     </g>
    </g>
    <g id="xtick_7">
     <g id="line2d_26">
      <path clip-path="url(#p3bdbbaa189)" d="M 138.911566 259.665354 
L 138.911566 139.434646 
" style="fill:none;stroke:#000000;stroke-linecap:square;stroke-opacity:0.1;stroke-width:0.5;"/>
     </g>
     <g id="line2d_27">
      <g>
       <use style="stroke:#000000;stroke-width:0.8;" x="138.911566" xlink:href="#mff249897de" y="259.665354"/>
      </g>
     </g>
     <g id="text_14">
      <!-- 50 -->
      <g transform="translate(133.821566 269.244104)scale(0.08 -0.08)">
       <use xlink:href="#DejaVuSans-53"/>
       <use x="63.623047" xlink:href="#DejaVuSans-48"/>
      </g>
     </g>
    </g>
    <g id="xtick_8">
     <g id="line2d_28">
      <path clip-path="url(#p3bdbbaa189)" d="M 231.95952 259.665354 
L 231.95952 139.434646 
" style="fill:none;stroke:#000000;stroke-linecap:square;stroke-opacity:0.1;stroke-width:0.5;"/>
     </g>
     <g id="line2d_29">
      <g>
       <use style="stroke:#000000;stroke-width:0.8;" x="231.95952" xlink:href="#mff249897de" y="259.665354"/>
      </g>
     </g>
     <g id="text_15">
      <!-- 100 -->
      <g transform="translate(224.32452 269.244104)scale(0.08 -0.08)">
       <use xlink:href="#DejaVuSans-49"/>
       <use x="63.623047" xlink:href="#DejaVuSans-48"/>
       <use x="127.246094" xlink:href="#DejaVuSans-48"/>
      </g>
     </g>
    </g>
    <g id="xtick_9">
     <g id="line2d_30">
      <path clip-path="url(#p3bdbbaa189)" d="M 325.007475 259.665354 
L 325.007475 139.434646 
" style="fill:none;stroke:#000000;stroke-linecap:square;stroke-opacity:0.1;stroke-width:0.5;"/>
     </g>
     <g id="line2d_31">
      <g>
       <use style="stroke:#000000;stroke-width:0.8;" x="325.007475" xlink:href="#mff249897de" y="259.665354"/>
      </g>
     </g>
     <g id="text_16">
      <!-- 150 -->
      <g transform="translate(317.372475 269.244104)scale(0.08 -0.08)">
       <use xlink:href="#DejaVuSans-49"/>
       <use x="63.623047" xlink:href="#DejaVuSans-53"/>
       <use x="127.246094" xlink:href="#DejaVuSans-48"/>
      </g>
     </g>
    </g>
    <g id="xtick_10">
     <g id="line2d_32">
      <path clip-path="url(#p3bdbbaa189)" d="M 418.055429 259.665354 
L 418.055429 139.434646 
" style="fill:none;stroke:#000000;stroke-linecap:square;stroke-opacity:0.1;stroke-width:0.5;"/>
     </g>
     <g id="line2d_33">
      <g>
       <use style="stroke:#000000;stroke-width:0.8;" x="418.055429" xlink:href="#mff249897de" y="259.665354"/>
      </g>
     </g>
     <g id="text_17">
      <!-- 200 -->
      <g transform="translate(410.420429 269.244104)scale(0.08 -0.08)">
       <use xlink:href="#DejaVuSans-50"/>
       <use x="63.623047" xlink:href="#DejaVuSans-48"/>
       <use x="127.246094" xlink:href="#DejaVuSans-48"/>
      </g>
     </g>
    </g>
    <g id="text_18">
     <!-- Time step -->
     <defs>
      <path d="M -0.296875 72.90625 
L 61.375 72.90625 
L 61.375 64.59375 
L 35.5 64.59375 
L 35.5 0 
L 25.59375 0 
L 25.59375 64.59375 
L -0.296875 64.59375 
z
" id="DejaVuSans-84"/>
      <path d="M 9.421875 54.6875 
L 18.40625 54.6875 
L 18.40625 0 
L 9.421875 0 
z
M 9.421875 75.984375 
L 18.40625 75.984375 
L 18.40625 64.59375 
L 9.421875 64.59375 
z
" id="DejaVuSans-105"/>
      <path d="M 52 44.1875 
Q 55.375 50.25 60.0625 53.125 
Q 64.75 56 71.09375 56 
Q 79.640625 56 84.28125 50.015625 
Q 88.921875 44.046875 88.921875 33.015625 
L 88.921875 0 
L 79.890625 0 
L 79.890625 32.71875 
Q 79.890625 40.578125 77.09375 44.375 
Q 74.3125 48.1875 68.609375 48.1875 
Q 61.625 48.1875 57.5625 43.546875 
Q 53.515625 38.921875 53.515625 30.90625 
L 53.515625 0 
L 44.484375 0 
L 44.484375 32.71875 
Q 44.484375 40.625 41.703125 44.40625 
Q 38.921875 48.1875 33.109375 48.1875 
Q 26.21875 48.1875 22.15625 43.53125 
Q 18.109375 38.875 18.109375 30.90625 
L 18.109375 0 
L 9.078125 0 
L 9.078125 54.6875 
L 18.109375 54.6875 
L 18.109375 46.1875 
Q 21.1875 51.21875 25.484375 53.609375 
Q 29.78125 56 35.6875 56 
Q 41.65625 56 45.828125 52.96875 
Q 50 49.953125 52 44.1875 
z
" id="DejaVuSans-109"/>
      <path id="DejaVuSans-32"/>
      <path d="M 18.109375 8.203125 
L 18.109375 -20.796875 
L 9.078125 -20.796875 
L 9.078125 54.6875 
L 18.109375 54.6875 
L 18.109375 46.390625 
Q 20.953125 51.265625 25.265625 53.625 
Q 29.59375 56 35.59375 56 
Q 45.5625 56 51.78125 48.09375 
Q 58.015625 40.1875 58.015625 27.296875 
Q 58.015625 14.40625 51.78125 6.484375 
Q 45.5625 -1.421875 35.59375 -1.421875 
Q 29.59375 -1.421875 25.265625 0.953125 
Q 20.953125 3.328125 18.109375 8.203125 
z
M 48.6875 27.296875 
Q 48.6875 37.203125 44.609375 42.84375 
Q 40.53125 48.484375 33.40625 48.484375 
Q 26.265625 48.484375 22.1875 42.84375 
Q 18.109375 37.203125 18.109375 27.296875 
Q 18.109375 17.390625 22.1875 11.75 
Q 26.265625 6.109375 33.40625 6.109375 
Q 40.53125 6.109375 44.609375 11.75 
Q 48.6875 17.390625 48.6875 27.296875 
z
" id="DejaVuSans-112"/>
     </defs>
     <g transform="translate(205.618594 283.266136)scale(0.11 -0.11)">
      <use xlink:href="#DejaVuSans-84"/>
      <use x="61.037109" xlink:href="#DejaVuSans-105"/>
      <use x="88.820312" xlink:href="#DejaVuSans-109"/>
      <use x="186.232422" xlink:href="#DejaVuSans-101"/>
      <use x="247.755859" xlink:href="#DejaVuSans-32"/>
      <use x="279.542969" xlink:href="#DejaVuSans-115"/>
      <use x="331.642578" xlink:href="#DejaVuSans-116"/>
      <use x="370.851562" xlink:href="#DejaVuSans-101"/>
      <use x="432.375" xlink:href="#DejaVuSans-112"/>
     </g>
    </g>
   </g>
   <g id="matplotlib.axis_4">
    <g id="ytick_6">
     <g id="line2d_34">
      <path clip-path="url(#p3bdbbaa189)" d="M 36.614646 242.253823 
L 429.165354 242.253823 
" style="fill:none;stroke:#000000;stroke-linecap:square;stroke-opacity:0.1;stroke-width:0.5;"/>
     </g>
     <g id="line2d_35">
      <g>
       <use style="stroke:#000000;stroke-width:0.8;" x="36.614646" xlink:href="#m9bc924514d" y="242.253823"/>
      </g>
     </g>
     <g id="text_19">
      <!-- -1.0 -->
      <g transform="translate(17.505896 245.293198)scale(0.08 -0.08)">
       <use xlink:href="#DejaVuSans-45"/>
       <use x="36.083984" xlink:href="#DejaVuSans-49"/>
       <use x="99.707031" xlink:href="#DejaVuSans-46"/>
       <use x="131.494141" xlink:href="#DejaVuSans-48"/>
      </g>
     </g>
    </g>
    <g id="ytick_7">
     <g id="line2d_36">
      <path clip-path="url(#p3bdbbaa189)" d="M 36.614646 220.15912 
L 429.165354 220.15912 
" style="fill:none;stroke:#000000;stroke-linecap:square;stroke-opacity:0.1;stroke-width:0.5;"/>
     </g>
     <g id="line2d_37">
      <g>
       <use style="stroke:#000000;stroke-width:0.8;" x="36.614646" xlink:href="#m9bc924514d" y="220.15912"/>
      </g>
     </g>
     <g id="text_20">
      <!-- -0.5 -->
      <g transform="translate(17.505896 223.198495)scale(0.08 -0.08)">
       <use xlink:href="#DejaVuSans-45"/>
       <use x="36.083984" xlink:href="#DejaVuSans-48"/>
       <use x="99.707031" xlink:href="#DejaVuSans-46"/>
       <use x="131.494141" xlink:href="#DejaVuSans-53"/>
      </g>
     </g>
    </g>
    <g id="ytick_8">
     <g id="line2d_38">
      <path clip-path="url(#p3bdbbaa189)" d="M 36.614646 198.064418 
L 429.165354 198.064418 
" style="fill:none;stroke:#000000;stroke-linecap:square;stroke-opacity:0.1;stroke-width:0.5;"/>
     </g>
     <g id="line2d_39">
      <g>
       <use style="stroke:#000000;stroke-width:0.8;" x="36.614646" xlink:href="#m9bc924514d" y="198.064418"/>
      </g>
     </g>
     <g id="text_21">
      <!-- 0.0 -->
      <g transform="translate(20.392146 201.103793)scale(0.08 -0.08)">
       <use xlink:href="#DejaVuSans-48"/>
       <use x="63.623047" xlink:href="#DejaVuSans-46"/>
       <use x="95.410156" xlink:href="#DejaVuSans-48"/>
      </g>
     </g>
    </g>
    <g id="ytick_9">
     <g id="line2d_40">
      <path clip-path="url(#p3bdbbaa189)" d="M 36.614646 175.969715 
L 429.165354 175.969715 
" style="fill:none;stroke:#000000;stroke-linecap:square;stroke-opacity:0.1;stroke-width:0.5;"/>
     </g>
     <g id="line2d_41">
      <g>
       <use style="stroke:#000000;stroke-width:0.8;" x="36.614646" xlink:href="#m9bc924514d" y="175.969715"/>
      </g>
     </g>
     <g id="text_22">
      <!-- 0.5 -->
      <g transform="translate(20.392146 179.00909)scale(0.08 -0.08)">
       <use xlink:href="#DejaVuSans-48"/>
       <use x="63.623047" xlink:href="#DejaVuSans-46"/>
       <use x="95.410156" xlink:href="#DejaVuSans-53"/>
      </g>
     </g>
    </g>
    <g id="ytick_10">
     <g id="line2d_42">
      <path clip-path="url(#p3bdbbaa189)" d="M 36.614646 153.875013 
L 429.165354 153.875013 
" style="fill:none;stroke:#000000;stroke-linecap:square;stroke-opacity:0.1;stroke-width:0.5;"/>
     </g>
     <g id="line2d_43">
      <g>
       <use style="stroke:#000000;stroke-width:0.8;" x="36.614646" xlink:href="#m9bc924514d" y="153.875013"/>
      </g>
     </g>
     <g id="text_23">
      <!-- 1.0 -->
      <g transform="translate(20.392146 156.914388)scale(0.08 -0.08)">
       <use xlink:href="#DejaVuSans-49"/>
       <use x="63.623047" xlink:href="#DejaVuSans-46"/>
       <use x="95.410156" xlink:href="#DejaVuSans-48"/>
      </g>
     </g>
    </g>
    <g id="text_24">
     <!-- Value -->
     <g transform="translate(11.218239 215.074609)rotate(-90)scale(0.11 -0.11)">
      <use xlink:href="#DejaVuSans-86"/>
      <use x="68.298828" xlink:href="#DejaVuSans-97"/>
      <use x="129.578125" xlink:href="#DejaVuSans-108"/>
      <use x="157.361328" xlink:href="#DejaVuSans-117"/>
      <use x="220.740234" xlink:href="#DejaVuSans-101"/>
     </g>
    </g>
   </g>
   <g id="line2d_44">
    <path clip-path="url(#p3bdbbaa189)" d="M 47.724571 227.180546 
L 49.58553 210.619628 
L 51.44649 221.194676 
L 53.307449 233.793328 
L 55.168408 240.280713 
L 57.029367 251.740109 
L 58.890326 241.2078 
L 60.751285 252.53491 
L 62.612244 245.21347 
L 64.473203 234.69853 
L 66.334162 223.063333 
L 68.195121 221.949078 
L 70.05608 213.426888 
L 71.917039 201.304838 
L 73.777999 190.221733 
L 75.638958 171.585773 
L 77.499917 177.815452 
L 79.360876 170.984353 
L 81.221835 148.951379 
L 83.082794 158.20769 
L 84.943753 153.72446 
L 86.804712 145.087518 
L 88.665671 154.740145 
L 90.52663 155.155988 
L 92.387589 172.235365 
L 94.248548 173.454686 
L 96.109508 177.839022 
L 97.970467 192.653228 
L 99.831426 201.714094 
L 101.692385 212.50566 
L 103.553344 216.151445 
L 105.414303 225.055046 
L 107.275262 240.634481 
L 109.136221 248.319448 
L 110.99718 251.555196 
L 112.858139 239.453517 
L 114.719098 247.253819 
L 116.580057 234.388117 
L 118.441016 228.639145 
L 120.301976 224.068875 
L 122.162935 213.455221 
L 125.884853 188.386116 
L 127.745812 187.637875 
L 129.606771 176.443858 
L 131.46773 161.373063 
L 133.328689 157.992779 
L 135.189648 162.929662 
L 137.050607 145.23638 
L 138.911566 146.083267 
L 140.772525 166.692548 
L 142.633485 167.845441 
L 144.494444 165.003834 
L 148.216362 178.25952 
L 150.077321 191.811359 
L 151.93828 204.482994 
L 153.799239 213.326692 
L 155.660198 214.90991 
L 157.521157 222.275552 
L 159.382116 240.181143 
L 161.243075 243.282012 
L 163.104034 236.578945 
L 164.964994 241.578713 
L 166.825953 239.742647 
L 168.686912 233.022664 
L 170.547871 233.11608 
L 172.40883 226.596435 
L 174.269789 215.855408 
L 176.130748 202.831702 
L 177.991707 199.572365 
L 179.852666 187.340342 
L 181.713625 188.24772 
L 183.574584 167.713224 
L 185.435543 165.947889 
L 187.296503 158.102202 
L 189.157462 162.256422 
L 191.018421 153.602632 
L 192.87938 151.170841 
L 194.740339 158.224467 
L 196.601298 159.94582 
L 198.462257 168.565854 
L 200.323216 183.179553 
L 202.184175 189.484441 
L 204.045134 193.609592 
L 205.906093 199.117615 
L 207.767052 212.359773 
L 209.628011 215.490626 
L 211.488971 232.272307 
L 213.34993 241.890925 
L 215.210889 235.972371 
L 217.071848 238.087697 
L 218.932807 245.133603 
L 220.793766 236.247131 
L 222.654725 232.968145 
L 224.515684 231.491656 
L 226.376643 218.991907 
L 228.237602 212.732393 
L 230.098561 201.330826 
L 231.95952 193.319622 
L 233.82048 187.63533 
L 235.681439 174.781178 
L 237.542398 171.872054 
L 239.403357 164.597189 
L 241.264316 154.824481 
L 243.125275 149.11158 
L 246.847193 156.136728 
L 248.708152 157.315312 
L 250.569111 168.126815 
L 252.43007 171.792942 
L 254.291029 180.72453 
L 256.151989 188.329253 
L 258.012948 197.890669 
L 261.734866 212.627084 
L 263.595825 231.712207 
L 265.456784 231.743015 
L 267.317743 239.550854 
L 269.178702 242.034908 
L 271.039661 235.731588 
L 272.90062 235.795438 
L 274.761579 239.565192 
L 276.622538 230.210879 
L 278.483497 228.604606 
L 280.344457 212.404836 
L 282.205416 201.202247 
L 284.066375 206.252922 
L 285.927334 190.289236 
L 289.649252 174.425729 
L 291.510211 158.164117 
L 293.37117 167.683946 
L 295.232129 152.136006 
L 297.093088 161.184103 
L 298.954047 160.002833 
L 300.815006 160.294779 
L 302.675966 150.906272 
L 306.397884 181.282011 
L 308.258843 185.533672 
L 310.119802 200.420462 
L 311.980761 204.451701 
L 315.702679 219.312877 
L 317.563638 227.986571 
L 319.424597 233.195797 
L 321.285556 236.579105 
L 323.146515 256.262598 
L 325.007475 233.61556 
L 326.868434 247.203338 
L 328.729393 237.999088 
L 330.590352 222.373381 
L 332.451311 228.57176 
L 334.31227 216.842409 
L 336.173229 199.831053 
L 338.034188 190.8715 
L 339.895147 193.363481 
L 341.756106 176.423662 
L 345.478024 157.90097 
L 347.338984 154.027294 
L 349.199943 164.444824 
L 351.060902 145.020231 
L 352.921861 151.342686 
L 354.78282 167.303285 
L 356.643779 157.908065 
L 358.504738 175.584805 
L 362.226656 182.053671 
L 364.087615 192.936544 
L 365.948574 206.264891 
L 367.809533 229.472651 
L 369.670492 223.874049 
L 371.531452 231.768031 
L 373.392411 232.131155 
L 375.25337 235.497713 
L 377.114329 249.42071 
L 378.975288 244.420638 
L 380.836247 242.217178 
L 382.697206 237.514302 
L 384.558165 222.09789 
L 386.419124 222.424655 
L 388.280083 200.983764 
L 390.141042 195.080882 
L 392.002001 193.822443 
L 393.862961 184.406022 
L 395.72392 171.546334 
L 397.584879 169.59109 
L 399.445838 148.224179 
L 401.306797 142.837402 
L 403.167756 154.388503 
L 405.028715 160.52187 
L 406.889674 147.163911 
L 408.750633 165.597521 
L 410.611592 153.516635 
L 412.472551 164.149153 
L 414.33351 173.483848 
L 416.19447 191.148766 
L 418.055429 206.934511 
L 418.055429 206.934511 
" style="fill:none;stroke:#009afa;stroke-linecap:round;"/>
   </g>
   <g id="patch_7">
    <path d="M 36.614646 259.665354 
L 36.614646 139.434646 
" style="fill:none;stroke:#000000;stroke-linecap:square;stroke-linejoin:miter;"/>
   </g>
   <g id="patch_8">
    <path d="M 36.614646 259.665354 
L 429.165354 259.665354 
" style="fill:none;stroke:#000000;stroke-linecap:square;stroke-linejoin:miter;"/>
   </g>
   <g id="legend_2">
    <g id="patch_9">
     <path d="M 42.214646 206.62125 
L 97.117146 206.62125 
Q 98.717146 206.62125 98.717146 205.02125 
L 98.717146 194.07875 
Q 98.717146 192.47875 97.117146 192.47875 
L 42.214646 192.47875 
Q 40.614646 192.47875 40.614646 194.07875 
L 40.614646 205.02125 
Q 40.614646 206.62125 42.214646 206.62125 
z
" style="fill:#ffffff;stroke:#000000;stroke-linejoin:miter;"/>
    </g>
    <g id="line2d_45">
     <path d="M 43.814646 198.9575 
L 59.814646 198.9575 
" style="fill:none;stroke:#009afa;stroke-linecap:square;"/>
    </g>
    <g id="line2d_46"/>
    <g id="text_25">
     <!-- aaft(ts) -->
     <defs>
      <path d="M 37.109375 75.984375 
L 37.109375 68.5 
L 28.515625 68.5 
Q 23.6875 68.5 21.796875 66.546875 
Q 19.921875 64.59375 19.921875 59.515625 
L 19.921875 54.6875 
L 34.71875 54.6875 
L 34.71875 47.703125 
L 19.921875 47.703125 
L 19.921875 0 
L 10.890625 0 
L 10.890625 47.703125 
L 2.296875 47.703125 
L 2.296875 54.6875 
L 10.890625 54.6875 
L 10.890625 58.5 
Q 10.890625 67.625 15.140625 71.796875 
Q 19.390625 75.984375 28.609375 75.984375 
z
" id="DejaVuSans-102"/>
      <path d="M 31 75.875 
Q 24.46875 64.65625 21.28125 53.65625 
Q 18.109375 42.671875 18.109375 31.390625 
Q 18.109375 20.125 21.3125 9.0625 
Q 24.515625 -2 31 -13.1875 
L 23.1875 -13.1875 
Q 15.875 -1.703125 12.234375 9.375 
Q 8.59375 20.453125 8.59375 31.390625 
Q 8.59375 42.28125 12.203125 53.3125 
Q 15.828125 64.359375 23.1875 75.875 
z
" id="DejaVuSans-40"/>
      <path d="M 8.015625 75.875 
L 15.828125 75.875 
Q 23.140625 64.359375 26.78125 53.3125 
Q 30.421875 42.28125 30.421875 31.390625 
Q 30.421875 20.453125 26.78125 9.375 
Q 23.140625 -1.703125 15.828125 -13.1875 
L 8.015625 -13.1875 
Q 14.5 -2 17.703125 9.0625 
Q 20.90625 20.125 20.90625 31.390625 
Q 20.90625 42.671875 17.703125 53.65625 
Q 14.5 64.65625 8.015625 75.875 
z
" id="DejaVuSans-41"/>
     </defs>
     <g transform="translate(66.214646 201.7575)scale(0.08 -0.08)">
      <use xlink:href="#DejaVuSans-97"/>
      <use x="61.279297" xlink:href="#DejaVuSans-97"/>
      <use x="122.558594" xlink:href="#DejaVuSans-102"/>
      <use x="157.748047" xlink:href="#DejaVuSans-116"/>
      <use x="196.957031" xlink:href="#DejaVuSans-40"/>
      <use x="235.970703" xlink:href="#DejaVuSans-116"/>
      <use x="275.179688" xlink:href="#DejaVuSans-115"/>
      <use x="327.279297" xlink:href="#DejaVuSans-41"/>
     </g>
    </g>
   </g>
  </g>
 </g>
 <defs>
  <clipPath id="p9b5bd81b47">
   <rect height="120.230709" width="392.550709" x="36.614646" y="2.834646"/>
  </clipPath>
  <clipPath id="p3bdbbaa189">
   <rect height="120.230709" width="392.550709" x="36.614646" y="139.434646"/>
  </clipPath>
 </defs>
</svg>
