<?xml version="1.0" encoding="utf-8"?>
<svg xmlns="http://www.w3.org/2000/svg" xmlns:xlink="http://www.w3.org/1999/xlink" width="600" height="400" viewBox="0 0 2400 1600">
<defs>
  <clipPath id="clip560">
    <rect x="0" y="0" width="2400" height="1600"/>
  </clipPath>
</defs>
<path clip-path="url(#clip560)" d="
M0 1600 L2400 1600 L2400 0 L0 0  Z
  " fill="#ffffff" fill-rule="evenodd" fill-opacity="1"/>
<defs>
  <clipPath id="clip561">
    <rect x="480" y="0" width="1681" height="1600"/>
  </clipPath>
</defs>
<path clip-path="url(#clip560)" d="
M286.371 1423.18 L2352.76 1423.18 L2352.76 47.2441 L286.371 47.2441  Z
  " fill="#ffffff" fill-rule="evenodd" fill-opacity="1"/>
<defs>
  <clipPath id="clip562">
    <rect x="286" y="47" width="2067" height="1377"/>
  </clipPath>
</defs>
<polyline clip-path="url(#clip562)" style="stroke:#000000; stroke-linecap:round; stroke-linejoin:round; stroke-width:2; stroke-opacity:0.1; fill:none" points="
  561.455,1423.18 561.455,47.2441 
  "/>
<polyline clip-path="url(#clip562)" style="stroke:#000000; stroke-linecap:round; stroke-linejoin:round; stroke-width:2; stroke-opacity:0.1; fill:none" points="
  994.66,1423.18 994.66,47.2441 
  "/>
<polyline clip-path="url(#clip562)" style="stroke:#000000; stroke-linecap:round; stroke-linejoin:round; stroke-width:2; stroke-opacity:0.1; fill:none" points="
  1427.86,1423.18 1427.86,47.2441 
  "/>
<polyline clip-path="url(#clip562)" style="stroke:#000000; stroke-linecap:round; stroke-linejoin:round; stroke-width:2; stroke-opacity:0.1; fill:none" points="
  1861.07,1423.18 1861.07,47.2441 
  "/>
<polyline clip-path="url(#clip562)" style="stroke:#000000; stroke-linecap:round; stroke-linejoin:round; stroke-width:2; stroke-opacity:0.1; fill:none" points="
  2294.27,1423.18 2294.27,47.2441 
  "/>
<polyline clip-path="url(#clip560)" style="stroke:#000000; stroke-linecap:round; stroke-linejoin:round; stroke-width:4; stroke-opacity:1; fill:none" points="
  286.371,1423.18 2352.76,1423.18 
  "/>
<polyline clip-path="url(#clip560)" style="stroke:#000000; stroke-linecap:round; stroke-linejoin:round; stroke-width:4; stroke-opacity:1; fill:none" points="
  561.455,1423.18 561.455,1404.28 
  "/>
<polyline clip-path="url(#clip560)" style="stroke:#000000; stroke-linecap:round; stroke-linejoin:round; stroke-width:4; stroke-opacity:1; fill:none" points="
  994.66,1423.18 994.66,1404.28 
  "/>
<polyline clip-path="url(#clip560)" style="stroke:#000000; stroke-linecap:round; stroke-linejoin:round; stroke-width:4; stroke-opacity:1; fill:none" points="
  1427.86,1423.18 1427.86,1404.28 
  "/>
<polyline clip-path="url(#clip560)" style="stroke:#000000; stroke-linecap:round; stroke-linejoin:round; stroke-width:4; stroke-opacity:1; fill:none" points="
  1861.07,1423.18 1861.07,1404.28 
  "/>
<polyline clip-path="url(#clip560)" style="stroke:#000000; stroke-linecap:round; stroke-linejoin:round; stroke-width:4; stroke-opacity:1; fill:none" points="
  2294.27,1423.18 2294.27,1404.28 
  "/>
<path clip-path="url(#clip560)" d="M556.108 1481.64 L572.428 1481.64 L572.428 1485.58 L550.483 1485.58 L550.483 1481.64 Q553.145 1478.89 557.729 1474.26 Q562.335 1469.61 563.516 1468.27 Q565.761 1465.74 566.641 1464.01 Q567.543 1462.25 567.543 1460.56 Q567.543 1457.8 565.599 1456.07 Q563.678 1454.33 560.576 1454.33 Q558.377 1454.33 555.923 1455.09 Q553.492 1455.86 550.715 1457.41 L550.715 1452.69 Q553.539 1451.55 555.992 1450.97 Q558.446 1450.39 560.483 1450.39 Q565.854 1450.39 569.048 1453.08 Q572.242 1455.77 572.242 1460.26 Q572.242 1462.39 571.432 1464.31 Q570.645 1466.2 568.539 1468.8 Q567.96 1469.47 564.858 1472.69 Q561.756 1475.88 556.108 1481.64 Z" fill="#000000" fill-rule="evenodd" fill-opacity="1" /><path clip-path="url(#clip560)" d="M997.669 1455.09 L985.864 1473.54 L997.669 1473.54 L997.669 1455.09 M996.442 1451.02 L1002.32 1451.02 L1002.32 1473.54 L1007.25 1473.54 L1007.25 1477.43 L1002.32 1477.43 L1002.32 1485.58 L997.669 1485.58 L997.669 1477.43 L982.067 1477.43 L982.067 1472.92 L996.442 1451.02 Z" fill="#000000" fill-rule="evenodd" fill-opacity="1" /><path clip-path="url(#clip560)" d="M1428.27 1466.44 Q1425.12 1466.44 1423.27 1468.59 Q1421.44 1470.74 1421.44 1474.49 Q1421.44 1478.22 1423.27 1480.39 Q1425.12 1482.55 1428.27 1482.55 Q1431.42 1482.55 1433.25 1480.39 Q1435.1 1478.22 1435.1 1474.49 Q1435.1 1470.74 1433.25 1468.59 Q1431.42 1466.44 1428.27 1466.44 M1437.55 1451.78 L1437.55 1456.04 Q1435.79 1455.21 1433.99 1454.77 Q1432.2 1454.33 1430.45 1454.33 Q1425.82 1454.33 1423.36 1457.45 Q1420.93 1460.58 1420.58 1466.9 Q1421.95 1464.89 1424.01 1463.82 Q1426.07 1462.73 1428.55 1462.73 Q1433.76 1462.73 1436.76 1465.9 Q1439.8 1469.05 1439.8 1474.49 Q1439.8 1479.82 1436.65 1483.03 Q1433.5 1486.25 1428.27 1486.25 Q1422.27 1486.25 1419.1 1481.67 Q1415.93 1477.06 1415.93 1468.33 Q1415.93 1460.14 1419.82 1455.28 Q1423.71 1450.39 1430.26 1450.39 Q1432.02 1450.39 1433.8 1450.74 Q1435.61 1451.09 1437.55 1451.78 Z" fill="#000000" fill-rule="evenodd" fill-opacity="1" /><path clip-path="url(#clip560)" d="M1861.07 1469.17 Q1857.74 1469.17 1855.81 1470.95 Q1853.92 1472.73 1853.92 1475.86 Q1853.92 1478.98 1855.81 1480.77 Q1857.74 1482.55 1861.07 1482.55 Q1864.4 1482.55 1866.32 1480.77 Q1868.24 1478.96 1868.24 1475.86 Q1868.24 1472.73 1866.32 1470.95 Q1864.43 1469.17 1861.07 1469.17 M1856.39 1467.18 Q1853.38 1466.44 1851.69 1464.38 Q1850.03 1462.32 1850.03 1459.35 Q1850.03 1455.21 1852.97 1452.8 Q1855.93 1450.39 1861.07 1450.39 Q1866.23 1450.39 1869.17 1452.8 Q1872.11 1455.21 1872.11 1459.35 Q1872.11 1462.32 1870.42 1464.38 Q1868.75 1466.44 1865.77 1467.18 Q1869.15 1467.96 1871.02 1470.26 Q1872.92 1472.55 1872.92 1475.86 Q1872.92 1480.88 1869.84 1483.57 Q1866.79 1486.25 1861.07 1486.25 Q1855.35 1486.25 1852.27 1483.57 Q1849.22 1480.88 1849.22 1475.86 Q1849.22 1472.55 1851.12 1470.26 Q1853.01 1467.96 1856.39 1467.18 M1854.68 1459.79 Q1854.68 1462.48 1856.35 1463.98 Q1858.04 1465.49 1861.07 1465.49 Q1864.08 1465.49 1865.77 1463.98 Q1867.48 1462.48 1867.48 1459.79 Q1867.48 1457.11 1865.77 1455.6 Q1864.08 1454.1 1861.07 1454.1 Q1858.04 1454.1 1856.35 1455.6 Q1854.68 1457.11 1854.68 1459.79 Z" fill="#000000" fill-rule="evenodd" fill-opacity="1" /><path clip-path="url(#clip560)" d="M2268.96 1481.64 L2276.6 1481.64 L2276.6 1455.28 L2268.29 1456.95 L2268.29 1452.69 L2276.55 1451.02 L2281.23 1451.02 L2281.23 1481.64 L2288.87 1481.64 L2288.87 1485.58 L2268.96 1485.58 L2268.96 1481.64 Z" fill="#000000" fill-rule="evenodd" fill-opacity="1" /><path clip-path="url(#clip560)" d="M2308.31 1454.1 Q2304.7 1454.1 2302.87 1457.66 Q2301.07 1461.2 2301.07 1468.33 Q2301.07 1475.44 2302.87 1479.01 Q2304.7 1482.55 2308.31 1482.55 Q2311.95 1482.55 2313.75 1479.01 Q2315.58 1475.44 2315.58 1468.33 Q2315.58 1461.2 2313.75 1457.66 Q2311.95 1454.1 2308.31 1454.1 M2308.31 1450.39 Q2314.12 1450.39 2317.18 1455 Q2320.26 1459.58 2320.26 1468.33 Q2320.26 1477.06 2317.18 1481.67 Q2314.12 1486.25 2308.31 1486.25 Q2302.5 1486.25 2299.42 1481.67 Q2296.37 1477.06 2296.37 1468.33 Q2296.37 1459.58 2299.42 1455 Q2302.5 1450.39 2308.31 1450.39 Z" fill="#000000" fill-rule="evenodd" fill-opacity="1" /><path clip-path="url(#clip560)" d="M1053.56 1525.81 L1053.56 1543.66 L1061.64 1543.66 Q1066.13 1543.66 1068.58 1541.34 Q1071.03 1539.02 1071.03 1534.72 Q1071.03 1530.45 1068.58 1528.13 Q1066.13 1525.81 1061.64 1525.81 L1053.56 1525.81 M1047.13 1520.52 L1061.64 1520.52 Q1069.63 1520.52 1073.7 1524.15 Q1077.81 1527.75 1077.81 1534.72 Q1077.81 1541.75 1073.7 1545.35 Q1069.63 1548.95 1061.64 1548.95 L1053.56 1548.95 L1053.56 1568.04 L1047.13 1568.04 L1047.13 1520.52 Z" fill="#000000" fill-rule="evenodd" fill-opacity="1" /><path clip-path="url(#clip560)" d="M1105.69 1537.87 Q1104.7 1537.3 1103.53 1537.04 Q1102.38 1536.76 1100.98 1536.76 Q1096.02 1536.76 1093.34 1540 Q1090.7 1543.22 1090.7 1549.27 L1090.7 1568.04 L1084.81 1568.04 L1084.81 1532.4 L1090.7 1532.4 L1090.7 1537.93 Q1092.55 1534.69 1095.51 1533.13 Q1098.47 1531.54 1102.7 1531.54 Q1103.3 1531.54 1104.04 1531.63 Q1104.77 1531.7 1105.66 1531.85 L1105.69 1537.87 Z" fill="#000000" fill-rule="evenodd" fill-opacity="1" /><path clip-path="url(#clip560)" d="M1140.89 1548.76 L1140.89 1551.62 L1113.97 1551.62 Q1114.35 1557.67 1117.6 1560.85 Q1120.87 1564 1126.7 1564 Q1130.07 1564 1133.22 1563.17 Q1136.41 1562.35 1139.53 1560.69 L1139.53 1566.23 Q1136.37 1567.57 1133.06 1568.27 Q1129.75 1568.97 1126.35 1568.97 Q1117.82 1568.97 1112.82 1564 Q1107.86 1559.04 1107.86 1550.57 Q1107.86 1541.82 1112.57 1536.69 Q1117.31 1531.54 1125.33 1531.54 Q1132.52 1531.54 1136.69 1536.18 Q1140.89 1540.8 1140.89 1548.76 M1135.04 1547.04 Q1134.97 1542.23 1132.33 1539.37 Q1129.72 1536.5 1125.39 1536.5 Q1120.49 1536.5 1117.53 1539.27 Q1114.6 1542.04 1114.16 1547.07 L1135.04 1547.04 Z" fill="#000000" fill-rule="evenodd" fill-opacity="1" /><path clip-path="url(#clip560)" d="M1173.96 1537.81 L1173.96 1518.52 L1179.82 1518.52 L1179.82 1568.04 L1173.96 1568.04 L1173.96 1562.7 Q1172.12 1565.88 1169.28 1567.44 Q1166.48 1568.97 1162.54 1568.97 Q1156.08 1568.97 1152 1563.81 Q1147.96 1558.65 1147.96 1550.25 Q1147.96 1541.85 1152 1536.69 Q1156.08 1531.54 1162.54 1531.54 Q1166.48 1531.54 1169.28 1533.1 Q1172.12 1534.62 1173.96 1537.81 M1154.01 1550.25 Q1154.01 1556.71 1156.65 1560.4 Q1159.32 1564.07 1163.97 1564.07 Q1168.62 1564.07 1171.29 1560.4 Q1173.96 1556.71 1173.96 1550.25 Q1173.96 1543.79 1171.29 1540.13 Q1168.62 1536.44 1163.97 1536.44 Q1159.32 1536.44 1156.65 1540.13 Q1154.01 1543.79 1154.01 1550.25 Z" fill="#000000" fill-rule="evenodd" fill-opacity="1" /><path clip-path="url(#clip560)" d="M1191.88 1532.4 L1197.74 1532.4 L1197.74 1568.04 L1191.88 1568.04 L1191.88 1532.4 M1191.88 1518.52 L1197.74 1518.52 L1197.74 1525.93 L1191.88 1525.93 L1191.88 1518.52 Z" fill="#000000" fill-rule="evenodd" fill-opacity="1" /><path clip-path="url(#clip560)" d="M1235.65 1533.76 L1235.65 1539.24 Q1233.16 1537.87 1230.65 1537.2 Q1228.17 1536.5 1225.62 1536.5 Q1219.92 1536.5 1216.77 1540.13 Q1213.62 1543.73 1213.62 1550.25 Q1213.62 1556.78 1216.77 1560.4 Q1219.92 1564 1225.62 1564 Q1228.17 1564 1230.65 1563.33 Q1233.16 1562.63 1235.65 1561.26 L1235.65 1566.68 Q1233.2 1567.82 1230.55 1568.39 Q1227.94 1568.97 1224.98 1568.97 Q1216.93 1568.97 1212.19 1563.91 Q1207.45 1558.85 1207.45 1550.25 Q1207.45 1541.53 1212.22 1536.53 Q1217.03 1531.54 1225.37 1531.54 Q1228.07 1531.54 1230.65 1532.11 Q1233.23 1532.65 1235.65 1533.76 Z" fill="#000000" fill-rule="evenodd" fill-opacity="1" /><path clip-path="url(#clip560)" d="M1251.63 1522.27 L1251.63 1532.4 L1263.69 1532.4 L1263.69 1536.95 L1251.63 1536.95 L1251.63 1556.3 Q1251.63 1560.66 1252.8 1561.9 Q1254.01 1563.14 1257.67 1563.14 L1263.69 1563.14 L1263.69 1568.04 L1257.67 1568.04 Q1250.89 1568.04 1248.32 1565.53 Q1245.74 1562.98 1245.74 1556.3 L1245.74 1536.95 L1241.44 1536.95 L1241.44 1532.4 L1245.74 1532.4 L1245.74 1522.27 L1251.63 1522.27 Z" fill="#000000" fill-rule="evenodd" fill-opacity="1" /><path clip-path="url(#clip560)" d="M1271.39 1532.4 L1277.25 1532.4 L1277.25 1568.04 L1271.39 1568.04 L1271.39 1532.4 M1271.39 1518.52 L1277.25 1518.52 L1277.25 1525.93 L1271.39 1525.93 L1271.39 1518.52 Z" fill="#000000" fill-rule="evenodd" fill-opacity="1" /><path clip-path="url(#clip560)" d="M1303.31 1536.5 Q1298.6 1536.5 1295.87 1540.19 Q1293.13 1543.85 1293.13 1550.25 Q1293.13 1556.65 1295.84 1560.34 Q1298.57 1564 1303.31 1564 Q1307.99 1564 1310.73 1560.31 Q1313.47 1556.62 1313.47 1550.25 Q1313.47 1543.92 1310.73 1540.23 Q1307.99 1536.5 1303.31 1536.5 M1303.31 1531.54 Q1310.95 1531.54 1315.31 1536.5 Q1319.67 1541.47 1319.67 1550.25 Q1319.67 1559 1315.31 1564 Q1310.95 1568.97 1303.31 1568.97 Q1295.64 1568.97 1291.28 1564 Q1286.95 1559 1286.95 1550.25 Q1286.95 1541.47 1291.28 1536.5 Q1295.64 1531.54 1303.31 1531.54 Z" fill="#000000" fill-rule="evenodd" fill-opacity="1" /><path clip-path="url(#clip560)" d="M1359.01 1546.53 L1359.01 1568.04 L1353.16 1568.04 L1353.16 1546.72 Q1353.16 1541.66 1351.18 1539.14 Q1349.21 1536.63 1345.26 1536.63 Q1340.52 1536.63 1337.79 1539.65 Q1335.05 1542.68 1335.05 1547.9 L1335.05 1568.04 L1329.16 1568.04 L1329.16 1532.4 L1335.05 1532.4 L1335.05 1537.93 Q1337.15 1534.72 1339.98 1533.13 Q1342.85 1531.54 1346.57 1531.54 Q1352.71 1531.54 1355.86 1535.36 Q1359.01 1539.14 1359.01 1546.53 Z" fill="#000000" fill-rule="evenodd" fill-opacity="1" /><path clip-path="url(#clip560)" d="M1391.42 1518.52 L1397.27 1518.52 L1397.27 1568.04 L1391.42 1568.04 L1391.42 1518.52 Z" fill="#000000" fill-rule="evenodd" fill-opacity="1" /><path clip-path="url(#clip560)" d="M1425.73 1550.12 Q1418.63 1550.12 1415.89 1551.75 Q1413.16 1553.37 1413.16 1557.29 Q1413.16 1560.4 1415.19 1562.25 Q1417.26 1564.07 1420.79 1564.07 Q1425.66 1564.07 1428.59 1560.63 Q1431.55 1557.16 1431.55 1551.43 L1431.55 1550.12 L1425.73 1550.12 M1437.41 1547.71 L1437.41 1568.04 L1431.55 1568.04 L1431.55 1562.63 Q1429.55 1565.88 1426.55 1567.44 Q1423.56 1568.97 1419.23 1568.97 Q1413.76 1568.97 1410.51 1565.91 Q1407.3 1562.82 1407.3 1557.67 Q1407.3 1551.65 1411.31 1548.6 Q1415.35 1545.54 1423.34 1545.54 L1431.55 1545.54 L1431.55 1544.97 Q1431.55 1540.93 1428.88 1538.73 Q1426.24 1536.5 1421.43 1536.5 Q1418.37 1536.5 1415.48 1537.23 Q1412.58 1537.97 1409.91 1539.43 L1409.91 1534.02 Q1413.12 1532.78 1416.15 1532.17 Q1419.17 1531.54 1422.04 1531.54 Q1429.77 1531.54 1433.59 1535.55 Q1437.41 1539.56 1437.41 1547.71 Z" fill="#000000" fill-rule="evenodd" fill-opacity="1" /><path clip-path="url(#clip560)" d="M1472.93 1549.81 Q1472.93 1543.44 1470.29 1539.94 Q1467.68 1536.44 1462.93 1536.44 Q1458.22 1536.44 1455.58 1539.94 Q1452.97 1543.44 1452.97 1549.81 Q1452.97 1556.14 1455.58 1559.64 Q1458.22 1563.14 1462.93 1563.14 Q1467.68 1563.14 1470.29 1559.64 Q1472.93 1556.14 1472.93 1549.81 M1478.79 1563.62 Q1478.79 1572.72 1474.74 1577.15 Q1470.7 1581.6 1462.36 1581.6 Q1459.27 1581.6 1456.54 1581.13 Q1453.8 1580.68 1451.22 1579.72 L1451.22 1574.03 Q1453.8 1575.43 1456.31 1576.1 Q1458.83 1576.76 1461.44 1576.76 Q1467.2 1576.76 1470.06 1573.74 Q1472.93 1570.75 1472.93 1564.67 L1472.93 1561.77 Q1471.11 1564.92 1468.28 1566.48 Q1465.45 1568.04 1461.5 1568.04 Q1454.95 1568.04 1450.94 1563.05 Q1446.93 1558.05 1446.93 1549.81 Q1446.93 1541.53 1450.94 1536.53 Q1454.95 1531.54 1461.5 1531.54 Q1465.45 1531.54 1468.28 1533.1 Q1471.11 1534.66 1472.93 1537.81 L1472.93 1532.4 L1478.79 1532.4 L1478.79 1563.62 Z" fill="#000000" fill-rule="evenodd" fill-opacity="1" /><path clip-path="url(#clip560)" d="M1525.64 1518.58 Q1521.37 1525.9 1519.3 1533.06 Q1517.23 1540.23 1517.23 1547.58 Q1517.23 1554.93 1519.3 1562.16 Q1521.4 1569.35 1525.64 1576.64 L1520.54 1576.64 Q1515.77 1569.16 1513.38 1561.93 Q1511.03 1554.71 1511.03 1547.58 Q1511.03 1540.48 1513.38 1533.29 Q1515.74 1526.09 1520.54 1518.58 L1525.64 1518.58 Z" fill="#000000" fill-rule="evenodd" fill-opacity="1" /><path clip-path="url(#clip560)" d="M1566.63 1546.53 L1566.63 1581.6 L1560.78 1581.6 L1560.78 1546.72 Q1560.78 1541.66 1558.8 1539.14 Q1556.83 1536.63 1552.88 1536.63 Q1548.14 1536.63 1545.4 1539.65 Q1542.67 1542.68 1542.67 1547.9 L1542.67 1568.04 L1536.78 1568.04 L1536.78 1532.4 L1542.67 1532.4 L1542.67 1537.93 Q1544.77 1534.72 1547.6 1533.13 Q1550.46 1531.54 1554.19 1531.54 Q1560.33 1531.54 1563.48 1535.32 Q1566.63 1539.14 1566.63 1546.53 Z" fill="#000000" fill-rule="evenodd" fill-opacity="1" /><path clip-path="url(#clip560)" d="M1577.39 1518.58 L1582.48 1518.58 Q1587.26 1526.09 1589.61 1533.29 Q1592 1540.48 1592 1547.58 Q1592 1554.71 1589.61 1561.93 Q1587.26 1569.16 1582.48 1576.64 L1577.39 1576.64 Q1581.62 1569.35 1583.69 1562.16 Q1585.79 1554.93 1585.79 1547.58 Q1585.79 1540.23 1583.69 1533.06 Q1581.62 1525.9 1577.39 1518.58 Z" fill="#000000" fill-rule="evenodd" fill-opacity="1" /><polyline clip-path="url(#clip562)" style="stroke:#000000; stroke-linecap:round; stroke-linejoin:round; stroke-width:2; stroke-opacity:0.1; fill:none" points="
  286.371,1079.2 2352.76,1079.2 
  "/>
<polyline clip-path="url(#clip562)" style="stroke:#000000; stroke-linecap:round; stroke-linejoin:round; stroke-width:2; stroke-opacity:0.1; fill:none" points="
  286.371,735.212 2352.76,735.212 
  "/>
<polyline clip-path="url(#clip562)" style="stroke:#000000; stroke-linecap:round; stroke-linejoin:round; stroke-width:2; stroke-opacity:0.1; fill:none" points="
  286.371,391.228 2352.76,391.228 
  "/>
<polyline clip-path="url(#clip562)" style="stroke:#000000; stroke-linecap:round; stroke-linejoin:round; stroke-width:2; stroke-opacity:0.1; fill:none" points="
  286.371,47.2441 2352.76,47.2441 
  "/>
<polyline clip-path="url(#clip560)" style="stroke:#000000; stroke-linecap:round; stroke-linejoin:round; stroke-width:4; stroke-opacity:1; fill:none" points="
  286.371,1423.18 286.371,47.2441 
  "/>
<polyline clip-path="url(#clip560)" style="stroke:#000000; stroke-linecap:round; stroke-linejoin:round; stroke-width:4; stroke-opacity:1; fill:none" points="
  286.371,1079.2 305.268,1079.2 
  "/>
<polyline clip-path="url(#clip560)" style="stroke:#000000; stroke-linecap:round; stroke-linejoin:round; stroke-width:4; stroke-opacity:1; fill:none" points="
  286.371,735.212 305.268,735.212 
  "/>
<polyline clip-path="url(#clip560)" style="stroke:#000000; stroke-linecap:round; stroke-linejoin:round; stroke-width:4; stroke-opacity:1; fill:none" points="
  286.371,391.228 305.268,391.228 
  "/>
<polyline clip-path="url(#clip560)" style="stroke:#000000; stroke-linecap:round; stroke-linejoin:round; stroke-width:4; stroke-opacity:1; fill:none" points="
  286.371,47.2441 305.268,47.2441 
  "/>
<path clip-path="url(#clip560)" d="M114.26 1079.65 L143.936 1079.65 L143.936 1083.58 L114.26 1083.58 L114.26 1079.65 Z" fill="#000000" fill-rule="evenodd" fill-opacity="1" /><path clip-path="url(#clip560)" d="M164.028 1064.99 Q160.417 1064.99 158.589 1068.56 Q156.783 1072.1 156.783 1079.23 Q156.783 1086.34 158.589 1089.9 Q160.417 1093.44 164.028 1093.44 Q167.663 1093.44 169.468 1089.9 Q171.297 1086.34 171.297 1079.23 Q171.297 1072.1 169.468 1068.56 Q167.663 1064.99 164.028 1064.99 M164.028 1061.29 Q169.839 1061.29 172.894 1065.9 Q175.973 1070.48 175.973 1079.23 Q175.973 1087.96 172.894 1092.56 Q169.839 1097.15 164.028 1097.15 Q158.218 1097.15 155.14 1092.56 Q152.084 1087.96 152.084 1079.23 Q152.084 1070.48 155.14 1065.9 Q158.218 1061.29 164.028 1061.29 Z" fill="#000000" fill-rule="evenodd" fill-opacity="1" /><path clip-path="url(#clip560)" d="M184.19 1090.6 L189.075 1090.6 L189.075 1096.48 L184.19 1096.48 L184.19 1090.6 Z" fill="#000000" fill-rule="evenodd" fill-opacity="1" /><path clip-path="url(#clip560)" d="M209.26 1064.99 Q205.649 1064.99 203.82 1068.56 Q202.014 1072.1 202.014 1079.23 Q202.014 1086.34 203.82 1089.9 Q205.649 1093.44 209.26 1093.44 Q212.894 1093.44 214.699 1089.9 Q216.528 1086.34 216.528 1079.23 Q216.528 1072.1 214.699 1068.56 Q212.894 1064.99 209.26 1064.99 M209.26 1061.29 Q215.07 1061.29 218.125 1065.9 Q221.204 1070.48 221.204 1079.23 Q221.204 1087.96 218.125 1092.56 Q215.07 1097.15 209.26 1097.15 Q203.449 1097.15 200.371 1092.56 Q197.315 1087.96 197.315 1079.23 Q197.315 1070.48 200.371 1065.9 Q203.449 1061.29 209.26 1061.29 Z" fill="#000000" fill-rule="evenodd" fill-opacity="1" /><path clip-path="url(#clip560)" d="M229.468 1061.92 L247.824 1061.92 L247.824 1065.85 L233.75 1065.85 L233.75 1074.32 Q234.769 1073.98 235.787 1073.81 Q236.806 1073.63 237.824 1073.63 Q243.611 1073.63 246.991 1076.8 Q250.371 1079.97 250.371 1085.39 Q250.371 1090.97 246.898 1094.07 Q243.426 1097.15 237.107 1097.15 Q234.931 1097.15 232.662 1096.78 Q230.417 1096.41 228.01 1095.67 L228.01 1090.97 Q230.093 1092.1 232.315 1092.66 Q234.537 1093.21 237.014 1093.21 Q241.019 1093.21 243.357 1091.11 Q245.695 1089 245.695 1085.39 Q245.695 1081.78 243.357 1079.67 Q241.019 1077.56 237.014 1077.56 Q235.139 1077.56 233.264 1077.98 Q231.412 1078.4 229.468 1079.28 L229.468 1061.92 Z" fill="#000000" fill-rule="evenodd" fill-opacity="1" /><path clip-path="url(#clip560)" d="M163.033 721.011 Q159.422 721.011 157.593 724.575 Q155.788 728.117 155.788 735.247 Q155.788 742.353 157.593 745.918 Q159.422 749.46 163.033 749.46 Q166.667 749.46 168.473 745.918 Q170.302 742.353 170.302 735.247 Q170.302 728.117 168.473 724.575 Q166.667 721.011 163.033 721.011 M163.033 717.307 Q168.843 717.307 171.899 721.913 Q174.977 726.497 174.977 735.247 Q174.977 743.973 171.899 748.58 Q168.843 753.163 163.033 753.163 Q157.223 753.163 154.144 748.58 Q151.089 743.973 151.089 735.247 Q151.089 726.497 154.144 721.913 Q157.223 717.307 163.033 717.307 Z" fill="#000000" fill-rule="evenodd" fill-opacity="1" /><path clip-path="url(#clip560)" d="M183.195 746.612 L188.079 746.612 L188.079 752.492 L183.195 752.492 L183.195 746.612 Z" fill="#000000" fill-rule="evenodd" fill-opacity="1" /><path clip-path="url(#clip560)" d="M208.264 721.011 Q204.653 721.011 202.824 724.575 Q201.019 728.117 201.019 735.247 Q201.019 742.353 202.824 745.918 Q204.653 749.46 208.264 749.46 Q211.899 749.46 213.704 745.918 Q215.533 742.353 215.533 735.247 Q215.533 728.117 213.704 724.575 Q211.899 721.011 208.264 721.011 M208.264 717.307 Q214.074 717.307 217.13 721.913 Q220.209 726.497 220.209 735.247 Q220.209 743.973 217.13 748.58 Q214.074 753.163 208.264 753.163 Q202.454 753.163 199.375 748.58 Q196.32 743.973 196.32 735.247 Q196.32 726.497 199.375 721.913 Q202.454 717.307 208.264 717.307 Z" fill="#000000" fill-rule="evenodd" fill-opacity="1" /><path clip-path="url(#clip560)" d="M238.426 721.011 Q234.815 721.011 232.986 724.575 Q231.181 728.117 231.181 735.247 Q231.181 742.353 232.986 745.918 Q234.815 749.46 238.426 749.46 Q242.06 749.46 243.866 745.918 Q245.695 742.353 245.695 735.247 Q245.695 728.117 243.866 724.575 Q242.06 721.011 238.426 721.011 M238.426 717.307 Q244.236 717.307 247.292 721.913 Q250.371 726.497 250.371 735.247 Q250.371 743.973 247.292 748.58 Q244.236 753.163 238.426 753.163 Q232.616 753.163 229.537 748.58 Q226.482 743.973 226.482 735.247 Q226.482 726.497 229.537 721.913 Q232.616 717.307 238.426 717.307 Z" fill="#000000" fill-rule="evenodd" fill-opacity="1" /><path clip-path="url(#clip560)" d="M164.028 377.027 Q160.417 377.027 158.589 380.592 Q156.783 384.133 156.783 391.263 Q156.783 398.369 158.589 401.934 Q160.417 405.476 164.028 405.476 Q167.663 405.476 169.468 401.934 Q171.297 398.369 171.297 391.263 Q171.297 384.133 169.468 380.592 Q167.663 377.027 164.028 377.027 M164.028 373.323 Q169.839 373.323 172.894 377.929 Q175.973 382.513 175.973 391.263 Q175.973 399.99 172.894 404.596 Q169.839 409.179 164.028 409.179 Q158.218 409.179 155.14 404.596 Q152.084 399.99 152.084 391.263 Q152.084 382.513 155.14 377.929 Q158.218 373.323 164.028 373.323 Z" fill="#000000" fill-rule="evenodd" fill-opacity="1" /><path clip-path="url(#clip560)" d="M184.19 402.628 L189.075 402.628 L189.075 408.508 L184.19 408.508 L184.19 402.628 Z" fill="#000000" fill-rule="evenodd" fill-opacity="1" /><path clip-path="url(#clip560)" d="M209.26 377.027 Q205.649 377.027 203.82 380.592 Q202.014 384.133 202.014 391.263 Q202.014 398.369 203.82 401.934 Q205.649 405.476 209.26 405.476 Q212.894 405.476 214.699 401.934 Q216.528 398.369 216.528 391.263 Q216.528 384.133 214.699 380.592 Q212.894 377.027 209.26 377.027 M209.26 373.323 Q215.07 373.323 218.125 377.929 Q221.204 382.513 221.204 391.263 Q221.204 399.99 218.125 404.596 Q215.07 409.179 209.26 409.179 Q203.449 409.179 200.371 404.596 Q197.315 399.99 197.315 391.263 Q197.315 382.513 200.371 377.929 Q203.449 373.323 209.26 373.323 Z" fill="#000000" fill-rule="evenodd" fill-opacity="1" /><path clip-path="url(#clip560)" d="M229.468 373.948 L247.824 373.948 L247.824 377.883 L233.75 377.883 L233.75 386.355 Q234.769 386.008 235.787 385.846 Q236.806 385.661 237.824 385.661 Q243.611 385.661 246.991 388.832 Q250.371 392.003 250.371 397.42 Q250.371 402.999 246.898 406.101 Q243.426 409.179 237.107 409.179 Q234.931 409.179 232.662 408.809 Q230.417 408.439 228.01 407.698 L228.01 402.999 Q230.093 404.133 232.315 404.689 Q234.537 405.244 237.014 405.244 Q241.019 405.244 243.357 403.138 Q245.695 401.031 245.695 397.42 Q245.695 393.809 243.357 391.703 Q241.019 389.596 237.014 389.596 Q235.139 389.596 233.264 390.013 Q231.412 390.429 229.468 391.309 L229.468 373.948 Z" fill="#000000" fill-rule="evenodd" fill-opacity="1" /><path clip-path="url(#clip560)" d="M163.033 33.0428 Q159.422 33.0428 157.593 36.6076 Q155.788 40.1492 155.788 47.2788 Q155.788 54.3853 157.593 57.9501 Q159.422 61.4917 163.033 61.4917 Q166.667 61.4917 168.473 57.9501 Q170.302 54.3853 170.302 47.2788 Q170.302 40.1492 168.473 36.6076 Q166.667 33.0428 163.033 33.0428 M163.033 29.3391 Q168.843 29.3391 171.899 33.9456 Q174.977 38.5289 174.977 47.2788 Q174.977 56.0056 171.899 60.6121 Q168.843 65.1954 163.033 65.1954 Q157.223 65.1954 154.144 60.6121 Q151.089 56.0056 151.089 47.2788 Q151.089 38.5289 154.144 33.9456 Q157.223 29.3391 163.033 29.3391 Z" fill="#000000" fill-rule="evenodd" fill-opacity="1" /><path clip-path="url(#clip560)" d="M183.195 58.6445 L188.079 58.6445 L188.079 64.5241 L183.195 64.5241 L183.195 58.6445 Z" fill="#000000" fill-rule="evenodd" fill-opacity="1" /><path clip-path="url(#clip560)" d="M199.075 60.5889 L206.713 60.5889 L206.713 34.2233 L198.403 35.89 L198.403 31.6308 L206.667 29.9641 L211.343 29.9641 L211.343 60.5889 L218.982 60.5889 L218.982 64.5241 L199.075 64.5241 L199.075 60.5889 Z" fill="#000000" fill-rule="evenodd" fill-opacity="1" /><path clip-path="url(#clip560)" d="M238.426 33.0428 Q234.815 33.0428 232.986 36.6076 Q231.181 40.1492 231.181 47.2788 Q231.181 54.3853 232.986 57.9501 Q234.815 61.4917 238.426 61.4917 Q242.06 61.4917 243.866 57.9501 Q245.695 54.3853 245.695 47.2788 Q245.695 40.1492 243.866 36.6076 Q242.06 33.0428 238.426 33.0428 M238.426 29.3391 Q244.236 29.3391 247.292 33.9456 Q250.371 38.5289 250.371 47.2788 Q250.371 56.0056 247.292 60.6121 Q244.236 65.1954 238.426 65.1954 Q232.616 65.1954 229.537 60.6121 Q226.482 56.0056 226.482 47.2788 Q226.482 38.5289 229.537 33.9456 Q232.616 29.3391 238.426 29.3391 Z" fill="#000000" fill-rule="evenodd" fill-opacity="1" /><path clip-path="url(#clip560)" d="M21.7677 1174.35 L39.6235 1174.35 L39.6235 1166.27 Q39.6235 1161.78 37.3 1159.33 Q34.9765 1156.88 30.6797 1156.88 Q26.4147 1156.88 24.0912 1159.33 Q21.7677 1161.78 21.7677 1166.27 L21.7677 1174.35 M16.4842 1180.78 L16.4842 1166.27 Q16.4842 1158.28 20.1126 1154.2 Q23.7092 1150.1 30.6797 1150.1 Q37.7138 1150.1 41.3104 1154.2 Q44.907 1158.28 44.907 1166.27 L44.907 1174.35 L64.0042 1174.35 L64.0042 1180.78 L16.4842 1180.78 Z" fill="#000000" fill-rule="evenodd" fill-opacity="1" /><path clip-path="url(#clip560)" d="M33.8307 1122.22 Q33.2578 1123.2 33.0032 1124.38 Q32.7167 1125.53 32.7167 1126.93 Q32.7167 1131.89 35.9632 1134.56 Q39.1779 1137.21 45.2253 1137.21 L64.0042 1137.21 L64.0042 1143.09 L28.3562 1143.09 L28.3562 1137.21 L33.8944 1137.21 Q30.6479 1135.36 29.0883 1132.4 Q27.4968 1129.44 27.4968 1125.21 Q27.4968 1124.6 27.5923 1123.87 Q27.656 1123.14 27.8151 1122.25 L33.8307 1122.22 Z" fill="#000000" fill-rule="evenodd" fill-opacity="1" /><path clip-path="url(#clip560)" d="M44.7161 1087.01 L47.5806 1087.01 L47.5806 1113.94 Q53.6281 1113.56 56.8109 1110.31 Q59.9619 1107.03 59.9619 1101.21 Q59.9619 1097.83 59.1344 1094.68 Q58.3069 1091.5 56.6518 1088.38 L62.1899 1088.38 Q63.5267 1091.53 64.227 1094.84 Q64.9272 1098.15 64.9272 1101.56 Q64.9272 1110.09 59.9619 1115.09 Q54.9967 1120.05 46.5303 1120.05 Q37.7774 1120.05 32.6531 1115.34 Q27.4968 1110.6 27.4968 1102.58 Q27.4968 1095.38 32.1438 1091.21 Q36.7589 1087.01 44.7161 1087.01 M42.9973 1092.87 Q38.1912 1092.93 35.3266 1095.57 Q32.4621 1098.18 32.4621 1102.51 Q32.4621 1107.41 35.2312 1110.37 Q38.0002 1113.3 43.0292 1113.75 L42.9973 1092.87 Z" fill="#000000" fill-rule="evenodd" fill-opacity="1" /><path clip-path="url(#clip560)" d="M33.7671 1053.94 L14.479 1053.94 L14.479 1048.09 L64.0042 1048.09 L64.0042 1053.94 L58.657 1053.94 Q61.8398 1055.79 63.3994 1058.62 Q64.9272 1061.42 64.9272 1065.37 Q64.9272 1071.83 59.771 1075.9 Q54.6147 1079.95 46.212 1079.95 Q37.8093 1079.95 32.6531 1075.9 Q27.4968 1071.83 27.4968 1065.37 Q27.4968 1061.42 29.0564 1058.62 Q30.5842 1055.79 33.7671 1053.94 M46.212 1073.9 Q52.6732 1073.9 56.3653 1071.26 Q60.0256 1068.58 60.0256 1063.94 Q60.0256 1059.29 56.3653 1056.62 Q52.6732 1053.94 46.212 1053.94 Q39.7508 1053.94 36.0905 1056.62 Q32.3984 1059.29 32.3984 1063.94 Q32.3984 1068.58 36.0905 1071.26 Q39.7508 1073.9 46.212 1073.9 Z" fill="#000000" fill-rule="evenodd" fill-opacity="1" /><path clip-path="url(#clip560)" d="M28.3562 1036.02 L28.3562 1030.17 L64.0042 1030.17 L64.0042 1036.02 L28.3562 1036.02 M14.479 1036.02 L14.479 1030.17 L21.895 1030.17 L21.895 1036.02 L14.479 1036.02 Z" fill="#000000" fill-rule="evenodd" fill-opacity="1" /><path clip-path="url(#clip560)" d="M29.7248 992.259 L35.1993 992.259 Q33.8307 994.742 33.1623 997.256 Q32.4621 999.739 32.4621 1002.29 Q32.4621 1007.98 36.0905 1011.13 Q39.6872 1014.28 46.212 1014.28 Q52.7369 1014.28 56.3653 1011.13 Q59.9619 1007.98 59.9619 1002.29 Q59.9619 999.739 59.2935 997.256 Q58.5933 994.742 57.2247 992.259 L62.6355 992.259 Q63.7814 994.71 64.3543 997.352 Q64.9272 999.962 64.9272 1002.92 Q64.9272 1010.97 59.8664 1015.72 Q54.8057 1020.46 46.212 1020.46 Q37.491 1020.46 32.4939 1015.69 Q27.4968 1010.88 27.4968 1002.54 Q27.4968 999.834 28.0697 997.256 Q28.6108 994.678 29.7248 992.259 Z" fill="#000000" fill-rule="evenodd" fill-opacity="1" /><path clip-path="url(#clip560)" d="M18.2347 976.281 L28.3562 976.281 L28.3562 964.218 L32.9077 964.218 L32.9077 976.281 L52.2594 976.281 Q56.6199 976.281 57.8613 975.104 Q59.1026 973.894 59.1026 970.234 L59.1026 964.218 L64.0042 964.218 L64.0042 970.234 Q64.0042 977.013 61.4897 979.591 Q58.9434 982.17 52.2594 982.17 L32.9077 982.17 L32.9077 986.466 L28.3562 986.466 L28.3562 982.17 L18.2347 982.17 L18.2347 976.281 Z" fill="#000000" fill-rule="evenodd" fill-opacity="1" /><path clip-path="url(#clip560)" d="M28.3562 956.516 L28.3562 950.659 L64.0042 950.659 L64.0042 956.516 L28.3562 956.516 M14.479 956.516 L14.479 950.659 L21.895 950.659 L21.895 956.516 L14.479 956.516 Z" fill="#000000" fill-rule="evenodd" fill-opacity="1" /><path clip-path="url(#clip560)" d="M28.3562 942.607 L28.3562 936.4 L58.275 925.26 L28.3562 914.12 L28.3562 907.914 L64.0042 921.282 L64.0042 929.239 L28.3562 942.607 Z" fill="#000000" fill-rule="evenodd" fill-opacity="1" /><path clip-path="url(#clip560)" d="M44.7161 869.337 L47.5806 869.337 L47.5806 896.264 Q53.6281 895.882 56.8109 892.636 Q59.9619 889.358 59.9619 883.533 Q59.9619 880.159 59.1344 877.008 Q58.3069 873.825 56.6518 870.706 L62.1899 870.706 Q63.5267 873.857 64.227 877.167 Q64.9272 880.477 64.9272 883.883 Q64.9272 892.413 59.9619 897.41 Q54.9967 902.375 46.5303 902.375 Q37.7774 902.375 32.6531 897.665 Q27.4968 892.922 27.4968 884.902 Q27.4968 877.708 32.1438 873.539 Q36.7589 869.337 44.7161 869.337 M42.9973 875.194 Q38.1912 875.258 35.3266 877.899 Q32.4621 880.509 32.4621 884.838 Q32.4621 889.739 35.2312 892.7 Q38.0002 895.628 43.0292 896.073 L42.9973 875.194 Z" fill="#000000" fill-rule="evenodd" fill-opacity="1" /><path clip-path="url(#clip560)" d="M46.0847 822.804 Q46.0847 829.902 47.7079 832.639 Q49.3312 835.376 53.2461 835.376 Q56.3653 835.376 58.2114 833.339 Q60.0256 831.27 60.0256 827.738 Q60.0256 822.868 56.5881 819.94 Q53.1188 816.979 47.3897 816.979 L46.0847 816.979 L46.0847 822.804 M43.6657 811.123 L64.0042 811.123 L64.0042 816.979 L58.5933 816.979 Q61.8398 818.985 63.3994 821.977 Q64.9272 824.968 64.9272 829.297 Q64.9272 834.772 61.8716 838.018 Q58.7843 841.233 53.6281 841.233 Q47.6125 841.233 44.5569 837.222 Q41.5014 833.18 41.5014 825.191 L41.5014 816.979 L40.9285 816.979 Q36.8862 816.979 34.6901 819.653 Q32.4621 822.295 32.4621 827.101 Q32.4621 830.156 33.1941 833.053 Q33.9262 835.949 35.3903 838.623 L29.9795 838.623 Q28.7381 835.408 28.1334 832.384 Q27.4968 829.361 27.4968 826.496 Q27.4968 818.762 31.5072 814.942 Q35.5176 811.123 43.6657 811.123 Z" fill="#000000" fill-rule="evenodd" fill-opacity="1" /><path clip-path="url(#clip560)" d="M29.4065 776.334 L34.9447 776.334 Q33.6716 778.817 33.035 781.491 Q32.3984 784.164 32.3984 787.029 Q32.3984 791.389 33.7352 793.585 Q35.072 795.75 37.7456 795.75 Q39.7826 795.75 40.9603 794.19 Q42.1061 792.631 43.1565 787.92 L43.6021 785.915 Q44.9389 779.676 47.3897 777.066 Q49.8086 774.425 54.1691 774.425 Q59.1344 774.425 62.0308 778.371 Q64.9272 782.286 64.9272 789.161 Q64.9272 792.026 64.3543 795.145 Q63.8132 798.232 62.6992 801.67 L56.6518 801.67 Q58.3387 798.423 59.198 795.272 Q60.0256 792.121 60.0256 789.034 Q60.0256 784.896 58.6251 782.668 Q57.1929 780.44 54.6147 780.44 Q52.2276 780.44 50.9545 782.064 Q49.6813 783.655 48.5037 789.098 L48.0262 791.135 Q46.8804 796.577 44.5251 798.996 Q42.138 801.415 38.0002 801.415 Q32.9713 801.415 30.2341 797.851 Q27.4968 794.286 27.4968 787.729 Q27.4968 784.483 27.9743 781.618 Q28.4517 778.753 29.4065 776.334 Z" fill="#000000" fill-rule="evenodd" fill-opacity="1" /><path clip-path="url(#clip560)" d="M67.3143 750.267 Q73.68 752.749 75.6216 755.105 Q77.5631 757.46 77.5631 761.407 L77.5631 766.086 L72.6615 766.086 L72.6615 762.648 Q72.6615 760.229 71.5157 758.892 Q70.3699 757.556 66.1048 755.932 L63.4312 754.882 L28.3562 769.3 L28.3562 763.094 L56.238 751.954 L28.3562 740.814 L28.3562 734.607 L67.3143 750.267 Z" fill="#000000" fill-rule="evenodd" fill-opacity="1" /><path clip-path="url(#clip560)" d="M35.1993 698.768 Q31.2526 696.572 29.3747 693.517 Q27.4968 690.461 27.4968 686.323 Q27.4968 680.753 31.4117 677.73 Q35.2948 674.706 42.4881 674.706 L64.0042 674.706 L64.0042 680.594 L42.679 680.594 Q37.5546 680.594 35.072 682.408 Q32.5894 684.223 32.5894 687.947 Q32.5894 692.498 35.6131 695.14 Q38.6368 697.782 43.8567 697.782 L64.0042 697.782 L64.0042 703.67 L42.679 703.67 Q37.5228 703.67 35.072 705.484 Q32.5894 707.298 32.5894 711.086 Q32.5894 715.574 35.6449 718.216 Q38.6686 720.857 43.8567 720.857 L64.0042 720.857 L64.0042 726.746 L28.3562 726.746 L28.3562 720.857 L33.8944 720.857 Q30.616 718.852 29.0564 716.051 Q27.4968 713.25 27.4968 709.399 Q27.4968 705.516 29.4702 702.811 Q31.4436 700.073 35.1993 698.768 Z" fill="#000000" fill-rule="evenodd" fill-opacity="1" /><path clip-path="url(#clip560)" d="M35.1993 635.27 Q31.2526 633.074 29.3747 630.019 Q27.4968 626.963 27.4968 622.825 Q27.4968 617.255 31.4117 614.232 Q35.2948 611.208 42.4881 611.208 L64.0042 611.208 L64.0042 617.096 L42.679 617.096 Q37.5546 617.096 35.072 618.911 Q32.5894 620.725 32.5894 624.449 Q32.5894 629 35.6131 631.642 Q38.6368 634.284 43.8567 634.284 L64.0042 634.284 L64.0042 640.172 L42.679 640.172 Q37.5228 640.172 35.072 641.986 Q32.5894 643.8 32.5894 647.588 Q32.5894 652.076 35.6449 654.718 Q38.6686 657.359 43.8567 657.359 L64.0042 657.359 L64.0042 663.248 L28.3562 663.248 L28.3562 657.359 L33.8944 657.359 Q30.616 655.354 29.0564 652.553 Q27.4968 649.752 27.4968 645.901 Q27.4968 642.018 29.4702 639.313 Q31.4436 636.575 35.1993 635.27 Z" fill="#000000" fill-rule="evenodd" fill-opacity="1" /><path clip-path="url(#clip560)" d="M44.7161 569.035 L47.5806 569.035 L47.5806 595.962 Q53.6281 595.58 56.8109 592.334 Q59.9619 589.055 59.9619 583.231 Q59.9619 579.857 59.1344 576.706 Q58.3069 573.523 56.6518 570.404 L62.1899 570.404 Q63.5267 573.555 64.227 576.865 Q64.9272 580.175 64.9272 583.581 Q64.9272 592.111 59.9619 597.108 Q54.9967 602.073 46.5303 602.073 Q37.7774 602.073 32.6531 597.363 Q27.4968 592.62 27.4968 584.599 Q27.4968 577.406 32.1438 573.237 Q36.7589 569.035 44.7161 569.035 M42.9973 574.892 Q38.1912 574.955 35.3266 577.597 Q32.4621 580.207 32.4621 584.536 Q32.4621 589.437 35.2312 592.397 Q38.0002 595.326 43.0292 595.771 L42.9973 574.892 Z" fill="#000000" fill-rule="evenodd" fill-opacity="1" /><path clip-path="url(#clip560)" d="M18.2347 553.63 L28.3562 553.63 L28.3562 541.567 L32.9077 541.567 L32.9077 553.63 L52.2594 553.63 Q56.6199 553.63 57.8613 552.453 Q59.1026 551.243 59.1026 547.583 L59.1026 541.567 L64.0042 541.567 L64.0042 547.583 Q64.0042 554.362 61.4897 556.94 Q58.9434 559.518 52.2594 559.518 L32.9077 559.518 L32.9077 563.815 L28.3562 563.815 L28.3562 559.518 L18.2347 559.518 L18.2347 553.63 Z" fill="#000000" fill-rule="evenodd" fill-opacity="1" /><path clip-path="url(#clip560)" d="M33.8307 513.208 Q33.2578 514.195 33.0032 515.372 Q32.7167 516.518 32.7167 517.919 Q32.7167 522.884 35.9632 525.557 Q39.1779 528.199 45.2253 528.199 L64.0042 528.199 L64.0042 534.087 L28.3562 534.087 L28.3562 528.199 L33.8944 528.199 Q30.6479 526.353 29.0883 523.393 Q27.4968 520.433 27.4968 516.2 Q27.4968 515.595 27.5923 514.863 Q27.656 514.131 27.8151 513.24 L33.8307 513.208 Z" fill="#000000" fill-rule="evenodd" fill-opacity="1" /><path clip-path="url(#clip560)" d="M67.3143 492.233 Q73.68 494.716 75.6216 497.071 Q77.5631 499.426 77.5631 503.373 L77.5631 508.052 L72.6615 508.052 L72.6615 504.614 Q72.6615 502.195 71.5157 500.858 Q70.3699 499.522 66.1048 497.898 L63.4312 496.848 L28.3562 511.266 L28.3562 505.06 L56.238 493.92 L28.3562 482.78 L28.3562 476.573 L67.3143 492.233 Z" fill="#000000" fill-rule="evenodd" fill-opacity="1" /><path clip-path="url(#clip560)" d="M14.5426 433.7 Q21.8632 437.965 29.0246 440.034 Q36.186 442.103 43.5384 442.103 Q50.8908 442.103 58.1159 440.034 Q65.3091 437.933 72.5979 433.7 L72.5979 438.793 Q65.1182 443.567 57.8931 445.954 Q50.668 448.31 43.5384 448.31 Q36.4406 448.31 29.2474 445.954 Q22.0542 443.599 14.5426 438.793 L14.5426 433.7 Z" fill="#000000" fill-rule="evenodd" fill-opacity="1" /><path clip-path="url(#clip560)" d="M46.212 396.747 Q39.7508 396.747 36.0905 399.421 Q32.3984 402.063 32.3984 406.71 Q32.3984 411.357 36.0905 414.03 Q39.7508 416.672 46.212 416.672 Q52.6732 416.672 56.3653 414.03 Q60.0256 411.357 60.0256 406.71 Q60.0256 402.063 56.3653 399.421 Q52.6732 396.747 46.212 396.747 M33.7671 416.672 Q30.5842 414.826 29.0564 412.025 Q27.4968 409.192 27.4968 405.277 Q27.4968 398.784 32.6531 394.742 Q37.8093 390.668 46.212 390.668 Q54.6147 390.668 59.771 394.742 Q64.9272 398.784 64.9272 405.277 Q64.9272 409.192 63.3994 412.025 Q61.8398 414.826 58.657 416.672 L64.0042 416.672 L64.0042 422.56 L14.479 422.56 L14.479 416.672 L33.7671 416.672 Z" fill="#000000" fill-rule="evenodd" fill-opacity="1" /><path clip-path="url(#clip560)" d="M28.3562 380.96 L28.3562 375.104 L64.0042 375.104 L64.0042 380.96 L28.3562 380.96 M14.479 380.96 L14.479 375.104 L21.895 375.104 L21.895 380.96 L14.479 380.96 Z" fill="#000000" fill-rule="evenodd" fill-opacity="1" /><path clip-path="url(#clip560)" d="M18.2347 357.057 L28.3562 357.057 L28.3562 344.994 L32.9077 344.994 L32.9077 357.057 L52.2594 357.057 Q56.6199 357.057 57.8613 355.88 Q59.1026 354.67 59.1026 351.01 L59.1026 344.994 L64.0042 344.994 L64.0042 351.01 Q64.0042 357.789 61.4897 360.367 Q58.9434 362.945 52.2594 362.945 L32.9077 362.945 L32.9077 367.242 L28.3562 367.242 L28.3562 362.945 L18.2347 362.945 L18.2347 357.057 Z" fill="#000000" fill-rule="evenodd" fill-opacity="1" /><path clip-path="url(#clip560)" d="M29.4065 314.566 L34.9447 314.566 Q33.6716 317.049 33.035 319.722 Q32.3984 322.396 32.3984 325.26 Q32.3984 329.621 33.7352 331.817 Q35.072 333.981 37.7456 333.981 Q39.7826 333.981 40.9603 332.422 Q42.1061 330.862 43.1565 326.152 L43.6021 324.146 Q44.9389 317.908 47.3897 315.298 Q49.8086 312.656 54.1691 312.656 Q59.1344 312.656 62.0308 316.603 Q64.9272 320.518 64.9272 327.393 Q64.9272 330.258 64.3543 333.377 Q63.8132 336.464 62.6992 339.902 L56.6518 339.902 Q58.3387 336.655 59.198 333.504 Q60.0256 330.353 60.0256 327.266 Q60.0256 323.128 58.6251 320.9 Q57.1929 318.672 54.6147 318.672 Q52.2276 318.672 50.9545 320.295 Q49.6813 321.887 48.5037 327.329 L48.0262 329.366 Q46.8804 334.809 44.5251 337.228 Q42.138 339.647 38.0002 339.647 Q32.9713 339.647 30.2341 336.082 Q27.4968 332.517 27.4968 325.961 Q27.4968 322.714 27.9743 319.85 Q28.4517 316.985 29.4065 314.566 Z" fill="#000000" fill-rule="evenodd" fill-opacity="1" /><path clip-path="url(#clip560)" d="M14.5426 304.254 L14.5426 299.161 Q22.0542 294.387 29.2474 292.031 Q36.4406 289.644 43.5384 289.644 Q50.668 289.644 57.8931 292.031 Q65.1182 294.387 72.5979 299.161 L72.5979 304.254 Q65.3091 300.02 58.1159 297.952 Q50.8908 295.851 43.5384 295.851 Q36.186 295.851 29.0246 297.952 Q21.8632 300.02 14.5426 304.254 Z" fill="#000000" fill-rule="evenodd" fill-opacity="1" /><polyline clip-path="url(#clip562)" style="stroke:#000000; stroke-linecap:round; stroke-linejoin:round; stroke-width:4; stroke-opacity:1; fill:none" points="
  344.853,759.875 561.455,750.997 778.058,747.406 994.66,746.26 1211.26,746.436 1427.86,743.663 1644.47,744.515 1861.07,745.953 2077.67,743.964 2294.27,741.797 
  
  "/>
<polyline clip-path="url(#clip562)" style="stroke:#ff0000; stroke-linecap:round; stroke-linejoin:round; stroke-width:4; stroke-opacity:1; fill:none" points="
  344.853,732.43 561.455,726.905 778.058,728.269 994.66,731.924 1211.26,733.889 1427.86,732.681 1644.47,734.608 1861.07,735.788 2077.67,736.386 2294.27,736.461 
  
  "/>
<path clip-path="url(#clip560)" d="
M1916.43 248.629 L2283.88 248.629 L2283.88 93.1086 L1916.43 93.1086  Z
  " fill="#ffffff" fill-rule="evenodd" fill-opacity="1"/>
<polyline clip-path="url(#clip560)" style="stroke:#000000; stroke-linecap:round; stroke-linejoin:round; stroke-width:4; stroke-opacity:1; fill:none" points="
  1916.43,248.629 2283.88,248.629 2283.88,93.1086 1916.43,93.1086 1916.43,248.629 
  "/>
<polyline clip-path="url(#clip560)" style="stroke:#000000; stroke-linecap:round; stroke-linejoin:round; stroke-width:4; stroke-opacity:1; fill:none" points="
  1939.39,144.949 2077.15,144.949 
  "/>
<path clip-path="url(#clip560)" d="M2101.68 127.669 L2106.71 127.669 L2115.3 140.516 L2123.93 127.669 L2128.95 127.669 L2117.84 144.266 L2129.69 162.229 L2124.67 162.229 L2114.95 147.53 L2105.16 162.229 L2100.11 162.229 L2112.45 143.78 L2101.68 127.669 Z" fill="#000000" fill-rule="evenodd" fill-opacity="1" /><path clip-path="url(#clip560)" d="M2154.92 128.942 L2154.92 136.303 L2163.7 136.303 L2163.7 139.613 L2154.92 139.613 L2154.92 153.687 Q2154.92 156.858 2155.78 157.761 Q2156.66 158.664 2159.32 158.664 L2163.7 158.664 L2163.7 162.229 L2159.32 162.229 Q2154.39 162.229 2152.52 160.4 Q2150.64 158.548 2150.64 153.687 L2150.64 139.613 L2147.52 139.613 L2147.52 136.303 L2150.64 136.303 L2150.64 128.942 L2154.92 128.942 Z" fill="#000000" fill-rule="evenodd" fill-opacity="1" /><path clip-path="url(#clip560)" d="M2179.35 139.289 Q2175.92 139.289 2173.93 141.974 Q2171.94 144.636 2171.94 149.289 Q2171.94 153.942 2173.91 156.627 Q2175.9 159.289 2179.35 159.289 Q2182.75 159.289 2184.74 156.604 Q2186.73 153.918 2186.73 149.289 Q2186.73 144.682 2184.74 141.997 Q2182.75 139.289 2179.35 139.289 M2179.35 135.678 Q2184.9 135.678 2188.07 139.289 Q2191.24 142.9 2191.24 149.289 Q2191.24 155.655 2188.07 159.289 Q2184.9 162.9 2179.35 162.9 Q2173.77 162.9 2170.6 159.289 Q2167.45 155.655 2167.45 149.289 Q2167.45 142.9 2170.6 139.289 Q2173.77 135.678 2179.35 135.678 Z" fill="#000000" fill-rule="evenodd" fill-opacity="1" /><path clip-path="url(#clip560)" d="M2208.81 127.669 L2213.84 127.669 L2223.42 141.882 L2232.93 127.669 L2237.96 127.669 L2225.73 145.77 L2225.73 162.229 L2221.04 162.229 L2221.04 145.77 L2208.81 127.669 Z" fill="#000000" fill-rule="evenodd" fill-opacity="1" /><polyline clip-path="url(#clip560)" style="stroke:#ff0000; stroke-linecap:round; stroke-linejoin:round; stroke-width:4; stroke-opacity:1; fill:none" points="
  1939.39,196.789 2077.15,196.789 
  "/>
<path clip-path="url(#clip560)" d="M2100.11 179.509 L2105.13 179.509 L2114.72 193.722 L2124.23 179.509 L2129.25 179.509 L2117.03 197.61 L2117.03 214.069 L2112.33 214.069 L2112.33 197.61 L2100.11 179.509 Z" fill="#000000" fill-rule="evenodd" fill-opacity="1" /><path clip-path="url(#clip560)" d="M2152.91 180.782 L2152.91 188.143 L2161.68 188.143 L2161.68 191.453 L2152.91 191.453 L2152.91 205.527 Q2152.91 208.698 2153.77 209.601 Q2154.65 210.504 2157.31 210.504 L2161.68 210.504 L2161.68 214.069 L2157.31 214.069 Q2152.38 214.069 2150.5 212.24 Q2148.63 210.388 2148.63 205.527 L2148.63 191.453 L2145.5 191.453 L2145.5 188.143 L2148.63 188.143 L2148.63 180.782 L2152.91 180.782 Z" fill="#000000" fill-rule="evenodd" fill-opacity="1" /><path clip-path="url(#clip560)" d="M2177.33 191.129 Q2173.91 191.129 2171.92 193.814 Q2169.92 196.476 2169.92 201.129 Q2169.92 205.782 2171.89 208.467 Q2173.88 211.129 2177.33 211.129 Q2180.73 211.129 2182.73 208.444 Q2184.72 205.758 2184.72 201.129 Q2184.72 196.522 2182.73 193.837 Q2180.73 191.129 2177.33 191.129 M2177.33 187.518 Q2182.89 187.518 2186.06 191.129 Q2189.23 194.74 2189.23 201.129 Q2189.23 207.495 2186.06 211.129 Q2182.89 214.74 2177.33 214.74 Q2171.75 214.74 2168.58 211.129 Q2165.43 207.495 2165.43 201.129 Q2165.43 194.74 2168.58 191.129 Q2171.75 187.518 2177.33 187.518 Z" fill="#000000" fill-rule="evenodd" fill-opacity="1" /><path clip-path="url(#clip560)" d="M2209.88 179.509 L2214.9 179.509 L2223.49 192.356 L2232.12 179.509 L2237.15 179.509 L2226.04 196.106 L2237.89 214.069 L2232.86 214.069 L2223.14 199.37 L2213.35 214.069 L2208.3 214.069 L2220.64 195.62 L2209.88 179.509 Z" fill="#000000" fill-rule="evenodd" fill-opacity="1" /></svg>
