<?xml version="1.0" encoding="utf-8"?>
<svg xmlns="http://www.w3.org/2000/svg" xmlns:xlink="http://www.w3.org/1999/xlink" width="600" height="400" viewBox="0 0 2400 1600">
<defs>
  <clipPath id="clip680">
    <rect x="0" y="0" width="2400" height="1600"/>
  </clipPath>
</defs>
<path clip-path="url(#clip680)" d="
M0 1600 L2400 1600 L2400 0 L0 0  Z
  " fill="#ffffff" fill-rule="evenodd" fill-opacity="1"/>
<defs>
  <clipPath id="clip681">
    <rect x="480" y="0" width="1681" height="1600"/>
  </clipPath>
</defs>
<path clip-path="url(#clip680)" d="
M249.542 1423.18 L2352.76 1423.18 L2352.76 47.2441 L249.542 47.2441  Z
  " fill="#ffffff" fill-rule="evenodd" fill-opacity="1"/>
<defs>
  <clipPath id="clip682">
    <rect x="249" y="47" width="2104" height="1377"/>
  </clipPath>
</defs>
<polyline clip-path="url(#clip682)" style="stroke:#000000; stroke-linecap:round; stroke-linejoin:round; stroke-width:2; stroke-opacity:0.1; fill:none" points="
  309.067,1423.18 309.067,47.2441 
  "/>
<polyline clip-path="url(#clip682)" style="stroke:#000000; stroke-linecap:round; stroke-linejoin:round; stroke-width:2; stroke-opacity:0.1; fill:none" points="
  805.108,1423.18 805.108,47.2441 
  "/>
<polyline clip-path="url(#clip682)" style="stroke:#000000; stroke-linecap:round; stroke-linejoin:round; stroke-width:2; stroke-opacity:0.1; fill:none" points="
  1301.15,1423.18 1301.15,47.2441 
  "/>
<polyline clip-path="url(#clip682)" style="stroke:#000000; stroke-linecap:round; stroke-linejoin:round; stroke-width:2; stroke-opacity:0.1; fill:none" points="
  1797.19,1423.18 1797.19,47.2441 
  "/>
<polyline clip-path="url(#clip682)" style="stroke:#000000; stroke-linecap:round; stroke-linejoin:round; stroke-width:2; stroke-opacity:0.1; fill:none" points="
  2293.23,1423.18 2293.23,47.2441 
  "/>
<polyline clip-path="url(#clip680)" style="stroke:#000000; stroke-linecap:round; stroke-linejoin:round; stroke-width:4; stroke-opacity:1; fill:none" points="
  249.542,1423.18 2352.76,1423.18 
  "/>
<polyline clip-path="url(#clip680)" style="stroke:#000000; stroke-linecap:round; stroke-linejoin:round; stroke-width:4; stroke-opacity:1; fill:none" points="
  309.067,1423.18 309.067,1404.28 
  "/>
<polyline clip-path="url(#clip680)" style="stroke:#000000; stroke-linecap:round; stroke-linejoin:round; stroke-width:4; stroke-opacity:1; fill:none" points="
  805.108,1423.18 805.108,1404.28 
  "/>
<polyline clip-path="url(#clip680)" style="stroke:#000000; stroke-linecap:round; stroke-linejoin:round; stroke-width:4; stroke-opacity:1; fill:none" points="
  1301.15,1423.18 1301.15,1404.28 
  "/>
<polyline clip-path="url(#clip680)" style="stroke:#000000; stroke-linecap:round; stroke-linejoin:round; stroke-width:4; stroke-opacity:1; fill:none" points="
  1797.19,1423.18 1797.19,1404.28 
  "/>
<polyline clip-path="url(#clip680)" style="stroke:#000000; stroke-linecap:round; stroke-linejoin:round; stroke-width:4; stroke-opacity:1; fill:none" points="
  2293.23,1423.18 2293.23,1404.28 
  "/>
<path clip-path="url(#clip680)" d="M303.72 1481.64 L320.039 1481.64 L320.039 1485.58 L298.095 1485.58 L298.095 1481.64 Q300.757 1478.89 305.34 1474.26 Q309.947 1469.61 311.127 1468.27 Q313.372 1465.74 314.252 1464.01 Q315.155 1462.25 315.155 1460.56 Q315.155 1457.8 313.21 1456.07 Q311.289 1454.33 308.187 1454.33 Q305.988 1454.33 303.535 1455.09 Q301.104 1455.86 298.326 1457.41 L298.326 1452.69 Q301.15 1451.55 303.604 1450.97 Q306.058 1450.39 308.095 1450.39 Q313.465 1450.39 316.66 1453.08 Q319.854 1455.77 319.854 1460.26 Q319.854 1462.39 319.044 1464.31 Q318.257 1466.2 316.15 1468.8 Q315.572 1469.47 312.47 1472.69 Q309.368 1475.88 303.72 1481.64 Z" fill="#000000" fill-rule="evenodd" fill-opacity="1" /><path clip-path="url(#clip680)" d="M808.117 1455.09 L796.312 1473.54 L808.117 1473.54 L808.117 1455.09 M806.89 1451.02 L812.77 1451.02 L812.77 1473.54 L817.7 1473.54 L817.7 1477.43 L812.77 1477.43 L812.77 1485.58 L808.117 1485.58 L808.117 1477.43 L792.515 1477.43 L792.515 1472.92 L806.89 1451.02 Z" fill="#000000" fill-rule="evenodd" fill-opacity="1" /><path clip-path="url(#clip680)" d="M1301.55 1466.44 Q1298.41 1466.44 1296.55 1468.59 Q1294.73 1470.74 1294.73 1474.49 Q1294.73 1478.22 1296.55 1480.39 Q1298.41 1482.55 1301.55 1482.55 Q1304.7 1482.55 1306.53 1480.39 Q1308.38 1478.22 1308.38 1474.49 Q1308.38 1470.74 1306.53 1468.59 Q1304.7 1466.44 1301.55 1466.44 M1310.84 1451.78 L1310.84 1456.04 Q1309.08 1455.21 1307.27 1454.77 Q1305.49 1454.33 1303.73 1454.33 Q1299.1 1454.33 1296.65 1457.45 Q1294.22 1460.58 1293.87 1466.9 Q1295.23 1464.89 1297.29 1463.82 Q1299.35 1462.73 1301.83 1462.73 Q1307.04 1462.73 1310.05 1465.9 Q1313.08 1469.05 1313.08 1474.49 Q1313.08 1479.82 1309.93 1483.03 Q1306.79 1486.25 1301.55 1486.25 Q1295.56 1486.25 1292.39 1481.67 Q1289.22 1477.06 1289.22 1468.33 Q1289.22 1460.14 1293.11 1455.28 Q1296.99 1450.39 1303.54 1450.39 Q1305.3 1450.39 1307.09 1450.74 Q1308.89 1451.09 1310.84 1451.78 Z" fill="#000000" fill-rule="evenodd" fill-opacity="1" /><path clip-path="url(#clip680)" d="M1797.19 1469.17 Q1793.86 1469.17 1791.94 1470.95 Q1790.04 1472.73 1790.04 1475.86 Q1790.04 1478.98 1791.94 1480.77 Q1793.86 1482.55 1797.19 1482.55 Q1800.52 1482.55 1802.44 1480.77 Q1804.37 1478.96 1804.37 1475.86 Q1804.37 1472.73 1802.44 1470.95 Q1800.55 1469.17 1797.19 1469.17 M1792.51 1467.18 Q1789.5 1466.44 1787.82 1464.38 Q1786.15 1462.32 1786.15 1459.35 Q1786.15 1455.21 1789.09 1452.8 Q1792.05 1450.39 1797.19 1450.39 Q1802.35 1450.39 1805.29 1452.8 Q1808.23 1455.21 1808.23 1459.35 Q1808.23 1462.32 1806.54 1464.38 Q1804.88 1466.44 1801.89 1467.18 Q1805.27 1467.96 1807.14 1470.26 Q1809.04 1472.55 1809.04 1475.86 Q1809.04 1480.88 1805.96 1483.57 Q1802.91 1486.25 1797.19 1486.25 Q1791.47 1486.25 1788.39 1483.57 Q1785.34 1480.88 1785.34 1475.86 Q1785.34 1472.55 1787.24 1470.26 Q1789.13 1467.96 1792.51 1467.18 M1790.8 1459.79 Q1790.8 1462.48 1792.47 1463.98 Q1794.16 1465.49 1797.19 1465.49 Q1800.2 1465.49 1801.89 1463.98 Q1803.6 1462.48 1803.6 1459.79 Q1803.6 1457.11 1801.89 1455.6 Q1800.2 1454.1 1797.19 1454.1 Q1794.16 1454.1 1792.47 1455.6 Q1790.8 1457.11 1790.8 1459.79 Z" fill="#000000" fill-rule="evenodd" fill-opacity="1" /><path clip-path="url(#clip680)" d="M2267.92 1481.64 L2275.56 1481.64 L2275.56 1455.28 L2267.25 1456.95 L2267.25 1452.69 L2275.51 1451.02 L2280.19 1451.02 L2280.19 1481.64 L2287.83 1481.64 L2287.83 1485.58 L2267.92 1485.58 L2267.92 1481.64 Z" fill="#000000" fill-rule="evenodd" fill-opacity="1" /><path clip-path="url(#clip680)" d="M2307.27 1454.1 Q2303.66 1454.1 2301.83 1457.66 Q2300.02 1461.2 2300.02 1468.33 Q2300.02 1475.44 2301.83 1479.01 Q2303.66 1482.55 2307.27 1482.55 Q2310.9 1482.55 2312.71 1479.01 Q2314.54 1475.44 2314.54 1468.33 Q2314.54 1461.2 2312.71 1457.66 Q2310.9 1454.1 2307.27 1454.1 M2307.27 1450.39 Q2313.08 1450.39 2316.14 1455 Q2319.21 1459.58 2319.21 1468.33 Q2319.21 1477.06 2316.14 1481.67 Q2313.08 1486.25 2307.27 1486.25 Q2301.46 1486.25 2298.38 1481.67 Q2295.33 1477.06 2295.33 1468.33 Q2295.33 1459.58 2298.38 1455 Q2301.46 1450.39 2307.27 1450.39 Z" fill="#000000" fill-rule="evenodd" fill-opacity="1" /><path clip-path="url(#clip680)" d="M946.77 1539.37 L937.508 1539.37 L934.834 1550 L944.16 1550 L946.77 1539.37 M941.996 1521.26 L938.686 1534.46 L947.98 1534.46 L951.322 1521.26 L956.414 1521.26 L953.136 1534.46 L963.066 1534.46 L963.066 1539.37 L951.894 1539.37 L949.285 1550 L959.406 1550 L959.406 1554.87 L948.043 1554.87 L944.733 1568.04 L939.64 1568.04 L942.919 1554.87 L933.593 1554.87 L930.315 1568.04 L925.19 1568.04 L928.501 1554.87 L918.475 1554.87 L918.475 1550 L929.678 1550 L932.352 1539.37 L922.103 1539.37 L922.103 1534.46 L933.593 1534.46 L936.84 1521.26 L941.996 1521.26 Z" fill="#000000" fill-rule="evenodd" fill-opacity="1" /><path clip-path="url(#clip680)" d="M1024.56 1546.53 L1024.56 1568.04 L1018.7 1568.04 L1018.7 1546.72 Q1018.7 1541.66 1016.73 1539.14 Q1014.76 1536.63 1010.81 1536.63 Q1006.07 1536.63 1003.33 1539.65 Q1000.59 1542.68 1000.59 1547.9 L1000.59 1568.04 L994.704 1568.04 L994.704 1532.4 L1000.59 1532.4 L1000.59 1537.93 Q1002.69 1534.72 1005.53 1533.13 Q1008.39 1531.54 1012.11 1531.54 Q1018.26 1531.54 1021.41 1535.36 Q1024.56 1539.14 1024.56 1546.53 Z" fill="#000000" fill-rule="evenodd" fill-opacity="1" /><path clip-path="url(#clip680)" d="M1066.73 1548.76 L1066.73 1551.62 L1039.8 1551.62 Q1040.19 1557.67 1043.43 1560.85 Q1046.71 1564 1052.54 1564 Q1055.91 1564 1059.06 1563.17 Q1062.24 1562.35 1065.36 1560.69 L1065.36 1566.23 Q1062.21 1567.57 1058.9 1568.27 Q1055.59 1568.97 1052.19 1568.97 Q1043.66 1568.97 1038.66 1564 Q1033.69 1559.04 1033.69 1550.57 Q1033.69 1541.82 1038.4 1536.69 Q1043.15 1531.54 1051.17 1531.54 Q1058.36 1531.54 1062.53 1536.18 Q1066.73 1540.8 1066.73 1548.76 M1060.88 1547.04 Q1060.81 1542.23 1058.17 1539.37 Q1055.56 1536.5 1051.23 1536.5 Q1046.33 1536.5 1043.37 1539.27 Q1040.44 1542.04 1040 1547.07 L1060.88 1547.04 Z" fill="#000000" fill-rule="evenodd" fill-opacity="1" /><path clip-path="url(#clip680)" d="M1092.54 1550.12 Q1085.45 1550.12 1082.71 1551.75 Q1079.97 1553.37 1079.97 1557.29 Q1079.97 1560.4 1082.01 1562.25 Q1084.08 1564.07 1087.61 1564.07 Q1092.48 1564.07 1095.41 1560.63 Q1098.37 1557.16 1098.37 1551.43 L1098.37 1550.12 L1092.54 1550.12 M1104.23 1547.71 L1104.23 1568.04 L1098.37 1568.04 L1098.37 1562.63 Q1096.36 1565.88 1093.37 1567.44 Q1090.38 1568.97 1086.05 1568.97 Q1080.58 1568.97 1077.33 1565.91 Q1074.12 1562.82 1074.12 1557.67 Q1074.12 1551.65 1078.13 1548.6 Q1082.17 1545.54 1090.16 1545.54 L1098.37 1545.54 L1098.37 1544.97 Q1098.37 1540.93 1095.7 1538.73 Q1093.05 1536.5 1088.25 1536.5 Q1085.19 1536.5 1082.3 1537.23 Q1079.4 1537.97 1076.73 1539.43 L1076.73 1534.02 Q1079.94 1532.78 1082.96 1532.17 Q1085.99 1531.54 1088.85 1531.54 Q1096.59 1531.54 1100.41 1535.55 Q1104.23 1539.56 1104.23 1547.71 Z" fill="#000000" fill-rule="evenodd" fill-opacity="1" /><path clip-path="url(#clip680)" d="M1136.95 1537.87 Q1135.96 1537.3 1134.78 1537.04 Q1133.64 1536.76 1132.23 1536.76 Q1127.27 1536.76 1124.6 1540 Q1121.95 1543.22 1121.95 1549.27 L1121.95 1568.04 L1116.07 1568.04 L1116.07 1532.4 L1121.95 1532.4 L1121.95 1537.93 Q1123.8 1534.69 1126.76 1533.13 Q1129.72 1531.54 1133.95 1531.54 Q1134.56 1531.54 1135.29 1531.63 Q1136.02 1531.7 1136.91 1531.85 L1136.95 1537.87 Z" fill="#000000" fill-rule="evenodd" fill-opacity="1" /><path clip-path="url(#clip680)" d="M1172.15 1548.76 L1172.15 1551.62 L1145.22 1551.62 Q1145.6 1557.67 1148.85 1560.85 Q1152.13 1564 1157.95 1564 Q1161.33 1564 1164.48 1563.17 Q1167.66 1562.35 1170.78 1560.69 L1170.78 1566.23 Q1167.63 1567.57 1164.32 1568.27 Q1161.01 1568.97 1157.6 1568.97 Q1149.07 1568.97 1144.08 1564 Q1139.11 1559.04 1139.11 1550.57 Q1139.11 1541.82 1143.82 1536.69 Q1148.56 1531.54 1156.58 1531.54 Q1163.78 1531.54 1167.95 1536.18 Q1172.15 1540.8 1172.15 1548.76 M1166.29 1547.04 Q1166.23 1542.23 1163.59 1539.37 Q1160.98 1536.5 1156.65 1536.5 Q1151.75 1536.5 1148.79 1539.27 Q1145.86 1542.04 1145.41 1547.07 L1166.29 1547.04 Z" fill="#000000" fill-rule="evenodd" fill-opacity="1" /><path clip-path="url(#clip680)" d="M1204.49 1533.45 L1204.49 1538.98 Q1202 1537.71 1199.33 1537.07 Q1196.66 1536.44 1193.79 1536.44 Q1189.43 1536.44 1187.23 1537.77 Q1185.07 1539.11 1185.07 1541.79 Q1185.07 1543.82 1186.63 1545 Q1188.19 1546.15 1192.9 1547.2 L1194.91 1547.64 Q1201.14 1548.98 1203.75 1551.43 Q1206.4 1553.85 1206.4 1558.21 Q1206.4 1563.17 1202.45 1566.07 Q1198.53 1568.97 1191.66 1568.97 Q1188.79 1568.97 1185.68 1568.39 Q1182.59 1567.85 1179.15 1566.74 L1179.15 1560.69 Q1182.4 1562.38 1185.55 1563.24 Q1188.7 1564.07 1191.79 1564.07 Q1195.92 1564.07 1198.15 1562.66 Q1200.38 1561.23 1200.38 1558.65 Q1200.38 1556.27 1198.76 1554.99 Q1197.17 1553.72 1191.72 1552.54 L1189.69 1552.07 Q1184.24 1550.92 1181.82 1548.56 Q1179.4 1546.18 1179.4 1542.04 Q1179.4 1537.01 1182.97 1534.27 Q1186.53 1531.54 1193.09 1531.54 Q1196.34 1531.54 1199.2 1532.01 Q1202.07 1532.49 1204.49 1533.45 Z" fill="#000000" fill-rule="evenodd" fill-opacity="1" /><path clip-path="url(#clip680)" d="M1221.51 1522.27 L1221.51 1532.4 L1233.58 1532.4 L1233.58 1536.95 L1221.51 1536.95 L1221.51 1556.3 Q1221.51 1560.66 1222.69 1561.9 Q1223.9 1563.14 1227.56 1563.14 L1233.58 1563.14 L1233.58 1568.04 L1227.56 1568.04 Q1220.78 1568.04 1218.2 1565.53 Q1215.63 1562.98 1215.63 1556.3 L1215.63 1536.95 L1211.33 1536.95 L1211.33 1532.4 L1215.63 1532.4 L1215.63 1522.27 L1221.51 1522.27 Z" fill="#000000" fill-rule="evenodd" fill-opacity="1" /><path clip-path="url(#clip680)" d="M1291.63 1546.53 L1291.63 1568.04 L1285.78 1568.04 L1285.78 1546.72 Q1285.78 1541.66 1283.8 1539.14 Q1281.83 1536.63 1277.88 1536.63 Q1273.14 1536.63 1270.4 1539.65 Q1267.67 1542.68 1267.67 1547.9 L1267.67 1568.04 L1261.78 1568.04 L1261.78 1532.4 L1267.67 1532.4 L1267.67 1537.93 Q1269.77 1534.72 1272.6 1533.13 Q1275.46 1531.54 1279.19 1531.54 Q1285.33 1531.54 1288.48 1535.36 Q1291.63 1539.14 1291.63 1546.53 Z" fill="#000000" fill-rule="evenodd" fill-opacity="1" /><path clip-path="url(#clip680)" d="M1333.81 1548.76 L1333.81 1551.62 L1306.88 1551.62 Q1307.26 1557.67 1310.51 1560.85 Q1313.78 1564 1319.61 1564 Q1322.98 1564 1326.13 1563.17 Q1329.32 1562.35 1332.44 1560.69 L1332.44 1566.23 Q1329.29 1567.57 1325.98 1568.27 Q1322.67 1568.97 1319.26 1568.97 Q1310.73 1568.97 1305.73 1564 Q1300.77 1559.04 1300.77 1550.57 Q1300.77 1541.82 1305.48 1536.69 Q1310.22 1531.54 1318.24 1531.54 Q1325.43 1531.54 1329.6 1536.18 Q1333.81 1540.8 1333.81 1548.76 M1327.95 1547.04 Q1327.88 1542.23 1325.24 1539.37 Q1322.63 1536.5 1318.3 1536.5 Q1313.4 1536.5 1310.44 1539.27 Q1307.51 1542.04 1307.07 1547.07 L1327.95 1547.04 Z" fill="#000000" fill-rule="evenodd" fill-opacity="1" /><path clip-path="url(#clip680)" d="M1343.42 1532.4 L1349.27 1532.4 L1349.27 1568.04 L1343.42 1568.04 L1343.42 1532.4 M1343.42 1518.52 L1349.27 1518.52 L1349.27 1525.93 L1343.42 1525.93 L1343.42 1518.52 Z" fill="#000000" fill-rule="evenodd" fill-opacity="1" /><path clip-path="url(#clip680)" d="M1384.99 1549.81 Q1384.99 1543.44 1382.34 1539.94 Q1379.73 1536.44 1374.99 1536.44 Q1370.28 1536.44 1367.64 1539.94 Q1365.03 1543.44 1365.03 1549.81 Q1365.03 1556.14 1367.64 1559.64 Q1370.28 1563.14 1374.99 1563.14 Q1379.73 1563.14 1382.34 1559.64 Q1384.99 1556.14 1384.99 1549.81 M1390.84 1563.62 Q1390.84 1572.72 1386.8 1577.15 Q1382.76 1581.6 1374.42 1581.6 Q1371.33 1581.6 1368.59 1581.13 Q1365.86 1580.68 1363.28 1579.72 L1363.28 1574.03 Q1365.86 1575.43 1368.37 1576.1 Q1370.89 1576.76 1373.5 1576.76 Q1379.26 1576.76 1382.12 1573.74 Q1384.99 1570.75 1384.99 1564.67 L1384.99 1561.77 Q1383.17 1564.92 1380.34 1566.48 Q1377.51 1568.04 1373.56 1568.04 Q1367 1568.04 1362.99 1563.05 Q1358.98 1558.05 1358.98 1549.81 Q1358.98 1541.53 1362.99 1536.53 Q1367 1531.54 1373.56 1531.54 Q1377.51 1531.54 1380.34 1533.1 Q1383.17 1534.66 1384.99 1537.81 L1384.99 1532.4 L1390.84 1532.4 L1390.84 1563.62 Z" fill="#000000" fill-rule="evenodd" fill-opacity="1" /><path clip-path="url(#clip680)" d="M1432.54 1546.53 L1432.54 1568.04 L1426.68 1568.04 L1426.68 1546.72 Q1426.68 1541.66 1424.71 1539.14 Q1422.73 1536.63 1418.79 1536.63 Q1414.04 1536.63 1411.31 1539.65 Q1408.57 1542.68 1408.57 1547.9 L1408.57 1568.04 L1402.68 1568.04 L1402.68 1518.52 L1408.57 1518.52 L1408.57 1537.93 Q1410.67 1534.72 1413.5 1533.13 Q1416.37 1531.54 1420.09 1531.54 Q1426.24 1531.54 1429.39 1535.36 Q1432.54 1539.14 1432.54 1546.53 Z" fill="#000000" fill-rule="evenodd" fill-opacity="1" /><path clip-path="url(#clip680)" d="M1469.81 1550.25 Q1469.81 1543.79 1467.13 1540.13 Q1464.49 1536.44 1459.85 1536.44 Q1455.2 1536.44 1452.53 1540.13 Q1449.88 1543.79 1449.88 1550.25 Q1449.88 1556.71 1452.53 1560.4 Q1455.2 1564.07 1459.85 1564.07 Q1464.49 1564.07 1467.13 1560.4 Q1469.81 1556.71 1469.81 1550.25 M1449.88 1537.81 Q1451.73 1534.62 1454.53 1533.1 Q1457.36 1531.54 1461.28 1531.54 Q1467.77 1531.54 1471.81 1536.69 Q1475.89 1541.85 1475.89 1550.25 Q1475.89 1558.65 1471.81 1563.81 Q1467.77 1568.97 1461.28 1568.97 Q1457.36 1568.97 1454.53 1567.44 Q1451.73 1565.88 1449.88 1562.7 L1449.88 1568.04 L1444 1568.04 L1444 1518.52 L1449.88 1518.52 L1449.88 1537.81 Z" fill="#000000" fill-rule="evenodd" fill-opacity="1" /><path clip-path="url(#clip680)" d="M1499.41 1536.5 Q1494.7 1536.5 1491.96 1540.19 Q1489.22 1543.85 1489.22 1550.25 Q1489.22 1556.65 1491.93 1560.34 Q1494.67 1564 1499.41 1564 Q1504.09 1564 1506.82 1560.31 Q1509.56 1556.62 1509.56 1550.25 Q1509.56 1543.92 1506.82 1540.23 Q1504.09 1536.5 1499.41 1536.5 M1499.41 1531.54 Q1507.05 1531.54 1511.41 1536.5 Q1515.77 1541.47 1515.77 1550.25 Q1515.77 1559 1511.41 1564 Q1507.05 1568.97 1499.41 1568.97 Q1491.74 1568.97 1487.38 1564 Q1483.05 1559 1483.05 1550.25 Q1483.05 1541.47 1487.38 1536.5 Q1491.74 1531.54 1499.41 1531.54 Z" fill="#000000" fill-rule="evenodd" fill-opacity="1" /><path clip-path="url(#clip680)" d="M1546.13 1537.87 Q1545.15 1537.3 1543.97 1537.04 Q1542.82 1536.76 1541.42 1536.76 Q1536.46 1536.76 1533.78 1540 Q1531.14 1543.22 1531.14 1549.27 L1531.14 1568.04 L1525.25 1568.04 L1525.25 1532.4 L1531.14 1532.4 L1531.14 1537.93 Q1532.99 1534.69 1535.95 1533.13 Q1538.91 1531.54 1543.14 1531.54 Q1543.75 1531.54 1544.48 1531.63 Q1545.21 1531.7 1546.1 1531.85 L1546.13 1537.87 Z" fill="#000000" fill-rule="evenodd" fill-opacity="1" /><path clip-path="url(#clip680)" d="M1575 1533.45 L1575 1538.98 Q1572.52 1537.71 1569.85 1537.07 Q1567.17 1536.44 1564.31 1536.44 Q1559.95 1536.44 1557.75 1537.77 Q1555.59 1539.11 1555.59 1541.79 Q1555.59 1543.82 1557.15 1545 Q1558.71 1546.15 1563.42 1547.2 L1565.42 1547.64 Q1571.66 1548.98 1574.27 1551.43 Q1576.91 1553.85 1576.91 1558.21 Q1576.91 1563.17 1572.96 1566.07 Q1569.05 1568.97 1562.17 1568.97 Q1559.31 1568.97 1556.19 1568.39 Q1553.1 1567.85 1549.67 1566.74 L1549.67 1560.69 Q1552.91 1562.38 1556.06 1563.24 Q1559.21 1564.07 1562.3 1564.07 Q1566.44 1564.07 1568.67 1562.66 Q1570.9 1561.23 1570.9 1558.65 Q1570.9 1556.27 1569.27 1554.99 Q1567.68 1553.72 1562.24 1552.54 L1560.2 1552.07 Q1554.76 1550.92 1552.34 1548.56 Q1549.92 1546.18 1549.92 1542.04 Q1549.92 1537.01 1553.49 1534.27 Q1557.05 1531.54 1563.61 1531.54 Q1566.85 1531.54 1569.72 1532.01 Q1572.58 1532.49 1575 1533.45 Z" fill="#000000" fill-rule="evenodd" fill-opacity="1" /><path clip-path="url(#clip680)" d="M1621.03 1518.58 Q1616.76 1525.9 1614.69 1533.06 Q1612.62 1540.23 1612.62 1547.58 Q1612.62 1554.93 1614.69 1562.16 Q1616.79 1569.35 1621.03 1576.64 L1615.93 1576.64 Q1611.16 1569.16 1608.77 1561.93 Q1606.42 1554.71 1606.42 1547.58 Q1606.42 1540.48 1608.77 1533.29 Q1611.13 1526.09 1615.93 1518.58 L1621.03 1518.58 Z" fill="#000000" fill-rule="evenodd" fill-opacity="1" /><path clip-path="url(#clip680)" d="M1632.17 1518.52 L1638.05 1518.52 L1638.05 1547.77 L1655.53 1532.4 L1663.01 1532.4 L1644.1 1549.07 L1663.8 1568.04 L1656.16 1568.04 L1638.05 1550.63 L1638.05 1568.04 L1632.17 1568.04 L1632.17 1518.52 Z" fill="#000000" fill-rule="evenodd" fill-opacity="1" /><path clip-path="url(#clip680)" d="M1669.21 1518.58 L1674.31 1518.58 Q1679.08 1526.09 1681.44 1533.29 Q1683.82 1540.48 1683.82 1547.58 Q1683.82 1554.71 1681.44 1561.93 Q1679.08 1569.16 1674.31 1576.64 L1669.21 1576.64 Q1673.45 1569.35 1675.52 1562.16 Q1677.62 1554.93 1677.62 1547.58 Q1677.62 1540.23 1675.52 1533.06 Q1673.45 1525.9 1669.21 1518.58 Z" fill="#000000" fill-rule="evenodd" fill-opacity="1" /><polyline clip-path="url(#clip682)" style="stroke:#000000; stroke-linecap:round; stroke-linejoin:round; stroke-width:2; stroke-opacity:0.1; fill:none" points="
  249.542,1360.64 2352.76,1360.64 
  "/>
<polyline clip-path="url(#clip682)" style="stroke:#000000; stroke-linecap:round; stroke-linejoin:round; stroke-width:2; stroke-opacity:0.1; fill:none" points="
  249.542,1047.92 2352.76,1047.92 
  "/>
<polyline clip-path="url(#clip682)" style="stroke:#000000; stroke-linecap:round; stroke-linejoin:round; stroke-width:2; stroke-opacity:0.1; fill:none" points="
  249.542,735.212 2352.76,735.212 
  "/>
<polyline clip-path="url(#clip682)" style="stroke:#000000; stroke-linecap:round; stroke-linejoin:round; stroke-width:2; stroke-opacity:0.1; fill:none" points="
  249.542,422.499 2352.76,422.499 
  "/>
<polyline clip-path="url(#clip682)" style="stroke:#000000; stroke-linecap:round; stroke-linejoin:round; stroke-width:2; stroke-opacity:0.1; fill:none" points="
  249.542,109.787 2352.76,109.787 
  "/>
<polyline clip-path="url(#clip680)" style="stroke:#000000; stroke-linecap:round; stroke-linejoin:round; stroke-width:4; stroke-opacity:1; fill:none" points="
  249.542,1423.18 249.542,47.2441 
  "/>
<polyline clip-path="url(#clip680)" style="stroke:#000000; stroke-linecap:round; stroke-linejoin:round; stroke-width:4; stroke-opacity:1; fill:none" points="
  249.542,1360.64 268.44,1360.64 
  "/>
<polyline clip-path="url(#clip680)" style="stroke:#000000; stroke-linecap:round; stroke-linejoin:round; stroke-width:4; stroke-opacity:1; fill:none" points="
  249.542,1047.92 268.44,1047.92 
  "/>
<polyline clip-path="url(#clip680)" style="stroke:#000000; stroke-linecap:round; stroke-linejoin:round; stroke-width:4; stroke-opacity:1; fill:none" points="
  249.542,735.212 268.44,735.212 
  "/>
<polyline clip-path="url(#clip680)" style="stroke:#000000; stroke-linecap:round; stroke-linejoin:round; stroke-width:4; stroke-opacity:1; fill:none" points="
  249.542,422.499 268.44,422.499 
  "/>
<polyline clip-path="url(#clip680)" style="stroke:#000000; stroke-linecap:round; stroke-linejoin:round; stroke-width:4; stroke-opacity:1; fill:none" points="
  249.542,109.787 268.44,109.787 
  "/>
<path clip-path="url(#clip680)" d="M126.205 1346.44 Q122.593 1346.44 120.765 1350 Q118.959 1353.54 118.959 1360.67 Q118.959 1367.78 120.765 1371.34 Q122.593 1374.88 126.205 1374.88 Q129.839 1374.88 131.644 1371.34 Q133.473 1367.78 133.473 1360.67 Q133.473 1353.54 131.644 1350 Q129.839 1346.44 126.205 1346.44 M126.205 1342.73 Q132.015 1342.73 135.07 1347.34 Q138.149 1351.92 138.149 1360.67 Q138.149 1369.4 135.07 1374.01 Q132.015 1378.59 126.205 1378.59 Q120.394 1378.59 117.316 1374.01 Q114.26 1369.4 114.26 1360.67 Q114.26 1351.92 117.316 1347.34 Q120.394 1342.73 126.205 1342.73 Z" fill="#000000" fill-rule="evenodd" fill-opacity="1" /><path clip-path="url(#clip680)" d="M146.366 1372.04 L151.251 1372.04 L151.251 1377.92 L146.366 1377.92 L146.366 1372.04 Z" fill="#000000" fill-rule="evenodd" fill-opacity="1" /><path clip-path="url(#clip680)" d="M171.436 1346.44 Q167.825 1346.44 165.996 1350 Q164.19 1353.54 164.19 1360.67 Q164.19 1367.78 165.996 1371.34 Q167.825 1374.88 171.436 1374.88 Q175.07 1374.88 176.876 1371.34 Q178.704 1367.78 178.704 1360.67 Q178.704 1353.54 176.876 1350 Q175.07 1346.44 171.436 1346.44 M171.436 1342.73 Q177.246 1342.73 180.301 1347.34 Q183.38 1351.92 183.38 1360.67 Q183.38 1369.4 180.301 1374.01 Q177.246 1378.59 171.436 1378.59 Q165.626 1378.59 162.547 1374.01 Q159.491 1369.4 159.491 1360.67 Q159.491 1351.92 162.547 1347.34 Q165.626 1342.73 171.436 1342.73 Z" fill="#000000" fill-rule="evenodd" fill-opacity="1" /><path clip-path="url(#clip680)" d="M201.598 1346.44 Q197.987 1346.44 196.158 1350 Q194.352 1353.54 194.352 1360.67 Q194.352 1367.78 196.158 1371.34 Q197.987 1374.88 201.598 1374.88 Q205.232 1374.88 207.037 1371.34 Q208.866 1367.78 208.866 1360.67 Q208.866 1353.54 207.037 1350 Q205.232 1346.44 201.598 1346.44 M201.598 1342.73 Q207.408 1342.73 210.463 1347.34 Q213.542 1351.92 213.542 1360.67 Q213.542 1369.4 210.463 1374.01 Q207.408 1378.59 201.598 1378.59 Q195.787 1378.59 192.709 1374.01 Q189.653 1369.4 189.653 1360.67 Q189.653 1351.92 192.709 1347.34 Q195.787 1342.73 201.598 1342.73 Z" fill="#000000" fill-rule="evenodd" fill-opacity="1" /><path clip-path="url(#clip680)" d="M127.2 1033.72 Q123.589 1033.72 121.76 1037.29 Q119.955 1040.83 119.955 1047.96 Q119.955 1055.07 121.76 1058.63 Q123.589 1062.17 127.2 1062.17 Q130.834 1062.17 132.64 1058.63 Q134.468 1055.07 134.468 1047.96 Q134.468 1040.83 132.64 1037.29 Q130.834 1033.72 127.2 1033.72 M127.2 1030.02 Q133.01 1030.02 136.066 1034.63 Q139.144 1039.21 139.144 1047.96 Q139.144 1056.69 136.066 1061.29 Q133.01 1065.88 127.2 1065.88 Q121.39 1065.88 118.311 1061.29 Q115.256 1056.69 115.256 1047.96 Q115.256 1039.21 118.311 1034.63 Q121.39 1030.02 127.2 1030.02 Z" fill="#000000" fill-rule="evenodd" fill-opacity="1" /><path clip-path="url(#clip680)" d="M147.362 1059.33 L152.246 1059.33 L152.246 1065.2 L147.362 1065.2 L147.362 1059.33 Z" fill="#000000" fill-rule="evenodd" fill-opacity="1" /><path clip-path="url(#clip680)" d="M166.459 1061.27 L182.778 1061.27 L182.778 1065.2 L160.834 1065.2 L160.834 1061.27 Q163.496 1058.51 168.079 1053.89 Q172.686 1049.23 173.866 1047.89 Q176.112 1045.37 176.991 1043.63 Q177.894 1041.87 177.894 1040.18 Q177.894 1037.43 175.95 1035.69 Q174.028 1033.95 170.927 1033.95 Q168.727 1033.95 166.274 1034.72 Q163.843 1035.48 161.065 1037.03 L161.065 1032.31 Q163.89 1031.18 166.343 1030.6 Q168.797 1030.02 170.834 1030.02 Q176.204 1030.02 179.399 1032.7 Q182.593 1035.39 182.593 1039.88 Q182.593 1042.01 181.783 1043.93 Q180.996 1045.83 178.889 1048.42 Q178.311 1049.09 175.209 1052.31 Q172.107 1055.51 166.459 1061.27 Z" fill="#000000" fill-rule="evenodd" fill-opacity="1" /><path clip-path="url(#clip680)" d="M192.639 1030.64 L210.996 1030.64 L210.996 1034.58 L196.922 1034.58 L196.922 1043.05 Q197.94 1042.7 198.959 1042.54 Q199.977 1042.36 200.996 1042.36 Q206.783 1042.36 210.162 1045.53 Q213.542 1048.7 213.542 1054.12 Q213.542 1059.7 210.07 1062.8 Q206.598 1065.88 200.278 1065.88 Q198.102 1065.88 195.834 1065.51 Q193.588 1065.14 191.181 1064.39 L191.181 1059.7 Q193.264 1060.83 195.487 1061.39 Q197.709 1061.94 200.186 1061.94 Q204.19 1061.94 206.528 1059.83 Q208.866 1057.73 208.866 1054.12 Q208.866 1050.51 206.528 1048.4 Q204.19 1046.29 200.186 1046.29 Q198.311 1046.29 196.436 1046.71 Q194.584 1047.13 192.639 1048.01 L192.639 1030.64 Z" fill="#000000" fill-rule="evenodd" fill-opacity="1" /><path clip-path="url(#clip680)" d="M126.205 721.011 Q122.593 721.011 120.765 724.575 Q118.959 728.117 118.959 735.247 Q118.959 742.353 120.765 745.918 Q122.593 749.46 126.205 749.46 Q129.839 749.46 131.644 745.918 Q133.473 742.353 133.473 735.247 Q133.473 728.117 131.644 724.575 Q129.839 721.011 126.205 721.011 M126.205 717.307 Q132.015 717.307 135.07 721.913 Q138.149 726.497 138.149 735.247 Q138.149 743.973 135.07 748.58 Q132.015 753.163 126.205 753.163 Q120.394 753.163 117.316 748.58 Q114.26 743.973 114.26 735.247 Q114.26 726.497 117.316 721.913 Q120.394 717.307 126.205 717.307 Z" fill="#000000" fill-rule="evenodd" fill-opacity="1" /><path clip-path="url(#clip680)" d="M146.366 746.612 L151.251 746.612 L151.251 752.492 L146.366 752.492 L146.366 746.612 Z" fill="#000000" fill-rule="evenodd" fill-opacity="1" /><path clip-path="url(#clip680)" d="M161.482 717.932 L179.839 717.932 L179.839 721.867 L165.765 721.867 L165.765 730.339 Q166.783 729.992 167.802 729.83 Q168.82 729.645 169.839 729.645 Q175.626 729.645 179.005 732.816 Q182.385 735.987 182.385 741.404 Q182.385 746.983 178.913 750.085 Q175.44 753.163 169.121 753.163 Q166.945 753.163 164.677 752.793 Q162.431 752.423 160.024 751.682 L160.024 746.983 Q162.107 748.117 164.329 748.673 Q166.552 749.228 169.028 749.228 Q173.033 749.228 175.371 747.122 Q177.709 745.015 177.709 741.404 Q177.709 737.793 175.371 735.687 Q173.033 733.58 169.028 733.58 Q167.153 733.58 165.278 733.997 Q163.427 734.413 161.482 735.293 L161.482 717.932 Z" fill="#000000" fill-rule="evenodd" fill-opacity="1" /><path clip-path="url(#clip680)" d="M201.598 721.011 Q197.987 721.011 196.158 724.575 Q194.352 728.117 194.352 735.247 Q194.352 742.353 196.158 745.918 Q197.987 749.46 201.598 749.46 Q205.232 749.46 207.037 745.918 Q208.866 742.353 208.866 735.247 Q208.866 728.117 207.037 724.575 Q205.232 721.011 201.598 721.011 M201.598 717.307 Q207.408 717.307 210.463 721.913 Q213.542 726.497 213.542 735.247 Q213.542 743.973 210.463 748.58 Q207.408 753.163 201.598 753.163 Q195.787 753.163 192.709 748.58 Q189.653 743.973 189.653 735.247 Q189.653 726.497 192.709 721.913 Q195.787 717.307 201.598 717.307 Z" fill="#000000" fill-rule="evenodd" fill-opacity="1" /><path clip-path="url(#clip680)" d="M127.2 408.298 Q123.589 408.298 121.76 411.863 Q119.955 415.404 119.955 422.534 Q119.955 429.64 121.76 433.205 Q123.589 436.747 127.2 436.747 Q130.834 436.747 132.64 433.205 Q134.468 429.64 134.468 422.534 Q134.468 415.404 132.64 411.863 Q130.834 408.298 127.2 408.298 M127.2 404.594 Q133.01 404.594 136.066 409.201 Q139.144 413.784 139.144 422.534 Q139.144 431.261 136.066 435.867 Q133.01 440.451 127.2 440.451 Q121.39 440.451 118.311 435.867 Q115.256 431.261 115.256 422.534 Q115.256 413.784 118.311 409.201 Q121.39 404.594 127.2 404.594 Z" fill="#000000" fill-rule="evenodd" fill-opacity="1" /><path clip-path="url(#clip680)" d="M147.362 433.9 L152.246 433.9 L152.246 439.779 L147.362 439.779 L147.362 433.9 Z" fill="#000000" fill-rule="evenodd" fill-opacity="1" /><path clip-path="url(#clip680)" d="M161.251 405.219 L183.473 405.219 L183.473 407.21 L170.927 439.779 L166.042 439.779 L177.848 409.154 L161.251 409.154 L161.251 405.219 Z" fill="#000000" fill-rule="evenodd" fill-opacity="1" /><path clip-path="url(#clip680)" d="M192.639 405.219 L210.996 405.219 L210.996 409.154 L196.922 409.154 L196.922 417.627 Q197.94 417.279 198.959 417.117 Q199.977 416.932 200.996 416.932 Q206.783 416.932 210.162 420.103 Q213.542 423.275 213.542 428.691 Q213.542 434.27 210.07 437.372 Q206.598 440.451 200.278 440.451 Q198.102 440.451 195.834 440.08 Q193.588 439.71 191.181 438.969 L191.181 434.27 Q193.264 435.404 195.487 435.96 Q197.709 436.515 200.186 436.515 Q204.19 436.515 206.528 434.409 Q208.866 432.302 208.866 428.691 Q208.866 425.08 206.528 422.974 Q204.19 420.867 200.186 420.867 Q198.311 420.867 196.436 421.284 Q194.584 421.701 192.639 422.58 L192.639 405.219 Z" fill="#000000" fill-rule="evenodd" fill-opacity="1" /><path clip-path="url(#clip680)" d="M117.015 123.131 L124.654 123.131 L124.654 96.7659 L116.343 98.4325 L116.343 94.1733 L124.607 92.5066 L129.283 92.5066 L129.283 123.131 L136.922 123.131 L136.922 127.067 L117.015 127.067 L117.015 123.131 Z" fill="#000000" fill-rule="evenodd" fill-opacity="1" /><path clip-path="url(#clip680)" d="M146.366 121.187 L151.251 121.187 L151.251 127.067 L146.366 127.067 L146.366 121.187 Z" fill="#000000" fill-rule="evenodd" fill-opacity="1" /><path clip-path="url(#clip680)" d="M171.436 95.5853 Q167.825 95.5853 165.996 99.1501 Q164.19 102.692 164.19 109.821 Q164.19 116.928 165.996 120.493 Q167.825 124.034 171.436 124.034 Q175.07 124.034 176.876 120.493 Q178.704 116.928 178.704 109.821 Q178.704 102.692 176.876 99.1501 Q175.07 95.5853 171.436 95.5853 M171.436 91.8816 Q177.246 91.8816 180.301 96.4881 Q183.38 101.071 183.38 109.821 Q183.38 118.548 180.301 123.155 Q177.246 127.738 171.436 127.738 Q165.626 127.738 162.547 123.155 Q159.491 118.548 159.491 109.821 Q159.491 101.071 162.547 96.4881 Q165.626 91.8816 171.436 91.8816 Z" fill="#000000" fill-rule="evenodd" fill-opacity="1" /><path clip-path="url(#clip680)" d="M201.598 95.5853 Q197.987 95.5853 196.158 99.1501 Q194.352 102.692 194.352 109.821 Q194.352 116.928 196.158 120.493 Q197.987 124.034 201.598 124.034 Q205.232 124.034 207.037 120.493 Q208.866 116.928 208.866 109.821 Q208.866 102.692 207.037 99.1501 Q205.232 95.5853 201.598 95.5853 M201.598 91.8816 Q207.408 91.8816 210.463 96.4881 Q213.542 101.071 213.542 109.821 Q213.542 118.548 210.463 123.155 Q207.408 127.738 201.598 127.738 Q195.787 127.738 192.709 123.155 Q189.653 118.548 189.653 109.821 Q189.653 101.071 192.709 96.4881 Q195.787 91.8816 201.598 91.8816 Z" fill="#000000" fill-rule="evenodd" fill-opacity="1" /><path clip-path="url(#clip680)" d="M18.0438 721.351 L24.314 721.351 Q22.5634 725.011 21.704 728.257 Q20.8447 731.504 20.8447 734.528 Q20.8447 739.779 22.8817 742.644 Q24.9187 745.477 28.6745 745.477 Q31.8255 745.477 33.4488 743.599 Q35.0402 741.689 36.0269 736.406 L36.8226 732.522 Q38.1912 725.329 41.6605 721.924 Q45.098 718.486 50.8908 718.486 Q57.7976 718.486 61.3624 723.133 Q64.9272 727.748 64.9272 736.692 Q64.9272 740.066 64.1633 743.885 Q63.3994 747.673 61.9035 751.747 L55.2831 751.747 Q57.4793 747.832 58.5933 744.076 Q59.7073 740.32 59.7073 736.692 Q59.7073 731.186 57.543 728.194 Q55.3786 725.202 51.3682 725.202 Q47.8671 725.202 45.8937 727.366 Q43.9204 729.499 42.9337 734.4 L42.1698 738.315 Q40.7375 745.508 37.682 748.723 Q34.6264 751.938 29.1837 751.938 Q22.8817 751.938 19.2532 747.514 Q15.6248 743.058 15.6248 735.26 Q15.6248 731.918 16.2295 728.448 Q16.8343 724.979 18.0438 721.351 Z" fill="#000000" fill-rule="evenodd" fill-opacity="1" /><polyline clip-path="url(#clip682)" style="stroke:#000000; stroke-linecap:round; stroke-linejoin:round; stroke-width:4; stroke-opacity:1; fill:none" points="
  309.067,1333.39 557.087,1331.18 805.108,1328.98 1053.13,1326.76 1301.15,1324.69 1549.17,1322.68 1797.19,1320.79 2045.21,1319.03 2293.23,1317.4 
  "/>
<circle clip-path="url(#clip682)" cx="309.067" cy="1333.39" r="14.4" fill="#000000" fill-rule="evenodd" fill-opacity="1" stroke="none"/>
<circle clip-path="url(#clip682)" cx="557.087" cy="1331.18" r="14.4" fill="#000000" fill-rule="evenodd" fill-opacity="1" stroke="none"/>
<circle clip-path="url(#clip682)" cx="805.108" cy="1328.98" r="14.4" fill="#000000" fill-rule="evenodd" fill-opacity="1" stroke="none"/>
<circle clip-path="url(#clip682)" cx="1053.13" cy="1326.76" r="14.4" fill="#000000" fill-rule="evenodd" fill-opacity="1" stroke="none"/>
<circle clip-path="url(#clip682)" cx="1301.15" cy="1324.69" r="14.4" fill="#000000" fill-rule="evenodd" fill-opacity="1" stroke="none"/>
<circle clip-path="url(#clip682)" cx="1549.17" cy="1322.68" r="14.4" fill="#000000" fill-rule="evenodd" fill-opacity="1" stroke="none"/>
<circle clip-path="url(#clip682)" cx="1797.19" cy="1320.79" r="14.4" fill="#000000" fill-rule="evenodd" fill-opacity="1" stroke="none"/>
<circle clip-path="url(#clip682)" cx="2045.21" cy="1319.03" r="14.4" fill="#000000" fill-rule="evenodd" fill-opacity="1" stroke="none"/>
<circle clip-path="url(#clip682)" cx="2293.23" cy="1317.4" r="14.4" fill="#000000" fill-rule="evenodd" fill-opacity="1" stroke="none"/>
<polyline clip-path="url(#clip682)" style="stroke:#ff0000; stroke-linecap:round; stroke-linejoin:round; stroke-width:4; stroke-opacity:1; fill:none" points="
  309.067,1332.77 557.087,1330.78 805.108,1328.44 1053.13,1326.25 1301.15,1324.2 1549.17,1322.31 1797.19,1320.48 2045.21,1318.75 2293.23,1317.09 
  "/>
<circle clip-path="url(#clip682)" cx="309.067" cy="1332.77" r="14.4" fill="#ff0000" fill-rule="evenodd" fill-opacity="1" stroke="#000000" stroke-opacity="1" stroke-width="6.4"/>
<circle clip-path="url(#clip682)" cx="557.087" cy="1330.78" r="14.4" fill="#ff0000" fill-rule="evenodd" fill-opacity="1" stroke="#000000" stroke-opacity="1" stroke-width="6.4"/>
<circle clip-path="url(#clip682)" cx="805.108" cy="1328.44" r="14.4" fill="#ff0000" fill-rule="evenodd" fill-opacity="1" stroke="#000000" stroke-opacity="1" stroke-width="6.4"/>
<circle clip-path="url(#clip682)" cx="1053.13" cy="1326.25" r="14.4" fill="#ff0000" fill-rule="evenodd" fill-opacity="1" stroke="#000000" stroke-opacity="1" stroke-width="6.4"/>
<circle clip-path="url(#clip682)" cx="1301.15" cy="1324.2" r="14.4" fill="#ff0000" fill-rule="evenodd" fill-opacity="1" stroke="#000000" stroke-opacity="1" stroke-width="6.4"/>
<circle clip-path="url(#clip682)" cx="1549.17" cy="1322.31" r="14.4" fill="#ff0000" fill-rule="evenodd" fill-opacity="1" stroke="#000000" stroke-opacity="1" stroke-width="6.4"/>
<circle clip-path="url(#clip682)" cx="1797.19" cy="1320.48" r="14.4" fill="#ff0000" fill-rule="evenodd" fill-opacity="1" stroke="#000000" stroke-opacity="1" stroke-width="6.4"/>
<circle clip-path="url(#clip682)" cx="2045.21" cy="1318.75" r="14.4" fill="#ff0000" fill-rule="evenodd" fill-opacity="1" stroke="#000000" stroke-opacity="1" stroke-width="6.4"/>
<circle clip-path="url(#clip682)" cx="2293.23" cy="1317.09" r="14.4" fill="#ff0000" fill-rule="evenodd" fill-opacity="1" stroke="#000000" stroke-opacity="1" stroke-width="6.4"/>
<polyline clip-path="url(#clip682)" style="stroke:#3da44d; stroke-linecap:round; stroke-linejoin:round; stroke-width:4; stroke-opacity:1; fill:none" points="
  309.067,432.082 557.087,483.463 805.108,510.651 1053.13,530.826 1301.15,546.376 1549.17,555.243 1797.19,560.279 2045.21,562.173 2293.23,563.359 
  "/>
<circle clip-path="url(#clip682)" cx="309.067" cy="432.082" r="14.4" fill="#3da44d" fill-rule="evenodd" fill-opacity="1" stroke="#000000" stroke-opacity="1" stroke-width="6.4"/>
<circle clip-path="url(#clip682)" cx="557.087" cy="483.463" r="14.4" fill="#3da44d" fill-rule="evenodd" fill-opacity="1" stroke="#000000" stroke-opacity="1" stroke-width="6.4"/>
<circle clip-path="url(#clip682)" cx="805.108" cy="510.651" r="14.4" fill="#3da44d" fill-rule="evenodd" fill-opacity="1" stroke="#000000" stroke-opacity="1" stroke-width="6.4"/>
<circle clip-path="url(#clip682)" cx="1053.13" cy="530.826" r="14.4" fill="#3da44d" fill-rule="evenodd" fill-opacity="1" stroke="#000000" stroke-opacity="1" stroke-width="6.4"/>
<circle clip-path="url(#clip682)" cx="1301.15" cy="546.376" r="14.4" fill="#3da44d" fill-rule="evenodd" fill-opacity="1" stroke="#000000" stroke-opacity="1" stroke-width="6.4"/>
<circle clip-path="url(#clip682)" cx="1549.17" cy="555.243" r="14.4" fill="#3da44d" fill-rule="evenodd" fill-opacity="1" stroke="#000000" stroke-opacity="1" stroke-width="6.4"/>
<circle clip-path="url(#clip682)" cx="1797.19" cy="560.279" r="14.4" fill="#3da44d" fill-rule="evenodd" fill-opacity="1" stroke="#000000" stroke-opacity="1" stroke-width="6.4"/>
<circle clip-path="url(#clip682)" cx="2045.21" cy="562.173" r="14.4" fill="#3da44d" fill-rule="evenodd" fill-opacity="1" stroke="#000000" stroke-opacity="1" stroke-width="6.4"/>
<circle clip-path="url(#clip682)" cx="2293.23" cy="563.359" r="14.4" fill="#3da44d" fill-rule="evenodd" fill-opacity="1" stroke="#000000" stroke-opacity="1" stroke-width="6.4"/>
<polyline clip-path="url(#clip682)" style="stroke:#c271d2; stroke-linecap:round; stroke-linejoin:round; stroke-width:4; stroke-opacity:1; fill:none" points="
  309.067,506.844 557.087,581.912 805.108,634.763 1053.13,664.33 1301.15,675.054 1549.17,683.43 1797.19,688.439 2045.21,687.481 2293.23,687.675 
  "/>
<circle clip-path="url(#clip682)" cx="309.067" cy="506.844" r="14.4" fill="#c271d2" fill-rule="evenodd" fill-opacity="1" stroke="#000000" stroke-opacity="1" stroke-width="6.4"/>
<circle clip-path="url(#clip682)" cx="557.087" cy="581.912" r="14.4" fill="#c271d2" fill-rule="evenodd" fill-opacity="1" stroke="#000000" stroke-opacity="1" stroke-width="6.4"/>
<circle clip-path="url(#clip682)" cx="805.108" cy="634.763" r="14.4" fill="#c271d2" fill-rule="evenodd" fill-opacity="1" stroke="#000000" stroke-opacity="1" stroke-width="6.4"/>
<circle clip-path="url(#clip682)" cx="1053.13" cy="664.33" r="14.4" fill="#c271d2" fill-rule="evenodd" fill-opacity="1" stroke="#000000" stroke-opacity="1" stroke-width="6.4"/>
<circle clip-path="url(#clip682)" cx="1301.15" cy="675.054" r="14.4" fill="#c271d2" fill-rule="evenodd" fill-opacity="1" stroke="#000000" stroke-opacity="1" stroke-width="6.4"/>
<circle clip-path="url(#clip682)" cx="1549.17" cy="683.43" r="14.4" fill="#c271d2" fill-rule="evenodd" fill-opacity="1" stroke="#000000" stroke-opacity="1" stroke-width="6.4"/>
<circle clip-path="url(#clip682)" cx="1797.19" cy="688.439" r="14.4" fill="#c271d2" fill-rule="evenodd" fill-opacity="1" stroke="#000000" stroke-opacity="1" stroke-width="6.4"/>
<circle clip-path="url(#clip682)" cx="2045.21" cy="687.481" r="14.4" fill="#c271d2" fill-rule="evenodd" fill-opacity="1" stroke="#000000" stroke-opacity="1" stroke-width="6.4"/>
<circle clip-path="url(#clip682)" cx="2293.23" cy="687.675" r="14.4" fill="#c271d2" fill-rule="evenodd" fill-opacity="1" stroke="#000000" stroke-opacity="1" stroke-width="6.4"/>
<path clip-path="url(#clip680)" d="
M1229.08 352.309 L2282.65 352.309 L2282.65 93.1086 L1229.08 93.1086  Z
  " fill="#ffffff" fill-rule="evenodd" fill-opacity="1"/>
<polyline clip-path="url(#clip680)" style="stroke:#000000; stroke-linecap:round; stroke-linejoin:round; stroke-width:4; stroke-opacity:1; fill:none" points="
  1229.08,352.309 2282.65,352.309 2282.65,93.1086 1229.08,93.1086 1229.08,352.309 
  "/>
<polyline clip-path="url(#clip680)" style="stroke:#000000; stroke-linecap:round; stroke-linejoin:round; stroke-width:4; stroke-opacity:1; fill:none" points="
  1252.45,144.949 1392.66,144.949 
  "/>
<circle clip-path="url(#clip680)" cx="1322.55" cy="144.949" r="19.4742" fill="#000000" fill-rule="evenodd" fill-opacity="1" stroke="none"/>
<path clip-path="url(#clip680)" d="M1431.22 140.284 Q1430.5 139.868 1429.64 139.682 Q1428.81 139.474 1427.79 139.474 Q1424.18 139.474 1422.23 141.835 Q1420.31 144.173 1420.31 148.571 L1420.31 162.229 L1416.03 162.229 L1416.03 136.303 L1420.31 136.303 L1420.31 140.331 Q1421.66 137.969 1423.81 136.835 Q1425.96 135.678 1429.04 135.678 Q1429.48 135.678 1430.01 135.747 Q1430.54 135.794 1431.19 135.909 L1431.22 140.284 Z" fill="#000000" fill-rule="evenodd" fill-opacity="1" /><path clip-path="url(#clip680)" d="M1447.47 149.196 Q1442.3 149.196 1440.31 150.377 Q1438.32 151.557 1438.32 154.405 Q1438.32 156.673 1439.8 158.016 Q1441.31 159.335 1443.88 159.335 Q1447.42 159.335 1449.55 156.835 Q1451.7 154.312 1451.7 150.145 L1451.7 149.196 L1447.47 149.196 M1455.96 147.437 L1455.96 162.229 L1451.7 162.229 L1451.7 158.293 Q1450.24 160.655 1448.07 161.789 Q1445.89 162.9 1442.74 162.9 Q1438.76 162.9 1436.4 160.678 Q1434.06 158.432 1434.06 154.682 Q1434.06 150.307 1436.98 148.085 Q1439.92 145.863 1445.73 145.863 L1451.7 145.863 L1451.7 145.446 Q1451.7 142.507 1449.76 140.909 Q1447.84 139.289 1444.34 139.289 Q1442.12 139.289 1440.01 139.821 Q1437.91 140.354 1435.96 141.419 L1435.96 137.483 Q1438.3 136.581 1440.5 136.141 Q1442.7 135.678 1444.78 135.678 Q1450.41 135.678 1453.18 138.594 Q1455.96 141.511 1455.96 147.437 Z" fill="#000000" fill-rule="evenodd" fill-opacity="1" /><path clip-path="url(#clip680)" d="M1486.29 146.581 L1486.29 162.229 L1482.03 162.229 L1482.03 146.719 Q1482.03 143.039 1480.59 141.21 Q1479.16 139.382 1476.29 139.382 Q1472.84 139.382 1470.85 141.581 Q1468.85 143.78 1468.85 147.576 L1468.85 162.229 L1464.57 162.229 L1464.57 136.303 L1468.85 136.303 L1468.85 140.331 Q1470.38 137.993 1472.44 136.835 Q1474.53 135.678 1477.23 135.678 Q1481.7 135.678 1483.99 138.456 Q1486.29 141.21 1486.29 146.581 Z" fill="#000000" fill-rule="evenodd" fill-opacity="1" /><path clip-path="url(#clip680)" d="M1511.84 140.238 L1511.84 126.21 L1516.1 126.21 L1516.1 162.229 L1511.84 162.229 L1511.84 158.34 Q1510.5 160.655 1508.44 161.789 Q1506.4 162.9 1503.53 162.9 Q1498.83 162.9 1495.87 159.15 Q1492.93 155.4 1492.93 149.289 Q1492.93 143.178 1495.87 139.428 Q1498.83 135.678 1503.53 135.678 Q1506.4 135.678 1508.44 136.812 Q1510.5 137.923 1511.84 140.238 M1497.33 149.289 Q1497.33 153.988 1499.25 156.673 Q1501.19 159.335 1504.57 159.335 Q1507.95 159.335 1509.9 156.673 Q1511.84 153.988 1511.84 149.289 Q1511.84 144.59 1509.9 141.928 Q1507.95 139.243 1504.57 139.243 Q1501.19 139.243 1499.25 141.928 Q1497.33 144.59 1497.33 149.289 Z" fill="#000000" fill-rule="evenodd" fill-opacity="1" /><path clip-path="url(#clip680)" d="M1534.92 139.289 Q1531.49 139.289 1529.5 141.974 Q1527.51 144.636 1527.51 149.289 Q1527.51 153.942 1529.48 156.627 Q1531.47 159.289 1534.92 159.289 Q1538.32 159.289 1540.31 156.604 Q1542.3 153.918 1542.3 149.289 Q1542.3 144.682 1540.31 141.997 Q1538.32 139.289 1534.92 139.289 M1534.92 135.678 Q1540.47 135.678 1543.65 139.289 Q1546.82 142.9 1546.82 149.289 Q1546.82 155.655 1543.65 159.289 Q1540.47 162.9 1534.92 162.9 Q1529.34 162.9 1526.17 159.289 Q1523.02 155.655 1523.02 149.289 Q1523.02 142.9 1526.17 139.289 Q1529.34 135.678 1534.92 135.678 Z" fill="#000000" fill-rule="evenodd" fill-opacity="1" /><path clip-path="url(#clip680)" d="M1574.06 141.28 Q1575.66 138.409 1577.88 137.044 Q1580.1 135.678 1583.11 135.678 Q1587.16 135.678 1589.36 138.525 Q1591.56 141.349 1591.56 146.581 L1591.56 162.229 L1587.28 162.229 L1587.28 146.719 Q1587.28 142.993 1585.96 141.187 Q1584.64 139.382 1581.93 139.382 Q1578.62 139.382 1576.7 141.581 Q1574.78 143.78 1574.78 147.576 L1574.78 162.229 L1570.5 162.229 L1570.5 146.719 Q1570.5 142.969 1569.18 141.187 Q1567.86 139.382 1565.1 139.382 Q1561.84 139.382 1559.92 141.604 Q1558 143.803 1558 147.576 L1558 162.229 L1553.72 162.229 L1553.72 136.303 L1558 136.303 L1558 140.331 Q1559.46 137.946 1561.49 136.812 Q1563.53 135.678 1566.33 135.678 Q1569.16 135.678 1571.12 137.113 Q1573.11 138.548 1574.06 141.28 Z" fill="#000000" fill-rule="evenodd" fill-opacity="1" /><path clip-path="url(#clip680)" d="M1614.69 151.997 L1614.69 136.303 L1618.95 136.303 L1618.95 151.835 Q1618.95 155.516 1620.38 157.368 Q1621.82 159.196 1624.69 159.196 Q1628.14 159.196 1630.13 156.997 Q1632.14 154.798 1632.14 151.002 L1632.14 136.303 L1636.4 136.303 L1636.4 162.229 L1632.14 162.229 L1632.14 158.247 Q1630.59 160.608 1628.53 161.766 Q1626.49 162.9 1623.78 162.9 Q1619.32 162.9 1617 160.122 Q1614.69 157.344 1614.69 151.997 M1625.4 135.678 L1625.4 135.678 Z" fill="#000000" fill-rule="evenodd" fill-opacity="1" /><path clip-path="url(#clip680)" d="M1666.72 146.581 L1666.72 162.229 L1662.46 162.229 L1662.46 146.719 Q1662.46 143.039 1661.03 141.21 Q1659.59 139.382 1656.72 139.382 Q1653.27 139.382 1651.28 141.581 Q1649.29 143.78 1649.29 147.576 L1649.29 162.229 L1645.01 162.229 L1645.01 136.303 L1649.29 136.303 L1649.29 140.331 Q1650.82 137.993 1652.88 136.835 Q1654.96 135.678 1657.67 135.678 Q1662.14 135.678 1664.43 138.456 Q1666.72 141.21 1666.72 146.581 Z" fill="#000000" fill-rule="evenodd" fill-opacity="1" /><path clip-path="url(#clip680)" d="M1693.88 137.298 L1693.88 141.28 Q1692.07 140.284 1690.24 139.798 Q1688.44 139.289 1686.58 139.289 Q1682.44 139.289 1680.15 141.928 Q1677.86 144.544 1677.86 149.289 Q1677.86 154.034 1680.15 156.673 Q1682.44 159.289 1686.58 159.289 Q1688.44 159.289 1690.24 158.803 Q1692.07 158.293 1693.88 157.298 L1693.88 161.233 Q1692.09 162.067 1690.17 162.483 Q1688.27 162.9 1686.12 162.9 Q1680.27 162.9 1676.82 159.219 Q1673.37 155.539 1673.37 149.289 Q1673.37 142.946 1676.84 139.312 Q1680.33 135.678 1686.4 135.678 Q1688.37 135.678 1690.24 136.095 Q1692.12 136.488 1693.88 137.298 Z" fill="#000000" fill-rule="evenodd" fill-opacity="1" /><path clip-path="url(#clip680)" d="M1711.33 139.289 Q1707.9 139.289 1705.91 141.974 Q1703.92 144.636 1703.92 149.289 Q1703.92 153.942 1705.89 156.627 Q1707.88 159.289 1711.33 159.289 Q1714.73 159.289 1716.72 156.604 Q1718.71 153.918 1718.71 149.289 Q1718.71 144.682 1716.72 141.997 Q1714.73 139.289 1711.33 139.289 M1711.33 135.678 Q1716.89 135.678 1720.06 139.289 Q1723.23 142.9 1723.23 149.289 Q1723.23 155.655 1720.06 159.289 Q1716.89 162.9 1711.33 162.9 Q1705.75 162.9 1702.58 159.289 Q1699.43 155.655 1699.43 149.289 Q1699.43 142.9 1702.58 139.289 Q1705.75 135.678 1711.33 135.678 Z" fill="#000000" fill-rule="evenodd" fill-opacity="1" /><path clip-path="url(#clip680)" d="M1729.85 151.997 L1729.85 136.303 L1734.11 136.303 L1734.11 151.835 Q1734.11 155.516 1735.54 157.368 Q1736.98 159.196 1739.85 159.196 Q1743.3 159.196 1745.29 156.997 Q1747.3 154.798 1747.3 151.002 L1747.3 136.303 L1751.56 136.303 L1751.56 162.229 L1747.3 162.229 L1747.3 158.247 Q1745.75 160.608 1743.69 161.766 Q1741.65 162.9 1738.95 162.9 Q1734.48 162.9 1732.16 160.122 Q1729.85 157.344 1729.85 151.997 M1740.57 135.678 L1740.57 135.678 Z" fill="#000000" fill-rule="evenodd" fill-opacity="1" /><path clip-path="url(#clip680)" d="M1764.45 158.34 L1764.45 172.09 L1760.17 172.09 L1760.17 136.303 L1764.45 136.303 L1764.45 140.238 Q1765.8 137.923 1767.83 136.812 Q1769.89 135.678 1772.74 135.678 Q1777.46 135.678 1780.4 139.428 Q1783.37 143.178 1783.37 149.289 Q1783.37 155.4 1780.4 159.15 Q1777.46 162.9 1772.74 162.9 Q1769.89 162.9 1767.83 161.789 Q1765.8 160.655 1764.45 158.34 M1778.95 149.289 Q1778.95 144.59 1777 141.928 Q1775.08 139.243 1771.7 139.243 Q1768.32 139.243 1766.38 141.928 Q1764.45 144.59 1764.45 149.289 Q1764.45 153.988 1766.38 156.673 Q1768.32 159.335 1771.7 159.335 Q1775.08 159.335 1777 156.673 Q1778.95 153.988 1778.95 149.289 Z" fill="#000000" fill-rule="evenodd" fill-opacity="1" /><path clip-path="url(#clip680)" d="M1790.43 126.21 L1794.69 126.21 L1794.69 162.229 L1790.43 162.229 L1790.43 126.21 Z" fill="#000000" fill-rule="evenodd" fill-opacity="1" /><path clip-path="url(#clip680)" d="M1825.77 148.201 L1825.77 150.284 L1806.19 150.284 Q1806.47 154.682 1808.83 156.997 Q1811.21 159.289 1815.45 159.289 Q1817.9 159.289 1820.2 158.687 Q1822.51 158.085 1824.78 156.881 L1824.78 160.909 Q1822.49 161.881 1820.08 162.391 Q1817.67 162.9 1815.2 162.9 Q1808.99 162.9 1805.36 159.289 Q1801.75 155.678 1801.75 149.52 Q1801.75 143.155 1805.17 139.428 Q1808.62 135.678 1814.45 135.678 Q1819.69 135.678 1822.72 139.057 Q1825.77 142.414 1825.77 148.201 M1821.51 146.951 Q1821.47 143.456 1819.55 141.372 Q1817.65 139.289 1814.5 139.289 Q1810.94 139.289 1808.78 141.303 Q1806.65 143.317 1806.33 146.974 L1821.51 146.951 Z" fill="#000000" fill-rule="evenodd" fill-opacity="1" /><path clip-path="url(#clip680)" d="M1849.82 140.238 L1849.82 126.21 L1854.08 126.21 L1854.08 162.229 L1849.82 162.229 L1849.82 158.34 Q1848.48 160.655 1846.42 161.789 Q1844.39 162.9 1841.51 162.9 Q1836.82 162.9 1833.85 159.15 Q1830.91 155.4 1830.91 149.289 Q1830.91 143.178 1833.85 139.428 Q1836.82 135.678 1841.51 135.678 Q1844.39 135.678 1846.42 136.812 Q1848.48 137.923 1849.82 140.238 M1835.31 149.289 Q1835.31 153.988 1837.23 156.673 Q1839.18 159.335 1842.56 159.335 Q1845.94 159.335 1847.88 156.673 Q1849.82 153.988 1849.82 149.289 Q1849.82 144.59 1847.88 141.928 Q1845.94 139.243 1842.56 139.243 Q1839.18 139.243 1837.23 141.928 Q1835.31 144.59 1835.31 149.289 Z" fill="#000000" fill-rule="evenodd" fill-opacity="1" /><path clip-path="url(#clip680)" d="M1894.45 137.067 L1894.45 141.094 Q1892.65 140.169 1890.7 139.706 Q1888.76 139.243 1886.68 139.243 Q1883.51 139.243 1881.91 140.215 Q1880.33 141.187 1880.33 143.131 Q1880.33 144.613 1881.47 145.469 Q1882.6 146.303 1886.03 147.067 L1887.49 147.391 Q1892.02 148.363 1893.92 150.145 Q1895.84 151.905 1895.84 155.076 Q1895.84 158.687 1892.97 160.793 Q1890.13 162.9 1885.13 162.9 Q1883.04 162.9 1880.77 162.483 Q1878.53 162.09 1876.03 161.28 L1876.03 156.881 Q1878.39 158.108 1880.68 158.733 Q1882.97 159.335 1885.22 159.335 Q1888.23 159.335 1889.85 158.317 Q1891.47 157.275 1891.47 155.4 Q1891.47 153.664 1890.29 152.738 Q1889.13 151.812 1885.17 150.956 L1883.69 150.608 Q1879.73 149.775 1877.97 148.062 Q1876.21 146.326 1876.21 143.317 Q1876.21 139.659 1878.81 137.669 Q1881.4 135.678 1886.17 135.678 Q1888.53 135.678 1890.61 136.025 Q1892.69 136.372 1894.45 137.067 Z" fill="#000000" fill-rule="evenodd" fill-opacity="1" /><path clip-path="url(#clip680)" d="M1913.41 164.636 Q1911.61 169.266 1909.89 170.678 Q1908.18 172.09 1905.31 172.09 L1901.91 172.09 L1901.91 168.525 L1904.41 168.525 Q1906.17 168.525 1907.14 167.692 Q1908.11 166.858 1909.29 163.756 L1910.06 161.812 L1899.57 136.303 L1904.08 136.303 L1912.19 156.581 L1920.29 136.303 L1924.8 136.303 L1913.41 164.636 Z" fill="#000000" fill-rule="evenodd" fill-opacity="1" /><path clip-path="url(#clip680)" d="M1947.21 137.067 L1947.21 141.094 Q1945.4 140.169 1943.46 139.706 Q1941.51 139.243 1939.43 139.243 Q1936.26 139.243 1934.66 140.215 Q1933.09 141.187 1933.09 143.131 Q1933.09 144.613 1934.22 145.469 Q1935.36 146.303 1938.78 147.067 L1940.24 147.391 Q1944.78 148.363 1946.68 150.145 Q1948.6 151.905 1948.6 155.076 Q1948.6 158.687 1945.73 160.793 Q1942.88 162.9 1937.88 162.9 Q1935.8 162.9 1933.53 162.483 Q1931.28 162.09 1928.78 161.28 L1928.78 156.881 Q1931.14 158.108 1933.44 158.733 Q1935.73 159.335 1937.97 159.335 Q1940.98 159.335 1942.6 158.317 Q1944.22 157.275 1944.22 155.4 Q1944.22 153.664 1943.04 152.738 Q1941.88 151.812 1937.93 150.956 L1936.44 150.608 Q1932.49 149.775 1930.73 148.062 Q1928.97 146.326 1928.97 143.317 Q1928.97 139.659 1931.56 137.669 Q1934.15 135.678 1938.92 135.678 Q1941.28 135.678 1943.37 136.025 Q1945.45 136.372 1947.21 137.067 Z" fill="#000000" fill-rule="evenodd" fill-opacity="1" /><path clip-path="url(#clip680)" d="M1959.59 128.942 L1959.59 136.303 L1968.37 136.303 L1968.37 139.613 L1959.59 139.613 L1959.59 153.687 Q1959.59 156.858 1960.45 157.761 Q1961.33 158.664 1963.99 158.664 L1968.37 158.664 L1968.37 162.229 L1963.99 162.229 Q1959.06 162.229 1957.19 160.4 Q1955.31 158.548 1955.31 153.687 L1955.31 139.613 L1952.19 139.613 L1952.19 136.303 L1955.31 136.303 L1955.31 128.942 L1959.59 128.942 Z" fill="#000000" fill-rule="evenodd" fill-opacity="1" /><path clip-path="url(#clip680)" d="M1996.14 148.201 L1996.14 150.284 L1976.56 150.284 Q1976.84 154.682 1979.2 156.997 Q1981.58 159.289 1985.82 159.289 Q1988.27 159.289 1990.56 158.687 Q1992.88 158.085 1995.15 156.881 L1995.15 160.909 Q1992.86 161.881 1990.45 162.391 Q1988.04 162.9 1985.56 162.9 Q1979.36 162.9 1975.73 159.289 Q1972.12 155.678 1972.12 149.52 Q1972.12 143.155 1975.54 139.428 Q1978.99 135.678 1984.82 135.678 Q1990.06 135.678 1993.09 139.057 Q1996.14 142.414 1996.14 148.201 M1991.88 146.951 Q1991.84 143.456 1989.92 141.372 Q1988.02 139.289 1984.87 139.289 Q1981.31 139.289 1979.15 141.303 Q1977.02 143.317 1976.7 146.974 L1991.88 146.951 Z" fill="#000000" fill-rule="evenodd" fill-opacity="1" /><path clip-path="url(#clip680)" d="M2023.32 141.28 Q2024.92 138.409 2027.14 137.044 Q2029.36 135.678 2032.37 135.678 Q2036.42 135.678 2038.62 138.525 Q2040.82 141.349 2040.82 146.581 L2040.82 162.229 L2036.54 162.229 L2036.54 146.719 Q2036.54 142.993 2035.22 141.187 Q2033.9 139.382 2031.19 139.382 Q2027.88 139.382 2025.96 141.581 Q2024.04 143.78 2024.04 147.576 L2024.04 162.229 L2019.75 162.229 L2019.75 146.719 Q2019.75 142.969 2018.44 141.187 Q2017.12 139.382 2014.36 139.382 Q2011.1 139.382 2009.18 141.604 Q2007.25 143.803 2007.25 147.576 L2007.25 162.229 L2002.97 162.229 L2002.97 136.303 L2007.25 136.303 L2007.25 140.331 Q2008.71 137.946 2010.75 136.812 Q2012.79 135.678 2015.59 135.678 Q2018.41 135.678 2020.38 137.113 Q2022.37 138.548 2023.32 141.28 Z" fill="#000000" fill-rule="evenodd" fill-opacity="1" /><path clip-path="url(#clip680)" d="M2074.62 126.257 Q2071.51 131.581 2070.01 136.789 Q2068.5 141.997 2068.5 147.344 Q2068.5 152.692 2070.01 157.946 Q2071.54 163.178 2074.62 168.479 L2070.91 168.479 Q2067.44 163.039 2065.7 157.784 Q2063.99 152.53 2063.99 147.344 Q2063.99 142.182 2065.7 136.951 Q2067.42 131.72 2070.91 126.257 L2074.62 126.257 Z" fill="#000000" fill-rule="evenodd" fill-opacity="1" /><path clip-path="url(#clip680)" d="M2104.43 136.303 L2095.05 148.919 L2104.92 162.229 L2099.89 162.229 L2092.35 152.043 L2084.8 162.229 L2079.78 162.229 L2089.85 148.664 L2080.63 136.303 L2085.66 136.303 L2092.53 145.539 L2099.41 136.303 L2104.43 136.303 Z" fill="#000000" fill-rule="evenodd" fill-opacity="1" /><path clip-path="url(#clip680)" d="M2123.85 147.344 L2136.33 147.344 L2136.33 151.141 L2123.85 151.141 L2123.85 147.344 Z" fill="#000000" fill-rule="evenodd" fill-opacity="1" /><path clip-path="url(#clip680)" d="M2143.67 138.895 L2143.67 134.682 L2173.34 145.446 L2173.34 149.289 L2143.67 160.053 L2143.67 155.84 L2167.51 147.391 L2143.67 138.895 Z" fill="#000000" fill-rule="evenodd" fill-opacity="1" /><path clip-path="url(#clip680)" d="M2208.69 164.636 Q2206.88 169.266 2205.17 170.678 Q2203.46 172.09 2200.59 172.09 L2197.18 172.09 L2197.18 168.525 L2199.68 168.525 Q2201.44 168.525 2202.42 167.692 Q2203.39 166.858 2204.57 163.756 L2205.33 161.812 L2194.85 136.303 L2199.36 136.303 L2207.46 156.581 L2215.56 136.303 L2220.08 136.303 L2208.69 164.636 Z" fill="#000000" fill-rule="evenodd" fill-opacity="1" /><path clip-path="url(#clip680)" d="M2225.29 126.257 L2228.99 126.257 Q2232.46 131.72 2234.17 136.951 Q2235.91 142.182 2235.91 147.344 Q2235.91 152.53 2234.17 157.784 Q2232.46 163.039 2228.99 168.479 L2225.29 168.479 Q2228.36 163.178 2229.87 157.946 Q2231.4 152.692 2231.4 147.344 Q2231.4 141.997 2229.87 136.789 Q2228.36 131.581 2225.29 126.257 Z" fill="#000000" fill-rule="evenodd" fill-opacity="1" /><polyline clip-path="url(#clip680)" style="stroke:#ff0000; stroke-linecap:round; stroke-linejoin:round; stroke-width:4; stroke-opacity:1; fill:none" points="
  1252.45,196.789 1392.66,196.789 
  "/>
<circle clip-path="url(#clip680)" cx="1322.55" cy="196.789" r="19.4742" fill="#ff0000" fill-rule="evenodd" fill-opacity="1" stroke="#000000" stroke-opacity="1" stroke-width="10.24"/>
<path clip-path="url(#clip680)" d="M1431.22 192.124 Q1430.5 191.708 1429.64 191.522 Q1428.81 191.314 1427.79 191.314 Q1424.18 191.314 1422.23 193.675 Q1420.31 196.013 1420.31 200.411 L1420.31 214.069 L1416.03 214.069 L1416.03 188.143 L1420.31 188.143 L1420.31 192.171 Q1421.66 189.809 1423.81 188.675 Q1425.96 187.518 1429.04 187.518 Q1429.48 187.518 1430.01 187.587 Q1430.54 187.634 1431.19 187.749 L1431.22 192.124 Z" fill="#000000" fill-rule="evenodd" fill-opacity="1" /><path clip-path="url(#clip680)" d="M1447.47 201.036 Q1442.3 201.036 1440.31 202.217 Q1438.32 203.397 1438.32 206.245 Q1438.32 208.513 1439.8 209.856 Q1441.31 211.175 1443.88 211.175 Q1447.42 211.175 1449.55 208.675 Q1451.7 206.152 1451.7 201.985 L1451.7 201.036 L1447.47 201.036 M1455.96 199.277 L1455.96 214.069 L1451.7 214.069 L1451.7 210.133 Q1450.24 212.495 1448.07 213.629 Q1445.89 214.74 1442.74 214.74 Q1438.76 214.74 1436.4 212.518 Q1434.06 210.272 1434.06 206.522 Q1434.06 202.147 1436.98 199.925 Q1439.92 197.703 1445.73 197.703 L1451.7 197.703 L1451.7 197.286 Q1451.7 194.347 1449.76 192.749 Q1447.84 191.129 1444.34 191.129 Q1442.12 191.129 1440.01 191.661 Q1437.91 192.194 1435.96 193.259 L1435.96 189.323 Q1438.3 188.421 1440.5 187.981 Q1442.7 187.518 1444.78 187.518 Q1450.41 187.518 1453.18 190.434 Q1455.96 193.351 1455.96 199.277 Z" fill="#000000" fill-rule="evenodd" fill-opacity="1" /><path clip-path="url(#clip680)" d="M1486.29 198.421 L1486.29 214.069 L1482.03 214.069 L1482.03 198.559 Q1482.03 194.879 1480.59 193.05 Q1479.16 191.222 1476.29 191.222 Q1472.84 191.222 1470.85 193.421 Q1468.85 195.62 1468.85 199.416 L1468.85 214.069 L1464.57 214.069 L1464.57 188.143 L1468.85 188.143 L1468.85 192.171 Q1470.38 189.833 1472.44 188.675 Q1474.53 187.518 1477.23 187.518 Q1481.7 187.518 1483.99 190.296 Q1486.29 193.05 1486.29 198.421 Z" fill="#000000" fill-rule="evenodd" fill-opacity="1" /><path clip-path="url(#clip680)" d="M1511.84 192.078 L1511.84 178.05 L1516.1 178.05 L1516.1 214.069 L1511.84 214.069 L1511.84 210.18 Q1510.5 212.495 1508.44 213.629 Q1506.4 214.74 1503.53 214.74 Q1498.83 214.74 1495.87 210.99 Q1492.93 207.24 1492.93 201.129 Q1492.93 195.018 1495.87 191.268 Q1498.83 187.518 1503.53 187.518 Q1506.4 187.518 1508.44 188.652 Q1510.5 189.763 1511.84 192.078 M1497.33 201.129 Q1497.33 205.828 1499.25 208.513 Q1501.19 211.175 1504.57 211.175 Q1507.95 211.175 1509.9 208.513 Q1511.84 205.828 1511.84 201.129 Q1511.84 196.43 1509.9 193.768 Q1507.95 191.083 1504.57 191.083 Q1501.19 191.083 1499.25 193.768 Q1497.33 196.43 1497.33 201.129 Z" fill="#000000" fill-rule="evenodd" fill-opacity="1" /><path clip-path="url(#clip680)" d="M1534.92 191.129 Q1531.49 191.129 1529.5 193.814 Q1527.51 196.476 1527.51 201.129 Q1527.51 205.782 1529.48 208.467 Q1531.47 211.129 1534.92 211.129 Q1538.32 211.129 1540.31 208.444 Q1542.3 205.758 1542.3 201.129 Q1542.3 196.522 1540.31 193.837 Q1538.32 191.129 1534.92 191.129 M1534.92 187.518 Q1540.47 187.518 1543.65 191.129 Q1546.82 194.74 1546.82 201.129 Q1546.82 207.495 1543.65 211.129 Q1540.47 214.74 1534.92 214.74 Q1529.34 214.74 1526.17 211.129 Q1523.02 207.495 1523.02 201.129 Q1523.02 194.74 1526.17 191.129 Q1529.34 187.518 1534.92 187.518 Z" fill="#000000" fill-rule="evenodd" fill-opacity="1" /><path clip-path="url(#clip680)" d="M1574.06 193.12 Q1575.66 190.249 1577.88 188.884 Q1580.1 187.518 1583.11 187.518 Q1587.16 187.518 1589.36 190.365 Q1591.56 193.189 1591.56 198.421 L1591.56 214.069 L1587.28 214.069 L1587.28 198.559 Q1587.28 194.833 1585.96 193.027 Q1584.64 191.222 1581.93 191.222 Q1578.62 191.222 1576.7 193.421 Q1574.78 195.62 1574.78 199.416 L1574.78 214.069 L1570.5 214.069 L1570.5 198.559 Q1570.5 194.809 1569.18 193.027 Q1567.86 191.222 1565.1 191.222 Q1561.84 191.222 1559.92 193.444 Q1558 195.643 1558 199.416 L1558 214.069 L1553.72 214.069 L1553.72 188.143 L1558 188.143 L1558 192.171 Q1559.46 189.786 1561.49 188.652 Q1563.53 187.518 1566.33 187.518 Q1569.16 187.518 1571.12 188.953 Q1573.11 190.388 1574.06 193.12 Z" fill="#000000" fill-rule="evenodd" fill-opacity="1" /><path clip-path="url(#clip680)" d="M1614.69 203.837 L1614.69 188.143 L1618.95 188.143 L1618.95 203.675 Q1618.95 207.356 1620.38 209.208 Q1621.82 211.036 1624.69 211.036 Q1628.14 211.036 1630.13 208.837 Q1632.14 206.638 1632.14 202.842 L1632.14 188.143 L1636.4 188.143 L1636.4 214.069 L1632.14 214.069 L1632.14 210.087 Q1630.59 212.448 1628.53 213.606 Q1626.49 214.74 1623.78 214.74 Q1619.32 214.74 1617 211.962 Q1614.69 209.184 1614.69 203.837 M1625.4 187.518 L1625.4 187.518 Z" fill="#000000" fill-rule="evenodd" fill-opacity="1" /><path clip-path="url(#clip680)" d="M1666.72 198.421 L1666.72 214.069 L1662.46 214.069 L1662.46 198.559 Q1662.46 194.879 1661.03 193.05 Q1659.59 191.222 1656.72 191.222 Q1653.27 191.222 1651.28 193.421 Q1649.29 195.62 1649.29 199.416 L1649.29 214.069 L1645.01 214.069 L1645.01 188.143 L1649.29 188.143 L1649.29 192.171 Q1650.82 189.833 1652.88 188.675 Q1654.96 187.518 1657.67 187.518 Q1662.14 187.518 1664.43 190.296 Q1666.72 193.05 1666.72 198.421 Z" fill="#000000" fill-rule="evenodd" fill-opacity="1" /><path clip-path="url(#clip680)" d="M1693.88 189.138 L1693.88 193.12 Q1692.07 192.124 1690.24 191.638 Q1688.44 191.129 1686.58 191.129 Q1682.44 191.129 1680.15 193.768 Q1677.86 196.384 1677.86 201.129 Q1677.86 205.874 1680.15 208.513 Q1682.44 211.129 1686.58 211.129 Q1688.44 211.129 1690.24 210.643 Q1692.07 210.133 1693.88 209.138 L1693.88 213.073 Q1692.09 213.907 1690.17 214.323 Q1688.27 214.74 1686.12 214.74 Q1680.27 214.74 1676.82 211.059 Q1673.37 207.379 1673.37 201.129 Q1673.37 194.786 1676.84 191.152 Q1680.33 187.518 1686.4 187.518 Q1688.37 187.518 1690.24 187.935 Q1692.12 188.328 1693.88 189.138 Z" fill="#000000" fill-rule="evenodd" fill-opacity="1" /><path clip-path="url(#clip680)" d="M1711.33 191.129 Q1707.9 191.129 1705.91 193.814 Q1703.92 196.476 1703.92 201.129 Q1703.92 205.782 1705.89 208.467 Q1707.88 211.129 1711.33 211.129 Q1714.73 211.129 1716.72 208.444 Q1718.71 205.758 1718.71 201.129 Q1718.71 196.522 1716.72 193.837 Q1714.73 191.129 1711.33 191.129 M1711.33 187.518 Q1716.89 187.518 1720.06 191.129 Q1723.23 194.74 1723.23 201.129 Q1723.23 207.495 1720.06 211.129 Q1716.89 214.74 1711.33 214.74 Q1705.75 214.74 1702.58 211.129 Q1699.43 207.495 1699.43 201.129 Q1699.43 194.74 1702.58 191.129 Q1705.75 187.518 1711.33 187.518 Z" fill="#000000" fill-rule="evenodd" fill-opacity="1" /><path clip-path="url(#clip680)" d="M1729.85 203.837 L1729.85 188.143 L1734.11 188.143 L1734.11 203.675 Q1734.11 207.356 1735.54 209.208 Q1736.98 211.036 1739.85 211.036 Q1743.3 211.036 1745.29 208.837 Q1747.3 206.638 1747.3 202.842 L1747.3 188.143 L1751.56 188.143 L1751.56 214.069 L1747.3 214.069 L1747.3 210.087 Q1745.75 212.448 1743.69 213.606 Q1741.65 214.74 1738.95 214.74 Q1734.48 214.74 1732.16 211.962 Q1729.85 209.184 1729.85 203.837 M1740.57 187.518 L1740.57 187.518 Z" fill="#000000" fill-rule="evenodd" fill-opacity="1" /><path clip-path="url(#clip680)" d="M1764.45 210.18 L1764.45 223.93 L1760.17 223.93 L1760.17 188.143 L1764.45 188.143 L1764.45 192.078 Q1765.8 189.763 1767.83 188.652 Q1769.89 187.518 1772.74 187.518 Q1777.46 187.518 1780.4 191.268 Q1783.37 195.018 1783.37 201.129 Q1783.37 207.24 1780.4 210.99 Q1777.46 214.74 1772.74 214.74 Q1769.89 214.74 1767.83 213.629 Q1765.8 212.495 1764.45 210.18 M1778.95 201.129 Q1778.95 196.43 1777 193.768 Q1775.08 191.083 1771.7 191.083 Q1768.32 191.083 1766.38 193.768 Q1764.45 196.43 1764.45 201.129 Q1764.45 205.828 1766.38 208.513 Q1768.32 211.175 1771.7 211.175 Q1775.08 211.175 1777 208.513 Q1778.95 205.828 1778.95 201.129 Z" fill="#000000" fill-rule="evenodd" fill-opacity="1" /><path clip-path="url(#clip680)" d="M1790.43 178.05 L1794.69 178.05 L1794.69 214.069 L1790.43 214.069 L1790.43 178.05 Z" fill="#000000" fill-rule="evenodd" fill-opacity="1" /><path clip-path="url(#clip680)" d="M1825.77 200.041 L1825.77 202.124 L1806.19 202.124 Q1806.47 206.522 1808.83 208.837 Q1811.21 211.129 1815.45 211.129 Q1817.9 211.129 1820.2 210.527 Q1822.51 209.925 1824.78 208.721 L1824.78 212.749 Q1822.49 213.721 1820.08 214.231 Q1817.67 214.74 1815.2 214.74 Q1808.99 214.74 1805.36 211.129 Q1801.75 207.518 1801.75 201.36 Q1801.75 194.995 1805.17 191.268 Q1808.62 187.518 1814.45 187.518 Q1819.69 187.518 1822.72 190.897 Q1825.77 194.254 1825.77 200.041 M1821.51 198.791 Q1821.47 195.296 1819.55 193.212 Q1817.65 191.129 1814.5 191.129 Q1810.94 191.129 1808.78 193.143 Q1806.65 195.157 1806.33 198.814 L1821.51 198.791 Z" fill="#000000" fill-rule="evenodd" fill-opacity="1" /><path clip-path="url(#clip680)" d="M1849.82 192.078 L1849.82 178.05 L1854.08 178.05 L1854.08 214.069 L1849.82 214.069 L1849.82 210.18 Q1848.48 212.495 1846.42 213.629 Q1844.39 214.74 1841.51 214.74 Q1836.82 214.74 1833.85 210.99 Q1830.91 207.24 1830.91 201.129 Q1830.91 195.018 1833.85 191.268 Q1836.82 187.518 1841.51 187.518 Q1844.39 187.518 1846.42 188.652 Q1848.48 189.763 1849.82 192.078 M1835.31 201.129 Q1835.31 205.828 1837.23 208.513 Q1839.18 211.175 1842.56 211.175 Q1845.94 211.175 1847.88 208.513 Q1849.82 205.828 1849.82 201.129 Q1849.82 196.43 1847.88 193.768 Q1845.94 191.083 1842.56 191.083 Q1839.18 191.083 1837.23 193.768 Q1835.31 196.43 1835.31 201.129 Z" fill="#000000" fill-rule="evenodd" fill-opacity="1" /><path clip-path="url(#clip680)" d="M1894.45 188.907 L1894.45 192.934 Q1892.65 192.009 1890.7 191.546 Q1888.76 191.083 1886.68 191.083 Q1883.51 191.083 1881.91 192.055 Q1880.33 193.027 1880.33 194.971 Q1880.33 196.453 1881.47 197.309 Q1882.6 198.143 1886.03 198.907 L1887.49 199.231 Q1892.02 200.203 1893.92 201.985 Q1895.84 203.745 1895.84 206.916 Q1895.84 210.527 1892.97 212.633 Q1890.13 214.74 1885.13 214.74 Q1883.04 214.74 1880.77 214.323 Q1878.53 213.93 1876.03 213.12 L1876.03 208.721 Q1878.39 209.948 1880.68 210.573 Q1882.97 211.175 1885.22 211.175 Q1888.23 211.175 1889.85 210.157 Q1891.47 209.115 1891.47 207.24 Q1891.47 205.504 1890.29 204.578 Q1889.13 203.652 1885.17 202.796 L1883.69 202.448 Q1879.73 201.615 1877.97 199.902 Q1876.21 198.166 1876.21 195.157 Q1876.21 191.499 1878.81 189.509 Q1881.4 187.518 1886.17 187.518 Q1888.53 187.518 1890.61 187.865 Q1892.69 188.212 1894.45 188.907 Z" fill="#000000" fill-rule="evenodd" fill-opacity="1" /><path clip-path="url(#clip680)" d="M1913.41 216.476 Q1911.61 221.106 1909.89 222.518 Q1908.18 223.93 1905.31 223.93 L1901.91 223.93 L1901.91 220.365 L1904.41 220.365 Q1906.17 220.365 1907.14 219.532 Q1908.11 218.698 1909.29 215.596 L1910.06 213.652 L1899.57 188.143 L1904.08 188.143 L1912.19 208.421 L1920.29 188.143 L1924.8 188.143 L1913.41 216.476 Z" fill="#000000" fill-rule="evenodd" fill-opacity="1" /><path clip-path="url(#clip680)" d="M1947.21 188.907 L1947.21 192.934 Q1945.4 192.009 1943.46 191.546 Q1941.51 191.083 1939.43 191.083 Q1936.26 191.083 1934.66 192.055 Q1933.09 193.027 1933.09 194.971 Q1933.09 196.453 1934.22 197.309 Q1935.36 198.143 1938.78 198.907 L1940.24 199.231 Q1944.78 200.203 1946.68 201.985 Q1948.6 203.745 1948.6 206.916 Q1948.6 210.527 1945.73 212.633 Q1942.88 214.74 1937.88 214.74 Q1935.8 214.74 1933.53 214.323 Q1931.28 213.93 1928.78 213.12 L1928.78 208.721 Q1931.14 209.948 1933.44 210.573 Q1935.73 211.175 1937.97 211.175 Q1940.98 211.175 1942.6 210.157 Q1944.22 209.115 1944.22 207.24 Q1944.22 205.504 1943.04 204.578 Q1941.88 203.652 1937.93 202.796 L1936.44 202.448 Q1932.49 201.615 1930.73 199.902 Q1928.97 198.166 1928.97 195.157 Q1928.97 191.499 1931.56 189.509 Q1934.15 187.518 1938.92 187.518 Q1941.28 187.518 1943.37 187.865 Q1945.45 188.212 1947.21 188.907 Z" fill="#000000" fill-rule="evenodd" fill-opacity="1" /><path clip-path="url(#clip680)" d="M1959.59 180.782 L1959.59 188.143 L1968.37 188.143 L1968.37 191.453 L1959.59 191.453 L1959.59 205.527 Q1959.59 208.698 1960.45 209.601 Q1961.33 210.504 1963.99 210.504 L1968.37 210.504 L1968.37 214.069 L1963.99 214.069 Q1959.06 214.069 1957.19 212.24 Q1955.31 210.388 1955.31 205.527 L1955.31 191.453 L1952.19 191.453 L1952.19 188.143 L1955.31 188.143 L1955.31 180.782 L1959.59 180.782 Z" fill="#000000" fill-rule="evenodd" fill-opacity="1" /><path clip-path="url(#clip680)" d="M1996.14 200.041 L1996.14 202.124 L1976.56 202.124 Q1976.84 206.522 1979.2 208.837 Q1981.58 211.129 1985.82 211.129 Q1988.27 211.129 1990.56 210.527 Q1992.88 209.925 1995.15 208.721 L1995.15 212.749 Q1992.86 213.721 1990.45 214.231 Q1988.04 214.74 1985.56 214.74 Q1979.36 214.74 1975.73 211.129 Q1972.12 207.518 1972.12 201.36 Q1972.12 194.995 1975.54 191.268 Q1978.99 187.518 1984.82 187.518 Q1990.06 187.518 1993.09 190.897 Q1996.14 194.254 1996.14 200.041 M1991.88 198.791 Q1991.84 195.296 1989.92 193.212 Q1988.02 191.129 1984.87 191.129 Q1981.31 191.129 1979.15 193.143 Q1977.02 195.157 1976.7 198.814 L1991.88 198.791 Z" fill="#000000" fill-rule="evenodd" fill-opacity="1" /><path clip-path="url(#clip680)" d="M2023.32 193.12 Q2024.92 190.249 2027.14 188.884 Q2029.36 187.518 2032.37 187.518 Q2036.42 187.518 2038.62 190.365 Q2040.82 193.189 2040.82 198.421 L2040.82 214.069 L2036.54 214.069 L2036.54 198.559 Q2036.54 194.833 2035.22 193.027 Q2033.9 191.222 2031.19 191.222 Q2027.88 191.222 2025.96 193.421 Q2024.04 195.62 2024.04 199.416 L2024.04 214.069 L2019.75 214.069 L2019.75 198.559 Q2019.75 194.809 2018.44 193.027 Q2017.12 191.222 2014.36 191.222 Q2011.1 191.222 2009.18 193.444 Q2007.25 195.643 2007.25 199.416 L2007.25 214.069 L2002.97 214.069 L2002.97 188.143 L2007.25 188.143 L2007.25 192.171 Q2008.71 189.786 2010.75 188.652 Q2012.79 187.518 2015.59 187.518 Q2018.41 187.518 2020.38 188.953 Q2022.37 190.388 2023.32 193.12 Z" fill="#000000" fill-rule="evenodd" fill-opacity="1" /><path clip-path="url(#clip680)" d="M2074.62 178.097 Q2071.51 183.421 2070.01 188.629 Q2068.5 193.837 2068.5 199.184 Q2068.5 204.532 2070.01 209.786 Q2071.54 215.018 2074.62 220.319 L2070.91 220.319 Q2067.44 214.879 2065.7 209.624 Q2063.99 204.37 2063.99 199.184 Q2063.99 194.022 2065.7 188.791 Q2067.42 183.56 2070.91 178.097 L2074.62 178.097 Z" fill="#000000" fill-rule="evenodd" fill-opacity="1" /><path clip-path="url(#clip680)" d="M2093.67 216.476 Q2091.86 221.106 2090.15 222.518 Q2088.43 223.93 2085.56 223.93 L2082.16 223.93 L2082.16 220.365 L2084.66 220.365 Q2086.42 220.365 2087.39 219.532 Q2088.37 218.698 2089.55 215.596 L2090.31 213.652 L2079.82 188.143 L2084.34 188.143 L2092.44 208.421 L2100.54 188.143 L2105.05 188.143 L2093.67 216.476 Z" fill="#000000" fill-rule="evenodd" fill-opacity="1" /><path clip-path="url(#clip680)" d="M2123.85 199.184 L2136.33 199.184 L2136.33 202.981 L2123.85 202.981 L2123.85 199.184 Z" fill="#000000" fill-rule="evenodd" fill-opacity="1" /><path clip-path="url(#clip680)" d="M2143.67 190.735 L2143.67 186.522 L2173.34 197.286 L2173.34 201.129 L2143.67 211.893 L2143.67 207.68 L2167.51 199.231 L2143.67 190.735 Z" fill="#000000" fill-rule="evenodd" fill-opacity="1" /><path clip-path="url(#clip680)" d="M2219.45 188.143 L2210.08 200.759 L2219.94 214.069 L2214.92 214.069 L2207.37 203.883 L2199.82 214.069 L2194.8 214.069 L2204.87 200.504 L2195.66 188.143 L2200.68 188.143 L2207.55 197.379 L2214.43 188.143 L2219.45 188.143 Z" fill="#000000" fill-rule="evenodd" fill-opacity="1" /><path clip-path="url(#clip680)" d="M2225.29 178.097 L2228.99 178.097 Q2232.46 183.56 2234.17 188.791 Q2235.91 194.022 2235.91 199.184 Q2235.91 204.37 2234.17 209.624 Q2232.46 214.879 2228.99 220.319 L2225.29 220.319 Q2228.36 215.018 2229.87 209.786 Q2231.4 204.532 2231.4 199.184 Q2231.4 193.837 2229.87 188.629 Q2228.36 183.421 2225.29 178.097 Z" fill="#000000" fill-rule="evenodd" fill-opacity="1" /><polyline clip-path="url(#clip680)" style="stroke:#3da44d; stroke-linecap:round; stroke-linejoin:round; stroke-width:4; stroke-opacity:1; fill:none" points="
  1252.45,248.629 1392.66,248.629 
  "/>
<circle clip-path="url(#clip680)" cx="1322.55" cy="248.629" r="19.4742" fill="#3da44d" fill-rule="evenodd" fill-opacity="1" stroke="#000000" stroke-opacity="1" stroke-width="10.24"/>
<path clip-path="url(#clip680)" d="M1437.74 250.261 L1437.74 265.909 L1433.48 265.909 L1433.48 250.399 Q1433.48 246.719 1432.05 244.89 Q1430.61 243.062 1427.74 243.062 Q1424.29 243.062 1422.3 245.261 Q1420.31 247.46 1420.31 251.256 L1420.31 265.909 L1416.03 265.909 L1416.03 229.89 L1420.31 229.89 L1420.31 244.011 Q1421.84 241.673 1423.9 240.515 Q1425.98 239.358 1428.69 239.358 Q1433.16 239.358 1435.45 242.136 Q1437.74 244.89 1437.74 250.261 Z" fill="#000000" fill-rule="evenodd" fill-opacity="1" /><path clip-path="url(#clip680)" d="M1468.41 251.881 L1468.41 253.964 L1448.83 253.964 Q1449.11 258.362 1451.47 260.677 Q1453.85 262.969 1458.09 262.969 Q1460.54 262.969 1462.84 262.367 Q1465.15 261.765 1467.42 260.561 L1467.42 264.589 Q1465.13 265.561 1462.72 266.071 Q1460.31 266.58 1457.84 266.58 Q1451.63 266.58 1448 262.969 Q1444.39 259.358 1444.39 253.2 Q1444.39 246.835 1447.81 243.108 Q1451.26 239.358 1457.1 239.358 Q1462.33 239.358 1465.36 242.737 Q1468.41 246.094 1468.41 251.881 M1464.16 250.631 Q1464.11 247.136 1462.19 245.052 Q1460.29 242.969 1457.14 242.969 Q1453.58 242.969 1451.42 244.983 Q1449.29 246.997 1448.97 250.654 L1464.16 250.631 Z" fill="#000000" fill-rule="evenodd" fill-opacity="1" /><path clip-path="url(#clip680)" d="M1496.96 250.261 L1496.96 265.909 L1492.7 265.909 L1492.7 250.399 Q1492.7 246.719 1491.26 244.89 Q1489.83 243.062 1486.96 243.062 Q1483.51 243.062 1481.52 245.261 Q1479.53 247.46 1479.53 251.256 L1479.53 265.909 L1475.24 265.909 L1475.24 239.983 L1479.53 239.983 L1479.53 244.011 Q1481.05 241.673 1483.11 240.515 Q1485.2 239.358 1487.91 239.358 Q1492.37 239.358 1494.66 242.136 Q1496.96 244.89 1496.96 250.261 Z" fill="#000000" fill-rule="evenodd" fill-opacity="1" /><path clip-path="url(#clip680)" d="M1515.5 242.969 Q1512.07 242.969 1510.08 245.654 Q1508.09 248.316 1508.09 252.969 Q1508.09 257.622 1510.06 260.307 Q1512.05 262.969 1515.5 262.969 Q1518.9 262.969 1520.89 260.284 Q1522.88 257.598 1522.88 252.969 Q1522.88 248.362 1520.89 245.677 Q1518.9 242.969 1515.5 242.969 M1515.5 239.358 Q1521.05 239.358 1524.22 242.969 Q1527.4 246.58 1527.4 252.969 Q1527.4 259.335 1524.22 262.969 Q1521.05 266.58 1515.5 266.58 Q1509.92 266.58 1506.75 262.969 Q1503.6 259.335 1503.6 252.969 Q1503.6 246.58 1506.75 242.969 Q1509.92 239.358 1515.5 239.358 Z" fill="#000000" fill-rule="evenodd" fill-opacity="1" /><path clip-path="url(#clip680)" d="M1556.01 250.261 L1556.01 265.909 L1551.75 265.909 L1551.75 250.399 Q1551.75 246.719 1550.31 244.89 Q1548.88 243.062 1546.01 243.062 Q1542.56 243.062 1540.57 245.261 Q1538.58 247.46 1538.58 251.256 L1538.58 265.909 L1534.29 265.909 L1534.29 239.983 L1538.58 239.983 L1538.58 244.011 Q1540.1 241.673 1542.16 240.515 Q1544.25 239.358 1546.96 239.358 Q1551.42 239.358 1553.72 242.136 Q1556.01 244.89 1556.01 250.261 Z" fill="#000000" fill-rule="evenodd" fill-opacity="1" /><path clip-path="url(#clip680)" d="M1579.13 255.677 L1579.13 239.983 L1583.39 239.983 L1583.39 255.515 Q1583.39 259.196 1584.83 261.048 Q1586.26 262.876 1589.13 262.876 Q1592.58 262.876 1594.57 260.677 Q1596.59 258.478 1596.59 254.682 L1596.59 239.983 L1600.84 239.983 L1600.84 265.909 L1596.59 265.909 L1596.59 261.927 Q1595.03 264.288 1592.97 265.446 Q1590.94 266.58 1588.23 266.58 Q1583.76 266.58 1581.45 263.802 Q1579.13 261.024 1579.13 255.677 M1589.85 239.358 L1589.85 239.358 Z" fill="#000000" fill-rule="evenodd" fill-opacity="1" /><path clip-path="url(#clip680)" d="M1631.17 250.261 L1631.17 265.909 L1626.91 265.909 L1626.91 250.399 Q1626.91 246.719 1625.47 244.89 Q1624.04 243.062 1621.17 243.062 Q1617.72 243.062 1615.73 245.261 Q1613.74 247.46 1613.74 251.256 L1613.74 265.909 L1609.46 265.909 L1609.46 239.983 L1613.74 239.983 L1613.74 244.011 Q1615.27 241.673 1617.33 240.515 Q1619.41 239.358 1622.12 239.358 Q1626.59 239.358 1628.88 242.136 Q1631.17 244.89 1631.17 250.261 Z" fill="#000000" fill-rule="evenodd" fill-opacity="1" /><path clip-path="url(#clip680)" d="M1639.66 239.983 L1643.92 239.983 L1643.92 265.909 L1639.66 265.909 L1639.66 239.983 M1639.66 229.89 L1643.92 229.89 L1643.92 235.284 L1639.66 235.284 L1639.66 229.89 Z" fill="#000000" fill-rule="evenodd" fill-opacity="1" /><path clip-path="url(#clip680)" d="M1669.9 243.918 L1669.9 229.89 L1674.15 229.89 L1674.15 265.909 L1669.9 265.909 L1669.9 262.02 Q1668.55 264.335 1666.49 265.469 Q1664.46 266.58 1661.59 266.58 Q1656.89 266.58 1653.92 262.83 Q1650.98 259.08 1650.98 252.969 Q1650.98 246.858 1653.92 243.108 Q1656.89 239.358 1661.59 239.358 Q1664.46 239.358 1666.49 240.492 Q1668.55 241.603 1669.9 243.918 M1655.38 252.969 Q1655.38 257.668 1657.3 260.353 Q1659.25 263.015 1662.63 263.015 Q1666.01 263.015 1667.95 260.353 Q1669.9 257.668 1669.9 252.969 Q1669.9 248.27 1667.95 245.608 Q1666.01 242.923 1662.63 242.923 Q1659.25 242.923 1657.3 245.608 Q1655.38 248.27 1655.38 252.969 Z" fill="#000000" fill-rule="evenodd" fill-opacity="1" /><path clip-path="url(#clip680)" d="M1682.93 239.983 L1687.19 239.983 L1687.19 265.909 L1682.93 265.909 L1682.93 239.983 M1682.93 229.89 L1687.19 229.89 L1687.19 235.284 L1682.93 235.284 L1682.93 229.89 Z" fill="#000000" fill-rule="evenodd" fill-opacity="1" /><path clip-path="url(#clip680)" d="M1711.12 243.964 Q1710.4 243.548 1709.55 243.362 Q1708.71 243.154 1707.7 243.154 Q1704.08 243.154 1702.14 245.515 Q1700.22 247.853 1700.22 252.251 L1700.22 265.909 L1695.94 265.909 L1695.94 239.983 L1700.22 239.983 L1700.22 244.011 Q1701.56 241.649 1703.71 240.515 Q1705.87 239.358 1708.95 239.358 Q1709.39 239.358 1709.92 239.427 Q1710.45 239.474 1711.1 239.589 L1711.12 243.964 Z" fill="#000000" fill-rule="evenodd" fill-opacity="1" /><path clip-path="url(#clip680)" d="M1740.89 229.937 Q1737.79 235.261 1736.28 240.469 Q1734.78 245.677 1734.78 251.024 Q1734.78 256.372 1736.28 261.626 Q1737.81 266.858 1740.89 272.159 L1737.19 272.159 Q1733.71 266.719 1731.98 261.464 Q1730.27 256.21 1730.27 251.024 Q1730.27 245.862 1731.98 240.631 Q1733.69 235.4 1737.19 229.937 L1740.89 229.937 Z" fill="#000000" fill-rule="evenodd" fill-opacity="1" /><path clip-path="url(#clip680)" d="M1770.7 239.983 L1761.33 252.599 L1771.19 265.909 L1766.17 265.909 L1758.62 255.723 L1751.08 265.909 L1746.05 265.909 L1756.12 252.344 L1746.91 239.983 L1751.93 239.983 L1758.81 249.219 L1765.68 239.983 L1770.7 239.983 Z" fill="#000000" fill-rule="evenodd" fill-opacity="1" /><path clip-path="url(#clip680)" d="M1790.13 251.024 L1802.6 251.024 L1802.6 254.821 L1790.13 254.821 L1790.13 251.024 Z" fill="#000000" fill-rule="evenodd" fill-opacity="1" /><path clip-path="url(#clip680)" d="M1809.94 242.575 L1809.94 238.362 L1839.62 249.126 L1839.62 252.969 L1809.94 263.733 L1809.94 259.52 L1833.78 251.071 L1809.94 242.575 Z" fill="#000000" fill-rule="evenodd" fill-opacity="1" /><path clip-path="url(#clip680)" d="M1874.96 268.316 Q1873.16 272.946 1871.45 274.358 Q1869.73 275.77 1866.86 275.77 L1863.46 275.77 L1863.46 272.205 L1865.96 272.205 Q1867.72 272.205 1868.69 271.372 Q1869.66 270.538 1870.84 267.436 L1871.61 265.492 L1861.12 239.983 L1865.63 239.983 L1873.74 260.261 L1881.84 239.983 L1886.35 239.983 L1874.96 268.316 Z" fill="#000000" fill-rule="evenodd" fill-opacity="1" /><path clip-path="url(#clip680)" d="M1891.56 229.937 L1895.26 229.937 Q1898.74 235.4 1900.45 240.631 Q1902.19 245.862 1902.19 251.024 Q1902.19 256.21 1900.45 261.464 Q1898.74 266.719 1895.26 272.159 L1891.56 272.159 Q1894.64 266.858 1896.14 261.626 Q1897.67 256.372 1897.67 251.024 Q1897.67 245.677 1896.14 240.469 Q1894.64 235.261 1891.56 229.937 Z" fill="#000000" fill-rule="evenodd" fill-opacity="1" /><polyline clip-path="url(#clip680)" style="stroke:#c271d2; stroke-linecap:round; stroke-linejoin:round; stroke-width:4; stroke-opacity:1; fill:none" points="
  1252.45,300.469 1392.66,300.469 
  "/>
<circle clip-path="url(#clip680)" cx="1322.55" cy="300.469" r="19.4742" fill="#c271d2" fill-rule="evenodd" fill-opacity="1" stroke="#000000" stroke-opacity="1" stroke-width="10.24"/>
<path clip-path="url(#clip680)" d="M1437.74 302.101 L1437.74 317.749 L1433.48 317.749 L1433.48 302.239 Q1433.48 298.559 1432.05 296.73 Q1430.61 294.902 1427.74 294.902 Q1424.29 294.902 1422.3 297.101 Q1420.31 299.3 1420.31 303.096 L1420.31 317.749 L1416.03 317.749 L1416.03 281.73 L1420.31 281.73 L1420.31 295.851 Q1421.84 293.513 1423.9 292.355 Q1425.98 291.198 1428.69 291.198 Q1433.16 291.198 1435.45 293.976 Q1437.74 296.73 1437.74 302.101 Z" fill="#000000" fill-rule="evenodd" fill-opacity="1" /><path clip-path="url(#clip680)" d="M1468.41 303.721 L1468.41 305.804 L1448.83 305.804 Q1449.11 310.202 1451.47 312.517 Q1453.85 314.809 1458.09 314.809 Q1460.54 314.809 1462.84 314.207 Q1465.15 313.605 1467.42 312.401 L1467.42 316.429 Q1465.13 317.401 1462.72 317.911 Q1460.31 318.42 1457.84 318.42 Q1451.63 318.42 1448 314.809 Q1444.39 311.198 1444.39 305.04 Q1444.39 298.675 1447.81 294.948 Q1451.26 291.198 1457.1 291.198 Q1462.33 291.198 1465.36 294.577 Q1468.41 297.934 1468.41 303.721 M1464.16 302.471 Q1464.11 298.976 1462.19 296.892 Q1460.29 294.809 1457.14 294.809 Q1453.58 294.809 1451.42 296.823 Q1449.29 298.837 1448.97 302.494 L1464.16 302.471 Z" fill="#000000" fill-rule="evenodd" fill-opacity="1" /><path clip-path="url(#clip680)" d="M1496.96 302.101 L1496.96 317.749 L1492.7 317.749 L1492.7 302.239 Q1492.7 298.559 1491.26 296.73 Q1489.83 294.902 1486.96 294.902 Q1483.51 294.902 1481.52 297.101 Q1479.53 299.3 1479.53 303.096 L1479.53 317.749 L1475.24 317.749 L1475.24 291.823 L1479.53 291.823 L1479.53 295.851 Q1481.05 293.513 1483.11 292.355 Q1485.2 291.198 1487.91 291.198 Q1492.37 291.198 1494.66 293.976 Q1496.96 296.73 1496.96 302.101 Z" fill="#000000" fill-rule="evenodd" fill-opacity="1" /><path clip-path="url(#clip680)" d="M1515.5 294.809 Q1512.07 294.809 1510.08 297.494 Q1508.09 300.156 1508.09 304.809 Q1508.09 309.462 1510.06 312.147 Q1512.05 314.809 1515.5 314.809 Q1518.9 314.809 1520.89 312.124 Q1522.88 309.438 1522.88 304.809 Q1522.88 300.202 1520.89 297.517 Q1518.9 294.809 1515.5 294.809 M1515.5 291.198 Q1521.05 291.198 1524.22 294.809 Q1527.4 298.42 1527.4 304.809 Q1527.4 311.175 1524.22 314.809 Q1521.05 318.42 1515.5 318.42 Q1509.92 318.42 1506.75 314.809 Q1503.6 311.175 1503.6 304.809 Q1503.6 298.42 1506.75 294.809 Q1509.92 291.198 1515.5 291.198 Z" fill="#000000" fill-rule="evenodd" fill-opacity="1" /><path clip-path="url(#clip680)" d="M1556.01 302.101 L1556.01 317.749 L1551.75 317.749 L1551.75 302.239 Q1551.75 298.559 1550.31 296.73 Q1548.88 294.902 1546.01 294.902 Q1542.56 294.902 1540.57 297.101 Q1538.58 299.3 1538.58 303.096 L1538.58 317.749 L1534.29 317.749 L1534.29 291.823 L1538.58 291.823 L1538.58 295.851 Q1540.1 293.513 1542.16 292.355 Q1544.25 291.198 1546.96 291.198 Q1551.42 291.198 1553.72 293.976 Q1556.01 296.73 1556.01 302.101 Z" fill="#000000" fill-rule="evenodd" fill-opacity="1" /><path clip-path="url(#clip680)" d="M1579.13 307.517 L1579.13 291.823 L1583.39 291.823 L1583.39 307.355 Q1583.39 311.036 1584.83 312.888 Q1586.26 314.716 1589.13 314.716 Q1592.58 314.716 1594.57 312.517 Q1596.59 310.318 1596.59 306.522 L1596.59 291.823 L1600.84 291.823 L1600.84 317.749 L1596.59 317.749 L1596.59 313.767 Q1595.03 316.128 1592.97 317.286 Q1590.94 318.42 1588.23 318.42 Q1583.76 318.42 1581.45 315.642 Q1579.13 312.864 1579.13 307.517 M1589.85 291.198 L1589.85 291.198 Z" fill="#000000" fill-rule="evenodd" fill-opacity="1" /><path clip-path="url(#clip680)" d="M1631.17 302.101 L1631.17 317.749 L1626.91 317.749 L1626.91 302.239 Q1626.91 298.559 1625.47 296.73 Q1624.04 294.902 1621.17 294.902 Q1617.72 294.902 1615.73 297.101 Q1613.74 299.3 1613.74 303.096 L1613.74 317.749 L1609.46 317.749 L1609.46 291.823 L1613.74 291.823 L1613.74 295.851 Q1615.27 293.513 1617.33 292.355 Q1619.41 291.198 1622.12 291.198 Q1626.59 291.198 1628.88 293.976 Q1631.17 296.73 1631.17 302.101 Z" fill="#000000" fill-rule="evenodd" fill-opacity="1" /><path clip-path="url(#clip680)" d="M1639.66 291.823 L1643.92 291.823 L1643.92 317.749 L1639.66 317.749 L1639.66 291.823 M1639.66 281.73 L1643.92 281.73 L1643.92 287.124 L1639.66 287.124 L1639.66 281.73 Z" fill="#000000" fill-rule="evenodd" fill-opacity="1" /><path clip-path="url(#clip680)" d="M1669.9 295.758 L1669.9 281.73 L1674.15 281.73 L1674.15 317.749 L1669.9 317.749 L1669.9 313.86 Q1668.55 316.175 1666.49 317.309 Q1664.46 318.42 1661.59 318.42 Q1656.89 318.42 1653.92 314.67 Q1650.98 310.92 1650.98 304.809 Q1650.98 298.698 1653.92 294.948 Q1656.89 291.198 1661.59 291.198 Q1664.46 291.198 1666.49 292.332 Q1668.55 293.443 1669.9 295.758 M1655.38 304.809 Q1655.38 309.508 1657.3 312.193 Q1659.25 314.855 1662.63 314.855 Q1666.01 314.855 1667.95 312.193 Q1669.9 309.508 1669.9 304.809 Q1669.9 300.11 1667.95 297.448 Q1666.01 294.763 1662.63 294.763 Q1659.25 294.763 1657.3 297.448 Q1655.38 300.11 1655.38 304.809 Z" fill="#000000" fill-rule="evenodd" fill-opacity="1" /><path clip-path="url(#clip680)" d="M1682.93 291.823 L1687.19 291.823 L1687.19 317.749 L1682.93 317.749 L1682.93 291.823 M1682.93 281.73 L1687.19 281.73 L1687.19 287.124 L1682.93 287.124 L1682.93 281.73 Z" fill="#000000" fill-rule="evenodd" fill-opacity="1" /><path clip-path="url(#clip680)" d="M1711.12 295.804 Q1710.4 295.388 1709.55 295.202 Q1708.71 294.994 1707.7 294.994 Q1704.08 294.994 1702.14 297.355 Q1700.22 299.693 1700.22 304.091 L1700.22 317.749 L1695.94 317.749 L1695.94 291.823 L1700.22 291.823 L1700.22 295.851 Q1701.56 293.489 1703.71 292.355 Q1705.87 291.198 1708.95 291.198 Q1709.39 291.198 1709.92 291.267 Q1710.45 291.314 1711.1 291.429 L1711.12 295.804 Z" fill="#000000" fill-rule="evenodd" fill-opacity="1" /><path clip-path="url(#clip680)" d="M1740.89 281.777 Q1737.79 287.101 1736.28 292.309 Q1734.78 297.517 1734.78 302.864 Q1734.78 308.212 1736.28 313.466 Q1737.81 318.698 1740.89 323.999 L1737.19 323.999 Q1733.71 318.559 1731.98 313.304 Q1730.27 308.05 1730.27 302.864 Q1730.27 297.702 1731.98 292.471 Q1733.69 287.24 1737.19 281.777 L1740.89 281.777 Z" fill="#000000" fill-rule="evenodd" fill-opacity="1" /><path clip-path="url(#clip680)" d="M1759.94 320.156 Q1758.14 324.786 1756.42 326.198 Q1754.71 327.61 1751.84 327.61 L1748.44 327.61 L1748.44 324.045 L1750.94 324.045 Q1752.7 324.045 1753.67 323.212 Q1754.64 322.378 1755.82 319.276 L1756.58 317.332 L1746.1 291.823 L1750.61 291.823 L1758.71 312.101 L1766.82 291.823 L1771.33 291.823 L1759.94 320.156 Z" fill="#000000" fill-rule="evenodd" fill-opacity="1" /><path clip-path="url(#clip680)" d="M1790.13 302.864 L1802.6 302.864 L1802.6 306.661 L1790.13 306.661 L1790.13 302.864 Z" fill="#000000" fill-rule="evenodd" fill-opacity="1" /><path clip-path="url(#clip680)" d="M1809.94 294.415 L1809.94 290.202 L1839.62 300.966 L1839.62 304.809 L1809.94 315.573 L1809.94 311.36 L1833.78 302.911 L1809.94 294.415 Z" fill="#000000" fill-rule="evenodd" fill-opacity="1" /><path clip-path="url(#clip680)" d="M1885.73 291.823 L1876.35 304.439 L1886.21 317.749 L1881.19 317.749 L1873.64 307.563 L1866.1 317.749 L1861.07 317.749 L1871.14 304.184 L1861.93 291.823 L1866.95 291.823 L1873.83 301.059 L1880.7 291.823 L1885.73 291.823 Z" fill="#000000" fill-rule="evenodd" fill-opacity="1" /><path clip-path="url(#clip680)" d="M1891.56 281.777 L1895.26 281.777 Q1898.74 287.24 1900.45 292.471 Q1902.19 297.702 1902.19 302.864 Q1902.19 308.05 1900.45 313.304 Q1898.74 318.559 1895.26 323.999 L1891.56 323.999 Q1894.64 318.698 1896.14 313.466 Q1897.67 308.212 1897.67 302.864 Q1897.67 297.517 1896.14 292.309 Q1894.64 287.101 1891.56 281.777 Z" fill="#000000" fill-rule="evenodd" fill-opacity="1" /></svg>
