<?xml version="1.0" encoding="utf-8"?>
<svg xmlns="http://www.w3.org/2000/svg" xmlns:xlink="http://www.w3.org/1999/xlink" width="600" height="400" viewBox="0 0 2400 1600">
<defs>
  <clipPath id="clip350">
    <rect x="0" y="0" width="2400" height="1600"/>
  </clipPath>
</defs>
<path clip-path="url(#clip350)" d="
M0 1600 L2400 1600 L2400 0 L0 0  Z
  " fill="#ffffff" fill-rule="evenodd" fill-opacity="1"/>
<defs>
  <clipPath id="clip351">
    <rect x="480" y="0" width="1681" height="1600"/>
  </clipPath>
</defs>
<path clip-path="url(#clip350)" d="
M249.542 1423.18 L2352.76 1423.18 L2352.76 47.2441 L249.542 47.2441  Z
  " fill="#ffffff" fill-rule="evenodd" fill-opacity="1"/>
<defs>
  <clipPath id="clip352">
    <rect x="249" y="47" width="2104" height="1377"/>
  </clipPath>
</defs>
<polyline clip-path="url(#clip352)" style="stroke:#000000; stroke-linecap:butt; stroke-linejoin:round; stroke-width:2; stroke-opacity:0.1; fill:none" points="
  309.067,1423.18 309.067,47.2441 
  "/>
<polyline clip-path="url(#clip352)" style="stroke:#000000; stroke-linecap:butt; stroke-linejoin:round; stroke-width:2; stroke-opacity:0.1; fill:none" points="
  805.108,1423.18 805.108,47.2441 
  "/>
<polyline clip-path="url(#clip352)" style="stroke:#000000; stroke-linecap:butt; stroke-linejoin:round; stroke-width:2; stroke-opacity:0.1; fill:none" points="
  1301.15,1423.18 1301.15,47.2441 
  "/>
<polyline clip-path="url(#clip352)" style="stroke:#000000; stroke-linecap:butt; stroke-linejoin:round; stroke-width:2; stroke-opacity:0.1; fill:none" points="
  1797.19,1423.18 1797.19,47.2441 
  "/>
<polyline clip-path="url(#clip352)" style="stroke:#000000; stroke-linecap:butt; stroke-linejoin:round; stroke-width:2; stroke-opacity:0.1; fill:none" points="
  2293.23,1423.18 2293.23,47.2441 
  "/>
<polyline clip-path="url(#clip350)" style="stroke:#000000; stroke-linecap:butt; stroke-linejoin:round; stroke-width:4; stroke-opacity:1; fill:none" points="
  249.542,1423.18 2352.76,1423.18 
  "/>
<polyline clip-path="url(#clip350)" style="stroke:#000000; stroke-linecap:butt; stroke-linejoin:round; stroke-width:4; stroke-opacity:1; fill:none" points="
  309.067,1423.18 309.067,1404.28 
  "/>
<polyline clip-path="url(#clip350)" style="stroke:#000000; stroke-linecap:butt; stroke-linejoin:round; stroke-width:4; stroke-opacity:1; fill:none" points="
  805.108,1423.18 805.108,1404.28 
  "/>
<polyline clip-path="url(#clip350)" style="stroke:#000000; stroke-linecap:butt; stroke-linejoin:round; stroke-width:4; stroke-opacity:1; fill:none" points="
  1301.15,1423.18 1301.15,1404.28 
  "/>
<polyline clip-path="url(#clip350)" style="stroke:#000000; stroke-linecap:butt; stroke-linejoin:round; stroke-width:4; stroke-opacity:1; fill:none" points="
  1797.19,1423.18 1797.19,1404.28 
  "/>
<polyline clip-path="url(#clip350)" style="stroke:#000000; stroke-linecap:butt; stroke-linejoin:round; stroke-width:4; stroke-opacity:1; fill:none" points="
  2293.23,1423.18 2293.23,1404.28 
  "/>
<path clip-path="url(#clip350)" d="M303.72 1481.64 L320.039 1481.64 L320.039 1485.58 L298.095 1485.58 L298.095 1481.64 Q300.757 1478.89 305.34 1474.26 Q309.947 1469.61 311.127 1468.27 Q313.372 1465.74 314.252 1464.01 Q315.155 1462.25 315.155 1460.56 Q315.155 1457.8 313.21 1456.07 Q311.289 1454.33 308.187 1454.33 Q305.988 1454.33 303.535 1455.09 Q301.104 1455.86 298.326 1457.41 L298.326 1452.69 Q301.15 1451.55 303.604 1450.97 Q306.058 1450.39 308.095 1450.39 Q313.465 1450.39 316.66 1453.08 Q319.854 1455.77 319.854 1460.26 Q319.854 1462.39 319.044 1464.31 Q318.257 1466.2 316.15 1468.8 Q315.572 1469.47 312.47 1472.69 Q309.368 1475.88 303.72 1481.64 Z" fill="#000000" fill-rule="evenodd" fill-opacity="1" /><path clip-path="url(#clip350)" d="M808.117 1455.09 L796.312 1473.54 L808.117 1473.54 L808.117 1455.09 M806.89 1451.02 L812.77 1451.02 L812.77 1473.54 L817.7 1473.54 L817.7 1477.43 L812.77 1477.43 L812.77 1485.58 L808.117 1485.58 L808.117 1477.43 L792.515 1477.43 L792.515 1472.92 L806.89 1451.02 Z" fill="#000000" fill-rule="evenodd" fill-opacity="1" /><path clip-path="url(#clip350)" d="M1301.55 1466.44 Q1298.41 1466.44 1296.55 1468.59 Q1294.73 1470.74 1294.73 1474.49 Q1294.73 1478.22 1296.55 1480.39 Q1298.41 1482.55 1301.55 1482.55 Q1304.7 1482.55 1306.53 1480.39 Q1308.38 1478.22 1308.38 1474.49 Q1308.38 1470.74 1306.53 1468.59 Q1304.7 1466.44 1301.55 1466.44 M1310.84 1451.78 L1310.84 1456.04 Q1309.08 1455.21 1307.27 1454.77 Q1305.49 1454.33 1303.73 1454.33 Q1299.1 1454.33 1296.65 1457.45 Q1294.22 1460.58 1293.87 1466.9 Q1295.23 1464.89 1297.29 1463.82 Q1299.35 1462.73 1301.83 1462.73 Q1307.04 1462.73 1310.05 1465.9 Q1313.08 1469.05 1313.08 1474.49 Q1313.08 1479.82 1309.93 1483.03 Q1306.79 1486.25 1301.55 1486.25 Q1295.56 1486.25 1292.39 1481.67 Q1289.22 1477.06 1289.22 1468.33 Q1289.22 1460.14 1293.11 1455.28 Q1296.99 1450.39 1303.54 1450.39 Q1305.3 1450.39 1307.09 1450.74 Q1308.89 1451.09 1310.84 1451.78 Z" fill="#000000" fill-rule="evenodd" fill-opacity="1" /><path clip-path="url(#clip350)" d="M1797.19 1469.17 Q1793.86 1469.17 1791.94 1470.95 Q1790.04 1472.73 1790.04 1475.86 Q1790.04 1478.98 1791.94 1480.77 Q1793.86 1482.55 1797.19 1482.55 Q1800.52 1482.55 1802.44 1480.77 Q1804.37 1478.96 1804.37 1475.86 Q1804.37 1472.73 1802.44 1470.95 Q1800.55 1469.17 1797.19 1469.17 M1792.51 1467.18 Q1789.5 1466.44 1787.82 1464.38 Q1786.15 1462.32 1786.15 1459.35 Q1786.15 1455.21 1789.09 1452.8 Q1792.05 1450.39 1797.19 1450.39 Q1802.35 1450.39 1805.29 1452.8 Q1808.23 1455.21 1808.23 1459.35 Q1808.23 1462.32 1806.54 1464.38 Q1804.88 1466.44 1801.89 1467.18 Q1805.27 1467.96 1807.14 1470.26 Q1809.04 1472.55 1809.04 1475.86 Q1809.04 1480.88 1805.96 1483.57 Q1802.91 1486.25 1797.19 1486.25 Q1791.47 1486.25 1788.39 1483.57 Q1785.34 1480.88 1785.34 1475.86 Q1785.34 1472.55 1787.24 1470.26 Q1789.13 1467.96 1792.51 1467.18 M1790.8 1459.79 Q1790.8 1462.48 1792.47 1463.98 Q1794.16 1465.49 1797.19 1465.49 Q1800.2 1465.49 1801.89 1463.98 Q1803.6 1462.48 1803.6 1459.79 Q1803.6 1457.11 1801.89 1455.6 Q1800.2 1454.1 1797.19 1454.1 Q1794.16 1454.1 1792.47 1455.6 Q1790.8 1457.11 1790.8 1459.79 Z" fill="#000000" fill-rule="evenodd" fill-opacity="1" /><path clip-path="url(#clip350)" d="M2267.92 1481.64 L2275.56 1481.64 L2275.56 1455.28 L2267.25 1456.95 L2267.25 1452.69 L2275.51 1451.02 L2280.19 1451.02 L2280.19 1481.64 L2287.83 1481.64 L2287.83 1485.58 L2267.92 1485.58 L2267.92 1481.64 Z" fill="#000000" fill-rule="evenodd" fill-opacity="1" /><path clip-path="url(#clip350)" d="M2307.27 1454.1 Q2303.66 1454.1 2301.83 1457.66 Q2300.02 1461.2 2300.02 1468.33 Q2300.02 1475.44 2301.83 1479.01 Q2303.66 1482.55 2307.27 1482.55 Q2310.9 1482.55 2312.71 1479.01 Q2314.54 1475.44 2314.54 1468.33 Q2314.54 1461.2 2312.71 1457.66 Q2310.9 1454.1 2307.27 1454.1 M2307.27 1450.39 Q2313.08 1450.39 2316.14 1455 Q2319.21 1459.58 2319.21 1468.33 Q2319.21 1477.06 2316.14 1481.67 Q2313.08 1486.25 2307.27 1486.25 Q2301.46 1486.25 2298.38 1481.67 Q2295.33 1477.06 2295.33 1468.33 Q2295.33 1459.58 2298.38 1455 Q2301.46 1450.39 2307.27 1450.39 Z" fill="#000000" fill-rule="evenodd" fill-opacity="1" /><path clip-path="url(#clip350)" d="M943.062 1520.52 L973.108 1520.52 L973.108 1525.93 L949.491 1525.93 L949.491 1540 L972.122 1540 L972.122 1545.41 L949.491 1545.41 L949.491 1562.63 L973.681 1562.63 L973.681 1568.04 L943.062 1568.04 L943.062 1520.52 Z" fill="#000000" fill-rule="evenodd" fill-opacity="1" /><path clip-path="url(#clip350)" d="M1011.75 1539.24 Q1013.94 1535.29 1017 1533.41 Q1020.06 1531.54 1024.19 1531.54 Q1029.76 1531.54 1032.79 1535.45 Q1035.81 1539.33 1035.81 1546.53 L1035.81 1568.04 L1029.92 1568.04 L1029.92 1546.72 Q1029.92 1541.59 1028.11 1539.11 Q1026.29 1536.63 1022.57 1536.63 Q1018.02 1536.63 1015.38 1539.65 Q1012.73 1542.68 1012.73 1547.9 L1012.73 1568.04 L1006.85 1568.04 L1006.85 1546.72 Q1006.85 1541.56 1005.03 1539.11 Q1003.22 1536.63 999.43 1536.63 Q994.943 1536.63 992.301 1539.68 Q989.659 1542.71 989.659 1547.9 L989.659 1568.04 L983.771 1568.04 L983.771 1532.4 L989.659 1532.4 L989.659 1537.93 Q991.664 1534.66 994.465 1533.1 Q997.266 1531.54 1001.12 1531.54 Q1005 1531.54 1007.71 1533.51 Q1010.44 1535.48 1011.75 1539.24 Z" fill="#000000" fill-rule="evenodd" fill-opacity="1" /><path clip-path="url(#clip350)" d="M1073.08 1550.25 Q1073.08 1543.79 1070.41 1540.13 Q1067.77 1536.44 1063.12 1536.44 Q1058.47 1536.44 1055.8 1540.13 Q1053.16 1543.79 1053.16 1550.25 Q1053.16 1556.71 1055.8 1560.4 Q1058.47 1564.07 1063.12 1564.07 Q1067.77 1564.07 1070.41 1560.4 Q1073.08 1556.71 1073.08 1550.25 M1053.16 1537.81 Q1055 1534.62 1057.8 1533.1 Q1060.64 1531.54 1064.55 1531.54 Q1071.04 1531.54 1075.09 1536.69 Q1079.16 1541.85 1079.16 1550.25 Q1079.16 1558.65 1075.09 1563.81 Q1071.04 1568.97 1064.55 1568.97 Q1060.64 1568.97 1057.8 1567.44 Q1055 1565.88 1053.16 1562.7 L1053.16 1568.04 L1047.27 1568.04 L1047.27 1518.52 L1053.16 1518.52 L1053.16 1537.81 Z" fill="#000000" fill-rule="evenodd" fill-opacity="1" /><path clip-path="url(#clip350)" d="M1119.36 1548.76 L1119.36 1551.62 L1092.43 1551.62 Q1092.82 1557.67 1096.06 1560.85 Q1099.34 1564 1105.16 1564 Q1108.54 1564 1111.69 1563.17 Q1114.87 1562.35 1117.99 1560.69 L1117.99 1566.23 Q1114.84 1567.57 1111.53 1568.27 Q1108.22 1568.97 1104.81 1568.97 Q1096.28 1568.97 1091.29 1564 Q1086.32 1559.04 1086.32 1550.57 Q1086.32 1541.82 1091.03 1536.69 Q1095.78 1531.54 1103.8 1531.54 Q1110.99 1531.54 1115.16 1536.18 Q1119.36 1540.8 1119.36 1548.76 M1113.5 1547.04 Q1113.44 1542.23 1110.8 1539.37 Q1108.19 1536.5 1103.86 1536.5 Q1098.96 1536.5 1096 1539.27 Q1093.07 1542.04 1092.62 1547.07 L1113.5 1547.04 Z" fill="#000000" fill-rule="evenodd" fill-opacity="1" /><path clip-path="url(#clip350)" d="M1152.43 1537.81 L1152.43 1518.52 L1158.29 1518.52 L1158.29 1568.04 L1152.43 1568.04 L1152.43 1562.7 Q1150.58 1565.88 1147.75 1567.44 Q1144.95 1568.97 1141 1568.97 Q1134.54 1568.97 1130.47 1563.81 Q1126.43 1558.65 1126.43 1550.25 Q1126.43 1541.85 1130.47 1536.69 Q1134.54 1531.54 1141 1531.54 Q1144.95 1531.54 1147.75 1533.1 Q1150.58 1534.62 1152.43 1537.81 M1132.47 1550.25 Q1132.47 1556.71 1135.12 1560.4 Q1137.79 1564.07 1142.44 1564.07 Q1147.08 1564.07 1149.76 1560.4 Q1152.43 1556.71 1152.43 1550.25 Q1152.43 1543.79 1149.76 1540.13 Q1147.08 1536.44 1142.44 1536.44 Q1137.79 1536.44 1135.12 1540.13 Q1132.47 1543.79 1132.47 1550.25 Z" fill="#000000" fill-rule="evenodd" fill-opacity="1" /><path clip-path="url(#clip350)" d="M1193.81 1537.81 L1193.81 1518.52 L1199.66 1518.52 L1199.66 1568.04 L1193.81 1568.04 L1193.81 1562.7 Q1191.96 1565.88 1189.13 1567.44 Q1186.33 1568.97 1182.38 1568.97 Q1175.92 1568.97 1171.85 1563.81 Q1167.8 1558.65 1167.8 1550.25 Q1167.8 1541.85 1171.85 1536.69 Q1175.92 1531.54 1182.38 1531.54 Q1186.33 1531.54 1189.13 1533.1 Q1191.96 1534.62 1193.81 1537.81 M1173.85 1550.25 Q1173.85 1556.71 1176.49 1560.4 Q1179.17 1564.07 1183.81 1564.07 Q1188.46 1564.07 1191.13 1560.4 Q1193.81 1556.71 1193.81 1550.25 Q1193.81 1543.79 1191.13 1540.13 Q1188.46 1536.44 1183.81 1536.44 Q1179.17 1536.44 1176.49 1540.13 Q1173.85 1543.79 1173.85 1550.25 Z" fill="#000000" fill-rule="evenodd" fill-opacity="1" /><path clip-path="url(#clip350)" d="M1211.73 1532.4 L1217.58 1532.4 L1217.58 1568.04 L1211.73 1568.04 L1211.73 1532.4 M1211.73 1518.52 L1217.58 1518.52 L1217.58 1525.93 L1211.73 1525.93 L1211.73 1518.52 Z" fill="#000000" fill-rule="evenodd" fill-opacity="1" /><path clip-path="url(#clip350)" d="M1259.47 1546.53 L1259.47 1568.04 L1253.61 1568.04 L1253.61 1546.72 Q1253.61 1541.66 1251.64 1539.14 Q1249.67 1536.63 1245.72 1536.63 Q1240.98 1536.63 1238.24 1539.65 Q1235.5 1542.68 1235.5 1547.9 L1235.5 1568.04 L1229.61 1568.04 L1229.61 1532.4 L1235.5 1532.4 L1235.5 1537.93 Q1237.6 1534.72 1240.44 1533.13 Q1243.3 1531.54 1247.02 1531.54 Q1253.17 1531.54 1256.32 1535.36 Q1259.47 1539.14 1259.47 1546.53 Z" fill="#000000" fill-rule="evenodd" fill-opacity="1" /><path clip-path="url(#clip350)" d="M1294.61 1549.81 Q1294.61 1543.44 1291.97 1539.94 Q1289.36 1536.44 1284.61 1536.44 Q1279.9 1536.44 1277.26 1539.94 Q1274.65 1543.44 1274.65 1549.81 Q1274.65 1556.14 1277.26 1559.64 Q1279.9 1563.14 1284.61 1563.14 Q1289.36 1563.14 1291.97 1559.64 Q1294.61 1556.14 1294.61 1549.81 M1300.46 1563.62 Q1300.46 1572.72 1296.42 1577.15 Q1292.38 1581.6 1284.04 1581.6 Q1280.95 1581.6 1278.22 1581.13 Q1275.48 1580.68 1272.9 1579.72 L1272.9 1574.03 Q1275.48 1575.43 1277.99 1576.1 Q1280.51 1576.76 1283.12 1576.76 Q1288.88 1576.76 1291.74 1573.74 Q1294.61 1570.75 1294.61 1564.67 L1294.61 1561.77 Q1292.79 1564.92 1289.96 1566.48 Q1287.13 1568.04 1283.18 1568.04 Q1276.63 1568.04 1272.61 1563.05 Q1268.6 1558.05 1268.6 1549.81 Q1268.6 1541.53 1272.61 1536.53 Q1276.63 1531.54 1283.18 1531.54 Q1287.13 1531.54 1289.96 1533.1 Q1292.79 1534.66 1294.61 1537.81 L1294.61 1532.4 L1300.46 1532.4 L1300.46 1563.62 Z" fill="#000000" fill-rule="evenodd" fill-opacity="1" /><path clip-path="url(#clip350)" d="M1356.71 1537.81 L1356.71 1518.52 L1362.56 1518.52 L1362.56 1568.04 L1356.71 1568.04 L1356.71 1562.7 Q1354.86 1565.88 1352.03 1567.44 Q1349.23 1568.97 1345.28 1568.97 Q1338.82 1568.97 1334.74 1563.81 Q1330.7 1558.65 1330.7 1550.25 Q1330.7 1541.85 1334.74 1536.69 Q1338.82 1531.54 1345.28 1531.54 Q1349.23 1531.54 1352.03 1533.1 Q1354.86 1534.62 1356.71 1537.81 M1336.75 1550.25 Q1336.75 1556.71 1339.39 1560.4 Q1342.06 1564.07 1346.71 1564.07 Q1351.36 1564.07 1354.03 1560.4 Q1356.71 1556.71 1356.71 1550.25 Q1356.71 1543.79 1354.03 1540.13 Q1351.36 1536.44 1346.71 1536.44 Q1342.06 1536.44 1339.39 1540.13 Q1336.75 1543.79 1336.75 1550.25 Z" fill="#000000" fill-rule="evenodd" fill-opacity="1" /><path clip-path="url(#clip350)" d="M1374.63 1532.4 L1380.48 1532.4 L1380.48 1568.04 L1374.63 1568.04 L1374.63 1532.4 M1374.63 1518.52 L1380.48 1518.52 L1380.48 1525.93 L1374.63 1525.93 L1374.63 1518.52 Z" fill="#000000" fill-rule="evenodd" fill-opacity="1" /><path clip-path="url(#clip350)" d="M1420.49 1539.24 Q1422.69 1535.29 1425.74 1533.41 Q1428.8 1531.54 1432.94 1531.54 Q1438.51 1531.54 1441.53 1535.45 Q1444.55 1539.33 1444.55 1546.53 L1444.55 1568.04 L1438.66 1568.04 L1438.66 1546.72 Q1438.66 1541.59 1436.85 1539.11 Q1435.04 1536.63 1431.31 1536.63 Q1426.76 1536.63 1424.12 1539.65 Q1421.48 1542.68 1421.48 1547.9 L1421.48 1568.04 L1415.59 1568.04 L1415.59 1546.72 Q1415.59 1541.56 1413.77 1539.11 Q1411.96 1536.63 1408.17 1536.63 Q1403.68 1536.63 1401.04 1539.68 Q1398.4 1542.71 1398.4 1547.9 L1398.4 1568.04 L1392.51 1568.04 L1392.51 1532.4 L1398.4 1532.4 L1398.4 1537.93 Q1400.41 1534.66 1403.21 1533.1 Q1406.01 1531.54 1409.86 1531.54 Q1413.74 1531.54 1416.45 1533.51 Q1419.19 1535.48 1420.49 1539.24 Z" fill="#000000" fill-rule="evenodd" fill-opacity="1" /><path clip-path="url(#clip350)" d="M1486.73 1548.76 L1486.73 1551.62 L1459.8 1551.62 Q1460.18 1557.67 1463.43 1560.85 Q1466.71 1564 1472.53 1564 Q1475.9 1564 1479.05 1563.17 Q1482.24 1562.35 1485.36 1560.69 L1485.36 1566.23 Q1482.21 1567.57 1478.9 1568.27 Q1475.59 1568.97 1472.18 1568.97 Q1463.65 1568.97 1458.65 1564 Q1453.69 1559.04 1453.69 1550.57 Q1453.69 1541.82 1458.4 1536.69 Q1463.14 1531.54 1471.16 1531.54 Q1478.35 1531.54 1482.52 1536.18 Q1486.73 1540.8 1486.73 1548.76 M1480.87 1547.04 Q1480.81 1542.23 1478.16 1539.37 Q1475.55 1536.5 1471.22 1536.5 Q1466.32 1536.5 1463.36 1539.27 Q1460.43 1542.04 1459.99 1547.07 L1480.87 1547.04 Z" fill="#000000" fill-rule="evenodd" fill-opacity="1" /><path clip-path="url(#clip350)" d="M1525.97 1546.53 L1525.97 1568.04 L1520.11 1568.04 L1520.11 1546.72 Q1520.11 1541.66 1518.14 1539.14 Q1516.17 1536.63 1512.22 1536.63 Q1507.48 1536.63 1504.74 1539.65 Q1502 1542.68 1502 1547.9 L1502 1568.04 L1496.11 1568.04 L1496.11 1532.4 L1502 1532.4 L1502 1537.93 Q1504.1 1534.72 1506.94 1533.13 Q1509.8 1531.54 1513.52 1531.54 Q1519.67 1531.54 1522.82 1535.36 Q1525.97 1539.14 1525.97 1546.53 Z" fill="#000000" fill-rule="evenodd" fill-opacity="1" /><path clip-path="url(#clip350)" d="M1560.38 1533.45 L1560.38 1538.98 Q1557.89 1537.71 1555.22 1537.07 Q1552.55 1536.44 1549.68 1536.44 Q1545.32 1536.44 1543.13 1537.77 Q1540.96 1539.11 1540.96 1541.79 Q1540.96 1543.82 1542.52 1545 Q1544.08 1546.15 1548.79 1547.2 L1550.8 1547.64 Q1557.03 1548.98 1559.64 1551.43 Q1562.29 1553.85 1562.29 1558.21 Q1562.29 1563.17 1558.34 1566.07 Q1554.42 1568.97 1547.55 1568.97 Q1544.68 1568.97 1541.57 1568.39 Q1538.48 1567.85 1535.04 1566.74 L1535.04 1560.69 Q1538.29 1562.38 1541.44 1563.24 Q1544.59 1564.07 1547.68 1564.07 Q1551.81 1564.07 1554.04 1562.66 Q1556.27 1561.23 1556.27 1558.65 Q1556.27 1556.27 1554.65 1554.99 Q1553.06 1553.72 1547.61 1552.54 L1545.58 1552.07 Q1540.13 1550.92 1537.71 1548.56 Q1535.3 1546.18 1535.3 1542.04 Q1535.3 1537.01 1538.86 1534.27 Q1542.43 1531.54 1548.98 1531.54 Q1552.23 1531.54 1555.09 1532.01 Q1557.96 1532.49 1560.38 1533.45 Z" fill="#000000" fill-rule="evenodd" fill-opacity="1" /><path clip-path="url(#clip350)" d="M1571.61 1532.4 L1577.47 1532.4 L1577.47 1568.04 L1571.61 1568.04 L1571.61 1532.4 M1571.61 1518.52 L1577.47 1518.52 L1577.47 1525.93 L1571.61 1525.93 L1571.61 1518.52 Z" fill="#000000" fill-rule="evenodd" fill-opacity="1" /><path clip-path="url(#clip350)" d="M1603.54 1536.5 Q1598.83 1536.5 1596.09 1540.19 Q1593.35 1543.85 1593.35 1550.25 Q1593.35 1556.65 1596.06 1560.34 Q1598.79 1564 1603.54 1564 Q1608.21 1564 1610.95 1560.31 Q1613.69 1556.62 1613.69 1550.25 Q1613.69 1543.92 1610.95 1540.23 Q1608.21 1536.5 1603.54 1536.5 M1603.54 1531.54 Q1611.17 1531.54 1615.54 1536.5 Q1619.9 1541.47 1619.9 1550.25 Q1619.9 1559 1615.54 1564 Q1611.17 1568.97 1603.54 1568.97 Q1595.87 1568.97 1591.5 1564 Q1587.18 1559 1587.18 1550.25 Q1587.18 1541.47 1591.5 1536.5 Q1595.87 1531.54 1603.54 1531.54 Z" fill="#000000" fill-rule="evenodd" fill-opacity="1" /><path clip-path="url(#clip350)" d="M1659.24 1546.53 L1659.24 1568.04 L1653.38 1568.04 L1653.38 1546.72 Q1653.38 1541.66 1651.41 1539.14 Q1649.43 1536.63 1645.49 1536.63 Q1640.74 1536.63 1638.01 1539.65 Q1635.27 1542.68 1635.27 1547.9 L1635.27 1568.04 L1629.38 1568.04 L1629.38 1532.4 L1635.27 1532.4 L1635.27 1537.93 Q1637.37 1534.72 1640.2 1533.13 Q1643.07 1531.54 1646.79 1531.54 Q1652.93 1531.54 1656.08 1535.36 Q1659.24 1539.14 1659.24 1546.53 Z" fill="#000000" fill-rule="evenodd" fill-opacity="1" /><polyline clip-path="url(#clip352)" style="stroke:#000000; stroke-linecap:butt; stroke-linejoin:round; stroke-width:2; stroke-opacity:0.1; fill:none" points="
  249.542,1319.35 2352.76,1319.35 
  "/>
<polyline clip-path="url(#clip352)" style="stroke:#000000; stroke-linecap:butt; stroke-linejoin:round; stroke-width:2; stroke-opacity:0.1; fill:none" points="
  249.542,1109.38 2352.76,1109.38 
  "/>
<polyline clip-path="url(#clip352)" style="stroke:#000000; stroke-linecap:butt; stroke-linejoin:round; stroke-width:2; stroke-opacity:0.1; fill:none" points="
  249.542,899.424 2352.76,899.424 
  "/>
<polyline clip-path="url(#clip352)" style="stroke:#000000; stroke-linecap:butt; stroke-linejoin:round; stroke-width:2; stroke-opacity:0.1; fill:none" points="
  249.542,689.463 2352.76,689.463 
  "/>
<polyline clip-path="url(#clip352)" style="stroke:#000000; stroke-linecap:butt; stroke-linejoin:round; stroke-width:2; stroke-opacity:0.1; fill:none" points="
  249.542,479.502 2352.76,479.502 
  "/>
<polyline clip-path="url(#clip352)" style="stroke:#000000; stroke-linecap:butt; stroke-linejoin:round; stroke-width:2; stroke-opacity:0.1; fill:none" points="
  249.542,269.541 2352.76,269.541 
  "/>
<polyline clip-path="url(#clip352)" style="stroke:#000000; stroke-linecap:butt; stroke-linejoin:round; stroke-width:2; stroke-opacity:0.1; fill:none" points="
  249.542,59.5796 2352.76,59.5796 
  "/>
<polyline clip-path="url(#clip350)" style="stroke:#000000; stroke-linecap:butt; stroke-linejoin:round; stroke-width:4; stroke-opacity:1; fill:none" points="
  249.542,1423.18 249.542,47.2441 
  "/>
<polyline clip-path="url(#clip350)" style="stroke:#000000; stroke-linecap:butt; stroke-linejoin:round; stroke-width:4; stroke-opacity:1; fill:none" points="
  249.542,1319.35 268.44,1319.35 
  "/>
<polyline clip-path="url(#clip350)" style="stroke:#000000; stroke-linecap:butt; stroke-linejoin:round; stroke-width:4; stroke-opacity:1; fill:none" points="
  249.542,1109.38 268.44,1109.38 
  "/>
<polyline clip-path="url(#clip350)" style="stroke:#000000; stroke-linecap:butt; stroke-linejoin:round; stroke-width:4; stroke-opacity:1; fill:none" points="
  249.542,899.424 268.44,899.424 
  "/>
<polyline clip-path="url(#clip350)" style="stroke:#000000; stroke-linecap:butt; stroke-linejoin:round; stroke-width:4; stroke-opacity:1; fill:none" points="
  249.542,689.463 268.44,689.463 
  "/>
<polyline clip-path="url(#clip350)" style="stroke:#000000; stroke-linecap:butt; stroke-linejoin:round; stroke-width:4; stroke-opacity:1; fill:none" points="
  249.542,479.502 268.44,479.502 
  "/>
<polyline clip-path="url(#clip350)" style="stroke:#000000; stroke-linecap:butt; stroke-linejoin:round; stroke-width:4; stroke-opacity:1; fill:none" points="
  249.542,269.541 268.44,269.541 
  "/>
<polyline clip-path="url(#clip350)" style="stroke:#000000; stroke-linecap:butt; stroke-linejoin:round; stroke-width:4; stroke-opacity:1; fill:none" points="
  249.542,59.5796 268.44,59.5796 
  "/>
<path clip-path="url(#clip350)" d="M127.2 1305.14 Q123.589 1305.14 121.76 1308.71 Q119.955 1312.25 119.955 1319.38 Q119.955 1326.49 121.76 1330.05 Q123.589 1333.59 127.2 1333.59 Q130.834 1333.59 132.64 1330.05 Q134.468 1326.49 134.468 1319.38 Q134.468 1312.25 132.64 1308.71 Q130.834 1305.14 127.2 1305.14 M127.2 1301.44 Q133.01 1301.44 136.066 1306.05 Q139.144 1310.63 139.144 1319.38 Q139.144 1328.11 136.066 1332.71 Q133.01 1337.3 127.2 1337.3 Q121.39 1337.3 118.311 1332.71 Q115.256 1328.11 115.256 1319.38 Q115.256 1310.63 118.311 1306.05 Q121.39 1301.44 127.2 1301.44 Z" fill="#000000" fill-rule="evenodd" fill-opacity="1" /><path clip-path="url(#clip350)" d="M147.362 1330.75 L152.246 1330.75 L152.246 1336.63 L147.362 1336.63 L147.362 1330.75 Z" fill="#000000" fill-rule="evenodd" fill-opacity="1" /><path clip-path="url(#clip350)" d="M175.278 1306.14 L163.473 1324.59 L175.278 1324.59 L175.278 1306.14 M174.052 1302.07 L179.931 1302.07 L179.931 1324.59 L184.862 1324.59 L184.862 1328.48 L179.931 1328.48 L179.931 1336.63 L175.278 1336.63 L175.278 1328.48 L159.677 1328.48 L159.677 1323.96 L174.052 1302.07 Z" fill="#000000" fill-rule="evenodd" fill-opacity="1" /><path clip-path="url(#clip350)" d="M192.639 1302.07 L210.996 1302.07 L210.996 1306 L196.922 1306 L196.922 1314.47 Q197.94 1314.13 198.959 1313.96 Q199.977 1313.78 200.996 1313.78 Q206.783 1313.78 210.162 1316.95 Q213.542 1320.12 213.542 1325.54 Q213.542 1331.12 210.07 1334.22 Q206.598 1337.3 200.278 1337.3 Q198.102 1337.3 195.834 1336.93 Q193.588 1336.56 191.181 1335.82 L191.181 1331.12 Q193.264 1332.25 195.487 1332.81 Q197.709 1333.36 200.186 1333.36 Q204.19 1333.36 206.528 1331.26 Q208.866 1329.15 208.866 1325.54 Q208.866 1321.93 206.528 1319.82 Q204.19 1317.71 200.186 1317.71 Q198.311 1317.71 196.436 1318.13 Q194.584 1318.55 192.639 1319.43 L192.639 1302.07 Z" fill="#000000" fill-rule="evenodd" fill-opacity="1" /><path clip-path="url(#clip350)" d="M126.205 1095.18 Q122.593 1095.18 120.765 1098.75 Q118.959 1102.29 118.959 1109.42 Q118.959 1116.53 120.765 1120.09 Q122.593 1123.63 126.205 1123.63 Q129.839 1123.63 131.644 1120.09 Q133.473 1116.53 133.473 1109.42 Q133.473 1102.29 131.644 1098.75 Q129.839 1095.18 126.205 1095.18 M126.205 1091.48 Q132.015 1091.48 135.07 1096.09 Q138.149 1100.67 138.149 1109.42 Q138.149 1118.15 135.07 1122.75 Q132.015 1127.34 126.205 1127.34 Q120.394 1127.34 117.316 1122.75 Q114.26 1118.15 114.26 1109.42 Q114.26 1100.67 117.316 1096.09 Q120.394 1091.48 126.205 1091.48 Z" fill="#000000" fill-rule="evenodd" fill-opacity="1" /><path clip-path="url(#clip350)" d="M146.366 1120.79 L151.251 1120.79 L151.251 1126.66 L146.366 1126.66 L146.366 1120.79 Z" fill="#000000" fill-rule="evenodd" fill-opacity="1" /><path clip-path="url(#clip350)" d="M161.482 1092.1 L179.839 1092.1 L179.839 1096.04 L165.765 1096.04 L165.765 1104.51 Q166.783 1104.16 167.802 1104 Q168.82 1103.82 169.839 1103.82 Q175.626 1103.82 179.005 1106.99 Q182.385 1110.16 182.385 1115.58 Q182.385 1121.16 178.913 1124.26 Q175.44 1127.34 169.121 1127.34 Q166.945 1127.34 164.677 1126.97 Q162.431 1126.6 160.024 1125.85 L160.024 1121.16 Q162.107 1122.29 164.329 1122.85 Q166.552 1123.4 169.028 1123.4 Q173.033 1123.4 175.371 1121.29 Q177.709 1119.19 177.709 1115.58 Q177.709 1111.97 175.371 1109.86 Q173.033 1107.75 169.028 1107.75 Q167.153 1107.75 165.278 1108.17 Q163.427 1108.59 161.482 1109.47 L161.482 1092.1 Z" fill="#000000" fill-rule="evenodd" fill-opacity="1" /><path clip-path="url(#clip350)" d="M201.598 1095.18 Q197.987 1095.18 196.158 1098.75 Q194.352 1102.29 194.352 1109.42 Q194.352 1116.53 196.158 1120.09 Q197.987 1123.63 201.598 1123.63 Q205.232 1123.63 207.037 1120.09 Q208.866 1116.53 208.866 1109.42 Q208.866 1102.29 207.037 1098.75 Q205.232 1095.18 201.598 1095.18 M201.598 1091.48 Q207.408 1091.48 210.463 1096.09 Q213.542 1100.67 213.542 1109.42 Q213.542 1118.15 210.463 1122.75 Q207.408 1127.34 201.598 1127.34 Q195.787 1127.34 192.709 1122.75 Q189.653 1118.15 189.653 1109.42 Q189.653 1100.67 192.709 1096.09 Q195.787 1091.48 201.598 1091.48 Z" fill="#000000" fill-rule="evenodd" fill-opacity="1" /><path clip-path="url(#clip350)" d="M127.2 885.222 Q123.589 885.222 121.76 888.787 Q119.955 892.329 119.955 899.458 Q119.955 906.565 121.76 910.13 Q123.589 913.671 127.2 913.671 Q130.834 913.671 132.64 910.13 Q134.468 906.565 134.468 899.458 Q134.468 892.329 132.64 888.787 Q130.834 885.222 127.2 885.222 M127.2 881.519 Q133.01 881.519 136.066 886.125 Q139.144 890.708 139.144 899.458 Q139.144 908.185 136.066 912.792 Q133.01 917.375 127.2 917.375 Q121.39 917.375 118.311 912.792 Q115.256 908.185 115.256 899.458 Q115.256 890.708 118.311 886.125 Q121.39 881.519 127.2 881.519 Z" fill="#000000" fill-rule="evenodd" fill-opacity="1" /><path clip-path="url(#clip350)" d="M147.362 910.824 L152.246 910.824 L152.246 916.704 L147.362 916.704 L147.362 910.824 Z" fill="#000000" fill-rule="evenodd" fill-opacity="1" /><path clip-path="url(#clip350)" d="M162.477 882.144 L180.834 882.144 L180.834 886.079 L166.76 886.079 L166.76 894.551 Q167.778 894.204 168.797 894.042 Q169.815 893.857 170.834 893.857 Q176.621 893.857 180.001 897.028 Q183.38 900.199 183.38 905.616 Q183.38 911.194 179.908 914.296 Q176.436 917.375 170.116 917.375 Q167.94 917.375 165.672 917.005 Q163.427 916.634 161.019 915.894 L161.019 911.194 Q163.102 912.329 165.325 912.884 Q167.547 913.44 170.024 913.44 Q174.028 913.44 176.366 911.333 Q178.704 909.227 178.704 905.616 Q178.704 902.005 176.366 899.898 Q174.028 897.792 170.024 897.792 Q168.149 897.792 166.274 898.208 Q164.422 898.625 162.477 899.505 L162.477 882.144 Z" fill="#000000" fill-rule="evenodd" fill-opacity="1" /><path clip-path="url(#clip350)" d="M192.639 882.144 L210.996 882.144 L210.996 886.079 L196.922 886.079 L196.922 894.551 Q197.94 894.204 198.959 894.042 Q199.977 893.857 200.996 893.857 Q206.783 893.857 210.162 897.028 Q213.542 900.199 213.542 905.616 Q213.542 911.194 210.07 914.296 Q206.598 917.375 200.278 917.375 Q198.102 917.375 195.834 917.005 Q193.588 916.634 191.181 915.894 L191.181 911.194 Q193.264 912.329 195.487 912.884 Q197.709 913.44 200.186 913.44 Q204.19 913.44 206.528 911.333 Q208.866 909.227 208.866 905.616 Q208.866 902.005 206.528 899.898 Q204.19 897.792 200.186 897.792 Q198.311 897.792 196.436 898.208 Q194.584 898.625 192.639 899.505 L192.639 882.144 Z" fill="#000000" fill-rule="evenodd" fill-opacity="1" /><path clip-path="url(#clip350)" d="M126.205 675.261 Q122.593 675.261 120.765 678.826 Q118.959 682.368 118.959 689.497 Q118.959 696.604 120.765 700.169 Q122.593 703.71 126.205 703.71 Q129.839 703.71 131.644 700.169 Q133.473 696.604 133.473 689.497 Q133.473 682.368 131.644 678.826 Q129.839 675.261 126.205 675.261 M126.205 671.558 Q132.015 671.558 135.07 676.164 Q138.149 680.747 138.149 689.497 Q138.149 698.224 135.07 702.831 Q132.015 707.414 126.205 707.414 Q120.394 707.414 117.316 702.831 Q114.26 698.224 114.26 689.497 Q114.26 680.747 117.316 676.164 Q120.394 671.558 126.205 671.558 Z" fill="#000000" fill-rule="evenodd" fill-opacity="1" /><path clip-path="url(#clip350)" d="M146.366 700.863 L151.251 700.863 L151.251 706.743 L146.366 706.743 L146.366 700.863 Z" fill="#000000" fill-rule="evenodd" fill-opacity="1" /><path clip-path="url(#clip350)" d="M172.014 687.599 Q168.866 687.599 167.015 689.752 Q165.186 691.905 165.186 695.655 Q165.186 699.382 167.015 701.558 Q168.866 703.71 172.014 703.71 Q175.163 703.71 176.991 701.558 Q178.843 699.382 178.843 695.655 Q178.843 691.905 176.991 689.752 Q175.163 687.599 172.014 687.599 M181.297 672.947 L181.297 677.206 Q179.538 676.372 177.732 675.933 Q175.95 675.493 174.19 675.493 Q169.561 675.493 167.107 678.618 Q164.677 681.743 164.329 688.062 Q165.695 686.048 167.755 684.984 Q169.815 683.896 172.292 683.896 Q177.501 683.896 180.51 687.067 Q183.542 690.215 183.542 695.655 Q183.542 700.979 180.394 704.196 Q177.246 707.414 172.014 707.414 Q166.019 707.414 162.848 702.831 Q159.677 698.224 159.677 689.497 Q159.677 681.303 163.565 676.442 Q167.454 671.558 174.005 671.558 Q175.764 671.558 177.547 671.905 Q179.352 672.252 181.297 672.947 Z" fill="#000000" fill-rule="evenodd" fill-opacity="1" /><path clip-path="url(#clip350)" d="M201.598 675.261 Q197.987 675.261 196.158 678.826 Q194.352 682.368 194.352 689.497 Q194.352 696.604 196.158 700.169 Q197.987 703.71 201.598 703.71 Q205.232 703.71 207.037 700.169 Q208.866 696.604 208.866 689.497 Q208.866 682.368 207.037 678.826 Q205.232 675.261 201.598 675.261 M201.598 671.558 Q207.408 671.558 210.463 676.164 Q213.542 680.747 213.542 689.497 Q213.542 698.224 210.463 702.831 Q207.408 707.414 201.598 707.414 Q195.787 707.414 192.709 702.831 Q189.653 698.224 189.653 689.497 Q189.653 680.747 192.709 676.164 Q195.787 671.558 201.598 671.558 Z" fill="#000000" fill-rule="evenodd" fill-opacity="1" /><path clip-path="url(#clip350)" d="M127.2 465.3 Q123.589 465.3 121.76 468.865 Q119.955 472.407 119.955 479.536 Q119.955 486.643 121.76 490.208 Q123.589 493.749 127.2 493.749 Q130.834 493.749 132.64 490.208 Q134.468 486.643 134.468 479.536 Q134.468 472.407 132.64 468.865 Q130.834 465.3 127.2 465.3 M127.2 461.597 Q133.01 461.597 136.066 466.203 Q139.144 470.786 139.144 479.536 Q139.144 488.263 136.066 492.87 Q133.01 497.453 127.2 497.453 Q121.39 497.453 118.311 492.87 Q115.256 488.263 115.256 479.536 Q115.256 470.786 118.311 466.203 Q121.39 461.597 127.2 461.597 Z" fill="#000000" fill-rule="evenodd" fill-opacity="1" /><path clip-path="url(#clip350)" d="M147.362 490.902 L152.246 490.902 L152.246 496.782 L147.362 496.782 L147.362 490.902 Z" fill="#000000" fill-rule="evenodd" fill-opacity="1" /><path clip-path="url(#clip350)" d="M173.01 477.638 Q169.862 477.638 168.01 479.791 Q166.181 481.944 166.181 485.694 Q166.181 489.421 168.01 491.597 Q169.862 493.749 173.01 493.749 Q176.158 493.749 177.987 491.597 Q179.839 489.421 179.839 485.694 Q179.839 481.944 177.987 479.791 Q176.158 477.638 173.01 477.638 M182.292 462.986 L182.292 467.245 Q180.533 466.411 178.727 465.972 Q176.945 465.532 175.186 465.532 Q170.556 465.532 168.102 468.657 Q165.672 471.782 165.325 478.101 Q166.69 476.087 168.751 475.023 Q170.811 473.935 173.288 473.935 Q178.496 473.935 181.505 477.106 Q184.538 480.254 184.538 485.694 Q184.538 491.018 181.389 494.235 Q178.241 497.453 173.01 497.453 Q167.015 497.453 163.843 492.87 Q160.672 488.263 160.672 479.536 Q160.672 471.342 164.561 466.481 Q168.45 461.597 175.001 461.597 Q176.76 461.597 178.542 461.944 Q180.348 462.291 182.292 462.986 Z" fill="#000000" fill-rule="evenodd" fill-opacity="1" /><path clip-path="url(#clip350)" d="M192.639 462.222 L210.996 462.222 L210.996 466.157 L196.922 466.157 L196.922 474.629 Q197.94 474.282 198.959 474.12 Q199.977 473.935 200.996 473.935 Q206.783 473.935 210.162 477.106 Q213.542 480.277 213.542 485.694 Q213.542 491.272 210.07 494.374 Q206.598 497.453 200.278 497.453 Q198.102 497.453 195.834 497.083 Q193.588 496.712 191.181 495.971 L191.181 491.272 Q193.264 492.407 195.487 492.962 Q197.709 493.518 200.186 493.518 Q204.19 493.518 206.528 491.411 Q208.866 489.305 208.866 485.694 Q208.866 482.083 206.528 479.976 Q204.19 477.87 200.186 477.87 Q198.311 477.87 196.436 478.286 Q194.584 478.703 192.639 479.583 L192.639 462.222 Z" fill="#000000" fill-rule="evenodd" fill-opacity="1" /><path clip-path="url(#clip350)" d="M126.205 255.339 Q122.593 255.339 120.765 258.904 Q118.959 262.446 118.959 269.575 Q118.959 276.682 120.765 280.247 Q122.593 283.788 126.205 283.788 Q129.839 283.788 131.644 280.247 Q133.473 276.682 133.473 269.575 Q133.473 262.446 131.644 258.904 Q129.839 255.339 126.205 255.339 M126.205 251.636 Q132.015 251.636 135.07 256.242 Q138.149 260.825 138.149 269.575 Q138.149 278.302 135.07 282.909 Q132.015 287.492 126.205 287.492 Q120.394 287.492 117.316 282.909 Q114.26 278.302 114.26 269.575 Q114.26 260.825 117.316 256.242 Q120.394 251.636 126.205 251.636 Z" fill="#000000" fill-rule="evenodd" fill-opacity="1" /><path clip-path="url(#clip350)" d="M146.366 280.941 L151.251 280.941 L151.251 286.821 L146.366 286.821 L146.366 280.941 Z" fill="#000000" fill-rule="evenodd" fill-opacity="1" /><path clip-path="url(#clip350)" d="M160.255 252.261 L182.477 252.261 L182.477 254.251 L169.931 286.821 L165.047 286.821 L176.852 256.196 L160.255 256.196 L160.255 252.261 Z" fill="#000000" fill-rule="evenodd" fill-opacity="1" /><path clip-path="url(#clip350)" d="M201.598 255.339 Q197.987 255.339 196.158 258.904 Q194.352 262.446 194.352 269.575 Q194.352 276.682 196.158 280.247 Q197.987 283.788 201.598 283.788 Q205.232 283.788 207.037 280.247 Q208.866 276.682 208.866 269.575 Q208.866 262.446 207.037 258.904 Q205.232 255.339 201.598 255.339 M201.598 251.636 Q207.408 251.636 210.463 256.242 Q213.542 260.825 213.542 269.575 Q213.542 278.302 210.463 282.909 Q207.408 287.492 201.598 287.492 Q195.787 287.492 192.709 282.909 Q189.653 278.302 189.653 269.575 Q189.653 260.825 192.709 256.242 Q195.787 251.636 201.598 251.636 Z" fill="#000000" fill-rule="evenodd" fill-opacity="1" /><path clip-path="url(#clip350)" d="M127.2 45.3783 Q123.589 45.3783 121.76 48.9431 Q119.955 52.4848 119.955 59.6144 Q119.955 66.7208 121.76 70.2856 Q123.589 73.8272 127.2 73.8272 Q130.834 73.8272 132.64 70.2856 Q134.468 66.7208 134.468 59.6144 Q134.468 52.4848 132.64 48.9431 Q130.834 45.3783 127.2 45.3783 M127.2 41.6746 Q133.01 41.6746 136.066 46.2811 Q139.144 50.8644 139.144 59.6144 Q139.144 68.3412 136.066 72.9476 Q133.01 77.5309 127.2 77.5309 Q121.39 77.5309 118.311 72.9476 Q115.256 68.3412 115.256 59.6144 Q115.256 50.8644 118.311 46.2811 Q121.39 41.6746 127.2 41.6746 Z" fill="#000000" fill-rule="evenodd" fill-opacity="1" /><path clip-path="url(#clip350)" d="M147.362 70.98 L152.246 70.98 L152.246 76.8596 L147.362 76.8596 L147.362 70.98 Z" fill="#000000" fill-rule="evenodd" fill-opacity="1" /><path clip-path="url(#clip350)" d="M161.251 42.2996 L183.473 42.2996 L183.473 44.2904 L170.927 76.8596 L166.042 76.8596 L177.848 46.2348 L161.251 46.2348 L161.251 42.2996 Z" fill="#000000" fill-rule="evenodd" fill-opacity="1" /><path clip-path="url(#clip350)" d="M192.639 42.2996 L210.996 42.2996 L210.996 46.2348 L196.922 46.2348 L196.922 54.707 Q197.94 54.3598 198.959 54.1977 Q199.977 54.0125 200.996 54.0125 Q206.783 54.0125 210.162 57.1838 Q213.542 60.3551 213.542 65.7717 Q213.542 71.3504 210.07 74.4522 Q206.598 77.5309 200.278 77.5309 Q198.102 77.5309 195.834 77.1606 Q193.588 76.7902 191.181 76.0495 L191.181 71.3504 Q193.264 72.4847 195.487 73.0402 Q197.709 73.5958 200.186 73.5958 Q204.19 73.5958 206.528 71.4893 Q208.866 69.3828 208.866 65.7717 Q208.866 62.1606 206.528 60.0542 Q204.19 57.9477 200.186 57.9477 Q198.311 57.9477 196.436 58.3644 Q194.584 58.781 192.639 59.6607 L192.639 42.2996 Z" fill="#000000" fill-rule="evenodd" fill-opacity="1" /><path clip-path="url(#clip350)" d="M34.7219 1086.25 Q31.4754 1084.31 28.6108 1079.5 Q27.4968 1077.62 27.4968 1071.83 Q27.4968 1065.34 32.6531 1061.3 Q37.8093 1057.22 46.212 1057.22 Q54.6147 1057.22 59.771 1061.3 Q64.9272 1065.34 64.9272 1071.83 Q64.9272 1075.75 63.3994 1078.58 Q61.8398 1081.38 58.657 1083.23 L77.5631 1083.23 L77.5631 1089.11 L46.5303 1089.11 Q39.1779 1089.11 34.7219 1086.25 M46.212 1063.3 Q39.7508 1063.3 36.0905 1065.97 Q32.3984 1068.62 32.3984 1073.26 Q32.3984 1077.91 36.0905 1080.58 Q39.7508 1083.23 46.212 1083.23 Q52.6732 1083.23 56.3653 1080.58 Q60.0256 1077.91 60.0256 1073.26 Q60.0256 1068.62 56.3653 1065.97 Q52.6732 1063.3 46.212 1063.3 Z" fill="#000000" fill-rule="evenodd" fill-opacity="1" /><path clip-path="url(#clip350)" d="M15.4338 1079.34 L15.4338 1060.31 L20.1444 1060.31 L20.1444 1079.34 L15.4338 1079.34 Z" fill="#000000" fill-rule="evenodd" fill-opacity="1" /><path clip-path="url(#clip350)" d="M14.5426 1033.45 Q21.8632 1037.71 29.0246 1039.78 Q36.186 1041.85 43.5384 1041.85 Q50.8908 1041.85 58.1159 1039.78 Q65.3091 1037.68 72.5979 1033.45 L72.5979 1038.54 Q65.1182 1043.31 57.8931 1045.7 Q50.668 1048.05 43.5384 1048.05 Q36.4406 1048.05 29.2474 1045.7 Q22.0542 1043.34 14.5426 1038.54 L14.5426 1033.45 Z" fill="#000000" fill-rule="evenodd" fill-opacity="1" /><path clip-path="url(#clip350)" d="M32.4621 1008.27 Q32.4621 1012.98 36.1542 1015.72 Q39.8145 1018.45 46.212 1018.45 Q52.6095 1018.45 56.3017 1015.75 Q59.9619 1013.01 59.9619 1008.27 Q59.9619 1003.59 56.2698 1000.85 Q52.5777 998.116 46.212 998.116 Q39.8781 998.116 36.186 1000.85 Q32.4621 1003.59 32.4621 1008.27 M27.4968 1008.27 Q27.4968 1000.63 32.4621 996.27 Q37.4273 991.909 46.212 991.909 Q54.9649 991.909 59.9619 996.27 Q64.9272 1000.63 64.9272 1008.27 Q64.9272 1015.94 59.9619 1020.3 Q54.9649 1024.63 46.212 1024.63 Q37.4273 1024.63 32.4621 1020.3 Q27.4968 1015.94 27.4968 1008.27 Z" fill="#000000" fill-rule="evenodd" fill-opacity="1" /><path clip-path="url(#clip350)" d="M46.212 956.611 Q39.7508 956.611 36.0905 959.285 Q32.3984 961.927 32.3984 966.574 Q32.3984 971.221 36.0905 973.894 Q39.7508 976.536 46.212 976.536 Q52.6732 976.536 56.3653 973.894 Q60.0256 971.221 60.0256 966.574 Q60.0256 961.927 56.3653 959.285 Q52.6732 956.611 46.212 956.611 M33.7671 976.536 Q30.5842 974.69 29.0564 971.889 Q27.4968 969.056 27.4968 965.141 Q27.4968 958.648 32.6531 954.606 Q37.8093 950.532 46.212 950.532 Q54.6147 950.532 59.771 954.606 Q64.9272 958.648 64.9272 965.141 Q64.9272 969.056 63.3994 971.889 Q61.8398 974.69 58.657 976.536 L64.0042 976.536 L64.0042 982.424 L14.479 982.424 L14.479 976.536 L33.7671 976.536 Z" fill="#000000" fill-rule="evenodd" fill-opacity="1" /><path clip-path="url(#clip350)" d="M29.4065 918.099 L34.9447 918.099 Q33.6716 920.581 33.035 923.255 Q32.3984 925.929 32.3984 928.793 Q32.3984 933.154 33.7352 935.35 Q35.072 937.514 37.7456 937.514 Q39.7826 937.514 40.9603 935.955 Q42.1061 934.395 43.1565 929.684 L43.6021 927.679 Q44.9389 921.441 47.3897 918.831 Q49.8086 916.189 54.1691 916.189 Q59.1344 916.189 62.0308 920.136 Q64.9272 924.051 64.9272 930.926 Q64.9272 933.79 64.3543 936.909 Q63.8132 939.997 62.6992 943.434 L56.6518 943.434 Q58.3387 940.188 59.198 937.037 Q60.0256 933.886 60.0256 930.798 Q60.0256 926.661 58.6251 924.433 Q57.1929 922.205 54.6147 922.205 Q52.2276 922.205 50.9545 923.828 Q49.6813 925.419 48.5037 930.862 L48.0262 932.899 Q46.8804 938.342 44.5251 940.761 Q42.138 943.18 38.0002 943.18 Q32.9713 943.18 30.2341 939.615 Q27.4968 936.05 27.4968 929.493 Q27.4968 926.247 27.9743 923.382 Q28.4517 920.518 29.4065 918.099 Z" fill="#000000" fill-rule="evenodd" fill-opacity="1" /><path clip-path="url(#clip350)" d="M44.7161 876.372 L47.5806 876.372 L47.5806 903.298 Q53.6281 902.917 56.8109 899.67 Q59.9619 896.392 59.9619 890.567 Q59.9619 887.193 59.1344 884.042 Q58.3069 880.859 56.6518 877.74 L62.1899 877.74 Q63.5267 880.891 64.227 884.201 Q64.9272 887.511 64.9272 890.917 Q64.9272 899.447 59.9619 904.444 Q54.9967 909.41 46.5303 909.41 Q37.7774 909.41 32.6531 904.699 Q27.4968 899.956 27.4968 891.936 Q27.4968 884.742 32.1438 880.573 Q36.7589 876.372 44.7161 876.372 M42.9973 882.228 Q38.1912 882.292 35.3266 884.933 Q32.4621 887.543 32.4621 891.872 Q32.4621 896.774 35.2312 899.734 Q38.0002 902.662 43.0292 903.107 L42.9973 882.228 Z" fill="#000000" fill-rule="evenodd" fill-opacity="1" /><path clip-path="url(#clip350)" d="M33.8307 846.103 Q33.2578 847.089 33.0032 848.267 Q32.7167 849.413 32.7167 850.813 Q32.7167 855.778 35.9632 858.452 Q39.1779 861.094 45.2253 861.094 L64.0042 861.094 L64.0042 866.982 L28.3562 866.982 L28.3562 861.094 L33.8944 861.094 Q30.6479 859.248 29.0883 856.288 Q27.4968 853.328 27.4968 849.094 Q27.4968 848.49 27.5923 847.758 Q27.656 847.026 27.8151 846.134 L33.8307 846.103 Z" fill="#000000" fill-rule="evenodd" fill-opacity="1" /><path clip-path="url(#clip350)" d="M28.3562 844.161 L28.3562 837.954 L58.275 826.814 L28.3562 815.675 L28.3562 809.468 L64.0042 822.836 L64.0042 830.793 L28.3562 844.161 Z" fill="#000000" fill-rule="evenodd" fill-opacity="1" /><path clip-path="url(#clip350)" d="M44.7161 770.892 L47.5806 770.892 L47.5806 797.819 Q53.6281 797.437 56.8109 794.19 Q59.9619 790.912 59.9619 785.087 Q59.9619 781.713 59.1344 778.562 Q58.3069 775.38 56.6518 772.26 L62.1899 772.26 Q63.5267 775.411 64.227 778.722 Q64.9272 782.032 64.9272 785.437 Q64.9272 793.967 59.9619 798.965 Q54.9967 803.93 46.5303 803.93 Q37.7774 803.93 32.6531 799.219 Q27.4968 794.477 27.4968 786.456 Q27.4968 779.263 32.1438 775.093 Q36.7589 770.892 44.7161 770.892 M42.9973 776.748 Q38.1912 776.812 35.3266 779.454 Q32.4621 782.064 32.4621 786.392 Q32.4621 791.294 35.2312 794.254 Q38.0002 797.182 43.0292 797.628 L42.9973 776.748 Z" fill="#000000" fill-rule="evenodd" fill-opacity="1" /><path clip-path="url(#clip350)" d="M33.7671 737.822 L14.479 737.822 L14.479 731.965 L64.0042 731.965 L64.0042 737.822 L58.657 737.822 Q61.8398 739.668 63.3994 742.501 Q64.9272 745.302 64.9272 749.248 Q64.9272 755.71 59.771 759.784 Q54.6147 763.826 46.212 763.826 Q37.8093 763.826 32.6531 759.784 Q27.4968 755.71 27.4968 749.248 Q27.4968 745.302 29.0564 742.501 Q30.5842 739.668 33.7671 737.822 M46.212 757.778 Q52.6732 757.778 56.3653 755.137 Q60.0256 752.463 60.0256 747.816 Q60.0256 743.169 56.3653 740.496 Q52.6732 737.822 46.212 737.822 Q39.7508 737.822 36.0905 740.496 Q32.3984 743.169 32.3984 747.816 Q32.3984 752.463 36.0905 755.137 Q39.7508 757.778 46.212 757.778 Z" fill="#000000" fill-rule="evenodd" fill-opacity="1" /><path clip-path="url(#clip350)" d="M55.9197 718.407 L55.9197 711.691 L61.3942 711.691 L71.5793 716.911 L71.5793 721.016 L61.3942 718.407 L55.9197 718.407 Z" fill="#000000" fill-rule="evenodd" fill-opacity="1" /><path clip-path="url(#clip350)" d="M58.657 672.796 L77.5631 672.796 L77.5631 678.684 L28.3562 678.684 L28.3562 672.796 L33.7671 672.796 Q30.5842 670.95 29.0564 668.149 Q27.4968 665.317 27.4968 661.402 Q27.4968 654.909 32.6531 650.866 Q37.8093 646.792 46.212 646.792 Q54.6147 646.792 59.771 650.866 Q64.9272 654.909 64.9272 661.402 Q64.9272 665.317 63.3994 668.149 Q61.8398 670.95 58.657 672.796 M46.212 652.872 Q39.7508 652.872 36.0905 655.545 Q32.3984 658.187 32.3984 662.834 Q32.3984 667.481 36.0905 670.154 Q39.7508 672.796 46.212 672.796 Q52.6732 672.796 56.3653 670.154 Q60.0256 667.481 60.0256 662.834 Q60.0256 658.187 56.3653 655.545 Q52.6732 652.872 46.212 652.872 Z" fill="#000000" fill-rule="evenodd" fill-opacity="1" /><path clip-path="url(#clip350)" d="M33.8307 616.428 Q33.2578 617.415 33.0032 618.592 Q32.7167 619.738 32.7167 621.139 Q32.7167 626.104 35.9632 628.777 Q39.1779 631.419 45.2253 631.419 L64.0042 631.419 L64.0042 637.307 L28.3562 637.307 L28.3562 631.419 L33.8944 631.419 Q30.6479 629.573 29.0883 626.613 Q27.4968 623.653 27.4968 619.42 Q27.4968 618.815 27.5923 618.083 Q27.656 617.351 27.8151 616.46 L33.8307 616.428 Z" fill="#000000" fill-rule="evenodd" fill-opacity="1" /><path clip-path="url(#clip350)" d="M44.7161 581.226 L47.5806 581.226 L47.5806 608.152 Q53.6281 607.771 56.8109 604.524 Q59.9619 601.246 59.9619 595.421 Q59.9619 592.047 59.1344 588.896 Q58.3069 585.713 56.6518 582.594 L62.1899 582.594 Q63.5267 585.745 64.227 589.055 Q64.9272 592.366 64.9272 595.771 Q64.9272 604.301 59.9619 609.298 Q54.9967 614.264 46.5303 614.264 Q37.7774 614.264 32.6531 609.553 Q27.4968 604.81 27.4968 596.79 Q27.4968 589.596 32.1438 585.427 Q36.7589 581.226 44.7161 581.226 M42.9973 587.082 Q38.1912 587.146 35.3266 589.787 Q32.4621 592.397 32.4621 596.726 Q32.4621 601.628 35.2312 604.588 Q38.0002 607.516 43.0292 607.961 L42.9973 587.082 Z" fill="#000000" fill-rule="evenodd" fill-opacity="1" /><path clip-path="url(#clip350)" d="M33.7671 548.156 L14.479 548.156 L14.479 542.299 L64.0042 542.299 L64.0042 548.156 L58.657 548.156 Q61.8398 550.002 63.3994 552.834 Q64.9272 555.635 64.9272 559.582 Q64.9272 566.043 59.771 570.117 Q54.6147 574.16 46.212 574.16 Q37.8093 574.16 32.6531 570.117 Q27.4968 566.043 27.4968 559.582 Q27.4968 555.635 29.0564 552.834 Q30.5842 550.002 33.7671 548.156 M46.212 568.112 Q52.6732 568.112 56.3653 565.47 Q60.0256 562.797 60.0256 558.15 Q60.0256 553.503 56.3653 550.829 Q52.6732 548.156 46.212 548.156 Q39.7508 548.156 36.0905 550.829 Q32.3984 553.503 32.3984 558.15 Q32.3984 562.797 36.0905 565.47 Q39.7508 568.112 46.212 568.112 Z" fill="#000000" fill-rule="evenodd" fill-opacity="1" /><path clip-path="url(#clip350)" d="M28.3562 530.236 L28.3562 524.38 L64.0042 524.38 L64.0042 530.236 L28.3562 530.236 M14.479 530.236 L14.479 524.38 L21.895 524.38 L21.895 530.236 L14.479 530.236 Z" fill="#000000" fill-rule="evenodd" fill-opacity="1" /><path clip-path="url(#clip350)" d="M29.7248 486.472 L35.1993 486.472 Q33.8307 488.955 33.1623 491.469 Q32.4621 493.952 32.4621 496.498 Q32.4621 502.195 36.0905 505.346 Q39.6872 508.497 46.212 508.497 Q52.7369 508.497 56.3653 505.346 Q59.9619 502.195 59.9619 496.498 Q59.9619 493.952 59.2935 491.469 Q58.5933 488.955 57.2247 486.472 L62.6355 486.472 Q63.7814 488.923 64.3543 491.565 Q64.9272 494.174 64.9272 497.135 Q64.9272 505.187 59.8664 509.93 Q54.8057 514.672 46.212 514.672 Q37.491 514.672 32.4939 509.898 Q27.4968 505.092 27.4968 496.753 Q27.4968 494.047 28.0697 491.469 Q28.6108 488.891 29.7248 486.472 Z" fill="#000000" fill-rule="evenodd" fill-opacity="1" /><path clip-path="url(#clip350)" d="M18.2347 470.494 L28.3562 470.494 L28.3562 458.431 L32.9077 458.431 L32.9077 470.494 L52.2594 470.494 Q56.6199 470.494 57.8613 469.316 Q59.1026 468.107 59.1026 464.447 L59.1026 458.431 L64.0042 458.431 L64.0042 464.447 Q64.0042 471.226 61.4897 473.804 Q58.9434 476.382 52.2594 476.382 L32.9077 476.382 L32.9077 480.679 L28.3562 480.679 L28.3562 476.382 L18.2347 476.382 L18.2347 470.494 Z" fill="#000000" fill-rule="evenodd" fill-opacity="1" /><path clip-path="url(#clip350)" d="M44.7161 420.237 L47.5806 420.237 L47.5806 447.164 Q53.6281 446.782 56.8109 443.535 Q59.9619 440.257 59.9619 434.432 Q59.9619 431.059 59.1344 427.907 Q58.3069 424.725 56.6518 421.605 L62.1899 421.605 Q63.5267 424.756 64.227 428.067 Q64.9272 431.377 64.9272 434.782 Q64.9272 443.312 59.9619 448.31 Q54.9967 453.275 46.5303 453.275 Q37.7774 453.275 32.6531 448.564 Q27.4968 443.822 27.4968 435.801 Q27.4968 428.608 32.1438 424.438 Q36.7589 420.237 44.7161 420.237 M42.9973 426.093 Q38.1912 426.157 35.3266 428.799 Q32.4621 431.409 32.4621 435.737 Q32.4621 440.639 35.2312 443.599 Q38.0002 446.527 43.0292 446.973 L42.9973 426.093 Z" fill="#000000" fill-rule="evenodd" fill-opacity="1" /><path clip-path="url(#clip350)" d="M33.7671 387.167 L14.479 387.167 L14.479 381.311 L64.0042 381.311 L64.0042 387.167 L58.657 387.167 Q61.8398 389.013 63.3994 391.846 Q64.9272 394.647 64.9272 398.593 Q64.9272 405.055 59.771 409.129 Q54.6147 413.171 46.212 413.171 Q37.8093 413.171 32.6531 409.129 Q27.4968 405.055 27.4968 398.593 Q27.4968 394.647 29.0564 391.846 Q30.5842 389.013 33.7671 387.167 M46.212 407.123 Q52.6732 407.123 56.3653 404.482 Q60.0256 401.808 60.0256 397.161 Q60.0256 392.514 56.3653 389.841 Q52.6732 387.167 46.212 387.167 Q39.7508 387.167 36.0905 389.841 Q32.3984 392.514 32.3984 397.161 Q32.3984 401.808 36.0905 404.482 Q39.7508 407.123 46.212 407.123 Z" fill="#000000" fill-rule="evenodd" fill-opacity="1" /><polyline clip-path="url(#clip352)" style="stroke:#000000; stroke-linecap:butt; stroke-linejoin:round; stroke-width:4; stroke-opacity:1; fill:none" points="
  309.067,86.1857 557.087,220.962 805.108,463.587 1053.13,454.754 1301.15,662.918 1549.17,912.127 1797.19,1099.79 2045.21,1297.72 2293.23,1384.24 
  "/>
<path clip-path="url(#clip352)" d="M309.067 70.1857 L305.307 81.0017 L293.851 81.2417 L302.987 88.1697 L299.659 99.1297 L309.067 92.5857 L318.475 99.1297 L315.147 88.1697 L324.283 81.2417 L312.827 81.0017 L309.067 70.1857 Z" fill="#000000" fill-rule="evenodd" fill-opacity="1" stroke="none"/>
<path clip-path="url(#clip352)" d="M557.087 204.962 L553.327 215.778 L541.871 216.018 L551.007 222.946 L547.679 233.906 L557.087 227.362 L566.495 233.906 L563.167 222.946 L572.303 216.018 L560.847 215.778 L557.087 204.962 Z" fill="#000000" fill-rule="evenodd" fill-opacity="1" stroke="none"/>
<path clip-path="url(#clip352)" d="M805.108 447.587 L801.348 458.403 L789.892 458.643 L799.028 465.571 L795.7 476.531 L805.108 469.987 L814.516 476.531 L811.188 465.571 L820.324 458.643 L808.868 458.403 L805.108 447.587 Z" fill="#000000" fill-rule="evenodd" fill-opacity="1" stroke="none"/>
<path clip-path="url(#clip352)" d="M1053.13 438.754 L1049.37 449.57 L1037.91 449.81 L1047.05 456.738 L1043.72 467.698 L1053.13 461.154 L1062.54 467.698 L1059.21 456.738 L1068.34 449.81 L1056.89 449.57 L1053.13 438.754 Z" fill="#000000" fill-rule="evenodd" fill-opacity="1" stroke="none"/>
<path clip-path="url(#clip352)" d="M1301.15 646.918 L1297.39 657.734 L1285.93 657.974 L1295.07 664.902 L1291.74 675.862 L1301.15 669.318 L1310.56 675.862 L1307.23 664.902 L1316.36 657.974 L1304.91 657.734 L1301.15 646.918 Z" fill="#000000" fill-rule="evenodd" fill-opacity="1" stroke="none"/>
<path clip-path="url(#clip352)" d="M1549.17 896.127 L1545.41 906.943 L1533.95 907.183 L1543.09 914.111 L1539.76 925.071 L1549.17 918.527 L1558.58 925.071 L1555.25 914.111 L1564.39 907.183 L1552.93 906.943 L1549.17 896.127 Z" fill="#000000" fill-rule="evenodd" fill-opacity="1" stroke="none"/>
<path clip-path="url(#clip352)" d="M1797.19 1083.79 L1793.43 1094.61 L1781.97 1094.85 L1791.11 1101.78 L1787.78 1112.74 L1797.19 1106.19 L1806.6 1112.74 L1803.27 1101.78 L1812.41 1094.85 L1800.95 1094.61 L1797.19 1083.79 Z" fill="#000000" fill-rule="evenodd" fill-opacity="1" stroke="none"/>
<path clip-path="url(#clip352)" d="M2045.21 1281.72 L2041.45 1292.53 L2029.99 1292.77 L2039.13 1299.7 L2035.8 1310.66 L2045.21 1304.12 L2054.62 1310.66 L2051.29 1299.7 L2060.43 1292.77 L2048.97 1292.53 L2045.21 1281.72 Z" fill="#000000" fill-rule="evenodd" fill-opacity="1" stroke="none"/>
<path clip-path="url(#clip352)" d="M2293.23 1368.24 L2289.47 1379.05 L2278.01 1379.29 L2287.15 1386.22 L2283.82 1397.18 L2293.23 1390.64 L2302.64 1397.18 L2299.31 1386.22 L2308.45 1379.29 L2296.99 1379.05 L2293.23 1368.24 Z" fill="#000000" fill-rule="evenodd" fill-opacity="1" stroke="none"/>
</svg>
