<?xml version="1.0" encoding="utf-8"?>
<svg xmlns="http://www.w3.org/2000/svg" xmlns:xlink="http://www.w3.org/1999/xlink" width="600" height="400" viewBox="0 0 2400 1600">
<defs>
  <clipPath id="clip290">
    <rect x="0" y="0" width="2400" height="1600"/>
  </clipPath>
</defs>
<path clip-path="url(#clip290)" d="
M0 1600 L2400 1600 L2400 0 L0 0  Z
  " fill="#ffffff" fill-rule="evenodd" fill-opacity="1"/>
<defs>
  <clipPath id="clip291">
    <rect x="480" y="0" width="1681" height="1600"/>
  </clipPath>
</defs>
<path clip-path="url(#clip290)" d="
M257.204 1423.18 L2352.76 1423.18 L2352.76 47.2441 L257.204 47.2441  Z
  " fill="#ffffff" fill-rule="evenodd" fill-opacity="1"/>
<defs>
  <clipPath id="clip292">
    <rect x="257" y="47" width="2097" height="1377"/>
  </clipPath>
</defs>
<polyline clip-path="url(#clip292)" style="stroke:#000000; stroke-linecap:butt; stroke-linejoin:round; stroke-width:2; stroke-opacity:0.1; fill:none" points="
  732.709,1423.18 732.709,47.2441 
  "/>
<polyline clip-path="url(#clip292)" style="stroke:#000000; stroke-linecap:butt; stroke-linejoin:round; stroke-width:2; stroke-opacity:0.1; fill:none" points="
  1252.96,1423.18 1252.96,47.2441 
  "/>
<polyline clip-path="url(#clip292)" style="stroke:#000000; stroke-linecap:butt; stroke-linejoin:round; stroke-width:2; stroke-opacity:0.1; fill:none" points="
  1773.2,1423.18 1773.2,47.2441 
  "/>
<polyline clip-path="url(#clip292)" style="stroke:#000000; stroke-linecap:butt; stroke-linejoin:round; stroke-width:2; stroke-opacity:0.1; fill:none" points="
  2293.45,1423.18 2293.45,47.2441 
  "/>
<polyline clip-path="url(#clip290)" style="stroke:#000000; stroke-linecap:butt; stroke-linejoin:round; stroke-width:4; stroke-opacity:1; fill:none" points="
  257.204,1423.18 2352.76,1423.18 
  "/>
<polyline clip-path="url(#clip290)" style="stroke:#000000; stroke-linecap:butt; stroke-linejoin:round; stroke-width:4; stroke-opacity:1; fill:none" points="
  732.709,1423.18 732.709,1404.28 
  "/>
<polyline clip-path="url(#clip290)" style="stroke:#000000; stroke-linecap:butt; stroke-linejoin:round; stroke-width:4; stroke-opacity:1; fill:none" points="
  1252.96,1423.18 1252.96,1404.28 
  "/>
<polyline clip-path="url(#clip290)" style="stroke:#000000; stroke-linecap:butt; stroke-linejoin:round; stroke-width:4; stroke-opacity:1; fill:none" points="
  1773.2,1423.18 1773.2,1404.28 
  "/>
<polyline clip-path="url(#clip290)" style="stroke:#000000; stroke-linecap:butt; stroke-linejoin:round; stroke-width:4; stroke-opacity:1; fill:none" points="
  2293.45,1423.18 2293.45,1404.28 
  "/>
<path clip-path="url(#clip290)" d="M722.987 1451.02 L741.343 1451.02 L741.343 1454.96 L727.269 1454.96 L727.269 1463.43 Q728.288 1463.08 729.306 1462.92 Q730.325 1462.73 731.343 1462.73 Q737.13 1462.73 740.51 1465.9 Q743.89 1469.08 743.89 1474.49 Q743.89 1480.07 740.417 1483.17 Q736.945 1486.25 730.626 1486.25 Q728.45 1486.25 726.181 1485.88 Q723.936 1485.51 721.529 1484.77 L721.529 1480.07 Q723.612 1481.2 725.834 1481.76 Q728.056 1482.32 730.533 1482.32 Q734.538 1482.32 736.876 1480.21 Q739.214 1478.1 739.214 1474.49 Q739.214 1470.88 736.876 1468.77 Q734.538 1466.67 730.533 1466.67 Q728.658 1466.67 726.783 1467.08 Q724.931 1467.5 722.987 1468.38 L722.987 1451.02 Z" fill="#000000" fill-rule="evenodd" fill-opacity="1" /><path clip-path="url(#clip290)" d="M1227.64 1481.64 L1235.28 1481.64 L1235.28 1455.28 L1226.97 1456.95 L1226.97 1452.69 L1235.24 1451.02 L1239.91 1451.02 L1239.91 1481.64 L1247.55 1481.64 L1247.55 1485.58 L1227.64 1485.58 L1227.64 1481.64 Z" fill="#000000" fill-rule="evenodd" fill-opacity="1" /><path clip-path="url(#clip290)" d="M1266.99 1454.1 Q1263.38 1454.1 1261.55 1457.66 Q1259.75 1461.2 1259.75 1468.33 Q1259.75 1475.44 1261.55 1479.01 Q1263.38 1482.55 1266.99 1482.55 Q1270.63 1482.55 1272.43 1479.01 Q1274.26 1475.44 1274.26 1468.33 Q1274.26 1461.2 1272.43 1457.66 Q1270.63 1454.1 1266.99 1454.1 M1266.99 1450.39 Q1272.8 1450.39 1275.86 1455 Q1278.94 1459.58 1278.94 1468.33 Q1278.94 1477.06 1275.86 1481.67 Q1272.8 1486.25 1266.99 1486.25 Q1261.18 1486.25 1258.11 1481.67 Q1255.05 1477.06 1255.05 1468.33 Q1255.05 1459.58 1258.11 1455 Q1261.18 1450.39 1266.99 1450.39 Z" fill="#000000" fill-rule="evenodd" fill-opacity="1" /><path clip-path="url(#clip290)" d="M1748.39 1481.64 L1756.03 1481.64 L1756.03 1455.28 L1747.72 1456.95 L1747.72 1452.69 L1755.98 1451.02 L1760.66 1451.02 L1760.66 1481.64 L1768.29 1481.64 L1768.29 1485.58 L1748.39 1485.58 L1748.39 1481.64 Z" fill="#000000" fill-rule="evenodd" fill-opacity="1" /><path clip-path="url(#clip290)" d="M1777.78 1451.02 L1796.14 1451.02 L1796.14 1454.96 L1782.07 1454.96 L1782.07 1463.43 Q1783.09 1463.08 1784.1 1462.92 Q1785.12 1462.73 1786.14 1462.73 Q1791.93 1462.73 1795.31 1465.9 Q1798.69 1469.08 1798.69 1474.49 Q1798.69 1480.07 1795.22 1483.17 Q1791.74 1486.25 1785.42 1486.25 Q1783.25 1486.25 1780.98 1485.88 Q1778.73 1485.51 1776.33 1484.77 L1776.33 1480.07 Q1778.41 1481.2 1780.63 1481.76 Q1782.85 1482.32 1785.33 1482.32 Q1789.34 1482.32 1791.67 1480.21 Q1794.01 1478.1 1794.01 1474.49 Q1794.01 1470.88 1791.67 1468.77 Q1789.34 1466.67 1785.33 1466.67 Q1783.46 1466.67 1781.58 1467.08 Q1779.73 1467.5 1777.78 1468.38 L1777.78 1451.02 Z" fill="#000000" fill-rule="evenodd" fill-opacity="1" /><path clip-path="url(#clip290)" d="M2272.22 1481.64 L2288.54 1481.64 L2288.54 1485.58 L2266.6 1485.58 L2266.6 1481.64 Q2269.26 1478.89 2273.84 1474.26 Q2278.45 1469.61 2279.63 1468.27 Q2281.87 1465.74 2282.75 1464.01 Q2283.66 1462.25 2283.66 1460.56 Q2283.66 1457.8 2281.71 1456.07 Q2279.79 1454.33 2276.69 1454.33 Q2274.49 1454.33 2272.04 1455.09 Q2269.61 1455.86 2266.83 1457.41 L2266.83 1452.69 Q2269.65 1451.55 2272.11 1450.97 Q2274.56 1450.39 2276.6 1450.39 Q2281.97 1450.39 2285.16 1453.08 Q2288.36 1455.77 2288.36 1460.26 Q2288.36 1462.39 2287.55 1464.31 Q2286.76 1466.2 2284.65 1468.8 Q2284.07 1469.47 2280.97 1472.69 Q2277.87 1475.88 2272.22 1481.64 Z" fill="#000000" fill-rule="evenodd" fill-opacity="1" /><path clip-path="url(#clip290)" d="M2308.36 1454.1 Q2304.74 1454.1 2302.92 1457.66 Q2301.11 1461.2 2301.11 1468.33 Q2301.11 1475.44 2302.92 1479.01 Q2304.74 1482.55 2308.36 1482.55 Q2311.99 1482.55 2313.79 1479.01 Q2315.62 1475.44 2315.62 1468.33 Q2315.62 1461.2 2313.79 1457.66 Q2311.99 1454.1 2308.36 1454.1 M2308.36 1450.39 Q2314.17 1450.39 2317.22 1455 Q2320.3 1459.58 2320.3 1468.33 Q2320.3 1477.06 2317.22 1481.67 Q2314.17 1486.25 2308.36 1486.25 Q2302.55 1486.25 2299.47 1481.67 Q2296.41 1477.06 2296.41 1468.33 Q2296.41 1459.58 2299.47 1455 Q2302.55 1450.39 2308.36 1450.39 Z" fill="#000000" fill-rule="evenodd" fill-opacity="1" /><path clip-path="url(#clip290)" d="M1016.84 1525.81 L1016.84 1543.66 L1024.92 1543.66 Q1029.41 1543.66 1031.86 1541.34 Q1034.31 1539.02 1034.31 1534.72 Q1034.31 1530.45 1031.86 1528.13 Q1029.41 1525.81 1024.92 1525.81 L1016.84 1525.81 M1010.41 1520.52 L1024.92 1520.52 Q1032.91 1520.52 1036.98 1524.15 Q1041.09 1527.75 1041.09 1534.72 Q1041.09 1541.75 1036.98 1545.35 Q1032.91 1548.95 1024.92 1548.95 L1016.84 1548.95 L1016.84 1568.04 L1010.41 1568.04 L1010.41 1520.52 Z" fill="#000000" fill-rule="evenodd" fill-opacity="1" /><path clip-path="url(#clip290)" d="M1068.97 1537.87 Q1067.98 1537.3 1066.81 1537.04 Q1065.66 1536.76 1064.26 1536.76 Q1059.3 1536.76 1056.62 1540 Q1053.98 1543.22 1053.98 1549.27 L1053.98 1568.04 L1048.09 1568.04 L1048.09 1532.4 L1053.98 1532.4 L1053.98 1537.93 Q1055.83 1534.69 1058.79 1533.13 Q1061.75 1531.54 1065.98 1531.54 Q1066.58 1531.54 1067.32 1531.63 Q1068.05 1531.7 1068.94 1531.85 L1068.97 1537.87 Z" fill="#000000" fill-rule="evenodd" fill-opacity="1" /><path clip-path="url(#clip290)" d="M1104.17 1548.76 L1104.17 1551.62 L1077.25 1551.62 Q1077.63 1557.67 1080.88 1560.85 Q1084.15 1564 1089.98 1564 Q1093.35 1564 1096.5 1563.17 Q1099.69 1562.35 1102.81 1560.69 L1102.81 1566.23 Q1099.65 1567.57 1096.34 1568.27 Q1093.03 1568.97 1089.63 1568.97 Q1081.1 1568.97 1076.1 1564 Q1071.14 1559.04 1071.14 1550.57 Q1071.14 1541.82 1075.85 1536.69 Q1080.59 1531.54 1088.61 1531.54 Q1095.8 1531.54 1099.97 1536.18 Q1104.17 1540.8 1104.17 1548.76 M1098.32 1547.04 Q1098.25 1542.23 1095.61 1539.37 Q1093 1536.5 1088.67 1536.5 Q1083.77 1536.5 1080.81 1539.27 Q1077.88 1542.04 1077.44 1547.07 L1098.32 1547.04 Z" fill="#000000" fill-rule="evenodd" fill-opacity="1" /><path clip-path="url(#clip290)" d="M1137.24 1537.81 L1137.24 1518.52 L1143.1 1518.52 L1143.1 1568.04 L1137.24 1568.04 L1137.24 1562.7 Q1135.4 1565.88 1132.56 1567.44 Q1129.76 1568.97 1125.82 1568.97 Q1119.36 1568.97 1115.28 1563.81 Q1111.24 1558.65 1111.24 1550.25 Q1111.24 1541.85 1115.28 1536.69 Q1119.36 1531.54 1125.82 1531.54 Q1129.76 1531.54 1132.56 1533.1 Q1135.4 1534.62 1137.24 1537.81 M1117.29 1550.25 Q1117.29 1556.71 1119.93 1560.4 Q1122.6 1564.07 1127.25 1564.07 Q1131.9 1564.07 1134.57 1560.4 Q1137.24 1556.71 1137.24 1550.25 Q1137.24 1543.79 1134.57 1540.13 Q1131.9 1536.44 1127.25 1536.44 Q1122.6 1536.44 1119.93 1540.13 Q1117.29 1543.79 1117.29 1550.25 Z" fill="#000000" fill-rule="evenodd" fill-opacity="1" /><path clip-path="url(#clip290)" d="M1155.16 1532.4 L1161.02 1532.4 L1161.02 1568.04 L1155.16 1568.04 L1155.16 1532.4 M1155.16 1518.52 L1161.02 1518.52 L1161.02 1525.93 L1155.16 1525.93 L1155.16 1518.52 Z" fill="#000000" fill-rule="evenodd" fill-opacity="1" /><path clip-path="url(#clip290)" d="M1198.93 1533.76 L1198.93 1539.24 Q1196.44 1537.87 1193.93 1537.2 Q1191.45 1536.5 1188.9 1536.5 Q1183.2 1536.5 1180.05 1540.13 Q1176.9 1543.73 1176.9 1550.25 Q1176.9 1556.78 1180.05 1560.4 Q1183.2 1564 1188.9 1564 Q1191.45 1564 1193.93 1563.33 Q1196.44 1562.63 1198.93 1561.26 L1198.93 1566.68 Q1196.48 1567.82 1193.83 1568.39 Q1191.22 1568.97 1188.26 1568.97 Q1180.21 1568.97 1175.47 1563.91 Q1170.73 1558.85 1170.73 1550.25 Q1170.73 1541.53 1175.5 1536.53 Q1180.31 1531.54 1188.65 1531.54 Q1191.35 1531.54 1193.93 1532.11 Q1196.51 1532.65 1198.93 1533.76 Z" fill="#000000" fill-rule="evenodd" fill-opacity="1" /><path clip-path="url(#clip290)" d="M1214.91 1522.27 L1214.91 1532.4 L1226.97 1532.4 L1226.97 1536.95 L1214.91 1536.95 L1214.91 1556.3 Q1214.91 1560.66 1216.08 1561.9 Q1217.29 1563.14 1220.95 1563.14 L1226.97 1563.14 L1226.97 1568.04 L1220.95 1568.04 Q1214.17 1568.04 1211.6 1565.53 Q1209.02 1562.98 1209.02 1556.3 L1209.02 1536.95 L1204.72 1536.95 L1204.72 1532.4 L1209.02 1532.4 L1209.02 1522.27 L1214.91 1522.27 Z" fill="#000000" fill-rule="evenodd" fill-opacity="1" /><path clip-path="url(#clip290)" d="M1234.67 1532.4 L1240.53 1532.4 L1240.53 1568.04 L1234.67 1568.04 L1234.67 1532.4 M1234.67 1518.52 L1240.53 1518.52 L1240.53 1525.93 L1234.67 1525.93 L1234.67 1518.52 Z" fill="#000000" fill-rule="evenodd" fill-opacity="1" /><path clip-path="url(#clip290)" d="M1266.59 1536.5 Q1261.88 1536.5 1259.15 1540.19 Q1256.41 1543.85 1256.41 1550.25 Q1256.41 1556.65 1259.12 1560.34 Q1261.85 1564 1266.59 1564 Q1271.27 1564 1274.01 1560.31 Q1276.75 1556.62 1276.75 1550.25 Q1276.75 1543.92 1274.01 1540.23 Q1271.27 1536.5 1266.59 1536.5 M1266.59 1531.54 Q1274.23 1531.54 1278.59 1536.5 Q1282.95 1541.47 1282.95 1550.25 Q1282.95 1559 1278.59 1564 Q1274.23 1568.97 1266.59 1568.97 Q1258.92 1568.97 1254.56 1564 Q1250.23 1559 1250.23 1550.25 Q1250.23 1541.47 1254.56 1536.5 Q1258.92 1531.54 1266.59 1531.54 Z" fill="#000000" fill-rule="evenodd" fill-opacity="1" /><path clip-path="url(#clip290)" d="M1322.29 1546.53 L1322.29 1568.04 L1316.44 1568.04 L1316.44 1546.72 Q1316.44 1541.66 1314.46 1539.14 Q1312.49 1536.63 1308.54 1536.63 Q1303.8 1536.63 1301.07 1539.65 Q1298.33 1542.68 1298.33 1547.9 L1298.33 1568.04 L1292.44 1568.04 L1292.44 1532.4 L1298.33 1532.4 L1298.33 1537.93 Q1300.43 1534.72 1303.26 1533.13 Q1306.13 1531.54 1309.85 1531.54 Q1315.99 1531.54 1319.14 1535.36 Q1322.29 1539.14 1322.29 1546.53 Z" fill="#000000" fill-rule="evenodd" fill-opacity="1" /><path clip-path="url(#clip290)" d="M1360.49 1522.27 L1360.49 1532.4 L1372.55 1532.4 L1372.55 1536.95 L1360.49 1536.95 L1360.49 1556.3 Q1360.49 1560.66 1361.67 1561.9 Q1362.88 1563.14 1366.54 1563.14 L1372.55 1563.14 L1372.55 1568.04 L1366.54 1568.04 Q1359.76 1568.04 1357.18 1565.53 Q1354.6 1562.98 1354.6 1556.3 L1354.6 1536.95 L1350.3 1536.95 L1350.3 1532.4 L1354.6 1532.4 L1354.6 1522.27 L1360.49 1522.27 Z" fill="#000000" fill-rule="evenodd" fill-opacity="1" /><path clip-path="url(#clip290)" d="M1380.25 1532.4 L1386.11 1532.4 L1386.11 1568.04 L1380.25 1568.04 L1380.25 1532.4 M1380.25 1518.52 L1386.11 1518.52 L1386.11 1525.93 L1380.25 1525.93 L1380.25 1518.52 Z" fill="#000000" fill-rule="evenodd" fill-opacity="1" /><path clip-path="url(#clip290)" d="M1426.12 1539.24 Q1428.32 1535.29 1431.37 1533.41 Q1434.43 1531.54 1438.56 1531.54 Q1444.13 1531.54 1447.16 1535.45 Q1450.18 1539.33 1450.18 1546.53 L1450.18 1568.04 L1444.29 1568.04 L1444.29 1546.72 Q1444.29 1541.59 1442.48 1539.11 Q1440.67 1536.63 1436.94 1536.63 Q1432.39 1536.63 1429.75 1539.65 Q1427.11 1542.68 1427.11 1547.9 L1427.11 1568.04 L1421.22 1568.04 L1421.22 1546.72 Q1421.22 1541.56 1419.4 1539.11 Q1417.59 1536.63 1413.8 1536.63 Q1409.31 1536.63 1406.67 1539.68 Q1404.03 1542.71 1404.03 1547.9 L1404.03 1568.04 L1398.14 1568.04 L1398.14 1532.4 L1404.03 1532.4 L1404.03 1537.93 Q1406.04 1534.66 1408.84 1533.1 Q1411.64 1531.54 1415.49 1531.54 Q1419.37 1531.54 1422.08 1533.51 Q1424.81 1535.48 1426.12 1539.24 Z" fill="#000000" fill-rule="evenodd" fill-opacity="1" /><path clip-path="url(#clip290)" d="M1492.35 1548.76 L1492.35 1551.62 L1465.43 1551.62 Q1465.81 1557.67 1469.06 1560.85 Q1472.33 1564 1478.16 1564 Q1481.53 1564 1484.68 1563.17 Q1487.87 1562.35 1490.99 1560.69 L1490.99 1566.23 Q1487.83 1567.57 1484.52 1568.27 Q1481.21 1568.97 1477.81 1568.97 Q1469.28 1568.97 1464.28 1564 Q1459.32 1559.04 1459.32 1550.57 Q1459.32 1541.82 1464.03 1536.69 Q1468.77 1531.54 1476.79 1531.54 Q1483.98 1531.54 1488.15 1536.18 Q1492.35 1540.8 1492.35 1548.76 M1486.5 1547.04 Q1486.43 1542.23 1483.79 1539.37 Q1481.18 1536.5 1476.85 1536.5 Q1471.95 1536.5 1468.99 1539.27 Q1466.06 1542.04 1465.62 1547.07 L1486.5 1547.04 Z" fill="#000000" fill-rule="evenodd" fill-opacity="1" /><path clip-path="url(#clip290)" d="M1536.76 1518.58 Q1532.49 1525.9 1530.42 1533.06 Q1528.35 1540.23 1528.35 1547.58 Q1528.35 1554.93 1530.42 1562.16 Q1532.52 1569.35 1536.76 1576.64 L1531.66 1576.64 Q1526.89 1569.16 1524.5 1561.93 Q1522.15 1554.71 1522.15 1547.58 Q1522.15 1540.48 1524.5 1533.29 Q1526.86 1526.09 1531.66 1518.58 L1536.76 1518.58 Z" fill="#000000" fill-rule="evenodd" fill-opacity="1" /><path clip-path="url(#clip290)" d="M1547.9 1518.52 L1553.78 1518.52 L1553.78 1547.77 L1571.26 1532.4 L1578.74 1532.4 L1559.83 1549.07 L1579.53 1568.04 L1571.89 1568.04 L1553.78 1550.63 L1553.78 1568.04 L1547.9 1568.04 L1547.9 1518.52 Z" fill="#000000" fill-rule="evenodd" fill-opacity="1" /><path clip-path="url(#clip290)" d="M1584.94 1518.58 L1590.04 1518.58 Q1594.81 1526.09 1597.17 1533.29 Q1599.55 1540.48 1599.55 1547.58 Q1599.55 1554.71 1597.17 1561.93 Q1594.81 1569.16 1590.04 1576.64 L1584.94 1576.64 Q1589.18 1569.35 1591.25 1562.16 Q1593.35 1554.93 1593.35 1547.58 Q1593.35 1540.23 1591.25 1533.06 Q1589.18 1525.9 1584.94 1518.58 Z" fill="#000000" fill-rule="evenodd" fill-opacity="1" /><polyline clip-path="url(#clip292)" style="stroke:#000000; stroke-linecap:butt; stroke-linejoin:round; stroke-width:2; stroke-opacity:0.1; fill:none" points="
  257.204,1360.64 2352.76,1360.64 
  "/>
<polyline clip-path="url(#clip292)" style="stroke:#000000; stroke-linecap:butt; stroke-linejoin:round; stroke-width:2; stroke-opacity:0.1; fill:none" points="
  257.204,1047.92 2352.76,1047.92 
  "/>
<polyline clip-path="url(#clip292)" style="stroke:#000000; stroke-linecap:butt; stroke-linejoin:round; stroke-width:2; stroke-opacity:0.1; fill:none" points="
  257.204,735.212 2352.76,735.212 
  "/>
<polyline clip-path="url(#clip292)" style="stroke:#000000; stroke-linecap:butt; stroke-linejoin:round; stroke-width:2; stroke-opacity:0.1; fill:none" points="
  257.204,422.499 2352.76,422.499 
  "/>
<polyline clip-path="url(#clip292)" style="stroke:#000000; stroke-linecap:butt; stroke-linejoin:round; stroke-width:2; stroke-opacity:0.1; fill:none" points="
  257.204,109.787 2352.76,109.787 
  "/>
<polyline clip-path="url(#clip290)" style="stroke:#000000; stroke-linecap:butt; stroke-linejoin:round; stroke-width:4; stroke-opacity:1; fill:none" points="
  257.204,1423.18 257.204,47.2441 
  "/>
<polyline clip-path="url(#clip290)" style="stroke:#000000; stroke-linecap:butt; stroke-linejoin:round; stroke-width:4; stroke-opacity:1; fill:none" points="
  257.204,1360.64 276.102,1360.64 
  "/>
<polyline clip-path="url(#clip290)" style="stroke:#000000; stroke-linecap:butt; stroke-linejoin:round; stroke-width:4; stroke-opacity:1; fill:none" points="
  257.204,1047.92 276.102,1047.92 
  "/>
<polyline clip-path="url(#clip290)" style="stroke:#000000; stroke-linecap:butt; stroke-linejoin:round; stroke-width:4; stroke-opacity:1; fill:none" points="
  257.204,735.212 276.102,735.212 
  "/>
<polyline clip-path="url(#clip290)" style="stroke:#000000; stroke-linecap:butt; stroke-linejoin:round; stroke-width:4; stroke-opacity:1; fill:none" points="
  257.204,422.499 276.102,422.499 
  "/>
<polyline clip-path="url(#clip290)" style="stroke:#000000; stroke-linecap:butt; stroke-linejoin:round; stroke-width:4; stroke-opacity:1; fill:none" points="
  257.204,109.787 276.102,109.787 
  "/>
<path clip-path="url(#clip290)" d="M114.26 1361.09 L143.936 1361.09 L143.936 1365.02 L114.26 1365.02 L114.26 1361.09 Z" fill="#000000" fill-rule="evenodd" fill-opacity="1" /><path clip-path="url(#clip290)" d="M154.839 1373.98 L162.477 1373.98 L162.477 1347.62 L154.167 1349.28 L154.167 1345.02 L162.431 1343.36 L167.107 1343.36 L167.107 1373.98 L174.746 1373.98 L174.746 1377.92 L154.839 1377.92 L154.839 1373.98 Z" fill="#000000" fill-rule="evenodd" fill-opacity="1" /><path clip-path="url(#clip290)" d="M184.19 1372.04 L189.075 1372.04 L189.075 1377.92 L184.19 1377.92 L184.19 1372.04 Z" fill="#000000" fill-rule="evenodd" fill-opacity="1" /><path clip-path="url(#clip290)" d="M209.26 1346.44 Q205.649 1346.44 203.82 1350 Q202.014 1353.54 202.014 1360.67 Q202.014 1367.78 203.82 1371.34 Q205.649 1374.88 209.26 1374.88 Q212.894 1374.88 214.699 1371.34 Q216.528 1367.78 216.528 1360.67 Q216.528 1353.54 214.699 1350 Q212.894 1346.44 209.26 1346.44 M209.26 1342.73 Q215.07 1342.73 218.125 1347.34 Q221.204 1351.92 221.204 1360.67 Q221.204 1369.4 218.125 1374.01 Q215.07 1378.59 209.26 1378.59 Q203.449 1378.59 200.371 1374.01 Q197.315 1369.4 197.315 1360.67 Q197.315 1351.92 200.371 1347.34 Q203.449 1342.73 209.26 1342.73 Z" fill="#000000" fill-rule="evenodd" fill-opacity="1" /><path clip-path="url(#clip290)" d="M115.256 1048.38 L144.931 1048.38 L144.931 1052.31 L115.256 1052.31 L115.256 1048.38 Z" fill="#000000" fill-rule="evenodd" fill-opacity="1" /><path clip-path="url(#clip290)" d="M165.024 1033.72 Q161.413 1033.72 159.584 1037.29 Q157.778 1040.83 157.778 1047.96 Q157.778 1055.07 159.584 1058.63 Q161.413 1062.17 165.024 1062.17 Q168.658 1062.17 170.464 1058.63 Q172.292 1055.07 172.292 1047.96 Q172.292 1040.83 170.464 1037.29 Q168.658 1033.72 165.024 1033.72 M165.024 1030.02 Q170.834 1030.02 173.889 1034.63 Q176.968 1039.21 176.968 1047.96 Q176.968 1056.69 173.889 1061.29 Q170.834 1065.88 165.024 1065.88 Q159.214 1065.88 156.135 1061.29 Q153.079 1056.69 153.079 1047.96 Q153.079 1039.21 156.135 1034.63 Q159.214 1030.02 165.024 1030.02 Z" fill="#000000" fill-rule="evenodd" fill-opacity="1" /><path clip-path="url(#clip290)" d="M185.186 1059.33 L190.07 1059.33 L190.07 1065.2 L185.186 1065.2 L185.186 1059.33 Z" fill="#000000" fill-rule="evenodd" fill-opacity="1" /><path clip-path="url(#clip290)" d="M200.301 1030.64 L218.658 1030.64 L218.658 1034.58 L204.584 1034.58 L204.584 1043.05 Q205.602 1042.7 206.621 1042.54 Q207.639 1042.36 208.658 1042.36 Q214.445 1042.36 217.824 1045.53 Q221.204 1048.7 221.204 1054.12 Q221.204 1059.7 217.732 1062.8 Q214.26 1065.88 207.94 1065.88 Q205.764 1065.88 203.496 1065.51 Q201.25 1065.14 198.843 1064.39 L198.843 1059.7 Q200.926 1060.83 203.149 1061.39 Q205.371 1061.94 207.848 1061.94 Q211.852 1061.94 214.19 1059.83 Q216.528 1057.73 216.528 1054.12 Q216.528 1050.51 214.19 1048.4 Q211.852 1046.29 207.848 1046.29 Q205.973 1046.29 204.098 1046.71 Q202.246 1047.13 200.301 1048.01 L200.301 1030.64 Z" fill="#000000" fill-rule="evenodd" fill-opacity="1" /><path clip-path="url(#clip290)" d="M164.028 721.011 Q160.417 721.011 158.589 724.575 Q156.783 728.117 156.783 735.247 Q156.783 742.353 158.589 745.918 Q160.417 749.46 164.028 749.46 Q167.663 749.46 169.468 745.918 Q171.297 742.353 171.297 735.247 Q171.297 728.117 169.468 724.575 Q167.663 721.011 164.028 721.011 M164.028 717.307 Q169.839 717.307 172.894 721.913 Q175.973 726.497 175.973 735.247 Q175.973 743.973 172.894 748.58 Q169.839 753.163 164.028 753.163 Q158.218 753.163 155.14 748.58 Q152.084 743.973 152.084 735.247 Q152.084 726.497 155.14 721.913 Q158.218 717.307 164.028 717.307 Z" fill="#000000" fill-rule="evenodd" fill-opacity="1" /><path clip-path="url(#clip290)" d="M184.19 746.612 L189.075 746.612 L189.075 752.492 L184.19 752.492 L184.19 746.612 Z" fill="#000000" fill-rule="evenodd" fill-opacity="1" /><path clip-path="url(#clip290)" d="M209.26 721.011 Q205.649 721.011 203.82 724.575 Q202.014 728.117 202.014 735.247 Q202.014 742.353 203.82 745.918 Q205.649 749.46 209.26 749.46 Q212.894 749.46 214.699 745.918 Q216.528 742.353 216.528 735.247 Q216.528 728.117 214.699 724.575 Q212.894 721.011 209.26 721.011 M209.26 717.307 Q215.07 717.307 218.125 721.913 Q221.204 726.497 221.204 735.247 Q221.204 743.973 218.125 748.58 Q215.07 753.163 209.26 753.163 Q203.449 753.163 200.371 748.58 Q197.315 743.973 197.315 735.247 Q197.315 726.497 200.371 721.913 Q203.449 717.307 209.26 717.307 Z" fill="#000000" fill-rule="evenodd" fill-opacity="1" /><path clip-path="url(#clip290)" d="M165.024 408.298 Q161.413 408.298 159.584 411.863 Q157.778 415.404 157.778 422.534 Q157.778 429.64 159.584 433.205 Q161.413 436.747 165.024 436.747 Q168.658 436.747 170.464 433.205 Q172.292 429.64 172.292 422.534 Q172.292 415.404 170.464 411.863 Q168.658 408.298 165.024 408.298 M165.024 404.594 Q170.834 404.594 173.889 409.201 Q176.968 413.784 176.968 422.534 Q176.968 431.261 173.889 435.867 Q170.834 440.451 165.024 440.451 Q159.214 440.451 156.135 435.867 Q153.079 431.261 153.079 422.534 Q153.079 413.784 156.135 409.201 Q159.214 404.594 165.024 404.594 Z" fill="#000000" fill-rule="evenodd" fill-opacity="1" /><path clip-path="url(#clip290)" d="M185.186 433.9 L190.07 433.9 L190.07 439.779 L185.186 439.779 L185.186 433.9 Z" fill="#000000" fill-rule="evenodd" fill-opacity="1" /><path clip-path="url(#clip290)" d="M200.301 405.219 L218.658 405.219 L218.658 409.154 L204.584 409.154 L204.584 417.627 Q205.602 417.279 206.621 417.117 Q207.639 416.932 208.658 416.932 Q214.445 416.932 217.824 420.103 Q221.204 423.275 221.204 428.691 Q221.204 434.27 217.732 437.372 Q214.26 440.451 207.94 440.451 Q205.764 440.451 203.496 440.08 Q201.25 439.71 198.843 438.969 L198.843 434.27 Q200.926 435.404 203.149 435.96 Q205.371 436.515 207.848 436.515 Q211.852 436.515 214.19 434.409 Q216.528 432.302 216.528 428.691 Q216.528 425.08 214.19 422.974 Q211.852 420.867 207.848 420.867 Q205.973 420.867 204.098 421.284 Q202.246 421.701 200.301 422.58 L200.301 405.219 Z" fill="#000000" fill-rule="evenodd" fill-opacity="1" /><path clip-path="url(#clip290)" d="M154.839 123.131 L162.477 123.131 L162.477 96.7659 L154.167 98.4325 L154.167 94.1733 L162.431 92.5066 L167.107 92.5066 L167.107 123.131 L174.746 123.131 L174.746 127.067 L154.839 127.067 L154.839 123.131 Z" fill="#000000" fill-rule="evenodd" fill-opacity="1" /><path clip-path="url(#clip290)" d="M184.19 121.187 L189.075 121.187 L189.075 127.067 L184.19 127.067 L184.19 121.187 Z" fill="#000000" fill-rule="evenodd" fill-opacity="1" /><path clip-path="url(#clip290)" d="M209.26 95.5853 Q205.649 95.5853 203.82 99.1501 Q202.014 102.692 202.014 109.821 Q202.014 116.928 203.82 120.493 Q205.649 124.034 209.26 124.034 Q212.894 124.034 214.699 120.493 Q216.528 116.928 216.528 109.821 Q216.528 102.692 214.699 99.1501 Q212.894 95.5853 209.26 95.5853 M209.26 91.8816 Q215.07 91.8816 218.125 96.4881 Q221.204 101.071 221.204 109.821 Q221.204 118.548 218.125 123.155 Q215.07 127.738 209.26 127.738 Q203.449 127.738 200.371 123.155 Q197.315 118.548 197.315 109.821 Q197.315 101.071 200.371 96.4881 Q203.449 91.8816 209.26 91.8816 Z" fill="#000000" fill-rule="evenodd" fill-opacity="1" /><path clip-path="url(#clip290)" d="M20.1444 1109.2 L26.9239 1109.2 Q23.9002 1112.44 22.4043 1116.14 Q20.9083 1119.8 20.9083 1123.93 Q20.9083 1132.08 25.9054 1136.41 Q30.8707 1140.74 40.2919 1140.74 Q49.6813 1140.74 54.6784 1136.41 Q59.6436 1132.08 59.6436 1123.93 Q59.6436 1119.8 58.1477 1116.14 Q56.6518 1112.44 53.6281 1109.2 L60.3439 1109.2 Q62.6355 1112.57 63.7814 1116.36 Q64.9272 1120.11 64.9272 1124.32 Q64.9272 1135.11 58.3387 1141.31 Q51.7183 1147.52 40.2919 1147.52 Q28.8336 1147.52 22.2451 1141.31 Q15.6248 1135.11 15.6248 1124.32 Q15.6248 1120.05 16.7706 1116.29 Q17.8846 1112.51 20.1444 1109.2 Z" fill="#000000" fill-rule="evenodd" fill-opacity="1" /><path clip-path="url(#clip290)" d="M32.4621 1085.71 Q32.4621 1090.42 36.1542 1093.16 Q39.8145 1095.89 46.212 1095.89 Q52.6095 1095.89 56.3017 1093.19 Q59.9619 1090.45 59.9619 1085.71 Q59.9619 1081.03 56.2698 1078.29 Q52.5777 1075.55 46.212 1075.55 Q39.8781 1075.55 36.186 1078.29 Q32.4621 1081.03 32.4621 1085.71 M27.4968 1085.71 Q27.4968 1078.07 32.4621 1073.71 Q37.4273 1069.35 46.212 1069.35 Q54.9649 1069.35 59.9619 1073.71 Q64.9272 1078.07 64.9272 1085.71 Q64.9272 1093.38 59.9619 1097.74 Q54.9649 1102.07 46.212 1102.07 Q37.4273 1102.07 32.4621 1097.74 Q27.4968 1093.38 27.4968 1085.71 Z" fill="#000000" fill-rule="evenodd" fill-opacity="1" /><path clip-path="url(#clip290)" d="M33.8307 1038.98 Q33.2578 1039.97 33.0032 1041.15 Q32.7167 1042.29 32.7167 1043.69 Q32.7167 1048.66 35.9632 1051.33 Q39.1779 1053.97 45.2253 1053.97 L64.0042 1053.97 L64.0042 1059.86 L28.3562 1059.86 L28.3562 1053.97 L33.8944 1053.97 Q30.6479 1052.13 29.0883 1049.17 Q27.4968 1046.21 27.4968 1041.98 Q27.4968 1041.37 27.5923 1040.64 Q27.656 1039.91 27.8151 1039.02 L33.8307 1038.98 Z" fill="#000000" fill-rule="evenodd" fill-opacity="1" /><path clip-path="url(#clip290)" d="M33.8307 1013.33 Q33.2578 1014.32 33.0032 1015.49 Q32.7167 1016.64 32.7167 1018.04 Q32.7167 1023.01 35.9632 1025.68 Q39.1779 1028.32 45.2253 1028.32 L64.0042 1028.32 L64.0042 1034.21 L28.3562 1034.21 L28.3562 1028.32 L33.8944 1028.32 Q30.6479 1026.47 29.0883 1023.51 Q27.4968 1020.55 27.4968 1016.32 Q27.4968 1015.72 27.5923 1014.98 Q27.656 1014.25 27.8151 1013.36 L33.8307 1013.33 Z" fill="#000000" fill-rule="evenodd" fill-opacity="1" /><path clip-path="url(#clip290)" d="M44.7161 978.127 L47.5806 978.127 L47.5806 1005.05 Q53.6281 1004.67 56.8109 1001.43 Q59.9619 998.147 59.9619 992.323 Q59.9619 988.949 59.1344 985.798 Q58.3069 982.615 56.6518 979.496 L62.1899 979.496 Q63.5267 982.647 64.227 985.957 Q64.9272 989.267 64.9272 992.673 Q64.9272 1001.2 59.9619 1006.2 Q54.9967 1011.17 46.5303 1011.17 Q37.7774 1011.17 32.6531 1006.45 Q27.4968 1001.71 27.4968 993.691 Q27.4968 986.498 32.1438 982.329 Q36.7589 978.127 44.7161 978.127 M42.9973 983.984 Q38.1912 984.047 35.3266 986.689 Q32.4621 989.299 32.4621 993.628 Q32.4621 998.529 35.2312 1001.49 Q38.0002 1004.42 43.0292 1004.86 L42.9973 983.984 Z" fill="#000000" fill-rule="evenodd" fill-opacity="1" /><path clip-path="url(#clip290)" d="M14.479 968.515 L14.479 962.659 L64.0042 962.659 L64.0042 968.515 L14.479 968.515 Z" fill="#000000" fill-rule="evenodd" fill-opacity="1" /><path clip-path="url(#clip290)" d="M46.0847 934.204 Q46.0847 941.302 47.7079 944.039 Q49.3312 946.776 53.2461 946.776 Q56.3653 946.776 58.2114 944.739 Q60.0256 942.67 60.0256 939.137 Q60.0256 934.268 56.5881 931.339 Q53.1188 928.379 47.3897 928.379 L46.0847 928.379 L46.0847 934.204 M43.6657 922.523 L64.0042 922.523 L64.0042 928.379 L58.5933 928.379 Q61.8398 930.385 63.3994 933.376 Q64.9272 936.368 64.9272 940.697 Q64.9272 946.171 61.8716 949.418 Q58.7843 952.633 53.6281 952.633 Q47.6125 952.633 44.5569 948.622 Q41.5014 944.58 41.5014 936.591 L41.5014 928.379 L40.9285 928.379 Q36.8862 928.379 34.6901 931.053 Q32.4621 933.695 32.4621 938.501 Q32.4621 941.556 33.1941 944.453 Q33.9262 947.349 35.3903 950.023 L29.9795 950.023 Q28.7381 946.808 28.1334 943.784 Q27.4968 940.761 27.4968 937.896 Q27.4968 930.162 31.5072 926.342 Q35.5176 922.523 43.6657 922.523 Z" fill="#000000" fill-rule="evenodd" fill-opacity="1" /><path clip-path="url(#clip290)" d="M18.2347 904.667 L28.3562 904.667 L28.3562 892.604 L32.9077 892.604 L32.9077 904.667 L52.2594 904.667 Q56.6199 904.667 57.8613 903.489 Q59.1026 902.28 59.1026 898.62 L59.1026 892.604 L64.0042 892.604 L64.0042 898.62 Q64.0042 905.399 61.4897 907.977 Q58.9434 910.555 52.2594 910.555 L32.9077 910.555 L32.9077 914.852 L28.3562 914.852 L28.3562 910.555 L18.2347 910.555 L18.2347 904.667 Z" fill="#000000" fill-rule="evenodd" fill-opacity="1" /><path clip-path="url(#clip290)" d="M28.3562 884.902 L28.3562 879.045 L64.0042 879.045 L64.0042 884.902 L28.3562 884.902 M14.479 884.902 L14.479 879.045 L21.895 879.045 L21.895 884.902 L14.479 884.902 Z" fill="#000000" fill-rule="evenodd" fill-opacity="1" /><path clip-path="url(#clip290)" d="M32.4621 852.978 Q32.4621 857.688 36.1542 860.425 Q39.8145 863.163 46.212 863.163 Q52.6095 863.163 56.3017 860.457 Q59.9619 857.72 59.9619 852.978 Q59.9619 848.299 56.2698 845.561 Q52.5777 842.824 46.212 842.824 Q39.8781 842.824 36.186 845.561 Q32.4621 848.299 32.4621 852.978 M27.4968 852.978 Q27.4968 845.339 32.4621 840.978 Q37.4273 836.618 46.212 836.618 Q54.9649 836.618 59.9619 840.978 Q64.9272 845.339 64.9272 852.978 Q64.9272 860.648 59.9619 865.009 Q54.9649 869.337 46.212 869.337 Q37.4273 869.337 32.4621 865.009 Q27.4968 860.648 27.4968 852.978 Z" fill="#000000" fill-rule="evenodd" fill-opacity="1" /><path clip-path="url(#clip290)" d="M42.4881 797.278 L64.0042 797.278 L64.0042 803.134 L42.679 803.134 Q37.6183 803.134 35.1038 805.107 Q32.5894 807.081 32.5894 811.028 Q32.5894 815.77 35.6131 818.507 Q38.6368 821.244 43.8567 821.244 L64.0042 821.244 L64.0042 827.133 L28.3562 827.133 L28.3562 821.244 L33.8944 821.244 Q30.6797 819.144 29.0883 816.311 Q27.4968 813.447 27.4968 809.723 Q27.4968 803.58 31.3163 800.429 Q35.1038 797.278 42.4881 797.278 Z" fill="#000000" fill-rule="evenodd" fill-opacity="1" /><path clip-path="url(#clip290)" d="M29.7248 739.222 L35.1993 739.222 Q33.8307 741.705 33.1623 744.219 Q32.4621 746.702 32.4621 749.248 Q32.4621 754.946 36.0905 758.097 Q39.6872 761.248 46.212 761.248 Q52.7369 761.248 56.3653 758.097 Q59.9619 754.946 59.9619 749.248 Q59.9619 746.702 59.2935 744.219 Q58.5933 741.705 57.2247 739.222 L62.6355 739.222 Q63.7814 741.673 64.3543 744.315 Q64.9272 746.925 64.9272 749.885 Q64.9272 757.938 59.8664 762.68 Q54.8057 767.422 46.212 767.422 Q37.491 767.422 32.4939 762.648 Q27.4968 757.842 27.4968 749.503 Q27.4968 746.798 28.0697 744.219 Q28.6108 741.641 29.7248 739.222 Z" fill="#000000" fill-rule="evenodd" fill-opacity="1" /><path clip-path="url(#clip290)" d="M32.4621 715.224 Q32.4621 719.934 36.1542 722.672 Q39.8145 725.409 46.212 725.409 Q52.6095 725.409 56.3017 722.703 Q59.9619 719.966 59.9619 715.224 Q59.9619 710.545 56.2698 707.808 Q52.5777 705.07 46.212 705.07 Q39.8781 705.07 36.186 707.808 Q32.4621 710.545 32.4621 715.224 M27.4968 715.224 Q27.4968 707.585 32.4621 703.224 Q37.4273 698.864 46.212 698.864 Q54.9649 698.864 59.9619 703.224 Q64.9272 707.585 64.9272 715.224 Q64.9272 722.894 59.9619 727.255 Q54.9649 731.584 46.212 731.584 Q37.4273 731.584 32.4621 727.255 Q27.4968 722.894 27.4968 715.224 Z" fill="#000000" fill-rule="evenodd" fill-opacity="1" /><path clip-path="url(#clip290)" d="M44.7161 658.664 L47.5806 658.664 L47.5806 685.591 Q53.6281 685.209 56.8109 681.963 Q59.9619 678.684 59.9619 672.86 Q59.9619 669.486 59.1344 666.335 Q58.3069 663.152 56.6518 660.033 L62.1899 660.033 Q63.5267 663.184 64.227 666.494 Q64.9272 669.804 64.9272 673.21 Q64.9272 681.74 59.9619 686.737 Q54.9967 691.702 46.5303 691.702 Q37.7774 691.702 32.6531 686.992 Q27.4968 682.249 27.4968 674.228 Q27.4968 667.035 32.1438 662.866 Q36.7589 658.664 44.7161 658.664 M42.9973 664.521 Q38.1912 664.584 35.3266 667.226 Q32.4621 669.836 32.4621 674.165 Q32.4621 679.066 35.2312 682.026 Q38.0002 684.955 43.0292 685.4 L42.9973 664.521 Z" fill="#000000" fill-rule="evenodd" fill-opacity="1" /><path clip-path="url(#clip290)" d="M14.479 631.005 L19.3487 631.005 L19.3487 636.607 Q19.3487 639.758 20.6219 641 Q21.895 642.209 25.2052 642.209 L28.3562 642.209 L28.3562 632.565 L32.9077 632.565 L32.9077 642.209 L64.0042 642.209 L64.0042 648.097 L32.9077 648.097 L32.9077 653.699 L28.3562 653.699 L28.3562 648.097 L25.8736 648.097 Q19.9216 648.097 17.2162 645.328 Q14.479 642.559 14.479 636.544 L14.479 631.005 Z" fill="#000000" fill-rule="evenodd" fill-opacity="1" /><path clip-path="url(#clip290)" d="M14.479 608.057 L19.3487 608.057 L19.3487 613.659 Q19.3487 616.81 20.6219 618.051 Q21.895 619.261 25.2052 619.261 L28.3562 619.261 L28.3562 609.617 L32.9077 609.617 L32.9077 619.261 L64.0042 619.261 L64.0042 625.149 L32.9077 625.149 L32.9077 630.751 L28.3562 630.751 L28.3562 625.149 L25.8736 625.149 Q19.9216 625.149 17.2162 622.38 Q14.479 619.611 14.479 613.595 L14.479 608.057 Z" fill="#000000" fill-rule="evenodd" fill-opacity="1" /><path clip-path="url(#clip290)" d="M28.3562 603.155 L28.3562 597.299 L64.0042 597.299 L64.0042 603.155 L28.3562 603.155 M14.479 603.155 L14.479 597.299 L21.895 597.299 L21.895 603.155 L14.479 603.155 Z" fill="#000000" fill-rule="evenodd" fill-opacity="1" /><path clip-path="url(#clip290)" d="M29.7248 559.391 L35.1993 559.391 Q33.8307 561.874 33.1623 564.388 Q32.4621 566.871 32.4621 569.417 Q32.4621 575.114 36.0905 578.265 Q39.6872 581.416 46.212 581.416 Q52.7369 581.416 56.3653 578.265 Q59.9619 575.114 59.9619 569.417 Q59.9619 566.871 59.2935 564.388 Q58.5933 561.874 57.2247 559.391 L62.6355 559.391 Q63.7814 561.842 64.3543 564.484 Q64.9272 567.094 64.9272 570.054 Q64.9272 578.106 59.8664 582.849 Q54.8057 587.591 46.212 587.591 Q37.491 587.591 32.4939 582.817 Q27.4968 578.011 27.4968 569.672 Q27.4968 566.966 28.0697 564.388 Q28.6108 561.81 29.7248 559.391 Z" fill="#000000" fill-rule="evenodd" fill-opacity="1" /><path clip-path="url(#clip290)" d="M28.3562 549.206 L28.3562 543.35 L64.0042 543.35 L64.0042 549.206 L28.3562 549.206 M14.479 549.206 L14.479 543.35 L21.895 543.35 L21.895 549.206 L14.479 549.206 Z" fill="#000000" fill-rule="evenodd" fill-opacity="1" /><path clip-path="url(#clip290)" d="M44.7161 500.604 L47.5806 500.604 L47.5806 527.531 Q53.6281 527.149 56.8109 523.902 Q59.9619 520.624 59.9619 514.799 Q59.9619 511.426 59.1344 508.275 Q58.3069 505.092 56.6518 501.972 L62.1899 501.972 Q63.5267 505.124 64.227 508.434 Q64.9272 511.744 64.9272 515.149 Q64.9272 523.68 59.9619 528.677 Q54.9967 533.642 46.5303 533.642 Q37.7774 533.642 32.6531 528.931 Q27.4968 524.189 27.4968 516.168 Q27.4968 508.975 32.1438 504.805 Q36.7589 500.604 44.7161 500.604 M42.9973 506.46 Q38.1912 506.524 35.3266 509.166 Q32.4621 511.776 32.4621 516.104 Q32.4621 521.006 35.2312 523.966 Q38.0002 526.894 43.0292 527.34 L42.9973 506.46 Z" fill="#000000" fill-rule="evenodd" fill-opacity="1" /><path clip-path="url(#clip290)" d="M42.4881 461.359 L64.0042 461.359 L64.0042 467.216 L42.679 467.216 Q37.6183 467.216 35.1038 469.189 Q32.5894 471.162 32.5894 475.109 Q32.5894 479.852 35.6131 482.589 Q38.6368 485.326 43.8567 485.326 L64.0042 485.326 L64.0042 491.214 L28.3562 491.214 L28.3562 485.326 L33.8944 485.326 Q30.6797 483.225 29.0883 480.393 Q27.4968 477.528 27.4968 473.804 Q27.4968 467.661 31.3163 464.51 Q35.1038 461.359 42.4881 461.359 Z" fill="#000000" fill-rule="evenodd" fill-opacity="1" /><path clip-path="url(#clip290)" d="M18.2347 443.885 L28.3562 443.885 L28.3562 431.822 L32.9077 431.822 L32.9077 443.885 L52.2594 443.885 Q56.6199 443.885 57.8613 442.708 Q59.1026 441.498 59.1026 437.838 L59.1026 431.822 L64.0042 431.822 L64.0042 437.838 Q64.0042 444.617 61.4897 447.196 Q58.9434 449.774 52.2594 449.774 L32.9077 449.774 L32.9077 454.071 L28.3562 454.071 L28.3562 449.774 L18.2347 449.774 L18.2347 443.885 Z" fill="#000000" fill-rule="evenodd" fill-opacity="1" /><path clip-path="url(#clip290)" d="M14.5426 389.331 Q21.8632 393.596 29.0246 395.665 Q36.186 397.734 43.5384 397.734 Q50.8908 397.734 58.1159 395.665 Q65.3091 393.564 72.5979 389.331 L72.5979 394.424 Q65.1182 399.198 57.8931 401.585 Q50.668 403.941 43.5384 403.941 Q36.4406 403.941 29.2474 401.585 Q22.0542 399.23 14.5426 394.424 L14.5426 389.331 Z" fill="#000000" fill-rule="evenodd" fill-opacity="1" /><path clip-path="url(#clip290)" d="M34.7219 375.327 Q31.4754 373.385 28.6108 368.579 Q27.4968 366.701 27.4968 360.908 Q27.4968 354.415 32.6531 350.373 Q37.8093 346.299 46.212 346.299 Q54.6147 346.299 59.771 350.373 Q64.9272 354.415 64.9272 360.908 Q64.9272 364.823 63.3994 367.656 Q61.8398 370.457 58.657 372.303 L77.5631 372.303 L77.5631 378.191 L46.5303 378.191 Q39.1779 378.191 34.7219 375.327 M46.212 352.378 Q39.7508 352.378 36.0905 355.052 Q32.3984 357.694 32.3984 362.341 Q32.3984 366.988 36.0905 369.661 Q39.7508 372.303 46.212 372.303 Q52.6732 372.303 56.3653 369.661 Q60.0256 366.988 60.0256 362.341 Q60.0256 357.694 56.3653 355.052 Q52.6732 352.378 46.212 352.378 Z" fill="#000000" fill-rule="evenodd" fill-opacity="1" /><path clip-path="url(#clip290)" d="M14.5426 337.514 L14.5426 332.422 Q22.0542 327.648 29.2474 325.292 Q36.4406 322.905 43.5384 322.905 Q50.668 322.905 57.8931 325.292 Q65.1182 327.648 72.5979 332.422 L72.5979 337.514 Q65.3091 333.281 58.1159 331.212 Q50.8908 329.112 43.5384 329.112 Q36.186 329.112 29.0246 331.212 Q21.8632 333.281 14.5426 337.514 Z" fill="#000000" fill-rule="evenodd" fill-opacity="1" /><polyline clip-path="url(#clip292)" style="stroke:#808080; stroke-linecap:butt; stroke-linejoin:round; stroke-width:4; stroke-opacity:1; fill:none" stroke-dasharray="16, 10" points="
  -1838.35,735.212 4448.31,735.212 
  "/>
<circle clip-path="url(#clip292)" cx="316.512" cy="109.797" r="14" fill="#e26f46" fill-rule="evenodd" fill-opacity="1" stroke="#000000" stroke-opacity="1" stroke-width="3.2"/>
<circle clip-path="url(#clip292)" cx="420.561" cy="109.818" r="14" fill="#e26f46" fill-rule="evenodd" fill-opacity="1" stroke="#000000" stroke-opacity="1" stroke-width="3.2"/>
<circle clip-path="url(#clip292)" cx="524.611" cy="109.933" r="14" fill="#e26f46" fill-rule="evenodd" fill-opacity="1" stroke="#000000" stroke-opacity="1" stroke-width="3.2"/>
<circle clip-path="url(#clip292)" cx="628.66" cy="110.346" r="14" fill="#e26f46" fill-rule="evenodd" fill-opacity="1" stroke="#000000" stroke-opacity="1" stroke-width="3.2"/>
<circle clip-path="url(#clip292)" cx="732.709" cy="112.01" r="14" fill="#e26f46" fill-rule="evenodd" fill-opacity="1" stroke="#000000" stroke-opacity="1" stroke-width="3.2"/>
<circle clip-path="url(#clip292)" cx="836.758" cy="120.016" r="14" fill="#e26f46" fill-rule="evenodd" fill-opacity="1" stroke="#000000" stroke-opacity="1" stroke-width="3.2"/>
<circle clip-path="url(#clip292)" cx="940.808" cy="151.491" r="14" fill="#e26f46" fill-rule="evenodd" fill-opacity="1" stroke="#000000" stroke-opacity="1" stroke-width="3.2"/>
<circle clip-path="url(#clip292)" cx="1044.86" cy="271.694" r="14" fill="#e26f46" fill-rule="evenodd" fill-opacity="1" stroke="#000000" stroke-opacity="1" stroke-width="3.2"/>
<circle clip-path="url(#clip292)" cx="1148.91" cy="439.301" r="14" fill="#e26f46" fill-rule="evenodd" fill-opacity="1" stroke="#000000" stroke-opacity="1" stroke-width="3.2"/>
<circle clip-path="url(#clip292)" cx="1252.96" cy="583.125" r="14" fill="#e26f46" fill-rule="evenodd" fill-opacity="1" stroke="#000000" stroke-opacity="1" stroke-width="3.2"/>
<circle clip-path="url(#clip292)" cx="1357" cy="666.411" r="14" fill="#e26f46" fill-rule="evenodd" fill-opacity="1" stroke="#000000" stroke-opacity="1" stroke-width="3.2"/>
<circle clip-path="url(#clip292)" cx="1461.05" cy="723.198" r="14" fill="#e26f46" fill-rule="evenodd" fill-opacity="1" stroke="#000000" stroke-opacity="1" stroke-width="3.2"/>
<circle clip-path="url(#clip292)" cx="1565.1" cy="749.376" r="14" fill="#e26f46" fill-rule="evenodd" fill-opacity="1" stroke="#000000" stroke-opacity="1" stroke-width="3.2"/>
<circle clip-path="url(#clip292)" cx="1669.15" cy="758.325" r="14" fill="#e26f46" fill-rule="evenodd" fill-opacity="1" stroke="#000000" stroke-opacity="1" stroke-width="3.2"/>
<circle clip-path="url(#clip292)" cx="1773.2" cy="743.341" r="14" fill="#e26f46" fill-rule="evenodd" fill-opacity="1" stroke="#000000" stroke-opacity="1" stroke-width="3.2"/>
<circle clip-path="url(#clip292)" cx="1877.25" cy="770.417" r="14" fill="#e26f46" fill-rule="evenodd" fill-opacity="1" stroke="#000000" stroke-opacity="1" stroke-width="3.2"/>
<circle clip-path="url(#clip292)" cx="1981.3" cy="788.787" r="14" fill="#e26f46" fill-rule="evenodd" fill-opacity="1" stroke="#000000" stroke-opacity="1" stroke-width="3.2"/>
<circle clip-path="url(#clip292)" cx="2085.35" cy="783.962" r="14" fill="#e26f46" fill-rule="evenodd" fill-opacity="1" stroke="#000000" stroke-opacity="1" stroke-width="3.2"/>
<circle clip-path="url(#clip292)" cx="2189.4" cy="768.394" r="14" fill="#e26f46" fill-rule="evenodd" fill-opacity="1" stroke="#000000" stroke-opacity="1" stroke-width="3.2"/>
<circle clip-path="url(#clip292)" cx="2293.45" cy="746.083" r="14" fill="#e26f46" fill-rule="evenodd" fill-opacity="1" stroke="#000000" stroke-opacity="1" stroke-width="3.2"/>
</svg>
