<?xml version="1.0" encoding="utf-8"?>
<svg xmlns="http://www.w3.org/2000/svg" xmlns:xlink="http://www.w3.org/1999/xlink" width="600" height="400" viewBox="0 0 2400 1600">
<defs>
  <clipPath id="clip230">
    <rect x="0" y="0" width="2400" height="1600"/>
  </clipPath>
</defs>
<path clip-path="url(#clip230)" d="
M0 1600 L2400 1600 L2400 0 L0 0  Z
  " fill="#ffffff" fill-rule="evenodd" fill-opacity="1"/>
<defs>
  <clipPath id="clip231">
    <rect x="480" y="0" width="1681" height="1600"/>
  </clipPath>
</defs>
<path clip-path="url(#clip230)" d="
M257.204 1423.18 L2352.76 1423.18 L2352.76 47.2441 L257.204 47.2441  Z
  " fill="#ffffff" fill-rule="evenodd" fill-opacity="1"/>
<defs>
  <clipPath id="clip232">
    <rect x="257" y="47" width="2097" height="1377"/>
  </clipPath>
</defs>
<polyline clip-path="url(#clip232)" style="stroke:#000000; stroke-linecap:butt; stroke-linejoin:round; stroke-width:2; stroke-opacity:0.1; fill:none" points="
  296.543,1423.18 296.543,47.2441 
  "/>
<polyline clip-path="url(#clip232)" style="stroke:#000000; stroke-linecap:butt; stroke-linejoin:round; stroke-width:2; stroke-opacity:0.1; fill:none" points="
  795.769,1423.18 795.769,47.2441 
  "/>
<polyline clip-path="url(#clip232)" style="stroke:#000000; stroke-linecap:butt; stroke-linejoin:round; stroke-width:2; stroke-opacity:0.1; fill:none" points="
  1295,1423.18 1295,47.2441 
  "/>
<polyline clip-path="url(#clip232)" style="stroke:#000000; stroke-linecap:butt; stroke-linejoin:round; stroke-width:2; stroke-opacity:0.1; fill:none" points="
  1794.22,1423.18 1794.22,47.2441 
  "/>
<polyline clip-path="url(#clip232)" style="stroke:#000000; stroke-linecap:butt; stroke-linejoin:round; stroke-width:2; stroke-opacity:0.1; fill:none" points="
  2293.45,1423.18 2293.45,47.2441 
  "/>
<polyline clip-path="url(#clip230)" style="stroke:#000000; stroke-linecap:butt; stroke-linejoin:round; stroke-width:4; stroke-opacity:1; fill:none" points="
  257.204,1423.18 2352.76,1423.18 
  "/>
<polyline clip-path="url(#clip230)" style="stroke:#000000; stroke-linecap:butt; stroke-linejoin:round; stroke-width:4; stroke-opacity:1; fill:none" points="
  296.543,1423.18 296.543,1404.28 
  "/>
<polyline clip-path="url(#clip230)" style="stroke:#000000; stroke-linecap:butt; stroke-linejoin:round; stroke-width:4; stroke-opacity:1; fill:none" points="
  795.769,1423.18 795.769,1404.28 
  "/>
<polyline clip-path="url(#clip230)" style="stroke:#000000; stroke-linecap:butt; stroke-linejoin:round; stroke-width:4; stroke-opacity:1; fill:none" points="
  1295,1423.18 1295,1404.28 
  "/>
<polyline clip-path="url(#clip230)" style="stroke:#000000; stroke-linecap:butt; stroke-linejoin:round; stroke-width:4; stroke-opacity:1; fill:none" points="
  1794.22,1423.18 1794.22,1404.28 
  "/>
<polyline clip-path="url(#clip230)" style="stroke:#000000; stroke-linecap:butt; stroke-linejoin:round; stroke-width:4; stroke-opacity:1; fill:none" points="
  2293.45,1423.18 2293.45,1404.28 
  "/>
<path clip-path="url(#clip230)" d="M296.543 1454.1 Q292.932 1454.1 291.103 1457.66 Q289.298 1461.2 289.298 1468.33 Q289.298 1475.44 291.103 1479.01 Q292.932 1482.55 296.543 1482.55 Q300.177 1482.55 301.983 1479.01 Q303.812 1475.44 303.812 1468.33 Q303.812 1461.2 301.983 1457.66 Q300.177 1454.1 296.543 1454.1 M296.543 1450.39 Q302.353 1450.39 305.409 1455 Q308.487 1459.58 308.487 1468.33 Q308.487 1477.06 305.409 1481.67 Q302.353 1486.25 296.543 1486.25 Q290.733 1486.25 287.654 1481.67 Q284.599 1477.06 284.599 1468.33 Q284.599 1459.58 287.654 1455 Q290.733 1450.39 296.543 1450.39 Z" fill="#000000" fill-rule="evenodd" fill-opacity="1" /><path clip-path="url(#clip230)" d="M775.04 1481.64 L791.36 1481.64 L791.36 1485.58 L769.415 1485.58 L769.415 1481.64 Q772.077 1478.89 776.661 1474.26 Q781.267 1469.61 782.448 1468.27 Q784.693 1465.74 785.573 1464.01 Q786.475 1462.25 786.475 1460.56 Q786.475 1457.8 784.531 1456.07 Q782.61 1454.33 779.508 1454.33 Q777.309 1454.33 774.855 1455.09 Q772.424 1455.86 769.647 1457.41 L769.647 1452.69 Q772.471 1451.55 774.924 1450.97 Q777.378 1450.39 779.415 1450.39 Q784.786 1450.39 787.98 1453.08 Q791.174 1455.77 791.174 1460.26 Q791.174 1462.39 790.364 1464.31 Q789.577 1466.2 787.471 1468.8 Q786.892 1469.47 783.79 1472.69 Q780.688 1475.88 775.04 1481.64 Z" fill="#000000" fill-rule="evenodd" fill-opacity="1" /><path clip-path="url(#clip230)" d="M801.221 1451.02 L819.577 1451.02 L819.577 1454.96 L805.503 1454.96 L805.503 1463.43 Q806.522 1463.08 807.54 1462.92 Q808.559 1462.73 809.577 1462.73 Q815.364 1462.73 818.744 1465.9 Q822.123 1469.08 822.123 1474.49 Q822.123 1480.07 818.651 1483.17 Q815.179 1486.25 808.859 1486.25 Q806.684 1486.25 804.415 1485.88 Q802.17 1485.51 799.762 1484.77 L799.762 1480.07 Q801.846 1481.2 804.068 1481.76 Q806.29 1482.32 808.767 1482.32 Q812.771 1482.32 815.109 1480.21 Q817.447 1478.1 817.447 1474.49 Q817.447 1470.88 815.109 1468.77 Q812.771 1466.67 808.767 1466.67 Q806.892 1466.67 805.017 1467.08 Q803.165 1467.5 801.221 1468.38 L801.221 1451.02 Z" fill="#000000" fill-rule="evenodd" fill-opacity="1" /><path clip-path="url(#clip230)" d="M1269.69 1451.02 L1288.05 1451.02 L1288.05 1454.96 L1273.98 1454.96 L1273.98 1463.43 Q1275 1463.08 1276.01 1462.92 Q1277.03 1462.73 1278.05 1462.73 Q1283.84 1462.73 1287.22 1465.9 Q1290.6 1469.08 1290.6 1474.49 Q1290.6 1480.07 1287.13 1483.17 Q1283.65 1486.25 1277.33 1486.25 Q1275.16 1486.25 1272.89 1485.88 Q1270.64 1485.51 1268.24 1484.77 L1268.24 1480.07 Q1270.32 1481.2 1272.54 1481.76 Q1274.76 1482.32 1277.24 1482.32 Q1281.25 1482.32 1283.58 1480.21 Q1285.92 1478.1 1285.92 1474.49 Q1285.92 1470.88 1283.58 1468.77 Q1281.25 1466.67 1277.24 1466.67 Q1275.37 1466.67 1273.49 1467.08 Q1271.64 1467.5 1269.69 1468.38 L1269.69 1451.02 Z" fill="#000000" fill-rule="evenodd" fill-opacity="1" /><path clip-path="url(#clip230)" d="M1309.81 1454.1 Q1306.2 1454.1 1304.37 1457.66 Q1302.56 1461.2 1302.56 1468.33 Q1302.56 1475.44 1304.37 1479.01 Q1306.2 1482.55 1309.81 1482.55 Q1313.44 1482.55 1315.25 1479.01 Q1317.08 1475.44 1317.08 1468.33 Q1317.08 1461.2 1315.25 1457.66 Q1313.44 1454.1 1309.81 1454.1 M1309.81 1450.39 Q1315.62 1450.39 1318.68 1455 Q1321.75 1459.58 1321.75 1468.33 Q1321.75 1477.06 1318.68 1481.67 Q1315.62 1486.25 1309.81 1486.25 Q1304 1486.25 1300.92 1481.67 Q1297.87 1477.06 1297.87 1468.33 Q1297.87 1459.58 1300.92 1455 Q1304 1450.39 1309.81 1450.39 Z" fill="#000000" fill-rule="evenodd" fill-opacity="1" /><path clip-path="url(#clip230)" d="M1768.08 1451.02 L1790.3 1451.02 L1790.3 1453.01 L1777.75 1485.58 L1772.87 1485.58 L1784.67 1454.96 L1768.08 1454.96 L1768.08 1451.02 Z" fill="#000000" fill-rule="evenodd" fill-opacity="1" /><path clip-path="url(#clip230)" d="M1799.46 1451.02 L1817.82 1451.02 L1817.82 1454.96 L1803.75 1454.96 L1803.75 1463.43 Q1804.77 1463.08 1805.78 1462.92 Q1806.8 1462.73 1807.82 1462.73 Q1813.61 1462.73 1816.99 1465.9 Q1820.37 1469.08 1820.37 1474.49 Q1820.37 1480.07 1816.9 1483.17 Q1813.42 1486.25 1807.1 1486.25 Q1804.93 1486.25 1802.66 1485.88 Q1800.41 1485.51 1798.01 1484.77 L1798.01 1480.07 Q1800.09 1481.2 1802.31 1481.76 Q1804.53 1482.32 1807.01 1482.32 Q1811.02 1482.32 1813.35 1480.21 Q1815.69 1478.1 1815.69 1474.49 Q1815.69 1470.88 1813.35 1468.77 Q1811.02 1466.67 1807.01 1466.67 Q1805.14 1466.67 1803.26 1467.08 Q1801.41 1467.5 1799.46 1468.38 L1799.46 1451.02 Z" fill="#000000" fill-rule="evenodd" fill-opacity="1" /><path clip-path="url(#clip230)" d="M2253.05 1481.64 L2260.69 1481.64 L2260.69 1455.28 L2252.38 1456.95 L2252.38 1452.69 L2260.65 1451.02 L2265.32 1451.02 L2265.32 1481.64 L2272.96 1481.64 L2272.96 1485.58 L2253.05 1485.58 L2253.05 1481.64 Z" fill="#000000" fill-rule="evenodd" fill-opacity="1" /><path clip-path="url(#clip230)" d="M2292.41 1454.1 Q2288.8 1454.1 2286.97 1457.66 Q2285.16 1461.2 2285.16 1468.33 Q2285.16 1475.44 2286.97 1479.01 Q2288.8 1482.55 2292.41 1482.55 Q2296.04 1482.55 2297.85 1479.01 Q2299.67 1475.44 2299.67 1468.33 Q2299.67 1461.2 2297.85 1457.66 Q2296.04 1454.1 2292.41 1454.1 M2292.41 1450.39 Q2298.22 1450.39 2301.27 1455 Q2304.35 1459.58 2304.35 1468.33 Q2304.35 1477.06 2301.27 1481.67 Q2298.22 1486.25 2292.41 1486.25 Q2286.6 1486.25 2283.52 1481.67 Q2280.46 1477.06 2280.46 1468.33 Q2280.46 1459.58 2283.52 1455 Q2286.6 1450.39 2292.41 1450.39 Z" fill="#000000" fill-rule="evenodd" fill-opacity="1" /><path clip-path="url(#clip230)" d="M2322.57 1454.1 Q2318.96 1454.1 2317.13 1457.66 Q2315.32 1461.2 2315.32 1468.33 Q2315.32 1475.44 2317.13 1479.01 Q2318.96 1482.55 2322.57 1482.55 Q2326.2 1482.55 2328.01 1479.01 Q2329.84 1475.44 2329.84 1468.33 Q2329.84 1461.2 2328.01 1457.66 Q2326.2 1454.1 2322.57 1454.1 M2322.57 1450.39 Q2328.38 1450.39 2331.43 1455 Q2334.51 1459.58 2334.51 1468.33 Q2334.51 1477.06 2331.43 1481.67 Q2328.38 1486.25 2322.57 1486.25 Q2316.76 1486.25 2313.68 1481.67 Q2310.62 1477.06 2310.62 1468.33 Q2310.62 1459.58 2313.68 1455 Q2316.76 1450.39 2322.57 1450.39 Z" fill="#000000" fill-rule="evenodd" fill-opacity="1" /><path clip-path="url(#clip230)" d="M1146.04 1520.52 L1186.24 1520.52 L1186.24 1525.93 L1169.37 1525.93 L1169.37 1568.04 L1162.91 1568.04 L1162.91 1525.93 L1146.04 1525.93 L1146.04 1520.52 Z" fill="#000000" fill-rule="evenodd" fill-opacity="1" /><path clip-path="url(#clip230)" d="M1190.19 1532.4 L1196.05 1532.4 L1196.05 1568.04 L1190.19 1568.04 L1190.19 1532.4 M1190.19 1518.52 L1196.05 1518.52 L1196.05 1525.93 L1190.19 1525.93 L1190.19 1518.52 Z" fill="#000000" fill-rule="evenodd" fill-opacity="1" /><path clip-path="url(#clip230)" d="M1236.06 1539.24 Q1238.25 1535.29 1241.31 1533.41 Q1244.36 1531.54 1248.5 1531.54 Q1254.07 1531.54 1257.09 1535.45 Q1260.12 1539.33 1260.12 1546.53 L1260.12 1568.04 L1254.23 1568.04 L1254.23 1546.72 Q1254.23 1541.59 1252.42 1539.11 Q1250.6 1536.63 1246.88 1536.63 Q1242.33 1536.63 1239.68 1539.65 Q1237.04 1542.68 1237.04 1547.9 L1237.04 1568.04 L1231.15 1568.04 L1231.15 1546.72 Q1231.15 1541.56 1229.34 1539.11 Q1227.53 1536.63 1223.74 1536.63 Q1219.25 1536.63 1216.61 1539.68 Q1213.97 1542.71 1213.97 1547.9 L1213.97 1568.04 L1208.08 1568.04 L1208.08 1532.4 L1213.97 1532.4 L1213.97 1537.93 Q1215.97 1534.66 1218.77 1533.1 Q1221.57 1531.54 1225.42 1531.54 Q1229.31 1531.54 1232.01 1533.51 Q1234.75 1535.48 1236.06 1539.24 Z" fill="#000000" fill-rule="evenodd" fill-opacity="1" /><path clip-path="url(#clip230)" d="M1302.29 1548.76 L1302.29 1551.62 L1275.36 1551.62 Q1275.75 1557.67 1278.99 1560.85 Q1282.27 1564 1288.09 1564 Q1291.47 1564 1294.62 1563.17 Q1297.8 1562.35 1300.92 1560.69 L1300.92 1566.23 Q1297.77 1567.57 1294.46 1568.27 Q1291.15 1568.97 1287.74 1568.97 Q1279.21 1568.97 1274.22 1564 Q1269.25 1559.04 1269.25 1550.57 Q1269.25 1541.82 1273.96 1536.69 Q1278.71 1531.54 1286.73 1531.54 Q1293.92 1531.54 1298.09 1536.18 Q1302.29 1540.8 1302.29 1548.76 M1296.43 1547.04 Q1296.37 1542.23 1293.73 1539.37 Q1291.12 1536.5 1286.79 1536.5 Q1281.89 1536.5 1278.93 1539.27 Q1276 1542.04 1275.55 1547.07 L1296.43 1547.04 Z" fill="#000000" fill-rule="evenodd" fill-opacity="1" /><path clip-path="url(#clip230)" d="M1355.35 1533.45 L1355.35 1538.98 Q1352.87 1537.71 1350.19 1537.07 Q1347.52 1536.44 1344.65 1536.44 Q1340.29 1536.44 1338.1 1537.77 Q1335.93 1539.11 1335.93 1541.79 Q1335.93 1543.82 1337.49 1545 Q1339.05 1546.15 1343.76 1547.2 L1345.77 1547.64 Q1352.01 1548.98 1354.62 1551.43 Q1357.26 1553.85 1357.26 1558.21 Q1357.26 1563.17 1353.31 1566.07 Q1349.4 1568.97 1342.52 1568.97 Q1339.66 1568.97 1336.54 1568.39 Q1333.45 1567.85 1330.01 1566.74 L1330.01 1560.69 Q1333.26 1562.38 1336.41 1563.24 Q1339.56 1564.07 1342.65 1564.07 Q1346.79 1564.07 1349.01 1562.66 Q1351.24 1561.23 1351.24 1558.65 Q1351.24 1556.27 1349.62 1554.99 Q1348.03 1553.72 1342.59 1552.54 L1340.55 1552.07 Q1335.11 1550.92 1332.69 1548.56 Q1330.27 1546.18 1330.27 1542.04 Q1330.27 1537.01 1333.83 1534.27 Q1337.4 1531.54 1343.95 1531.54 Q1347.2 1531.54 1350.07 1532.01 Q1352.93 1532.49 1355.35 1533.45 Z" fill="#000000" fill-rule="evenodd" fill-opacity="1" /><path clip-path="url(#clip230)" d="M1372.38 1522.27 L1372.38 1532.4 L1384.44 1532.4 L1384.44 1536.95 L1372.38 1536.95 L1372.38 1556.3 Q1372.38 1560.66 1373.55 1561.9 Q1374.76 1563.14 1378.42 1563.14 L1384.44 1563.14 L1384.44 1568.04 L1378.42 1568.04 Q1371.64 1568.04 1369.07 1565.53 Q1366.49 1562.98 1366.49 1556.3 L1366.49 1536.95 L1362.19 1536.95 L1362.19 1532.4 L1366.49 1532.4 L1366.49 1522.27 L1372.38 1522.27 Z" fill="#000000" fill-rule="evenodd" fill-opacity="1" /><path clip-path="url(#clip230)" d="M1422.63 1548.76 L1422.63 1551.62 L1395.71 1551.62 Q1396.09 1557.67 1399.34 1560.85 Q1402.61 1564 1408.44 1564 Q1411.81 1564 1414.96 1563.17 Q1418.15 1562.35 1421.27 1560.69 L1421.27 1566.23 Q1418.11 1567.57 1414.8 1568.27 Q1411.49 1568.97 1408.09 1568.97 Q1399.56 1568.97 1394.56 1564 Q1389.6 1559.04 1389.6 1550.57 Q1389.6 1541.82 1394.31 1536.69 Q1399.05 1531.54 1407.07 1531.54 Q1414.26 1531.54 1418.43 1536.18 Q1422.63 1540.8 1422.63 1548.76 M1416.78 1547.04 Q1416.71 1542.23 1414.07 1539.37 Q1411.46 1536.5 1407.13 1536.5 Q1402.23 1536.5 1399.27 1539.27 Q1396.34 1542.04 1395.9 1547.07 L1416.78 1547.04 Z" fill="#000000" fill-rule="evenodd" fill-opacity="1" /><path clip-path="url(#clip230)" d="M1437.91 1562.7 L1437.91 1581.6 L1432.02 1581.6 L1432.02 1532.4 L1437.91 1532.4 L1437.91 1537.81 Q1439.76 1534.62 1442.56 1533.1 Q1445.39 1531.54 1449.31 1531.54 Q1455.8 1531.54 1459.84 1536.69 Q1463.92 1541.85 1463.92 1550.25 Q1463.92 1558.65 1459.84 1563.81 Q1455.8 1568.97 1449.31 1568.97 Q1445.39 1568.97 1442.56 1567.44 Q1439.76 1565.88 1437.91 1562.7 M1457.84 1550.25 Q1457.84 1543.79 1455.16 1540.13 Q1452.52 1536.44 1447.87 1536.44 Q1443.23 1536.44 1440.55 1540.13 Q1437.91 1543.79 1437.91 1550.25 Q1437.91 1556.71 1440.55 1560.4 Q1443.23 1564.07 1447.87 1564.07 Q1452.52 1564.07 1455.16 1560.4 Q1457.84 1556.71 1457.84 1550.25 Z" fill="#000000" fill-rule="evenodd" fill-opacity="1" /><polyline clip-path="url(#clip232)" style="stroke:#000000; stroke-linecap:butt; stroke-linejoin:round; stroke-width:2; stroke-opacity:0.1; fill:none" points="
  257.204,1360.64 2352.76,1360.64 
  "/>
<polyline clip-path="url(#clip232)" style="stroke:#000000; stroke-linecap:butt; stroke-linejoin:round; stroke-width:2; stroke-opacity:0.1; fill:none" points="
  257.204,1047.92 2352.76,1047.92 
  "/>
<polyline clip-path="url(#clip232)" style="stroke:#000000; stroke-linecap:butt; stroke-linejoin:round; stroke-width:2; stroke-opacity:0.1; fill:none" points="
  257.204,735.212 2352.76,735.212 
  "/>
<polyline clip-path="url(#clip232)" style="stroke:#000000; stroke-linecap:butt; stroke-linejoin:round; stroke-width:2; stroke-opacity:0.1; fill:none" points="
  257.204,422.499 2352.76,422.499 
  "/>
<polyline clip-path="url(#clip232)" style="stroke:#000000; stroke-linecap:butt; stroke-linejoin:round; stroke-width:2; stroke-opacity:0.1; fill:none" points="
  257.204,109.787 2352.76,109.787 
  "/>
<polyline clip-path="url(#clip230)" style="stroke:#000000; stroke-linecap:butt; stroke-linejoin:round; stroke-width:4; stroke-opacity:1; fill:none" points="
  257.204,1423.18 257.204,47.2441 
  "/>
<polyline clip-path="url(#clip230)" style="stroke:#000000; stroke-linecap:butt; stroke-linejoin:round; stroke-width:4; stroke-opacity:1; fill:none" points="
  257.204,1360.64 276.102,1360.64 
  "/>
<polyline clip-path="url(#clip230)" style="stroke:#000000; stroke-linecap:butt; stroke-linejoin:round; stroke-width:4; stroke-opacity:1; fill:none" points="
  257.204,1047.92 276.102,1047.92 
  "/>
<polyline clip-path="url(#clip230)" style="stroke:#000000; stroke-linecap:butt; stroke-linejoin:round; stroke-width:4; stroke-opacity:1; fill:none" points="
  257.204,735.212 276.102,735.212 
  "/>
<polyline clip-path="url(#clip230)" style="stroke:#000000; stroke-linecap:butt; stroke-linejoin:round; stroke-width:4; stroke-opacity:1; fill:none" points="
  257.204,422.499 276.102,422.499 
  "/>
<polyline clip-path="url(#clip230)" style="stroke:#000000; stroke-linecap:butt; stroke-linejoin:round; stroke-width:4; stroke-opacity:1; fill:none" points="
  257.204,109.787 276.102,109.787 
  "/>
<path clip-path="url(#clip230)" d="M114.26 1361.09 L143.936 1361.09 L143.936 1365.02 L114.26 1365.02 L114.26 1361.09 Z" fill="#000000" fill-rule="evenodd" fill-opacity="1" /><path clip-path="url(#clip230)" d="M154.839 1373.98 L162.477 1373.98 L162.477 1347.62 L154.167 1349.28 L154.167 1345.02 L162.431 1343.36 L167.107 1343.36 L167.107 1373.98 L174.746 1373.98 L174.746 1377.92 L154.839 1377.92 L154.839 1373.98 Z" fill="#000000" fill-rule="evenodd" fill-opacity="1" /><path clip-path="url(#clip230)" d="M184.19 1372.04 L189.075 1372.04 L189.075 1377.92 L184.19 1377.92 L184.19 1372.04 Z" fill="#000000" fill-rule="evenodd" fill-opacity="1" /><path clip-path="url(#clip230)" d="M209.26 1346.44 Q205.649 1346.44 203.82 1350 Q202.014 1353.54 202.014 1360.67 Q202.014 1367.78 203.82 1371.34 Q205.649 1374.88 209.26 1374.88 Q212.894 1374.88 214.699 1371.34 Q216.528 1367.78 216.528 1360.67 Q216.528 1353.54 214.699 1350 Q212.894 1346.44 209.26 1346.44 M209.26 1342.73 Q215.07 1342.73 218.125 1347.34 Q221.204 1351.92 221.204 1360.67 Q221.204 1369.4 218.125 1374.01 Q215.07 1378.59 209.26 1378.59 Q203.449 1378.59 200.371 1374.01 Q197.315 1369.4 197.315 1360.67 Q197.315 1351.92 200.371 1347.34 Q203.449 1342.73 209.26 1342.73 Z" fill="#000000" fill-rule="evenodd" fill-opacity="1" /><path clip-path="url(#clip230)" d="M115.256 1048.38 L144.931 1048.38 L144.931 1052.31 L115.256 1052.31 L115.256 1048.38 Z" fill="#000000" fill-rule="evenodd" fill-opacity="1" /><path clip-path="url(#clip230)" d="M165.024 1033.72 Q161.413 1033.72 159.584 1037.29 Q157.778 1040.83 157.778 1047.96 Q157.778 1055.07 159.584 1058.63 Q161.413 1062.17 165.024 1062.17 Q168.658 1062.17 170.464 1058.63 Q172.292 1055.07 172.292 1047.96 Q172.292 1040.83 170.464 1037.29 Q168.658 1033.72 165.024 1033.72 M165.024 1030.02 Q170.834 1030.02 173.889 1034.63 Q176.968 1039.21 176.968 1047.96 Q176.968 1056.69 173.889 1061.29 Q170.834 1065.88 165.024 1065.88 Q159.214 1065.88 156.135 1061.29 Q153.079 1056.69 153.079 1047.96 Q153.079 1039.21 156.135 1034.63 Q159.214 1030.02 165.024 1030.02 Z" fill="#000000" fill-rule="evenodd" fill-opacity="1" /><path clip-path="url(#clip230)" d="M185.186 1059.33 L190.07 1059.33 L190.07 1065.2 L185.186 1065.2 L185.186 1059.33 Z" fill="#000000" fill-rule="evenodd" fill-opacity="1" /><path clip-path="url(#clip230)" d="M200.301 1030.64 L218.658 1030.64 L218.658 1034.58 L204.584 1034.58 L204.584 1043.05 Q205.602 1042.7 206.621 1042.54 Q207.639 1042.36 208.658 1042.36 Q214.445 1042.36 217.824 1045.53 Q221.204 1048.7 221.204 1054.12 Q221.204 1059.7 217.732 1062.8 Q214.26 1065.88 207.94 1065.88 Q205.764 1065.88 203.496 1065.51 Q201.25 1065.14 198.843 1064.39 L198.843 1059.7 Q200.926 1060.83 203.149 1061.39 Q205.371 1061.94 207.848 1061.94 Q211.852 1061.94 214.19 1059.83 Q216.528 1057.73 216.528 1054.12 Q216.528 1050.51 214.19 1048.4 Q211.852 1046.29 207.848 1046.29 Q205.973 1046.29 204.098 1046.71 Q202.246 1047.13 200.301 1048.01 L200.301 1030.64 Z" fill="#000000" fill-rule="evenodd" fill-opacity="1" /><path clip-path="url(#clip230)" d="M164.028 721.011 Q160.417 721.011 158.589 724.575 Q156.783 728.117 156.783 735.247 Q156.783 742.353 158.589 745.918 Q160.417 749.46 164.028 749.46 Q167.663 749.46 169.468 745.918 Q171.297 742.353 171.297 735.247 Q171.297 728.117 169.468 724.575 Q167.663 721.011 164.028 721.011 M164.028 717.307 Q169.839 717.307 172.894 721.913 Q175.973 726.497 175.973 735.247 Q175.973 743.973 172.894 748.58 Q169.839 753.163 164.028 753.163 Q158.218 753.163 155.14 748.58 Q152.084 743.973 152.084 735.247 Q152.084 726.497 155.14 721.913 Q158.218 717.307 164.028 717.307 Z" fill="#000000" fill-rule="evenodd" fill-opacity="1" /><path clip-path="url(#clip230)" d="M184.19 746.612 L189.075 746.612 L189.075 752.492 L184.19 752.492 L184.19 746.612 Z" fill="#000000" fill-rule="evenodd" fill-opacity="1" /><path clip-path="url(#clip230)" d="M209.26 721.011 Q205.649 721.011 203.82 724.575 Q202.014 728.117 202.014 735.247 Q202.014 742.353 203.82 745.918 Q205.649 749.46 209.26 749.46 Q212.894 749.46 214.699 745.918 Q216.528 742.353 216.528 735.247 Q216.528 728.117 214.699 724.575 Q212.894 721.011 209.26 721.011 M209.26 717.307 Q215.07 717.307 218.125 721.913 Q221.204 726.497 221.204 735.247 Q221.204 743.973 218.125 748.58 Q215.07 753.163 209.26 753.163 Q203.449 753.163 200.371 748.58 Q197.315 743.973 197.315 735.247 Q197.315 726.497 200.371 721.913 Q203.449 717.307 209.26 717.307 Z" fill="#000000" fill-rule="evenodd" fill-opacity="1" /><path clip-path="url(#clip230)" d="M165.024 408.298 Q161.413 408.298 159.584 411.863 Q157.778 415.404 157.778 422.534 Q157.778 429.64 159.584 433.205 Q161.413 436.747 165.024 436.747 Q168.658 436.747 170.464 433.205 Q172.292 429.64 172.292 422.534 Q172.292 415.404 170.464 411.863 Q168.658 408.298 165.024 408.298 M165.024 404.594 Q170.834 404.594 173.889 409.201 Q176.968 413.784 176.968 422.534 Q176.968 431.261 173.889 435.867 Q170.834 440.451 165.024 440.451 Q159.214 440.451 156.135 435.867 Q153.079 431.261 153.079 422.534 Q153.079 413.784 156.135 409.201 Q159.214 404.594 165.024 404.594 Z" fill="#000000" fill-rule="evenodd" fill-opacity="1" /><path clip-path="url(#clip230)" d="M185.186 433.9 L190.07 433.9 L190.07 439.779 L185.186 439.779 L185.186 433.9 Z" fill="#000000" fill-rule="evenodd" fill-opacity="1" /><path clip-path="url(#clip230)" d="M200.301 405.219 L218.658 405.219 L218.658 409.154 L204.584 409.154 L204.584 417.627 Q205.602 417.279 206.621 417.117 Q207.639 416.932 208.658 416.932 Q214.445 416.932 217.824 420.103 Q221.204 423.275 221.204 428.691 Q221.204 434.27 217.732 437.372 Q214.26 440.451 207.94 440.451 Q205.764 440.451 203.496 440.08 Q201.25 439.71 198.843 438.969 L198.843 434.27 Q200.926 435.404 203.149 435.96 Q205.371 436.515 207.848 436.515 Q211.852 436.515 214.19 434.409 Q216.528 432.302 216.528 428.691 Q216.528 425.08 214.19 422.974 Q211.852 420.867 207.848 420.867 Q205.973 420.867 204.098 421.284 Q202.246 421.701 200.301 422.58 L200.301 405.219 Z" fill="#000000" fill-rule="evenodd" fill-opacity="1" /><path clip-path="url(#clip230)" d="M154.839 123.131 L162.477 123.131 L162.477 96.7659 L154.167 98.4325 L154.167 94.1733 L162.431 92.5066 L167.107 92.5066 L167.107 123.131 L174.746 123.131 L174.746 127.067 L154.839 127.067 L154.839 123.131 Z" fill="#000000" fill-rule="evenodd" fill-opacity="1" /><path clip-path="url(#clip230)" d="M184.19 121.187 L189.075 121.187 L189.075 127.067 L184.19 127.067 L184.19 121.187 Z" fill="#000000" fill-rule="evenodd" fill-opacity="1" /><path clip-path="url(#clip230)" d="M209.26 95.5853 Q205.649 95.5853 203.82 99.1501 Q202.014 102.692 202.014 109.821 Q202.014 116.928 203.82 120.493 Q205.649 124.034 209.26 124.034 Q212.894 124.034 214.699 120.493 Q216.528 116.928 216.528 109.821 Q216.528 102.692 214.699 99.1501 Q212.894 95.5853 209.26 95.5853 M209.26 91.8816 Q215.07 91.8816 218.125 96.4881 Q221.204 101.071 221.204 109.821 Q221.204 118.548 218.125 123.155 Q215.07 127.738 209.26 127.738 Q203.449 127.738 200.371 123.155 Q197.315 118.548 197.315 109.821 Q197.315 101.071 200.371 96.4881 Q203.449 91.8816 209.26 91.8816 Z" fill="#000000" fill-rule="evenodd" fill-opacity="1" /><path clip-path="url(#clip230)" d="M64.0042 804.582 L16.4842 822.725 L16.4842 816.009 L56.4926 800.954 L16.4842 785.867 L16.4842 779.183 L64.0042 797.294 L64.0042 804.582 Z" fill="#000000" fill-rule="evenodd" fill-opacity="1" /><path clip-path="url(#clip230)" d="M46.0847 761.359 Q46.0847 768.457 47.7079 771.194 Q49.3312 773.931 53.2461 773.931 Q56.3653 773.931 58.2114 771.894 Q60.0256 769.825 60.0256 766.293 Q60.0256 761.423 56.5881 758.495 Q53.1188 755.534 47.3897 755.534 L46.0847 755.534 L46.0847 761.359 M43.6657 749.678 L64.0042 749.678 L64.0042 755.534 L58.5933 755.534 Q61.8398 757.54 63.3994 760.532 Q64.9272 763.523 64.9272 767.852 Q64.9272 773.327 61.8716 776.573 Q58.7843 779.788 53.6281 779.788 Q47.6125 779.788 44.5569 775.777 Q41.5014 771.735 41.5014 763.746 L41.5014 755.534 L40.9285 755.534 Q36.8862 755.534 34.6901 758.208 Q32.4621 760.85 32.4621 765.656 Q32.4621 768.711 33.1941 771.608 Q33.9262 774.504 35.3903 777.178 L29.9795 777.178 Q28.7381 773.963 28.1334 770.939 Q27.4968 767.916 27.4968 765.051 Q27.4968 757.317 31.5072 753.497 Q35.5176 749.678 43.6657 749.678 Z" fill="#000000" fill-rule="evenodd" fill-opacity="1" /><path clip-path="url(#clip230)" d="M14.479 737.615 L14.479 731.759 L64.0042 731.759 L64.0042 737.615 L14.479 737.615 Z" fill="#000000" fill-rule="evenodd" fill-opacity="1" /><path clip-path="url(#clip230)" d="M49.9359 720.109 L28.3562 720.109 L28.3562 714.253 L49.7131 714.253 Q54.7739 714.253 57.3202 712.28 Q59.8346 710.306 59.8346 706.359 Q59.8346 701.617 56.8109 698.88 Q53.7872 696.111 48.5673 696.111 L28.3562 696.111 L28.3562 690.254 L64.0042 690.254 L64.0042 696.111 L58.5296 696.111 Q61.7762 698.243 63.3676 701.076 Q64.9272 703.877 64.9272 707.601 Q64.9272 713.744 61.1078 716.926 Q57.2883 720.109 49.9359 720.109 M27.4968 705.373 L27.4968 705.373 Z" fill="#000000" fill-rule="evenodd" fill-opacity="1" /><path clip-path="url(#clip230)" d="M44.7161 647.699 L47.5806 647.699 L47.5806 674.626 Q53.6281 674.244 56.8109 670.998 Q59.9619 667.72 59.9619 661.895 Q59.9619 658.521 59.1344 655.37 Q58.3069 652.187 56.6518 649.068 L62.1899 649.068 Q63.5267 652.219 64.227 655.529 Q64.9272 658.839 64.9272 662.245 Q64.9272 670.775 59.9619 675.772 Q54.9967 680.737 46.5303 680.737 Q37.7774 680.737 32.6531 676.027 Q27.4968 671.284 27.4968 663.264 Q27.4968 656.07 32.1438 651.901 Q36.7589 647.699 44.7161 647.699 M42.9973 653.556 Q38.1912 653.62 35.3266 656.261 Q32.4621 658.871 32.4621 663.2 Q32.4621 668.102 35.2312 671.062 Q38.0002 673.99 43.0292 674.435 L42.9973 653.556 Z" fill="#000000" fill-rule="evenodd" fill-opacity="1" /><polyline clip-path="url(#clip232)" style="stroke:#009af9; stroke-linecap:butt; stroke-linejoin:round; stroke-width:4; stroke-opacity:1; fill:none" points="
  316.512,568.11 336.481,1066.07 356.45,543.409 376.419,651.678 396.388,900.61 416.357,435.669 436.326,1300.36 456.295,695.964 476.264,657.501 496.234,581.344 
  516.203,430.554 536.172,1331.16 556.141,716.018 576.11,697.207 596.079,659.963 616.048,586.218 636.017,440.204 655.986,1273.06 675.955,678.184 695.924,622.296 
  715.893,511.639 735.862,842.96 755.831,521.871 775.8,1157.63 795.769,603.023 815.738,473.478 835.707,1072.72 855.676,547.737 875.645,625.621 895.614,952.202 
  915.584,469.263 935.553,1098.1 955.522,564.263 975.491,526.121 995.46,1149.21 1015.43,597.544 1035.4,462.629 1055.37,1138.04 1075.34,590.269 1095.3,448.226 
  1115.27,1224.76 1135.24,646.738 1155.21,560.034 1175.18,551.586 1195.15,1098.79 1215.12,564.713 1235.09,523.411 1255.06,1154.58 1275.03,601.038 1295,469.548 
  1314.96,1096.39 1334.93,563.147 1354.9,532.84 1374.87,1135.91 1394.84,588.881 1414.81,445.477 1434.78,1241.31 1454.75,657.513 1474.72,581.367 1494.69,430.6 
  1514.65,1330.89 1534.62,715.839 1554.59,696.854 1574.56,659.263 1594.53,584.834 1614.5,437.463 1634.47,1289.56 1654.44,688.931 1674.41,643.576 1694.38,553.773 
  1714.35,589.283 1734.31,1024.15 1754.28,516.112 1774.25,816.032 1794.22,575.188 1814.19,1052.06 1834.16,534.284 1854.13,706.621 1874.1,791.822 1894.07,623.124 
  1914.04,957.147 1934,472.483 1953.97,1078.71 1973.94,551.641 1993.91,602.119 2013.88,998.736 2033.85,499.563 2053.82,915.669 2073.79,445.475 2093.76,1241.32 
  2113.73,657.521 2133.7,581.384 2153.66,430.633 2173.63,1330.68 2193.6,715.707 2213.57,696.593 2233.54,658.746 2253.51,583.809 2273.48,435.434 2293.45,1301.78 
  
  "/>
</svg>
