<?xml version="1.0" encoding="utf-8"?>
<svg xmlns="http://www.w3.org/2000/svg" xmlns:xlink="http://www.w3.org/1999/xlink" width="600" height="400" viewBox="0 0 2400 1600">
<defs>
  <clipPath id="clip7400">
    <rect x="0" y="0" width="2000" height="2000"/>
  </clipPath>
</defs>
<defs>
  <clipPath id="clip7401">
    <rect x="0" y="0" width="2400" height="1600"/>
  </clipPath>
</defs>
<polygon clip-path="url(#clip7401)" points="
0,1600 2400,1600 2400,0 0,0 
  " fill="#ffffff" fill-rule="evenodd" fill-opacity="1"/>
<defs>
  <clipPath id="clip7402">
    <rect x="480" y="0" width="1681" height="1600"/>
  </clipPath>
</defs>
<polygon clip-path="url(#clip7401)" points="
252.496,1440.48 2321.26,1440.48 2321.26,47.2441 252.496,47.2441 
  " fill="#ffffff" fill-rule="evenodd" fill-opacity="1"/>
<defs>
  <clipPath id="clip7403">
    <rect x="252" y="47" width="2070" height="1394"/>
  </clipPath>
</defs>
<polyline clip-path="url(#clip7403)" style="stroke:#000000; stroke-width:2; stroke-opacity:0.1; fill:none" points="
  291.53,1440.48 291.53,47.2441 
  "/>
<polyline clip-path="url(#clip7403)" style="stroke:#000000; stroke-width:2; stroke-opacity:0.1; fill:none" points="
  779.445,1440.48 779.445,47.2441 
  "/>
<polyline clip-path="url(#clip7403)" style="stroke:#000000; stroke-width:2; stroke-opacity:0.1; fill:none" points="
  1267.36,1440.48 1267.36,47.2441 
  "/>
<polyline clip-path="url(#clip7403)" style="stroke:#000000; stroke-width:2; stroke-opacity:0.1; fill:none" points="
  1755.28,1440.48 1755.28,47.2441 
  "/>
<polyline clip-path="url(#clip7403)" style="stroke:#000000; stroke-width:2; stroke-opacity:0.1; fill:none" points="
  2243.19,1440.48 2243.19,47.2441 
  "/>
<polyline clip-path="url(#clip7403)" style="stroke:#000000; stroke-width:2; stroke-opacity:0.1; fill:none" points="
  252.496,1402.89 2321.26,1402.89 
  "/>
<polyline clip-path="url(#clip7403)" style="stroke:#000000; stroke-width:2; stroke-opacity:0.1; fill:none" points="
  252.496,1073.4 2321.26,1073.4 
  "/>
<polyline clip-path="url(#clip7403)" style="stroke:#000000; stroke-width:2; stroke-opacity:0.1; fill:none" points="
  252.496,743.905 2321.26,743.905 
  "/>
<polyline clip-path="url(#clip7403)" style="stroke:#000000; stroke-width:2; stroke-opacity:0.1; fill:none" points="
  252.496,414.411 2321.26,414.411 
  "/>
<polyline clip-path="url(#clip7403)" style="stroke:#000000; stroke-width:2; stroke-opacity:0.1; fill:none" points="
  252.496,84.9171 2321.26,84.9171 
  "/>
<polyline clip-path="url(#clip7401)" style="stroke:#000000; stroke-width:4; stroke-opacity:1; fill:none" points="
  252.496,1440.48 2321.26,1440.48 
  "/>
<polyline clip-path="url(#clip7401)" style="stroke:#000000; stroke-width:4; stroke-opacity:1; fill:none" points="
  252.496,1440.48 252.496,47.2441 
  "/>
<polyline clip-path="url(#clip7401)" style="stroke:#000000; stroke-width:4; stroke-opacity:1; fill:none" points="
  291.53,1440.48 291.53,1419.58 
  "/>
<polyline clip-path="url(#clip7401)" style="stroke:#000000; stroke-width:4; stroke-opacity:1; fill:none" points="
  779.445,1440.48 779.445,1419.58 
  "/>
<polyline clip-path="url(#clip7401)" style="stroke:#000000; stroke-width:4; stroke-opacity:1; fill:none" points="
  1267.36,1440.48 1267.36,1419.58 
  "/>
<polyline clip-path="url(#clip7401)" style="stroke:#000000; stroke-width:4; stroke-opacity:1; fill:none" points="
  1755.28,1440.48 1755.28,1419.58 
  "/>
<polyline clip-path="url(#clip7401)" style="stroke:#000000; stroke-width:4; stroke-opacity:1; fill:none" points="
  2243.19,1440.48 2243.19,1419.58 
  "/>
<polyline clip-path="url(#clip7401)" style="stroke:#000000; stroke-width:4; stroke-opacity:1; fill:none" points="
  252.496,1402.89 283.528,1402.89 
  "/>
<polyline clip-path="url(#clip7401)" style="stroke:#000000; stroke-width:4; stroke-opacity:1; fill:none" points="
  252.496,1073.4 283.528,1073.4 
  "/>
<polyline clip-path="url(#clip7401)" style="stroke:#000000; stroke-width:4; stroke-opacity:1; fill:none" points="
  252.496,743.905 283.528,743.905 
  "/>
<polyline clip-path="url(#clip7401)" style="stroke:#000000; stroke-width:4; stroke-opacity:1; fill:none" points="
  252.496,414.411 283.528,414.411 
  "/>
<polyline clip-path="url(#clip7401)" style="stroke:#000000; stroke-width:4; stroke-opacity:1; fill:none" points="
  252.496,84.9171 283.528,84.9171 
  "/>
<g clip-path="url(#clip7401)">
<text style="fill:#000000; fill-opacity:1; font-family:Arial,Helvetica Neue,Helvetica,sans-serif; font-size:48px; text-anchor:middle;" transform="rotate(0, 291.53, 1494.48)" x="291.53" y="1494.48">0</text>
</g>
<g clip-path="url(#clip7401)">
<text style="fill:#000000; fill-opacity:1; font-family:Arial,Helvetica Neue,Helvetica,sans-serif; font-size:48px; text-anchor:middle;" transform="rotate(0, 779.445, 1494.48)" x="779.445" y="1494.48">25</text>
</g>
<g clip-path="url(#clip7401)">
<text style="fill:#000000; fill-opacity:1; font-family:Arial,Helvetica Neue,Helvetica,sans-serif; font-size:48px; text-anchor:middle;" transform="rotate(0, 1267.36, 1494.48)" x="1267.36" y="1494.48">50</text>
</g>
<g clip-path="url(#clip7401)">
<text style="fill:#000000; fill-opacity:1; font-family:Arial,Helvetica Neue,Helvetica,sans-serif; font-size:48px; text-anchor:middle;" transform="rotate(0, 1755.28, 1494.48)" x="1755.28" y="1494.48">75</text>
</g>
<g clip-path="url(#clip7401)">
<text style="fill:#000000; fill-opacity:1; font-family:Arial,Helvetica Neue,Helvetica,sans-serif; font-size:48px; text-anchor:middle;" transform="rotate(0, 2243.19, 1494.48)" x="2243.19" y="1494.48">100</text>
</g>
<g clip-path="url(#clip7401)">
<text style="fill:#000000; fill-opacity:1; font-family:Arial,Helvetica Neue,Helvetica,sans-serif; font-size:48px; text-anchor:end;" transform="rotate(0, 228.496, 1420.39)" x="228.496" y="1420.39">-1.0</text>
</g>
<g clip-path="url(#clip7401)">
<text style="fill:#000000; fill-opacity:1; font-family:Arial,Helvetica Neue,Helvetica,sans-serif; font-size:48px; text-anchor:end;" transform="rotate(0, 228.496, 1090.9)" x="228.496" y="1090.9">-0.5</text>
</g>
<g clip-path="url(#clip7401)">
<text style="fill:#000000; fill-opacity:1; font-family:Arial,Helvetica Neue,Helvetica,sans-serif; font-size:48px; text-anchor:end;" transform="rotate(0, 228.496, 761.405)" x="228.496" y="761.405">0.0</text>
</g>
<g clip-path="url(#clip7401)">
<text style="fill:#000000; fill-opacity:1; font-family:Arial,Helvetica Neue,Helvetica,sans-serif; font-size:48px; text-anchor:end;" transform="rotate(0, 228.496, 431.911)" x="228.496" y="431.911">0.5</text>
</g>
<g clip-path="url(#clip7401)">
<text style="fill:#000000; fill-opacity:1; font-family:Arial,Helvetica Neue,Helvetica,sans-serif; font-size:48px; text-anchor:end;" transform="rotate(0, 228.496, 102.417)" x="228.496" y="102.417">1.0</text>
</g>
<g clip-path="url(#clip7401)">
<text style="fill:#000000; fill-opacity:1; font-family:Arial,Helvetica Neue,Helvetica,sans-serif; font-size:66px; text-anchor:middle;" transform="rotate(0, 1286.88, 1590.4)" x="1286.88" y="1590.4">Time step</text>
</g>
<g clip-path="url(#clip7401)">
<text style="fill:#000000; fill-opacity:1; font-family:Arial,Helvetica Neue,Helvetica,sans-serif; font-size:66px; text-anchor:middle;" transform="rotate(-90, 57.6, 743.863)" x="57.6" y="743.863">Value</text>
</g>
<polyline clip-path="url(#clip7403)" style="stroke:#000000; stroke-width:4; stroke-opacity:1; fill:none" points="
  311.046,684.068 330.563,573.097 350.079,337.542 369.596,504.074 389.113,187.704 408.629,780.073 428.146,868.383 447.663,1258.78 467.179,1282.83 486.696,1288.92 
  506.213,1140.82 525.729,929.101 545.246,1028.89 564.762,1019.77 584.279,863.679 603.796,1311.15 623.312,974.345 642.829,1272.39 662.346,866.156 681.862,1240.84 
  701.379,1188.54 720.896,815.913 740.412,998.118 759.929,778.402 779.445,866.417 798.962,1223.16 818.479,1175.51 837.995,964.785 857.512,1252.38 877.029,942.475 
  896.545,962.856 916.062,1104.32 935.579,1348.36 955.095,1197.27 974.612,1389.9 994.128,1204.45 1013.65,1089.2 1033.16,1209.02 1052.68,1188.95 1072.2,778.403 
  1091.71,861.539 1111.23,1225.13 1130.74,992.651 1150.26,749.558 1169.78,763.234 1189.29,805.891 1208.81,1004.4 1228.33,1378.34 1247.84,1174.65 1267.36,869.474 
  1286.88,1258.12 1306.39,1311.7 1325.91,794.929 1345.43,914.398 1364.94,927.403 1384.46,947.727 1403.98,1158.33 1423.49,808.428 1443.01,1022.48 1462.53,908.652 
  1482.04,751.635 1501.56,773.933 1521.08,853.642 1540.59,1259.15 1560.11,1133.14 1579.63,1221.7 1599.14,1243.68 1618.66,1155.6 1638.18,1376.03 1657.69,1324.98 
  1677.21,1299.4 1696.73,1380.03 1716.24,1228.12 1735.76,1325.76 1755.28,1340.49 1774.79,1107.43 1794.31,1339.73 1813.83,1251.45 1833.34,805.684 1852.86,1015.4 
  1872.38,955.514 1891.89,1161.49 1911.41,1236.4 1930.93,1127.55 1950.44,1051.15 1969.96,947.783 1989.48,1109.5 2008.99,792.96 2028.51,911.831 2048.03,860.156 
  2067.54,1178.92 2087.06,972.695 2106.58,1265.74 2126.09,783.867 2145.61,888.926 2165.13,1321.61 2184.64,976.989 2204.16,1168.15 2223.68,1297.28 2243.19,1022.1 
  2262.71,941.151 
  "/>
<polyline clip-path="url(#clip7403)" style="stroke:#ff0000; stroke-width:4; stroke-opacity:1; fill:none" points="
  311.046,96.6032 330.563,1212.84 350.079,1025.47 369.596,779.01 389.113,885.05 408.629,1332.82 428.146,771.457 447.663,842.356 467.179,1103.56 486.696,934.564 
  506.213,967.139 525.729,1066.5 545.246,1344.5 564.762,1310.86 584.279,1396.84 603.796,1327.05 623.312,1149.83 642.829,1301.17 662.346,1152.51 681.862,1132.37 
  701.379,922.903 720.896,890.193 740.412,1322.95 759.929,1023.51 779.445,832.393 798.962,1072.94 818.479,1231 837.995,848.237 857.512,1222.41 877.029,1307.1 
  896.545,1186.66 916.062,773.678 935.579,842.033 955.095,1155.25 974.612,1048.6 994.128,1191.52 1013.65,968.875 1033.16,1080.5 1052.68,1391.87 1072.2,824.131 
  1091.71,1038.47 1111.23,948.413 1130.74,969.998 1150.26,1263.76 1169.78,870.781 1189.29,1230.1 1208.81,744.352 1228.33,745.42 1247.84,748.601 1267.36,761.895 
  1286.88,806.197 1306.39,961.493 1325.91,1157.49 1345.43,1076.33 1364.94,1389.29 1384.46,959.542 1403.98,1238.81 1423.49,921.06 1443.01,967.838 1462.53,1203.94 
  1482.04,794.932 1501.56,957.584 1521.08,1100.85 1540.59,966.727 1560.11,1276.96 1579.63,1256.09 1599.14,913.791 1618.66,785.602 1638.18,912.895 1657.69,827.892 
  1677.21,1046.53 1696.73,1103.01 1716.24,1328.58 1735.76,1026.64 1755.28,799.315 1774.79,963.571 1794.31,1046.74 1813.83,1157.42 1833.34,1263.22 1852.86,1179.59 
  1872.38,983.903 1891.89,1346.69 1911.41,1022.43 1930.93,764.426 1950.44,820.907 1969.96,1017.16 1989.48,915.312 2008.99,834.052 2028.51,1075.09 2048.03,1283.66 
  2067.54,842.955 2087.06,1193.39 2106.58,1014.38 2126.09,1401.05 2145.61,966.292 2165.13,1075.67 2184.64,1330.05 2204.16,746.711 2223.68,753.456 2243.19,774.027 
  2262.71,862.019 
  "/>
<polyline clip-path="url(#clip7403)" style="stroke:#0000ff; stroke-width:4; stroke-opacity:1; fill:none" points="
  311.046,203.692 330.563,327.904 350.079,119.263 369.596,590.098 389.113,265.087 408.629,201.887 428.146,334.186 447.663,105.683 467.179,637.339 486.696,382.044 
  506.213,86.6754 525.729,719.341 545.246,648.436 564.762,416.924 584.279,732.553 603.796,698.771 623.312,573.85 642.829,238.766 662.346,265.838 681.862,204.234 
  701.379,336.003 720.896,121.554 740.412,596.912 759.929,280.499 779.445,183.238 798.962,386.38 818.479,732.275 837.995,697.859 857.512,571.747 877.029,226.986 
  896.545,294.991 916.062,154.162 935.579,470.06 955.095,100.431 974.612,675.93 994.128,498.793 1013.65,118.186 1033.16,592.239 1052.68,272.124 1072.2,204.27 
  1091.71,330.465 1111.23,116.23 1130.74,618.551 1150.26,336.674 1169.78,118.221 1189.29,614.018 1208.81,326.713 1228.33,114.898 1247.84,601.038 1267.36,294.095 
  1286.88,156.668 1306.39,476.726 1325.91,102.519 1345.43,661.501 1364.94,452.311 1384.46,739.363 1403.98,725.672 1423.49,672.928 1443.01,487.623 1462.53,107.363 
  1482.04,636.313 1501.56,380.292 1521.08,739.533 1540.59,726.434 1560.11,675.467 1579.63,496.864 1599.14,120.02 1618.66,605.468 1638.18,300.984 1657.69,143.2 
  1677.21,516.85 1696.73,139.185 1716.24,522.777 1735.76,155.719 1755.28,483.695 1774.79,104.131 1794.31,647.195 1813.83,412.742 1833.34,735.052 1852.86,708.827 
  1872.38,610.283 1891.89,311.87 1911.41,147.763 1930.93,491.984 1950.44,116.651 1969.96,598.688 1989.48,288.659 2008.99,162.23 2028.51,467.773 2048.03,91.5647 
  2067.54,696.682 2087.06,567.397 2106.58,218.462 2126.09,312.422 2145.61,134.546 2165.13,556.499 2184.64,207.196 2204.16,323.274 2223.68,127.363 2243.19,559.756 
  2262.71,212.766 
  "/>
<polygon clip-path="url(#clip7401)" points="
1985.19,372.684 2249.26,372.684 2249.26,130.764 1985.19,130.764 
  " fill="#ffffff" fill-rule="evenodd" fill-opacity="1"/>
<polyline clip-path="url(#clip7401)" style="stroke:#000000; stroke-width:4; stroke-opacity:1; fill:none" points="
  1985.19,372.684 2249.26,372.684 2249.26,130.764 1985.19,130.764 1985.19,372.684 
  "/>
<polyline clip-path="url(#clip7401)" style="stroke:#000000; stroke-width:4; stroke-opacity:1; fill:none" points="
  2009.19,191.244 2153.19,191.244 
  "/>
<g clip-path="url(#clip7401)">
<text style="fill:#000000; fill-opacity:1; font-family:Arial,Helvetica Neue,Helvetica,sans-serif; font-size:48px; text-anchor:start;" transform="rotate(0, 2177.19, 208.744)" x="2177.19" y="208.744">x</text>
</g>
<polyline clip-path="url(#clip7401)" style="stroke:#ff0000; stroke-width:4; stroke-opacity:1; fill:none" points="
  2009.19,251.724 2153.19,251.724 
  "/>
<g clip-path="url(#clip7401)">
<text style="fill:#000000; fill-opacity:1; font-family:Arial,Helvetica Neue,Helvetica,sans-serif; font-size:48px; text-anchor:start;" transform="rotate(0, 2177.19, 269.224)" x="2177.19" y="269.224">y</text>
</g>
<polyline clip-path="url(#clip7401)" style="stroke:#0000ff; stroke-width:4; stroke-opacity:1; fill:none" points="
  2009.19,312.204 2153.19,312.204 
  "/>
<g clip-path="url(#clip7401)">
<text style="fill:#000000; fill-opacity:1; font-family:Arial,Helvetica Neue,Helvetica,sans-serif; font-size:48px; text-anchor:start;" transform="rotate(0, 2177.19, 329.704)" x="2177.19" y="329.704">z</text>
</g>
</svg>
