<?xml version="1.0" encoding="utf-8"?>
<svg xmlns="http://www.w3.org/2000/svg" xmlns:xlink="http://www.w3.org/1999/xlink" width="600" height="400" viewBox="0 0 2400 1600">
<defs>
  <clipPath id="clip7500">
    <rect x="0" y="0" width="2000" height="2000"/>
  </clipPath>
</defs>
<defs>
  <clipPath id="clip7501">
    <rect x="0" y="0" width="2400" height="1600"/>
  </clipPath>
</defs>
<polygon clip-path="url(#clip7501)" points="
0,1600 2400,1600 2400,0 0,0 
  " fill="#ffffff" fill-rule="evenodd" fill-opacity="1"/>
<defs>
  <clipPath id="clip7502">
    <rect x="480" y="0" width="1681" height="1600"/>
  </clipPath>
</defs>
<polygon clip-path="url(#clip7501)" points="
184.243,1440.48 2321.26,1440.48 2321.26,47.2441 184.243,47.2441 
  " fill="#ffffff" fill-rule="evenodd" fill-opacity="1"/>
<defs>
  <clipPath id="clip7503">
    <rect x="184" y="47" width="2138" height="1394"/>
  </clipPath>
</defs>
<polyline clip-path="url(#clip7503)" style="stroke:#000000; stroke-width:2; stroke-opacity:0.1; fill:none" points="
  240.692,1440.48 240.692,47.2441 
  "/>
<polyline clip-path="url(#clip7503)" style="stroke:#000000; stroke-width:2; stroke-opacity:0.1; fill:none" points="
  643.903,1440.48 643.903,47.2441 
  "/>
<polyline clip-path="url(#clip7503)" style="stroke:#000000; stroke-width:2; stroke-opacity:0.1; fill:none" points="
  1047.11,1440.48 1047.11,47.2441 
  "/>
<polyline clip-path="url(#clip7503)" style="stroke:#000000; stroke-width:2; stroke-opacity:0.1; fill:none" points="
  1450.32,1440.48 1450.32,47.2441 
  "/>
<polyline clip-path="url(#clip7503)" style="stroke:#000000; stroke-width:2; stroke-opacity:0.1; fill:none" points="
  1853.54,1440.48 1853.54,47.2441 
  "/>
<polyline clip-path="url(#clip7503)" style="stroke:#000000; stroke-width:2; stroke-opacity:0.1; fill:none" points="
  2256.75,1440.48 2256.75,47.2441 
  "/>
<polyline clip-path="url(#clip7503)" style="stroke:#000000; stroke-width:2; stroke-opacity:0.1; fill:none" points="
  184.243,1393.31 2321.26,1393.31 
  "/>
<polyline clip-path="url(#clip7503)" style="stroke:#000000; stroke-width:2; stroke-opacity:0.1; fill:none" points="
  184.243,1027.93 2321.26,1027.93 
  "/>
<polyline clip-path="url(#clip7503)" style="stroke:#000000; stroke-width:2; stroke-opacity:0.1; fill:none" points="
  184.243,662.549 2321.26,662.549 
  "/>
<polyline clip-path="url(#clip7503)" style="stroke:#000000; stroke-width:2; stroke-opacity:0.1; fill:none" points="
  184.243,297.169 2321.26,297.169 
  "/>
<polyline clip-path="url(#clip7501)" style="stroke:#000000; stroke-width:4; stroke-opacity:1; fill:none" points="
  184.243,1440.48 2321.26,1440.48 
  "/>
<polyline clip-path="url(#clip7501)" style="stroke:#000000; stroke-width:4; stroke-opacity:1; fill:none" points="
  184.243,1440.48 184.243,47.2441 
  "/>
<polyline clip-path="url(#clip7501)" style="stroke:#000000; stroke-width:4; stroke-opacity:1; fill:none" points="
  240.692,1440.48 240.692,1419.58 
  "/>
<polyline clip-path="url(#clip7501)" style="stroke:#000000; stroke-width:4; stroke-opacity:1; fill:none" points="
  643.903,1440.48 643.903,1419.58 
  "/>
<polyline clip-path="url(#clip7501)" style="stroke:#000000; stroke-width:4; stroke-opacity:1; fill:none" points="
  1047.11,1440.48 1047.11,1419.58 
  "/>
<polyline clip-path="url(#clip7501)" style="stroke:#000000; stroke-width:4; stroke-opacity:1; fill:none" points="
  1450.32,1440.48 1450.32,1419.58 
  "/>
<polyline clip-path="url(#clip7501)" style="stroke:#000000; stroke-width:4; stroke-opacity:1; fill:none" points="
  1853.54,1440.48 1853.54,1419.58 
  "/>
<polyline clip-path="url(#clip7501)" style="stroke:#000000; stroke-width:4; stroke-opacity:1; fill:none" points="
  2256.75,1440.48 2256.75,1419.58 
  "/>
<polyline clip-path="url(#clip7501)" style="stroke:#000000; stroke-width:4; stroke-opacity:1; fill:none" points="
  184.243,1393.31 216.298,1393.31 
  "/>
<polyline clip-path="url(#clip7501)" style="stroke:#000000; stroke-width:4; stroke-opacity:1; fill:none" points="
  184.243,1027.93 216.298,1027.93 
  "/>
<polyline clip-path="url(#clip7501)" style="stroke:#000000; stroke-width:4; stroke-opacity:1; fill:none" points="
  184.243,662.549 216.298,662.549 
  "/>
<polyline clip-path="url(#clip7501)" style="stroke:#000000; stroke-width:4; stroke-opacity:1; fill:none" points="
  184.243,297.169 216.298,297.169 
  "/>
<g clip-path="url(#clip7501)">
<text style="fill:#000000; fill-opacity:1; font-family:Arial,Helvetica Neue,Helvetica,sans-serif; font-size:48px; text-anchor:middle;" transform="rotate(0, 240.692, 1494.48)" x="240.692" y="1494.48">0</text>
</g>
<g clip-path="url(#clip7501)">
<text style="fill:#000000; fill-opacity:1; font-family:Arial,Helvetica Neue,Helvetica,sans-serif; font-size:48px; text-anchor:middle;" transform="rotate(0, 643.903, 1494.48)" x="643.903" y="1494.48">100</text>
</g>
<g clip-path="url(#clip7501)">
<text style="fill:#000000; fill-opacity:1; font-family:Arial,Helvetica Neue,Helvetica,sans-serif; font-size:48px; text-anchor:middle;" transform="rotate(0, 1047.11, 1494.48)" x="1047.11" y="1494.48">200</text>
</g>
<g clip-path="url(#clip7501)">
<text style="fill:#000000; fill-opacity:1; font-family:Arial,Helvetica Neue,Helvetica,sans-serif; font-size:48px; text-anchor:middle;" transform="rotate(0, 1450.32, 1494.48)" x="1450.32" y="1494.48">300</text>
</g>
<g clip-path="url(#clip7501)">
<text style="fill:#000000; fill-opacity:1; font-family:Arial,Helvetica Neue,Helvetica,sans-serif; font-size:48px; text-anchor:middle;" transform="rotate(0, 1853.54, 1494.48)" x="1853.54" y="1494.48">400</text>
</g>
<g clip-path="url(#clip7501)">
<text style="fill:#000000; fill-opacity:1; font-family:Arial,Helvetica Neue,Helvetica,sans-serif; font-size:48px; text-anchor:middle;" transform="rotate(0, 2256.75, 1494.48)" x="2256.75" y="1494.48">500</text>
</g>
<g clip-path="url(#clip7501)">
<text style="fill:#000000; fill-opacity:1; font-family:Arial,Helvetica Neue,Helvetica,sans-serif; font-size:48px; text-anchor:end;" transform="rotate(0, 160.243, 1410.81)" x="160.243" y="1410.81">0</text>
</g>
<g clip-path="url(#clip7501)">
<text style="fill:#000000; fill-opacity:1; font-family:Arial,Helvetica Neue,Helvetica,sans-serif; font-size:48px; text-anchor:end;" transform="rotate(0, 160.243, 1045.43)" x="160.243" y="1045.43">1</text>
</g>
<g clip-path="url(#clip7501)">
<text style="fill:#000000; fill-opacity:1; font-family:Arial,Helvetica Neue,Helvetica,sans-serif; font-size:48px; text-anchor:end;" transform="rotate(0, 160.243, 680.049)" x="160.243" y="680.049">2</text>
</g>
<g clip-path="url(#clip7501)">
<text style="fill:#000000; fill-opacity:1; font-family:Arial,Helvetica Neue,Helvetica,sans-serif; font-size:48px; text-anchor:end;" transform="rotate(0, 160.243, 314.669)" x="160.243" y="314.669">3</text>
</g>
<g clip-path="url(#clip7501)">
<text style="fill:#000000; fill-opacity:1; font-family:Arial,Helvetica Neue,Helvetica,sans-serif; font-size:66px; text-anchor:middle;" transform="rotate(0, 1252.75, 1590.4)" x="1252.75" y="1590.4">Time step</text>
</g>
<g clip-path="url(#clip7501)">
<text style="fill:#000000; fill-opacity:1; font-family:Arial,Helvetica Neue,Helvetica,sans-serif; font-size:66px; text-anchor:middle;" transform="rotate(-90, 57.6, 743.863)" x="57.6" y="743.863">Value</text>
</g>
<polyline clip-path="url(#clip7503)" style="stroke:#000000; stroke-width:4; stroke-opacity:1; fill:none" points="
  244.724,1359.19 248.756,239.091 252.788,1287.27 256.821,1313.32 260.853,1329.92 264.885,1283.35 268.917,1272.06 272.949,1314.79 276.981,1333.54 281.013,1345.06 
  285.045,1339.09 289.077,1344.79 293.11,1362.84 297.142,1350.46 301.174,1324.46 305.206,1329.47 309.238,1350.06 313.27,1329.64 317.302,1377 321.334,1316.56 
  325.366,1356.75 329.399,1300.38 333.431,1299.01 337.463,1337.69 341.495,1323.88 345.527,1282.37 349.559,1291.75 353.591,1279.91 357.623,1226.67 361.655,1197.77 
  365.688,1189.42 369.72,1208.85 373.752,1178.78 377.784,1157.36 381.816,1136.56 385.848,1072.95 389.88,1111.41 393.912,1077.58 397.944,1002.49 401.976,1043.94 
  406.009,1042.29 410.041,975.459 414.073,953.043 418.105,910.921 422.137,915.24 426.169,948.321 430.201,878.694 434.233,907.096 438.265,852.017 442.298,834.56 
  446.33,844.37 450.362,818.394 454.394,780.19 458.426,756.957 462.458,760.692 466.49,780.784 470.522,800.527 474.554,683.002 478.587,732.255 482.619,711.217 
  486.651,674.858 490.683,711.58 494.715,621.122 498.747,612.156 502.779,630.301 506.811,552.121 510.843,571.212 514.876,514.231 518.908,493.549 522.94,474.047 
  526.972,441.355 531.004,400.385 535.036,378.499 539.068,327.66 543.1,338.203 547.132,305.729 551.164,284.066 555.197,268.101 559.229,242.544 563.261,208.355 
  567.293,166.942 571.325,189.036 575.357,170.188 579.389,141.582 583.421,136.248 587.453,147.245 591.486,118.398 595.518,125.555 599.55,116.178 603.582,120.348 
  607.614,116.006 611.646,129.98 615.678,121.912 619.71,139.045 623.742,144.04 627.775,144.49 631.807,154.999 635.839,165.358 639.871,170.29 643.903,180.857 
  647.935,183.561 651.967,193.18 655.999,182.557 660.031,208.601 664.063,249.596 668.096,209.786 672.128,244.779 676.16,233.252 680.192,260.048 684.224,257.975 
  688.256,257.509 692.288,264.605 696.32,271.722 700.352,264.422 704.385,317.169 708.417,300.276 712.449,432.479 716.481,318.665 720.513,397.027 724.545,406.415 
  728.577,454.713 732.609,456.687 736.641,483.002 740.674,508.078 744.706,527.068 748.738,492.859 752.77,640.186 756.802,644.027 760.834,668.404 764.866,683.45 
  768.898,618.862 772.93,746.249 776.963,730.336 780.995,760.915 785.027,890.737 789.059,812.521 793.091,885.817 797.123,904.854 801.155,932.712 805.187,898.011 
  809.219,949.124 813.251,1071.13 817.284,1066.13 821.316,1070.03 825.348,1086.83 829.38,1121.73 833.412,1111.56 837.444,1157.09 841.476,1152.12 845.508,1117.81 
  849.54,1146.64 853.573,1122.53 857.605,1102.16 861.637,1066.43 865.669,982.419 869.701,1062.28 873.733,1021.2 877.765,1145.35 881.797,1085.24 885.829,1157.88 
  889.862,965.533 893.894,1147.53 897.926,1177.59 901.958,1090.29 905.99,1054.97 910.022,1093.16 914.054,1130.21 918.086,1052.45 922.118,1087.43 926.151,1181.76 
  930.183,1088.15 934.215,1025.27 938.247,1122.25 942.279,998.467 946.311,1142.8 950.343,1092.98 954.375,985.857 958.407,1014.96 962.439,1086.12 966.472,964.919 
  970.504,927.918 974.536,913.306 978.568,936.381 982.6,897.62 986.632,791.246 990.664,816.04 994.696,824.849 998.728,738.807 1002.76,737.025 1006.79,688.335 
  1010.82,680.945 1014.86,683.926 1018.89,600.316 1022.92,597.348 1026.95,643.487 1030.99,495.21 1035.02,498.875 1039.05,493.726 1043.08,367.004 1047.11,394.307 
  1051.15,379.4 1055.18,355.575 1059.21,346.159 1063.24,363.62 1067.27,294.252 1071.31,299.841 1075.34,236.72 1079.37,252.781 1083.4,234.803 1087.43,251.719 
  1091.47,224.217 1095.5,229.041 1099.53,222.208 1103.56,200.801 1107.6,183.015 1111.63,200.409 1115.66,178.665 1119.69,192.617 1123.72,183.531 1127.76,184.544 
  1131.79,170.596 1135.82,170.606 1139.85,174.36 1143.88,164.218 1147.92,179.213 1151.95,161.933 1155.98,165.086 1160.01,168.716 1164.04,156.741 1168.08,158.407 
  1172.11,164.403 1176.14,147.923 1180.17,153.361 1184.21,159.983 1188.24,153.812 1192.27,164.152 1196.3,174.896 1200.33,184.927 1204.37,201.845 1208.4,224.35 
  1212.43,205.748 1216.46,240.745 1220.49,247.22 1224.53,238.988 1228.56,277.432 1232.59,277.715 1236.62,352.952 1240.65,343.102 1244.69,362.288 1248.72,391.841 
  1252.75,429.303 1256.78,406.305 1260.82,501.004 1264.85,510.099 1268.88,534.569 1272.91,559.304 1276.94,608.912 1280.98,642.821 1285.01,655.725 1289.04,659.283 
  1293.07,694.527 1297.1,712.715 1301.14,744.524 1305.17,769.168 1309.2,809.149 1313.23,804.279 1317.26,845.07 1321.3,830.356 1325.33,829.134 1329.36,872.218 
  1333.39,924.015 1337.43,892.837 1341.46,980.318 1345.49,918.803 1349.52,962.896 1353.55,1000.78 1357.59,1047.43 1361.62,1013.22 1365.65,1019.24 1369.68,1026.12 
  1373.71,1001.89 1377.75,1047.27 1381.78,1016.28 1385.81,1111.3 1389.84,1082.15 1393.88,1130.74 1397.91,1153.76 1401.94,1151.53 1405.97,1133.88 1410,1176.98 
  1414.04,1192.74 1418.07,1205.6 1422.1,1242.47 1426.13,1212.22 1430.16,1270.13 1434.2,1224.31 1438.23,1296.79 1442.26,1304.54 1446.29,1307.17 1450.32,1274.17 
  1454.36,1281.39 1458.39,1344.96 1462.42,1307.19 1466.45,1356.95 1470.49,1359.5 1474.52,1354.64 1478.55,1379.51 1482.58,1373.33 1486.61,1352.24 1490.65,1366.16 
  1494.68,1322.22 1498.71,1374.52 1502.74,1308.42 1506.77,1338.6 1510.81,1376.22 1514.84,1343.43 1518.87,1337.03 1522.9,1349.9 1526.93,1309.73 1530.97,1289.02 
  1535,1287.69 1539.03,1314.53 1543.06,1284.84 1547.1,1307.24 1551.13,1320.45 1555.16,1273.65 1559.19,1277.84 1563.22,1322.12 1567.26,1308.28 1571.29,1295.05 
  1575.32,1275.56 1579.35,1306.33 1583.38,1317.68 1587.42,1317.67 1591.45,1302.22 1595.48,1302.81 1599.51,1275.42 1603.54,1266.01 1607.58,1304.58 1611.61,1284.96 
  1615.64,1251.47 1619.67,1246.94 1623.71,1283.4 1627.74,1286.62 1631.77,1249.12 1635.8,1195.1 1639.83,1210.69 1643.87,1213.24 1647.9,1152.53 1651.93,1144.48 
  1655.96,1173.88 1659.99,1126.35 1664.03,1150.96 1668.06,1068.83 1672.09,1067.43 1676.12,1000.98 1680.15,991.022 1684.19,1012.05 1688.22,929.337 1692.25,970.271 
  1696.28,868.472 1700.32,912.824 1704.35,914.539 1708.38,857.987 1712.41,834.307 1716.44,798.551 1720.48,793.775 1724.51,798.688 1728.54,742.803 1732.57,708.204 
  1736.6,751.148 1740.64,704.454 1744.67,706.944 1748.7,661.696 1752.73,696.147 1756.76,661.938 1760.8,673.218 1764.83,649.747 1768.86,636.062 1772.89,574.526 
  1776.93,557.18 1780.96,603.098 1784.99,604.174 1789.02,486.931 1793.05,485.256 1797.09,414.067 1801.12,458.025 1805.15,410.948 1809.18,346.001 1813.21,375.184 
  1817.25,324.546 1821.28,315.144 1825.31,286.073 1829.34,272.314 1833.37,228.803 1837.41,226.545 1841.44,186.111 1845.47,154.872 1849.5,163.274 1853.54,141.24 
  1857.57,149.427 1861.6,116.559 1865.63,131.264 1869.66,109.917 1873.7,86.6754 1877.73,107.447 1881.76,86.7653 1885.79,97.4855 1889.82,101.159 1893.86,99.6753 
  1897.89,111.528 1901.92,114.993 1905.95,115.698 1909.98,141.721 1914.02,156.534 1918.05,159.651 1922.08,164.195 1926.11,182.868 1930.15,187.033 1934.18,209.148 
  1938.21,238.252 1942.24,241.323 1946.27,283.1 1950.31,260.03 1954.34,284.398 1958.37,314.034 1962.4,297.626 1966.43,303.635 1970.47,323.053 1974.5,370.485 
  1978.53,368.416 1982.56,422.726 1986.59,393.906 1990.63,394.723 1994.66,413.239 1998.69,389.04 2002.72,439.841 2006.76,497.568 2010.79,555.627 2014.82,507.752 
  2018.85,548.19 2022.88,536.851 2026.92,581.43 2030.95,678.308 2034.98,637.369 2039.01,695.797 2043.04,615.92 2047.08,728.94 2051.11,699.764 2055.14,892.349 
  2059.17,688.428 2063.2,840.942 2067.24,809.372 2071.27,895.732 2075.3,992.914 2079.33,966.218 2083.37,1054.26 2087.4,1018.53 2091.43,994.373 2095.46,1001.24 
  2099.49,1112.15 2103.53,1067.57 2107.56,1182.39 2111.59,1153.57 2115.62,1167.02 2119.65,1228.34 2123.69,1098.68 2127.72,1120.06 2131.75,1116.07 2135.78,1019.51 
  2139.81,1199.17 2143.85,1156.65 2147.88,1085.68 2151.91,1273.93 2155.94,1251.71 2159.98,1040.98 2164.01,1180.02 2168.04,1175.31 2172.07,1245.36 2176.1,1249.75 
  2180.14,1059.39 2184.17,1180.14 2188.2,1111.15 2192.23,1001.26 2196.26,1001.37 2200.3,988.445 2204.33,1058.28 2208.36,1164.62 2212.39,1028.23 2216.43,1053.88 
  2220.46,974.207 2224.49,1048.2 2228.52,969.156 2232.55,930.407 2236.59,1038.31 2240.62,942.294 2244.65,873.744 2248.68,1007.63 2252.71,839.937 2256.75,837.69 
  2260.78,821.479 
  "/>
<polyline clip-path="url(#clip7503)" style="stroke:#ff0000; stroke-width:4; stroke-opacity:1; fill:none" points="
  244.724,1223.35 248.756,1390.59 252.788,1394.51 256.821,1398.07 260.853,1388.58 264.885,1386.14 268.917,1393.88 272.949,1395.69 276.981,1398.43 281.013,1394.52 
  285.045,1394.4 289.077,1396.72 293.11,1392.48 297.142,1385.4 301.174,1386.44 305.206,1389.39 309.238,1384.37 313.27,1390.24 317.302,1379.09 321.334,1384.94 
  325.366,1376.85 329.399,1374.51 333.431,1382.35 337.463,1380.61 341.495,1373.37 345.527,1376.99 349.559,1374.37 353.591,1366.95 357.623,1363.25 361.655,1362.19 
  365.688,1366.36 369.72,1362.66 373.752,1362.18 377.784,1357.88 381.816,1350.1 385.848,1357.37 389.88,1352.93 393.912,1342.38 397.944,1349.26 401.976,1348.18 
  406.009,1338.97 410.041,1335.74 414.073,1329.81 418.105,1330.6 422.137,1334.9 426.169,1323.93 430.201,1326.59 434.233,1318.87 438.265,1315.49 442.298,1316.02 
  446.33,1311.56 450.362,1304.8 454.394,1299.62 458.426,1300.41 462.458,1300.83 466.49,1302.16 470.522,1286.93 474.554,1291.8 478.587,1289.72 482.619,1282.98 
  486.651,1288.31 490.683,1274.94 494.715,1272.99 498.747,1277.9 502.779,1264.7 506.811,1268.32 510.843,1259.59 514.876,1256.7 518.908,1254.79 522.94,1251.59 
  526.972,1245.52 531.004,1241.78 535.036,1234.13 539.068,1238.94 543.1,1232.69 547.132,1229.47 551.164,1227.34 555.197,1221.63 559.229,1216.07 563.261,1205.77 
  567.293,1211.34 571.325,1209.47 575.357,1199.44 579.389,1196.51 583.421,1198.73 587.453,1188.92 591.486,1188.21 595.518,1182.13 599.55,1178.66 603.582,1171.6 
  607.614,1178.54 611.646,1159.59 615.678,1167.15 619.71,1169.36 623.742,1160.9 627.775,1151.31 631.807,1151.07 635.839,1153.07 639.871,1143.53 643.903,1141.11 
  647.935,1135.07 651.967,1142.18 655.999,1133.26 660.031,1120.11 664.063,1129.26 668.096,1117.85 672.128,1120.77 676.16,1114.62 680.192,1113.55 684.224,1111.73 
  688.256,1106.93 692.288,1105.83 696.32,1106.7 700.352,1096.93 704.385,1098.45 708.417,1080.47 712.449,1094.26 716.481,1083.96 720.513,1082.84 724.545,1077.71 
  728.577,1076.6 732.609,1074.28 736.641,1072 740.674,1070.95 744.706,1074.02 748.738,1060.96 752.77,1060.86 756.802,1059.98 760.834,1058.93 764.866,1065.09 
  768.898,1054.39 772.93,1057.09 776.963,1055.39 780.995,1045.54 785.027,1052.11 789.059,1047.17 793.091,1046.35 797.123,1044.94 801.155,1047.26 805.187,1043.93 
  809.219,1036.43 813.251,1036.6 817.284,1036.74 821.316,1035.22 825.348,1033.06 829.38,1033.14 833.412,1030.08 837.444,1030.33 841.476,1032 845.508,1029.24 
  849.54,1030.93 853.573,1031.48 857.605,1033.35 861.637,1037.94 865.669,1033.02 869.701,1035.02 873.733,1027.14 877.765,1030.2 881.797,1026.13 885.829,1037.19 
  889.862,1026.46 893.894,1025.11 897.926,1029.93 901.958,1031.96 905.99,1029.52 910.022,1027.78 914.054,1032.49 918.086,1030.91 922.118,1025.73 926.151,1030.96 
  930.183,1035.41 934.215,1030.43 938.247,1038.47 942.279,1029.86 946.311,1032.87 950.343,1040.87 954.375,1039.01 958.407,1035.28 962.439,1042.52 966.472,1044.78 
  970.504,1046.37 974.536,1044.84 978.568,1048.01 982.6,1054.64 986.632,1053.62 990.664,1051.84 994.696,1058.06 998.728,1058.47 1002.76,1061.95 1006.79,1061.54 
  1010.82,1061.22 1014.86,1067.76 1018.89,1066.97 1022.92,1061.68 1026.95,1076.24 1030.99,1074.82 1035.02,1074.72 1039.05,1087.13 1043.08,1084.78 1047.11,1084.93 
  1051.15,1088.57 1055.18,1089.85 1059.21,1087.4 1063.24,1096.35 1067.27,1094.76 1071.31,1107.1 1075.34,1103.73 1079.37,1108.06 1083.4,1107.28 1087.43,1114.28 
  1091.47,1110.89 1095.5,1117.59 1099.53,1123 1103.56,1130.2 1107.6,1126.89 1111.63,1133.64 1115.66,1130.34 1119.69,1139.91 1123.72,1146.62 1127.76,1143.51 
  1131.79,1151.6 1135.82,1155.52 1139.85,1155.82 1143.88,1166.17 1147.92,1165.03 1151.95,1164.24 1155.98,1173.45 1160.01,1177.62 1164.04,1180.36 1168.08,1183.02 
  1172.11,1182.22 1176.14,1183.82 1180.17,1188.51 1184.21,1190.65 1188.24,1198.61 1192.27,1204.55 1196.3,1207.69 1200.33,1212.52 1204.37,1218.38 1208.4,1215.34 
  1212.43,1223.76 1216.46,1223.7 1220.49,1225.94 1224.53,1230.7 1228.56,1230.02 1232.59,1243.97 1236.62,1241.77 1240.65,1244.11 1244.69,1247.82 1248.72,1253.64 
  1252.75,1248.74 1256.78,1262.45 1260.82,1263.51 1264.85,1266.98 1268.88,1270.79 1272.91,1276.03 1276.94,1278.9 1280.98,1280.67 1285.01,1282.25 1289.04,1286.17 
  1293.07,1289.5 1297.1,1292.42 1301.14,1296.74 1305.17,1302.86 1309.2,1302.99 1313.23,1308.49 1317.26,1306.36 1321.3,1308.09 1325.33,1313.75 1329.36,1322.74 
  1333.39,1319.8 1337.43,1333.27 1341.46,1326.07 1345.49,1332.79 1349.52,1339.66 1353.55,1346.88 1357.59,1341.42 1361.62,1344.61 1365.65,1345.57 1369.68,1341.77 
  1373.71,1349.91 1377.75,1345.17 1381.78,1358.86 1385.81,1354.89 1389.84,1361.86 1393.88,1364.95 1397.91,1364.62 1401.94,1361.48 1405.97,1366.19 1410,1368.83 
  1414.04,1369.79 1418.07,1373.3 1422.1,1368.3 1426.13,1376.69 1430.16,1368.07 1434.2,1378.6 1438.23,1379.92 1442.26,1380.06 1446.29,1372.83 1450.32,1374.26 
  1454.36,1383.95 1458.39,1376.76 1462.42,1386.19 1466.45,1388.4 1470.49,1385.92 1474.52,1394.02 1478.55,1391.86 1482.58,1390 1486.61,1393.82 1490.65,1385.84 
  1494.68,1397.28 1498.71,1387.3 1502.74,1394.4 1506.77,1401.05 1510.81,1396.27 1514.84,1396.01 1518.87,1399.9 1522.9,1392.7 1526.93,1389.36 1530.97,1388.86 
  1535,1395.47 1539.03,1389.99 1543.06,1394.42 1547.1,1396.35 1551.13,1387.39 1555.16,1388.06 1559.19,1394.07 1563.22,1390.99 1567.26,1386.54 1571.29,1382.78 
  1575.32,1385.76 1579.35,1387.67 1583.38,1386.35 1587.42,1380.99 1591.45,1381.02 1595.48,1376.29 1599.51,1371.73 1603.54,1379.12 1607.58,1374.4 1611.61,1369.11 
  1615.64,1367.57 1619.67,1374.9 1623.71,1373.55 1627.74,1368.64 1631.77,1359.74 1635.8,1363.46 1639.83,1364.62 1643.87,1355.4 1647.9,1354.58 1651.93,1360.84 
  1655.96,1353.72 1659.99,1357.95 1664.03,1346.6 1668.06,1349.53 1672.09,1340.49 1676.12,1337.87 1680.15,1342.78 1684.19,1330.64 1688.22,1335.88 1692.25,1322.21 
  1696.28,1329.92 1700.32,1329.76 1704.35,1322.09 1708.38,1318.53 1712.41,1312.97 1716.44,1311.52 1720.48,1311.59 1724.51,1303.13 1728.54,1298.03 1732.57,1301.79 
  1736.6,1294.18 1740.64,1294.4 1744.67,1286.1 1748.7,1290.14 1752.73,1285.02 1756.76,1286.13 1760.8,1280.9 1764.83,1278.87 1768.86,1269.21 1772.89,1264.51 
  1776.93,1271.88 1780.96,1270.82 1784.99,1252.72 1789.02,1254.12 1793.05,1243.14 1797.09,1250.33 1801.12,1240.9 1805.15,1230.9 1809.18,1237.51 1813.21,1229.29 
  1817.25,1228.64 1821.28,1222.58 1825.31,1220.9 1829.34,1214.65 1833.37,1214.1 1837.41,1207.5 1841.44,1198.42 1845.47,1203.23 1849.5,1197.23 1853.54,1200.29 
  1857.57,1188.34 1861.6,1193.47 1865.63,1186.51 1869.66,1175.16 1873.7,1179.73 1877.73,1173.51 1881.76,1165.33 1885.79,1160.53 1889.82,1157.54 1893.86,1161.06 
  1897.89,1161.86 1901.92,1151.76 1905.95,1145.88 1909.98,1146.67 1914.02,1142.36 1918.05,1145.69 1922.08,1133.71 1926.11,1133.84 1930.15,1128.37 1934.18,1121.98 
  1938.21,1122.57 1942.24,1112.49 1946.27,1118.39 1950.31,1113.23 1954.34,1104.52 1958.37,1108.71 1962.4,1107.47 1966.43,1103.15 1970.47,1095.5 1974.5,1094.73 
  1978.53,1086.49 1982.56,1089.06 1986.59,1088.31 1990.63,1085.18 1994.66,1086.72 1998.69,1080.35 2002.72,1073.19 2006.76,1068.07 2010.79,1072.48 2014.82,1068 
  2018.85,1069.06 2022.88,1065.04 2026.92,1058.24 2030.95,1059.94 2034.98,1055.9 2039.01,1063.49 2043.04,1054.4 2047.08,1057.08 2051.11,1043.67 2055.14,1058.8 
  2059.17,1048.23 2063.2,1050.47 2067.24,1045.38 2071.27,1039.63 2075.3,1040.9 2079.33,1036.38 2083.37,1038.95 2087.4,1040.27 2091.43,1039.8 2095.46,1033.33 
  2099.49,1036.05 2103.53,1029.41 2107.56,1031.18 2111.59,1030.29 2115.62,1027.05 2119.65,1034.19 2123.69,1032.9 2127.72,1032.4 2131.75,1037.77 2135.78,1026.69 
  2139.81,1028.99 2143.85,1032.51 2147.88,1021.89 2151.91,1021.87 2155.94,1033.78 2159.98,1025.73 2164.01,1025.32 2168.04,1021.44 2172.07,1020.83 2176.1,1031.85 
  2180.14,1024.61 2184.17,1028.38 2188.2,1034.97 2192.23,1035.03 2196.26,1035.98 2200.3,1032.03 2204.33,1026.6 2208.36,1034.11 2212.39,1033.09 2216.43,1038.85 
  2220.46,1034.27 2224.49,1040.23 2228.52,1042.46 2232.55,1036.44 2236.59,1043.09 2240.62,1047.96 2244.65,1039.5 2248.68,1051.22 2252.71,1050.86 2256.75,1053.98 
  2260.78,1052.31 
  "/>
<polyline clip-path="url(#clip7503)" style="stroke:#0000ff; stroke-width:4; stroke-opacity:1; fill:none" points="
  244.724,1174.95 248.756,1211.91 252.788,1225.78 256.821,1242.64 260.853,1255.33 264.885,1262.73 268.917,1281.2 272.949,1295.73 276.981,1304.67 281.013,1315.7 
  285.045,1332.57 289.077,1339.76 293.11,1350.68 297.142,1357.18 301.174,1364.43 305.206,1371.15 309.238,1375.22 313.27,1388.67 317.302,1388.09 321.334,1393.17 
  325.366,1390.17 329.399,1400.12 333.431,1391.8 337.463,1389.13 341.495,1381.65 345.527,1378.04 349.559,1379.73 353.591,1371.91 357.623,1368.12 361.655,1359.25 
  365.688,1348.57 369.72,1342.29 373.752,1327.27 377.784,1323.8 381.816,1303.08 385.848,1298.06 389.88,1282.19 393.912,1267.19 397.944,1250.22 401.976,1237.19 
  406.009,1229.11 410.041,1215.99 414.073,1197.68 418.105,1186.19 422.137,1165.02 426.169,1152.65 430.201,1135.33 434.233,1129.92 438.265,1120.38 442.298,1104.26 
  446.33,1093.95 450.362,1090.47 454.394,1070.69 458.426,1060.89 462.458,1054.08 466.49,1041.91 470.522,1048.48 474.554,1035.24 478.587,1037.3 482.619,1032 
  486.651,1022.42 490.683,1033.42 494.715,1032.5 498.747,1031.13 502.779,1031.08 506.811,1038.51 510.843,1036.56 514.876,1046.42 518.908,1055.33 522.94,1064.31 
  526.972,1074.64 531.004,1080.82 535.036,1095.26 539.068,1106.66 543.1,1109.62 547.132,1121.05 551.164,1137.34 555.197,1154.25 559.229,1166.78 563.261,1182.97 
  567.293,1205.16 571.325,1210.73 575.357,1226.05 579.389,1236.02 583.421,1256.3 587.453,1263.09 591.486,1285.33 595.518,1295.64 599.55,1302.83 603.582,1324.59 
  607.614,1329.88 611.646,1343.14 615.678,1349.74 619.71,1357.33 623.742,1363.54 627.775,1372.52 631.807,1385.83 635.839,1387.35 639.871,1391.51 643.903,1385.81 
  647.935,1388.62 651.967,1392.65 655.999,1396.48 660.031,1388.14 664.063,1390.55 668.096,1382.55 672.128,1382.31 676.16,1373.96 680.192,1367.78 684.224,1360.68 
  688.256,1348.42 692.288,1336.47 696.32,1326.48 700.352,1315.87 704.385,1305.33 708.417,1292.35 712.449,1279.06 716.481,1270.77 720.513,1257.92 724.545,1241.65 
  728.577,1229.68 732.609,1208.61 736.641,1190.82 740.674,1179.94 744.706,1162.42 748.738,1154.7 752.77,1144.36 756.802,1127.01 760.834,1112.06 764.866,1097.3 
  768.898,1089.47 772.93,1084.51 776.963,1062.54 780.995,1066.76 785.027,1055.97 789.059,1046.41 793.091,1044.75 797.123,1035.59 801.155,1029.49 805.187,1029.71 
  809.219,1028.14 813.251,1033.89 817.284,1026.13 821.316,1028.23 825.348,1032 829.38,1041.24 833.412,1038.99 837.444,1048.38 841.476,1055.2 845.508,1062.03 
  849.54,1063.19 853.573,1086.17 857.605,1091.5 861.637,1109.74 865.669,1113.84 869.701,1124.1 873.733,1144.84 877.765,1160.02 881.797,1171.82 885.829,1185.14 
  889.862,1200.93 893.894,1207.61 897.926,1218.03 901.958,1234.99 905.99,1254.93 910.022,1267.45 914.054,1283.04 918.086,1294.29 922.118,1300.37 926.151,1317.75 
  930.183,1328.85 934.215,1349.44 938.247,1356.8 942.279,1359.21 946.311,1360.88 950.343,1377.95 954.375,1377.79 958.407,1392.79 962.439,1390.84 966.472,1383.52 
  970.504,1392.63 974.536,1392.4 978.568,1392.74 982.6,1386.69 986.632,1390.76 990.664,1377.79 994.696,1381.45 998.728,1375.19 1002.76,1364.23 1006.79,1358.3 
  1010.82,1351.76 1014.86,1337.45 1018.89,1329.32 1022.92,1317.32 1026.95,1314.13 1030.99,1294.13 1035.02,1280.26 1039.05,1266.65 1043.08,1258.25 1047.11,1234.81 
  1051.15,1223.27 1055.18,1212.99 1059.21,1202.01 1063.24,1180.2 1067.27,1171.31 1071.31,1157.51 1075.34,1139.91 1079.37,1126.54 1083.4,1113.37 1087.43,1099.87 
  1091.47,1095.92 1095.5,1076.55 1099.53,1071.34 1103.56,1061.1 1107.6,1058.34 1111.63,1050.43 1115.66,1045.97 1119.69,1036.03 1123.72,1027.87 1127.76,1036.25 
  1131.79,1030.8 1135.82,1024.48 1139.85,1031.88 1143.88,1023.61 1147.92,1033.99 1151.95,1036.25 1155.98,1039.16 1160.01,1053.86 1164.04,1054.97 1168.08,1062.41 
  1172.11,1072.01 1176.14,1074.48 1180.17,1084.85 1184.21,1105.51 1188.24,1118.39 1192.27,1131.7 1196.3,1143.94 1200.33,1148.58 1204.37,1170.31 1208.4,1179.86 
  1212.43,1197.32 1216.46,1209.29 1220.49,1223.45 1224.53,1241.62 1228.56,1255.53 1232.59,1268.59 1236.62,1277.53 1240.65,1296.65 1244.69,1304.55 1248.72,1318.17 
  1252.75,1327.18 1256.78,1335.55 1260.82,1350.69 1264.85,1356.52 1268.88,1361.33 1272.91,1373.28 1276.94,1380.51 1280.98,1386.76 1285.01,1387.35 1289.04,1392.73 
  1293.07,1384.2 1297.1,1396.45 1301.14,1387.31 1305.17,1389.32 1309.2,1385.26 1313.23,1381.42 1317.26,1377.98 1321.3,1371.78 1325.33,1369.13 1329.36,1358.04 
  1333.39,1354.58 1337.43,1342.87 1341.46,1330.19 1345.49,1312.78 1349.52,1307.76 1353.55,1295.57 1357.59,1287.65 1361.62,1267.11 1365.65,1254.3 1369.68,1240.13 
  1373.71,1222.13 1377.75,1201.89 1381.78,1194.32 1385.81,1176.49 1389.84,1168.62 1393.88,1148.97 1397.91,1142.86 1401.94,1132.54 1405.97,1117.62 1410,1106.9 
  1414.04,1095.84 1418.07,1085.96 1422.1,1073.94 1426.13,1059.74 1430.16,1058.02 1434.2,1052.2 1438.23,1042.98 1442.26,1041.01 1446.29,1038.14 1450.32,1038.09 
  1454.36,1024.72 1458.39,1023.72 1462.42,1026.45 1466.45,1032.91 1470.49,1033.33 1474.52,1043.85 1478.55,1041.89 1482.58,1045.58 1486.61,1057.97 1490.65,1065 
  1494.68,1073.71 1498.71,1082.23 1502.74,1093.71 1506.77,1104.93 1510.81,1111.81 1514.84,1127.81 1518.87,1140.36 1522.9,1153.35 1526.93,1167.1 1530.97,1182.04 
  1535,1194.3 1539.03,1218.21 1543.06,1220.23 1547.1,1235.49 1551.13,1251.47 1555.16,1266.13 1559.19,1278.49 1563.22,1292.93 1567.26,1305.08 1571.29,1313.9 
  1575.32,1332.14 1579.35,1338.36 1583.38,1347.53 1587.42,1361.51 1591.45,1367.86 1595.48,1368.04 1599.51,1379.29 1603.54,1377.05 1607.58,1388.44 1611.61,1387.79 
  1615.64,1393.34 1619.67,1388.66 1623.71,1393.27 1627.74,1389.25 1631.77,1388.02 1635.8,1378.2 1639.83,1377.55 1643.87,1371.8 1647.9,1365.32 1651.93,1361.69 
  1655.96,1349.05 1659.99,1339.34 1664.03,1332 1668.06,1317.21 1672.09,1300.21 1676.12,1301 1680.15,1284.84 1684.19,1271.68 1688.22,1260.22 1692.25,1238.72 
  1696.28,1230.64 1700.32,1207.02 1704.35,1191.56 1708.38,1185.89 1712.41,1165.38 1716.44,1149.86 1720.48,1141.14 1724.51,1126.16 1728.54,1118.83 1732.57,1103.2 
  1736.6,1092.39 1740.64,1084.12 1744.67,1075.32 1748.7,1062.26 1752.73,1059.81 1756.76,1054.23 1760.8,1040.5 1764.83,1043 1768.86,1034.38 1772.89,1028.19 
  1776.93,1027.92 1780.96,1025.07 1784.99,1032.24 1789.02,1031.04 1793.05,1036.14 1797.09,1040.88 1801.12,1033.74 1805.15,1049.73 1809.18,1054.08 1813.21,1062.16 
  1817.25,1072.26 1821.28,1075.23 1825.31,1093.55 1829.34,1107.02 1833.37,1109.88 1837.41,1134.67 1841.44,1140.5 1845.47,1154.82 1849.5,1165.52 1853.54,1183.06 
  1857.57,1190.44 1861.6,1212.86 1865.63,1218.19 1869.66,1234.22 1873.7,1255.3 1877.73,1271.25 1881.76,1284.14 1885.79,1290.09 1889.82,1301.26 1893.86,1317.05 
  1897.89,1325.69 1901.92,1333.64 1905.95,1348.25 1909.98,1363.97 1914.02,1365.91 1918.05,1372.95 1922.08,1375.74 1926.11,1382.64 1930.15,1382.37 1934.18,1392.66 
  1938.21,1389.1 1942.24,1389.37 1946.27,1389.8 1950.31,1391 1954.34,1388.7 1958.37,1380.01 1962.4,1384.57 1966.43,1376.42 1970.47,1374.12 1974.5,1355.79 
  1978.53,1347.8 1982.56,1339.71 1986.59,1330.79 1990.63,1322.19 1994.66,1304.18 1998.69,1291.72 2002.72,1274.02 2006.76,1264.74 2010.79,1248.43 2014.82,1234.77 
  2018.85,1224.69 2022.88,1209.83 2026.92,1188.13 2030.95,1184.11 2034.98,1164 2039.01,1155.31 2043.04,1137.13 2047.08,1130.87 2051.11,1110.83 2055.14,1105.12 
  2059.17,1093.8 2063.2,1086.28 2067.24,1069.44 2071.27,1052.91 2075.3,1060.68 2079.33,1047.13 2083.37,1036.75 2087.4,1038.47 2091.43,1037.41 2095.46,1027.16 
  2099.49,1029.87 2103.53,1031.83 2107.56,1026.38 2111.59,1029.96 2115.62,1029.76 2119.65,1033.54 2123.69,1036.05 2127.72,1049.49 2131.75,1061.08 2135.78,1063.3 
  2139.81,1070.76 2143.85,1084.04 2147.88,1091.65 2151.91,1111.63 2155.94,1115.93 2159.98,1128.26 2164.01,1139.74 2168.04,1154.77 2172.07,1170.11 2176.1,1188.75 
  2180.14,1193.15 2184.17,1210.94 2188.2,1226.82 2192.23,1245.52 2196.26,1250.95 2200.3,1265.11 2204.33,1282.59 2208.36,1286.86 2212.39,1302.43 2216.43,1319.81 
  2220.46,1328.59 2224.49,1344.13 2228.52,1347.03 2232.55,1361.32 2236.59,1366.58 2240.62,1374.02 2244.65,1381.97 2248.68,1387.6 2252.71,1379.7 2256.75,1395.73 
  2260.78,1390.09 
  "/>
<polygon clip-path="url(#clip7501)" points="
1985.19,372.684 2249.26,372.684 2249.26,130.764 1985.19,130.764 
  " fill="#ffffff" fill-rule="evenodd" fill-opacity="1"/>
<polyline clip-path="url(#clip7501)" style="stroke:#000000; stroke-width:4; stroke-opacity:1; fill:none" points="
  1985.19,372.684 2249.26,372.684 2249.26,130.764 1985.19,130.764 1985.19,372.684 
  "/>
<polyline clip-path="url(#clip7501)" style="stroke:#000000; stroke-width:4; stroke-opacity:1; fill:none" points="
  2009.19,191.244 2153.19,191.244 
  "/>
<g clip-path="url(#clip7501)">
<text style="fill:#000000; fill-opacity:1; font-family:Arial,Helvetica Neue,Helvetica,sans-serif; font-size:48px; text-anchor:start;" transform="rotate(0, 2177.19, 208.744)" x="2177.19" y="208.744">x</text>
</g>
<polyline clip-path="url(#clip7501)" style="stroke:#ff0000; stroke-width:4; stroke-opacity:1; fill:none" points="
  2009.19,251.724 2153.19,251.724 
  "/>
<g clip-path="url(#clip7501)">
<text style="fill:#000000; fill-opacity:1; font-family:Arial,Helvetica Neue,Helvetica,sans-serif; font-size:48px; text-anchor:start;" transform="rotate(0, 2177.19, 269.224)" x="2177.19" y="269.224">y</text>
</g>
<polyline clip-path="url(#clip7501)" style="stroke:#0000ff; stroke-width:4; stroke-opacity:1; fill:none" points="
  2009.19,312.204 2153.19,312.204 
  "/>
<g clip-path="url(#clip7501)">
<text style="fill:#000000; fill-opacity:1; font-family:Arial,Helvetica Neue,Helvetica,sans-serif; font-size:48px; text-anchor:start;" transform="rotate(0, 2177.19, 329.704)" x="2177.19" y="329.704">z</text>
</g>
</svg>
