<?xml version="1.0" encoding="utf-8"?>
<svg xmlns="http://www.w3.org/2000/svg" xmlns:xlink="http://www.w3.org/1999/xlink" width="600" height="400" viewBox="0 0 2400 1600">
<defs>
  <clipPath id="clip7100">
    <rect x="0" y="0" width="2400" height="1600"/>
  </clipPath>
</defs>
<path clip-path="url(#clip7100)" d="
M0 1600 L2400 1600 L2400 0 L0 0  Z
  " fill="#ffffff" fill-rule="evenodd" fill-opacity="1"/>
<defs>
  <clipPath id="clip7101">
    <rect x="480" y="0" width="1681" height="1600"/>
  </clipPath>
</defs>
<path clip-path="url(#clip7100)" d="
M243.864 656.547 L2352.76 656.547 L2352.76 47.2441 L243.864 47.2441  Z
  " fill="#ffffff" fill-rule="evenodd" fill-opacity="1"/>
<defs>
  <clipPath id="clip7102">
    <rect x="243" y="47" width="2110" height="610"/>
  </clipPath>
</defs>
<polyline clip-path="url(#clip7102)" style="stroke:#000000; stroke-width:2; stroke-opacity:0.1; fill:none" points="
  293.552,656.547 293.552,47.2441 
  "/>
<polyline clip-path="url(#clip7102)" style="stroke:#000000; stroke-width:2; stroke-opacity:0.1; fill:none" points="
  793.432,656.547 793.432,47.2441 
  "/>
<polyline clip-path="url(#clip7102)" style="stroke:#000000; stroke-width:2; stroke-opacity:0.1; fill:none" points="
  1293.31,656.547 1293.31,47.2441 
  "/>
<polyline clip-path="url(#clip7102)" style="stroke:#000000; stroke-width:2; stroke-opacity:0.1; fill:none" points="
  1793.19,656.547 1793.19,47.2441 
  "/>
<polyline clip-path="url(#clip7102)" style="stroke:#000000; stroke-width:2; stroke-opacity:0.1; fill:none" points="
  2293.07,656.547 2293.07,47.2441 
  "/>
<polyline clip-path="url(#clip7102)" style="stroke:#000000; stroke-width:2; stroke-opacity:0.1; fill:none" points="
  243.864,577.698 2352.76,577.698 
  "/>
<polyline clip-path="url(#clip7102)" style="stroke:#000000; stroke-width:2; stroke-opacity:0.1; fill:none" points="
  243.864,467.8 2352.76,467.8 
  "/>
<polyline clip-path="url(#clip7102)" style="stroke:#000000; stroke-width:2; stroke-opacity:0.1; fill:none" points="
  243.864,357.903 2352.76,357.903 
  "/>
<polyline clip-path="url(#clip7102)" style="stroke:#000000; stroke-width:2; stroke-opacity:0.1; fill:none" points="
  243.864,248.005 2352.76,248.005 
  "/>
<polyline clip-path="url(#clip7102)" style="stroke:#000000; stroke-width:2; stroke-opacity:0.1; fill:none" points="
  243.864,138.107 2352.76,138.107 
  "/>
<polyline clip-path="url(#clip7100)" style="stroke:#000000; stroke-width:4; stroke-opacity:1; fill:none" points="
  243.864,656.547 2352.76,656.547 
  "/>
<polyline clip-path="url(#clip7100)" style="stroke:#000000; stroke-width:4; stroke-opacity:1; fill:none" points="
  243.864,656.547 243.864,47.2441 
  "/>
<polyline clip-path="url(#clip7100)" style="stroke:#000000; stroke-width:4; stroke-opacity:1; fill:none" points="
  293.552,656.547 293.552,647.407 
  "/>
<polyline clip-path="url(#clip7100)" style="stroke:#000000; stroke-width:4; stroke-opacity:1; fill:none" points="
  793.432,656.547 793.432,647.407 
  "/>
<polyline clip-path="url(#clip7100)" style="stroke:#000000; stroke-width:4; stroke-opacity:1; fill:none" points="
  1293.31,656.547 1293.31,647.407 
  "/>
<polyline clip-path="url(#clip7100)" style="stroke:#000000; stroke-width:4; stroke-opacity:1; fill:none" points="
  1793.19,656.547 1793.19,647.407 
  "/>
<polyline clip-path="url(#clip7100)" style="stroke:#000000; stroke-width:4; stroke-opacity:1; fill:none" points="
  2293.07,656.547 2293.07,647.407 
  "/>
<polyline clip-path="url(#clip7100)" style="stroke:#000000; stroke-width:4; stroke-opacity:1; fill:none" points="
  243.864,577.698 275.498,577.698 
  "/>
<polyline clip-path="url(#clip7100)" style="stroke:#000000; stroke-width:4; stroke-opacity:1; fill:none" points="
  243.864,467.8 275.498,467.8 
  "/>
<polyline clip-path="url(#clip7100)" style="stroke:#000000; stroke-width:4; stroke-opacity:1; fill:none" points="
  243.864,357.903 275.498,357.903 
  "/>
<polyline clip-path="url(#clip7100)" style="stroke:#000000; stroke-width:4; stroke-opacity:1; fill:none" points="
  243.864,248.005 275.498,248.005 
  "/>
<polyline clip-path="url(#clip7100)" style="stroke:#000000; stroke-width:4; stroke-opacity:1; fill:none" points="
  243.864,138.107 275.498,138.107 
  "/>
<g clip-path="url(#clip7100)">
<text style="fill:#000000; fill-opacity:1; font-family:Arial,Helvetica Neue,Helvetica,sans-serif; font-size:48px; text-anchor:middle;" transform="rotate(0, 293.552, 710.547)" x="293.552" y="710.547">0</text>
</g>
<g clip-path="url(#clip7100)">
<text style="fill:#000000; fill-opacity:1; font-family:Arial,Helvetica Neue,Helvetica,sans-serif; font-size:48px; text-anchor:middle;" transform="rotate(0, 793.432, 710.547)" x="793.432" y="710.547">50</text>
</g>
<g clip-path="url(#clip7100)">
<text style="fill:#000000; fill-opacity:1; font-family:Arial,Helvetica Neue,Helvetica,sans-serif; font-size:48px; text-anchor:middle;" transform="rotate(0, 1293.31, 710.547)" x="1293.31" y="710.547">100</text>
</g>
<g clip-path="url(#clip7100)">
<text style="fill:#000000; fill-opacity:1; font-family:Arial,Helvetica Neue,Helvetica,sans-serif; font-size:48px; text-anchor:middle;" transform="rotate(0, 1793.19, 710.547)" x="1793.19" y="710.547">150</text>
</g>
<g clip-path="url(#clip7100)">
<text style="fill:#000000; fill-opacity:1; font-family:Arial,Helvetica Neue,Helvetica,sans-serif; font-size:48px; text-anchor:middle;" transform="rotate(0, 2293.07, 710.547)" x="2293.07" y="710.547">200</text>
</g>
<g clip-path="url(#clip7100)">
<text style="fill:#000000; fill-opacity:1; font-family:Arial,Helvetica Neue,Helvetica,sans-serif; font-size:48px; text-anchor:end;" transform="rotate(0, 219.864, 595.198)" x="219.864" y="595.198">-1.0</text>
</g>
<g clip-path="url(#clip7100)">
<text style="fill:#000000; fill-opacity:1; font-family:Arial,Helvetica Neue,Helvetica,sans-serif; font-size:48px; text-anchor:end;" transform="rotate(0, 219.864, 485.3)" x="219.864" y="485.3">-0.5</text>
</g>
<g clip-path="url(#clip7100)">
<text style="fill:#000000; fill-opacity:1; font-family:Arial,Helvetica Neue,Helvetica,sans-serif; font-size:48px; text-anchor:end;" transform="rotate(0, 219.864, 375.403)" x="219.864" y="375.403">0.0</text>
</g>
<g clip-path="url(#clip7100)">
<text style="fill:#000000; fill-opacity:1; font-family:Arial,Helvetica Neue,Helvetica,sans-serif; font-size:48px; text-anchor:end;" transform="rotate(0, 219.864, 265.505)" x="219.864" y="265.505">0.5</text>
</g>
<g clip-path="url(#clip7100)">
<text style="fill:#000000; fill-opacity:1; font-family:Arial,Helvetica Neue,Helvetica,sans-serif; font-size:48px; text-anchor:end;" transform="rotate(0, 219.864, 155.607)" x="219.864" y="155.607">1.0</text>
</g>
<g clip-path="url(#clip7100)">
<text style="fill:#000000; fill-opacity:1; font-family:Arial,Helvetica Neue,Helvetica,sans-serif; font-size:66px; text-anchor:middle;" transform="rotate(-90, 89.2861, 351.895)" x="89.2861" y="351.895">Value</text>
</g>
<polyline clip-path="url(#clip7102)" style="stroke:#000000; stroke-width:4; stroke-opacity:1; fill:none" points="
  303.55,65.9305 313.547,228.775 323.545,72.2784 333.543,181.736 343.54,294.058 353.538,254.764 363.535,262.177 373.533,374.338 383.531,444.182 393.528,418.482 
  403.526,447.534 413.523,533.639 423.521,599.702 433.518,521.8 443.516,639.302 453.514,501.375 463.511,615.232 473.509,495.14 483.506,532.787 493.504,504.364 
  503.502,416.734 513.499,341.236 523.497,298.836 533.494,302.784 543.492,217.817 553.49,178.834 563.487,138.847 573.485,204.404 583.482,182.929 593.48,64.4885 
  603.477,214.355 613.475,128.751 623.473,246.079 633.47,250.709 643.468,199.485 653.465,376.265 663.463,401.774 673.461,464.644 683.458,407.32 693.456,562.271 
  703.453,515.099 713.451,586.616 723.449,553.003 733.446,583.571 743.444,598.131 753.441,463.596 763.439,581.72 773.437,481.352 783.434,478.264 793.432,387.518 
  803.429,310.27 813.427,270.93 823.424,231.547 833.422,243.563 843.42,185.646 853.417,125.509 863.415,176.157 873.412,112.47 883.41,196.959 893.408,103.784 
  903.405,184.163 913.403,300.851 923.4,198.239 933.398,354.555 943.396,321.104 953.393,381.106 963.391,503.038 973.388,452.115 983.386,557.714 993.384,614.067 
  1003.38,503.853 1013.38,629.303 1023.38,507.874 1033.37,546.342 1043.37,604.478 1053.37,487.887 1063.37,430.464 1073.36,381.361 1083.36,395.984 1093.36,376.4 
  1103.36,186.41 1113.35,261.81 1123.35,256.776 1133.35,112.81 1143.35,107.599 1153.34,145.896 1163.34,140.597 1173.34,169.039 1183.34,235.202 1193.34,174.144 
  1203.33,287.149 1213.33,301.511 1223.33,322.117 1233.33,402.641 1243.32,361.399 1253.32,483.259 1263.32,500.18 1273.32,619.83 1283.31,503.516 1293.31,597.822 
  1303.31,615.918 1313.31,488.524 1323.3,556.386 1333.3,539.242 1343.3,477.662 1353.3,418.274 1363.29,390.23 1373.29,365.204 1383.29,286.052 1393.29,277.879 
  1403.28,221.957 1413.28,115.476 1423.28,125.772 1433.28,178.186 1443.28,187.678 1453.27,138.533 1463.27,169.767 1473.27,161.415 1483.27,182.479 1493.26,308.414 
  1503.26,328.706 1513.26,359.389 1523.26,397.89 1533.25,500.793 1543.25,443.224 1553.25,611.607 1563.25,481.068 1573.24,572.408 1583.24,607.952 1593.24,556.253 
  1603.24,606.993 1613.23,511.786 1623.23,516.998 1633.23,436.312 1643.23,386.016 1653.22,312.462 1663.22,318.367 1673.22,310.975 1683.22,268.939 1693.21,144.819 
  1703.21,186.314 1713.21,123.459 1723.21,139.955 1733.21,162.538 1743.2,161.702 1753.2,160.354 1763.2,218.651 1773.2,278.188 1783.19,250.781 1793.19,346.92 
  1803.19,363.459 1813.19,517.365 1823.18,488.804 1833.18,480.396 1843.18,511.268 1853.18,633.917 1863.17,526.692 1873.17,573.174 1883.17,535.618 1893.17,571.28 
  1903.16,534.386 1913.16,492.954 1923.16,437.898 1933.16,313.802 1943.15,310.124 1953.15,369.037 1963.15,193.448 1973.15,223.763 1983.14,176.47 1993.14,164.711 
  2003.14,132.484 2013.14,90.6688 2023.14,143.427 2033.13,207.229 2043.13,183.236 2053.13,227.088 2063.13,264.143 2073.12,331.561 2083.12,395.586 2093.12,463.036 
  2103.12,399.326 2113.11,492.982 2123.11,593.522 2133.11,581.127 2143.11,556.053 2153.1,575.242 2163.1,593.454 2173.1,488.126 2183.1,558.551 2193.09,450.777 
  2203.09,480.158 2213.09,416.783 2223.09,303.823 2233.08,356.758 2243.08,232.671 2253.08,235.977 2263.08,114.576 2273.08,209.725 2283.07,134.532 2293.07,151.476 
  
  "/>
<path clip-path="url(#clip7100)" d="
M2003.31 251.724 L2280.76 251.724 L2280.76 130.764 L2003.31 130.764  Z
  " fill="#ffffff" fill-rule="evenodd" fill-opacity="1"/>
<polyline clip-path="url(#clip7100)" style="stroke:#000000; stroke-width:4; stroke-opacity:1; fill:none" points="
  2003.31,251.724 2280.76,251.724 2280.76,130.764 2003.31,130.764 2003.31,251.724 
  "/>
<polyline clip-path="url(#clip7100)" style="stroke:#000000; stroke-width:4; stroke-opacity:1; fill:none" points="
  2027.31,191.244 2171.31,191.244 
  "/>
<g clip-path="url(#clip7100)">
<text style="fill:#000000; fill-opacity:1; font-family:Arial,Helvetica Neue,Helvetica,sans-serif; font-size:48px; text-anchor:start;" transform="rotate(0, 2195.31, 208.744)" x="2195.31" y="208.744">ts</text>
</g>
<path clip-path="url(#clip7100)" d="
M243.864 1425.62 L2352.76 1425.62 L2352.76 816.316 L243.864 816.316  Z
  " fill="#ffffff" fill-rule="evenodd" fill-opacity="1"/>
<defs>
  <clipPath id="clip7103">
    <rect x="243" y="816" width="2110" height="610"/>
  </clipPath>
</defs>
<polyline clip-path="url(#clip7103)" style="stroke:#000000; stroke-width:2; stroke-opacity:0.1; fill:none" points="
  293.552,1425.62 293.552,816.316 
  "/>
<polyline clip-path="url(#clip7103)" style="stroke:#000000; stroke-width:2; stroke-opacity:0.1; fill:none" points="
  793.432,1425.62 793.432,816.316 
  "/>
<polyline clip-path="url(#clip7103)" style="stroke:#000000; stroke-width:2; stroke-opacity:0.1; fill:none" points="
  1293.31,1425.62 1293.31,816.316 
  "/>
<polyline clip-path="url(#clip7103)" style="stroke:#000000; stroke-width:2; stroke-opacity:0.1; fill:none" points="
  1793.19,1425.62 1793.19,816.316 
  "/>
<polyline clip-path="url(#clip7103)" style="stroke:#000000; stroke-width:2; stroke-opacity:0.1; fill:none" points="
  2293.07,1425.62 2293.07,816.316 
  "/>
<polyline clip-path="url(#clip7103)" style="stroke:#000000; stroke-width:2; stroke-opacity:0.1; fill:none" points="
  243.864,1346.77 2352.76,1346.77 
  "/>
<polyline clip-path="url(#clip7103)" style="stroke:#000000; stroke-width:2; stroke-opacity:0.1; fill:none" points="
  243.864,1236.87 2352.76,1236.87 
  "/>
<polyline clip-path="url(#clip7103)" style="stroke:#000000; stroke-width:2; stroke-opacity:0.1; fill:none" points="
  243.864,1126.97 2352.76,1126.97 
  "/>
<polyline clip-path="url(#clip7103)" style="stroke:#000000; stroke-width:2; stroke-opacity:0.1; fill:none" points="
  243.864,1017.08 2352.76,1017.08 
  "/>
<polyline clip-path="url(#clip7103)" style="stroke:#000000; stroke-width:2; stroke-opacity:0.1; fill:none" points="
  243.864,907.179 2352.76,907.179 
  "/>
<polyline clip-path="url(#clip7100)" style="stroke:#000000; stroke-width:4; stroke-opacity:1; fill:none" points="
  243.864,1425.62 2352.76,1425.62 
  "/>
<polyline clip-path="url(#clip7100)" style="stroke:#000000; stroke-width:4; stroke-opacity:1; fill:none" points="
  243.864,1425.62 243.864,816.316 
  "/>
<polyline clip-path="url(#clip7100)" style="stroke:#000000; stroke-width:4; stroke-opacity:1; fill:none" points="
  293.552,1425.62 293.552,1416.48 
  "/>
<polyline clip-path="url(#clip7100)" style="stroke:#000000; stroke-width:4; stroke-opacity:1; fill:none" points="
  793.432,1425.62 793.432,1416.48 
  "/>
<polyline clip-path="url(#clip7100)" style="stroke:#000000; stroke-width:4; stroke-opacity:1; fill:none" points="
  1293.31,1425.62 1293.31,1416.48 
  "/>
<polyline clip-path="url(#clip7100)" style="stroke:#000000; stroke-width:4; stroke-opacity:1; fill:none" points="
  1793.19,1425.62 1793.19,1416.48 
  "/>
<polyline clip-path="url(#clip7100)" style="stroke:#000000; stroke-width:4; stroke-opacity:1; fill:none" points="
  2293.07,1425.62 2293.07,1416.48 
  "/>
<polyline clip-path="url(#clip7100)" style="stroke:#000000; stroke-width:4; stroke-opacity:1; fill:none" points="
  243.864,1346.77 275.498,1346.77 
  "/>
<polyline clip-path="url(#clip7100)" style="stroke:#000000; stroke-width:4; stroke-opacity:1; fill:none" points="
  243.864,1236.87 275.498,1236.87 
  "/>
<polyline clip-path="url(#clip7100)" style="stroke:#000000; stroke-width:4; stroke-opacity:1; fill:none" points="
  243.864,1126.97 275.498,1126.97 
  "/>
<polyline clip-path="url(#clip7100)" style="stroke:#000000; stroke-width:4; stroke-opacity:1; fill:none" points="
  243.864,1017.08 275.498,1017.08 
  "/>
<polyline clip-path="url(#clip7100)" style="stroke:#000000; stroke-width:4; stroke-opacity:1; fill:none" points="
  243.864,907.179 275.498,907.179 
  "/>
<g clip-path="url(#clip7100)">
<text style="fill:#000000; fill-opacity:1; font-family:Arial,Helvetica Neue,Helvetica,sans-serif; font-size:48px; text-anchor:middle;" transform="rotate(0, 293.552, 1479.62)" x="293.552" y="1479.62">0</text>
</g>
<g clip-path="url(#clip7100)">
<text style="fill:#000000; fill-opacity:1; font-family:Arial,Helvetica Neue,Helvetica,sans-serif; font-size:48px; text-anchor:middle;" transform="rotate(0, 793.432, 1479.62)" x="793.432" y="1479.62">50</text>
</g>
<g clip-path="url(#clip7100)">
<text style="fill:#000000; fill-opacity:1; font-family:Arial,Helvetica Neue,Helvetica,sans-serif; font-size:48px; text-anchor:middle;" transform="rotate(0, 1293.31, 1479.62)" x="1293.31" y="1479.62">100</text>
</g>
<g clip-path="url(#clip7100)">
<text style="fill:#000000; fill-opacity:1; font-family:Arial,Helvetica Neue,Helvetica,sans-serif; font-size:48px; text-anchor:middle;" transform="rotate(0, 1793.19, 1479.62)" x="1793.19" y="1479.62">150</text>
</g>
<g clip-path="url(#clip7100)">
<text style="fill:#000000; fill-opacity:1; font-family:Arial,Helvetica Neue,Helvetica,sans-serif; font-size:48px; text-anchor:middle;" transform="rotate(0, 2293.07, 1479.62)" x="2293.07" y="1479.62">200</text>
</g>
<g clip-path="url(#clip7100)">
<text style="fill:#000000; fill-opacity:1; font-family:Arial,Helvetica Neue,Helvetica,sans-serif; font-size:48px; text-anchor:end;" transform="rotate(0, 219.864, 1364.27)" x="219.864" y="1364.27">-1.0</text>
</g>
<g clip-path="url(#clip7100)">
<text style="fill:#000000; fill-opacity:1; font-family:Arial,Helvetica Neue,Helvetica,sans-serif; font-size:48px; text-anchor:end;" transform="rotate(0, 219.864, 1254.37)" x="219.864" y="1254.37">-0.5</text>
</g>
<g clip-path="url(#clip7100)">
<text style="fill:#000000; fill-opacity:1; font-family:Arial,Helvetica Neue,Helvetica,sans-serif; font-size:48px; text-anchor:end;" transform="rotate(0, 219.864, 1144.47)" x="219.864" y="1144.47">0.0</text>
</g>
<g clip-path="url(#clip7100)">
<text style="fill:#000000; fill-opacity:1; font-family:Arial,Helvetica Neue,Helvetica,sans-serif; font-size:48px; text-anchor:end;" transform="rotate(0, 219.864, 1034.58)" x="219.864" y="1034.58">0.5</text>
</g>
<g clip-path="url(#clip7100)">
<text style="fill:#000000; fill-opacity:1; font-family:Arial,Helvetica Neue,Helvetica,sans-serif; font-size:48px; text-anchor:end;" transform="rotate(0, 219.864, 924.679)" x="219.864" y="924.679">1.0</text>
</g>
<g clip-path="url(#clip7100)">
<text style="fill:#000000; fill-opacity:1; font-family:Arial,Helvetica Neue,Helvetica,sans-serif; font-size:66px; text-anchor:middle;" transform="rotate(0, 1298.31, 1559.48)" x="1298.31" y="1559.48">Time step</text>
</g>
<g clip-path="url(#clip7100)">
<text style="fill:#000000; fill-opacity:1; font-family:Arial,Helvetica Neue,Helvetica,sans-serif; font-size:66px; text-anchor:middle;" transform="rotate(-90, 89.2861, 1120.97)" x="89.2861" y="1120.97">Value</text>
</g>
<polyline clip-path="url(#clip7103)" style="stroke:#009af9; stroke-width:4; stroke-opacity:1; fill:none" points="
  303.55,1213.25 313.547,1130.47 323.545,1033.22 333.543,1079.2 343.54,956.75 353.538,1015.15 363.535,909.027 373.533,930.487 383.531,872.856 393.528,947.258 
  403.526,945.542 413.523,883.648 423.521,1047.26 433.518,997.847 443.516,1055.12 453.514,1100.63 463.511,1150.18 473.509,1145.47 483.506,1325.13 493.504,1315.41 
  503.502,1256.96 513.499,1286.07 523.497,1383.14 533.494,1384.99 543.492,1270.45 553.49,1303.46 563.487,1331.34 573.485,1187.55 583.482,1199.54 593.48,1097.78 
  603.477,1067.91 613.475,1072.9 623.473,1077.49 633.47,938.839 643.468,952.001 653.465,953.235 663.463,859.741 673.461,894.844 683.458,907.605 693.456,920.548 
  703.453,1025.85 713.451,978.797 723.449,1040 733.446,1080.05 743.444,1185.86 753.441,1212.3 763.439,1165.06 773.437,1341.48 783.434,1286.44 793.432,1366.89 
  803.429,1376.06 813.427,1352.64 823.424,1302.71 833.422,1388.9 843.42,1247.34 853.417,1176.39 863.415,1257.6 873.412,1168.4 883.41,1150.43 893.408,1005.05 
  903.405,1046.95 913.403,1000.62 923.4,929.425 933.398,914.967 943.396,909.669 953.393,901.556 963.391,892.531 973.388,954.718 983.386,1023.84 993.384,912.499 
  1003.38,1004.27 1013.38,1079.34 1023.38,1087.44 1033.37,1187.35 1043.37,1232.67 1053.37,1232.11 1063.37,1269.87 1073.36,1344.31 1083.36,1272.59 1093.36,1408.37 
  1103.36,1280.86 1113.35,1380.68 1123.35,1325.32 1133.35,1327.62 1143.35,1246.73 1153.34,1143.41 1163.34,1170.85 1173.34,1128.46 1183.34,1071.86 1193.34,1038.01 
  1203.33,933.783 1213.33,1030.88 1223.33,876.671 1233.33,907.918 1243.32,881.882 1253.32,945.229 1263.32,966.031 1273.32,986.889 1283.31,951.551 1293.31,1090.18 
  1303.31,1070.58 1313.31,1125.83 1323.3,1249.23 1333.3,1156.59 1343.3,1273.44 1353.3,1280.34 1363.29,1295.76 1373.29,1367.2 1383.29,1326.79 1393.29,1368.77 
  1403.28,1377.02 1413.28,1221.19 1423.28,1284.17 1433.28,1250.42 1443.28,1219.85 1453.27,1091.19 1463.27,1082.87 1473.27,968.557 1483.27,1069.92 1493.26,1063.13 
  1503.26,881.542 1513.26,987.723 1523.26,833.56 1533.25,1031.25 1543.25,835.002 1553.25,930.774 1563.25,996.16 1573.24,992.835 1583.24,1019.78 1593.24,1134.28 
  1603.24,1164.66 1613.23,1205.38 1623.23,1155.09 1633.23,1308.31 1643.23,1325.46 1653.22,1290.87 1663.22,1402.99 1673.22,1350.2 1683.22,1398.38 1693.21,1249.47 
  1703.21,1355.69 1713.21,1257.2 1723.21,1250.14 1733.21,1166.96 1743.2,1132.53 1753.2,1110.31 1763.2,962.52 1773.2,955.386 1783.19,967.311 1793.19,931.61 
  1803.19,841.35 1813.19,947.906 1823.18,884.548 1833.18,903.604 1843.18,894.581 1853.18,973.476 1863.17,1012.63 1873.17,1001.74 1883.17,1115.99 1893.17,1206.97 
  1903.16,1145.34 1913.16,1264.21 1923.16,1262.05 1933.16,1301.86 1943.15,1342.25 1953.15,1373.55 1963.15,1322.07 1973.15,1362.59 1983.14,1272.11 1993.14,1272.93 
  2003.14,1233.72 2013.14,1159.3 2023.14,1252.33 2033.13,1123.63 2043.13,1056.22 2053.13,952.308 2063.13,976.301 2073.12,991.029 2083.12,897.823 2093.12,943.216 
  2103.12,913.891 2113.11,950.808 2123.11,938.111 2133.11,955.482 2143.11,983.427 2153.1,1081.53 2163.1,1019.85 2173.1,1138.11 2183.1,1171.71 2193.09,1216.61 
  2203.09,1340.35 2213.09,1262.03 2223.09,1276.95 2233.08,1350.79 2243.08,1362.53 2253.08,1384.3 2263.08,1257.88 2273.08,1269.25 2283.07,1304.69 2293.07,1185.81 
  
  "/>
<path clip-path="url(#clip7100)" d="
M1880.28 1020.8 L2280.76 1020.8 L2280.76 899.836 L1880.28 899.836  Z
  " fill="#ffffff" fill-rule="evenodd" fill-opacity="1"/>
<polyline clip-path="url(#clip7100)" style="stroke:#000000; stroke-width:4; stroke-opacity:1; fill:none" points="
  1880.28,1020.8 2280.76,1020.8 2280.76,899.836 1880.28,899.836 1880.28,1020.8 
  "/>
<polyline clip-path="url(#clip7100)" style="stroke:#009af9; stroke-width:4; stroke-opacity:1; fill:none" points="
  1904.28,960.316 2048.28,960.316 
  "/>
<g clip-path="url(#clip7100)">
<text style="fill:#000000; fill-opacity:1; font-family:Arial,Helvetica Neue,Helvetica,sans-serif; font-size:48px; text-anchor:start;" transform="rotate(0, 2072.28, 977.816)" x="2072.28" y="977.816">iaaft(ts)</text>
</g>
</svg>
