<?xml version="1.0" encoding="utf-8"?>
<svg xmlns="http://www.w3.org/2000/svg" xmlns:xlink="http://www.w3.org/1999/xlink" width="600" height="400" viewBox="0 0 2400 1600">
<defs>
  <clipPath id="clip3500">
    <rect x="0" y="0" width="2400" height="1600"/>
  </clipPath>
</defs>
<path clip-path="url(#clip3500)" d="
M0 1600 L2400 1600 L2400 0 L0 0  Z
  " fill="#ffffff" fill-rule="evenodd" fill-opacity="1"/>
<defs>
  <clipPath id="clip3501">
    <rect x="480" y="0" width="1681" height="1600"/>
  </clipPath>
</defs>
<path clip-path="url(#clip3500)" d="
M243.864 656.547 L2352.76 656.547 L2352.76 47.2441 L243.864 47.2441  Z
  " fill="#ffffff" fill-rule="evenodd" fill-opacity="1"/>
<defs>
  <clipPath id="clip3502">
    <rect x="243" y="47" width="2110" height="610"/>
  </clipPath>
</defs>
<polyline clip-path="url(#clip3502)" style="stroke:#000000; stroke-width:2; stroke-opacity:0.1; fill:none" points="
  290.286,656.547 290.286,47.2441 
  "/>
<polyline clip-path="url(#clip3502)" style="stroke:#000000; stroke-width:2; stroke-opacity:0.1; fill:none" points="
  953.46,656.547 953.46,47.2441 
  "/>
<polyline clip-path="url(#clip3502)" style="stroke:#000000; stroke-width:2; stroke-opacity:0.1; fill:none" points="
  1616.63,656.547 1616.63,47.2441 
  "/>
<polyline clip-path="url(#clip3502)" style="stroke:#000000; stroke-width:2; stroke-opacity:0.1; fill:none" points="
  2279.81,656.547 2279.81,47.2441 
  "/>
<polyline clip-path="url(#clip3502)" style="stroke:#000000; stroke-width:2; stroke-opacity:0.1; fill:none" points="
  243.864,651.674 2352.76,651.674 
  "/>
<polyline clip-path="url(#clip3502)" style="stroke:#000000; stroke-width:2; stroke-opacity:0.1; fill:none" points="
  243.864,496.587 2352.76,496.587 
  "/>
<polyline clip-path="url(#clip3502)" style="stroke:#000000; stroke-width:2; stroke-opacity:0.1; fill:none" points="
  243.864,341.5 2352.76,341.5 
  "/>
<polyline clip-path="url(#clip3502)" style="stroke:#000000; stroke-width:2; stroke-opacity:0.1; fill:none" points="
  243.864,186.414 2352.76,186.414 
  "/>
<polyline clip-path="url(#clip3500)" style="stroke:#000000; stroke-width:4; stroke-opacity:1; fill:none" points="
  243.864,656.547 2352.76,656.547 
  "/>
<polyline clip-path="url(#clip3500)" style="stroke:#000000; stroke-width:4; stroke-opacity:1; fill:none" points="
  243.864,656.547 243.864,47.2441 
  "/>
<polyline clip-path="url(#clip3500)" style="stroke:#000000; stroke-width:4; stroke-opacity:1; fill:none" points="
  290.286,656.547 290.286,647.407 
  "/>
<polyline clip-path="url(#clip3500)" style="stroke:#000000; stroke-width:4; stroke-opacity:1; fill:none" points="
  953.46,656.547 953.46,647.407 
  "/>
<polyline clip-path="url(#clip3500)" style="stroke:#000000; stroke-width:4; stroke-opacity:1; fill:none" points="
  1616.63,656.547 1616.63,647.407 
  "/>
<polyline clip-path="url(#clip3500)" style="stroke:#000000; stroke-width:4; stroke-opacity:1; fill:none" points="
  2279.81,656.547 2279.81,647.407 
  "/>
<polyline clip-path="url(#clip3500)" style="stroke:#000000; stroke-width:4; stroke-opacity:1; fill:none" points="
  243.864,651.674 275.498,651.674 
  "/>
<polyline clip-path="url(#clip3500)" style="stroke:#000000; stroke-width:4; stroke-opacity:1; fill:none" points="
  243.864,496.587 275.498,496.587 
  "/>
<polyline clip-path="url(#clip3500)" style="stroke:#000000; stroke-width:4; stroke-opacity:1; fill:none" points="
  243.864,341.5 275.498,341.5 
  "/>
<polyline clip-path="url(#clip3500)" style="stroke:#000000; stroke-width:4; stroke-opacity:1; fill:none" points="
  243.864,186.414 275.498,186.414 
  "/>
<g clip-path="url(#clip3500)">
<text style="fill:#000000; fill-opacity:1; font-family:Arial,Helvetica Neue,Helvetica,sans-serif; font-size:48px; text-anchor:middle;" transform="rotate(0, 290.286, 710.547)" x="290.286" y="710.547">0</text>
</g>
<g clip-path="url(#clip3500)">
<text style="fill:#000000; fill-opacity:1; font-family:Arial,Helvetica Neue,Helvetica,sans-serif; font-size:48px; text-anchor:middle;" transform="rotate(0, 953.46, 710.547)" x="953.46" y="710.547">50</text>
</g>
<g clip-path="url(#clip3500)">
<text style="fill:#000000; fill-opacity:1; font-family:Arial,Helvetica Neue,Helvetica,sans-serif; font-size:48px; text-anchor:middle;" transform="rotate(0, 1616.63, 710.547)" x="1616.63" y="710.547">100</text>
</g>
<g clip-path="url(#clip3500)">
<text style="fill:#000000; fill-opacity:1; font-family:Arial,Helvetica Neue,Helvetica,sans-serif; font-size:48px; text-anchor:middle;" transform="rotate(0, 2279.81, 710.547)" x="2279.81" y="710.547">150</text>
</g>
<g clip-path="url(#clip3500)">
<text style="fill:#000000; fill-opacity:1; font-family:Arial,Helvetica Neue,Helvetica,sans-serif; font-size:48px; text-anchor:end;" transform="rotate(0, 219.864, 669.174)" x="219.864" y="669.174">-1.0</text>
</g>
<g clip-path="url(#clip3500)">
<text style="fill:#000000; fill-opacity:1; font-family:Arial,Helvetica Neue,Helvetica,sans-serif; font-size:48px; text-anchor:end;" transform="rotate(0, 219.864, 514.087)" x="219.864" y="514.087">-0.5</text>
</g>
<g clip-path="url(#clip3500)">
<text style="fill:#000000; fill-opacity:1; font-family:Arial,Helvetica Neue,Helvetica,sans-serif; font-size:48px; text-anchor:end;" transform="rotate(0, 219.864, 359)" x="219.864" y="359">0.0</text>
</g>
<g clip-path="url(#clip3500)">
<text style="fill:#000000; fill-opacity:1; font-family:Arial,Helvetica Neue,Helvetica,sans-serif; font-size:48px; text-anchor:end;" transform="rotate(0, 219.864, 203.914)" x="219.864" y="203.914">0.5</text>
</g>
<g clip-path="url(#clip3500)">
<text style="fill:#000000; fill-opacity:1; font-family:Arial,Helvetica Neue,Helvetica,sans-serif; font-size:66px; text-anchor:middle;" transform="rotate(-90, 89.2861, 351.895)" x="89.2861" y="351.895">Value</text>
</g>
<polyline clip-path="url(#clip3502)" style="stroke:#009af9; stroke-width:4; stroke-opacity:1; fill:none" points="
  303.55,234.396 316.813,76.9046 330.077,334.874 343.34,321.844 356.604,269.484 369.867,149.252 383.131,235.824 396.394,64.4885 409.658,270.407 422.921,169.9 
  436.184,179.796 449.448,96.2614 462.711,372.832 475.975,478.607 489.238,486.226 502.502,466.903 515.765,634.657 529.029,593.785 542.292,383.644 555.556,527.639 
  568.819,503.875 582.083,554.49 595.346,539.047 608.61,368.136 621.873,443.338 635.137,476.748 648.4,494.279 661.663,601.745 674.927,513.089 688.19,345.232 
  701.454,354.053 714.717,383.875 727.981,507.318 741.244,587.707 754.508,493.739 767.771,513.513 781.035,365.649 794.298,424.222 807.562,416.084 820.825,639.302 
  834.089,493.242 847.352,603.772 860.616,586.819 873.879,616.841 887.142,558.328 900.406,536.128 913.669,559.323 926.933,377.474 940.196,498.291 953.46,587.617 
  966.723,563.534 979.987,621.006 993.25,582.518 1006.51,403.904 1019.78,579.856 1033.04,470.619 1046.3,420.415 1059.57,366.568 1072.83,434.88 1086.09,434.21 
  1099.36,494.83 1112.62,532.036 1125.88,491.735 1139.15,526.992 1152.41,423.48 1165.68,436.521 1178.94,476.584 1192.2,500.508 1205.47,369.412 1218.73,456.709 
  1231.99,575.73 1245.26,582.144 1258.52,632.974 1271.78,546.311 1285.05,604.108 1298.31,598.384 1311.57,356.564 1324.84,404.196 1338.1,630.669 1351.36,512.477 
  1364.63,638.52 1377.89,637.508 1391.15,510.267 1404.42,443.78 1417.68,541.768 1430.94,545.079 1444.21,421.169 1457.47,385.322 1470.74,500.279 1484,344.701 
  1497.26,352.662 1510.53,376.698 1523.79,497.068 1537.05,635.507 1550.32,634.142 1563.58,444.935 1576.84,583.983 1590.11,514.067 1603.37,447.199 1616.63,527.137 
  1629.9,446.709 1643.16,538.327 1656.42,387.137 1669.69,548.377 1682.95,431.311 1696.21,428.528 1709.48,415.728 1722.74,342.651 1736,345.341 1749.27,353.663 
  1762.53,387.851 1775.79,511.051 1789.06,442.093 1802.32,524.182 1815.59,574.951 1828.85,432.103 1842.11,492.249 1855.38,557.576 1868.64,363.136 1881.9,431.016 
  1895.17,444.611 1908.43,478.833 1921.69,503.301 1934.96,346.831 1948.22,358.907 1961.48,406.508 1974.75,591.349 1988.01,603.427 2001.27,405.527 2014.54,638.183 
  2027.8,610.82 2041.06,567.786 2054.33,598.928 2067.59,465.913 2080.85,356.682 2094.12,405.362 2107.38,341.659 2120.65,342.136 2133.91,343.993 2147.17,350.792 
  2160.44,371.81 2173.7,463.77 2186.96,602.285 2200.23,350.256 2213.49,371.598 2226.75,447.761 2240.02,555.881 2253.28,348.042 2266.54,368.166 2279.81,455.61 
  2293.07,610.007 
  "/>
<path clip-path="url(#clip3500)" d="
M2016.69 251.724 L2280.76 251.724 L2280.76 130.764 L2016.69 130.764  Z
  " fill="#ffffff" fill-rule="evenodd" fill-opacity="1"/>
<polyline clip-path="url(#clip3500)" style="stroke:#000000; stroke-width:4; stroke-opacity:1; fill:none" points="
  2016.69,251.724 2280.76,251.724 2280.76,130.764 2016.69,130.764 2016.69,251.724 
  "/>
<polyline clip-path="url(#clip3500)" style="stroke:#009af9; stroke-width:4; stroke-opacity:1; fill:none" points="
  2040.69,191.244 2184.69,191.244 
  "/>
<g clip-path="url(#clip3500)">
<text style="fill:#000000; fill-opacity:1; font-family:Arial,Helvetica Neue,Helvetica,sans-serif; font-size:48px; text-anchor:start;" transform="rotate(0, 2208.69, 208.744)" x="2208.69" y="208.744">x</text>
</g>
<path clip-path="url(#clip3500)" d="
M243.864 1425.62 L2352.76 1425.62 L2352.76 816.316 L243.864 816.316  Z
  " fill="#ffffff" fill-rule="evenodd" fill-opacity="1"/>
<defs>
  <clipPath id="clip3503">
    <rect x="243" y="816" width="2110" height="610"/>
  </clipPath>
</defs>
<polyline clip-path="url(#clip3503)" style="stroke:#000000; stroke-width:2; stroke-opacity:0.1; fill:none" points="
  290.286,1425.62 290.286,816.316 
  "/>
<polyline clip-path="url(#clip3503)" style="stroke:#000000; stroke-width:2; stroke-opacity:0.1; fill:none" points="
  953.46,1425.62 953.46,816.316 
  "/>
<polyline clip-path="url(#clip3503)" style="stroke:#000000; stroke-width:2; stroke-opacity:0.1; fill:none" points="
  1616.63,1425.62 1616.63,816.316 
  "/>
<polyline clip-path="url(#clip3503)" style="stroke:#000000; stroke-width:2; stroke-opacity:0.1; fill:none" points="
  2279.81,1425.62 2279.81,816.316 
  "/>
<polyline clip-path="url(#clip3503)" style="stroke:#000000; stroke-width:2; stroke-opacity:0.1; fill:none" points="
  243.864,1368.15 2352.76,1368.15 
  "/>
<polyline clip-path="url(#clip3503)" style="stroke:#000000; stroke-width:2; stroke-opacity:0.1; fill:none" points="
  243.864,1296.83 2352.76,1296.83 
  "/>
<polyline clip-path="url(#clip3503)" style="stroke:#000000; stroke-width:2; stroke-opacity:0.1; fill:none" points="
  243.864,1225.52 2352.76,1225.52 
  "/>
<polyline clip-path="url(#clip3503)" style="stroke:#000000; stroke-width:2; stroke-opacity:0.1; fill:none" points="
  243.864,1154.2 2352.76,1154.2 
  "/>
<polyline clip-path="url(#clip3503)" style="stroke:#000000; stroke-width:2; stroke-opacity:0.1; fill:none" points="
  243.864,1082.89 2352.76,1082.89 
  "/>
<polyline clip-path="url(#clip3503)" style="stroke:#000000; stroke-width:2; stroke-opacity:0.1; fill:none" points="
  243.864,1011.57 2352.76,1011.57 
  "/>
<polyline clip-path="url(#clip3503)" style="stroke:#000000; stroke-width:2; stroke-opacity:0.1; fill:none" points="
  243.864,940.258 2352.76,940.258 
  "/>
<polyline clip-path="url(#clip3503)" style="stroke:#000000; stroke-width:2; stroke-opacity:0.1; fill:none" points="
  243.864,868.943 2352.76,868.943 
  "/>
<polyline clip-path="url(#clip3500)" style="stroke:#000000; stroke-width:4; stroke-opacity:1; fill:none" points="
  243.864,1425.62 2352.76,1425.62 
  "/>
<polyline clip-path="url(#clip3500)" style="stroke:#000000; stroke-width:4; stroke-opacity:1; fill:none" points="
  243.864,1425.62 243.864,816.316 
  "/>
<polyline clip-path="url(#clip3500)" style="stroke:#000000; stroke-width:4; stroke-opacity:1; fill:none" points="
  290.286,1425.62 290.286,1416.48 
  "/>
<polyline clip-path="url(#clip3500)" style="stroke:#000000; stroke-width:4; stroke-opacity:1; fill:none" points="
  953.46,1425.62 953.46,1416.48 
  "/>
<polyline clip-path="url(#clip3500)" style="stroke:#000000; stroke-width:4; stroke-opacity:1; fill:none" points="
  1616.63,1425.62 1616.63,1416.48 
  "/>
<polyline clip-path="url(#clip3500)" style="stroke:#000000; stroke-width:4; stroke-opacity:1; fill:none" points="
  2279.81,1425.62 2279.81,1416.48 
  "/>
<polyline clip-path="url(#clip3500)" style="stroke:#000000; stroke-width:4; stroke-opacity:1; fill:none" points="
  243.864,1368.15 275.498,1368.15 
  "/>
<polyline clip-path="url(#clip3500)" style="stroke:#000000; stroke-width:4; stroke-opacity:1; fill:none" points="
  243.864,1296.83 275.498,1296.83 
  "/>
<polyline clip-path="url(#clip3500)" style="stroke:#000000; stroke-width:4; stroke-opacity:1; fill:none" points="
  243.864,1225.52 275.498,1225.52 
  "/>
<polyline clip-path="url(#clip3500)" style="stroke:#000000; stroke-width:4; stroke-opacity:1; fill:none" points="
  243.864,1154.2 275.498,1154.2 
  "/>
<polyline clip-path="url(#clip3500)" style="stroke:#000000; stroke-width:4; stroke-opacity:1; fill:none" points="
  243.864,1082.89 275.498,1082.89 
  "/>
<polyline clip-path="url(#clip3500)" style="stroke:#000000; stroke-width:4; stroke-opacity:1; fill:none" points="
  243.864,1011.57 275.498,1011.57 
  "/>
<polyline clip-path="url(#clip3500)" style="stroke:#000000; stroke-width:4; stroke-opacity:1; fill:none" points="
  243.864,940.258 275.498,940.258 
  "/>
<polyline clip-path="url(#clip3500)" style="stroke:#000000; stroke-width:4; stroke-opacity:1; fill:none" points="
  243.864,868.943 275.498,868.943 
  "/>
<g clip-path="url(#clip3500)">
<text style="fill:#000000; fill-opacity:1; font-family:Arial,Helvetica Neue,Helvetica,sans-serif; font-size:48px; text-anchor:middle;" transform="rotate(0, 290.286, 1479.62)" x="290.286" y="1479.62">0</text>
</g>
<g clip-path="url(#clip3500)">
<text style="fill:#000000; fill-opacity:1; font-family:Arial,Helvetica Neue,Helvetica,sans-serif; font-size:48px; text-anchor:middle;" transform="rotate(0, 953.46, 1479.62)" x="953.46" y="1479.62">50</text>
</g>
<g clip-path="url(#clip3500)">
<text style="fill:#000000; fill-opacity:1; font-family:Arial,Helvetica Neue,Helvetica,sans-serif; font-size:48px; text-anchor:middle;" transform="rotate(0, 1616.63, 1479.62)" x="1616.63" y="1479.62">100</text>
</g>
<g clip-path="url(#clip3500)">
<text style="fill:#000000; fill-opacity:1; font-family:Arial,Helvetica Neue,Helvetica,sans-serif; font-size:48px; text-anchor:middle;" transform="rotate(0, 2279.81, 1479.62)" x="2279.81" y="1479.62">150</text>
</g>
<g clip-path="url(#clip3500)">
<text style="fill:#000000; fill-opacity:1; font-family:Arial,Helvetica Neue,Helvetica,sans-serif; font-size:48px; text-anchor:end;" transform="rotate(0, 219.864, 1385.65)" x="219.864" y="1385.65">-1.2</text>
</g>
<g clip-path="url(#clip3500)">
<text style="fill:#000000; fill-opacity:1; font-family:Arial,Helvetica Neue,Helvetica,sans-serif; font-size:48px; text-anchor:end;" transform="rotate(0, 219.864, 1314.33)" x="219.864" y="1314.33">-1.0</text>
</g>
<g clip-path="url(#clip3500)">
<text style="fill:#000000; fill-opacity:1; font-family:Arial,Helvetica Neue,Helvetica,sans-serif; font-size:48px; text-anchor:end;" transform="rotate(0, 219.864, 1243.02)" x="219.864" y="1243.02">-0.8</text>
</g>
<g clip-path="url(#clip3500)">
<text style="fill:#000000; fill-opacity:1; font-family:Arial,Helvetica Neue,Helvetica,sans-serif; font-size:48px; text-anchor:end;" transform="rotate(0, 219.864, 1171.7)" x="219.864" y="1171.7">-0.6</text>
</g>
<g clip-path="url(#clip3500)">
<text style="fill:#000000; fill-opacity:1; font-family:Arial,Helvetica Neue,Helvetica,sans-serif; font-size:48px; text-anchor:end;" transform="rotate(0, 219.864, 1100.39)" x="219.864" y="1100.39">-0.4</text>
</g>
<g clip-path="url(#clip3500)">
<text style="fill:#000000; fill-opacity:1; font-family:Arial,Helvetica Neue,Helvetica,sans-serif; font-size:48px; text-anchor:end;" transform="rotate(0, 219.864, 1029.07)" x="219.864" y="1029.07">-0.2</text>
</g>
<g clip-path="url(#clip3500)">
<text style="fill:#000000; fill-opacity:1; font-family:Arial,Helvetica Neue,Helvetica,sans-serif; font-size:48px; text-anchor:end;" transform="rotate(0, 219.864, 957.758)" x="219.864" y="957.758">0.0</text>
</g>
<g clip-path="url(#clip3500)">
<text style="fill:#000000; fill-opacity:1; font-family:Arial,Helvetica Neue,Helvetica,sans-serif; font-size:48px; text-anchor:end;" transform="rotate(0, 219.864, 886.443)" x="219.864" y="886.443">0.2</text>
</g>
<g clip-path="url(#clip3500)">
<text style="fill:#000000; fill-opacity:1; font-family:Arial,Helvetica Neue,Helvetica,sans-serif; font-size:66px; text-anchor:middle;" transform="rotate(0, 1298.31, 1559.48)" x="1298.31" y="1559.48">Time step</text>
</g>
<g clip-path="url(#clip3500)">
<text style="fill:#000000; fill-opacity:1; font-family:Arial,Helvetica Neue,Helvetica,sans-serif; font-size:66px; text-anchor:middle;" transform="rotate(-90, 89.2861, 1120.97)" x="89.2861" y="1120.97">Value</text>
</g>
<polyline clip-path="url(#clip3503)" style="stroke:#009af9; stroke-width:4; stroke-opacity:1; fill:none" points="
  303.55,1368.14 316.813,1318.17 330.077,1334.22 343.34,1204.77 356.604,1118.26 369.867,1232.64 383.131,1213.29 396.394,1185.55 409.658,1026.12 422.921,1048.31 
  436.184,1018.26 449.448,1163 462.711,1181.68 475.975,1166.74 489.238,1031.29 502.502,1048.03 515.765,1298.88 529.029,1274.25 542.292,1228.04 555.556,1158.07 
  568.819,1233.6 582.083,1314.14 595.346,1124.78 608.61,1042.62 621.873,1241.33 635.137,1268.88 648.4,1183.05 661.663,1018.62 674.927,1200.16 688.19,1065.54 
  701.454,1059.64 714.717,1111.04 727.981,1116.43 741.244,1058.45 754.508,1173.71 767.771,1285.1 781.035,1051.55 794.298,921.114 807.562,911.652 820.825,960.2 
  834.089,991.756 847.352,951.752 860.616,986.562 873.879,1091.73 887.142,980.882 900.406,1093.03 913.669,1164.99 926.933,1034.58 940.196,1015.35 953.46,1079.79 
  966.723,1010.74 979.987,1040.53 993.25,1104.21 1006.51,1130.77 1019.78,1164.17 1033.04,1070.26 1046.3,967.397 1059.57,1044.77 1072.83,1099.03 1086.09,994.211 
  1099.36,955.607 1112.62,995.275 1125.88,1006.99 1139.15,1041.7 1152.41,1066.11 1165.68,1003.41 1178.94,1034.9 1192.2,989.608 1205.47,1031.78 1218.73,1004.75 
  1231.99,1002.61 1245.26,1056.33 1258.52,1077.86 1271.78,1022.12 1285.05,1000.13 1298.31,997.156 1311.57,1024.39 1324.84,1030.2 1338.1,1028.96 1351.36,1025.62 
  1364.63,975.788 1377.89,1038.56 1391.15,1002.91 1404.42,927.604 1417.68,960.993 1430.94,1021.31 1444.21,987.357 1457.47,1024.14 1470.74,1007.86 1484,1030.03 
  1497.26,931.59 1510.53,938.171 1523.79,1037 1537.05,980.679 1550.32,1044.93 1563.58,1047.86 1576.84,1156.33 1590.11,1102.05 1603.37,973.827 1616.63,1017.77 
  1629.9,1114.84 1643.16,980.063 1656.42,1072.96 1669.69,1008.01 1682.95,1106.74 1696.21,1142.78 1709.48,1031.9 1722.74,1149.59 1736,1169.34 1749.27,1020.85 
  1762.53,1093.56 1775.79,1081.5 1789.06,990.661 1802.32,1056.37 1815.59,1060.56 1828.85,1099.14 1842.11,974.825 1855.38,1050.18 1868.64,1081.15 1881.9,893.855 
  1895.17,833.56 1908.43,1015.72 1921.69,1109.05 1934.96,1090.85 1948.22,1203.69 1961.48,1207.14 1974.75,1178.8 1988.01,915.793 2001.27,952.06 2014.54,986.43 
  2027.8,1135.92 2041.06,977.79 2054.33,934.419 2067.59,1044.22 2080.85,1066.43 2094.12,1035.21 2107.38,933.824 2120.65,926.911 2133.91,978.857 2147.17,948.811 
  2160.44,952.615 2173.7,1001.68 2186.96,884.364 2200.23,1113.86 2213.49,1111.01 2226.75,1116.99 2240.02,1249.99 2253.28,1408.37 2266.54,1226.39 2279.81,1250.18 
  2293.07,1394.65 
  "/>
<path clip-path="url(#clip3500)" d="
M1666.28 1020.8 L2280.76 1020.8 L2280.76 899.836 L1666.28 899.836  Z
  " fill="#ffffff" fill-rule="evenodd" fill-opacity="1"/>
<polyline clip-path="url(#clip3500)" style="stroke:#000000; stroke-width:4; stroke-opacity:1; fill:none" points="
  1666.28,1020.8 2280.76,1020.8 2280.76,899.836 1666.28,899.836 1666.28,1020.8 
  "/>
<polyline clip-path="url(#clip3500)" style="stroke:#009af9; stroke-width:4; stroke-opacity:1; fill:none" points="
  1690.28,960.316 1834.28,960.316 
  "/>
<g clip-path="url(#clip3500)">
<text style="fill:#000000; fill-opacity:1; font-family:Arial,Helvetica Neue,Helvetica,sans-serif; font-size:48px; text-anchor:start;" transform="rotate(0, 1858.28, 977.816)" x="1858.28" y="977.816">randomphases(x)</text>
</g>
</svg>
