<?xml version="1.0" encoding="utf-8"?>
<svg xmlns="http://www.w3.org/2000/svg" xmlns:xlink="http://www.w3.org/1999/xlink" width="600" height="400" viewBox="0 0 2400 1600">
<defs>
  <clipPath id="clip2600">
    <rect x="0" y="0" width="2400" height="1600"/>
  </clipPath>
</defs>
<path clip-path="url(#clip2600)" d="
M0 1600 L2400 1600 L2400 0 L0 0  Z
  " fill="#ffffff" fill-rule="evenodd" fill-opacity="1"/>
<defs>
  <clipPath id="clip2601">
    <rect x="480" y="0" width="1681" height="1600"/>
  </clipPath>
</defs>
<path clip-path="url(#clip2600)" d="
M243.864 656.547 L2352.76 656.547 L2352.76 47.2441 L243.864 47.2441  Z
  " fill="#ffffff" fill-rule="evenodd" fill-opacity="1"/>
<defs>
  <clipPath id="clip2602">
    <rect x="243" y="47" width="2110" height="610"/>
  </clipPath>
</defs>
<polyline clip-path="url(#clip2602)" style="stroke:#000000; stroke-width:2; stroke-opacity:0.1; fill:none" points="
  293.552,656.547 293.552,47.2441 
  "/>
<polyline clip-path="url(#clip2602)" style="stroke:#000000; stroke-width:2; stroke-opacity:0.1; fill:none" points="
  793.432,656.547 793.432,47.2441 
  "/>
<polyline clip-path="url(#clip2602)" style="stroke:#000000; stroke-width:2; stroke-opacity:0.1; fill:none" points="
  1293.31,656.547 1293.31,47.2441 
  "/>
<polyline clip-path="url(#clip2602)" style="stroke:#000000; stroke-width:2; stroke-opacity:0.1; fill:none" points="
  1793.19,656.547 1793.19,47.2441 
  "/>
<polyline clip-path="url(#clip2602)" style="stroke:#000000; stroke-width:2; stroke-opacity:0.1; fill:none" points="
  2293.07,656.547 2293.07,47.2441 
  "/>
<polyline clip-path="url(#clip2602)" style="stroke:#000000; stroke-width:2; stroke-opacity:0.1; fill:none" points="
  243.864,561.069 2352.76,561.069 
  "/>
<polyline clip-path="url(#clip2602)" style="stroke:#000000; stroke-width:2; stroke-opacity:0.1; fill:none" points="
  243.864,453.406 2352.76,453.406 
  "/>
<polyline clip-path="url(#clip2602)" style="stroke:#000000; stroke-width:2; stroke-opacity:0.1; fill:none" points="
  243.864,345.743 2352.76,345.743 
  "/>
<polyline clip-path="url(#clip2602)" style="stroke:#000000; stroke-width:2; stroke-opacity:0.1; fill:none" points="
  243.864,238.081 2352.76,238.081 
  "/>
<polyline clip-path="url(#clip2602)" style="stroke:#000000; stroke-width:2; stroke-opacity:0.1; fill:none" points="
  243.864,130.418 2352.76,130.418 
  "/>
<polyline clip-path="url(#clip2600)" style="stroke:#000000; stroke-width:4; stroke-opacity:1; fill:none" points="
  243.864,656.547 2352.76,656.547 
  "/>
<polyline clip-path="url(#clip2600)" style="stroke:#000000; stroke-width:4; stroke-opacity:1; fill:none" points="
  243.864,656.547 243.864,47.2441 
  "/>
<polyline clip-path="url(#clip2600)" style="stroke:#000000; stroke-width:4; stroke-opacity:1; fill:none" points="
  293.552,656.547 293.552,647.407 
  "/>
<polyline clip-path="url(#clip2600)" style="stroke:#000000; stroke-width:4; stroke-opacity:1; fill:none" points="
  793.432,656.547 793.432,647.407 
  "/>
<polyline clip-path="url(#clip2600)" style="stroke:#000000; stroke-width:4; stroke-opacity:1; fill:none" points="
  1293.31,656.547 1293.31,647.407 
  "/>
<polyline clip-path="url(#clip2600)" style="stroke:#000000; stroke-width:4; stroke-opacity:1; fill:none" points="
  1793.19,656.547 1793.19,647.407 
  "/>
<polyline clip-path="url(#clip2600)" style="stroke:#000000; stroke-width:4; stroke-opacity:1; fill:none" points="
  2293.07,656.547 2293.07,647.407 
  "/>
<polyline clip-path="url(#clip2600)" style="stroke:#000000; stroke-width:4; stroke-opacity:1; fill:none" points="
  243.864,561.069 275.498,561.069 
  "/>
<polyline clip-path="url(#clip2600)" style="stroke:#000000; stroke-width:4; stroke-opacity:1; fill:none" points="
  243.864,453.406 275.498,453.406 
  "/>
<polyline clip-path="url(#clip2600)" style="stroke:#000000; stroke-width:4; stroke-opacity:1; fill:none" points="
  243.864,345.743 275.498,345.743 
  "/>
<polyline clip-path="url(#clip2600)" style="stroke:#000000; stroke-width:4; stroke-opacity:1; fill:none" points="
  243.864,238.081 275.498,238.081 
  "/>
<polyline clip-path="url(#clip2600)" style="stroke:#000000; stroke-width:4; stroke-opacity:1; fill:none" points="
  243.864,130.418 275.498,130.418 
  "/>
<g clip-path="url(#clip2600)">
<text style="fill:#000000; fill-opacity:1; font-family:Arial,Helvetica Neue,Helvetica,sans-serif; font-size:48px; text-anchor:middle;" transform="rotate(0, 293.552, 710.547)" x="293.552" y="710.547">0</text>
</g>
<g clip-path="url(#clip2600)">
<text style="fill:#000000; fill-opacity:1; font-family:Arial,Helvetica Neue,Helvetica,sans-serif; font-size:48px; text-anchor:middle;" transform="rotate(0, 793.432, 710.547)" x="793.432" y="710.547">50</text>
</g>
<g clip-path="url(#clip2600)">
<text style="fill:#000000; fill-opacity:1; font-family:Arial,Helvetica Neue,Helvetica,sans-serif; font-size:48px; text-anchor:middle;" transform="rotate(0, 1293.31, 710.547)" x="1293.31" y="710.547">100</text>
</g>
<g clip-path="url(#clip2600)">
<text style="fill:#000000; fill-opacity:1; font-family:Arial,Helvetica Neue,Helvetica,sans-serif; font-size:48px; text-anchor:middle;" transform="rotate(0, 1793.19, 710.547)" x="1793.19" y="710.547">150</text>
</g>
<g clip-path="url(#clip2600)">
<text style="fill:#000000; fill-opacity:1; font-family:Arial,Helvetica Neue,Helvetica,sans-serif; font-size:48px; text-anchor:middle;" transform="rotate(0, 2293.07, 710.547)" x="2293.07" y="710.547">200</text>
</g>
<g clip-path="url(#clip2600)">
<text style="fill:#000000; fill-opacity:1; font-family:Arial,Helvetica Neue,Helvetica,sans-serif; font-size:48px; text-anchor:end;" transform="rotate(0, 219.864, 578.569)" x="219.864" y="578.569">-1.0</text>
</g>
<g clip-path="url(#clip2600)">
<text style="fill:#000000; fill-opacity:1; font-family:Arial,Helvetica Neue,Helvetica,sans-serif; font-size:48px; text-anchor:end;" transform="rotate(0, 219.864, 470.906)" x="219.864" y="470.906">-0.5</text>
</g>
<g clip-path="url(#clip2600)">
<text style="fill:#000000; fill-opacity:1; font-family:Arial,Helvetica Neue,Helvetica,sans-serif; font-size:48px; text-anchor:end;" transform="rotate(0, 219.864, 363.243)" x="219.864" y="363.243">0.0</text>
</g>
<g clip-path="url(#clip2600)">
<text style="fill:#000000; fill-opacity:1; font-family:Arial,Helvetica Neue,Helvetica,sans-serif; font-size:48px; text-anchor:end;" transform="rotate(0, 219.864, 255.581)" x="219.864" y="255.581">0.5</text>
</g>
<g clip-path="url(#clip2600)">
<text style="fill:#000000; fill-opacity:1; font-family:Arial,Helvetica Neue,Helvetica,sans-serif; font-size:48px; text-anchor:end;" transform="rotate(0, 219.864, 147.918)" x="219.864" y="147.918">1.0</text>
</g>
<g clip-path="url(#clip2600)">
<text style="fill:#000000; fill-opacity:1; font-family:Arial,Helvetica Neue,Helvetica,sans-serif; font-size:66px; text-anchor:middle;" transform="rotate(-90, 89.2861, 351.895)" x="89.2861" y="351.895">Value</text>
</g>
<polyline clip-path="url(#clip2602)" style="stroke:#000000; stroke-width:4; stroke-opacity:1; fill:none" points="
  303.55,183.711 313.547,64.4885 323.545,226.821 333.543,113.673 343.54,235.101 353.538,194.113 363.535,375.049 373.533,254.467 383.531,458.83 393.528,424.266 
  403.526,493.187 413.523,461.216 423.521,531.057 433.518,600.191 443.516,537.193 453.514,506.904 463.511,607.695 473.509,490.041 483.506,481.018 493.504,445.065 
  503.502,454.268 513.499,353.828 523.497,316.469 533.494,285.978 543.492,219.591 553.49,141.512 563.487,173.013 573.485,101.09 583.482,195.83 593.48,91.3488 
  603.477,144.678 613.475,230.157 623.473,179.917 633.47,168.518 643.468,296.995 653.465,284.581 663.463,396.09 673.461,389.377 683.458,500.7 693.456,456.908 
  703.453,585.951 713.451,513.527 723.449,555.485 733.446,545.586 743.444,523.693 753.441,539.356 763.439,545.801 773.437,471.138 783.434,425.832 793.432,335.831 
  803.429,414.511 813.427,260.804 823.424,235.594 833.422,199.568 843.42,185.042 853.417,116.629 863.415,117.062 873.412,148.677 883.41,149.51 893.408,190.674 
  903.405,184.541 913.403,167.696 923.4,287.34 933.398,307.814 943.396,292.726 953.393,378.213 963.391,455.706 973.388,495.645 983.386,566.905 993.384,538.963 
  1003.38,490.919 1013.38,572.806 1023.38,541.784 1033.37,598.073 1043.37,457.935 1053.37,546.767 1063.37,425.485 1073.36,336.469 1083.36,436.394 1093.36,230.089 
  1103.36,283.978 1113.35,278.328 1123.35,157.324 1133.35,184.689 1143.35,113.68 1153.34,78.0891 1163.34,124.363 1173.34,188.001 1183.34,178.431 1193.34,211.602 
  1203.33,197.542 1213.33,338.192 1223.33,266.036 1233.33,368.026 1243.32,455.325 1253.32,493.073 1263.32,515.271 1273.32,452.485 1283.31,550.162 1293.31,572.47 
  1303.31,614.918 1313.31,480.874 1323.3,519.775 1333.3,542.054 1343.3,484.576 1353.3,441.642 1363.29,371.833 1373.29,299.512 1383.29,268.184 1393.29,263.4 
  1403.28,186.684 1413.28,156.574 1423.28,102.614 1433.28,146.055 1443.28,121.878 1453.27,135.861 1463.27,154.043 1473.27,232.108 1483.27,241.973 1493.26,208.556 
  1503.26,353.366 1513.26,371.734 1523.26,351.465 1533.25,462.12 1543.25,460.963 1553.25,591.212 1563.25,532.103 1573.24,480.167 1583.24,559.524 1593.24,639.302 
  1603.24,507.583 1613.23,521.546 1623.23,422.034 1633.23,487.555 1643.23,342.115 1653.22,335.921 1663.22,343.155 1673.22,208.829 1683.22,276.312 1693.21,192.993 
  1703.21,88.0091 1713.21,178.733 1723.21,100.32 1733.21,210.161 1743.2,123.284 1753.2,175.671 1763.2,187.798 1773.2,190.921 1783.19,342.824 1793.19,350.245 
  1803.19,382.661 1813.19,403.643 1823.18,505.408 1833.18,418.147 1843.18,575.091 1853.18,557.948 1863.17,595.043 1873.17,560.896 1883.17,534.174 1893.17,464.094 
  1903.16,575.356 1913.16,441.446 1923.16,357.156 1933.16,340.076 1943.15,400.255 1953.15,204.875 1963.15,282.679 1973.15,149.559 1983.14,162.221 1993.14,169.663 
  2003.14,106.97 2013.14,137.546 2023.14,210.721 2033.13,85.9742 2043.13,235.341 2053.13,257.113 2063.13,231.292 2073.12,334.281 2083.12,311.304 2093.12,463.643 
  2103.12,426.196 2113.11,515.745 2123.11,523.426 2133.11,528.489 2143.11,500.257 2153.1,581.802 2163.1,609.682 2173.1,532.751 2183.1,467.746 2193.09,487.74 
  2203.09,421.694 2213.09,364.047 2223.09,318.682 2233.08,325.878 2243.08,286.361 2253.08,225.132 2263.08,105.423 2273.08,149.202 2283.07,194.707 2293.07,87.5907 
  
  "/>
<path clip-path="url(#clip2600)" d="
M2003.31 251.724 L2280.76 251.724 L2280.76 130.764 L2003.31 130.764  Z
  " fill="#ffffff" fill-rule="evenodd" fill-opacity="1"/>
<polyline clip-path="url(#clip2600)" style="stroke:#000000; stroke-width:4; stroke-opacity:1; fill:none" points="
  2003.31,251.724 2280.76,251.724 2280.76,130.764 2003.31,130.764 2003.31,251.724 
  "/>
<polyline clip-path="url(#clip2600)" style="stroke:#000000; stroke-width:4; stroke-opacity:1; fill:none" points="
  2027.31,191.244 2171.31,191.244 
  "/>
<g clip-path="url(#clip2600)">
<text style="fill:#000000; fill-opacity:1; font-family:Arial,Helvetica Neue,Helvetica,sans-serif; font-size:48px; text-anchor:start;" transform="rotate(0, 2195.31, 208.744)" x="2195.31" y="208.744">ts</text>
</g>
<path clip-path="url(#clip2600)" d="
M243.864 1425.62 L2352.76 1425.62 L2352.76 816.316 L243.864 816.316  Z
  " fill="#ffffff" fill-rule="evenodd" fill-opacity="1"/>
<defs>
  <clipPath id="clip2603">
    <rect x="243" y="816" width="2110" height="610"/>
  </clipPath>
</defs>
<polyline clip-path="url(#clip2603)" style="stroke:#000000; stroke-width:2; stroke-opacity:0.1; fill:none" points="
  293.552,1425.62 293.552,816.316 
  "/>
<polyline clip-path="url(#clip2603)" style="stroke:#000000; stroke-width:2; stroke-opacity:0.1; fill:none" points="
  793.432,1425.62 793.432,816.316 
  "/>
<polyline clip-path="url(#clip2603)" style="stroke:#000000; stroke-width:2; stroke-opacity:0.1; fill:none" points="
  1293.31,1425.62 1293.31,816.316 
  "/>
<polyline clip-path="url(#clip2603)" style="stroke:#000000; stroke-width:2; stroke-opacity:0.1; fill:none" points="
  1793.19,1425.62 1793.19,816.316 
  "/>
<polyline clip-path="url(#clip2603)" style="stroke:#000000; stroke-width:2; stroke-opacity:0.1; fill:none" points="
  2293.07,1425.62 2293.07,816.316 
  "/>
<polyline clip-path="url(#clip2603)" style="stroke:#000000; stroke-width:2; stroke-opacity:0.1; fill:none" points="
  243.864,1330.14 2352.76,1330.14 
  "/>
<polyline clip-path="url(#clip2603)" style="stroke:#000000; stroke-width:2; stroke-opacity:0.1; fill:none" points="
  243.864,1222.48 2352.76,1222.48 
  "/>
<polyline clip-path="url(#clip2603)" style="stroke:#000000; stroke-width:2; stroke-opacity:0.1; fill:none" points="
  243.864,1114.82 2352.76,1114.82 
  "/>
<polyline clip-path="url(#clip2603)" style="stroke:#000000; stroke-width:2; stroke-opacity:0.1; fill:none" points="
  243.864,1007.15 2352.76,1007.15 
  "/>
<polyline clip-path="url(#clip2603)" style="stroke:#000000; stroke-width:2; stroke-opacity:0.1; fill:none" points="
  243.864,899.49 2352.76,899.49 
  "/>
<polyline clip-path="url(#clip2600)" style="stroke:#000000; stroke-width:4; stroke-opacity:1; fill:none" points="
  243.864,1425.62 2352.76,1425.62 
  "/>
<polyline clip-path="url(#clip2600)" style="stroke:#000000; stroke-width:4; stroke-opacity:1; fill:none" points="
  243.864,1425.62 243.864,816.316 
  "/>
<polyline clip-path="url(#clip2600)" style="stroke:#000000; stroke-width:4; stroke-opacity:1; fill:none" points="
  293.552,1425.62 293.552,1416.48 
  "/>
<polyline clip-path="url(#clip2600)" style="stroke:#000000; stroke-width:4; stroke-opacity:1; fill:none" points="
  793.432,1425.62 793.432,1416.48 
  "/>
<polyline clip-path="url(#clip2600)" style="stroke:#000000; stroke-width:4; stroke-opacity:1; fill:none" points="
  1293.31,1425.62 1293.31,1416.48 
  "/>
<polyline clip-path="url(#clip2600)" style="stroke:#000000; stroke-width:4; stroke-opacity:1; fill:none" points="
  1793.19,1425.62 1793.19,1416.48 
  "/>
<polyline clip-path="url(#clip2600)" style="stroke:#000000; stroke-width:4; stroke-opacity:1; fill:none" points="
  2293.07,1425.62 2293.07,1416.48 
  "/>
<polyline clip-path="url(#clip2600)" style="stroke:#000000; stroke-width:4; stroke-opacity:1; fill:none" points="
  243.864,1330.14 275.498,1330.14 
  "/>
<polyline clip-path="url(#clip2600)" style="stroke:#000000; stroke-width:4; stroke-opacity:1; fill:none" points="
  243.864,1222.48 275.498,1222.48 
  "/>
<polyline clip-path="url(#clip2600)" style="stroke:#000000; stroke-width:4; stroke-opacity:1; fill:none" points="
  243.864,1114.82 275.498,1114.82 
  "/>
<polyline clip-path="url(#clip2600)" style="stroke:#000000; stroke-width:4; stroke-opacity:1; fill:none" points="
  243.864,1007.15 275.498,1007.15 
  "/>
<polyline clip-path="url(#clip2600)" style="stroke:#000000; stroke-width:4; stroke-opacity:1; fill:none" points="
  243.864,899.49 275.498,899.49 
  "/>
<g clip-path="url(#clip2600)">
<text style="fill:#000000; fill-opacity:1; font-family:Arial,Helvetica Neue,Helvetica,sans-serif; font-size:48px; text-anchor:middle;" transform="rotate(0, 293.552, 1479.62)" x="293.552" y="1479.62">0</text>
</g>
<g clip-path="url(#clip2600)">
<text style="fill:#000000; fill-opacity:1; font-family:Arial,Helvetica Neue,Helvetica,sans-serif; font-size:48px; text-anchor:middle;" transform="rotate(0, 793.432, 1479.62)" x="793.432" y="1479.62">50</text>
</g>
<g clip-path="url(#clip2600)">
<text style="fill:#000000; fill-opacity:1; font-family:Arial,Helvetica Neue,Helvetica,sans-serif; font-size:48px; text-anchor:middle;" transform="rotate(0, 1293.31, 1479.62)" x="1293.31" y="1479.62">100</text>
</g>
<g clip-path="url(#clip2600)">
<text style="fill:#000000; fill-opacity:1; font-family:Arial,Helvetica Neue,Helvetica,sans-serif; font-size:48px; text-anchor:middle;" transform="rotate(0, 1793.19, 1479.62)" x="1793.19" y="1479.62">150</text>
</g>
<g clip-path="url(#clip2600)">
<text style="fill:#000000; fill-opacity:1; font-family:Arial,Helvetica Neue,Helvetica,sans-serif; font-size:48px; text-anchor:middle;" transform="rotate(0, 2293.07, 1479.62)" x="2293.07" y="1479.62">200</text>
</g>
<g clip-path="url(#clip2600)">
<text style="fill:#000000; fill-opacity:1; font-family:Arial,Helvetica Neue,Helvetica,sans-serif; font-size:48px; text-anchor:end;" transform="rotate(0, 219.864, 1347.64)" x="219.864" y="1347.64">-1.0</text>
</g>
<g clip-path="url(#clip2600)">
<text style="fill:#000000; fill-opacity:1; font-family:Arial,Helvetica Neue,Helvetica,sans-serif; font-size:48px; text-anchor:end;" transform="rotate(0, 219.864, 1239.98)" x="219.864" y="1239.98">-0.5</text>
</g>
<g clip-path="url(#clip2600)">
<text style="fill:#000000; fill-opacity:1; font-family:Arial,Helvetica Neue,Helvetica,sans-serif; font-size:48px; text-anchor:end;" transform="rotate(0, 219.864, 1132.32)" x="219.864" y="1132.32">0.0</text>
</g>
<g clip-path="url(#clip2600)">
<text style="fill:#000000; fill-opacity:1; font-family:Arial,Helvetica Neue,Helvetica,sans-serif; font-size:48px; text-anchor:end;" transform="rotate(0, 219.864, 1024.65)" x="219.864" y="1024.65">0.5</text>
</g>
<g clip-path="url(#clip2600)">
<text style="fill:#000000; fill-opacity:1; font-family:Arial,Helvetica Neue,Helvetica,sans-serif; font-size:48px; text-anchor:end;" transform="rotate(0, 219.864, 916.99)" x="219.864" y="916.99">1.0</text>
</g>
<g clip-path="url(#clip2600)">
<text style="fill:#000000; fill-opacity:1; font-family:Arial,Helvetica Neue,Helvetica,sans-serif; font-size:66px; text-anchor:middle;" transform="rotate(0, 1298.31, 1559.48)" x="1298.31" y="1559.48">Time step</text>
</g>
<g clip-path="url(#clip2600)">
<text style="fill:#000000; fill-opacity:1; font-family:Arial,Helvetica Neue,Helvetica,sans-serif; font-size:66px; text-anchor:middle;" transform="rotate(-90, 89.2861, 1120.97)" x="89.2861" y="1120.97">Value</text>
</g>
<polyline clip-path="url(#clip2603)" style="stroke:#009af9; stroke-width:4; stroke-opacity:1; fill:none" points="
  303.55,1344.16 313.547,1360.28 323.545,1311.13 333.543,1355.02 343.54,1221.56 353.538,1227.9 363.535,1193.34 373.533,1225.98 383.531,1104.99 393.528,1055.43 
  403.526,1047.4 413.523,953.761 423.521,918.582 433.518,882.745 443.516,876.042 453.514,917.749 463.511,890.95 473.509,925.646 483.506,1004.67 493.504,937.59 
  503.502,1087.75 513.499,1053.05 523.497,1151.73 533.494,1191.11 543.492,1147.28 553.49,1259.99 563.487,1227.01 573.485,1376.77 583.482,1364.12 593.48,1314.66 
  603.477,1262.15 613.475,1262.26 623.473,1408.37 633.47,1224.4 643.468,1111.19 653.465,1105.54 663.463,1140.91 673.461,1023.54 683.458,1056.41 693.456,979.233 
  703.453,892.356 713.451,999.229 723.449,855.046 733.446,954.114 743.444,856.663 753.441,977.628 763.439,962.065 773.437,947.503 783.434,1004.41 793.432,1055.05 
  803.429,1094.95 813.427,1205.47 823.424,1165.16 833.422,1250.09 843.42,1290.62 853.417,1301.82 863.415,1300.13 873.412,1335.98 883.41,1276.66 893.408,1383.99 
  903.405,1282.6 913.403,1341.88 923.4,1140.81 933.398,1240.21 943.396,1120.54 953.393,1066.07 963.391,1004.17 973.388,1076.89 983.386,953.613 993.384,977.901 
  1003.38,871.686 1013.38,874.495 1023.38,942.085 1033.37,886.134 1043.37,926.396 1053.37,968.64 1063.37,957.073 1073.36,1080.38 1083.36,1000.36 1093.36,1137.1 
  1103.36,1126.23 1113.35,1232.71 1123.35,1274.48 1133.35,1288.85 1143.35,1275.98 1153.34,1292.76 1163.34,1344.43 1173.34,1308.43 1183.34,1284.34 1193.34,1301.18 
  1203.33,1259.11 1213.33,1195.27 1223.33,1183.58 1233.33,1122.44 1243.32,1037.26 1253.32,1035.11 1263.32,963.185 1273.32,979.793 1283.31,948.989 1293.31,910.583 
  1303.31,870.162 1313.31,947.805 1323.3,918.631 1333.3,952.783 1343.3,959.993 1353.3,1001.18 1363.29,1026.18 1373.29,1103.35 1383.29,1133.12 1393.29,1169.33 
  1403.28,1249.95 1413.28,1256.81 1423.28,1306.26 1433.28,1328.6 1443.28,1292.5 1453.27,1324.56 1463.27,1319.23 1473.27,1264.72 1483.27,1253.65 1493.26,1249.24 
  1503.26,1231.19 1513.26,1172.72 1523.26,1085.54 1533.25,1011.04 1543.25,1061.8 1553.25,963.779 1563.25,936.768 1573.24,931.293 1583.24,893.435 1593.24,913.75 
  1603.24,860.421 1613.23,955.756 1623.23,938.735 1633.23,964.902 1643.23,1045.38 1653.22,1112.23 1663.22,1068.58 1673.22,1194.9 1683.22,1214.14 1693.21,1310.86 
  1703.21,1256.63 1713.21,1303.25 1723.21,1369.26 1733.21,1378.75 1743.2,1314.87 1753.2,1269.33 1763.2,1297.56 1773.2,1327.02 1783.19,1144.12 1793.19,1190.77 
  1803.19,1223.34 1813.19,1051.75 1823.18,1032.47 1833.18,995.892 1843.18,923.115 1853.18,944.743 1863.17,857.081 1873.17,882.752 1883.17,966.614 1893.17,833.56 
  1903.16,956.87 1913.16,869.391 1923.16,1107.26 1933.16,1029.88 1943.15,994.204 1953.15,1187.22 1963.15,1194.56 1973.15,1119.32 1983.14,1269.77 1993.14,1315.84 
  2003.14,1284.82 2013.14,1350.87 2023.14,1367.15 2033.13,1341.54 2043.13,1210.71 2053.13,1308.04 2063.13,1233.17 2073.12,1158.45 2083.12,1230.04 2093.12,1053.65 
  2103.12,1111.9 2113.11,1104.9 2123.11,904.933 2133.11,988.663 2143.11,959.746 2153.1,885.701 2163.1,847.161 2173.1,906.618 2183.1,915.127 2193.09,980.674 
  2203.09,973.947 2213.09,918.274 2223.09,999.161 2233.08,1109.15 2243.08,1122.9 2253.08,1224.78 2263.08,1210.52 2273.08,1236.82 2283.07,1230.29 2293.07,1329.97 
  
  "/>
<path clip-path="url(#clip2600)" d="
M1890.96 1020.8 L2280.76 1020.8 L2280.76 899.836 L1890.96 899.836  Z
  " fill="#ffffff" fill-rule="evenodd" fill-opacity="1"/>
<polyline clip-path="url(#clip2600)" style="stroke:#000000; stroke-width:4; stroke-opacity:1; fill:none" points="
  1890.96,1020.8 2280.76,1020.8 2280.76,899.836 1890.96,899.836 1890.96,1020.8 
  "/>
<polyline clip-path="url(#clip2600)" style="stroke:#009af9; stroke-width:4; stroke-opacity:1; fill:none" points="
  1914.96,960.316 2058.96,960.316 
  "/>
<g clip-path="url(#clip2600)">
<text style="fill:#000000; fill-opacity:1; font-family:Arial,Helvetica Neue,Helvetica,sans-serif; font-size:48px; text-anchor:start;" transform="rotate(0, 2082.96, 977.816)" x="2082.96" y="977.816">aaft(ts)</text>
</g>
</svg>
