<?xml version="1.0" encoding="utf-8"?>
<svg xmlns="http://www.w3.org/2000/svg" xmlns:xlink="http://www.w3.org/1999/xlink" width="600" height="400" viewBox="0 0 2400 1600">
<defs>
  <clipPath id="clip8300">
    <rect x="0" y="0" width="2400" height="1600"/>
  </clipPath>
</defs>
<path clip-path="url(#clip8300)" d="
M0 1600 L2400 1600 L2400 0 L0 0  Z
  " fill="#ffffff" fill-rule="evenodd" fill-opacity="1"/>
<defs>
  <clipPath id="clip8301">
    <rect x="480" y="0" width="1681" height="1600"/>
  </clipPath>
</defs>
<path clip-path="url(#clip8300)" d="
M252.496 671.979 L2321.26 671.979 L2321.26 47.2441 L252.496 47.2441  Z
  " fill="#ffffff" fill-rule="evenodd" fill-opacity="1"/>
<defs>
  <clipPath id="clip8302">
    <rect x="252" y="47" width="2070" height="626"/>
  </clipPath>
</defs>
<polyline clip-path="url(#clip8302)" style="stroke:#000000; stroke-width:2; stroke-opacity:0.1; fill:none" points="
  291.332,671.979 291.332,47.2441 
  "/>
<polyline clip-path="url(#clip8302)" style="stroke:#000000; stroke-width:2; stroke-opacity:0.1; fill:none" points="
  784.177,671.979 784.177,47.2441 
  "/>
<polyline clip-path="url(#clip8302)" style="stroke:#000000; stroke-width:2; stroke-opacity:0.1; fill:none" points="
  1277.02,671.979 1277.02,47.2441 
  "/>
<polyline clip-path="url(#clip8302)" style="stroke:#000000; stroke-width:2; stroke-opacity:0.1; fill:none" points="
  1769.87,671.979 1769.87,47.2441 
  "/>
<polyline clip-path="url(#clip8302)" style="stroke:#000000; stroke-width:2; stroke-opacity:0.1; fill:none" points="
  2262.71,671.979 2262.71,47.2441 
  "/>
<polyline clip-path="url(#clip8302)" style="stroke:#000000; stroke-width:2; stroke-opacity:0.1; fill:none" points="
  252.496,584.075 2321.26,584.075 
  "/>
<polyline clip-path="url(#clip8302)" style="stroke:#000000; stroke-width:2; stroke-opacity:0.1; fill:none" points="
  252.496,473.583 2321.26,473.583 
  "/>
<polyline clip-path="url(#clip8302)" style="stroke:#000000; stroke-width:2; stroke-opacity:0.1; fill:none" points="
  252.496,363.09 2321.26,363.09 
  "/>
<polyline clip-path="url(#clip8302)" style="stroke:#000000; stroke-width:2; stroke-opacity:0.1; fill:none" points="
  252.496,252.597 2321.26,252.597 
  "/>
<polyline clip-path="url(#clip8302)" style="stroke:#000000; stroke-width:2; stroke-opacity:0.1; fill:none" points="
  252.496,142.105 2321.26,142.105 
  "/>
<polyline clip-path="url(#clip8300)" style="stroke:#000000; stroke-width:4; stroke-opacity:1; fill:none" points="
  252.496,671.979 2321.26,671.979 
  "/>
<polyline clip-path="url(#clip8300)" style="stroke:#000000; stroke-width:4; stroke-opacity:1; fill:none" points="
  252.496,671.979 252.496,47.2441 
  "/>
<polyline clip-path="url(#clip8300)" style="stroke:#000000; stroke-width:4; stroke-opacity:1; fill:none" points="
  291.332,671.979 291.332,662.608 
  "/>
<polyline clip-path="url(#clip8300)" style="stroke:#000000; stroke-width:4; stroke-opacity:1; fill:none" points="
  784.177,671.979 784.177,662.608 
  "/>
<polyline clip-path="url(#clip8300)" style="stroke:#000000; stroke-width:4; stroke-opacity:1; fill:none" points="
  1277.02,671.979 1277.02,662.608 
  "/>
<polyline clip-path="url(#clip8300)" style="stroke:#000000; stroke-width:4; stroke-opacity:1; fill:none" points="
  1769.87,671.979 1769.87,662.608 
  "/>
<polyline clip-path="url(#clip8300)" style="stroke:#000000; stroke-width:4; stroke-opacity:1; fill:none" points="
  2262.71,671.979 2262.71,662.608 
  "/>
<polyline clip-path="url(#clip8300)" style="stroke:#000000; stroke-width:4; stroke-opacity:1; fill:none" points="
  252.496,584.075 283.528,584.075 
  "/>
<polyline clip-path="url(#clip8300)" style="stroke:#000000; stroke-width:4; stroke-opacity:1; fill:none" points="
  252.496,473.583 283.528,473.583 
  "/>
<polyline clip-path="url(#clip8300)" style="stroke:#000000; stroke-width:4; stroke-opacity:1; fill:none" points="
  252.496,363.09 283.528,363.09 
  "/>
<polyline clip-path="url(#clip8300)" style="stroke:#000000; stroke-width:4; stroke-opacity:1; fill:none" points="
  252.496,252.597 283.528,252.597 
  "/>
<polyline clip-path="url(#clip8300)" style="stroke:#000000; stroke-width:4; stroke-opacity:1; fill:none" points="
  252.496,142.105 283.528,142.105 
  "/>
<g clip-path="url(#clip8300)">
<text style="fill:#000000; fill-opacity:1; font-family:Arial,Helvetica Neue,Helvetica,sans-serif; font-size:48px; text-anchor:middle;" transform="rotate(0, 291.332, 725.979)" x="291.332" y="725.979">0</text>
</g>
<g clip-path="url(#clip8300)">
<text style="fill:#000000; fill-opacity:1; font-family:Arial,Helvetica Neue,Helvetica,sans-serif; font-size:48px; text-anchor:middle;" transform="rotate(0, 784.177, 725.979)" x="784.177" y="725.979">25</text>
</g>
<g clip-path="url(#clip8300)">
<text style="fill:#000000; fill-opacity:1; font-family:Arial,Helvetica Neue,Helvetica,sans-serif; font-size:48px; text-anchor:middle;" transform="rotate(0, 1277.02, 725.979)" x="1277.02" y="725.979">50</text>
</g>
<g clip-path="url(#clip8300)">
<text style="fill:#000000; fill-opacity:1; font-family:Arial,Helvetica Neue,Helvetica,sans-serif; font-size:48px; text-anchor:middle;" transform="rotate(0, 1769.87, 725.979)" x="1769.87" y="725.979">75</text>
</g>
<g clip-path="url(#clip8300)">
<text style="fill:#000000; fill-opacity:1; font-family:Arial,Helvetica Neue,Helvetica,sans-serif; font-size:48px; text-anchor:middle;" transform="rotate(0, 2262.71, 725.979)" x="2262.71" y="725.979">100</text>
</g>
<g clip-path="url(#clip8300)">
<text style="fill:#000000; fill-opacity:1; font-family:Arial,Helvetica Neue,Helvetica,sans-serif; font-size:48px; text-anchor:end;" transform="rotate(0, 228.496, 601.575)" x="228.496" y="601.575">-1.0</text>
</g>
<g clip-path="url(#clip8300)">
<text style="fill:#000000; fill-opacity:1; font-family:Arial,Helvetica Neue,Helvetica,sans-serif; font-size:48px; text-anchor:end;" transform="rotate(0, 228.496, 491.083)" x="228.496" y="491.083">-0.5</text>
</g>
<g clip-path="url(#clip8300)">
<text style="fill:#000000; fill-opacity:1; font-family:Arial,Helvetica Neue,Helvetica,sans-serif; font-size:48px; text-anchor:end;" transform="rotate(0, 228.496, 380.59)" x="228.496" y="380.59">0.0</text>
</g>
<g clip-path="url(#clip8300)">
<text style="fill:#000000; fill-opacity:1; font-family:Arial,Helvetica Neue,Helvetica,sans-serif; font-size:48px; text-anchor:end;" transform="rotate(0, 228.496, 270.097)" x="228.496" y="270.097">0.5</text>
</g>
<g clip-path="url(#clip8300)">
<text style="fill:#000000; fill-opacity:1; font-family:Arial,Helvetica Neue,Helvetica,sans-serif; font-size:48px; text-anchor:end;" transform="rotate(0, 228.496, 159.605)" x="228.496" y="159.605">1.0</text>
</g>
<g clip-path="url(#clip8300)">
<text style="fill:#000000; fill-opacity:1; font-family:Arial,Helvetica Neue,Helvetica,sans-serif; font-size:66px; text-anchor:middle;" transform="rotate(-90, 57.6, 359.611)" x="57.6" y="359.611">Value</text>
</g>
<polyline clip-path="url(#clip8302)" style="stroke:#000000; stroke-width:4; stroke-opacity:1; fill:none" points="
  311.046,185.487 330.76,135.575 350.474,166.074 370.187,258.977 389.901,244.591 409.615,216.195 429.329,364.992 449.043,435.174 468.756,477.168 488.47,557.972 
  508.184,510.359 527.898,538.341 547.611,551.636 567.325,654.297 587.039,497.853 606.753,549.572 626.467,505.944 646.18,413.986 665.894,476.864 685.608,312.473 
  705.322,323.908 725.035,189.046 744.749,158.533 764.463,157.43 784.177,219.013 803.891,145.363 823.604,144.947 843.318,179.88 863.032,167.333 882.746,221.633 
  902.459,311.027 922.173,389.969 941.887,405.451 961.601,476.056 981.315,590.41 1001.03,478.144 1020.74,589.321 1040.46,639.716 1060.17,498.515 1079.88,566.96 
  1099.6,529.302 1119.31,567.294 1139.02,367.371 1158.74,443.512 1178.45,294.433 1198.17,244.603 1217.88,236.216 1237.59,227.65 1257.31,168.487 1277.02,64.9253 
  1296.73,215.642 1316.45,101.685 1336.16,224.7 1355.88,201.169 1375.59,297.143 1395.3,332.278 1415.02,305.535 1434.73,431.033 1454.45,530.716 1474.16,483.06 
  1493.87,592.016 1513.59,621.409 1533.3,534.57 1553.01,557.889 1572.73,581.767 1592.44,522.825 1612.16,476.883 1631.87,472.227 1651.58,285.348 1671.3,311.499 
  1691.01,345.555 1710.72,136.412 1730.44,194.503 1750.15,169.828 1769.87,117.356 1789.58,146.157 1809.29,136.496 1829.01,264.186 1848.72,233.193 1868.43,260.067 
  1888.15,387.597 1907.86,372.108 1927.58,397.752 1947.29,485.942 1967,538.608 1986.72,634.364 2006.43,572.817 2026.14,593.684 2045.86,491.115 2065.57,631.556 
  2085.29,503.227 2105,429.078 2124.71,386.582 2144.43,353.489 2164.14,312.076 2183.85,255.633 2203.57,194.44 2223.28,138.32 2243,182.741 2262.71,117.849 
  
  "/>
<path clip-path="url(#clip8300)" d="
M1971.81 251.724 L2249.26 251.724 L2249.26 130.764 L1971.81 130.764  Z
  " fill="#ffffff" fill-rule="evenodd" fill-opacity="1"/>
<polyline clip-path="url(#clip8300)" style="stroke:#000000; stroke-width:4; stroke-opacity:1; fill:none" points="
  1971.81,251.724 2249.26,251.724 2249.26,130.764 1971.81,130.764 1971.81,251.724 
  "/>
<polyline clip-path="url(#clip8300)" style="stroke:#000000; stroke-width:4; stroke-opacity:1; fill:none" points="
  1995.81,191.244 2139.81,191.244 
  "/>
<g clip-path="url(#clip8300)">
<text style="fill:#000000; fill-opacity:1; font-family:Arial,Helvetica Neue,Helvetica,sans-serif; font-size:48px; text-anchor:start;" transform="rotate(0, 2163.81, 208.744)" x="2163.81" y="208.744">ts</text>
</g>
<path clip-path="url(#clip8300)" d="
M252.496 1440.48 L2321.26 1440.48 L2321.26 815.748 L252.496 815.748  Z
  " fill="#ffffff" fill-rule="evenodd" fill-opacity="1"/>
<defs>
  <clipPath id="clip8303">
    <rect x="252" y="815" width="2070" height="626"/>
  </clipPath>
</defs>
<polyline clip-path="url(#clip8303)" style="stroke:#000000; stroke-width:2; stroke-opacity:0.1; fill:none" points="
  291.332,1440.48 291.332,815.748 
  "/>
<polyline clip-path="url(#clip8303)" style="stroke:#000000; stroke-width:2; stroke-opacity:0.1; fill:none" points="
  784.177,1440.48 784.177,815.748 
  "/>
<polyline clip-path="url(#clip8303)" style="stroke:#000000; stroke-width:2; stroke-opacity:0.1; fill:none" points="
  1277.02,1440.48 1277.02,815.748 
  "/>
<polyline clip-path="url(#clip8303)" style="stroke:#000000; stroke-width:2; stroke-opacity:0.1; fill:none" points="
  1769.87,1440.48 1769.87,815.748 
  "/>
<polyline clip-path="url(#clip8303)" style="stroke:#000000; stroke-width:2; stroke-opacity:0.1; fill:none" points="
  2262.71,1440.48 2262.71,815.748 
  "/>
<polyline clip-path="url(#clip8303)" style="stroke:#000000; stroke-width:2; stroke-opacity:0.1; fill:none" points="
  252.496,1352.58 2321.26,1352.58 
  "/>
<polyline clip-path="url(#clip8303)" style="stroke:#000000; stroke-width:2; stroke-opacity:0.1; fill:none" points="
  252.496,1242.09 2321.26,1242.09 
  "/>
<polyline clip-path="url(#clip8303)" style="stroke:#000000; stroke-width:2; stroke-opacity:0.1; fill:none" points="
  252.496,1131.59 2321.26,1131.59 
  "/>
<polyline clip-path="url(#clip8303)" style="stroke:#000000; stroke-width:2; stroke-opacity:0.1; fill:none" points="
  252.496,1021.1 2321.26,1021.1 
  "/>
<polyline clip-path="url(#clip8303)" style="stroke:#000000; stroke-width:2; stroke-opacity:0.1; fill:none" points="
  252.496,910.608 2321.26,910.608 
  "/>
<polyline clip-path="url(#clip8300)" style="stroke:#000000; stroke-width:4; stroke-opacity:1; fill:none" points="
  252.496,1440.48 2321.26,1440.48 
  "/>
<polyline clip-path="url(#clip8300)" style="stroke:#000000; stroke-width:4; stroke-opacity:1; fill:none" points="
  252.496,1440.48 252.496,815.748 
  "/>
<polyline clip-path="url(#clip8300)" style="stroke:#000000; stroke-width:4; stroke-opacity:1; fill:none" points="
  291.332,1440.48 291.332,1431.11 
  "/>
<polyline clip-path="url(#clip8300)" style="stroke:#000000; stroke-width:4; stroke-opacity:1; fill:none" points="
  784.177,1440.48 784.177,1431.11 
  "/>
<polyline clip-path="url(#clip8300)" style="stroke:#000000; stroke-width:4; stroke-opacity:1; fill:none" points="
  1277.02,1440.48 1277.02,1431.11 
  "/>
<polyline clip-path="url(#clip8300)" style="stroke:#000000; stroke-width:4; stroke-opacity:1; fill:none" points="
  1769.87,1440.48 1769.87,1431.11 
  "/>
<polyline clip-path="url(#clip8300)" style="stroke:#000000; stroke-width:4; stroke-opacity:1; fill:none" points="
  2262.71,1440.48 2262.71,1431.11 
  "/>
<polyline clip-path="url(#clip8300)" style="stroke:#000000; stroke-width:4; stroke-opacity:1; fill:none" points="
  252.496,1352.58 283.528,1352.58 
  "/>
<polyline clip-path="url(#clip8300)" style="stroke:#000000; stroke-width:4; stroke-opacity:1; fill:none" points="
  252.496,1242.09 283.528,1242.09 
  "/>
<polyline clip-path="url(#clip8300)" style="stroke:#000000; stroke-width:4; stroke-opacity:1; fill:none" points="
  252.496,1131.59 283.528,1131.59 
  "/>
<polyline clip-path="url(#clip8300)" style="stroke:#000000; stroke-width:4; stroke-opacity:1; fill:none" points="
  252.496,1021.1 283.528,1021.1 
  "/>
<polyline clip-path="url(#clip8300)" style="stroke:#000000; stroke-width:4; stroke-opacity:1; fill:none" points="
  252.496,910.608 283.528,910.608 
  "/>
<g clip-path="url(#clip8300)">
<text style="fill:#000000; fill-opacity:1; font-family:Arial,Helvetica Neue,Helvetica,sans-serif; font-size:48px; text-anchor:middle;" transform="rotate(0, 291.332, 1494.48)" x="291.332" y="1494.48">0</text>
</g>
<g clip-path="url(#clip8300)">
<text style="fill:#000000; fill-opacity:1; font-family:Arial,Helvetica Neue,Helvetica,sans-serif; font-size:48px; text-anchor:middle;" transform="rotate(0, 784.177, 1494.48)" x="784.177" y="1494.48">25</text>
</g>
<g clip-path="url(#clip8300)">
<text style="fill:#000000; fill-opacity:1; font-family:Arial,Helvetica Neue,Helvetica,sans-serif; font-size:48px; text-anchor:middle;" transform="rotate(0, 1277.02, 1494.48)" x="1277.02" y="1494.48">50</text>
</g>
<g clip-path="url(#clip8300)">
<text style="fill:#000000; fill-opacity:1; font-family:Arial,Helvetica Neue,Helvetica,sans-serif; font-size:48px; text-anchor:middle;" transform="rotate(0, 1769.87, 1494.48)" x="1769.87" y="1494.48">75</text>
</g>
<g clip-path="url(#clip8300)">
<text style="fill:#000000; fill-opacity:1; font-family:Arial,Helvetica Neue,Helvetica,sans-serif; font-size:48px; text-anchor:middle;" transform="rotate(0, 2262.71, 1494.48)" x="2262.71" y="1494.48">100</text>
</g>
<g clip-path="url(#clip8300)">
<text style="fill:#000000; fill-opacity:1; font-family:Arial,Helvetica Neue,Helvetica,sans-serif; font-size:48px; text-anchor:end;" transform="rotate(0, 228.496, 1370.08)" x="228.496" y="1370.08">-1.0</text>
</g>
<g clip-path="url(#clip8300)">
<text style="fill:#000000; fill-opacity:1; font-family:Arial,Helvetica Neue,Helvetica,sans-serif; font-size:48px; text-anchor:end;" transform="rotate(0, 228.496, 1259.59)" x="228.496" y="1259.59">-0.5</text>
</g>
<g clip-path="url(#clip8300)">
<text style="fill:#000000; fill-opacity:1; font-family:Arial,Helvetica Neue,Helvetica,sans-serif; font-size:48px; text-anchor:end;" transform="rotate(0, 228.496, 1149.09)" x="228.496" y="1149.09">0.0</text>
</g>
<g clip-path="url(#clip8300)">
<text style="fill:#000000; fill-opacity:1; font-family:Arial,Helvetica Neue,Helvetica,sans-serif; font-size:48px; text-anchor:end;" transform="rotate(0, 228.496, 1038.6)" x="228.496" y="1038.6">0.5</text>
</g>
<g clip-path="url(#clip8300)">
<text style="fill:#000000; fill-opacity:1; font-family:Arial,Helvetica Neue,Helvetica,sans-serif; font-size:48px; text-anchor:end;" transform="rotate(0, 228.496, 928.108)" x="228.496" y="928.108">1.0</text>
</g>
<g clip-path="url(#clip8300)">
<text style="fill:#000000; fill-opacity:1; font-family:Arial,Helvetica Neue,Helvetica,sans-serif; font-size:66px; text-anchor:middle;" transform="rotate(0, 1286.88, 1590.4)" x="1286.88" y="1590.4">Time step</text>
</g>
<g clip-path="url(#clip8300)">
<text style="fill:#000000; fill-opacity:1; font-family:Arial,Helvetica Neue,Helvetica,sans-serif; font-size:66px; text-anchor:middle;" transform="rotate(-90, 57.6, 1128.12)" x="57.6" y="1128.12">Value</text>
</g>
<polyline clip-path="url(#clip8303)" style="stroke:#009af9; stroke-width:4; stroke-opacity:1; fill:none" points="
  311.046,969.673 330.76,936.991 350.474,905 370.187,1357.83 389.901,1267.02 409.615,885.86 429.329,906.824 449.043,987.516 468.756,962.944 488.47,1027.48 
  508.184,1318.08 527.898,1244.56 547.611,1408.22 567.325,1254.45 587.039,963.007 606.753,927.037 626.467,935.837 646.18,1306.85 665.894,1024.14 685.608,1032.69 
  705.322,1080.58 725.035,1299.22 744.749,1173.96 764.463,1358.91 784.177,1307.11 803.891,904.079 823.604,1326.39 843.318,990.137 863.032,1274.45 882.746,870.189 
  902.459,1197.58 922.173,1335.46 941.887,984.146 961.601,1251.56 981.315,1199.54 1001.03,1341.32 1020.74,1001.7 1040.46,1266.36 1060.17,1326.48 1079.88,913.867 
  1099.6,1065.65 1119.31,934.578 1139.02,1028.57 1158.74,1013.09 1178.45,1240.73 1198.17,996.154 1217.88,1079.53 1237.59,925.934 1257.31,1080.98 1277.02,1004.72 
  1296.73,993.204 1316.45,938.332 1336.16,1121.99 1355.88,1360.52 1375.59,957.55 1395.3,1013.11 1415.02,953.991 1434.73,1297.81 1454.45,1133.5 1474.16,1335.8 
  1493.87,1135.88 1513.59,1362.19 1533.3,1053.85 1553.01,1291.33 1572.73,1203.68 1592.44,1245.39 1612.16,1402.87 1631.87,1400.06 1651.58,1320.14 1671.3,833.429 
  1691.01,1114.06 1710.72,1074.04 1730.44,1166.26 1750.15,1422.8 1769.87,951.245 1789.58,1245.37 1809.29,913.451 1829.01,904.916 1848.72,1182.49 1868.43,1303.07 
  1888.15,1155.09 1907.86,886.352 1927.58,948.384 1947.29,1246.65 1967,1350.27 1986.72,1062.94 2006.43,1212.02 2026.14,1156.1 2045.86,1278.86 2065.57,914.661 
  2085.29,1080 2105,1158.47 2124.71,1271.73 2144.43,1245.67 2164.14,1100.78 2183.85,1092.41 2203.57,1389.91 2223.28,984.699 2243,1140.61 2262.71,1259.62 
  
  "/>
<path clip-path="url(#clip8300)" d="
M1634.78 1020.23 L2249.26 1020.23 L2249.26 899.268 L1634.78 899.268  Z
  " fill="#ffffff" fill-rule="evenodd" fill-opacity="1"/>
<polyline clip-path="url(#clip8300)" style="stroke:#000000; stroke-width:4; stroke-opacity:1; fill:none" points="
  1634.78,1020.23 2249.26,1020.23 2249.26,899.268 1634.78,899.268 1634.78,1020.23 
  "/>
<polyline clip-path="url(#clip8300)" style="stroke:#009af9; stroke-width:4; stroke-opacity:1; fill:none" points="
  1658.78,959.748 1802.78,959.748 
  "/>
<g clip-path="url(#clip8300)">
<text style="fill:#000000; fill-opacity:1; font-family:Arial,Helvetica Neue,Helvetica,sans-serif; font-size:48px; text-anchor:start;" transform="rotate(0, 1826.78, 977.248)" x="1826.78" y="977.248">randomshuffle(ts)</text>
</g>
</svg>
