<?xml version="1.0" encoding="utf-8"?>
<svg xmlns="http://www.w3.org/2000/svg" xmlns:xlink="http://www.w3.org/1999/xlink" width="600" height="400" viewBox="0 0 2400 1600">
<defs>
  <clipPath id="clip8000">
    <rect x="0" y="0" width="2400" height="1600"/>
  </clipPath>
</defs>
<path clip-path="url(#clip8000)" d="
M0 1600 L2400 1600 L2400 0 L0 0  Z
  " fill="#ffffff" fill-rule="evenodd" fill-opacity="1"/>
<defs>
  <clipPath id="clip8001">
    <rect x="480" y="0" width="1681" height="1600"/>
  </clipPath>
</defs>
<path clip-path="url(#clip8000)" d="
M252.496 671.979 L2321.26 671.979 L2321.26 47.2441 L252.496 47.2441  Z
  " fill="#ffffff" fill-rule="evenodd" fill-opacity="1"/>
<defs>
  <clipPath id="clip8002">
    <rect x="252" y="47" width="2070" height="626"/>
  </clipPath>
</defs>
<polyline clip-path="url(#clip8002)" style="stroke:#000000; stroke-width:2; stroke-opacity:0.1; fill:none" points="
  298.035,671.979 298.035,47.2441 
  "/>
<polyline clip-path="url(#clip8002)" style="stroke:#000000; stroke-width:2; stroke-opacity:0.1; fill:none" points="
  948.59,671.979 948.59,47.2441 
  "/>
<polyline clip-path="url(#clip8002)" style="stroke:#000000; stroke-width:2; stroke-opacity:0.1; fill:none" points="
  1599.14,671.979 1599.14,47.2441 
  "/>
<polyline clip-path="url(#clip8002)" style="stroke:#000000; stroke-width:2; stroke-opacity:0.1; fill:none" points="
  2249.7,671.979 2249.7,47.2441 
  "/>
<polyline clip-path="url(#clip8002)" style="stroke:#000000; stroke-width:2; stroke-opacity:0.1; fill:none" points="
  252.496,658.919 2321.26,658.919 
  "/>
<polyline clip-path="url(#clip8002)" style="stroke:#000000; stroke-width:2; stroke-opacity:0.1; fill:none" points="
  252.496,501.383 2321.26,501.383 
  "/>
<polyline clip-path="url(#clip8002)" style="stroke:#000000; stroke-width:2; stroke-opacity:0.1; fill:none" points="
  252.496,343.847 2321.26,343.847 
  "/>
<polyline clip-path="url(#clip8002)" style="stroke:#000000; stroke-width:2; stroke-opacity:0.1; fill:none" points="
  252.496,186.312 2321.26,186.312 
  "/>
<polyline clip-path="url(#clip8000)" style="stroke:#000000; stroke-width:4; stroke-opacity:1; fill:none" points="
  252.496,671.979 2321.26,671.979 
  "/>
<polyline clip-path="url(#clip8000)" style="stroke:#000000; stroke-width:4; stroke-opacity:1; fill:none" points="
  252.496,671.979 252.496,47.2441 
  "/>
<polyline clip-path="url(#clip8000)" style="stroke:#000000; stroke-width:4; stroke-opacity:1; fill:none" points="
  298.035,671.979 298.035,662.608 
  "/>
<polyline clip-path="url(#clip8000)" style="stroke:#000000; stroke-width:4; stroke-opacity:1; fill:none" points="
  948.59,671.979 948.59,662.608 
  "/>
<polyline clip-path="url(#clip8000)" style="stroke:#000000; stroke-width:4; stroke-opacity:1; fill:none" points="
  1599.14,671.979 1599.14,662.608 
  "/>
<polyline clip-path="url(#clip8000)" style="stroke:#000000; stroke-width:4; stroke-opacity:1; fill:none" points="
  2249.7,671.979 2249.7,662.608 
  "/>
<polyline clip-path="url(#clip8000)" style="stroke:#000000; stroke-width:4; stroke-opacity:1; fill:none" points="
  252.496,658.919 283.528,658.919 
  "/>
<polyline clip-path="url(#clip8000)" style="stroke:#000000; stroke-width:4; stroke-opacity:1; fill:none" points="
  252.496,501.383 283.528,501.383 
  "/>
<polyline clip-path="url(#clip8000)" style="stroke:#000000; stroke-width:4; stroke-opacity:1; fill:none" points="
  252.496,343.847 283.528,343.847 
  "/>
<polyline clip-path="url(#clip8000)" style="stroke:#000000; stroke-width:4; stroke-opacity:1; fill:none" points="
  252.496,186.312 283.528,186.312 
  "/>
<g clip-path="url(#clip8000)">
<text style="fill:#000000; fill-opacity:1; font-family:Arial,Helvetica Neue,Helvetica,sans-serif; font-size:48px; text-anchor:middle;" transform="rotate(0, 298.035, 725.979)" x="298.035" y="725.979">0</text>
</g>
<g clip-path="url(#clip8000)">
<text style="fill:#000000; fill-opacity:1; font-family:Arial,Helvetica Neue,Helvetica,sans-serif; font-size:48px; text-anchor:middle;" transform="rotate(0, 948.59, 725.979)" x="948.59" y="725.979">50</text>
</g>
<g clip-path="url(#clip8000)">
<text style="fill:#000000; fill-opacity:1; font-family:Arial,Helvetica Neue,Helvetica,sans-serif; font-size:48px; text-anchor:middle;" transform="rotate(0, 1599.14, 725.979)" x="1599.14" y="725.979">100</text>
</g>
<g clip-path="url(#clip8000)">
<text style="fill:#000000; fill-opacity:1; font-family:Arial,Helvetica Neue,Helvetica,sans-serif; font-size:48px; text-anchor:middle;" transform="rotate(0, 2249.7, 725.979)" x="2249.7" y="725.979">150</text>
</g>
<g clip-path="url(#clip8000)">
<text style="fill:#000000; fill-opacity:1; font-family:Arial,Helvetica Neue,Helvetica,sans-serif; font-size:48px; text-anchor:end;" transform="rotate(0, 228.496, 676.419)" x="228.496" y="676.419">-1.0</text>
</g>
<g clip-path="url(#clip8000)">
<text style="fill:#000000; fill-opacity:1; font-family:Arial,Helvetica Neue,Helvetica,sans-serif; font-size:48px; text-anchor:end;" transform="rotate(0, 228.496, 518.883)" x="228.496" y="518.883">-0.5</text>
</g>
<g clip-path="url(#clip8000)">
<text style="fill:#000000; fill-opacity:1; font-family:Arial,Helvetica Neue,Helvetica,sans-serif; font-size:48px; text-anchor:end;" transform="rotate(0, 228.496, 361.347)" x="228.496" y="361.347">0.0</text>
</g>
<g clip-path="url(#clip8000)">
<text style="fill:#000000; fill-opacity:1; font-family:Arial,Helvetica Neue,Helvetica,sans-serif; font-size:48px; text-anchor:end;" transform="rotate(0, 228.496, 203.812)" x="228.496" y="203.812">0.5</text>
</g>
<g clip-path="url(#clip8000)">
<text style="fill:#000000; fill-opacity:1; font-family:Arial,Helvetica Neue,Helvetica,sans-serif; font-size:66px; text-anchor:middle;" transform="rotate(-90, 57.6, 359.611)" x="57.6" y="359.611">Value</text>
</g>
<polyline clip-path="url(#clip8002)" style="stroke:#009af9; stroke-width:4; stroke-opacity:1; fill:none" points="
  311.046,215.692 324.057,64.9253 337.068,398.881 350.079,556.075 363.091,413.84 376.102,371.851 389.113,466.677 402.124,393.026 415.135,561.885 428.146,427.31 
  441.157,376.161 454.168,479.156 467.179,389.759 480.19,518.525 493.201,371.815 506.213,441.155 519.224,505.092 532.235,540.092 545.246,635.32 558.257,497.524 
  571.268,495.996 584.279,556.905 597.29,520.089 610.301,497.768 623.312,623.507 636.323,510.066 649.335,615.502 662.346,566.6 675.357,490.571 688.368,574.436 
  701.379,360.597 714.39,411.517 727.401,631.305 740.412,391.314 753.423,550.301 766.434,605.577 779.445,534.221 792.457,443.153 805.468,536.354 818.479,516.467 
  831.49,619.551 844.501,477.226 857.512,389.762 870.523,511.584 883.534,383.13 896.545,490.349 909.556,478.376 922.567,363.832 935.579,420.678 948.59,653.218 
  961.601,562.21 974.612,477.213 987.623,476.957 1000.63,470.088 1013.65,416.133 1026.66,371.449 1039.67,448.588 1052.68,485.77 1065.69,516.373 1078.7,385.161 
  1091.71,530.344 1104.72,584.619 1117.73,431.977 1130.74,434.728 1143.76,500.827 1156.77,654.297 1169.78,576.553 1182.79,616.867 1195.8,541.78 1208.81,364.669 
  1221.82,429.802 1234.83,418.67 1247.84,642.478 1260.86,466.026 1273.87,374.783 1286.88,464.125 1299.89,378.611 1312.9,497.817 1325.91,608.814 1338.92,575.191 
  1351.93,468.11 1364.94,398.423 1377.96,586.173 1390.97,599.36 1403.98,479.614 1416.99,495.183 1430,603.329 1443.01,621.131 1456.02,389.84 1469.03,509.932 
  1482.04,403.236 1495.06,614.159 1508.07,587.696 1521.08,626.485 1534.09,398.082 1547.1,554.714 1560.11,375.451 1573.12,452.619 1586.13,603.751 1599.14,582.326 
  1612.16,540.699 1625.17,619.686 1638.18,594.209 1651.19,474.433 1664.2,645.107 1677.21,483.029 1690.22,476.16 1703.23,356.307 1716.24,390.046 1729.26,556.953 
  1742.27,505.384 1755.28,347.425 1768.29,356.137 1781.3,383.45 1794.31,515.077 1807.32,345.227 1820.33,348.205 1833.34,359.946 1846.35,396.595 1859.37,577.591 
  1872.38,546.385 1885.39,580.853 1898.4,556.289 1911.41,367.749 1924.42,425.215 1937.43,414.933 1950.44,630.2 1963.45,540.082 1976.47,497.989 1989.48,590.023 
  2002.49,639.536 2015.5,564.346 2028.51,380.333 2041.52,495.853 2054.53,483.746 2067.54,469.41 2080.55,616.265 2093.57,437.869 2106.58,460.834 2119.59,563.309 
  2132.6,535.896 2145.61,526.8 2158.62,380.214 2171.63,501.37 2184.64,583.871 2197.65,465.817 2210.67,394.295 2223.68,576.986 2236.69,352.302 2249.7,373.102 
  2262.71,445.844 
  "/>
<path clip-path="url(#clip8000)" d="
M1985.19 251.724 L2249.26 251.724 L2249.26 130.764 L1985.19 130.764  Z
  " fill="#ffffff" fill-rule="evenodd" fill-opacity="1"/>
<polyline clip-path="url(#clip8000)" style="stroke:#000000; stroke-width:4; stroke-opacity:1; fill:none" points="
  1985.19,251.724 2249.26,251.724 2249.26,130.764 1985.19,130.764 1985.19,251.724 
  "/>
<polyline clip-path="url(#clip8000)" style="stroke:#009af9; stroke-width:4; stroke-opacity:1; fill:none" points="
  2009.19,191.244 2153.19,191.244 
  "/>
<g clip-path="url(#clip8000)">
<text style="fill:#000000; fill-opacity:1; font-family:Arial,Helvetica Neue,Helvetica,sans-serif; font-size:48px; text-anchor:start;" transform="rotate(0, 2177.19, 208.744)" x="2177.19" y="208.744">x</text>
</g>
<path clip-path="url(#clip8000)" d="
M252.496 1440.48 L2321.26 1440.48 L2321.26 815.748 L252.496 815.748  Z
  " fill="#ffffff" fill-rule="evenodd" fill-opacity="1"/>
<defs>
  <clipPath id="clip8003">
    <rect x="252" y="815" width="2070" height="626"/>
  </clipPath>
</defs>
<polyline clip-path="url(#clip8003)" style="stroke:#000000; stroke-width:2; stroke-opacity:0.1; fill:none" points="
  298.035,1440.48 298.035,815.748 
  "/>
<polyline clip-path="url(#clip8003)" style="stroke:#000000; stroke-width:2; stroke-opacity:0.1; fill:none" points="
  948.59,1440.48 948.59,815.748 
  "/>
<polyline clip-path="url(#clip8003)" style="stroke:#000000; stroke-width:2; stroke-opacity:0.1; fill:none" points="
  1599.14,1440.48 1599.14,815.748 
  "/>
<polyline clip-path="url(#clip8003)" style="stroke:#000000; stroke-width:2; stroke-opacity:0.1; fill:none" points="
  2249.7,1440.48 2249.7,815.748 
  "/>
<polyline clip-path="url(#clip8003)" style="stroke:#000000; stroke-width:2; stroke-opacity:0.1; fill:none" points="
  252.496,1340.42 2321.26,1340.42 
  "/>
<polyline clip-path="url(#clip8003)" style="stroke:#000000; stroke-width:2; stroke-opacity:0.1; fill:none" points="
  252.496,1225.83 2321.26,1225.83 
  "/>
<polyline clip-path="url(#clip8003)" style="stroke:#000000; stroke-width:2; stroke-opacity:0.1; fill:none" points="
  252.496,1111.24 2321.26,1111.24 
  "/>
<polyline clip-path="url(#clip8003)" style="stroke:#000000; stroke-width:2; stroke-opacity:0.1; fill:none" points="
  252.496,996.645 2321.26,996.645 
  "/>
<polyline clip-path="url(#clip8003)" style="stroke:#000000; stroke-width:2; stroke-opacity:0.1; fill:none" points="
  252.496,882.054 2321.26,882.054 
  "/>
<polyline clip-path="url(#clip8000)" style="stroke:#000000; stroke-width:4; stroke-opacity:1; fill:none" points="
  252.496,1440.48 2321.26,1440.48 
  "/>
<polyline clip-path="url(#clip8000)" style="stroke:#000000; stroke-width:4; stroke-opacity:1; fill:none" points="
  252.496,1440.48 252.496,815.748 
  "/>
<polyline clip-path="url(#clip8000)" style="stroke:#000000; stroke-width:4; stroke-opacity:1; fill:none" points="
  298.035,1440.48 298.035,1431.11 
  "/>
<polyline clip-path="url(#clip8000)" style="stroke:#000000; stroke-width:4; stroke-opacity:1; fill:none" points="
  948.59,1440.48 948.59,1431.11 
  "/>
<polyline clip-path="url(#clip8000)" style="stroke:#000000; stroke-width:4; stroke-opacity:1; fill:none" points="
  1599.14,1440.48 1599.14,1431.11 
  "/>
<polyline clip-path="url(#clip8000)" style="stroke:#000000; stroke-width:4; stroke-opacity:1; fill:none" points="
  2249.7,1440.48 2249.7,1431.11 
  "/>
<polyline clip-path="url(#clip8000)" style="stroke:#000000; stroke-width:4; stroke-opacity:1; fill:none" points="
  252.496,1340.42 283.528,1340.42 
  "/>
<polyline clip-path="url(#clip8000)" style="stroke:#000000; stroke-width:4; stroke-opacity:1; fill:none" points="
  252.496,1225.83 283.528,1225.83 
  "/>
<polyline clip-path="url(#clip8000)" style="stroke:#000000; stroke-width:4; stroke-opacity:1; fill:none" points="
  252.496,1111.24 283.528,1111.24 
  "/>
<polyline clip-path="url(#clip8000)" style="stroke:#000000; stroke-width:4; stroke-opacity:1; fill:none" points="
  252.496,996.645 283.528,996.645 
  "/>
<polyline clip-path="url(#clip8000)" style="stroke:#000000; stroke-width:4; stroke-opacity:1; fill:none" points="
  252.496,882.054 283.528,882.054 
  "/>
<g clip-path="url(#clip8000)">
<text style="fill:#000000; fill-opacity:1; font-family:Arial,Helvetica Neue,Helvetica,sans-serif; font-size:48px; text-anchor:middle;" transform="rotate(0, 298.035, 1494.48)" x="298.035" y="1494.48">0</text>
</g>
<g clip-path="url(#clip8000)">
<text style="fill:#000000; fill-opacity:1; font-family:Arial,Helvetica Neue,Helvetica,sans-serif; font-size:48px; text-anchor:middle;" transform="rotate(0, 948.59, 1494.48)" x="948.59" y="1494.48">50</text>
</g>
<g clip-path="url(#clip8000)">
<text style="fill:#000000; fill-opacity:1; font-family:Arial,Helvetica Neue,Helvetica,sans-serif; font-size:48px; text-anchor:middle;" transform="rotate(0, 1599.14, 1494.48)" x="1599.14" y="1494.48">100</text>
</g>
<g clip-path="url(#clip8000)">
<text style="fill:#000000; fill-opacity:1; font-family:Arial,Helvetica Neue,Helvetica,sans-serif; font-size:48px; text-anchor:middle;" transform="rotate(0, 2249.7, 1494.48)" x="2249.7" y="1494.48">150</text>
</g>
<g clip-path="url(#clip8000)">
<text style="fill:#000000; fill-opacity:1; font-family:Arial,Helvetica Neue,Helvetica,sans-serif; font-size:48px; text-anchor:end;" transform="rotate(0, 228.496, 1357.92)" x="228.496" y="1357.92">-0.9</text>
</g>
<g clip-path="url(#clip8000)">
<text style="fill:#000000; fill-opacity:1; font-family:Arial,Helvetica Neue,Helvetica,sans-serif; font-size:48px; text-anchor:end;" transform="rotate(0, 228.496, 1243.33)" x="228.496" y="1243.33">-0.6</text>
</g>
<g clip-path="url(#clip8000)">
<text style="fill:#000000; fill-opacity:1; font-family:Arial,Helvetica Neue,Helvetica,sans-serif; font-size:48px; text-anchor:end;" transform="rotate(0, 228.496, 1128.74)" x="228.496" y="1128.74">-0.3</text>
</g>
<g clip-path="url(#clip8000)">
<text style="fill:#000000; fill-opacity:1; font-family:Arial,Helvetica Neue,Helvetica,sans-serif; font-size:48px; text-anchor:end;" transform="rotate(0, 228.496, 1014.15)" x="228.496" y="1014.15">0.0</text>
</g>
<g clip-path="url(#clip8000)">
<text style="fill:#000000; fill-opacity:1; font-family:Arial,Helvetica Neue,Helvetica,sans-serif; font-size:48px; text-anchor:end;" transform="rotate(0, 228.496, 899.554)" x="228.496" y="899.554">0.3</text>
</g>
<g clip-path="url(#clip8000)">
<text style="fill:#000000; fill-opacity:1; font-family:Arial,Helvetica Neue,Helvetica,sans-serif; font-size:66px; text-anchor:middle;" transform="rotate(0, 1286.88, 1590.4)" x="1286.88" y="1590.4">Time step</text>
</g>
<g clip-path="url(#clip8000)">
<text style="fill:#000000; fill-opacity:1; font-family:Arial,Helvetica Neue,Helvetica,sans-serif; font-size:66px; text-anchor:middle;" transform="rotate(-90, 57.6, 1128.12)" x="57.6" y="1128.12">Value</text>
</g>
<polyline clip-path="url(#clip8003)" style="stroke:#009af9; stroke-width:4; stroke-opacity:1; fill:none" points="
  311.046,1029.35 324.057,1038.88 337.068,1216.62 350.079,1052.45 363.091,1050.42 376.102,1051.19 389.113,1140.59 402.124,1171.41 415.135,1204.31 428.146,1120.36 
  441.157,1235.07 454.168,1212.87 467.179,1253.43 480.19,1278.55 493.201,1109.64 506.213,1082.69 519.224,1160.6 532.235,1422.8 545.246,1149.87 558.257,1185.04 
  571.268,1282.82 584.279,1252.24 597.29,1407.24 610.301,1249.37 623.312,1148.72 636.323,1172.85 649.335,1060.51 662.346,1040.75 675.357,1066.13 688.368,1031.58 
  701.379,1171.93 714.39,1140.33 727.401,1115.78 740.412,1230.08 753.423,1154.86 766.434,1078.35 779.445,1201.02 792.457,1176.16 805.468,1005.4 818.479,1131.51 
  831.49,1161.36 844.501,1195.36 857.512,1140.18 870.523,1009.44 883.534,1119.55 896.545,1125.23 909.556,1086.37 922.567,1122 935.579,1185.29 948.59,1122.52 
  961.601,1340.95 974.612,1225.62 987.623,1009.34 1000.63,1157.13 1013.65,1246.08 1026.66,1300.12 1039.67,1222.28 1052.68,1105.74 1065.69,1151.79 1078.7,1087.72 
  1091.71,1168.72 1104.72,1115.47 1117.73,1178.07 1130.74,1173.76 1143.76,1080.01 1156.77,1129.59 1169.78,1181.13 1182.79,1131.95 1195.8,1097.46 1208.81,1158.94 
  1221.82,1091.94 1234.83,1123.84 1247.84,1159.07 1260.86,1105.73 1273.87,1158.88 1286.88,1112.38 1299.89,1154.83 1312.9,1183.12 1325.91,1158.05 1338.92,1142.77 
  1351.93,1153.77 1364.94,1151.44 1377.96,1140.15 1390.97,1183.64 1403.98,1110.56 1416.99,1075.88 1430,1185.34 1443.01,1138.96 1456.02,1248.19 1469.03,1168 
  1482.04,1066.39 1495.06,1159.57 1508.07,1130.01 1521.08,1214.19 1534.09,1215.1 1547.1,1137.58 1560.11,1115.31 1573.12,1203.31 1586.13,1153.5 1599.14,1154.78 
  1612.16,1109.1 1625.17,1006.62 1638.18,1064.07 1651.19,1143.61 1664.2,1139.43 1677.21,1128.91 1690.22,1113.94 1703.23,1080.01 1716.24,1062.96 1729.26,1121.69 
  1742.27,1285.73 1755.28,1140.36 1768.29,1228.72 1781.3,1160.82 1794.31,1270.36 1807.32,1208.75 1820.33,1186.72 1833.34,1169.04 1846.35,1187.22 1859.37,1138.34 
  1872.38,1242.18 1885.39,1136.4 1898.4,1119.68 1911.41,1141.98 1924.42,1305.2 1937.43,1198.28 1950.44,1312.03 1963.45,1315.58 1976.47,1091.42 1989.48,1215.46 
  2002.49,1303.25 2015.5,1232.51 2028.51,1139.05 2041.52,1202.87 2054.53,971.532 2067.54,1245.2 2080.55,1169.2 2093.57,1140.24 2106.58,1086.38 2119.59,833.429 
  2132.6,1129.52 2145.61,1135.34 2158.62,1001.1 2171.63,1115.72 2184.64,1170.98 2197.65,1124.8 2210.67,1065.8 2223.68,1125.72 2236.69,933.456 2249.7,1087.6 
  2262.71,1140.71 
  "/>
<path clip-path="url(#clip8000)" d="
M1634.78 1020.23 L2249.26 1020.23 L2249.26 899.268 L1634.78 899.268  Z
  " fill="#ffffff" fill-rule="evenodd" fill-opacity="1"/>
<polyline clip-path="url(#clip8000)" style="stroke:#000000; stroke-width:4; stroke-opacity:1; fill:none" points="
  1634.78,1020.23 2249.26,1020.23 2249.26,899.268 1634.78,899.268 1634.78,1020.23 
  "/>
<polyline clip-path="url(#clip8000)" style="stroke:#009af9; stroke-width:4; stroke-opacity:1; fill:none" points="
  1658.78,959.748 1802.78,959.748 
  "/>
<g clip-path="url(#clip8000)">
<text style="fill:#000000; fill-opacity:1; font-family:Arial,Helvetica Neue,Helvetica,sans-serif; font-size:48px; text-anchor:start;" transform="rotate(0, 1826.78, 977.248)" x="1826.78" y="977.248">randomphases(x)</text>
</g>
</svg>
