<?xml version="1.0" encoding="utf-8" standalone="no"?>
<!DOCTYPE svg PUBLIC "-//W3C//DTD SVG 1.1//EN"
  "http://www.w3.org/Graphics/SVG/1.1/DTD/svg11.dtd">
<!-- Created with matplotlib (https://matplotlib.org/) -->
<svg height="288pt" version="1.1" viewBox="0 0 432 288" width="432pt" xmlns="http://www.w3.org/2000/svg" xmlns:xlink="http://www.w3.org/1999/xlink">
 <defs>
  <style type="text/css">
*{stroke-linecap:butt;stroke-linejoin:round;}
  </style>
 </defs>
 <g id="figure_1">
  <g id="patch_1">
   <path d="M 0 288 
L 432 288 
L 432 0 
L 0 0 
z
" style="fill:#ffffff;"/>
  </g>
  <g id="axes_1">
   <g id="patch_2">
    <path d="M 36.614646 123.065354 
L 429.165354 123.065354 
L 429.165354 2.834646 
L 36.614646 2.834646 
z
" style="fill:#ffffff;"/>
   </g>
   <g id="matplotlib.axis_1">
    <g id="xtick_1">
     <g id="line2d_1">
      <path clip-path="url(#p273c6c70d2)" d="M 45.255699 123.065354 
L 45.255699 2.834646 
" style="fill:none;stroke:#000000;stroke-linecap:square;stroke-opacity:0.1;stroke-width:0.5;"/>
     </g>
     <g id="line2d_2">
      <defs>
       <path d="M 0 0 
L 0 -3.5 
" id="m040de561ae" style="stroke:#000000;stroke-width:0.8;"/>
      </defs>
      <g>
       <use style="stroke:#000000;stroke-width:0.8;" x="45.255699" xlink:href="#m040de561ae" y="123.065354"/>
      </g>
     </g>
     <g id="text_1">
      <!-- 0 -->
      <defs>
       <path d="M 31.78125 66.40625 
Q 24.171875 66.40625 20.328125 58.90625 
Q 16.5 51.421875 16.5 36.375 
Q 16.5 21.390625 20.328125 13.890625 
Q 24.171875 6.390625 31.78125 6.390625 
Q 39.453125 6.390625 43.28125 13.890625 
Q 47.125 21.390625 47.125 36.375 
Q 47.125 51.421875 43.28125 58.90625 
Q 39.453125 66.40625 31.78125 66.40625 
z
M 31.78125 74.21875 
Q 44.046875 74.21875 50.515625 64.515625 
Q 56.984375 54.828125 56.984375 36.375 
Q 56.984375 17.96875 50.515625 8.265625 
Q 44.046875 -1.421875 31.78125 -1.421875 
Q 19.53125 -1.421875 13.0625 8.265625 
Q 6.59375 17.96875 6.59375 36.375 
Q 6.59375 54.828125 13.0625 64.515625 
Q 19.53125 74.21875 31.78125 74.21875 
z
" id="DejaVuSans-48"/>
      </defs>
      <g transform="translate(42.710699 132.644104)scale(0.08 -0.08)">
       <use xlink:href="#DejaVuSans-48"/>
      </g>
     </g>
    </g>
    <g id="xtick_2">
     <g id="line2d_3">
      <path clip-path="url(#p273c6c70d2)" d="M 168.699318 123.065354 
L 168.699318 2.834646 
" style="fill:none;stroke:#000000;stroke-linecap:square;stroke-opacity:0.1;stroke-width:0.5;"/>
     </g>
     <g id="line2d_4">
      <g>
       <use style="stroke:#000000;stroke-width:0.8;" x="168.699318" xlink:href="#m040de561ae" y="123.065354"/>
      </g>
     </g>
     <g id="text_2">
      <!-- 50 -->
      <defs>
       <path d="M 10.796875 72.90625 
L 49.515625 72.90625 
L 49.515625 64.59375 
L 19.828125 64.59375 
L 19.828125 46.734375 
Q 21.96875 47.46875 24.109375 47.828125 
Q 26.265625 48.1875 28.421875 48.1875 
Q 40.625 48.1875 47.75 41.5 
Q 54.890625 34.8125 54.890625 23.390625 
Q 54.890625 11.625 47.5625 5.09375 
Q 40.234375 -1.421875 26.90625 -1.421875 
Q 22.3125 -1.421875 17.546875 -0.640625 
Q 12.796875 0.140625 7.71875 1.703125 
L 7.71875 11.625 
Q 12.109375 9.234375 16.796875 8.0625 
Q 21.484375 6.890625 26.703125 6.890625 
Q 35.15625 6.890625 40.078125 11.328125 
Q 45.015625 15.765625 45.015625 23.390625 
Q 45.015625 31 40.078125 35.4375 
Q 35.15625 39.890625 26.703125 39.890625 
Q 22.75 39.890625 18.8125 39.015625 
Q 14.890625 38.140625 10.796875 36.28125 
z
" id="DejaVuSans-53"/>
      </defs>
      <g transform="translate(163.609318 132.644104)scale(0.08 -0.08)">
       <use xlink:href="#DejaVuSans-53"/>
       <use x="63.623047" xlink:href="#DejaVuSans-48"/>
      </g>
     </g>
    </g>
    <g id="xtick_3">
     <g id="line2d_5">
      <path clip-path="url(#p273c6c70d2)" d="M 292.142937 123.065354 
L 292.142937 2.834646 
" style="fill:none;stroke:#000000;stroke-linecap:square;stroke-opacity:0.1;stroke-width:0.5;"/>
     </g>
     <g id="line2d_6">
      <g>
       <use style="stroke:#000000;stroke-width:0.8;" x="292.142937" xlink:href="#m040de561ae" y="123.065354"/>
      </g>
     </g>
     <g id="text_3">
      <!-- 100 -->
      <defs>
       <path d="M 12.40625 8.296875 
L 28.515625 8.296875 
L 28.515625 63.921875 
L 10.984375 60.40625 
L 10.984375 69.390625 
L 28.421875 72.90625 
L 38.28125 72.90625 
L 38.28125 8.296875 
L 54.390625 8.296875 
L 54.390625 0 
L 12.40625 0 
z
" id="DejaVuSans-49"/>
      </defs>
      <g transform="translate(284.507937 132.644104)scale(0.08 -0.08)">
       <use xlink:href="#DejaVuSans-49"/>
       <use x="63.623047" xlink:href="#DejaVuSans-48"/>
       <use x="127.246094" xlink:href="#DejaVuSans-48"/>
      </g>
     </g>
    </g>
    <g id="xtick_4">
     <g id="line2d_7">
      <path clip-path="url(#p273c6c70d2)" d="M 415.586556 123.065354 
L 415.586556 2.834646 
" style="fill:none;stroke:#000000;stroke-linecap:square;stroke-opacity:0.1;stroke-width:0.5;"/>
     </g>
     <g id="line2d_8">
      <g>
       <use style="stroke:#000000;stroke-width:0.8;" x="415.586556" xlink:href="#m040de561ae" y="123.065354"/>
      </g>
     </g>
     <g id="text_4">
      <!-- 150 -->
      <g transform="translate(407.951556 132.644104)scale(0.08 -0.08)">
       <use xlink:href="#DejaVuSans-49"/>
       <use x="63.623047" xlink:href="#DejaVuSans-53"/>
       <use x="127.246094" xlink:href="#DejaVuSans-48"/>
      </g>
     </g>
    </g>
   </g>
   <g id="matplotlib.axis_2">
    <g id="ytick_1">
     <g id="line2d_9">
      <path clip-path="url(#p273c6c70d2)" d="M 36.614646 121.397697 
L 429.165354 121.397697 
" style="fill:none;stroke:#000000;stroke-linecap:square;stroke-opacity:0.1;stroke-width:0.5;"/>
     </g>
     <g id="line2d_10">
      <defs>
       <path d="M 0 0 
L 3.5 0 
" id="m06b2031818" style="stroke:#000000;stroke-width:0.8;"/>
      </defs>
      <g>
       <use style="stroke:#000000;stroke-width:0.8;" x="36.614646" xlink:href="#m06b2031818" y="121.397697"/>
      </g>
     </g>
     <g id="text_5">
      <!-- -1.0 -->
      <defs>
       <path d="M 4.890625 31.390625 
L 31.203125 31.390625 
L 31.203125 23.390625 
L 4.890625 23.390625 
z
" id="DejaVuSans-45"/>
       <path d="M 10.6875 12.40625 
L 21 12.40625 
L 21 0 
L 10.6875 0 
z
" id="DejaVuSans-46"/>
      </defs>
      <g transform="translate(17.505896 124.437072)scale(0.08 -0.08)">
       <use xlink:href="#DejaVuSans-45"/>
       <use x="36.083984" xlink:href="#DejaVuSans-49"/>
       <use x="99.707031" xlink:href="#DejaVuSans-46"/>
       <use x="131.494141" xlink:href="#DejaVuSans-48"/>
      </g>
     </g>
    </g>
    <g id="ytick_2">
     <g id="line2d_11">
      <path clip-path="url(#p273c6c70d2)" d="M 36.614646 92.246114 
L 429.165354 92.246114 
" style="fill:none;stroke:#000000;stroke-linecap:square;stroke-opacity:0.1;stroke-width:0.5;"/>
     </g>
     <g id="line2d_12">
      <g>
       <use style="stroke:#000000;stroke-width:0.8;" x="36.614646" xlink:href="#m06b2031818" y="92.246114"/>
      </g>
     </g>
     <g id="text_6">
      <!-- -0.5 -->
      <g transform="translate(17.505896 95.285489)scale(0.08 -0.08)">
       <use xlink:href="#DejaVuSans-45"/>
       <use x="36.083984" xlink:href="#DejaVuSans-48"/>
       <use x="99.707031" xlink:href="#DejaVuSans-46"/>
       <use x="131.494141" xlink:href="#DejaVuSans-53"/>
      </g>
     </g>
    </g>
    <g id="ytick_3">
     <g id="line2d_13">
      <path clip-path="url(#p273c6c70d2)" d="M 36.614646 63.094531 
L 429.165354 63.094531 
" style="fill:none;stroke:#000000;stroke-linecap:square;stroke-opacity:0.1;stroke-width:0.5;"/>
     </g>
     <g id="line2d_14">
      <g>
       <use style="stroke:#000000;stroke-width:0.8;" x="36.614646" xlink:href="#m06b2031818" y="63.094531"/>
      </g>
     </g>
     <g id="text_7">
      <!-- 0.0 -->
      <g transform="translate(20.392146 66.133906)scale(0.08 -0.08)">
       <use xlink:href="#DejaVuSans-48"/>
       <use x="63.623047" xlink:href="#DejaVuSans-46"/>
       <use x="95.410156" xlink:href="#DejaVuSans-48"/>
      </g>
     </g>
    </g>
    <g id="ytick_4">
     <g id="line2d_15">
      <path clip-path="url(#p273c6c70d2)" d="M 36.614646 33.942948 
L 429.165354 33.942948 
" style="fill:none;stroke:#000000;stroke-linecap:square;stroke-opacity:0.1;stroke-width:0.5;"/>
     </g>
     <g id="line2d_16">
      <g>
       <use style="stroke:#000000;stroke-width:0.8;" x="36.614646" xlink:href="#m06b2031818" y="33.942948"/>
      </g>
     </g>
     <g id="text_8">
      <!-- 0.5 -->
      <g transform="translate(20.392146 36.982323)scale(0.08 -0.08)">
       <use xlink:href="#DejaVuSans-48"/>
       <use x="63.623047" xlink:href="#DejaVuSans-46"/>
       <use x="95.410156" xlink:href="#DejaVuSans-53"/>
      </g>
     </g>
    </g>
    <g id="ytick_5">
     <g id="line2d_17">
      <path clip-path="url(#p273c6c70d2)" d="M 36.614646 4.791365 
L 429.165354 4.791365 
" style="fill:none;stroke:#000000;stroke-linecap:square;stroke-opacity:0.1;stroke-width:0.5;"/>
     </g>
     <g id="line2d_18">
      <g>
       <use style="stroke:#000000;stroke-width:0.8;" x="36.614646" xlink:href="#m06b2031818" y="4.791365"/>
      </g>
     </g>
     <g id="text_9">
      <!-- 1.0 -->
      <g transform="translate(20.392146 7.83074)scale(0.08 -0.08)">
       <use xlink:href="#DejaVuSans-49"/>
       <use x="63.623047" xlink:href="#DejaVuSans-46"/>
       <use x="95.410156" xlink:href="#DejaVuSans-48"/>
      </g>
     </g>
    </g>
    <g id="text_10">
     <!-- Value -->
     <defs>
      <path d="M 28.609375 0 
L 0.78125 72.90625 
L 11.078125 72.90625 
L 34.1875 11.53125 
L 57.328125 72.90625 
L 67.578125 72.90625 
L 39.796875 0 
z
" id="DejaVuSans-86"/>
      <path d="M 34.28125 27.484375 
Q 23.390625 27.484375 19.1875 25 
Q 14.984375 22.515625 14.984375 16.5 
Q 14.984375 11.71875 18.140625 8.90625 
Q 21.296875 6.109375 26.703125 6.109375 
Q 34.1875 6.109375 38.703125 11.40625 
Q 43.21875 16.703125 43.21875 25.484375 
L 43.21875 27.484375 
z
M 52.203125 31.203125 
L 52.203125 0 
L 43.21875 0 
L 43.21875 8.296875 
Q 40.140625 3.328125 35.546875 0.953125 
Q 30.953125 -1.421875 24.3125 -1.421875 
Q 15.921875 -1.421875 10.953125 3.296875 
Q 6 8.015625 6 15.921875 
Q 6 25.140625 12.171875 29.828125 
Q 18.359375 34.515625 30.609375 34.515625 
L 43.21875 34.515625 
L 43.21875 35.40625 
Q 43.21875 41.609375 39.140625 45 
Q 35.0625 48.390625 27.6875 48.390625 
Q 23 48.390625 18.546875 47.265625 
Q 14.109375 46.140625 10.015625 43.890625 
L 10.015625 52.203125 
Q 14.9375 54.109375 19.578125 55.046875 
Q 24.21875 56 28.609375 56 
Q 40.484375 56 46.34375 49.84375 
Q 52.203125 43.703125 52.203125 31.203125 
z
" id="DejaVuSans-97"/>
      <path d="M 9.421875 75.984375 
L 18.40625 75.984375 
L 18.40625 0 
L 9.421875 0 
z
" id="DejaVuSans-108"/>
      <path d="M 8.5 21.578125 
L 8.5 54.6875 
L 17.484375 54.6875 
L 17.484375 21.921875 
Q 17.484375 14.15625 20.5 10.265625 
Q 23.53125 6.390625 29.59375 6.390625 
Q 36.859375 6.390625 41.078125 11.03125 
Q 45.3125 15.671875 45.3125 23.6875 
L 45.3125 54.6875 
L 54.296875 54.6875 
L 54.296875 0 
L 45.3125 0 
L 45.3125 8.40625 
Q 42.046875 3.421875 37.71875 1 
Q 33.40625 -1.421875 27.6875 -1.421875 
Q 18.265625 -1.421875 13.375 4.4375 
Q 8.5 10.296875 8.5 21.578125 
z
M 31.109375 56 
z
" id="DejaVuSans-117"/>
      <path d="M 56.203125 29.59375 
L 56.203125 25.203125 
L 14.890625 25.203125 
Q 15.484375 15.921875 20.484375 11.0625 
Q 25.484375 6.203125 34.421875 6.203125 
Q 39.59375 6.203125 44.453125 7.46875 
Q 49.3125 8.734375 54.109375 11.28125 
L 54.109375 2.78125 
Q 49.265625 0.734375 44.1875 -0.34375 
Q 39.109375 -1.421875 33.890625 -1.421875 
Q 20.796875 -1.421875 13.15625 6.1875 
Q 5.515625 13.8125 5.515625 26.8125 
Q 5.515625 40.234375 12.765625 48.109375 
Q 20.015625 56 32.328125 56 
Q 43.359375 56 49.78125 48.890625 
Q 56.203125 41.796875 56.203125 29.59375 
z
M 47.21875 32.234375 
Q 47.125 39.59375 43.09375 43.984375 
Q 39.0625 48.390625 32.421875 48.390625 
Q 24.90625 48.390625 20.390625 44.140625 
Q 15.875 39.890625 15.1875 32.171875 
z
" id="DejaVuSans-101"/>
     </defs>
     <g transform="translate(11.218239 78.474609)rotate(-90)scale(0.11 -0.11)">
      <use xlink:href="#DejaVuSans-86"/>
      <use x="68.298828" xlink:href="#DejaVuSans-97"/>
      <use x="129.578125" xlink:href="#DejaVuSans-108"/>
      <use x="157.361328" xlink:href="#DejaVuSans-117"/>
      <use x="220.740234" xlink:href="#DejaVuSans-101"/>
     </g>
    </g>
   </g>
   <g id="line2d_19">
    <path clip-path="url(#p273c6c70d2)" d="M 47.724571 57.288146 
L 50.193444 46.025437 
L 52.662316 28.677269 
L 55.131189 24.542192 
L 57.600061 10.572758 
L 60.068933 44.264786 
L 62.537806 17.795244 
L 65.006678 60.24493 
L 67.47555 53.647079 
L 69.944423 31.111476 
L 72.413295 6.237402 
L 74.882168 65.61008 
L 77.35104 72.383168 
L 79.819912 106.349338 
L 82.288785 73.454315 
L 84.757657 110.523853 
L 87.226529 94.784811 
L 89.695402 84.87701 
L 92.164274 65.743516 
L 94.633147 73.729941 
L 97.102019 107.398726 
L 99.570891 100.039242 
L 102.039764 69.74329 
L 104.508636 91.232687 
L 106.977509 93.256762 
L 109.446381 107.431099 
L 111.915253 111.6489 
L 114.384126 88.911246 
L 116.852998 81.721438 
L 119.32187 84.99261 
L 121.790743 65.515346 
L 124.259615 72.501528 
L 126.728488 99.540081 
L 129.19736 103.530265 
L 131.666232 67.585426 
L 134.135105 81.503606 
L 136.603977 88.005116 
L 139.07285 70.453974 
L 141.541722 90.961216 
L 144.010594 89.77228 
L 146.479467 85.578929 
L 148.948339 109.639819 
L 151.417211 90.110922 
L 153.886084 79.379865 
L 156.354956 85.366438 
L 158.823829 115.207612 
L 161.292701 116.971843 
L 163.761573 65.229281 
L 166.230446 71.042926 
L 168.699318 91.559177 
L 171.16819 114.466227 
L 173.637063 89.519354 
L 176.105935 81.297905 
L 178.574808 87.29298 
L 181.04368 66.401924 
L 183.512552 74.67274 
L 185.981425 110.470746 
L 188.450297 77.558851 
L 190.91917 69.511142 
L 193.388042 85.463208 
L 195.856914 69.31714 
L 198.325787 89.180801 
L 200.794659 77.512619 
L 203.263531 67.863624 
L 205.732404 79.450455 
L 208.201276 82.974285 
L 210.670149 93.198843 
L 213.139021 66.824644 
L 215.607893 77.01503 
L 218.076766 74.021532 
L 220.545638 114.577368 
L 223.01451 92.166534 
L 225.483383 103.992145 
L 227.952255 70.955666 
L 230.421128 96.783668 
L 232.89 76.214184 
L 235.358872 118.074656 
L 237.827745 100.589178 
L 240.296617 108.37768 
L 242.76549 114.603185 
L 245.234362 72.306004 
L 247.703234 96.683249 
L 250.172107 100.03966 
L 252.640979 66.666506 
L 255.109851 76.544431 
L 257.578724 71.087903 
L 260.047596 99.049279 
L 262.516469 114.221511 
L 264.985341 64.239522 
L 267.454213 66.798555 
L 269.923086 77.213685 
L 272.391958 119.302074 
L 274.86083 96.251846 
L 277.329703 95.358807 
L 279.798575 82.210643 
L 282.267448 94.072975 
L 284.73632 108.857952 
L 287.205192 83.200807 
L 289.674065 94.047118 
L 292.142937 72.082538 
L 294.61181 98.627682 
L 297.080682 86.217811 
L 299.549554 66.041648 
L 302.018427 72.69712 
L 304.487299 107.575627 
L 306.956171 78.692245 
L 309.425044 75.222355 
L 311.893916 110.18796 
L 314.362789 108.510315 
L 316.831661 74.978842 
L 319.300533 108.97007 
L 321.769406 96.586707 
L 324.238278 90.368418 
L 326.70715 85.048529 
L 329.176023 112.875147 
L 331.644895 92.6709 
L 334.113768 64.407758 
L 336.58264 68.055263 
L 339.051512 80.110742 
L 341.520385 87.56988 
L 343.989257 64.973479 
L 346.45813 70.077753 
L 348.927002 87.516502 
L 351.395874 83.54932 
L 353.864747 110.9403 
L 356.333619 84.564444 
L 358.802491 106.679386 
L 361.271364 101.620616 
L 363.740236 117.325353 
L 366.209109 88.364913 
L 368.677981 78.423706 
L 371.146853 67.340125 
L 373.615726 81.110518 
L 376.084598 95.628826 
L 378.553471 67.159687 
L 381.022343 77.417368 
L 383.491215 66.475563 
L 385.960088 74.558598 
L 388.42896 113.390368 
L 390.897832 99.007834 
L 393.366705 117.628079 
L 395.835577 116.183535 
L 398.30445 69.968085 
L 400.773322 91.922185 
L 403.242194 94.892089 
L 405.711067 67.352439 
L 408.179939 77.284289 
L 410.648811 74.465072 
L 413.117684 114.755758 
L 415.586556 119.662598 
L 418.055429 66.401828 
L 418.055429 66.401828 
" style="fill:none;stroke:#009afa;stroke-linecap:round;"/>
   </g>
   <g id="patch_3">
    <path d="M 36.614646 123.065354 
L 36.614646 2.834646 
" style="fill:none;stroke:#000000;stroke-linecap:square;stroke-linejoin:miter;"/>
   </g>
   <g id="patch_4">
    <path d="M 36.614646 123.065354 
L 429.165354 123.065354 
" style="fill:none;stroke:#000000;stroke-linecap:square;stroke-linejoin:miter;"/>
   </g>
   <g id="legend_1">
    <g id="patch_5">
     <path d="M 393.230354 20.977146 
L 423.565354 20.977146 
Q 425.165354 20.977146 425.165354 19.377146 
L 425.165354 8.434646 
Q 425.165354 6.834646 423.565354 6.834646 
L 393.230354 6.834646 
Q 391.630354 6.834646 391.630354 8.434646 
L 391.630354 19.377146 
Q 391.630354 20.977146 393.230354 20.977146 
z
" style="fill:#ffffff;stroke:#000000;stroke-linejoin:miter;"/>
    </g>
    <g id="line2d_20">
     <path d="M 394.830354 13.313396 
L 410.830354 13.313396 
" style="fill:none;stroke:#009afa;stroke-linecap:square;"/>
    </g>
    <g id="line2d_21"/>
    <g id="text_11">
     <!-- x -->
     <defs>
      <path d="M 54.890625 54.6875 
L 35.109375 28.078125 
L 55.90625 0 
L 45.3125 0 
L 29.390625 21.484375 
L 13.484375 0 
L 2.875 0 
L 24.125 28.609375 
L 4.6875 54.6875 
L 15.28125 54.6875 
L 29.78125 35.203125 
L 44.28125 54.6875 
z
" id="DejaVuSans-120"/>
     </defs>
     <g transform="translate(417.230354 16.113396)scale(0.08 -0.08)">
      <use xlink:href="#DejaVuSans-120"/>
     </g>
    </g>
   </g>
  </g>
  <g id="axes_2">
   <g id="patch_6">
    <path d="M 36.614646 259.665354 
L 429.165354 259.665354 
L 429.165354 139.434646 
L 36.614646 139.434646 
z
" style="fill:#ffffff;"/>
   </g>
   <g id="matplotlib.axis_3">
    <g id="xtick_5">
     <g id="line2d_22">
      <path clip-path="url(#p8f1357fec3)" d="M 45.255699 259.665354 
L 45.255699 139.434646 
" style="fill:none;stroke:#000000;stroke-linecap:square;stroke-opacity:0.1;stroke-width:0.5;"/>
     </g>
     <g id="line2d_23">
      <g>
       <use style="stroke:#000000;stroke-width:0.8;" x="45.255699" xlink:href="#m040de561ae" y="259.665354"/>
      </g>
     </g>
     <g id="text_12">
      <!-- 0 -->
      <g transform="translate(42.710699 269.244104)scale(0.08 -0.08)">
       <use xlink:href="#DejaVuSans-48"/>
      </g>
     </g>
    </g>
    <g id="xtick_6">
     <g id="line2d_24">
      <path clip-path="url(#p8f1357fec3)" d="M 168.699318 259.665354 
L 168.699318 139.434646 
" style="fill:none;stroke:#000000;stroke-linecap:square;stroke-opacity:0.1;stroke-width:0.5;"/>
     </g>
     <g id="line2d_25">
      <g>
       <use style="stroke:#000000;stroke-width:0.8;" x="168.699318" xlink:href="#m040de561ae" y="259.665354"/>
      </g>
     </g>
     <g id="text_13">
      <!-- 50 -->
      <g transform="translate(163.609318 269.244104)scale(0.08 -0.08)">
       <use xlink:href="#DejaVuSans-53"/>
       <use x="63.623047" xlink:href="#DejaVuSans-48"/>
      </g>
     </g>
    </g>
    <g id="xtick_7">
     <g id="line2d_26">
      <path clip-path="url(#p8f1357fec3)" d="M 292.142937 259.665354 
L 292.142937 139.434646 
" style="fill:none;stroke:#000000;stroke-linecap:square;stroke-opacity:0.1;stroke-width:0.5;"/>
     </g>
     <g id="line2d_27">
      <g>
       <use style="stroke:#000000;stroke-width:0.8;" x="292.142937" xlink:href="#m040de561ae" y="259.665354"/>
      </g>
     </g>
     <g id="text_14">
      <!-- 100 -->
      <g transform="translate(284.507937 269.244104)scale(0.08 -0.08)">
       <use xlink:href="#DejaVuSans-49"/>
       <use x="63.623047" xlink:href="#DejaVuSans-48"/>
       <use x="127.246094" xlink:href="#DejaVuSans-48"/>
      </g>
     </g>
    </g>
    <g id="xtick_8">
     <g id="line2d_28">
      <path clip-path="url(#p8f1357fec3)" d="M 415.586556 259.665354 
L 415.586556 139.434646 
" style="fill:none;stroke:#000000;stroke-linecap:square;stroke-opacity:0.1;stroke-width:0.5;"/>
     </g>
     <g id="line2d_29">
      <g>
       <use style="stroke:#000000;stroke-width:0.8;" x="415.586556" xlink:href="#m040de561ae" y="259.665354"/>
      </g>
     </g>
     <g id="text_15">
      <!-- 150 -->
      <g transform="translate(407.951556 269.244104)scale(0.08 -0.08)">
       <use xlink:href="#DejaVuSans-49"/>
       <use x="63.623047" xlink:href="#DejaVuSans-53"/>
       <use x="127.246094" xlink:href="#DejaVuSans-48"/>
      </g>
     </g>
    </g>
    <g id="text_16">
     <!-- Time step -->
     <defs>
      <path d="M -0.296875 72.90625 
L 61.375 72.90625 
L 61.375 64.59375 
L 35.5 64.59375 
L 35.5 0 
L 25.59375 0 
L 25.59375 64.59375 
L -0.296875 64.59375 
z
" id="DejaVuSans-84"/>
      <path d="M 9.421875 54.6875 
L 18.40625 54.6875 
L 18.40625 0 
L 9.421875 0 
z
M 9.421875 75.984375 
L 18.40625 75.984375 
L 18.40625 64.59375 
L 9.421875 64.59375 
z
" id="DejaVuSans-105"/>
      <path d="M 52 44.1875 
Q 55.375 50.25 60.0625 53.125 
Q 64.75 56 71.09375 56 
Q 79.640625 56 84.28125 50.015625 
Q 88.921875 44.046875 88.921875 33.015625 
L 88.921875 0 
L 79.890625 0 
L 79.890625 32.71875 
Q 79.890625 40.578125 77.09375 44.375 
Q 74.3125 48.1875 68.609375 48.1875 
Q 61.625 48.1875 57.5625 43.546875 
Q 53.515625 38.921875 53.515625 30.90625 
L 53.515625 0 
L 44.484375 0 
L 44.484375 32.71875 
Q 44.484375 40.625 41.703125 44.40625 
Q 38.921875 48.1875 33.109375 48.1875 
Q 26.21875 48.1875 22.15625 43.53125 
Q 18.109375 38.875 18.109375 30.90625 
L 18.109375 0 
L 9.078125 0 
L 9.078125 54.6875 
L 18.109375 54.6875 
L 18.109375 46.1875 
Q 21.1875 51.21875 25.484375 53.609375 
Q 29.78125 56 35.6875 56 
Q 41.65625 56 45.828125 52.96875 
Q 50 49.953125 52 44.1875 
z
" id="DejaVuSans-109"/>
      <path id="DejaVuSans-32"/>
      <path d="M 44.28125 53.078125 
L 44.28125 44.578125 
Q 40.484375 46.53125 36.375 47.5 
Q 32.28125 48.484375 27.875 48.484375 
Q 21.1875 48.484375 17.84375 46.4375 
Q 14.5 44.390625 14.5 40.28125 
Q 14.5 37.15625 16.890625 35.375 
Q 19.28125 33.59375 26.515625 31.984375 
L 29.59375 31.296875 
Q 39.15625 29.25 43.1875 25.515625 
Q 47.21875 21.78125 47.21875 15.09375 
Q 47.21875 7.46875 41.1875 3.015625 
Q 35.15625 -1.421875 24.609375 -1.421875 
Q 20.21875 -1.421875 15.453125 -0.5625 
Q 10.6875 0.296875 5.421875 2 
L 5.421875 11.28125 
Q 10.40625 8.6875 15.234375 7.390625 
Q 20.0625 6.109375 24.8125 6.109375 
Q 31.15625 6.109375 34.5625 8.28125 
Q 37.984375 10.453125 37.984375 14.40625 
Q 37.984375 18.0625 35.515625 20.015625 
Q 33.0625 21.96875 24.703125 23.78125 
L 21.578125 24.515625 
Q 13.234375 26.265625 9.515625 29.90625 
Q 5.8125 33.546875 5.8125 39.890625 
Q 5.8125 47.609375 11.28125 51.796875 
Q 16.75 56 26.8125 56 
Q 31.78125 56 36.171875 55.265625 
Q 40.578125 54.546875 44.28125 53.078125 
z
" id="DejaVuSans-115"/>
      <path d="M 18.3125 70.21875 
L 18.3125 54.6875 
L 36.8125 54.6875 
L 36.8125 47.703125 
L 18.3125 47.703125 
L 18.3125 18.015625 
Q 18.3125 11.328125 20.140625 9.421875 
Q 21.96875 7.515625 27.59375 7.515625 
L 36.8125 7.515625 
L 36.8125 0 
L 27.59375 0 
Q 17.1875 0 13.234375 3.875 
Q 9.28125 7.765625 9.28125 18.015625 
L 9.28125 47.703125 
L 2.6875 47.703125 
L 2.6875 54.6875 
L 9.28125 54.6875 
L 9.28125 70.21875 
z
" id="DejaVuSans-116"/>
      <path d="M 18.109375 8.203125 
L 18.109375 -20.796875 
L 9.078125 -20.796875 
L 9.078125 54.6875 
L 18.109375 54.6875 
L 18.109375 46.390625 
Q 20.953125 51.265625 25.265625 53.625 
Q 29.59375 56 35.59375 56 
Q 45.5625 56 51.78125 48.09375 
Q 58.015625 40.1875 58.015625 27.296875 
Q 58.015625 14.40625 51.78125 6.484375 
Q 45.5625 -1.421875 35.59375 -1.421875 
Q 29.59375 -1.421875 25.265625 0.953125 
Q 20.953125 3.328125 18.109375 8.203125 
z
M 48.6875 27.296875 
Q 48.6875 37.203125 44.609375 42.84375 
Q 40.53125 48.484375 33.40625 48.484375 
Q 26.265625 48.484375 22.1875 42.84375 
Q 18.109375 37.203125 18.109375 27.296875 
Q 18.109375 17.390625 22.1875 11.75 
Q 26.265625 6.109375 33.40625 6.109375 
Q 40.53125 6.109375 44.609375 11.75 
Q 48.6875 17.390625 48.6875 27.296875 
z
" id="DejaVuSans-112"/>
     </defs>
     <g transform="translate(205.618594 283.266136)scale(0.11 -0.11)">
      <use xlink:href="#DejaVuSans-84"/>
      <use x="61.037109" xlink:href="#DejaVuSans-105"/>
      <use x="88.820312" xlink:href="#DejaVuSans-109"/>
      <use x="186.232422" xlink:href="#DejaVuSans-101"/>
      <use x="247.755859" xlink:href="#DejaVuSans-32"/>
      <use x="279.542969" xlink:href="#DejaVuSans-115"/>
      <use x="331.642578" xlink:href="#DejaVuSans-116"/>
      <use x="370.851562" xlink:href="#DejaVuSans-101"/>
      <use x="432.375" xlink:href="#DejaVuSans-112"/>
     </g>
    </g>
   </g>
   <g id="matplotlib.axis_4">
    <g id="ytick_6">
     <g id="line2d_30">
      <path clip-path="url(#p8f1357fec3)" d="M 36.614646 251.553086 
L 429.165354 251.553086 
" style="fill:none;stroke:#000000;stroke-linecap:square;stroke-opacity:0.1;stroke-width:0.5;"/>
     </g>
     <g id="line2d_31">
      <g>
       <use style="stroke:#000000;stroke-width:0.8;" x="36.614646" xlink:href="#m06b2031818" y="251.553086"/>
      </g>
     </g>
     <g id="text_17">
      <!-- -1.0 -->
      <g transform="translate(17.505896 254.592461)scale(0.08 -0.08)">
       <use xlink:href="#DejaVuSans-45"/>
       <use x="36.083984" xlink:href="#DejaVuSans-49"/>
       <use x="99.707031" xlink:href="#DejaVuSans-46"/>
       <use x="131.494141" xlink:href="#DejaVuSans-48"/>
      </g>
     </g>
    </g>
    <g id="ytick_7">
     <g id="line2d_32">
      <path clip-path="url(#p8f1357fec3)" d="M 36.614646 223.086478 
L 429.165354 223.086478 
" style="fill:none;stroke:#000000;stroke-linecap:square;stroke-opacity:0.1;stroke-width:0.5;"/>
     </g>
     <g id="line2d_33">
      <g>
       <use style="stroke:#000000;stroke-width:0.8;" x="36.614646" xlink:href="#m06b2031818" y="223.086478"/>
      </g>
     </g>
     <g id="text_18">
      <!-- -0.5 -->
      <g transform="translate(17.505896 226.125853)scale(0.08 -0.08)">
       <use xlink:href="#DejaVuSans-45"/>
       <use x="36.083984" xlink:href="#DejaVuSans-48"/>
       <use x="99.707031" xlink:href="#DejaVuSans-46"/>
       <use x="131.494141" xlink:href="#DejaVuSans-53"/>
      </g>
     </g>
    </g>
    <g id="ytick_8">
     <g id="line2d_34">
      <path clip-path="url(#p8f1357fec3)" d="M 36.614646 194.619871 
L 429.165354 194.619871 
" style="fill:none;stroke:#000000;stroke-linecap:square;stroke-opacity:0.1;stroke-width:0.5;"/>
     </g>
     <g id="line2d_35">
      <g>
       <use style="stroke:#000000;stroke-width:0.8;" x="36.614646" xlink:href="#m06b2031818" y="194.619871"/>
      </g>
     </g>
     <g id="text_19">
      <!-- 0.0 -->
      <g transform="translate(20.392146 197.659246)scale(0.08 -0.08)">
       <use xlink:href="#DejaVuSans-48"/>
       <use x="63.623047" xlink:href="#DejaVuSans-46"/>
       <use x="95.410156" xlink:href="#DejaVuSans-48"/>
      </g>
     </g>
    </g>
    <g id="ytick_9">
     <g id="line2d_36">
      <path clip-path="url(#p8f1357fec3)" d="M 36.614646 166.153263 
L 429.165354 166.153263 
" style="fill:none;stroke:#000000;stroke-linecap:square;stroke-opacity:0.1;stroke-width:0.5;"/>
     </g>
     <g id="line2d_37">
      <g>
       <use style="stroke:#000000;stroke-width:0.8;" x="36.614646" xlink:href="#m06b2031818" y="166.153263"/>
      </g>
     </g>
     <g id="text_20">
      <!-- 0.5 -->
      <g transform="translate(20.392146 169.192638)scale(0.08 -0.08)">
       <use xlink:href="#DejaVuSans-48"/>
       <use x="63.623047" xlink:href="#DejaVuSans-46"/>
       <use x="95.410156" xlink:href="#DejaVuSans-53"/>
      </g>
     </g>
    </g>
    <g id="text_21">
     <!-- Value -->
     <g transform="translate(11.218239 215.074609)rotate(-90)scale(0.11 -0.11)">
      <use xlink:href="#DejaVuSans-86"/>
      <use x="68.298828" xlink:href="#DejaVuSans-97"/>
      <use x="129.578125" xlink:href="#DejaVuSans-108"/>
      <use x="157.361328" xlink:href="#DejaVuSans-117"/>
      <use x="220.740234" xlink:href="#DejaVuSans-101"/>
     </g>
    </g>
   </g>
   <g id="line2d_38">
    <path clip-path="url(#p8f1357fec3)" d="M 47.724571 219.032832 
L 50.193444 181.484858 
L 52.662316 175.93313 
L 55.131189 184.070692 
L 57.600061 178.423431 
L 60.068933 190.248637 
L 62.537806 182.809326 
L 65.006678 165.02055 
L 67.47555 181.339947 
L 69.944423 175.469819 
L 72.413295 158.485297 
L 74.882168 175.270025 
L 77.35104 196.023856 
L 79.819912 185.65381 
L 82.288785 182.005596 
L 84.757657 190.109992 
L 87.226529 169.229107 
L 89.695402 185.433169 
L 92.164274 184.028797 
L 94.633147 159.651933 
L 97.102019 169.770319 
L 99.570891 150.925961 
L 102.039764 175.540329 
L 104.508636 187.889504 
L 106.977509 186.929952 
L 109.446381 188.132192 
L 111.915253 184.15928 
L 114.384126 181.338695 
L 116.852998 194.868302 
L 119.32187 176.281276 
L 121.790743 156.347715 
L 124.259615 192.020044 
L 126.728488 188.209341 
L 129.19736 198.333235 
L 131.666232 173.431441 
L 134.135105 166.021368 
L 136.603977 167.898336 
L 139.07285 188.584206 
L 141.541722 197.246726 
L 144.010594 202.228889 
L 146.479467 201.366002 
L 148.948339 197.067232 
L 151.417211 197.325611 
L 153.886084 202.520958 
L 156.354956 179.638257 
L 158.823829 200.12239 
L 161.292701 186.787162 
L 163.761573 184.503254 
L 166.230446 207.58084 
L 168.699318 201.276186 
L 171.16819 186.320826 
L 173.637063 185.117862 
L 176.105935 196.446855 
L 178.574808 198.978502 
L 181.04368 188.556525 
L 183.512552 174.787521 
L 185.981425 183.76236 
L 188.450297 191.222125 
L 190.91917 181.519731 
L 193.388042 178.482343 
L 195.856914 183.010388 
L 198.325787 184.796998 
L 200.794659 186.135664 
L 203.263531 198.733051 
L 205.732404 175.499861 
L 208.201276 187.557886 
L 210.670149 182.682905 
L 213.139021 184.331179 
L 215.607893 190.728097 
L 218.076766 193.363867 
L 220.545638 182.779545 
L 223.01451 179.685141 
L 225.483383 176.977802 
L 227.952255 187.525804 
L 230.421128 182.415754 
L 232.89 187.026044 
L 235.358872 195.267055 
L 237.827745 188.422993 
L 240.296617 186.971655 
L 242.76549 186.489499 
L 245.234362 191.037197 
L 247.703234 187.522151 
L 250.172107 185.668411 
L 252.640979 188.153268 
L 255.109851 184.826184 
L 257.578724 190.811261 
L 260.047596 186.083502 
L 262.516469 186.982028 
L 264.985341 192.659413 
L 267.454213 203.694498 
L 269.923086 199.583491 
L 272.391958 205.282143 
L 274.86083 200.445656 
L 277.329703 204.993146 
L 279.798575 195.878999 
L 282.267448 201.627643 
L 284.73632 204.772522 
L 287.205192 205.273683 
L 289.674065 196.632762 
L 292.142937 197.56768 
L 294.61181 182.633494 
L 297.080682 191.358214 
L 299.549554 167.0025 
L 302.018427 181.241467 
L 304.487299 185.978654 
L 306.956171 199.62115 
L 309.425044 188.061608 
L 311.893916 192.85055 
L 314.362789 196.608203 
L 316.831661 187.283789 
L 319.300533 196.894409 
L 321.769406 202.519356 
L 324.238278 181.038716 
L 326.70715 186.896631 
L 329.176023 192.361591 
L 331.644895 179.506589 
L 334.113768 161.547135 
L 336.58264 183.15137 
L 339.051512 191.624293 
L 341.520385 180.631344 
L 343.989257 167.652797 
L 346.45813 205.189982 
L 348.927002 172.955259 
L 351.395874 176.931488 
L 353.864747 188.718341 
L 356.333619 184.519755 
L 358.802491 191.84883 
L 361.271364 179.418207 
L 363.740236 184.645833 
L 366.209109 171.949943 
L 368.677981 165.911609 
L 371.146853 182.325355 
L 373.615726 164.642091 
L 376.084598 169.211559 
L 378.553471 149.520554 
L 381.022343 149.504976 
L 383.491215 142.837402 
L 385.960088 175.154498 
L 388.42896 166.05367 
L 390.897832 194.434665 
L 393.366705 159.216294 
L 395.835577 184.817475 
L 398.30445 180.508458 
L 400.773322 192.65761 
L 403.242194 202.335127 
L 405.711067 212.609433 
L 408.179939 202.696296 
L 410.648811 256.262598 
L 413.117684 227.37388 
L 415.586556 225.2041 
L 418.055429 195.637042 
L 418.055429 195.637042 
" style="fill:none;stroke:#009afa;stroke-linecap:round;"/>
   </g>
   <g id="patch_7">
    <path d="M 36.614646 259.665354 
L 36.614646 139.434646 
" style="fill:none;stroke:#000000;stroke-linecap:square;stroke-linejoin:miter;"/>
   </g>
   <g id="patch_8">
    <path d="M 36.614646 259.665354 
L 429.165354 259.665354 
" style="fill:none;stroke:#000000;stroke-linecap:square;stroke-linejoin:miter;"/>
   </g>
   <g id="legend_2">
    <g id="patch_9">
     <path d="M 42.214646 255.665354 
L 138.128396 255.665354 
Q 139.728396 255.665354 139.728396 254.065354 
L 139.728396 243.122854 
Q 139.728396 241.522854 138.128396 241.522854 
L 42.214646 241.522854 
Q 40.614646 241.522854 40.614646 243.122854 
L 40.614646 254.065354 
Q 40.614646 255.665354 42.214646 255.665354 
z
" style="fill:#ffffff;stroke:#000000;stroke-linejoin:miter;"/>
    </g>
    <g id="line2d_39">
     <path d="M 43.814646 248.001604 
L 59.814646 248.001604 
" style="fill:none;stroke:#009afa;stroke-linecap:square;"/>
    </g>
    <g id="line2d_40"/>
    <g id="text_22">
     <!-- randomphases(x) -->
     <defs>
      <path d="M 41.109375 46.296875 
Q 39.59375 47.171875 37.8125 47.578125 
Q 36.03125 48 33.890625 48 
Q 26.265625 48 22.1875 43.046875 
Q 18.109375 38.09375 18.109375 28.8125 
L 18.109375 0 
L 9.078125 0 
L 9.078125 54.6875 
L 18.109375 54.6875 
L 18.109375 46.1875 
Q 20.953125 51.171875 25.484375 53.578125 
Q 30.03125 56 36.53125 56 
Q 37.453125 56 38.578125 55.875 
Q 39.703125 55.765625 41.0625 55.515625 
z
" id="DejaVuSans-114"/>
      <path d="M 54.890625 33.015625 
L 54.890625 0 
L 45.90625 0 
L 45.90625 32.71875 
Q 45.90625 40.484375 42.875 44.328125 
Q 39.84375 48.1875 33.796875 48.1875 
Q 26.515625 48.1875 22.3125 43.546875 
Q 18.109375 38.921875 18.109375 30.90625 
L 18.109375 0 
L 9.078125 0 
L 9.078125 54.6875 
L 18.109375 54.6875 
L 18.109375 46.1875 
Q 21.34375 51.125 25.703125 53.5625 
Q 30.078125 56 35.796875 56 
Q 45.21875 56 50.046875 50.171875 
Q 54.890625 44.34375 54.890625 33.015625 
z
" id="DejaVuSans-110"/>
      <path d="M 45.40625 46.390625 
L 45.40625 75.984375 
L 54.390625 75.984375 
L 54.390625 0 
L 45.40625 0 
L 45.40625 8.203125 
Q 42.578125 3.328125 38.25 0.953125 
Q 33.9375 -1.421875 27.875 -1.421875 
Q 17.96875 -1.421875 11.734375 6.484375 
Q 5.515625 14.40625 5.515625 27.296875 
Q 5.515625 40.1875 11.734375 48.09375 
Q 17.96875 56 27.875 56 
Q 33.9375 56 38.25 53.625 
Q 42.578125 51.265625 45.40625 46.390625 
z
M 14.796875 27.296875 
Q 14.796875 17.390625 18.875 11.75 
Q 22.953125 6.109375 30.078125 6.109375 
Q 37.203125 6.109375 41.296875 11.75 
Q 45.40625 17.390625 45.40625 27.296875 
Q 45.40625 37.203125 41.296875 42.84375 
Q 37.203125 48.484375 30.078125 48.484375 
Q 22.953125 48.484375 18.875 42.84375 
Q 14.796875 37.203125 14.796875 27.296875 
z
" id="DejaVuSans-100"/>
      <path d="M 30.609375 48.390625 
Q 23.390625 48.390625 19.1875 42.75 
Q 14.984375 37.109375 14.984375 27.296875 
Q 14.984375 17.484375 19.15625 11.84375 
Q 23.34375 6.203125 30.609375 6.203125 
Q 37.796875 6.203125 41.984375 11.859375 
Q 46.1875 17.53125 46.1875 27.296875 
Q 46.1875 37.015625 41.984375 42.703125 
Q 37.796875 48.390625 30.609375 48.390625 
z
M 30.609375 56 
Q 42.328125 56 49.015625 48.375 
Q 55.71875 40.765625 55.71875 27.296875 
Q 55.71875 13.875 49.015625 6.21875 
Q 42.328125 -1.421875 30.609375 -1.421875 
Q 18.84375 -1.421875 12.171875 6.21875 
Q 5.515625 13.875 5.515625 27.296875 
Q 5.515625 40.765625 12.171875 48.375 
Q 18.84375 56 30.609375 56 
z
" id="DejaVuSans-111"/>
      <path d="M 54.890625 33.015625 
L 54.890625 0 
L 45.90625 0 
L 45.90625 32.71875 
Q 45.90625 40.484375 42.875 44.328125 
Q 39.84375 48.1875 33.796875 48.1875 
Q 26.515625 48.1875 22.3125 43.546875 
Q 18.109375 38.921875 18.109375 30.90625 
L 18.109375 0 
L 9.078125 0 
L 9.078125 75.984375 
L 18.109375 75.984375 
L 18.109375 46.1875 
Q 21.34375 51.125 25.703125 53.5625 
Q 30.078125 56 35.796875 56 
Q 45.21875 56 50.046875 50.171875 
Q 54.890625 44.34375 54.890625 33.015625 
z
" id="DejaVuSans-104"/>
      <path d="M 31 75.875 
Q 24.46875 64.65625 21.28125 53.65625 
Q 18.109375 42.671875 18.109375 31.390625 
Q 18.109375 20.125 21.3125 9.0625 
Q 24.515625 -2 31 -13.1875 
L 23.1875 -13.1875 
Q 15.875 -1.703125 12.234375 9.375 
Q 8.59375 20.453125 8.59375 31.390625 
Q 8.59375 42.28125 12.203125 53.3125 
Q 15.828125 64.359375 23.1875 75.875 
z
" id="DejaVuSans-40"/>
      <path d="M 8.015625 75.875 
L 15.828125 75.875 
Q 23.140625 64.359375 26.78125 53.3125 
Q 30.421875 42.28125 30.421875 31.390625 
Q 30.421875 20.453125 26.78125 9.375 
Q 23.140625 -1.703125 15.828125 -13.1875 
L 8.015625 -13.1875 
Q 14.5 -2 17.703125 9.0625 
Q 20.90625 20.125 20.90625 31.390625 
Q 20.90625 42.671875 17.703125 53.65625 
Q 14.5 64.65625 8.015625 75.875 
z
" id="DejaVuSans-41"/>
     </defs>
     <g transform="translate(66.214646 250.801604)scale(0.08 -0.08)">
      <use xlink:href="#DejaVuSans-114"/>
      <use x="41.113281" xlink:href="#DejaVuSans-97"/>
      <use x="102.392578" xlink:href="#DejaVuSans-110"/>
      <use x="165.771484" xlink:href="#DejaVuSans-100"/>
      <use x="229.248047" xlink:href="#DejaVuSans-111"/>
      <use x="290.429688" xlink:href="#DejaVuSans-109"/>
      <use x="387.841797" xlink:href="#DejaVuSans-112"/>
      <use x="451.318359" xlink:href="#DejaVuSans-104"/>
      <use x="514.697266" xlink:href="#DejaVuSans-97"/>
      <use x="575.976562" xlink:href="#DejaVuSans-115"/>
      <use x="628.076172" xlink:href="#DejaVuSans-101"/>
      <use x="689.599609" xlink:href="#DejaVuSans-115"/>
      <use x="741.699219" xlink:href="#DejaVuSans-40"/>
      <use x="780.712891" xlink:href="#DejaVuSans-120"/>
      <use x="839.892578" xlink:href="#DejaVuSans-41"/>
     </g>
    </g>
   </g>
  </g>
 </g>
 <defs>
  <clipPath id="p273c6c70d2">
   <rect height="120.230709" width="392.550709" x="36.614646" y="2.834646"/>
  </clipPath>
  <clipPath id="p8f1357fec3">
   <rect height="120.230709" width="392.550709" x="36.614646" y="139.434646"/>
  </clipPath>
 </defs>
</svg>
