<?xml version="1.0" encoding="utf-8"?>
<svg xmlns="http://www.w3.org/2000/svg" xmlns:xlink="http://www.w3.org/1999/xlink" width="600" height="400" viewBox="0 0 2400 1600">
<defs>
  <clipPath id="clip530">
    <rect x="0" y="0" width="2400" height="1600"/>
  </clipPath>
</defs>
<path clip-path="url(#clip530)" d="
M0 1600 L2400 1600 L2400 0 L0 0  Z
  " fill="#ffffff" fill-rule="evenodd" fill-opacity="1"/>
<defs>
  <clipPath id="clip531">
    <rect x="480" y="0" width="1681" height="1600"/>
  </clipPath>
</defs>
<path clip-path="url(#clip530)" d="
M256.556 1423.18 L2352.76 1423.18 L2352.76 47.2441 L256.556 47.2441  Z
  " fill="#ffffff" fill-rule="evenodd" fill-opacity="1"/>
<defs>
  <clipPath id="clip532">
    <rect x="256" y="47" width="2097" height="1377"/>
  </clipPath>
</defs>
<polyline clip-path="url(#clip532)" style="stroke:#000000; stroke-linecap:round; stroke-linejoin:round; stroke-width:2; stroke-opacity:0.1; fill:none" points="
  275.524,1423.18 275.524,47.2441 
  "/>
<polyline clip-path="url(#clip532)" style="stroke:#000000; stroke-linecap:round; stroke-linejoin:round; stroke-width:2; stroke-opacity:0.1; fill:none" points="
  780.001,1423.18 780.001,47.2441 
  "/>
<polyline clip-path="url(#clip532)" style="stroke:#000000; stroke-linecap:round; stroke-linejoin:round; stroke-width:2; stroke-opacity:0.1; fill:none" points="
  1284.48,1423.18 1284.48,47.2441 
  "/>
<polyline clip-path="url(#clip532)" style="stroke:#000000; stroke-linecap:round; stroke-linejoin:round; stroke-width:2; stroke-opacity:0.1; fill:none" points="
  1788.95,1423.18 1788.95,47.2441 
  "/>
<polyline clip-path="url(#clip532)" style="stroke:#000000; stroke-linecap:round; stroke-linejoin:round; stroke-width:2; stroke-opacity:0.1; fill:none" points="
  2293.43,1423.18 2293.43,47.2441 
  "/>
<polyline clip-path="url(#clip530)" style="stroke:#000000; stroke-linecap:round; stroke-linejoin:round; stroke-width:4; stroke-opacity:1; fill:none" points="
  256.556,1423.18 2352.76,1423.18 
  "/>
<polyline clip-path="url(#clip530)" style="stroke:#000000; stroke-linecap:round; stroke-linejoin:round; stroke-width:4; stroke-opacity:1; fill:none" points="
  275.524,1423.18 275.524,1404.28 
  "/>
<polyline clip-path="url(#clip530)" style="stroke:#000000; stroke-linecap:round; stroke-linejoin:round; stroke-width:4; stroke-opacity:1; fill:none" points="
  780.001,1423.18 780.001,1404.28 
  "/>
<polyline clip-path="url(#clip530)" style="stroke:#000000; stroke-linecap:round; stroke-linejoin:round; stroke-width:4; stroke-opacity:1; fill:none" points="
  1284.48,1423.18 1284.48,1404.28 
  "/>
<polyline clip-path="url(#clip530)" style="stroke:#000000; stroke-linecap:round; stroke-linejoin:round; stroke-width:4; stroke-opacity:1; fill:none" points="
  1788.95,1423.18 1788.95,1404.28 
  "/>
<polyline clip-path="url(#clip530)" style="stroke:#000000; stroke-linecap:round; stroke-linejoin:round; stroke-width:4; stroke-opacity:1; fill:none" points="
  2293.43,1423.18 2293.43,1404.28 
  "/>
<path clip-path="url(#clip530)" d="M237.828 1454.1 Q234.217 1454.1 232.388 1457.66 Q230.582 1461.2 230.582 1468.33 Q230.582 1475.44 232.388 1479.01 Q234.217 1482.55 237.828 1482.55 Q241.462 1482.55 243.267 1479.01 Q245.096 1475.44 245.096 1468.33 Q245.096 1461.2 243.267 1457.66 Q241.462 1454.1 237.828 1454.1 M237.828 1450.39 Q243.638 1450.39 246.693 1455 Q249.772 1459.58 249.772 1468.33 Q249.772 1477.06 246.693 1481.67 Q243.638 1486.25 237.828 1486.25 Q232.017 1486.25 228.939 1481.67 Q225.883 1477.06 225.883 1468.33 Q225.883 1459.58 228.939 1455 Q232.017 1450.39 237.828 1450.39 Z" fill="#000000" fill-rule="evenodd" fill-opacity="1" /><path clip-path="url(#clip530)" d="M257.99 1479.7 L262.874 1479.7 L262.874 1485.58 L257.99 1485.58 L257.99 1479.7 Z" fill="#000000" fill-rule="evenodd" fill-opacity="1" /><path clip-path="url(#clip530)" d="M283.059 1454.1 Q279.448 1454.1 277.619 1457.66 Q275.814 1461.2 275.814 1468.33 Q275.814 1475.44 277.619 1479.01 Q279.448 1482.55 283.059 1482.55 Q286.693 1482.55 288.499 1479.01 Q290.327 1475.44 290.327 1468.33 Q290.327 1461.2 288.499 1457.66 Q286.693 1454.1 283.059 1454.1 M283.059 1450.39 Q288.869 1450.39 291.925 1455 Q295.003 1459.58 295.003 1468.33 Q295.003 1477.06 291.925 1481.67 Q288.869 1486.25 283.059 1486.25 Q277.249 1486.25 274.17 1481.67 Q271.114 1477.06 271.114 1468.33 Q271.114 1459.58 274.17 1455 Q277.249 1450.39 283.059 1450.39 Z" fill="#000000" fill-rule="evenodd" fill-opacity="1" /><path clip-path="url(#clip530)" d="M313.221 1454.1 Q309.61 1454.1 307.781 1457.66 Q305.975 1461.2 305.975 1468.33 Q305.975 1475.44 307.781 1479.01 Q309.61 1482.55 313.221 1482.55 Q316.855 1482.55 318.661 1479.01 Q320.489 1475.44 320.489 1468.33 Q320.489 1461.2 318.661 1457.66 Q316.855 1454.1 313.221 1454.1 M313.221 1450.39 Q319.031 1450.39 322.086 1455 Q325.165 1459.58 325.165 1468.33 Q325.165 1477.06 322.086 1481.67 Q319.031 1486.25 313.221 1486.25 Q307.411 1486.25 304.332 1481.67 Q301.276 1477.06 301.276 1468.33 Q301.276 1459.58 304.332 1455 Q307.411 1450.39 313.221 1450.39 Z" fill="#000000" fill-rule="evenodd" fill-opacity="1" /><path clip-path="url(#clip530)" d="M742.802 1454.1 Q739.191 1454.1 737.362 1457.66 Q735.556 1461.2 735.556 1468.33 Q735.556 1475.44 737.362 1479.01 Q739.191 1482.55 742.802 1482.55 Q746.436 1482.55 748.241 1479.01 Q750.07 1475.44 750.07 1468.33 Q750.07 1461.2 748.241 1457.66 Q746.436 1454.1 742.802 1454.1 M742.802 1450.39 Q748.612 1450.39 751.667 1455 Q754.746 1459.58 754.746 1468.33 Q754.746 1477.06 751.667 1481.67 Q748.612 1486.25 742.802 1486.25 Q736.991 1486.25 733.913 1481.67 Q730.857 1477.06 730.857 1468.33 Q730.857 1459.58 733.913 1455 Q736.991 1450.39 742.802 1450.39 Z" fill="#000000" fill-rule="evenodd" fill-opacity="1" /><path clip-path="url(#clip530)" d="M762.964 1479.7 L767.848 1479.7 L767.848 1485.58 L762.964 1485.58 L762.964 1479.7 Z" fill="#000000" fill-rule="evenodd" fill-opacity="1" /><path clip-path="url(#clip530)" d="M782.061 1481.64 L798.38 1481.64 L798.38 1485.58 L776.436 1485.58 L776.436 1481.64 Q779.098 1478.89 783.681 1474.26 Q788.288 1469.61 789.468 1468.27 Q791.713 1465.74 792.593 1464.01 Q793.496 1462.25 793.496 1460.56 Q793.496 1457.8 791.551 1456.07 Q789.63 1454.33 786.528 1454.33 Q784.329 1454.33 781.876 1455.09 Q779.445 1455.86 776.667 1457.41 L776.667 1452.69 Q779.491 1451.55 781.945 1450.97 Q784.399 1450.39 786.436 1450.39 Q791.806 1450.39 795 1453.08 Q798.195 1455.77 798.195 1460.26 Q798.195 1462.39 797.385 1464.31 Q796.598 1466.2 794.491 1468.8 Q793.912 1469.47 790.811 1472.69 Q787.709 1475.88 782.061 1481.64 Z" fill="#000000" fill-rule="evenodd" fill-opacity="1" /><path clip-path="url(#clip530)" d="M808.241 1451.02 L826.597 1451.02 L826.597 1454.96 L812.523 1454.96 L812.523 1463.43 Q813.542 1463.08 814.561 1462.92 Q815.579 1462.73 816.598 1462.73 Q822.385 1462.73 825.764 1465.9 Q829.144 1469.08 829.144 1474.49 Q829.144 1480.07 825.672 1483.17 Q822.199 1486.25 815.88 1486.25 Q813.704 1486.25 811.436 1485.88 Q809.19 1485.51 806.783 1484.77 L806.783 1480.07 Q808.866 1481.2 811.088 1481.76 Q813.311 1482.32 815.787 1482.32 Q819.792 1482.32 822.13 1480.21 Q824.468 1478.1 824.468 1474.49 Q824.468 1470.88 822.13 1468.77 Q819.792 1466.67 815.787 1466.67 Q813.912 1466.67 812.037 1467.08 Q810.186 1467.5 808.241 1468.38 L808.241 1451.02 Z" fill="#000000" fill-rule="evenodd" fill-opacity="1" /><path clip-path="url(#clip530)" d="M1246.78 1454.1 Q1243.17 1454.1 1241.34 1457.66 Q1239.53 1461.2 1239.53 1468.33 Q1239.53 1475.44 1241.34 1479.01 Q1243.17 1482.55 1246.78 1482.55 Q1250.41 1482.55 1252.22 1479.01 Q1254.05 1475.44 1254.05 1468.33 Q1254.05 1461.2 1252.22 1457.66 Q1250.41 1454.1 1246.78 1454.1 M1246.78 1450.39 Q1252.59 1450.39 1255.65 1455 Q1258.72 1459.58 1258.72 1468.33 Q1258.72 1477.06 1255.65 1481.67 Q1252.59 1486.25 1246.78 1486.25 Q1240.97 1486.25 1237.89 1481.67 Q1234.84 1477.06 1234.84 1468.33 Q1234.84 1459.58 1237.89 1455 Q1240.97 1450.39 1246.78 1450.39 Z" fill="#000000" fill-rule="evenodd" fill-opacity="1" /><path clip-path="url(#clip530)" d="M1266.94 1479.7 L1271.83 1479.7 L1271.83 1485.58 L1266.94 1485.58 L1266.94 1479.7 Z" fill="#000000" fill-rule="evenodd" fill-opacity="1" /><path clip-path="url(#clip530)" d="M1282.06 1451.02 L1300.41 1451.02 L1300.41 1454.96 L1286.34 1454.96 L1286.34 1463.43 Q1287.36 1463.08 1288.38 1462.92 Q1289.4 1462.73 1290.41 1462.73 Q1296.2 1462.73 1299.58 1465.9 Q1302.96 1469.08 1302.96 1474.49 Q1302.96 1480.07 1299.49 1483.17 Q1296.02 1486.25 1289.7 1486.25 Q1287.52 1486.25 1285.25 1485.88 Q1283.01 1485.51 1280.6 1484.77 L1280.6 1480.07 Q1282.68 1481.2 1284.91 1481.76 Q1287.13 1482.32 1289.6 1482.32 Q1293.61 1482.32 1295.95 1480.21 Q1298.28 1478.1 1298.28 1474.49 Q1298.28 1470.88 1295.95 1468.77 Q1293.61 1466.67 1289.6 1466.67 Q1287.73 1466.67 1285.85 1467.08 Q1284 1467.5 1282.06 1468.38 L1282.06 1451.02 Z" fill="#000000" fill-rule="evenodd" fill-opacity="1" /><path clip-path="url(#clip530)" d="M1322.17 1454.1 Q1318.56 1454.1 1316.73 1457.66 Q1314.93 1461.2 1314.93 1468.33 Q1314.93 1475.44 1316.73 1479.01 Q1318.56 1482.55 1322.17 1482.55 Q1325.81 1482.55 1327.61 1479.01 Q1329.44 1475.44 1329.44 1468.33 Q1329.44 1461.2 1327.61 1457.66 Q1325.81 1454.1 1322.17 1454.1 M1322.17 1450.39 Q1327.98 1450.39 1331.04 1455 Q1334.12 1459.58 1334.12 1468.33 Q1334.12 1477.06 1331.04 1481.67 Q1327.98 1486.25 1322.17 1486.25 Q1316.36 1486.25 1313.28 1481.67 Q1310.23 1477.06 1310.23 1468.33 Q1310.23 1459.58 1313.28 1455 Q1316.36 1450.39 1322.17 1450.39 Z" fill="#000000" fill-rule="evenodd" fill-opacity="1" /><path clip-path="url(#clip530)" d="M1751.75 1454.1 Q1748.14 1454.1 1746.31 1457.66 Q1744.51 1461.2 1744.51 1468.33 Q1744.51 1475.44 1746.31 1479.01 Q1748.14 1482.55 1751.75 1482.55 Q1755.39 1482.55 1757.19 1479.01 Q1759.02 1475.44 1759.02 1468.33 Q1759.02 1461.2 1757.19 1457.66 Q1755.39 1454.1 1751.75 1454.1 M1751.75 1450.39 Q1757.56 1450.39 1760.62 1455 Q1763.7 1459.58 1763.7 1468.33 Q1763.7 1477.06 1760.62 1481.67 Q1757.56 1486.25 1751.75 1486.25 Q1745.94 1486.25 1742.87 1481.67 Q1739.81 1477.06 1739.81 1468.33 Q1739.81 1459.58 1742.87 1455 Q1745.94 1450.39 1751.75 1450.39 Z" fill="#000000" fill-rule="evenodd" fill-opacity="1" /><path clip-path="url(#clip530)" d="M1771.92 1479.7 L1776.8 1479.7 L1776.8 1485.58 L1771.92 1485.58 L1771.92 1479.7 Z" fill="#000000" fill-rule="evenodd" fill-opacity="1" /><path clip-path="url(#clip530)" d="M1785.81 1451.02 L1808.03 1451.02 L1808.03 1453.01 L1795.48 1485.58 L1790.6 1485.58 L1802.4 1454.96 L1785.81 1454.96 L1785.81 1451.02 Z" fill="#000000" fill-rule="evenodd" fill-opacity="1" /><path clip-path="url(#clip530)" d="M1817.19 1451.02 L1835.55 1451.02 L1835.55 1454.96 L1821.48 1454.96 L1821.48 1463.43 Q1822.49 1463.08 1823.51 1462.92 Q1824.53 1462.73 1825.55 1462.73 Q1831.34 1462.73 1834.72 1465.9 Q1838.1 1469.08 1838.1 1474.49 Q1838.1 1480.07 1834.62 1483.17 Q1831.15 1486.25 1824.83 1486.25 Q1822.66 1486.25 1820.39 1485.88 Q1818.14 1485.51 1815.74 1484.77 L1815.74 1480.07 Q1817.82 1481.2 1820.04 1481.76 Q1822.26 1482.32 1824.74 1482.32 Q1828.74 1482.32 1831.08 1480.21 Q1833.42 1478.1 1833.42 1474.49 Q1833.42 1470.88 1831.08 1468.77 Q1828.74 1466.67 1824.74 1466.67 Q1822.87 1466.67 1820.99 1467.08 Q1819.14 1467.5 1817.19 1468.38 L1817.19 1451.02 Z" fill="#000000" fill-rule="evenodd" fill-opacity="1" /><path clip-path="url(#clip530)" d="M2245.5 1481.64 L2253.14 1481.64 L2253.14 1455.28 L2244.83 1456.95 L2244.83 1452.69 L2253.09 1451.02 L2257.77 1451.02 L2257.77 1481.64 L2265.41 1481.64 L2265.41 1485.58 L2245.5 1485.58 L2245.5 1481.64 Z" fill="#000000" fill-rule="evenodd" fill-opacity="1" /><path clip-path="url(#clip530)" d="M2274.85 1479.7 L2279.74 1479.7 L2279.74 1485.58 L2274.85 1485.58 L2274.85 1479.7 Z" fill="#000000" fill-rule="evenodd" fill-opacity="1" /><path clip-path="url(#clip530)" d="M2299.92 1454.1 Q2296.31 1454.1 2294.48 1457.66 Q2292.68 1461.2 2292.68 1468.33 Q2292.68 1475.44 2294.48 1479.01 Q2296.31 1482.55 2299.92 1482.55 Q2303.56 1482.55 2305.36 1479.01 Q2307.19 1475.44 2307.19 1468.33 Q2307.19 1461.2 2305.36 1457.66 Q2303.56 1454.1 2299.92 1454.1 M2299.92 1450.39 Q2305.73 1450.39 2308.79 1455 Q2311.87 1459.58 2311.87 1468.33 Q2311.87 1477.06 2308.79 1481.67 Q2305.73 1486.25 2299.92 1486.25 Q2294.11 1486.25 2291.03 1481.67 Q2287.98 1477.06 2287.98 1468.33 Q2287.98 1459.58 2291.03 1455 Q2294.11 1450.39 2299.92 1450.39 Z" fill="#000000" fill-rule="evenodd" fill-opacity="1" /><path clip-path="url(#clip530)" d="M2330.08 1454.1 Q2326.47 1454.1 2324.64 1457.66 Q2322.84 1461.2 2322.84 1468.33 Q2322.84 1475.44 2324.64 1479.01 Q2326.47 1482.55 2330.08 1482.55 Q2333.72 1482.55 2335.52 1479.01 Q2337.35 1475.44 2337.35 1468.33 Q2337.35 1461.2 2335.52 1457.66 Q2333.72 1454.1 2330.08 1454.1 M2330.08 1450.39 Q2335.89 1450.39 2338.95 1455 Q2342.03 1459.58 2342.03 1468.33 Q2342.03 1477.06 2338.95 1481.67 Q2335.89 1486.25 2330.08 1486.25 Q2324.27 1486.25 2321.2 1481.67 Q2318.14 1477.06 2318.14 1468.33 Q2318.14 1459.58 2321.2 1455 Q2324.27 1450.39 2330.08 1450.39 Z" fill="#000000" fill-rule="evenodd" fill-opacity="1" /><path clip-path="url(#clip530)" d="M1225.83 1548.76 L1225.83 1551.62 L1198.91 1551.62 Q1199.29 1557.67 1202.53 1560.85 Q1205.81 1564 1211.64 1564 Q1215.01 1564 1218.16 1563.17 Q1221.34 1562.35 1224.46 1560.69 L1224.46 1566.23 Q1221.31 1567.57 1218 1568.27 Q1214.69 1568.97 1211.29 1568.97 Q1202.76 1568.97 1197.76 1564 Q1192.79 1559.04 1192.79 1550.57 Q1192.79 1541.82 1197.51 1536.69 Q1202.25 1531.54 1210.27 1531.54 Q1217.46 1531.54 1221.63 1536.18 Q1225.83 1540.8 1225.83 1548.76 M1219.98 1547.04 Q1219.91 1542.23 1217.27 1539.37 Q1214.66 1536.5 1210.33 1536.5 Q1205.43 1536.5 1202.47 1539.27 Q1199.54 1542.04 1199.1 1547.07 L1219.98 1547.04 Z" fill="#000000" fill-rule="evenodd" fill-opacity="1" /><path clip-path="url(#clip530)" d="M1241.11 1562.7 L1241.11 1581.6 L1235.22 1581.6 L1235.22 1532.4 L1241.11 1532.4 L1241.11 1537.81 Q1242.96 1534.62 1245.76 1533.1 Q1248.59 1531.54 1252.5 1531.54 Q1259 1531.54 1263.04 1536.69 Q1267.11 1541.85 1267.11 1550.25 Q1267.11 1558.65 1263.04 1563.81 Q1259 1568.97 1252.5 1568.97 Q1248.59 1568.97 1245.76 1567.44 Q1242.96 1565.88 1241.11 1562.7 M1261.03 1550.25 Q1261.03 1543.79 1258.36 1540.13 Q1255.72 1536.44 1251.07 1536.44 Q1246.43 1536.44 1243.75 1540.13 Q1241.11 1543.79 1241.11 1550.25 Q1241.11 1556.71 1243.75 1560.4 Q1246.43 1564.07 1251.07 1564.07 Q1255.72 1564.07 1258.36 1560.4 Q1261.03 1556.71 1261.03 1550.25 Z" fill="#000000" fill-rule="evenodd" fill-opacity="1" /><path clip-path="url(#clip530)" d="M1299.55 1533.45 L1299.55 1538.98 Q1297.06 1537.71 1294.39 1537.07 Q1291.72 1536.44 1288.85 1536.44 Q1284.49 1536.44 1282.3 1537.77 Q1280.13 1539.11 1280.13 1541.79 Q1280.13 1543.82 1281.69 1545 Q1283.25 1546.15 1287.96 1547.2 L1289.97 1547.64 Q1296.21 1548.98 1298.82 1551.43 Q1301.46 1553.85 1301.46 1558.21 Q1301.46 1563.17 1297.51 1566.07 Q1293.6 1568.97 1286.72 1568.97 Q1283.86 1568.97 1280.74 1568.39 Q1277.65 1567.85 1274.21 1566.74 L1274.21 1560.69 Q1277.46 1562.38 1280.61 1563.24 Q1283.76 1564.07 1286.85 1564.07 Q1290.99 1564.07 1293.21 1562.66 Q1295.44 1561.23 1295.44 1558.65 Q1295.44 1556.27 1293.82 1554.99 Q1292.23 1553.72 1286.78 1552.54 L1284.75 1552.07 Q1279.3 1550.92 1276.89 1548.56 Q1274.47 1546.18 1274.47 1542.04 Q1274.47 1537.01 1278.03 1534.27 Q1281.6 1531.54 1288.15 1531.54 Q1291.4 1531.54 1294.26 1532.01 Q1297.13 1532.49 1299.55 1533.45 Z" fill="#000000" fill-rule="evenodd" fill-opacity="1" /><path clip-path="url(#clip530)" d="M1310.78 1532.4 L1316.64 1532.4 L1316.64 1568.04 L1310.78 1568.04 L1310.78 1532.4 M1310.78 1518.52 L1316.64 1518.52 L1316.64 1525.93 L1310.78 1525.93 L1310.78 1518.52 Z" fill="#000000" fill-rule="evenodd" fill-opacity="1" /><path clip-path="url(#clip530)" d="M1328.89 1518.52 L1334.75 1518.52 L1334.75 1568.04 L1328.89 1568.04 L1328.89 1518.52 Z" fill="#000000" fill-rule="evenodd" fill-opacity="1" /><path clip-path="url(#clip530)" d="M1360.82 1536.5 Q1356.11 1536.5 1353.37 1540.19 Q1350.63 1543.85 1350.63 1550.25 Q1350.63 1556.65 1353.34 1560.34 Q1356.07 1564 1360.82 1564 Q1365.5 1564 1368.23 1560.31 Q1370.97 1556.62 1370.97 1550.25 Q1370.97 1543.92 1368.23 1540.23 Q1365.5 1536.5 1360.82 1536.5 M1360.82 1531.54 Q1368.46 1531.54 1372.82 1536.5 Q1377.18 1541.47 1377.18 1550.25 Q1377.18 1559 1372.82 1564 Q1368.46 1568.97 1360.82 1568.97 Q1353.15 1568.97 1348.79 1564 Q1344.46 1559 1344.46 1550.25 Q1344.46 1541.47 1348.79 1536.5 Q1353.15 1531.54 1360.82 1531.54 Z" fill="#000000" fill-rule="evenodd" fill-opacity="1" /><path clip-path="url(#clip530)" d="M1416.52 1546.53 L1416.52 1568.04 L1410.66 1568.04 L1410.66 1546.72 Q1410.66 1541.66 1408.69 1539.14 Q1406.71 1536.63 1402.77 1536.63 Q1398.02 1536.63 1395.29 1539.65 Q1392.55 1542.68 1392.55 1547.9 L1392.55 1568.04 L1386.66 1568.04 L1386.66 1532.4 L1392.55 1532.4 L1392.55 1537.93 Q1394.65 1534.72 1397.48 1533.13 Q1400.35 1531.54 1404.07 1531.54 Q1410.22 1531.54 1413.37 1535.36 Q1416.52 1539.14 1416.52 1546.53 Z" fill="#000000" fill-rule="evenodd" fill-opacity="1" /><polyline clip-path="url(#clip532)" style="stroke:#000000; stroke-linecap:round; stroke-linejoin:round; stroke-width:2; stroke-opacity:0.1; fill:none" points="
  256.556,1253.02 2352.76,1253.02 
  "/>
<polyline clip-path="url(#clip532)" style="stroke:#000000; stroke-linecap:round; stroke-linejoin:round; stroke-width:2; stroke-opacity:0.1; fill:none" points="
  256.556,1080.42 2352.76,1080.42 
  "/>
<polyline clip-path="url(#clip532)" style="stroke:#000000; stroke-linecap:round; stroke-linejoin:round; stroke-width:2; stroke-opacity:0.1; fill:none" points="
  256.556,907.816 2352.76,907.816 
  "/>
<polyline clip-path="url(#clip532)" style="stroke:#000000; stroke-linecap:round; stroke-linejoin:round; stroke-width:2; stroke-opacity:0.1; fill:none" points="
  256.556,735.212 2352.76,735.212 
  "/>
<polyline clip-path="url(#clip532)" style="stroke:#000000; stroke-linecap:round; stroke-linejoin:round; stroke-width:2; stroke-opacity:0.1; fill:none" points="
  256.556,562.608 2352.76,562.608 
  "/>
<polyline clip-path="url(#clip532)" style="stroke:#000000; stroke-linecap:round; stroke-linejoin:round; stroke-width:2; stroke-opacity:0.1; fill:none" points="
  256.556,390.004 2352.76,390.004 
  "/>
<polyline clip-path="url(#clip532)" style="stroke:#000000; stroke-linecap:round; stroke-linejoin:round; stroke-width:2; stroke-opacity:0.1; fill:none" points="
  256.556,217.4 2352.76,217.4 
  "/>
<polyline clip-path="url(#clip530)" style="stroke:#000000; stroke-linecap:round; stroke-linejoin:round; stroke-width:4; stroke-opacity:1; fill:none" points="
  256.556,1423.18 256.556,47.2441 
  "/>
<polyline clip-path="url(#clip530)" style="stroke:#000000; stroke-linecap:round; stroke-linejoin:round; stroke-width:4; stroke-opacity:1; fill:none" points="
  256.556,1253.02 275.454,1253.02 
  "/>
<polyline clip-path="url(#clip530)" style="stroke:#000000; stroke-linecap:round; stroke-linejoin:round; stroke-width:4; stroke-opacity:1; fill:none" points="
  256.556,1080.42 275.454,1080.42 
  "/>
<polyline clip-path="url(#clip530)" style="stroke:#000000; stroke-linecap:round; stroke-linejoin:round; stroke-width:4; stroke-opacity:1; fill:none" points="
  256.556,907.816 275.454,907.816 
  "/>
<polyline clip-path="url(#clip530)" style="stroke:#000000; stroke-linecap:round; stroke-linejoin:round; stroke-width:4; stroke-opacity:1; fill:none" points="
  256.556,735.212 275.454,735.212 
  "/>
<polyline clip-path="url(#clip530)" style="stroke:#000000; stroke-linecap:round; stroke-linejoin:round; stroke-width:4; stroke-opacity:1; fill:none" points="
  256.556,562.608 275.454,562.608 
  "/>
<polyline clip-path="url(#clip530)" style="stroke:#000000; stroke-linecap:round; stroke-linejoin:round; stroke-width:4; stroke-opacity:1; fill:none" points="
  256.556,390.004 275.454,390.004 
  "/>
<polyline clip-path="url(#clip530)" style="stroke:#000000; stroke-linecap:round; stroke-linejoin:round; stroke-width:4; stroke-opacity:1; fill:none" points="
  256.556,217.4 275.454,217.4 
  "/>
<path clip-path="url(#clip530)" d="M114.26 1253.47 L143.936 1253.47 L143.936 1257.41 L114.26 1257.41 L114.26 1253.47 Z" fill="#000000" fill-rule="evenodd" fill-opacity="1" /><path clip-path="url(#clip530)" d="M164.028 1238.82 Q160.417 1238.82 158.589 1242.39 Q156.783 1245.93 156.783 1253.06 Q156.783 1260.16 158.589 1263.73 Q160.417 1267.27 164.028 1267.27 Q167.663 1267.27 169.468 1263.73 Q171.297 1260.16 171.297 1253.06 Q171.297 1245.93 169.468 1242.39 Q167.663 1238.82 164.028 1238.82 M164.028 1235.12 Q169.839 1235.12 172.894 1239.73 Q175.973 1244.31 175.973 1253.06 Q175.973 1261.79 172.894 1266.39 Q169.839 1270.97 164.028 1270.97 Q158.218 1270.97 155.14 1266.39 Q152.084 1261.79 152.084 1253.06 Q152.084 1244.31 155.14 1239.73 Q158.218 1235.12 164.028 1235.12 Z" fill="#000000" fill-rule="evenodd" fill-opacity="1" /><path clip-path="url(#clip530)" d="M184.19 1264.42 L189.075 1264.42 L189.075 1270.3 L184.19 1270.3 L184.19 1264.42 Z" fill="#000000" fill-rule="evenodd" fill-opacity="1" /><path clip-path="url(#clip530)" d="M213.426 1251.67 Q216.783 1252.39 218.658 1254.66 Q220.556 1256.92 220.556 1260.26 Q220.556 1265.37 217.037 1268.17 Q213.519 1270.97 207.037 1270.97 Q204.862 1270.97 202.547 1270.54 Q200.255 1270.12 197.801 1269.26 L197.801 1264.75 Q199.746 1265.88 202.061 1266.46 Q204.375 1267.04 206.899 1267.04 Q211.297 1267.04 213.588 1265.3 Q215.903 1263.57 215.903 1260.26 Q215.903 1257.2 213.75 1255.49 Q211.621 1253.75 207.801 1253.75 L203.774 1253.75 L203.774 1249.91 L207.987 1249.91 Q211.436 1249.91 213.264 1248.54 Q215.093 1247.16 215.093 1244.56 Q215.093 1241.9 213.195 1240.49 Q211.32 1239.05 207.801 1239.05 Q205.88 1239.05 203.681 1239.47 Q201.482 1239.89 198.843 1240.77 L198.843 1236.6 Q201.505 1235.86 203.82 1235.49 Q206.158 1235.12 208.218 1235.12 Q213.542 1235.12 216.644 1237.55 Q219.746 1239.96 219.746 1244.08 Q219.746 1246.95 218.102 1248.94 Q216.459 1250.91 213.426 1251.67 Z" fill="#000000" fill-rule="evenodd" fill-opacity="1" /><path clip-path="url(#clip530)" d="M115.209 1080.87 L144.885 1080.87 L144.885 1084.81 L115.209 1084.81 L115.209 1080.87 Z" fill="#000000" fill-rule="evenodd" fill-opacity="1" /><path clip-path="url(#clip530)" d="M164.977 1066.22 Q161.366 1066.22 159.538 1069.78 Q157.732 1073.32 157.732 1080.45 Q157.732 1087.56 159.538 1091.13 Q161.366 1094.67 164.977 1094.67 Q168.612 1094.67 170.417 1091.13 Q172.246 1087.56 172.246 1080.45 Q172.246 1073.32 170.417 1069.78 Q168.612 1066.22 164.977 1066.22 M164.977 1062.51 Q170.788 1062.51 173.843 1067.12 Q176.922 1071.7 176.922 1080.45 Q176.922 1089.18 173.843 1093.79 Q170.788 1098.37 164.977 1098.37 Q159.167 1098.37 156.089 1093.79 Q153.033 1089.18 153.033 1080.45 Q153.033 1071.7 156.089 1067.12 Q159.167 1062.51 164.977 1062.51 Z" fill="#000000" fill-rule="evenodd" fill-opacity="1" /><path clip-path="url(#clip530)" d="M185.139 1091.82 L190.024 1091.82 L190.024 1097.7 L185.139 1097.7 L185.139 1091.82 Z" fill="#000000" fill-rule="evenodd" fill-opacity="1" /><path clip-path="url(#clip530)" d="M204.237 1093.76 L220.556 1093.76 L220.556 1097.7 L198.612 1097.7 L198.612 1093.76 Q201.274 1091.01 205.857 1086.38 Q210.463 1081.73 211.644 1080.38 Q213.889 1077.86 214.769 1076.13 Q215.672 1074.37 215.672 1072.68 Q215.672 1069.92 213.727 1068.19 Q211.806 1066.45 208.704 1066.45 Q206.505 1066.45 204.051 1067.21 Q201.621 1067.98 198.843 1069.53 L198.843 1064.81 Q201.667 1063.67 204.121 1063.09 Q206.574 1062.51 208.612 1062.51 Q213.982 1062.51 217.176 1065.2 Q220.371 1067.89 220.371 1072.38 Q220.371 1074.51 219.561 1076.43 Q218.773 1078.32 216.667 1080.92 Q216.088 1081.59 212.986 1084.81 Q209.885 1088 204.237 1093.76 Z" fill="#000000" fill-rule="evenodd" fill-opacity="1" /><path clip-path="url(#clip530)" d="M114.839 908.267 L144.515 908.267 L144.515 912.202 L114.839 912.202 L114.839 908.267 Z" fill="#000000" fill-rule="evenodd" fill-opacity="1" /><path clip-path="url(#clip530)" d="M164.607 893.615 Q160.996 893.615 159.167 897.179 Q157.362 900.721 157.362 907.851 Q157.362 914.957 159.167 918.522 Q160.996 922.063 164.607 922.063 Q168.241 922.063 170.047 918.522 Q171.876 914.957 171.876 907.851 Q171.876 900.721 170.047 897.179 Q168.241 893.615 164.607 893.615 M164.607 889.911 Q170.417 889.911 173.473 894.517 Q176.551 899.101 176.551 907.851 Q176.551 916.577 173.473 921.184 Q170.417 925.767 164.607 925.767 Q158.797 925.767 155.718 921.184 Q152.663 916.577 152.663 907.851 Q152.663 899.101 155.718 894.517 Q158.797 889.911 164.607 889.911 Z" fill="#000000" fill-rule="evenodd" fill-opacity="1" /><path clip-path="url(#clip530)" d="M184.769 919.216 L189.653 919.216 L189.653 925.096 L184.769 925.096 L184.769 919.216 Z" fill="#000000" fill-rule="evenodd" fill-opacity="1" /><path clip-path="url(#clip530)" d="M200.649 921.161 L208.287 921.161 L208.287 894.795 L199.977 896.462 L199.977 892.202 L208.241 890.536 L212.917 890.536 L212.917 921.161 L220.556 921.161 L220.556 925.096 L200.649 925.096 L200.649 921.161 Z" fill="#000000" fill-rule="evenodd" fill-opacity="1" /><path clip-path="url(#clip530)" d="M163.38 721.011 Q159.769 721.011 157.94 724.575 Q156.135 728.117 156.135 735.247 Q156.135 742.353 157.94 745.918 Q159.769 749.46 163.38 749.46 Q167.015 749.46 168.82 745.918 Q170.649 742.353 170.649 735.247 Q170.649 728.117 168.82 724.575 Q167.015 721.011 163.38 721.011 M163.38 717.307 Q169.19 717.307 172.246 721.913 Q175.325 726.497 175.325 735.247 Q175.325 743.973 172.246 748.58 Q169.19 753.163 163.38 753.163 Q157.57 753.163 154.491 748.58 Q151.436 743.973 151.436 735.247 Q151.436 726.497 154.491 721.913 Q157.57 717.307 163.38 717.307 Z" fill="#000000" fill-rule="evenodd" fill-opacity="1" /><path clip-path="url(#clip530)" d="M183.542 746.612 L188.426 746.612 L188.426 752.492 L183.542 752.492 L183.542 746.612 Z" fill="#000000" fill-rule="evenodd" fill-opacity="1" /><path clip-path="url(#clip530)" d="M208.612 721.011 Q205 721.011 203.172 724.575 Q201.366 728.117 201.366 735.247 Q201.366 742.353 203.172 745.918 Q205 749.46 208.612 749.46 Q212.246 749.46 214.051 745.918 Q215.88 742.353 215.88 735.247 Q215.88 728.117 214.051 724.575 Q212.246 721.011 208.612 721.011 M208.612 717.307 Q214.422 717.307 217.477 721.913 Q220.556 726.497 220.556 735.247 Q220.556 743.973 217.477 748.58 Q214.422 753.163 208.612 753.163 Q202.801 753.163 199.723 748.58 Q196.667 743.973 196.667 735.247 Q196.667 726.497 199.723 721.913 Q202.801 717.307 208.612 717.307 Z" fill="#000000" fill-rule="evenodd" fill-opacity="1" /><path clip-path="url(#clip530)" d="M164.607 548.407 Q160.996 548.407 159.167 551.972 Q157.362 555.513 157.362 562.643 Q157.362 569.749 159.167 573.314 Q160.996 576.856 164.607 576.856 Q168.241 576.856 170.047 573.314 Q171.876 569.749 171.876 562.643 Q171.876 555.513 170.047 551.972 Q168.241 548.407 164.607 548.407 M164.607 544.703 Q170.417 544.703 173.473 549.31 Q176.551 553.893 176.551 562.643 Q176.551 571.37 173.473 575.976 Q170.417 580.559 164.607 580.559 Q158.797 580.559 155.718 575.976 Q152.663 571.37 152.663 562.643 Q152.663 553.893 155.718 549.31 Q158.797 544.703 164.607 544.703 Z" fill="#000000" fill-rule="evenodd" fill-opacity="1" /><path clip-path="url(#clip530)" d="M184.769 574.009 L189.653 574.009 L189.653 579.888 L184.769 579.888 L184.769 574.009 Z" fill="#000000" fill-rule="evenodd" fill-opacity="1" /><path clip-path="url(#clip530)" d="M200.649 575.953 L208.287 575.953 L208.287 549.587 L199.977 551.254 L199.977 546.995 L208.241 545.328 L212.917 545.328 L212.917 575.953 L220.556 575.953 L220.556 579.888 L200.649 579.888 L200.649 575.953 Z" fill="#000000" fill-rule="evenodd" fill-opacity="1" /><path clip-path="url(#clip530)" d="M164.977 375.803 Q161.366 375.803 159.538 379.368 Q157.732 382.909 157.732 390.039 Q157.732 397.145 159.538 400.71 Q161.366 404.252 164.977 404.252 Q168.612 404.252 170.417 400.71 Q172.246 397.145 172.246 390.039 Q172.246 382.909 170.417 379.368 Q168.612 375.803 164.977 375.803 M164.977 372.099 Q170.788 372.099 173.843 376.706 Q176.922 381.289 176.922 390.039 Q176.922 398.766 173.843 403.372 Q170.788 407.956 164.977 407.956 Q159.167 407.956 156.089 403.372 Q153.033 398.766 153.033 390.039 Q153.033 381.289 156.089 376.706 Q159.167 372.099 164.977 372.099 Z" fill="#000000" fill-rule="evenodd" fill-opacity="1" /><path clip-path="url(#clip530)" d="M185.139 401.405 L190.024 401.405 L190.024 407.284 L185.139 407.284 L185.139 401.405 Z" fill="#000000" fill-rule="evenodd" fill-opacity="1" /><path clip-path="url(#clip530)" d="M204.237 403.349 L220.556 403.349 L220.556 407.284 L198.612 407.284 L198.612 403.349 Q201.274 400.594 205.857 395.965 Q210.463 391.312 211.644 389.97 Q213.889 387.446 214.769 385.71 Q215.672 383.951 215.672 382.261 Q215.672 379.507 213.727 377.771 Q211.806 376.034 208.704 376.034 Q206.505 376.034 204.051 376.798 Q201.621 377.562 198.843 379.113 L198.843 374.391 Q201.667 373.257 204.121 372.678 Q206.574 372.099 208.612 372.099 Q213.982 372.099 217.176 374.784 Q220.371 377.47 220.371 381.96 Q220.371 384.09 219.561 386.011 Q218.773 387.909 216.667 390.502 Q216.088 391.173 212.986 394.391 Q209.885 397.585 204.237 403.349 Z" fill="#000000" fill-rule="evenodd" fill-opacity="1" /><path clip-path="url(#clip530)" d="M164.028 203.199 Q160.417 203.199 158.589 206.764 Q156.783 210.305 156.783 217.435 Q156.783 224.542 158.589 228.106 Q160.417 231.648 164.028 231.648 Q167.663 231.648 169.468 228.106 Q171.297 224.542 171.297 217.435 Q171.297 210.305 169.468 206.764 Q167.663 203.199 164.028 203.199 M164.028 199.495 Q169.839 199.495 172.894 204.102 Q175.973 208.685 175.973 217.435 Q175.973 226.162 172.894 230.768 Q169.839 235.352 164.028 235.352 Q158.218 235.352 155.14 230.768 Q152.084 226.162 152.084 217.435 Q152.084 208.685 155.14 204.102 Q158.218 199.495 164.028 199.495 Z" fill="#000000" fill-rule="evenodd" fill-opacity="1" /><path clip-path="url(#clip530)" d="M184.19 228.801 L189.075 228.801 L189.075 234.68 L184.19 234.68 L184.19 228.801 Z" fill="#000000" fill-rule="evenodd" fill-opacity="1" /><path clip-path="url(#clip530)" d="M213.426 216.046 Q216.783 216.764 218.658 219.032 Q220.556 221.301 220.556 224.634 Q220.556 229.75 217.037 232.551 Q213.519 235.352 207.037 235.352 Q204.862 235.352 202.547 234.912 Q200.255 234.495 197.801 233.639 L197.801 229.125 Q199.746 230.259 202.061 230.838 Q204.375 231.416 206.899 231.416 Q211.297 231.416 213.588 229.68 Q215.903 227.944 215.903 224.634 Q215.903 221.579 213.75 219.866 Q211.621 218.13 207.801 218.13 L203.774 218.13 L203.774 214.287 L207.987 214.287 Q211.436 214.287 213.264 212.921 Q215.093 211.532 215.093 208.94 Q215.093 206.278 213.195 204.866 Q211.32 203.431 207.801 203.431 Q205.88 203.431 203.681 203.847 Q201.482 204.264 198.843 205.143 L198.843 200.977 Q201.505 200.236 203.82 199.866 Q206.158 199.495 208.218 199.495 Q213.542 199.495 216.644 201.926 Q219.746 204.333 219.746 208.454 Q219.746 211.324 218.102 213.315 Q216.459 215.282 213.426 216.046 Z" fill="#000000" fill-rule="evenodd" fill-opacity="1" /><path clip-path="url(#clip530)" d="M21.7677 1174.35 L39.6235 1174.35 L39.6235 1166.27 Q39.6235 1161.78 37.3 1159.33 Q34.9765 1156.88 30.6797 1156.88 Q26.4147 1156.88 24.0912 1159.33 Q21.7677 1161.78 21.7677 1166.27 L21.7677 1174.35 M16.4842 1180.78 L16.4842 1166.27 Q16.4842 1158.28 20.1126 1154.2 Q23.7092 1150.1 30.6797 1150.1 Q37.7138 1150.1 41.3104 1154.2 Q44.907 1158.28 44.907 1166.27 L44.907 1174.35 L64.0042 1174.35 L64.0042 1180.78 L16.4842 1180.78 Z" fill="#000000" fill-rule="evenodd" fill-opacity="1" /><path clip-path="url(#clip530)" d="M33.8307 1122.22 Q33.2578 1123.2 33.0032 1124.38 Q32.7167 1125.53 32.7167 1126.93 Q32.7167 1131.89 35.9632 1134.56 Q39.1779 1137.21 45.2253 1137.21 L64.0042 1137.21 L64.0042 1143.09 L28.3562 1143.09 L28.3562 1137.21 L33.8944 1137.21 Q30.6479 1135.36 29.0883 1132.4 Q27.4968 1129.44 27.4968 1125.21 Q27.4968 1124.6 27.5923 1123.87 Q27.656 1123.14 27.8151 1122.25 L33.8307 1122.22 Z" fill="#000000" fill-rule="evenodd" fill-opacity="1" /><path clip-path="url(#clip530)" d="M44.7161 1087.01 L47.5806 1087.01 L47.5806 1113.94 Q53.6281 1113.56 56.8109 1110.31 Q59.9619 1107.03 59.9619 1101.21 Q59.9619 1097.83 59.1344 1094.68 Q58.3069 1091.5 56.6518 1088.38 L62.1899 1088.38 Q63.5267 1091.53 64.227 1094.84 Q64.9272 1098.15 64.9272 1101.56 Q64.9272 1110.09 59.9619 1115.09 Q54.9967 1120.05 46.5303 1120.05 Q37.7774 1120.05 32.6531 1115.34 Q27.4968 1110.6 27.4968 1102.58 Q27.4968 1095.38 32.1438 1091.21 Q36.7589 1087.01 44.7161 1087.01 M42.9973 1092.87 Q38.1912 1092.93 35.3266 1095.57 Q32.4621 1098.18 32.4621 1102.51 Q32.4621 1107.41 35.2312 1110.37 Q38.0002 1113.3 43.0292 1113.75 L42.9973 1092.87 Z" fill="#000000" fill-rule="evenodd" fill-opacity="1" /><path clip-path="url(#clip530)" d="M33.7671 1053.94 L14.479 1053.94 L14.479 1048.09 L64.0042 1048.09 L64.0042 1053.94 L58.657 1053.94 Q61.8398 1055.79 63.3994 1058.62 Q64.9272 1061.42 64.9272 1065.37 Q64.9272 1071.83 59.771 1075.9 Q54.6147 1079.95 46.212 1079.95 Q37.8093 1079.95 32.6531 1075.9 Q27.4968 1071.83 27.4968 1065.37 Q27.4968 1061.42 29.0564 1058.62 Q30.5842 1055.79 33.7671 1053.94 M46.212 1073.9 Q52.6732 1073.9 56.3653 1071.26 Q60.0256 1068.58 60.0256 1063.94 Q60.0256 1059.29 56.3653 1056.62 Q52.6732 1053.94 46.212 1053.94 Q39.7508 1053.94 36.0905 1056.62 Q32.3984 1059.29 32.3984 1063.94 Q32.3984 1068.58 36.0905 1071.26 Q39.7508 1073.9 46.212 1073.9 Z" fill="#000000" fill-rule="evenodd" fill-opacity="1" /><path clip-path="url(#clip530)" d="M28.3562 1036.02 L28.3562 1030.17 L64.0042 1030.17 L64.0042 1036.02 L28.3562 1036.02 M14.479 1036.02 L14.479 1030.17 L21.895 1030.17 L21.895 1036.02 L14.479 1036.02 Z" fill="#000000" fill-rule="evenodd" fill-opacity="1" /><path clip-path="url(#clip530)" d="M29.7248 992.259 L35.1993 992.259 Q33.8307 994.742 33.1623 997.256 Q32.4621 999.739 32.4621 1002.29 Q32.4621 1007.98 36.0905 1011.13 Q39.6872 1014.28 46.212 1014.28 Q52.7369 1014.28 56.3653 1011.13 Q59.9619 1007.98 59.9619 1002.29 Q59.9619 999.739 59.2935 997.256 Q58.5933 994.742 57.2247 992.259 L62.6355 992.259 Q63.7814 994.71 64.3543 997.352 Q64.9272 999.962 64.9272 1002.92 Q64.9272 1010.97 59.8664 1015.72 Q54.8057 1020.46 46.212 1020.46 Q37.491 1020.46 32.4939 1015.69 Q27.4968 1010.88 27.4968 1002.54 Q27.4968 999.834 28.0697 997.256 Q28.6108 994.678 29.7248 992.259 Z" fill="#000000" fill-rule="evenodd" fill-opacity="1" /><path clip-path="url(#clip530)" d="M18.2347 976.281 L28.3562 976.281 L28.3562 964.218 L32.9077 964.218 L32.9077 976.281 L52.2594 976.281 Q56.6199 976.281 57.8613 975.104 Q59.1026 973.894 59.1026 970.234 L59.1026 964.218 L64.0042 964.218 L64.0042 970.234 Q64.0042 977.013 61.4897 979.591 Q58.9434 982.17 52.2594 982.17 L32.9077 982.17 L32.9077 986.466 L28.3562 986.466 L28.3562 982.17 L18.2347 982.17 L18.2347 976.281 Z" fill="#000000" fill-rule="evenodd" fill-opacity="1" /><path clip-path="url(#clip530)" d="M28.3562 956.516 L28.3562 950.659 L64.0042 950.659 L64.0042 956.516 L28.3562 956.516 M14.479 956.516 L14.479 950.659 L21.895 950.659 L21.895 956.516 L14.479 956.516 Z" fill="#000000" fill-rule="evenodd" fill-opacity="1" /><path clip-path="url(#clip530)" d="M28.3562 942.607 L28.3562 936.4 L58.275 925.26 L28.3562 914.12 L28.3562 907.914 L64.0042 921.282 L64.0042 929.239 L28.3562 942.607 Z" fill="#000000" fill-rule="evenodd" fill-opacity="1" /><path clip-path="url(#clip530)" d="M44.7161 869.337 L47.5806 869.337 L47.5806 896.264 Q53.6281 895.882 56.8109 892.636 Q59.9619 889.358 59.9619 883.533 Q59.9619 880.159 59.1344 877.008 Q58.3069 873.825 56.6518 870.706 L62.1899 870.706 Q63.5267 873.857 64.227 877.167 Q64.9272 880.477 64.9272 883.883 Q64.9272 892.413 59.9619 897.41 Q54.9967 902.375 46.5303 902.375 Q37.7774 902.375 32.6531 897.665 Q27.4968 892.922 27.4968 884.902 Q27.4968 877.708 32.1438 873.539 Q36.7589 869.337 44.7161 869.337 M42.9973 875.194 Q38.1912 875.258 35.3266 877.899 Q32.4621 880.509 32.4621 884.838 Q32.4621 889.739 35.2312 892.7 Q38.0002 895.628 43.0292 896.073 L42.9973 875.194 Z" fill="#000000" fill-rule="evenodd" fill-opacity="1" /><path clip-path="url(#clip530)" d="M46.0847 822.804 Q46.0847 829.902 47.7079 832.639 Q49.3312 835.376 53.2461 835.376 Q56.3653 835.376 58.2114 833.339 Q60.0256 831.27 60.0256 827.738 Q60.0256 822.868 56.5881 819.94 Q53.1188 816.979 47.3897 816.979 L46.0847 816.979 L46.0847 822.804 M43.6657 811.123 L64.0042 811.123 L64.0042 816.979 L58.5933 816.979 Q61.8398 818.985 63.3994 821.977 Q64.9272 824.968 64.9272 829.297 Q64.9272 834.772 61.8716 838.018 Q58.7843 841.233 53.6281 841.233 Q47.6125 841.233 44.5569 837.222 Q41.5014 833.18 41.5014 825.191 L41.5014 816.979 L40.9285 816.979 Q36.8862 816.979 34.6901 819.653 Q32.4621 822.295 32.4621 827.101 Q32.4621 830.156 33.1941 833.053 Q33.9262 835.949 35.3903 838.623 L29.9795 838.623 Q28.7381 835.408 28.1334 832.384 Q27.4968 829.361 27.4968 826.496 Q27.4968 818.762 31.5072 814.942 Q35.5176 811.123 43.6657 811.123 Z" fill="#000000" fill-rule="evenodd" fill-opacity="1" /><path clip-path="url(#clip530)" d="M29.4065 776.334 L34.9447 776.334 Q33.6716 778.817 33.035 781.491 Q32.3984 784.164 32.3984 787.029 Q32.3984 791.389 33.7352 793.585 Q35.072 795.75 37.7456 795.75 Q39.7826 795.75 40.9603 794.19 Q42.1061 792.631 43.1565 787.92 L43.6021 785.915 Q44.9389 779.676 47.3897 777.066 Q49.8086 774.425 54.1691 774.425 Q59.1344 774.425 62.0308 778.371 Q64.9272 782.286 64.9272 789.161 Q64.9272 792.026 64.3543 795.145 Q63.8132 798.232 62.6992 801.67 L56.6518 801.67 Q58.3387 798.423 59.198 795.272 Q60.0256 792.121 60.0256 789.034 Q60.0256 784.896 58.6251 782.668 Q57.1929 780.44 54.6147 780.44 Q52.2276 780.44 50.9545 782.064 Q49.6813 783.655 48.5037 789.098 L48.0262 791.135 Q46.8804 796.577 44.5251 798.996 Q42.138 801.415 38.0002 801.415 Q32.9713 801.415 30.2341 797.851 Q27.4968 794.286 27.4968 787.729 Q27.4968 784.483 27.9743 781.618 Q28.4517 778.753 29.4065 776.334 Z" fill="#000000" fill-rule="evenodd" fill-opacity="1" /><path clip-path="url(#clip530)" d="M67.3143 750.267 Q73.68 752.749 75.6216 755.105 Q77.5631 757.46 77.5631 761.407 L77.5631 766.086 L72.6615 766.086 L72.6615 762.648 Q72.6615 760.229 71.5157 758.892 Q70.3699 757.556 66.1048 755.932 L63.4312 754.882 L28.3562 769.3 L28.3562 763.094 L56.238 751.954 L28.3562 740.814 L28.3562 734.607 L67.3143 750.267 Z" fill="#000000" fill-rule="evenodd" fill-opacity="1" /><path clip-path="url(#clip530)" d="M35.1993 698.768 Q31.2526 696.572 29.3747 693.517 Q27.4968 690.461 27.4968 686.323 Q27.4968 680.753 31.4117 677.73 Q35.2948 674.706 42.4881 674.706 L64.0042 674.706 L64.0042 680.594 L42.679 680.594 Q37.5546 680.594 35.072 682.408 Q32.5894 684.223 32.5894 687.947 Q32.5894 692.498 35.6131 695.14 Q38.6368 697.782 43.8567 697.782 L64.0042 697.782 L64.0042 703.67 L42.679 703.67 Q37.5228 703.67 35.072 705.484 Q32.5894 707.298 32.5894 711.086 Q32.5894 715.574 35.6449 718.216 Q38.6686 720.857 43.8567 720.857 L64.0042 720.857 L64.0042 726.746 L28.3562 726.746 L28.3562 720.857 L33.8944 720.857 Q30.616 718.852 29.0564 716.051 Q27.4968 713.25 27.4968 709.399 Q27.4968 705.516 29.4702 702.811 Q31.4436 700.073 35.1993 698.768 Z" fill="#000000" fill-rule="evenodd" fill-opacity="1" /><path clip-path="url(#clip530)" d="M35.1993 635.27 Q31.2526 633.074 29.3747 630.019 Q27.4968 626.963 27.4968 622.825 Q27.4968 617.255 31.4117 614.232 Q35.2948 611.208 42.4881 611.208 L64.0042 611.208 L64.0042 617.096 L42.679 617.096 Q37.5546 617.096 35.072 618.911 Q32.5894 620.725 32.5894 624.449 Q32.5894 629 35.6131 631.642 Q38.6368 634.284 43.8567 634.284 L64.0042 634.284 L64.0042 640.172 L42.679 640.172 Q37.5228 640.172 35.072 641.986 Q32.5894 643.8 32.5894 647.588 Q32.5894 652.076 35.6449 654.718 Q38.6686 657.359 43.8567 657.359 L64.0042 657.359 L64.0042 663.248 L28.3562 663.248 L28.3562 657.359 L33.8944 657.359 Q30.616 655.354 29.0564 652.553 Q27.4968 649.752 27.4968 645.901 Q27.4968 642.018 29.4702 639.313 Q31.4436 636.575 35.1993 635.27 Z" fill="#000000" fill-rule="evenodd" fill-opacity="1" /><path clip-path="url(#clip530)" d="M44.7161 569.035 L47.5806 569.035 L47.5806 595.962 Q53.6281 595.58 56.8109 592.334 Q59.9619 589.055 59.9619 583.231 Q59.9619 579.857 59.1344 576.706 Q58.3069 573.523 56.6518 570.404 L62.1899 570.404 Q63.5267 573.555 64.227 576.865 Q64.9272 580.175 64.9272 583.581 Q64.9272 592.111 59.9619 597.108 Q54.9967 602.073 46.5303 602.073 Q37.7774 602.073 32.6531 597.363 Q27.4968 592.62 27.4968 584.599 Q27.4968 577.406 32.1438 573.237 Q36.7589 569.035 44.7161 569.035 M42.9973 574.892 Q38.1912 574.955 35.3266 577.597 Q32.4621 580.207 32.4621 584.536 Q32.4621 589.437 35.2312 592.397 Q38.0002 595.326 43.0292 595.771 L42.9973 574.892 Z" fill="#000000" fill-rule="evenodd" fill-opacity="1" /><path clip-path="url(#clip530)" d="M18.2347 553.63 L28.3562 553.63 L28.3562 541.567 L32.9077 541.567 L32.9077 553.63 L52.2594 553.63 Q56.6199 553.63 57.8613 552.453 Q59.1026 551.243 59.1026 547.583 L59.1026 541.567 L64.0042 541.567 L64.0042 547.583 Q64.0042 554.362 61.4897 556.94 Q58.9434 559.518 52.2594 559.518 L32.9077 559.518 L32.9077 563.815 L28.3562 563.815 L28.3562 559.518 L18.2347 559.518 L18.2347 553.63 Z" fill="#000000" fill-rule="evenodd" fill-opacity="1" /><path clip-path="url(#clip530)" d="M33.8307 513.208 Q33.2578 514.195 33.0032 515.372 Q32.7167 516.518 32.7167 517.919 Q32.7167 522.884 35.9632 525.557 Q39.1779 528.199 45.2253 528.199 L64.0042 528.199 L64.0042 534.087 L28.3562 534.087 L28.3562 528.199 L33.8944 528.199 Q30.6479 526.353 29.0883 523.393 Q27.4968 520.433 27.4968 516.2 Q27.4968 515.595 27.5923 514.863 Q27.656 514.131 27.8151 513.24 L33.8307 513.208 Z" fill="#000000" fill-rule="evenodd" fill-opacity="1" /><path clip-path="url(#clip530)" d="M67.3143 492.233 Q73.68 494.716 75.6216 497.071 Q77.5631 499.426 77.5631 503.373 L77.5631 508.052 L72.6615 508.052 L72.6615 504.614 Q72.6615 502.195 71.5157 500.858 Q70.3699 499.522 66.1048 497.898 L63.4312 496.848 L28.3562 511.266 L28.3562 505.06 L56.238 493.92 L28.3562 482.78 L28.3562 476.573 L67.3143 492.233 Z" fill="#000000" fill-rule="evenodd" fill-opacity="1" /><path clip-path="url(#clip530)" d="M14.5426 433.7 Q21.8632 437.965 29.0246 440.034 Q36.186 442.103 43.5384 442.103 Q50.8908 442.103 58.1159 440.034 Q65.3091 437.933 72.5979 433.7 L72.5979 438.793 Q65.1182 443.567 57.8931 445.954 Q50.668 448.31 43.5384 448.31 Q36.4406 448.31 29.2474 445.954 Q22.0542 443.599 14.5426 438.793 L14.5426 433.7 Z" fill="#000000" fill-rule="evenodd" fill-opacity="1" /><path clip-path="url(#clip530)" d="M46.212 396.747 Q39.7508 396.747 36.0905 399.421 Q32.3984 402.063 32.3984 406.71 Q32.3984 411.357 36.0905 414.03 Q39.7508 416.672 46.212 416.672 Q52.6732 416.672 56.3653 414.03 Q60.0256 411.357 60.0256 406.71 Q60.0256 402.063 56.3653 399.421 Q52.6732 396.747 46.212 396.747 M33.7671 416.672 Q30.5842 414.826 29.0564 412.025 Q27.4968 409.192 27.4968 405.277 Q27.4968 398.784 32.6531 394.742 Q37.8093 390.668 46.212 390.668 Q54.6147 390.668 59.771 394.742 Q64.9272 398.784 64.9272 405.277 Q64.9272 409.192 63.3994 412.025 Q61.8398 414.826 58.657 416.672 L64.0042 416.672 L64.0042 422.56 L14.479 422.56 L14.479 416.672 L33.7671 416.672 Z" fill="#000000" fill-rule="evenodd" fill-opacity="1" /><path clip-path="url(#clip530)" d="M28.3562 380.96 L28.3562 375.104 L64.0042 375.104 L64.0042 380.96 L28.3562 380.96 M14.479 380.96 L14.479 375.104 L21.895 375.104 L21.895 380.96 L14.479 380.96 Z" fill="#000000" fill-rule="evenodd" fill-opacity="1" /><path clip-path="url(#clip530)" d="M18.2347 357.057 L28.3562 357.057 L28.3562 344.994 L32.9077 344.994 L32.9077 357.057 L52.2594 357.057 Q56.6199 357.057 57.8613 355.88 Q59.1026 354.67 59.1026 351.01 L59.1026 344.994 L64.0042 344.994 L64.0042 351.01 Q64.0042 357.789 61.4897 360.367 Q58.9434 362.945 52.2594 362.945 L32.9077 362.945 L32.9077 367.242 L28.3562 367.242 L28.3562 362.945 L18.2347 362.945 L18.2347 357.057 Z" fill="#000000" fill-rule="evenodd" fill-opacity="1" /><path clip-path="url(#clip530)" d="M29.4065 314.566 L34.9447 314.566 Q33.6716 317.049 33.035 319.722 Q32.3984 322.396 32.3984 325.26 Q32.3984 329.621 33.7352 331.817 Q35.072 333.981 37.7456 333.981 Q39.7826 333.981 40.9603 332.422 Q42.1061 330.862 43.1565 326.152 L43.6021 324.146 Q44.9389 317.908 47.3897 315.298 Q49.8086 312.656 54.1691 312.656 Q59.1344 312.656 62.0308 316.603 Q64.9272 320.518 64.9272 327.393 Q64.9272 330.258 64.3543 333.377 Q63.8132 336.464 62.6992 339.902 L56.6518 339.902 Q58.3387 336.655 59.198 333.504 Q60.0256 330.353 60.0256 327.266 Q60.0256 323.128 58.6251 320.9 Q57.1929 318.672 54.6147 318.672 Q52.2276 318.672 50.9545 320.295 Q49.6813 321.887 48.5037 327.329 L48.0262 329.366 Q46.8804 334.809 44.5251 337.228 Q42.138 339.647 38.0002 339.647 Q32.9713 339.647 30.2341 336.082 Q27.4968 332.517 27.4968 325.961 Q27.4968 322.714 27.9743 319.85 Q28.4517 316.985 29.4065 314.566 Z" fill="#000000" fill-rule="evenodd" fill-opacity="1" /><path clip-path="url(#clip530)" d="M14.5426 304.254 L14.5426 299.161 Q22.0542 294.387 29.2474 292.031 Q36.4406 289.644 43.5384 289.644 Q50.668 289.644 57.8931 292.031 Q65.1182 294.387 72.5979 299.161 L72.5979 304.254 Q65.3091 300.02 58.1159 297.952 Q50.8908 295.851 43.5384 295.851 Q36.186 295.851 29.0246 297.952 Q21.8632 300.02 14.5426 304.254 Z" fill="#000000" fill-rule="evenodd" fill-opacity="1" /><polyline clip-path="url(#clip532)" style="stroke:#000000; stroke-linecap:round; stroke-linejoin:round; stroke-width:6; stroke-opacity:1; fill:none" points="
  315.882,733.956 356.24,690.854 396.599,599.802 436.957,623.785 477.315,565.325 517.673,523.472 558.031,423.686 598.389,735.212 638.747,735.212 679.105,545.127 
  719.463,589.384 759.821,535.839 800.18,577.278 840.538,578.703 880.896,581.244 921.254,547.25 961.612,570.121 1001.97,565.377 1042.33,563.567 1082.69,598.901 
  1123.04,523.005 1163.4,552.823 1203.76,582.801 1244.12,557.695 1284.48,585.239 1324.83,583.361 1365.19,584.355 1405.55,620.844 1445.91,604.132 1486.27,572.973 
  1526.63,562.191 1566.98,599.284 1607.34,612.149 1647.7,606.5 1688.06,593.645 1728.42,620.64 1768.77,584.101 1809.13,604.768 1849.49,619.725 1889.85,584.848 
  1930.21,654.405 1970.56,735.212 2010.92,525.383 2051.28,595.33 2091.64,565.445 2132,655.942 2172.36,653.582 2212.71,627.129 2253.07,611.913 2293.43,671 
  
  "/>
<polyline clip-path="url(#clip532)" style="stroke:#000000; stroke-linecap:round; stroke-linejoin:round; stroke-width:4; stroke-opacity:1; fill:none" stroke-dasharray="2, 4" points="
  315.882,646.257 356.24,623.217 396.599,340.295 436.957,579.362 477.315,458.549 517.673,656.263 558.031,572.156 598.389,735.212 638.747,735.212 679.105,271.054 
  719.463,625.079 759.821,662.124 800.18,544.266 840.538,486.38 880.896,530.387 921.254,432.003 961.612,689.776 1001.97,532.665 1042.33,598.973 1082.69,449.809 
  1123.04,486.435 1163.4,536.639 1203.76,725.18 1244.12,724.36 1284.48,764.275 1324.83,725.674 1365.19,466.543 1405.55,612.334 1445.91,513.614 1486.27,725.664 
  1526.63,620.048 1566.98,420.671 1607.34,601.795 1647.7,739.92 1688.06,511.165 1728.42,494.697 1768.77,818.217 1809.13,717.297 1849.49,493.681 1889.85,885.465 
  1930.21,427.737 1970.56,735.212 2010.92,593.144 2051.28,634.553 2091.64,571.531 2132,561.607 2172.36,608.766 2212.71,616.973 2253.07,557.211 2293.43,852.263 
  
  "/>
<polyline clip-path="url(#clip532)" style="stroke:#ff0000; stroke-linecap:round; stroke-linejoin:round; stroke-width:4; stroke-opacity:1; fill:none" points="
  315.882,728.286 356.24,740.485 396.599,733.006 436.957,703.68 477.315,731.027 517.673,801.098 558.031,983.203 598.389,735.212 638.747,735.212 679.105,732.707 
  719.463,749.636 759.821,729.239 800.18,724.691 840.538,753.856 880.896,787.816 921.254,752.648 961.612,761.884 1001.97,794.731 1042.33,765.271 1082.69,825.576 
  1123.04,761.227 1163.4,744.191 1203.76,788.943 1244.12,784.627 1284.48,790.773 1324.83,761.728 1365.19,751.34 1405.55,758.322 1445.91,804.071 1486.27,793.599 
  1526.63,761.34 1566.98,773.461 1607.34,755.993 1647.7,760.164 1688.06,787.56 1728.42,761.184 1768.77,761.416 1809.13,773.883 1849.49,800.333 1889.85,787.632 
  1930.21,938.314 1970.56,735.212 2010.92,879.151 2051.28,834.43 2091.64,664.806 2132,818.206 2172.36,816.215 2212.71,820.048 2253.07,859.875 2293.43,845.398 
  
  "/>
<polyline clip-path="url(#clip532)" style="stroke:#ff0000; stroke-linecap:round; stroke-linejoin:round; stroke-width:4; stroke-opacity:1; fill:none" stroke-dasharray="2, 4" points="
  315.882,441.551 356.24,493.714 396.599,394.281 436.957,626.093 477.315,597.748 517.673,589.874 558.031,384.129 598.389,735.212 638.747,735.212 679.105,995.305 
  719.463,537.39 759.821,456.805 800.18,342.552 840.538,545.557 880.896,563.148 921.254,541.96 961.612,651.213 1001.97,638.662 1042.33,675.224 1082.69,496.489 
  1123.04,562.275 1163.4,720.527 1203.76,713.298 1244.12,669.844 1284.48,684.844 1324.83,436.25 1365.19,828.476 1405.55,598.155 1445.91,498.039 1486.27,640.068 
  1526.63,595.307 1566.98,582.393 1607.34,675.605 1647.7,679.359 1688.06,628.479 1728.42,842.623 1768.77,693.697 1809.13,484.337 1849.49,268.973 1889.85,779.176 
  1930.21,366.086 1970.56,735.212 2010.92,326.405 2051.28,487.408 2091.64,470.263 2132,512.346 2172.36,438.132 2212.71,619.531 2253.07,109.787 2293.43,576.126 
  
  "/>
<polyline clip-path="url(#clip532)" style="stroke:#808080; stroke-linecap:round; stroke-linejoin:round; stroke-width:4; stroke-opacity:1; fill:none" stroke-dasharray="16, 10" points="
  -1839.64,735.212 4448.96,735.212 
  "/>
<path clip-path="url(#clip530)" d="
M1876.04 1377.32 L2282.88 1377.32 L2282.88 1118.12 L1876.04 1118.12  Z
  " fill="#ffffff" fill-rule="evenodd" fill-opacity="1"/>
<polyline clip-path="url(#clip530)" style="stroke:#000000; stroke-linecap:round; stroke-linejoin:round; stroke-width:4; stroke-opacity:1; fill:none" points="
  1876.04,1377.32 2282.88,1377.32 2282.88,1118.12 1876.04,1118.12 1876.04,1377.32 
  "/>
<polyline clip-path="url(#clip530)" style="stroke:#000000; stroke-linecap:round; stroke-linejoin:round; stroke-width:6; stroke-opacity:1; fill:none" points="
  1899.33,1169.96 2039.08,1169.96 
  "/>
<path clip-path="url(#clip530)" d="M2063.94 1152.68 L2068.97 1152.68 L2077.56 1165.52 L2086.19 1152.68 L2091.21 1152.68 L2080.1 1169.27 L2091.95 1187.24 L2086.93 1187.24 L2077.21 1172.54 L2067.42 1187.24 L2062.37 1187.24 L2074.71 1168.79 L2063.94 1152.68 Z" fill="#000000" fill-rule="evenodd" fill-opacity="1" /><path clip-path="url(#clip530)" d="M2099.31 1183.3 L2106.95 1183.3 L2106.95 1156.93 L2098.64 1158.6 L2098.64 1154.34 L2106.91 1152.68 L2111.58 1152.68 L2111.58 1183.3 L2119.22 1183.3 L2119.22 1187.24 L2099.31 1187.24 L2099.31 1183.3 Z" fill="#000000" fill-rule="evenodd" fill-opacity="1" /><path clip-path="url(#clip530)" d="M2147.35 1153.95 L2147.35 1161.31 L2156.12 1161.31 L2156.12 1164.62 L2147.35 1164.62 L2147.35 1178.69 Q2147.35 1181.86 2148.2 1182.77 Q2149.08 1183.67 2151.74 1183.67 L2156.12 1183.67 L2156.12 1187.24 L2151.74 1187.24 Q2146.81 1187.24 2144.94 1185.41 Q2143.06 1183.55 2143.06 1178.69 L2143.06 1164.62 L2139.94 1164.62 L2139.94 1161.31 L2143.06 1161.31 L2143.06 1153.95 L2147.35 1153.95 Z" fill="#000000" fill-rule="evenodd" fill-opacity="1" /><path clip-path="url(#clip530)" d="M2171.77 1164.3 Q2168.34 1164.3 2166.35 1166.98 Q2164.36 1169.64 2164.36 1174.3 Q2164.36 1178.95 2166.33 1181.63 Q2168.32 1184.3 2171.77 1184.3 Q2175.17 1184.3 2177.16 1181.61 Q2179.15 1178.93 2179.15 1174.3 Q2179.15 1169.69 2177.16 1167 Q2175.17 1164.3 2171.77 1164.3 M2171.77 1160.68 Q2177.32 1160.68 2180.49 1164.3 Q2183.67 1167.91 2183.67 1174.3 Q2183.67 1180.66 2180.49 1184.3 Q2177.32 1187.91 2171.77 1187.91 Q2166.19 1187.91 2163.02 1184.3 Q2159.87 1180.66 2159.87 1174.3 Q2159.87 1167.91 2163.02 1164.3 Q2166.19 1160.68 2171.77 1160.68 Z" fill="#000000" fill-rule="evenodd" fill-opacity="1" /><path clip-path="url(#clip530)" d="M2204.31 1152.68 L2209.34 1152.68 L2217.93 1165.52 L2226.56 1152.68 L2231.58 1152.68 L2220.47 1169.27 L2232.32 1187.24 L2227.3 1187.24 L2217.58 1172.54 L2207.79 1187.24 L2202.74 1187.24 L2215.08 1168.79 L2204.31 1152.68 Z" fill="#000000" fill-rule="evenodd" fill-opacity="1" /><path clip-path="url(#clip530)" d="M2242.9 1183.3 L2259.22 1183.3 L2259.22 1187.24 L2237.28 1187.24 L2237.28 1183.3 Q2239.94 1180.55 2244.52 1175.92 Q2249.13 1171.26 2250.31 1169.92 Q2252.55 1167.4 2253.43 1165.66 Q2254.34 1163.9 2254.34 1162.21 Q2254.34 1159.46 2252.39 1157.72 Q2250.47 1155.99 2247.37 1155.99 Q2245.17 1155.99 2242.72 1156.75 Q2240.29 1157.51 2237.51 1159.06 L2237.51 1154.34 Q2240.33 1153.21 2242.79 1152.63 Q2245.24 1152.05 2247.28 1152.05 Q2252.65 1152.05 2255.84 1154.74 Q2259.04 1157.42 2259.04 1161.91 Q2259.04 1164.04 2258.23 1165.96 Q2257.44 1167.86 2255.33 1170.45 Q2254.75 1171.12 2251.65 1174.34 Q2248.55 1177.54 2242.9 1183.3 Z" fill="#000000" fill-rule="evenodd" fill-opacity="1" /><polyline clip-path="url(#clip530)" style="stroke:#000000; stroke-linecap:round; stroke-linejoin:round; stroke-width:4; stroke-opacity:1; fill:none" stroke-dasharray="2, 4" points="
  1899.33,1221.8 2039.08,1221.8 
  "/>
<path clip-path="url(#clip530)" d="M2063.94 1204.52 L2068.97 1204.52 L2077.56 1217.36 L2086.19 1204.52 L2091.21 1204.52 L2080.1 1221.11 L2091.95 1239.08 L2086.93 1239.08 L2077.21 1224.38 L2067.42 1239.08 L2062.37 1239.08 L2074.71 1220.63 L2063.94 1204.52 Z" fill="#000000" fill-rule="evenodd" fill-opacity="1" /><path clip-path="url(#clip530)" d="M2099.31 1235.14 L2106.95 1235.14 L2106.95 1208.77 L2098.64 1210.44 L2098.64 1206.18 L2106.91 1204.52 L2111.58 1204.52 L2111.58 1235.14 L2119.22 1235.14 L2119.22 1239.08 L2099.31 1239.08 L2099.31 1235.14 Z" fill="#000000" fill-rule="evenodd" fill-opacity="1" /><path clip-path="url(#clip530)" d="M2147.35 1205.79 L2147.35 1213.15 L2156.12 1213.15 L2156.12 1216.46 L2147.35 1216.46 L2147.35 1230.53 Q2147.35 1233.7 2148.2 1234.61 Q2149.08 1235.51 2151.74 1235.51 L2156.12 1235.51 L2156.12 1239.08 L2151.74 1239.08 Q2146.81 1239.08 2144.94 1237.25 Q2143.06 1235.39 2143.06 1230.53 L2143.06 1216.46 L2139.94 1216.46 L2139.94 1213.15 L2143.06 1213.15 L2143.06 1205.79 L2147.35 1205.79 Z" fill="#000000" fill-rule="evenodd" fill-opacity="1" /><path clip-path="url(#clip530)" d="M2171.77 1216.14 Q2168.34 1216.14 2166.35 1218.82 Q2164.36 1221.48 2164.36 1226.14 Q2164.36 1230.79 2166.33 1233.47 Q2168.32 1236.14 2171.77 1236.14 Q2175.17 1236.14 2177.16 1233.45 Q2179.15 1230.77 2179.15 1226.14 Q2179.15 1221.53 2177.16 1218.84 Q2175.17 1216.14 2171.77 1216.14 M2171.77 1212.52 Q2177.32 1212.52 2180.49 1216.14 Q2183.67 1219.75 2183.67 1226.14 Q2183.67 1232.5 2180.49 1236.14 Q2177.32 1239.75 2171.77 1239.75 Q2166.19 1239.75 2163.02 1236.14 Q2159.87 1232.5 2159.87 1226.14 Q2159.87 1219.75 2163.02 1216.14 Q2166.19 1212.52 2171.77 1212.52 Z" fill="#000000" fill-rule="evenodd" fill-opacity="1" /><path clip-path="url(#clip530)" d="M2204.31 1204.52 L2209.34 1204.52 L2217.93 1217.36 L2226.56 1204.52 L2231.58 1204.52 L2220.47 1221.11 L2232.32 1239.08 L2227.3 1239.08 L2217.58 1224.38 L2207.79 1239.08 L2202.74 1239.08 L2215.08 1220.63 L2204.31 1204.52 Z" fill="#000000" fill-rule="evenodd" fill-opacity="1" /><path clip-path="url(#clip530)" d="M2242.9 1235.14 L2259.22 1235.14 L2259.22 1239.08 L2237.28 1239.08 L2237.28 1235.14 Q2239.94 1232.39 2244.52 1227.76 Q2249.13 1223.1 2250.31 1221.76 Q2252.55 1219.24 2253.43 1217.5 Q2254.34 1215.74 2254.34 1214.05 Q2254.34 1211.3 2252.39 1209.56 Q2250.47 1207.83 2247.37 1207.83 Q2245.17 1207.83 2242.72 1208.59 Q2240.29 1209.35 2237.51 1210.9 L2237.51 1206.18 Q2240.33 1205.05 2242.79 1204.47 Q2245.24 1203.89 2247.28 1203.89 Q2252.65 1203.89 2255.84 1206.58 Q2259.04 1209.26 2259.04 1213.75 Q2259.04 1215.88 2258.23 1217.8 Q2257.44 1219.7 2255.33 1222.29 Q2254.75 1222.96 2251.65 1226.18 Q2248.55 1229.38 2242.9 1235.14 Z" fill="#000000" fill-rule="evenodd" fill-opacity="1" /><polyline clip-path="url(#clip530)" style="stroke:#ff0000; stroke-linecap:round; stroke-linejoin:round; stroke-width:4; stroke-opacity:1; fill:none" points="
  1899.33,1273.64 2039.08,1273.64 
  "/>
<path clip-path="url(#clip530)" d="M2063.94 1256.36 L2068.97 1256.36 L2077.56 1269.2 L2086.19 1256.36 L2091.21 1256.36 L2080.1 1272.95 L2091.95 1290.92 L2086.93 1290.92 L2077.21 1276.22 L2067.42 1290.92 L2062.37 1290.92 L2074.71 1272.47 L2063.94 1256.36 Z" fill="#000000" fill-rule="evenodd" fill-opacity="1" /><path clip-path="url(#clip530)" d="M2102.53 1286.98 L2118.85 1286.98 L2118.85 1290.92 L2096.91 1290.92 L2096.91 1286.98 Q2099.57 1284.23 2104.15 1279.6 Q2108.76 1274.94 2109.94 1273.6 Q2112.18 1271.08 2113.06 1269.34 Q2113.97 1267.58 2113.97 1265.89 Q2113.97 1263.14 2112.02 1261.4 Q2110.1 1259.67 2107 1259.67 Q2104.8 1259.67 2102.35 1260.43 Q2099.92 1261.19 2097.14 1262.74 L2097.14 1258.02 Q2099.96 1256.89 2102.42 1256.31 Q2104.87 1255.73 2106.91 1255.73 Q2112.28 1255.73 2115.47 1258.42 Q2118.67 1261.1 2118.67 1265.59 Q2118.67 1267.72 2117.86 1269.64 Q2117.07 1271.54 2114.96 1274.13 Q2114.38 1274.8 2111.28 1278.02 Q2108.18 1281.22 2102.53 1286.98 Z" fill="#000000" fill-rule="evenodd" fill-opacity="1" /><path clip-path="url(#clip530)" d="M2147.35 1257.63 L2147.35 1264.99 L2156.12 1264.99 L2156.12 1268.3 L2147.35 1268.3 L2147.35 1282.37 Q2147.35 1285.54 2148.2 1286.45 Q2149.08 1287.35 2151.74 1287.35 L2156.12 1287.35 L2156.12 1290.92 L2151.74 1290.92 Q2146.81 1290.92 2144.94 1289.09 Q2143.06 1287.23 2143.06 1282.37 L2143.06 1268.3 L2139.94 1268.3 L2139.94 1264.99 L2143.06 1264.99 L2143.06 1257.63 L2147.35 1257.63 Z" fill="#000000" fill-rule="evenodd" fill-opacity="1" /><path clip-path="url(#clip530)" d="M2171.77 1267.98 Q2168.34 1267.98 2166.35 1270.66 Q2164.36 1273.32 2164.36 1277.98 Q2164.36 1282.63 2166.33 1285.31 Q2168.32 1287.98 2171.77 1287.98 Q2175.17 1287.98 2177.16 1285.29 Q2179.15 1282.61 2179.15 1277.98 Q2179.15 1273.37 2177.16 1270.68 Q2175.17 1267.98 2171.77 1267.98 M2171.77 1264.36 Q2177.32 1264.36 2180.49 1267.98 Q2183.67 1271.59 2183.67 1277.98 Q2183.67 1284.34 2180.49 1287.98 Q2177.32 1291.59 2171.77 1291.59 Q2166.19 1291.59 2163.02 1287.98 Q2159.87 1284.34 2159.87 1277.98 Q2159.87 1271.59 2163.02 1267.98 Q2166.19 1264.36 2171.77 1264.36 Z" fill="#000000" fill-rule="evenodd" fill-opacity="1" /><path clip-path="url(#clip530)" d="M2204.31 1256.36 L2209.34 1256.36 L2217.93 1269.2 L2226.56 1256.36 L2231.58 1256.36 L2220.47 1272.95 L2232.32 1290.92 L2227.3 1290.92 L2217.58 1276.22 L2207.79 1290.92 L2202.74 1290.92 L2215.08 1272.47 L2204.31 1256.36 Z" fill="#000000" fill-rule="evenodd" fill-opacity="1" /><path clip-path="url(#clip530)" d="M2239.68 1286.98 L2247.32 1286.98 L2247.32 1260.61 L2239.01 1262.28 L2239.01 1258.02 L2247.28 1256.36 L2251.95 1256.36 L2251.95 1286.98 L2259.59 1286.98 L2259.59 1290.92 L2239.68 1290.92 L2239.68 1286.98 Z" fill="#000000" fill-rule="evenodd" fill-opacity="1" /><polyline clip-path="url(#clip530)" style="stroke:#ff0000; stroke-linecap:round; stroke-linejoin:round; stroke-width:4; stroke-opacity:1; fill:none" stroke-dasharray="2, 4" points="
  1899.33,1325.48 2039.08,1325.48 
  "/>
<path clip-path="url(#clip530)" d="M2063.94 1308.2 L2068.97 1308.2 L2077.56 1321.04 L2086.19 1308.2 L2091.21 1308.2 L2080.1 1324.79 L2091.95 1342.76 L2086.93 1342.76 L2077.21 1328.06 L2067.42 1342.76 L2062.37 1342.76 L2074.71 1324.31 L2063.94 1308.2 Z" fill="#000000" fill-rule="evenodd" fill-opacity="1" /><path clip-path="url(#clip530)" d="M2102.53 1338.82 L2118.85 1338.82 L2118.85 1342.76 L2096.91 1342.76 L2096.91 1338.82 Q2099.57 1336.07 2104.15 1331.44 Q2108.76 1326.78 2109.94 1325.44 Q2112.18 1322.92 2113.06 1321.18 Q2113.97 1319.42 2113.97 1317.73 Q2113.97 1314.98 2112.02 1313.24 Q2110.1 1311.51 2107 1311.51 Q2104.8 1311.51 2102.35 1312.27 Q2099.92 1313.03 2097.14 1314.58 L2097.14 1309.86 Q2099.96 1308.73 2102.42 1308.15 Q2104.87 1307.57 2106.91 1307.57 Q2112.28 1307.57 2115.47 1310.26 Q2118.67 1312.94 2118.67 1317.43 Q2118.67 1319.56 2117.86 1321.48 Q2117.07 1323.38 2114.96 1325.97 Q2114.38 1326.64 2111.28 1329.86 Q2108.18 1333.06 2102.53 1338.82 Z" fill="#000000" fill-rule="evenodd" fill-opacity="1" /><path clip-path="url(#clip530)" d="M2147.35 1309.47 L2147.35 1316.83 L2156.12 1316.83 L2156.12 1320.14 L2147.35 1320.14 L2147.35 1334.21 Q2147.35 1337.38 2148.2 1338.29 Q2149.08 1339.19 2151.74 1339.19 L2156.12 1339.19 L2156.12 1342.76 L2151.74 1342.76 Q2146.81 1342.76 2144.94 1340.93 Q2143.06 1339.07 2143.06 1334.21 L2143.06 1320.14 L2139.94 1320.14 L2139.94 1316.83 L2143.06 1316.83 L2143.06 1309.47 L2147.35 1309.47 Z" fill="#000000" fill-rule="evenodd" fill-opacity="1" /><path clip-path="url(#clip530)" d="M2171.77 1319.82 Q2168.34 1319.82 2166.35 1322.5 Q2164.36 1325.16 2164.36 1329.82 Q2164.36 1334.47 2166.33 1337.15 Q2168.32 1339.82 2171.77 1339.82 Q2175.17 1339.82 2177.16 1337.13 Q2179.15 1334.45 2179.15 1329.82 Q2179.15 1325.21 2177.16 1322.52 Q2175.17 1319.82 2171.77 1319.82 M2171.77 1316.2 Q2177.32 1316.2 2180.49 1319.82 Q2183.67 1323.43 2183.67 1329.82 Q2183.67 1336.18 2180.49 1339.82 Q2177.32 1343.43 2171.77 1343.43 Q2166.19 1343.43 2163.02 1339.82 Q2159.87 1336.18 2159.87 1329.82 Q2159.87 1323.43 2163.02 1319.82 Q2166.19 1316.2 2171.77 1316.2 Z" fill="#000000" fill-rule="evenodd" fill-opacity="1" /><path clip-path="url(#clip530)" d="M2204.31 1308.2 L2209.34 1308.2 L2217.93 1321.04 L2226.56 1308.2 L2231.58 1308.2 L2220.47 1324.79 L2232.32 1342.76 L2227.3 1342.76 L2217.58 1328.06 L2207.79 1342.76 L2202.74 1342.76 L2215.08 1324.31 L2204.31 1308.2 Z" fill="#000000" fill-rule="evenodd" fill-opacity="1" /><path clip-path="url(#clip530)" d="M2239.68 1338.82 L2247.32 1338.82 L2247.32 1312.45 L2239.01 1314.12 L2239.01 1309.86 L2247.28 1308.2 L2251.95 1308.2 L2251.95 1338.82 L2259.59 1338.82 L2259.59 1342.76 L2239.68 1342.76 L2239.68 1338.82 Z" fill="#000000" fill-rule="evenodd" fill-opacity="1" /></svg>
