<?xml version="1.0" encoding="utf-8"?>
<svg xmlns="http://www.w3.org/2000/svg" xmlns:xlink="http://www.w3.org/1999/xlink" width="600" height="400" viewBox="0 0 2400 1600">
<defs>
  <clipPath id="clip590">
    <rect x="0" y="0" width="2400" height="1600"/>
  </clipPath>
</defs>
<path clip-path="url(#clip590)" d="
M0 1600 L2400 1600 L2400 0 L0 0  Z
  " fill="#ffffff" fill-rule="evenodd" fill-opacity="1"/>
<defs>
  <clipPath id="clip591">
    <rect x="480" y="0" width="1681" height="1600"/>
  </clipPath>
</defs>
<path clip-path="url(#clip590)" d="
M249.542 1423.18 L2352.76 1423.18 L2352.76 47.2441 L249.542 47.2441  Z
  " fill="#ffffff" fill-rule="evenodd" fill-opacity="1"/>
<defs>
  <clipPath id="clip592">
    <rect x="249" y="47" width="2104" height="1377"/>
  </clipPath>
</defs>
<polyline clip-path="url(#clip592)" style="stroke:#000000; stroke-linecap:round; stroke-linejoin:round; stroke-width:2; stroke-opacity:0.1; fill:none" points="
  309.067,1423.18 309.067,47.2441 
  "/>
<polyline clip-path="url(#clip592)" style="stroke:#000000; stroke-linecap:round; stroke-linejoin:round; stroke-width:2; stroke-opacity:0.1; fill:none" points="
  805.108,1423.18 805.108,47.2441 
  "/>
<polyline clip-path="url(#clip592)" style="stroke:#000000; stroke-linecap:round; stroke-linejoin:round; stroke-width:2; stroke-opacity:0.1; fill:none" points="
  1301.15,1423.18 1301.15,47.2441 
  "/>
<polyline clip-path="url(#clip592)" style="stroke:#000000; stroke-linecap:round; stroke-linejoin:round; stroke-width:2; stroke-opacity:0.1; fill:none" points="
  1797.19,1423.18 1797.19,47.2441 
  "/>
<polyline clip-path="url(#clip592)" style="stroke:#000000; stroke-linecap:round; stroke-linejoin:round; stroke-width:2; stroke-opacity:0.1; fill:none" points="
  2293.23,1423.18 2293.23,47.2441 
  "/>
<polyline clip-path="url(#clip590)" style="stroke:#000000; stroke-linecap:round; stroke-linejoin:round; stroke-width:4; stroke-opacity:1; fill:none" points="
  249.542,1423.18 2352.76,1423.18 
  "/>
<polyline clip-path="url(#clip590)" style="stroke:#000000; stroke-linecap:round; stroke-linejoin:round; stroke-width:4; stroke-opacity:1; fill:none" points="
  309.067,1423.18 309.067,1404.28 
  "/>
<polyline clip-path="url(#clip590)" style="stroke:#000000; stroke-linecap:round; stroke-linejoin:round; stroke-width:4; stroke-opacity:1; fill:none" points="
  805.108,1423.18 805.108,1404.28 
  "/>
<polyline clip-path="url(#clip590)" style="stroke:#000000; stroke-linecap:round; stroke-linejoin:round; stroke-width:4; stroke-opacity:1; fill:none" points="
  1301.15,1423.18 1301.15,1404.28 
  "/>
<polyline clip-path="url(#clip590)" style="stroke:#000000; stroke-linecap:round; stroke-linejoin:round; stroke-width:4; stroke-opacity:1; fill:none" points="
  1797.19,1423.18 1797.19,1404.28 
  "/>
<polyline clip-path="url(#clip590)" style="stroke:#000000; stroke-linecap:round; stroke-linejoin:round; stroke-width:4; stroke-opacity:1; fill:none" points="
  2293.23,1423.18 2293.23,1404.28 
  "/>
<path clip-path="url(#clip590)" d="M303.72 1481.64 L320.039 1481.64 L320.039 1485.58 L298.095 1485.58 L298.095 1481.64 Q300.757 1478.89 305.34 1474.26 Q309.947 1469.61 311.127 1468.27 Q313.372 1465.74 314.252 1464.01 Q315.155 1462.25 315.155 1460.56 Q315.155 1457.8 313.21 1456.07 Q311.289 1454.33 308.187 1454.33 Q305.988 1454.33 303.535 1455.09 Q301.104 1455.86 298.326 1457.41 L298.326 1452.69 Q301.15 1451.55 303.604 1450.97 Q306.058 1450.39 308.095 1450.39 Q313.465 1450.39 316.66 1453.08 Q319.854 1455.77 319.854 1460.26 Q319.854 1462.39 319.044 1464.31 Q318.257 1466.2 316.15 1468.8 Q315.572 1469.47 312.47 1472.69 Q309.368 1475.88 303.72 1481.64 Z" fill="#000000" fill-rule="evenodd" fill-opacity="1" /><path clip-path="url(#clip590)" d="M808.117 1455.09 L796.312 1473.54 L808.117 1473.54 L808.117 1455.09 M806.89 1451.02 L812.77 1451.02 L812.77 1473.54 L817.7 1473.54 L817.7 1477.43 L812.77 1477.43 L812.77 1485.58 L808.117 1485.58 L808.117 1477.43 L792.515 1477.43 L792.515 1472.92 L806.89 1451.02 Z" fill="#000000" fill-rule="evenodd" fill-opacity="1" /><path clip-path="url(#clip590)" d="M1301.55 1466.44 Q1298.41 1466.44 1296.55 1468.59 Q1294.73 1470.74 1294.73 1474.49 Q1294.73 1478.22 1296.55 1480.39 Q1298.41 1482.55 1301.55 1482.55 Q1304.7 1482.55 1306.53 1480.39 Q1308.38 1478.22 1308.38 1474.49 Q1308.38 1470.74 1306.53 1468.59 Q1304.7 1466.44 1301.55 1466.44 M1310.84 1451.78 L1310.84 1456.04 Q1309.08 1455.21 1307.27 1454.77 Q1305.49 1454.33 1303.73 1454.33 Q1299.1 1454.33 1296.65 1457.45 Q1294.22 1460.58 1293.87 1466.9 Q1295.23 1464.89 1297.29 1463.82 Q1299.35 1462.73 1301.83 1462.73 Q1307.04 1462.73 1310.05 1465.9 Q1313.08 1469.05 1313.08 1474.49 Q1313.08 1479.82 1309.93 1483.03 Q1306.79 1486.25 1301.55 1486.25 Q1295.56 1486.25 1292.39 1481.67 Q1289.22 1477.06 1289.22 1468.33 Q1289.22 1460.14 1293.11 1455.28 Q1296.99 1450.39 1303.54 1450.39 Q1305.3 1450.39 1307.09 1450.74 Q1308.89 1451.09 1310.84 1451.78 Z" fill="#000000" fill-rule="evenodd" fill-opacity="1" /><path clip-path="url(#clip590)" d="M1797.19 1469.17 Q1793.86 1469.17 1791.94 1470.95 Q1790.04 1472.73 1790.04 1475.86 Q1790.04 1478.98 1791.94 1480.77 Q1793.86 1482.55 1797.19 1482.55 Q1800.52 1482.55 1802.44 1480.77 Q1804.37 1478.96 1804.37 1475.86 Q1804.37 1472.73 1802.44 1470.95 Q1800.55 1469.17 1797.19 1469.17 M1792.51 1467.18 Q1789.5 1466.44 1787.82 1464.38 Q1786.15 1462.32 1786.15 1459.35 Q1786.15 1455.21 1789.09 1452.8 Q1792.05 1450.39 1797.19 1450.39 Q1802.35 1450.39 1805.29 1452.8 Q1808.23 1455.21 1808.23 1459.35 Q1808.23 1462.32 1806.54 1464.38 Q1804.88 1466.44 1801.89 1467.18 Q1805.27 1467.96 1807.14 1470.26 Q1809.04 1472.55 1809.04 1475.86 Q1809.04 1480.88 1805.96 1483.57 Q1802.91 1486.25 1797.19 1486.25 Q1791.47 1486.25 1788.39 1483.57 Q1785.34 1480.88 1785.34 1475.86 Q1785.34 1472.55 1787.24 1470.26 Q1789.13 1467.96 1792.51 1467.18 M1790.8 1459.79 Q1790.8 1462.48 1792.47 1463.98 Q1794.16 1465.49 1797.19 1465.49 Q1800.2 1465.49 1801.89 1463.98 Q1803.6 1462.48 1803.6 1459.79 Q1803.6 1457.11 1801.89 1455.6 Q1800.2 1454.1 1797.19 1454.1 Q1794.16 1454.1 1792.47 1455.6 Q1790.8 1457.11 1790.8 1459.79 Z" fill="#000000" fill-rule="evenodd" fill-opacity="1" /><path clip-path="url(#clip590)" d="M2267.92 1481.64 L2275.56 1481.64 L2275.56 1455.28 L2267.25 1456.95 L2267.25 1452.69 L2275.51 1451.02 L2280.19 1451.02 L2280.19 1481.64 L2287.83 1481.64 L2287.83 1485.58 L2267.92 1485.58 L2267.92 1481.64 Z" fill="#000000" fill-rule="evenodd" fill-opacity="1" /><path clip-path="url(#clip590)" d="M2307.27 1454.1 Q2303.66 1454.1 2301.83 1457.66 Q2300.02 1461.2 2300.02 1468.33 Q2300.02 1475.44 2301.83 1479.01 Q2303.66 1482.55 2307.27 1482.55 Q2310.9 1482.55 2312.71 1479.01 Q2314.54 1475.44 2314.54 1468.33 Q2314.54 1461.2 2312.71 1457.66 Q2310.9 1454.1 2307.27 1454.1 M2307.27 1450.39 Q2313.08 1450.39 2316.14 1455 Q2319.21 1459.58 2319.21 1468.33 Q2319.21 1477.06 2316.14 1481.67 Q2313.08 1486.25 2307.27 1486.25 Q2301.46 1486.25 2298.38 1481.67 Q2295.33 1477.06 2295.33 1468.33 Q2295.33 1459.58 2298.38 1455 Q2301.46 1450.39 2307.27 1450.39 Z" fill="#000000" fill-rule="evenodd" fill-opacity="1" /><path clip-path="url(#clip590)" d="M946.77 1539.37 L937.508 1539.37 L934.834 1550 L944.16 1550 L946.77 1539.37 M941.996 1521.26 L938.686 1534.46 L947.98 1534.46 L951.322 1521.26 L956.414 1521.26 L953.136 1534.46 L963.066 1534.46 L963.066 1539.37 L951.894 1539.37 L949.285 1550 L959.406 1550 L959.406 1554.87 L948.043 1554.87 L944.733 1568.04 L939.64 1568.04 L942.919 1554.87 L933.593 1554.87 L930.315 1568.04 L925.19 1568.04 L928.501 1554.87 L918.475 1554.87 L918.475 1550 L929.678 1550 L932.352 1539.37 L922.103 1539.37 L922.103 1534.46 L933.593 1534.46 L936.84 1521.26 L941.996 1521.26 Z" fill="#000000" fill-rule="evenodd" fill-opacity="1" /><path clip-path="url(#clip590)" d="M1024.56 1546.53 L1024.56 1568.04 L1018.7 1568.04 L1018.7 1546.72 Q1018.7 1541.66 1016.73 1539.14 Q1014.76 1536.63 1010.81 1536.63 Q1006.07 1536.63 1003.33 1539.65 Q1000.59 1542.68 1000.59 1547.9 L1000.59 1568.04 L994.704 1568.04 L994.704 1532.4 L1000.59 1532.4 L1000.59 1537.93 Q1002.69 1534.72 1005.53 1533.13 Q1008.39 1531.54 1012.11 1531.54 Q1018.26 1531.54 1021.41 1535.36 Q1024.56 1539.14 1024.56 1546.53 Z" fill="#000000" fill-rule="evenodd" fill-opacity="1" /><path clip-path="url(#clip590)" d="M1066.73 1548.76 L1066.73 1551.62 L1039.8 1551.62 Q1040.19 1557.67 1043.43 1560.85 Q1046.71 1564 1052.54 1564 Q1055.91 1564 1059.06 1563.17 Q1062.24 1562.35 1065.36 1560.69 L1065.36 1566.23 Q1062.21 1567.57 1058.9 1568.27 Q1055.59 1568.97 1052.19 1568.97 Q1043.66 1568.97 1038.66 1564 Q1033.69 1559.04 1033.69 1550.57 Q1033.69 1541.82 1038.4 1536.69 Q1043.15 1531.54 1051.17 1531.54 Q1058.36 1531.54 1062.53 1536.18 Q1066.73 1540.8 1066.73 1548.76 M1060.88 1547.04 Q1060.81 1542.23 1058.17 1539.37 Q1055.56 1536.5 1051.23 1536.5 Q1046.33 1536.5 1043.37 1539.27 Q1040.44 1542.04 1040 1547.07 L1060.88 1547.04 Z" fill="#000000" fill-rule="evenodd" fill-opacity="1" /><path clip-path="url(#clip590)" d="M1092.54 1550.12 Q1085.45 1550.12 1082.71 1551.75 Q1079.97 1553.37 1079.97 1557.29 Q1079.97 1560.4 1082.01 1562.25 Q1084.08 1564.07 1087.61 1564.07 Q1092.48 1564.07 1095.41 1560.63 Q1098.37 1557.16 1098.37 1551.43 L1098.37 1550.12 L1092.54 1550.12 M1104.23 1547.71 L1104.23 1568.04 L1098.37 1568.04 L1098.37 1562.63 Q1096.36 1565.88 1093.37 1567.44 Q1090.38 1568.97 1086.05 1568.97 Q1080.58 1568.97 1077.33 1565.91 Q1074.12 1562.82 1074.12 1557.67 Q1074.12 1551.65 1078.13 1548.6 Q1082.17 1545.54 1090.16 1545.54 L1098.37 1545.54 L1098.37 1544.97 Q1098.37 1540.93 1095.7 1538.73 Q1093.05 1536.5 1088.25 1536.5 Q1085.19 1536.5 1082.3 1537.23 Q1079.4 1537.97 1076.73 1539.43 L1076.73 1534.02 Q1079.94 1532.78 1082.96 1532.17 Q1085.99 1531.54 1088.85 1531.54 Q1096.59 1531.54 1100.41 1535.55 Q1104.23 1539.56 1104.23 1547.71 Z" fill="#000000" fill-rule="evenodd" fill-opacity="1" /><path clip-path="url(#clip590)" d="M1136.95 1537.87 Q1135.96 1537.3 1134.78 1537.04 Q1133.64 1536.76 1132.23 1536.76 Q1127.27 1536.76 1124.6 1540 Q1121.95 1543.22 1121.95 1549.27 L1121.95 1568.04 L1116.07 1568.04 L1116.07 1532.4 L1121.95 1532.4 L1121.95 1537.93 Q1123.8 1534.69 1126.76 1533.13 Q1129.72 1531.54 1133.95 1531.54 Q1134.56 1531.54 1135.29 1531.63 Q1136.02 1531.7 1136.91 1531.85 L1136.95 1537.87 Z" fill="#000000" fill-rule="evenodd" fill-opacity="1" /><path clip-path="url(#clip590)" d="M1172.15 1548.76 L1172.15 1551.62 L1145.22 1551.62 Q1145.6 1557.67 1148.85 1560.85 Q1152.13 1564 1157.95 1564 Q1161.33 1564 1164.48 1563.17 Q1167.66 1562.35 1170.78 1560.69 L1170.78 1566.23 Q1167.63 1567.57 1164.32 1568.27 Q1161.01 1568.97 1157.6 1568.97 Q1149.07 1568.97 1144.08 1564 Q1139.11 1559.04 1139.11 1550.57 Q1139.11 1541.82 1143.82 1536.69 Q1148.56 1531.54 1156.58 1531.54 Q1163.78 1531.54 1167.95 1536.18 Q1172.15 1540.8 1172.15 1548.76 M1166.29 1547.04 Q1166.23 1542.23 1163.59 1539.37 Q1160.98 1536.5 1156.65 1536.5 Q1151.75 1536.5 1148.79 1539.27 Q1145.86 1542.04 1145.41 1547.07 L1166.29 1547.04 Z" fill="#000000" fill-rule="evenodd" fill-opacity="1" /><path clip-path="url(#clip590)" d="M1204.49 1533.45 L1204.49 1538.98 Q1202 1537.71 1199.33 1537.07 Q1196.66 1536.44 1193.79 1536.44 Q1189.43 1536.44 1187.23 1537.77 Q1185.07 1539.11 1185.07 1541.79 Q1185.07 1543.82 1186.63 1545 Q1188.19 1546.15 1192.9 1547.2 L1194.91 1547.64 Q1201.14 1548.98 1203.75 1551.43 Q1206.4 1553.85 1206.4 1558.21 Q1206.4 1563.17 1202.45 1566.07 Q1198.53 1568.97 1191.66 1568.97 Q1188.79 1568.97 1185.68 1568.39 Q1182.59 1567.85 1179.15 1566.74 L1179.15 1560.69 Q1182.4 1562.38 1185.55 1563.24 Q1188.7 1564.07 1191.79 1564.07 Q1195.92 1564.07 1198.15 1562.66 Q1200.38 1561.23 1200.38 1558.65 Q1200.38 1556.27 1198.76 1554.99 Q1197.17 1553.72 1191.72 1552.54 L1189.69 1552.07 Q1184.24 1550.92 1181.82 1548.56 Q1179.4 1546.18 1179.4 1542.04 Q1179.4 1537.01 1182.97 1534.27 Q1186.53 1531.54 1193.09 1531.54 Q1196.34 1531.54 1199.2 1532.01 Q1202.07 1532.49 1204.49 1533.45 Z" fill="#000000" fill-rule="evenodd" fill-opacity="1" /><path clip-path="url(#clip590)" d="M1221.51 1522.27 L1221.51 1532.4 L1233.58 1532.4 L1233.58 1536.95 L1221.51 1536.95 L1221.51 1556.3 Q1221.51 1560.66 1222.69 1561.9 Q1223.9 1563.14 1227.56 1563.14 L1233.58 1563.14 L1233.58 1568.04 L1227.56 1568.04 Q1220.78 1568.04 1218.2 1565.53 Q1215.63 1562.98 1215.63 1556.3 L1215.63 1536.95 L1211.33 1536.95 L1211.33 1532.4 L1215.63 1532.4 L1215.63 1522.27 L1221.51 1522.27 Z" fill="#000000" fill-rule="evenodd" fill-opacity="1" /><path clip-path="url(#clip590)" d="M1291.63 1546.53 L1291.63 1568.04 L1285.78 1568.04 L1285.78 1546.72 Q1285.78 1541.66 1283.8 1539.14 Q1281.83 1536.63 1277.88 1536.63 Q1273.14 1536.63 1270.4 1539.65 Q1267.67 1542.68 1267.67 1547.9 L1267.67 1568.04 L1261.78 1568.04 L1261.78 1532.4 L1267.67 1532.4 L1267.67 1537.93 Q1269.77 1534.72 1272.6 1533.13 Q1275.46 1531.54 1279.19 1531.54 Q1285.33 1531.54 1288.48 1535.36 Q1291.63 1539.14 1291.63 1546.53 Z" fill="#000000" fill-rule="evenodd" fill-opacity="1" /><path clip-path="url(#clip590)" d="M1333.81 1548.76 L1333.81 1551.62 L1306.88 1551.62 Q1307.26 1557.67 1310.51 1560.85 Q1313.78 1564 1319.61 1564 Q1322.98 1564 1326.13 1563.17 Q1329.32 1562.35 1332.44 1560.69 L1332.44 1566.23 Q1329.29 1567.57 1325.98 1568.27 Q1322.67 1568.97 1319.26 1568.97 Q1310.73 1568.97 1305.73 1564 Q1300.77 1559.04 1300.77 1550.57 Q1300.77 1541.82 1305.48 1536.69 Q1310.22 1531.54 1318.24 1531.54 Q1325.43 1531.54 1329.6 1536.18 Q1333.81 1540.8 1333.81 1548.76 M1327.95 1547.04 Q1327.88 1542.23 1325.24 1539.37 Q1322.63 1536.5 1318.3 1536.5 Q1313.4 1536.5 1310.44 1539.27 Q1307.51 1542.04 1307.07 1547.07 L1327.95 1547.04 Z" fill="#000000" fill-rule="evenodd" fill-opacity="1" /><path clip-path="url(#clip590)" d="M1343.42 1532.4 L1349.27 1532.4 L1349.27 1568.04 L1343.42 1568.04 L1343.42 1532.4 M1343.42 1518.52 L1349.27 1518.52 L1349.27 1525.93 L1343.42 1525.93 L1343.42 1518.52 Z" fill="#000000" fill-rule="evenodd" fill-opacity="1" /><path clip-path="url(#clip590)" d="M1384.99 1549.81 Q1384.99 1543.44 1382.34 1539.94 Q1379.73 1536.44 1374.99 1536.44 Q1370.28 1536.44 1367.64 1539.94 Q1365.03 1543.44 1365.03 1549.81 Q1365.03 1556.14 1367.64 1559.64 Q1370.28 1563.14 1374.99 1563.14 Q1379.73 1563.14 1382.34 1559.64 Q1384.99 1556.14 1384.99 1549.81 M1390.84 1563.62 Q1390.84 1572.72 1386.8 1577.15 Q1382.76 1581.6 1374.42 1581.6 Q1371.33 1581.6 1368.59 1581.13 Q1365.86 1580.68 1363.28 1579.72 L1363.28 1574.03 Q1365.86 1575.43 1368.37 1576.1 Q1370.89 1576.76 1373.5 1576.76 Q1379.26 1576.76 1382.12 1573.74 Q1384.99 1570.75 1384.99 1564.67 L1384.99 1561.77 Q1383.17 1564.92 1380.34 1566.48 Q1377.51 1568.04 1373.56 1568.04 Q1367 1568.04 1362.99 1563.05 Q1358.98 1558.05 1358.98 1549.81 Q1358.98 1541.53 1362.99 1536.53 Q1367 1531.54 1373.56 1531.54 Q1377.51 1531.54 1380.34 1533.1 Q1383.17 1534.66 1384.99 1537.81 L1384.99 1532.4 L1390.84 1532.4 L1390.84 1563.62 Z" fill="#000000" fill-rule="evenodd" fill-opacity="1" /><path clip-path="url(#clip590)" d="M1432.54 1546.53 L1432.54 1568.04 L1426.68 1568.04 L1426.68 1546.72 Q1426.68 1541.66 1424.71 1539.14 Q1422.73 1536.63 1418.79 1536.63 Q1414.04 1536.63 1411.31 1539.65 Q1408.57 1542.68 1408.57 1547.9 L1408.57 1568.04 L1402.68 1568.04 L1402.68 1518.52 L1408.57 1518.52 L1408.57 1537.93 Q1410.67 1534.72 1413.5 1533.13 Q1416.37 1531.54 1420.09 1531.54 Q1426.24 1531.54 1429.39 1535.36 Q1432.54 1539.14 1432.54 1546.53 Z" fill="#000000" fill-rule="evenodd" fill-opacity="1" /><path clip-path="url(#clip590)" d="M1469.81 1550.25 Q1469.81 1543.79 1467.13 1540.13 Q1464.49 1536.44 1459.85 1536.44 Q1455.2 1536.44 1452.53 1540.13 Q1449.88 1543.79 1449.88 1550.25 Q1449.88 1556.71 1452.53 1560.4 Q1455.2 1564.07 1459.85 1564.07 Q1464.49 1564.07 1467.13 1560.4 Q1469.81 1556.71 1469.81 1550.25 M1449.88 1537.81 Q1451.73 1534.62 1454.53 1533.1 Q1457.36 1531.54 1461.28 1531.54 Q1467.77 1531.54 1471.81 1536.69 Q1475.89 1541.85 1475.89 1550.25 Q1475.89 1558.65 1471.81 1563.81 Q1467.77 1568.97 1461.28 1568.97 Q1457.36 1568.97 1454.53 1567.44 Q1451.73 1565.88 1449.88 1562.7 L1449.88 1568.04 L1444 1568.04 L1444 1518.52 L1449.88 1518.52 L1449.88 1537.81 Z" fill="#000000" fill-rule="evenodd" fill-opacity="1" /><path clip-path="url(#clip590)" d="M1499.41 1536.5 Q1494.7 1536.5 1491.96 1540.19 Q1489.22 1543.85 1489.22 1550.25 Q1489.22 1556.65 1491.93 1560.34 Q1494.67 1564 1499.41 1564 Q1504.09 1564 1506.82 1560.31 Q1509.56 1556.62 1509.56 1550.25 Q1509.56 1543.92 1506.82 1540.23 Q1504.09 1536.5 1499.41 1536.5 M1499.41 1531.54 Q1507.05 1531.54 1511.41 1536.5 Q1515.77 1541.47 1515.77 1550.25 Q1515.77 1559 1511.41 1564 Q1507.05 1568.97 1499.41 1568.97 Q1491.74 1568.97 1487.38 1564 Q1483.05 1559 1483.05 1550.25 Q1483.05 1541.47 1487.38 1536.5 Q1491.74 1531.54 1499.41 1531.54 Z" fill="#000000" fill-rule="evenodd" fill-opacity="1" /><path clip-path="url(#clip590)" d="M1546.13 1537.87 Q1545.15 1537.3 1543.97 1537.04 Q1542.82 1536.76 1541.42 1536.76 Q1536.46 1536.76 1533.78 1540 Q1531.14 1543.22 1531.14 1549.27 L1531.14 1568.04 L1525.25 1568.04 L1525.25 1532.4 L1531.14 1532.4 L1531.14 1537.93 Q1532.99 1534.69 1535.95 1533.13 Q1538.91 1531.54 1543.14 1531.54 Q1543.75 1531.54 1544.48 1531.63 Q1545.21 1531.7 1546.1 1531.85 L1546.13 1537.87 Z" fill="#000000" fill-rule="evenodd" fill-opacity="1" /><path clip-path="url(#clip590)" d="M1575 1533.45 L1575 1538.98 Q1572.52 1537.71 1569.85 1537.07 Q1567.17 1536.44 1564.31 1536.44 Q1559.95 1536.44 1557.75 1537.77 Q1555.59 1539.11 1555.59 1541.79 Q1555.59 1543.82 1557.15 1545 Q1558.71 1546.15 1563.42 1547.2 L1565.42 1547.64 Q1571.66 1548.98 1574.27 1551.43 Q1576.91 1553.85 1576.91 1558.21 Q1576.91 1563.17 1572.96 1566.07 Q1569.05 1568.97 1562.17 1568.97 Q1559.31 1568.97 1556.19 1568.39 Q1553.1 1567.85 1549.67 1566.74 L1549.67 1560.69 Q1552.91 1562.38 1556.06 1563.24 Q1559.21 1564.07 1562.3 1564.07 Q1566.44 1564.07 1568.67 1562.66 Q1570.9 1561.23 1570.9 1558.65 Q1570.9 1556.27 1569.27 1554.99 Q1567.68 1553.72 1562.24 1552.54 L1560.2 1552.07 Q1554.76 1550.92 1552.34 1548.56 Q1549.92 1546.18 1549.92 1542.04 Q1549.92 1537.01 1553.49 1534.27 Q1557.05 1531.54 1563.61 1531.54 Q1566.85 1531.54 1569.72 1532.01 Q1572.58 1532.49 1575 1533.45 Z" fill="#000000" fill-rule="evenodd" fill-opacity="1" /><path clip-path="url(#clip590)" d="M1621.03 1518.58 Q1616.76 1525.9 1614.69 1533.06 Q1612.62 1540.23 1612.62 1547.58 Q1612.62 1554.93 1614.69 1562.16 Q1616.79 1569.35 1621.03 1576.64 L1615.93 1576.64 Q1611.16 1569.16 1608.77 1561.93 Q1606.42 1554.71 1606.42 1547.58 Q1606.42 1540.48 1608.77 1533.29 Q1611.13 1526.09 1615.93 1518.58 L1621.03 1518.58 Z" fill="#000000" fill-rule="evenodd" fill-opacity="1" /><path clip-path="url(#clip590)" d="M1632.17 1518.52 L1638.05 1518.52 L1638.05 1547.77 L1655.53 1532.4 L1663.01 1532.4 L1644.1 1549.07 L1663.8 1568.04 L1656.16 1568.04 L1638.05 1550.63 L1638.05 1568.04 L1632.17 1568.04 L1632.17 1518.52 Z" fill="#000000" fill-rule="evenodd" fill-opacity="1" /><path clip-path="url(#clip590)" d="M1669.21 1518.58 L1674.31 1518.58 Q1679.08 1526.09 1681.44 1533.29 Q1683.82 1540.48 1683.82 1547.58 Q1683.82 1554.71 1681.44 1561.93 Q1679.08 1569.16 1674.31 1576.64 L1669.21 1576.64 Q1673.45 1569.35 1675.52 1562.16 Q1677.62 1554.93 1677.62 1547.58 Q1677.62 1540.23 1675.52 1533.06 Q1673.45 1525.9 1669.21 1518.58 Z" fill="#000000" fill-rule="evenodd" fill-opacity="1" /><polyline clip-path="url(#clip592)" style="stroke:#000000; stroke-linecap:round; stroke-linejoin:round; stroke-width:2; stroke-opacity:0.1; fill:none" points="
  249.542,1360.64 2352.76,1360.64 
  "/>
<polyline clip-path="url(#clip592)" style="stroke:#000000; stroke-linecap:round; stroke-linejoin:round; stroke-width:2; stroke-opacity:0.1; fill:none" points="
  249.542,1047.92 2352.76,1047.92 
  "/>
<polyline clip-path="url(#clip592)" style="stroke:#000000; stroke-linecap:round; stroke-linejoin:round; stroke-width:2; stroke-opacity:0.1; fill:none" points="
  249.542,735.212 2352.76,735.212 
  "/>
<polyline clip-path="url(#clip592)" style="stroke:#000000; stroke-linecap:round; stroke-linejoin:round; stroke-width:2; stroke-opacity:0.1; fill:none" points="
  249.542,422.499 2352.76,422.499 
  "/>
<polyline clip-path="url(#clip592)" style="stroke:#000000; stroke-linecap:round; stroke-linejoin:round; stroke-width:2; stroke-opacity:0.1; fill:none" points="
  249.542,109.787 2352.76,109.787 
  "/>
<polyline clip-path="url(#clip590)" style="stroke:#000000; stroke-linecap:round; stroke-linejoin:round; stroke-width:4; stroke-opacity:1; fill:none" points="
  249.542,1423.18 249.542,47.2441 
  "/>
<polyline clip-path="url(#clip590)" style="stroke:#000000; stroke-linecap:round; stroke-linejoin:round; stroke-width:4; stroke-opacity:1; fill:none" points="
  249.542,1360.64 268.44,1360.64 
  "/>
<polyline clip-path="url(#clip590)" style="stroke:#000000; stroke-linecap:round; stroke-linejoin:round; stroke-width:4; stroke-opacity:1; fill:none" points="
  249.542,1047.92 268.44,1047.92 
  "/>
<polyline clip-path="url(#clip590)" style="stroke:#000000; stroke-linecap:round; stroke-linejoin:round; stroke-width:4; stroke-opacity:1; fill:none" points="
  249.542,735.212 268.44,735.212 
  "/>
<polyline clip-path="url(#clip590)" style="stroke:#000000; stroke-linecap:round; stroke-linejoin:round; stroke-width:4; stroke-opacity:1; fill:none" points="
  249.542,422.499 268.44,422.499 
  "/>
<polyline clip-path="url(#clip590)" style="stroke:#000000; stroke-linecap:round; stroke-linejoin:round; stroke-width:4; stroke-opacity:1; fill:none" points="
  249.542,109.787 268.44,109.787 
  "/>
<path clip-path="url(#clip590)" d="M126.205 1346.44 Q122.593 1346.44 120.765 1350 Q118.959 1353.54 118.959 1360.67 Q118.959 1367.78 120.765 1371.34 Q122.593 1374.88 126.205 1374.88 Q129.839 1374.88 131.644 1371.34 Q133.473 1367.78 133.473 1360.67 Q133.473 1353.54 131.644 1350 Q129.839 1346.44 126.205 1346.44 M126.205 1342.73 Q132.015 1342.73 135.07 1347.34 Q138.149 1351.92 138.149 1360.67 Q138.149 1369.4 135.07 1374.01 Q132.015 1378.59 126.205 1378.59 Q120.394 1378.59 117.316 1374.01 Q114.26 1369.4 114.26 1360.67 Q114.26 1351.92 117.316 1347.34 Q120.394 1342.73 126.205 1342.73 Z" fill="#000000" fill-rule="evenodd" fill-opacity="1" /><path clip-path="url(#clip590)" d="M146.366 1372.04 L151.251 1372.04 L151.251 1377.92 L146.366 1377.92 L146.366 1372.04 Z" fill="#000000" fill-rule="evenodd" fill-opacity="1" /><path clip-path="url(#clip590)" d="M171.436 1346.44 Q167.825 1346.44 165.996 1350 Q164.19 1353.54 164.19 1360.67 Q164.19 1367.78 165.996 1371.34 Q167.825 1374.88 171.436 1374.88 Q175.07 1374.88 176.876 1371.34 Q178.704 1367.78 178.704 1360.67 Q178.704 1353.54 176.876 1350 Q175.07 1346.44 171.436 1346.44 M171.436 1342.73 Q177.246 1342.73 180.301 1347.34 Q183.38 1351.92 183.38 1360.67 Q183.38 1369.4 180.301 1374.01 Q177.246 1378.59 171.436 1378.59 Q165.626 1378.59 162.547 1374.01 Q159.491 1369.4 159.491 1360.67 Q159.491 1351.92 162.547 1347.34 Q165.626 1342.73 171.436 1342.73 Z" fill="#000000" fill-rule="evenodd" fill-opacity="1" /><path clip-path="url(#clip590)" d="M201.598 1346.44 Q197.987 1346.44 196.158 1350 Q194.352 1353.54 194.352 1360.67 Q194.352 1367.78 196.158 1371.34 Q197.987 1374.88 201.598 1374.88 Q205.232 1374.88 207.037 1371.34 Q208.866 1367.78 208.866 1360.67 Q208.866 1353.54 207.037 1350 Q205.232 1346.44 201.598 1346.44 M201.598 1342.73 Q207.408 1342.73 210.463 1347.34 Q213.542 1351.92 213.542 1360.67 Q213.542 1369.4 210.463 1374.01 Q207.408 1378.59 201.598 1378.59 Q195.787 1378.59 192.709 1374.01 Q189.653 1369.4 189.653 1360.67 Q189.653 1351.92 192.709 1347.34 Q195.787 1342.73 201.598 1342.73 Z" fill="#000000" fill-rule="evenodd" fill-opacity="1" /><path clip-path="url(#clip590)" d="M127.2 1033.72 Q123.589 1033.72 121.76 1037.29 Q119.955 1040.83 119.955 1047.96 Q119.955 1055.07 121.76 1058.63 Q123.589 1062.17 127.2 1062.17 Q130.834 1062.17 132.64 1058.63 Q134.468 1055.07 134.468 1047.96 Q134.468 1040.83 132.64 1037.29 Q130.834 1033.72 127.2 1033.72 M127.2 1030.02 Q133.01 1030.02 136.066 1034.63 Q139.144 1039.21 139.144 1047.96 Q139.144 1056.69 136.066 1061.29 Q133.01 1065.88 127.2 1065.88 Q121.39 1065.88 118.311 1061.29 Q115.256 1056.69 115.256 1047.96 Q115.256 1039.21 118.311 1034.63 Q121.39 1030.02 127.2 1030.02 Z" fill="#000000" fill-rule="evenodd" fill-opacity="1" /><path clip-path="url(#clip590)" d="M147.362 1059.33 L152.246 1059.33 L152.246 1065.2 L147.362 1065.2 L147.362 1059.33 Z" fill="#000000" fill-rule="evenodd" fill-opacity="1" /><path clip-path="url(#clip590)" d="M166.459 1061.27 L182.778 1061.27 L182.778 1065.2 L160.834 1065.2 L160.834 1061.27 Q163.496 1058.51 168.079 1053.89 Q172.686 1049.23 173.866 1047.89 Q176.112 1045.37 176.991 1043.63 Q177.894 1041.87 177.894 1040.18 Q177.894 1037.43 175.95 1035.69 Q174.028 1033.95 170.927 1033.95 Q168.727 1033.95 166.274 1034.72 Q163.843 1035.48 161.065 1037.03 L161.065 1032.31 Q163.89 1031.18 166.343 1030.6 Q168.797 1030.02 170.834 1030.02 Q176.204 1030.02 179.399 1032.7 Q182.593 1035.39 182.593 1039.88 Q182.593 1042.01 181.783 1043.93 Q180.996 1045.83 178.889 1048.42 Q178.311 1049.09 175.209 1052.31 Q172.107 1055.51 166.459 1061.27 Z" fill="#000000" fill-rule="evenodd" fill-opacity="1" /><path clip-path="url(#clip590)" d="M192.639 1030.64 L210.996 1030.64 L210.996 1034.58 L196.922 1034.58 L196.922 1043.05 Q197.94 1042.7 198.959 1042.54 Q199.977 1042.36 200.996 1042.36 Q206.783 1042.36 210.162 1045.53 Q213.542 1048.7 213.542 1054.12 Q213.542 1059.7 210.07 1062.8 Q206.598 1065.88 200.278 1065.88 Q198.102 1065.88 195.834 1065.51 Q193.588 1065.14 191.181 1064.39 L191.181 1059.7 Q193.264 1060.83 195.487 1061.39 Q197.709 1061.94 200.186 1061.94 Q204.19 1061.94 206.528 1059.83 Q208.866 1057.73 208.866 1054.12 Q208.866 1050.51 206.528 1048.4 Q204.19 1046.29 200.186 1046.29 Q198.311 1046.29 196.436 1046.71 Q194.584 1047.13 192.639 1048.01 L192.639 1030.64 Z" fill="#000000" fill-rule="evenodd" fill-opacity="1" /><path clip-path="url(#clip590)" d="M126.205 721.011 Q122.593 721.011 120.765 724.575 Q118.959 728.117 118.959 735.247 Q118.959 742.353 120.765 745.918 Q122.593 749.46 126.205 749.46 Q129.839 749.46 131.644 745.918 Q133.473 742.353 133.473 735.247 Q133.473 728.117 131.644 724.575 Q129.839 721.011 126.205 721.011 M126.205 717.307 Q132.015 717.307 135.07 721.913 Q138.149 726.497 138.149 735.247 Q138.149 743.973 135.07 748.58 Q132.015 753.163 126.205 753.163 Q120.394 753.163 117.316 748.58 Q114.26 743.973 114.26 735.247 Q114.26 726.497 117.316 721.913 Q120.394 717.307 126.205 717.307 Z" fill="#000000" fill-rule="evenodd" fill-opacity="1" /><path clip-path="url(#clip590)" d="M146.366 746.612 L151.251 746.612 L151.251 752.492 L146.366 752.492 L146.366 746.612 Z" fill="#000000" fill-rule="evenodd" fill-opacity="1" /><path clip-path="url(#clip590)" d="M161.482 717.932 L179.839 717.932 L179.839 721.867 L165.765 721.867 L165.765 730.339 Q166.783 729.992 167.802 729.83 Q168.82 729.645 169.839 729.645 Q175.626 729.645 179.005 732.816 Q182.385 735.987 182.385 741.404 Q182.385 746.983 178.913 750.085 Q175.44 753.163 169.121 753.163 Q166.945 753.163 164.677 752.793 Q162.431 752.423 160.024 751.682 L160.024 746.983 Q162.107 748.117 164.329 748.673 Q166.552 749.228 169.028 749.228 Q173.033 749.228 175.371 747.122 Q177.709 745.015 177.709 741.404 Q177.709 737.793 175.371 735.687 Q173.033 733.58 169.028 733.58 Q167.153 733.58 165.278 733.997 Q163.427 734.413 161.482 735.293 L161.482 717.932 Z" fill="#000000" fill-rule="evenodd" fill-opacity="1" /><path clip-path="url(#clip590)" d="M201.598 721.011 Q197.987 721.011 196.158 724.575 Q194.352 728.117 194.352 735.247 Q194.352 742.353 196.158 745.918 Q197.987 749.46 201.598 749.46 Q205.232 749.46 207.037 745.918 Q208.866 742.353 208.866 735.247 Q208.866 728.117 207.037 724.575 Q205.232 721.011 201.598 721.011 M201.598 717.307 Q207.408 717.307 210.463 721.913 Q213.542 726.497 213.542 735.247 Q213.542 743.973 210.463 748.58 Q207.408 753.163 201.598 753.163 Q195.787 753.163 192.709 748.58 Q189.653 743.973 189.653 735.247 Q189.653 726.497 192.709 721.913 Q195.787 717.307 201.598 717.307 Z" fill="#000000" fill-rule="evenodd" fill-opacity="1" /><path clip-path="url(#clip590)" d="M127.2 408.298 Q123.589 408.298 121.76 411.863 Q119.955 415.404 119.955 422.534 Q119.955 429.64 121.76 433.205 Q123.589 436.747 127.2 436.747 Q130.834 436.747 132.64 433.205 Q134.468 429.64 134.468 422.534 Q134.468 415.404 132.64 411.863 Q130.834 408.298 127.2 408.298 M127.2 404.594 Q133.01 404.594 136.066 409.201 Q139.144 413.784 139.144 422.534 Q139.144 431.261 136.066 435.867 Q133.01 440.451 127.2 440.451 Q121.39 440.451 118.311 435.867 Q115.256 431.261 115.256 422.534 Q115.256 413.784 118.311 409.201 Q121.39 404.594 127.2 404.594 Z" fill="#000000" fill-rule="evenodd" fill-opacity="1" /><path clip-path="url(#clip590)" d="M147.362 433.9 L152.246 433.9 L152.246 439.779 L147.362 439.779 L147.362 433.9 Z" fill="#000000" fill-rule="evenodd" fill-opacity="1" /><path clip-path="url(#clip590)" d="M161.251 405.219 L183.473 405.219 L183.473 407.21 L170.927 439.779 L166.042 439.779 L177.848 409.154 L161.251 409.154 L161.251 405.219 Z" fill="#000000" fill-rule="evenodd" fill-opacity="1" /><path clip-path="url(#clip590)" d="M192.639 405.219 L210.996 405.219 L210.996 409.154 L196.922 409.154 L196.922 417.627 Q197.94 417.279 198.959 417.117 Q199.977 416.932 200.996 416.932 Q206.783 416.932 210.162 420.103 Q213.542 423.275 213.542 428.691 Q213.542 434.27 210.07 437.372 Q206.598 440.451 200.278 440.451 Q198.102 440.451 195.834 440.08 Q193.588 439.71 191.181 438.969 L191.181 434.27 Q193.264 435.404 195.487 435.96 Q197.709 436.515 200.186 436.515 Q204.19 436.515 206.528 434.409 Q208.866 432.302 208.866 428.691 Q208.866 425.08 206.528 422.974 Q204.19 420.867 200.186 420.867 Q198.311 420.867 196.436 421.284 Q194.584 421.701 192.639 422.58 L192.639 405.219 Z" fill="#000000" fill-rule="evenodd" fill-opacity="1" /><path clip-path="url(#clip590)" d="M117.015 123.131 L124.654 123.131 L124.654 96.7659 L116.343 98.4325 L116.343 94.1733 L124.607 92.5066 L129.283 92.5066 L129.283 123.131 L136.922 123.131 L136.922 127.067 L117.015 127.067 L117.015 123.131 Z" fill="#000000" fill-rule="evenodd" fill-opacity="1" /><path clip-path="url(#clip590)" d="M146.366 121.187 L151.251 121.187 L151.251 127.067 L146.366 127.067 L146.366 121.187 Z" fill="#000000" fill-rule="evenodd" fill-opacity="1" /><path clip-path="url(#clip590)" d="M171.436 95.5853 Q167.825 95.5853 165.996 99.1501 Q164.19 102.692 164.19 109.821 Q164.19 116.928 165.996 120.493 Q167.825 124.034 171.436 124.034 Q175.07 124.034 176.876 120.493 Q178.704 116.928 178.704 109.821 Q178.704 102.692 176.876 99.1501 Q175.07 95.5853 171.436 95.5853 M171.436 91.8816 Q177.246 91.8816 180.301 96.4881 Q183.38 101.071 183.38 109.821 Q183.38 118.548 180.301 123.155 Q177.246 127.738 171.436 127.738 Q165.626 127.738 162.547 123.155 Q159.491 118.548 159.491 109.821 Q159.491 101.071 162.547 96.4881 Q165.626 91.8816 171.436 91.8816 Z" fill="#000000" fill-rule="evenodd" fill-opacity="1" /><path clip-path="url(#clip590)" d="M201.598 95.5853 Q197.987 95.5853 196.158 99.1501 Q194.352 102.692 194.352 109.821 Q194.352 116.928 196.158 120.493 Q197.987 124.034 201.598 124.034 Q205.232 124.034 207.037 120.493 Q208.866 116.928 208.866 109.821 Q208.866 102.692 207.037 99.1501 Q205.232 95.5853 201.598 95.5853 M201.598 91.8816 Q207.408 91.8816 210.463 96.4881 Q213.542 101.071 213.542 109.821 Q213.542 118.548 210.463 123.155 Q207.408 127.738 201.598 127.738 Q195.787 127.738 192.709 123.155 Q189.653 118.548 189.653 109.821 Q189.653 101.071 192.709 96.4881 Q195.787 91.8816 201.598 91.8816 Z" fill="#000000" fill-rule="evenodd" fill-opacity="1" /><path clip-path="url(#clip590)" d="M18.0438 721.351 L24.314 721.351 Q22.5634 725.011 21.704 728.257 Q20.8447 731.504 20.8447 734.528 Q20.8447 739.779 22.8817 742.644 Q24.9187 745.477 28.6745 745.477 Q31.8255 745.477 33.4488 743.599 Q35.0402 741.689 36.0269 736.406 L36.8226 732.522 Q38.1912 725.329 41.6605 721.924 Q45.098 718.486 50.8908 718.486 Q57.7976 718.486 61.3624 723.133 Q64.9272 727.748 64.9272 736.692 Q64.9272 740.066 64.1633 743.885 Q63.3994 747.673 61.9035 751.747 L55.2831 751.747 Q57.4793 747.832 58.5933 744.076 Q59.7073 740.32 59.7073 736.692 Q59.7073 731.186 57.543 728.194 Q55.3786 725.202 51.3682 725.202 Q47.8671 725.202 45.8937 727.366 Q43.9204 729.499 42.9337 734.4 L42.1698 738.315 Q40.7375 745.508 37.682 748.723 Q34.6264 751.938 29.1837 751.938 Q22.8817 751.938 19.2532 747.514 Q15.6248 743.058 15.6248 735.26 Q15.6248 731.918 16.2295 728.448 Q16.8343 724.979 18.0438 721.351 Z" fill="#000000" fill-rule="evenodd" fill-opacity="1" /><polyline clip-path="url(#clip592)" style="stroke:#000000; stroke-linecap:round; stroke-linejoin:round; stroke-width:4; stroke-opacity:1; fill:none" points="
  309.067,1333.44 557.087,1331.21 805.108,1328.85 1053.13,1326.62 1301.15,1324.54 1549.17,1322.56 1797.19,1320.76 2045.21,1319.03 2293.23,1317.39 
  "/>
<circle clip-path="url(#clip592)" cx="309.067" cy="1333.44" r="14.4" fill="#000000" fill-rule="evenodd" fill-opacity="1" stroke="none"/>
<circle clip-path="url(#clip592)" cx="557.087" cy="1331.21" r="14.4" fill="#000000" fill-rule="evenodd" fill-opacity="1" stroke="none"/>
<circle clip-path="url(#clip592)" cx="805.108" cy="1328.85" r="14.4" fill="#000000" fill-rule="evenodd" fill-opacity="1" stroke="none"/>
<circle clip-path="url(#clip592)" cx="1053.13" cy="1326.62" r="14.4" fill="#000000" fill-rule="evenodd" fill-opacity="1" stroke="none"/>
<circle clip-path="url(#clip592)" cx="1301.15" cy="1324.54" r="14.4" fill="#000000" fill-rule="evenodd" fill-opacity="1" stroke="none"/>
<circle clip-path="url(#clip592)" cx="1549.17" cy="1322.56" r="14.4" fill="#000000" fill-rule="evenodd" fill-opacity="1" stroke="none"/>
<circle clip-path="url(#clip592)" cx="1797.19" cy="1320.76" r="14.4" fill="#000000" fill-rule="evenodd" fill-opacity="1" stroke="none"/>
<circle clip-path="url(#clip592)" cx="2045.21" cy="1319.03" r="14.4" fill="#000000" fill-rule="evenodd" fill-opacity="1" stroke="none"/>
<circle clip-path="url(#clip592)" cx="2293.23" cy="1317.39" r="14.4" fill="#000000" fill-rule="evenodd" fill-opacity="1" stroke="none"/>
<polyline clip-path="url(#clip592)" style="stroke:#ff0000; stroke-linecap:round; stroke-linejoin:round; stroke-width:4; stroke-opacity:1; fill:none" points="
  309.067,1333.09 557.087,1331.16 805.108,1328.7 1053.13,1326.47 1301.15,1324.38 1549.17,1322.47 1797.19,1320.66 2045.21,1318.93 2293.23,1317.31 
  "/>
<circle clip-path="url(#clip592)" cx="309.067" cy="1333.09" r="14.4" fill="#ff0000" fill-rule="evenodd" fill-opacity="1" stroke="#000000" stroke-opacity="1" stroke-width="6.4"/>
<circle clip-path="url(#clip592)" cx="557.087" cy="1331.16" r="14.4" fill="#ff0000" fill-rule="evenodd" fill-opacity="1" stroke="#000000" stroke-opacity="1" stroke-width="6.4"/>
<circle clip-path="url(#clip592)" cx="805.108" cy="1328.7" r="14.4" fill="#ff0000" fill-rule="evenodd" fill-opacity="1" stroke="#000000" stroke-opacity="1" stroke-width="6.4"/>
<circle clip-path="url(#clip592)" cx="1053.13" cy="1326.47" r="14.4" fill="#ff0000" fill-rule="evenodd" fill-opacity="1" stroke="#000000" stroke-opacity="1" stroke-width="6.4"/>
<circle clip-path="url(#clip592)" cx="1301.15" cy="1324.38" r="14.4" fill="#ff0000" fill-rule="evenodd" fill-opacity="1" stroke="#000000" stroke-opacity="1" stroke-width="6.4"/>
<circle clip-path="url(#clip592)" cx="1549.17" cy="1322.47" r="14.4" fill="#ff0000" fill-rule="evenodd" fill-opacity="1" stroke="#000000" stroke-opacity="1" stroke-width="6.4"/>
<circle clip-path="url(#clip592)" cx="1797.19" cy="1320.66" r="14.4" fill="#ff0000" fill-rule="evenodd" fill-opacity="1" stroke="#000000" stroke-opacity="1" stroke-width="6.4"/>
<circle clip-path="url(#clip592)" cx="2045.21" cy="1318.93" r="14.4" fill="#ff0000" fill-rule="evenodd" fill-opacity="1" stroke="#000000" stroke-opacity="1" stroke-width="6.4"/>
<circle clip-path="url(#clip592)" cx="2293.23" cy="1317.31" r="14.4" fill="#ff0000" fill-rule="evenodd" fill-opacity="1" stroke="#000000" stroke-opacity="1" stroke-width="6.4"/>
<polyline clip-path="url(#clip592)" style="stroke:#3da44d; stroke-linecap:round; stroke-linejoin:round; stroke-width:4; stroke-opacity:1; fill:none" points="
  309.067,431.701 557.087,484.377 805.108,511.055 1053.13,532.363 1301.15,545.831 1549.17,554.921 1797.19,560.189 2045.21,564.789 2293.23,567.694 
  "/>
<circle clip-path="url(#clip592)" cx="309.067" cy="431.701" r="14.4" fill="#3da44d" fill-rule="evenodd" fill-opacity="1" stroke="#000000" stroke-opacity="1" stroke-width="6.4"/>
<circle clip-path="url(#clip592)" cx="557.087" cy="484.377" r="14.4" fill="#3da44d" fill-rule="evenodd" fill-opacity="1" stroke="#000000" stroke-opacity="1" stroke-width="6.4"/>
<circle clip-path="url(#clip592)" cx="805.108" cy="511.055" r="14.4" fill="#3da44d" fill-rule="evenodd" fill-opacity="1" stroke="#000000" stroke-opacity="1" stroke-width="6.4"/>
<circle clip-path="url(#clip592)" cx="1053.13" cy="532.363" r="14.4" fill="#3da44d" fill-rule="evenodd" fill-opacity="1" stroke="#000000" stroke-opacity="1" stroke-width="6.4"/>
<circle clip-path="url(#clip592)" cx="1301.15" cy="545.831" r="14.4" fill="#3da44d" fill-rule="evenodd" fill-opacity="1" stroke="#000000" stroke-opacity="1" stroke-width="6.4"/>
<circle clip-path="url(#clip592)" cx="1549.17" cy="554.921" r="14.4" fill="#3da44d" fill-rule="evenodd" fill-opacity="1" stroke="#000000" stroke-opacity="1" stroke-width="6.4"/>
<circle clip-path="url(#clip592)" cx="1797.19" cy="560.189" r="14.4" fill="#3da44d" fill-rule="evenodd" fill-opacity="1" stroke="#000000" stroke-opacity="1" stroke-width="6.4"/>
<circle clip-path="url(#clip592)" cx="2045.21" cy="564.789" r="14.4" fill="#3da44d" fill-rule="evenodd" fill-opacity="1" stroke="#000000" stroke-opacity="1" stroke-width="6.4"/>
<circle clip-path="url(#clip592)" cx="2293.23" cy="567.694" r="14.4" fill="#3da44d" fill-rule="evenodd" fill-opacity="1" stroke="#000000" stroke-opacity="1" stroke-width="6.4"/>
<polyline clip-path="url(#clip592)" style="stroke:#c271d2; stroke-linecap:round; stroke-linejoin:round; stroke-width:4; stroke-opacity:1; fill:none" points="
  309.067,502.61 557.087,583.184 805.108,630.702 1053.13,663.064 1301.15,682.683 1549.17,693.223 1797.19,697.015 2045.21,697.448 2293.23,698.763 
  "/>
<circle clip-path="url(#clip592)" cx="309.067" cy="502.61" r="14.4" fill="#c271d2" fill-rule="evenodd" fill-opacity="1" stroke="#000000" stroke-opacity="1" stroke-width="6.4"/>
<circle clip-path="url(#clip592)" cx="557.087" cy="583.184" r="14.4" fill="#c271d2" fill-rule="evenodd" fill-opacity="1" stroke="#000000" stroke-opacity="1" stroke-width="6.4"/>
<circle clip-path="url(#clip592)" cx="805.108" cy="630.702" r="14.4" fill="#c271d2" fill-rule="evenodd" fill-opacity="1" stroke="#000000" stroke-opacity="1" stroke-width="6.4"/>
<circle clip-path="url(#clip592)" cx="1053.13" cy="663.064" r="14.4" fill="#c271d2" fill-rule="evenodd" fill-opacity="1" stroke="#000000" stroke-opacity="1" stroke-width="6.4"/>
<circle clip-path="url(#clip592)" cx="1301.15" cy="682.683" r="14.4" fill="#c271d2" fill-rule="evenodd" fill-opacity="1" stroke="#000000" stroke-opacity="1" stroke-width="6.4"/>
<circle clip-path="url(#clip592)" cx="1549.17" cy="693.223" r="14.4" fill="#c271d2" fill-rule="evenodd" fill-opacity="1" stroke="#000000" stroke-opacity="1" stroke-width="6.4"/>
<circle clip-path="url(#clip592)" cx="1797.19" cy="697.015" r="14.4" fill="#c271d2" fill-rule="evenodd" fill-opacity="1" stroke="#000000" stroke-opacity="1" stroke-width="6.4"/>
<circle clip-path="url(#clip592)" cx="2045.21" cy="697.448" r="14.4" fill="#c271d2" fill-rule="evenodd" fill-opacity="1" stroke="#000000" stroke-opacity="1" stroke-width="6.4"/>
<circle clip-path="url(#clip592)" cx="2293.23" cy="698.763" r="14.4" fill="#c271d2" fill-rule="evenodd" fill-opacity="1" stroke="#000000" stroke-opacity="1" stroke-width="6.4"/>
<path clip-path="url(#clip590)" d="
M1252.45 352.309 L2282.65 352.309 L2282.65 93.1086 L1252.45 93.1086  Z
  " fill="#ffffff" fill-rule="evenodd" fill-opacity="1"/>
<polyline clip-path="url(#clip590)" style="stroke:#000000; stroke-linecap:round; stroke-linejoin:round; stroke-width:4; stroke-opacity:1; fill:none" points="
  1252.45,352.309 2282.65,352.309 2282.65,93.1086 1252.45,93.1086 1252.45,352.309 
  "/>
<polyline clip-path="url(#clip590)" style="stroke:#000000; stroke-linecap:round; stroke-linejoin:round; stroke-width:4; stroke-opacity:1; fill:none" points="
  1275.82,144.949 1416.03,144.949 
  "/>
<circle clip-path="url(#clip590)" cx="1345.92" cy="144.949" r="19.4742" fill="#000000" fill-rule="evenodd" fill-opacity="1" stroke="none"/>
<path clip-path="url(#clip590)" d="M1454.58 140.284 Q1453.87 139.868 1453.01 139.682 Q1452.18 139.474 1451.16 139.474 Q1447.55 139.474 1445.6 141.835 Q1443.68 144.173 1443.68 148.571 L1443.68 162.229 L1439.4 162.229 L1439.4 136.303 L1443.68 136.303 L1443.68 140.331 Q1445.02 137.969 1447.18 136.835 Q1449.33 135.678 1452.41 135.678 Q1452.85 135.678 1453.38 135.747 Q1453.91 135.794 1454.56 135.909 L1454.58 140.284 Z" fill="#000000" fill-rule="evenodd" fill-opacity="1" /><path clip-path="url(#clip590)" d="M1470.83 149.196 Q1465.67 149.196 1463.68 150.377 Q1461.69 151.557 1461.69 154.405 Q1461.69 156.673 1463.17 158.016 Q1464.68 159.335 1467.25 159.335 Q1470.79 159.335 1472.92 156.835 Q1475.07 154.312 1475.07 150.145 L1475.07 149.196 L1470.83 149.196 M1479.33 147.437 L1479.33 162.229 L1475.07 162.229 L1475.07 158.293 Q1473.61 160.655 1471.44 161.789 Q1469.26 162.9 1466.11 162.9 Q1462.13 162.9 1459.77 160.678 Q1457.43 158.432 1457.43 154.682 Q1457.43 150.307 1460.35 148.085 Q1463.29 145.863 1469.1 145.863 L1475.07 145.863 L1475.07 145.446 Q1475.07 142.507 1473.13 140.909 Q1471.21 139.289 1467.71 139.289 Q1465.49 139.289 1463.38 139.821 Q1461.27 140.354 1459.33 141.419 L1459.33 137.483 Q1461.67 136.581 1463.87 136.141 Q1466.07 135.678 1468.15 135.678 Q1473.77 135.678 1476.55 138.594 Q1479.33 141.511 1479.33 147.437 Z" fill="#000000" fill-rule="evenodd" fill-opacity="1" /><path clip-path="url(#clip590)" d="M1509.65 146.581 L1509.65 162.229 L1505.39 162.229 L1505.39 146.719 Q1505.39 143.039 1503.96 141.21 Q1502.52 139.382 1499.65 139.382 Q1496.21 139.382 1494.21 141.581 Q1492.22 143.78 1492.22 147.576 L1492.22 162.229 L1487.94 162.229 L1487.94 136.303 L1492.22 136.303 L1492.22 140.331 Q1493.75 137.993 1495.81 136.835 Q1497.89 135.678 1500.6 135.678 Q1505.07 135.678 1507.36 138.456 Q1509.65 141.21 1509.65 146.581 Z" fill="#000000" fill-rule="evenodd" fill-opacity="1" /><path clip-path="url(#clip590)" d="M1535.21 140.238 L1535.21 126.21 L1539.47 126.21 L1539.47 162.229 L1535.21 162.229 L1535.21 158.34 Q1533.87 160.655 1531.81 161.789 Q1529.77 162.9 1526.9 162.9 Q1522.2 162.9 1519.24 159.15 Q1516.3 155.4 1516.3 149.289 Q1516.3 143.178 1519.24 139.428 Q1522.2 135.678 1526.9 135.678 Q1529.77 135.678 1531.81 136.812 Q1533.87 137.923 1535.21 140.238 M1520.7 149.289 Q1520.7 153.988 1522.62 156.673 Q1524.56 159.335 1527.94 159.335 Q1531.32 159.335 1533.27 156.673 Q1535.21 153.988 1535.21 149.289 Q1535.21 144.59 1533.27 141.928 Q1531.32 139.243 1527.94 139.243 Q1524.56 139.243 1522.62 141.928 Q1520.7 144.59 1520.7 149.289 Z" fill="#000000" fill-rule="evenodd" fill-opacity="1" /><path clip-path="url(#clip590)" d="M1558.29 139.289 Q1554.86 139.289 1552.87 141.974 Q1550.88 144.636 1550.88 149.289 Q1550.88 153.942 1552.85 156.627 Q1554.84 159.289 1558.29 159.289 Q1561.69 159.289 1563.68 156.604 Q1565.67 153.918 1565.67 149.289 Q1565.67 144.682 1563.68 141.997 Q1561.69 139.289 1558.29 139.289 M1558.29 135.678 Q1563.84 135.678 1567.01 139.289 Q1570.19 142.9 1570.19 149.289 Q1570.19 155.655 1567.01 159.289 Q1563.84 162.9 1558.29 162.9 Q1552.71 162.9 1549.54 159.289 Q1546.39 155.655 1546.39 149.289 Q1546.39 142.9 1549.54 139.289 Q1552.71 135.678 1558.29 135.678 Z" fill="#000000" fill-rule="evenodd" fill-opacity="1" /><path clip-path="url(#clip590)" d="M1597.43 141.28 Q1599.03 138.409 1601.25 137.044 Q1603.47 135.678 1606.48 135.678 Q1610.53 135.678 1612.73 138.525 Q1614.93 141.349 1614.93 146.581 L1614.93 162.229 L1610.65 162.229 L1610.65 146.719 Q1610.65 142.993 1609.33 141.187 Q1608.01 139.382 1605.3 139.382 Q1601.99 139.382 1600.07 141.581 Q1598.15 143.78 1598.15 147.576 L1598.15 162.229 L1593.87 162.229 L1593.87 146.719 Q1593.87 142.969 1592.55 141.187 Q1591.23 139.382 1588.47 139.382 Q1585.21 139.382 1583.29 141.604 Q1581.37 143.803 1581.37 147.576 L1581.37 162.229 L1577.08 162.229 L1577.08 136.303 L1581.37 136.303 L1581.37 140.331 Q1582.83 137.946 1584.86 136.812 Q1586.9 135.678 1589.7 135.678 Q1592.52 135.678 1594.49 137.113 Q1596.48 138.548 1597.43 141.28 Z" fill="#000000" fill-rule="evenodd" fill-opacity="1" /><path clip-path="url(#clip590)" d="M1638.06 151.997 L1638.06 136.303 L1642.32 136.303 L1642.32 151.835 Q1642.32 155.516 1643.75 157.368 Q1645.19 159.196 1648.06 159.196 Q1651.51 159.196 1653.5 156.997 Q1655.51 154.798 1655.51 151.002 L1655.51 136.303 L1659.77 136.303 L1659.77 162.229 L1655.51 162.229 L1655.51 158.247 Q1653.96 160.608 1651.9 161.766 Q1649.86 162.9 1647.15 162.9 Q1642.69 162.9 1640.37 160.122 Q1638.06 157.344 1638.06 151.997 M1648.77 135.678 L1648.77 135.678 Z" fill="#000000" fill-rule="evenodd" fill-opacity="1" /><path clip-path="url(#clip590)" d="M1690.09 146.581 L1690.09 162.229 L1685.83 162.229 L1685.83 146.719 Q1685.83 143.039 1684.4 141.21 Q1682.96 139.382 1680.09 139.382 Q1676.64 139.382 1674.65 141.581 Q1672.66 143.78 1672.66 147.576 L1672.66 162.229 L1668.38 162.229 L1668.38 136.303 L1672.66 136.303 L1672.66 140.331 Q1674.19 137.993 1676.25 136.835 Q1678.33 135.678 1681.04 135.678 Q1685.51 135.678 1687.8 138.456 Q1690.09 141.21 1690.09 146.581 Z" fill="#000000" fill-rule="evenodd" fill-opacity="1" /><path clip-path="url(#clip590)" d="M1717.25 137.298 L1717.25 141.28 Q1715.44 140.284 1713.61 139.798 Q1711.81 139.289 1709.95 139.289 Q1705.81 139.289 1703.52 141.928 Q1701.23 144.544 1701.23 149.289 Q1701.23 154.034 1703.52 156.673 Q1705.81 159.289 1709.95 159.289 Q1711.81 159.289 1713.61 158.803 Q1715.44 158.293 1717.25 157.298 L1717.25 161.233 Q1715.46 162.067 1713.54 162.483 Q1711.64 162.9 1709.49 162.9 Q1703.63 162.9 1700.19 159.219 Q1696.74 155.539 1696.74 149.289 Q1696.74 142.946 1700.21 139.312 Q1703.7 135.678 1709.77 135.678 Q1711.74 135.678 1713.61 136.095 Q1715.49 136.488 1717.25 137.298 Z" fill="#000000" fill-rule="evenodd" fill-opacity="1" /><path clip-path="url(#clip590)" d="M1734.7 139.289 Q1731.27 139.289 1729.28 141.974 Q1727.29 144.636 1727.29 149.289 Q1727.29 153.942 1729.26 156.627 Q1731.25 159.289 1734.7 159.289 Q1738.1 159.289 1740.09 156.604 Q1742.08 153.918 1742.08 149.289 Q1742.08 144.682 1740.09 141.997 Q1738.1 139.289 1734.7 139.289 M1734.7 135.678 Q1740.25 135.678 1743.43 139.289 Q1746.6 142.9 1746.6 149.289 Q1746.6 155.655 1743.43 159.289 Q1740.25 162.9 1734.7 162.9 Q1729.12 162.9 1725.95 159.289 Q1722.8 155.655 1722.8 149.289 Q1722.8 142.9 1725.95 139.289 Q1729.12 135.678 1734.7 135.678 Z" fill="#000000" fill-rule="evenodd" fill-opacity="1" /><path clip-path="url(#clip590)" d="M1753.22 151.997 L1753.22 136.303 L1757.48 136.303 L1757.48 151.835 Q1757.48 155.516 1758.91 157.368 Q1760.35 159.196 1763.22 159.196 Q1766.67 159.196 1768.66 156.997 Q1770.67 154.798 1770.67 151.002 L1770.67 136.303 L1774.93 136.303 L1774.93 162.229 L1770.67 162.229 L1770.67 158.247 Q1769.12 160.608 1767.06 161.766 Q1765.02 162.9 1762.31 162.9 Q1757.85 162.9 1755.53 160.122 Q1753.22 157.344 1753.22 151.997 M1763.94 135.678 L1763.94 135.678 Z" fill="#000000" fill-rule="evenodd" fill-opacity="1" /><path clip-path="url(#clip590)" d="M1787.82 158.34 L1787.82 172.09 L1783.54 172.09 L1783.54 136.303 L1787.82 136.303 L1787.82 140.238 Q1789.17 137.923 1791.2 136.812 Q1793.26 135.678 1796.11 135.678 Q1800.83 135.678 1803.77 139.428 Q1806.74 143.178 1806.74 149.289 Q1806.74 155.4 1803.77 159.15 Q1800.83 162.9 1796.11 162.9 Q1793.26 162.9 1791.2 161.789 Q1789.17 160.655 1787.82 158.34 M1802.31 149.289 Q1802.31 144.59 1800.37 141.928 Q1798.45 139.243 1795.07 139.243 Q1791.69 139.243 1789.75 141.928 Q1787.82 144.59 1787.82 149.289 Q1787.82 153.988 1789.75 156.673 Q1791.69 159.335 1795.07 159.335 Q1798.45 159.335 1800.37 156.673 Q1802.31 153.988 1802.31 149.289 Z" fill="#000000" fill-rule="evenodd" fill-opacity="1" /><path clip-path="url(#clip590)" d="M1813.8 126.21 L1818.06 126.21 L1818.06 162.229 L1813.8 162.229 L1813.8 126.21 Z" fill="#000000" fill-rule="evenodd" fill-opacity="1" /><path clip-path="url(#clip590)" d="M1849.14 148.201 L1849.14 150.284 L1829.56 150.284 Q1829.84 154.682 1832.2 156.997 Q1834.58 159.289 1838.82 159.289 Q1841.27 159.289 1843.56 158.687 Q1845.88 158.085 1848.15 156.881 L1848.15 160.909 Q1845.86 161.881 1843.45 162.391 Q1841.04 162.9 1838.56 162.9 Q1832.36 162.9 1828.73 159.289 Q1825.12 155.678 1825.12 149.52 Q1825.12 143.155 1828.54 139.428 Q1831.99 135.678 1837.82 135.678 Q1843.06 135.678 1846.09 139.057 Q1849.14 142.414 1849.14 148.201 M1844.88 146.951 Q1844.84 143.456 1842.92 141.372 Q1841.02 139.289 1837.87 139.289 Q1834.31 139.289 1832.15 141.303 Q1830.02 143.317 1829.7 146.974 L1844.88 146.951 Z" fill="#000000" fill-rule="evenodd" fill-opacity="1" /><path clip-path="url(#clip590)" d="M1873.19 140.238 L1873.19 126.21 L1877.45 126.21 L1877.45 162.229 L1873.19 162.229 L1873.19 158.34 Q1871.85 160.655 1869.79 161.789 Q1867.75 162.9 1864.88 162.9 Q1860.18 162.9 1857.22 159.15 Q1854.28 155.4 1854.28 149.289 Q1854.28 143.178 1857.22 139.428 Q1860.18 135.678 1864.88 135.678 Q1867.75 135.678 1869.79 136.812 Q1871.85 137.923 1873.19 140.238 M1858.68 149.289 Q1858.68 153.988 1860.6 156.673 Q1862.55 159.335 1865.93 159.335 Q1869.3 159.335 1871.25 156.673 Q1873.19 153.988 1873.19 149.289 Q1873.19 144.59 1871.25 141.928 Q1869.3 139.243 1865.93 139.243 Q1862.55 139.243 1860.6 141.928 Q1858.68 144.59 1858.68 149.289 Z" fill="#000000" fill-rule="evenodd" fill-opacity="1" /><path clip-path="url(#clip590)" d="M1917.82 137.067 L1917.82 141.094 Q1916.02 140.169 1914.07 139.706 Q1912.13 139.243 1910.05 139.243 Q1906.87 139.243 1905.28 140.215 Q1903.7 141.187 1903.7 143.131 Q1903.7 144.613 1904.84 145.469 Q1905.97 146.303 1909.4 147.067 L1910.86 147.391 Q1915.39 148.363 1917.29 150.145 Q1919.21 151.905 1919.21 155.076 Q1919.21 158.687 1916.34 160.793 Q1913.49 162.9 1908.49 162.9 Q1906.41 162.9 1904.14 162.483 Q1901.9 162.09 1899.4 161.28 L1899.4 156.881 Q1901.76 158.108 1904.05 158.733 Q1906.34 159.335 1908.59 159.335 Q1911.6 159.335 1913.22 158.317 Q1914.84 157.275 1914.84 155.4 Q1914.84 153.664 1913.66 152.738 Q1912.5 151.812 1908.54 150.956 L1907.06 150.608 Q1903.1 149.775 1901.34 148.062 Q1899.58 146.326 1899.58 143.317 Q1899.58 139.659 1902.18 137.669 Q1904.77 135.678 1909.54 135.678 Q1911.9 135.678 1913.98 136.025 Q1916.06 136.372 1917.82 137.067 Z" fill="#000000" fill-rule="evenodd" fill-opacity="1" /><path clip-path="url(#clip590)" d="M1936.78 164.636 Q1934.98 169.266 1933.26 170.678 Q1931.55 172.09 1928.68 172.09 L1925.28 172.09 L1925.28 168.525 L1927.78 168.525 Q1929.54 168.525 1930.51 167.692 Q1931.48 166.858 1932.66 163.756 L1933.42 161.812 L1922.94 136.303 L1927.45 136.303 L1935.55 156.581 L1943.66 136.303 L1948.17 136.303 L1936.78 164.636 Z" fill="#000000" fill-rule="evenodd" fill-opacity="1" /><path clip-path="url(#clip590)" d="M1970.58 137.067 L1970.58 141.094 Q1968.77 140.169 1966.83 139.706 Q1964.88 139.243 1962.8 139.243 Q1959.63 139.243 1958.03 140.215 Q1956.46 141.187 1956.46 143.131 Q1956.46 144.613 1957.59 145.469 Q1958.73 146.303 1962.15 147.067 L1963.61 147.391 Q1968.15 148.363 1970.05 150.145 Q1971.97 151.905 1971.97 155.076 Q1971.97 158.687 1969.1 160.793 Q1966.25 162.9 1961.25 162.9 Q1959.17 162.9 1956.9 162.483 Q1954.65 162.09 1952.15 161.28 L1952.15 156.881 Q1954.51 158.108 1956.8 158.733 Q1959.1 159.335 1961.34 159.335 Q1964.35 159.335 1965.97 158.317 Q1967.59 157.275 1967.59 155.4 Q1967.59 153.664 1966.41 152.738 Q1965.25 151.812 1961.3 150.956 L1959.81 150.608 Q1955.86 149.775 1954.1 148.062 Q1952.34 146.326 1952.34 143.317 Q1952.34 139.659 1954.93 137.669 Q1957.52 135.678 1962.29 135.678 Q1964.65 135.678 1966.74 136.025 Q1968.82 136.372 1970.58 137.067 Z" fill="#000000" fill-rule="evenodd" fill-opacity="1" /><path clip-path="url(#clip590)" d="M1982.96 128.942 L1982.96 136.303 L1991.73 136.303 L1991.73 139.613 L1982.96 139.613 L1982.96 153.687 Q1982.96 156.858 1983.82 157.761 Q1984.7 158.664 1987.36 158.664 L1991.73 158.664 L1991.73 162.229 L1987.36 162.229 Q1982.43 162.229 1980.55 160.4 Q1978.68 158.548 1978.68 153.687 L1978.68 139.613 L1975.55 139.613 L1975.55 136.303 L1978.68 136.303 L1978.68 128.942 L1982.96 128.942 Z" fill="#000000" fill-rule="evenodd" fill-opacity="1" /><path clip-path="url(#clip590)" d="M2019.51 148.201 L2019.51 150.284 L1999.93 150.284 Q2000.21 154.682 2002.57 156.997 Q2004.95 159.289 2009.19 159.289 Q2011.64 159.289 2013.93 158.687 Q2016.25 158.085 2018.52 156.881 L2018.52 160.909 Q2016.23 161.881 2013.82 162.391 Q2011.41 162.9 2008.93 162.9 Q2002.73 162.9 1999.1 159.289 Q1995.48 155.678 1995.48 149.52 Q1995.48 143.155 1998.91 139.428 Q2002.36 135.678 2008.19 135.678 Q2013.42 135.678 2016.46 139.057 Q2019.51 142.414 2019.51 148.201 M2015.25 146.951 Q2015.21 143.456 2013.29 141.372 Q2011.39 139.289 2008.24 139.289 Q2004.67 139.289 2002.52 141.303 Q2000.39 143.317 2000.07 146.974 L2015.25 146.951 Z" fill="#000000" fill-rule="evenodd" fill-opacity="1" /><path clip-path="url(#clip590)" d="M2046.69 141.28 Q2048.29 138.409 2050.51 137.044 Q2052.73 135.678 2055.74 135.678 Q2059.79 135.678 2061.99 138.525 Q2064.19 141.349 2064.19 146.581 L2064.19 162.229 L2059.91 162.229 L2059.91 146.719 Q2059.91 142.993 2058.59 141.187 Q2057.27 139.382 2054.56 139.382 Q2051.25 139.382 2049.33 141.581 Q2047.41 143.78 2047.41 147.576 L2047.41 162.229 L2043.12 162.229 L2043.12 146.719 Q2043.12 142.969 2041.8 141.187 Q2040.48 139.382 2037.73 139.382 Q2034.47 139.382 2032.54 141.604 Q2030.62 143.803 2030.62 147.576 L2030.62 162.229 L2026.34 162.229 L2026.34 136.303 L2030.62 136.303 L2030.62 140.331 Q2032.08 137.946 2034.12 136.812 Q2036.16 135.678 2038.96 135.678 Q2041.78 135.678 2043.75 137.113 Q2045.74 138.548 2046.69 141.28 Z" fill="#000000" fill-rule="evenodd" fill-opacity="1" /><path clip-path="url(#clip590)" d="M2097.98 126.257 Q2094.88 131.581 2093.38 136.789 Q2091.87 141.997 2091.87 147.344 Q2091.87 152.692 2093.38 157.946 Q2094.91 163.178 2097.98 168.479 L2094.28 168.479 Q2090.81 163.039 2089.07 157.784 Q2087.36 152.53 2087.36 147.344 Q2087.36 142.182 2089.07 136.951 Q2090.79 131.72 2094.28 126.257 L2097.98 126.257 Z" fill="#000000" fill-rule="evenodd" fill-opacity="1" /><path clip-path="url(#clip590)" d="M2127.8 136.303 L2118.42 148.919 L2128.29 162.229 L2123.26 162.229 L2115.72 152.043 L2108.17 162.229 L2103.15 162.229 L2113.22 148.664 L2104 136.303 L2109.03 136.303 L2115.9 145.539 L2122.78 136.303 L2127.8 136.303 Z" fill="#000000" fill-rule="evenodd" fill-opacity="1" /><path clip-path="url(#clip590)" d="M2147.22 147.344 L2159.7 147.344 L2159.7 151.141 L2147.22 151.141 L2147.22 147.344 Z" fill="#000000" fill-rule="evenodd" fill-opacity="1" /><path clip-path="url(#clip590)" d="M2167.03 138.895 L2167.03 134.682 L2196.71 145.446 L2196.71 149.289 L2167.03 160.053 L2167.03 155.84 L2190.88 147.391 L2167.03 138.895 Z" fill="#000000" fill-rule="evenodd" fill-opacity="1" /><path clip-path="url(#clip590)" d="M2232.06 164.636 Q2230.25 169.266 2228.54 170.678 Q2226.83 172.09 2223.96 172.09 L2220.55 172.09 L2220.55 168.525 L2223.05 168.525 Q2224.81 168.525 2225.78 167.692 Q2226.76 166.858 2227.94 163.756 L2228.7 161.812 L2218.22 136.303 L2222.73 136.303 L2230.83 156.581 L2238.93 136.303 L2243.45 136.303 L2232.06 164.636 Z" fill="#000000" fill-rule="evenodd" fill-opacity="1" /><path clip-path="url(#clip590)" d="M2248.65 126.257 L2252.36 126.257 Q2255.83 131.72 2257.54 136.951 Q2259.28 142.182 2259.28 147.344 Q2259.28 152.53 2257.54 157.784 Q2255.83 163.039 2252.36 168.479 L2248.65 168.479 Q2251.73 163.178 2253.24 157.946 Q2254.77 152.692 2254.77 147.344 Q2254.77 141.997 2253.24 136.789 Q2251.73 131.581 2248.65 126.257 Z" fill="#000000" fill-rule="evenodd" fill-opacity="1" /><polyline clip-path="url(#clip590)" style="stroke:#ff0000; stroke-linecap:round; stroke-linejoin:round; stroke-width:4; stroke-opacity:1; fill:none" points="
  1275.82,196.789 1416.03,196.789 
  "/>
<circle clip-path="url(#clip590)" cx="1345.92" cy="196.789" r="19.4742" fill="#ff0000" fill-rule="evenodd" fill-opacity="1" stroke="#000000" stroke-opacity="1" stroke-width="10.24"/>
<path clip-path="url(#clip590)" d="M1454.58 192.124 Q1453.87 191.708 1453.01 191.522 Q1452.18 191.314 1451.16 191.314 Q1447.55 191.314 1445.6 193.675 Q1443.68 196.013 1443.68 200.411 L1443.68 214.069 L1439.4 214.069 L1439.4 188.143 L1443.68 188.143 L1443.68 192.171 Q1445.02 189.809 1447.18 188.675 Q1449.33 187.518 1452.41 187.518 Q1452.85 187.518 1453.38 187.587 Q1453.91 187.634 1454.56 187.749 L1454.58 192.124 Z" fill="#000000" fill-rule="evenodd" fill-opacity="1" /><path clip-path="url(#clip590)" d="M1470.83 201.036 Q1465.67 201.036 1463.68 202.217 Q1461.69 203.397 1461.69 206.245 Q1461.69 208.513 1463.17 209.856 Q1464.68 211.175 1467.25 211.175 Q1470.79 211.175 1472.92 208.675 Q1475.07 206.152 1475.07 201.985 L1475.07 201.036 L1470.83 201.036 M1479.33 199.277 L1479.33 214.069 L1475.07 214.069 L1475.07 210.133 Q1473.61 212.495 1471.44 213.629 Q1469.26 214.74 1466.11 214.74 Q1462.13 214.74 1459.77 212.518 Q1457.43 210.272 1457.43 206.522 Q1457.43 202.147 1460.35 199.925 Q1463.29 197.703 1469.1 197.703 L1475.07 197.703 L1475.07 197.286 Q1475.07 194.347 1473.13 192.749 Q1471.21 191.129 1467.71 191.129 Q1465.49 191.129 1463.38 191.661 Q1461.27 192.194 1459.33 193.259 L1459.33 189.323 Q1461.67 188.421 1463.87 187.981 Q1466.07 187.518 1468.15 187.518 Q1473.77 187.518 1476.55 190.434 Q1479.33 193.351 1479.33 199.277 Z" fill="#000000" fill-rule="evenodd" fill-opacity="1" /><path clip-path="url(#clip590)" d="M1509.65 198.421 L1509.65 214.069 L1505.39 214.069 L1505.39 198.559 Q1505.39 194.879 1503.96 193.05 Q1502.52 191.222 1499.65 191.222 Q1496.21 191.222 1494.21 193.421 Q1492.22 195.62 1492.22 199.416 L1492.22 214.069 L1487.94 214.069 L1487.94 188.143 L1492.22 188.143 L1492.22 192.171 Q1493.75 189.833 1495.81 188.675 Q1497.89 187.518 1500.6 187.518 Q1505.07 187.518 1507.36 190.296 Q1509.65 193.05 1509.65 198.421 Z" fill="#000000" fill-rule="evenodd" fill-opacity="1" /><path clip-path="url(#clip590)" d="M1535.21 192.078 L1535.21 178.05 L1539.47 178.05 L1539.47 214.069 L1535.21 214.069 L1535.21 210.18 Q1533.87 212.495 1531.81 213.629 Q1529.77 214.74 1526.9 214.74 Q1522.2 214.74 1519.24 210.99 Q1516.3 207.24 1516.3 201.129 Q1516.3 195.018 1519.24 191.268 Q1522.2 187.518 1526.9 187.518 Q1529.77 187.518 1531.81 188.652 Q1533.87 189.763 1535.21 192.078 M1520.7 201.129 Q1520.7 205.828 1522.62 208.513 Q1524.56 211.175 1527.94 211.175 Q1531.32 211.175 1533.27 208.513 Q1535.21 205.828 1535.21 201.129 Q1535.21 196.43 1533.27 193.768 Q1531.32 191.083 1527.94 191.083 Q1524.56 191.083 1522.62 193.768 Q1520.7 196.43 1520.7 201.129 Z" fill="#000000" fill-rule="evenodd" fill-opacity="1" /><path clip-path="url(#clip590)" d="M1558.29 191.129 Q1554.86 191.129 1552.87 193.814 Q1550.88 196.476 1550.88 201.129 Q1550.88 205.782 1552.85 208.467 Q1554.84 211.129 1558.29 211.129 Q1561.69 211.129 1563.68 208.444 Q1565.67 205.758 1565.67 201.129 Q1565.67 196.522 1563.68 193.837 Q1561.69 191.129 1558.29 191.129 M1558.29 187.518 Q1563.84 187.518 1567.01 191.129 Q1570.19 194.74 1570.19 201.129 Q1570.19 207.495 1567.01 211.129 Q1563.84 214.74 1558.29 214.74 Q1552.71 214.74 1549.54 211.129 Q1546.39 207.495 1546.39 201.129 Q1546.39 194.74 1549.54 191.129 Q1552.71 187.518 1558.29 187.518 Z" fill="#000000" fill-rule="evenodd" fill-opacity="1" /><path clip-path="url(#clip590)" d="M1597.43 193.12 Q1599.03 190.249 1601.25 188.884 Q1603.47 187.518 1606.48 187.518 Q1610.53 187.518 1612.73 190.365 Q1614.93 193.189 1614.93 198.421 L1614.93 214.069 L1610.65 214.069 L1610.65 198.559 Q1610.65 194.833 1609.33 193.027 Q1608.01 191.222 1605.3 191.222 Q1601.99 191.222 1600.07 193.421 Q1598.15 195.62 1598.15 199.416 L1598.15 214.069 L1593.87 214.069 L1593.87 198.559 Q1593.87 194.809 1592.55 193.027 Q1591.23 191.222 1588.47 191.222 Q1585.21 191.222 1583.29 193.444 Q1581.37 195.643 1581.37 199.416 L1581.37 214.069 L1577.08 214.069 L1577.08 188.143 L1581.37 188.143 L1581.37 192.171 Q1582.83 189.786 1584.86 188.652 Q1586.9 187.518 1589.7 187.518 Q1592.52 187.518 1594.49 188.953 Q1596.48 190.388 1597.43 193.12 Z" fill="#000000" fill-rule="evenodd" fill-opacity="1" /><path clip-path="url(#clip590)" d="M1638.06 203.837 L1638.06 188.143 L1642.32 188.143 L1642.32 203.675 Q1642.32 207.356 1643.75 209.208 Q1645.19 211.036 1648.06 211.036 Q1651.51 211.036 1653.5 208.837 Q1655.51 206.638 1655.51 202.842 L1655.51 188.143 L1659.77 188.143 L1659.77 214.069 L1655.51 214.069 L1655.51 210.087 Q1653.96 212.448 1651.9 213.606 Q1649.86 214.74 1647.15 214.74 Q1642.69 214.74 1640.37 211.962 Q1638.06 209.184 1638.06 203.837 M1648.77 187.518 L1648.77 187.518 Z" fill="#000000" fill-rule="evenodd" fill-opacity="1" /><path clip-path="url(#clip590)" d="M1690.09 198.421 L1690.09 214.069 L1685.83 214.069 L1685.83 198.559 Q1685.83 194.879 1684.4 193.05 Q1682.96 191.222 1680.09 191.222 Q1676.64 191.222 1674.65 193.421 Q1672.66 195.62 1672.66 199.416 L1672.66 214.069 L1668.38 214.069 L1668.38 188.143 L1672.66 188.143 L1672.66 192.171 Q1674.19 189.833 1676.25 188.675 Q1678.33 187.518 1681.04 187.518 Q1685.51 187.518 1687.8 190.296 Q1690.09 193.05 1690.09 198.421 Z" fill="#000000" fill-rule="evenodd" fill-opacity="1" /><path clip-path="url(#clip590)" d="M1717.25 189.138 L1717.25 193.12 Q1715.44 192.124 1713.61 191.638 Q1711.81 191.129 1709.95 191.129 Q1705.81 191.129 1703.52 193.768 Q1701.23 196.384 1701.23 201.129 Q1701.23 205.874 1703.52 208.513 Q1705.81 211.129 1709.95 211.129 Q1711.81 211.129 1713.61 210.643 Q1715.44 210.133 1717.25 209.138 L1717.25 213.073 Q1715.46 213.907 1713.54 214.323 Q1711.64 214.74 1709.49 214.74 Q1703.63 214.74 1700.19 211.059 Q1696.74 207.379 1696.74 201.129 Q1696.74 194.786 1700.21 191.152 Q1703.7 187.518 1709.77 187.518 Q1711.74 187.518 1713.61 187.935 Q1715.49 188.328 1717.25 189.138 Z" fill="#000000" fill-rule="evenodd" fill-opacity="1" /><path clip-path="url(#clip590)" d="M1734.7 191.129 Q1731.27 191.129 1729.28 193.814 Q1727.29 196.476 1727.29 201.129 Q1727.29 205.782 1729.26 208.467 Q1731.25 211.129 1734.7 211.129 Q1738.1 211.129 1740.09 208.444 Q1742.08 205.758 1742.08 201.129 Q1742.08 196.522 1740.09 193.837 Q1738.1 191.129 1734.7 191.129 M1734.7 187.518 Q1740.25 187.518 1743.43 191.129 Q1746.6 194.74 1746.6 201.129 Q1746.6 207.495 1743.43 211.129 Q1740.25 214.74 1734.7 214.74 Q1729.12 214.74 1725.95 211.129 Q1722.8 207.495 1722.8 201.129 Q1722.8 194.74 1725.95 191.129 Q1729.12 187.518 1734.7 187.518 Z" fill="#000000" fill-rule="evenodd" fill-opacity="1" /><path clip-path="url(#clip590)" d="M1753.22 203.837 L1753.22 188.143 L1757.48 188.143 L1757.48 203.675 Q1757.48 207.356 1758.91 209.208 Q1760.35 211.036 1763.22 211.036 Q1766.67 211.036 1768.66 208.837 Q1770.67 206.638 1770.67 202.842 L1770.67 188.143 L1774.93 188.143 L1774.93 214.069 L1770.67 214.069 L1770.67 210.087 Q1769.12 212.448 1767.06 213.606 Q1765.02 214.74 1762.31 214.74 Q1757.85 214.74 1755.53 211.962 Q1753.22 209.184 1753.22 203.837 M1763.94 187.518 L1763.94 187.518 Z" fill="#000000" fill-rule="evenodd" fill-opacity="1" /><path clip-path="url(#clip590)" d="M1787.82 210.18 L1787.82 223.93 L1783.54 223.93 L1783.54 188.143 L1787.82 188.143 L1787.82 192.078 Q1789.17 189.763 1791.2 188.652 Q1793.26 187.518 1796.11 187.518 Q1800.83 187.518 1803.77 191.268 Q1806.74 195.018 1806.74 201.129 Q1806.74 207.24 1803.77 210.99 Q1800.83 214.74 1796.11 214.74 Q1793.26 214.74 1791.2 213.629 Q1789.17 212.495 1787.82 210.18 M1802.31 201.129 Q1802.31 196.43 1800.37 193.768 Q1798.45 191.083 1795.07 191.083 Q1791.69 191.083 1789.75 193.768 Q1787.82 196.43 1787.82 201.129 Q1787.82 205.828 1789.75 208.513 Q1791.69 211.175 1795.07 211.175 Q1798.45 211.175 1800.37 208.513 Q1802.31 205.828 1802.31 201.129 Z" fill="#000000" fill-rule="evenodd" fill-opacity="1" /><path clip-path="url(#clip590)" d="M1813.8 178.05 L1818.06 178.05 L1818.06 214.069 L1813.8 214.069 L1813.8 178.05 Z" fill="#000000" fill-rule="evenodd" fill-opacity="1" /><path clip-path="url(#clip590)" d="M1849.14 200.041 L1849.14 202.124 L1829.56 202.124 Q1829.84 206.522 1832.2 208.837 Q1834.58 211.129 1838.82 211.129 Q1841.27 211.129 1843.56 210.527 Q1845.88 209.925 1848.15 208.721 L1848.15 212.749 Q1845.86 213.721 1843.45 214.231 Q1841.04 214.74 1838.56 214.74 Q1832.36 214.74 1828.73 211.129 Q1825.12 207.518 1825.12 201.36 Q1825.12 194.995 1828.54 191.268 Q1831.99 187.518 1837.82 187.518 Q1843.06 187.518 1846.09 190.897 Q1849.14 194.254 1849.14 200.041 M1844.88 198.791 Q1844.84 195.296 1842.92 193.212 Q1841.02 191.129 1837.87 191.129 Q1834.31 191.129 1832.15 193.143 Q1830.02 195.157 1829.7 198.814 L1844.88 198.791 Z" fill="#000000" fill-rule="evenodd" fill-opacity="1" /><path clip-path="url(#clip590)" d="M1873.19 192.078 L1873.19 178.05 L1877.45 178.05 L1877.45 214.069 L1873.19 214.069 L1873.19 210.18 Q1871.85 212.495 1869.79 213.629 Q1867.75 214.74 1864.88 214.74 Q1860.18 214.74 1857.22 210.99 Q1854.28 207.24 1854.28 201.129 Q1854.28 195.018 1857.22 191.268 Q1860.18 187.518 1864.88 187.518 Q1867.75 187.518 1869.79 188.652 Q1871.85 189.763 1873.19 192.078 M1858.68 201.129 Q1858.68 205.828 1860.6 208.513 Q1862.55 211.175 1865.93 211.175 Q1869.3 211.175 1871.25 208.513 Q1873.19 205.828 1873.19 201.129 Q1873.19 196.43 1871.25 193.768 Q1869.3 191.083 1865.93 191.083 Q1862.55 191.083 1860.6 193.768 Q1858.68 196.43 1858.68 201.129 Z" fill="#000000" fill-rule="evenodd" fill-opacity="1" /><path clip-path="url(#clip590)" d="M1917.82 188.907 L1917.82 192.934 Q1916.02 192.009 1914.07 191.546 Q1912.13 191.083 1910.05 191.083 Q1906.87 191.083 1905.28 192.055 Q1903.7 193.027 1903.7 194.971 Q1903.7 196.453 1904.84 197.309 Q1905.97 198.143 1909.4 198.907 L1910.86 199.231 Q1915.39 200.203 1917.29 201.985 Q1919.21 203.745 1919.21 206.916 Q1919.21 210.527 1916.34 212.633 Q1913.49 214.74 1908.49 214.74 Q1906.41 214.74 1904.14 214.323 Q1901.9 213.93 1899.4 213.12 L1899.4 208.721 Q1901.76 209.948 1904.05 210.573 Q1906.34 211.175 1908.59 211.175 Q1911.6 211.175 1913.22 210.157 Q1914.84 209.115 1914.84 207.24 Q1914.84 205.504 1913.66 204.578 Q1912.5 203.652 1908.54 202.796 L1907.06 202.448 Q1903.1 201.615 1901.34 199.902 Q1899.58 198.166 1899.58 195.157 Q1899.58 191.499 1902.18 189.509 Q1904.77 187.518 1909.54 187.518 Q1911.9 187.518 1913.98 187.865 Q1916.06 188.212 1917.82 188.907 Z" fill="#000000" fill-rule="evenodd" fill-opacity="1" /><path clip-path="url(#clip590)" d="M1936.78 216.476 Q1934.98 221.106 1933.26 222.518 Q1931.55 223.93 1928.68 223.93 L1925.28 223.93 L1925.28 220.365 L1927.78 220.365 Q1929.54 220.365 1930.51 219.532 Q1931.48 218.698 1932.66 215.596 L1933.42 213.652 L1922.94 188.143 L1927.45 188.143 L1935.55 208.421 L1943.66 188.143 L1948.17 188.143 L1936.78 216.476 Z" fill="#000000" fill-rule="evenodd" fill-opacity="1" /><path clip-path="url(#clip590)" d="M1970.58 188.907 L1970.58 192.934 Q1968.77 192.009 1966.83 191.546 Q1964.88 191.083 1962.8 191.083 Q1959.63 191.083 1958.03 192.055 Q1956.46 193.027 1956.46 194.971 Q1956.46 196.453 1957.59 197.309 Q1958.73 198.143 1962.15 198.907 L1963.61 199.231 Q1968.15 200.203 1970.05 201.985 Q1971.97 203.745 1971.97 206.916 Q1971.97 210.527 1969.1 212.633 Q1966.25 214.74 1961.25 214.74 Q1959.17 214.74 1956.9 214.323 Q1954.65 213.93 1952.15 213.12 L1952.15 208.721 Q1954.51 209.948 1956.8 210.573 Q1959.1 211.175 1961.34 211.175 Q1964.35 211.175 1965.97 210.157 Q1967.59 209.115 1967.59 207.24 Q1967.59 205.504 1966.41 204.578 Q1965.25 203.652 1961.3 202.796 L1959.81 202.448 Q1955.86 201.615 1954.1 199.902 Q1952.34 198.166 1952.34 195.157 Q1952.34 191.499 1954.93 189.509 Q1957.52 187.518 1962.29 187.518 Q1964.65 187.518 1966.74 187.865 Q1968.82 188.212 1970.58 188.907 Z" fill="#000000" fill-rule="evenodd" fill-opacity="1" /><path clip-path="url(#clip590)" d="M1982.96 180.782 L1982.96 188.143 L1991.73 188.143 L1991.73 191.453 L1982.96 191.453 L1982.96 205.527 Q1982.96 208.698 1983.82 209.601 Q1984.7 210.504 1987.36 210.504 L1991.73 210.504 L1991.73 214.069 L1987.36 214.069 Q1982.43 214.069 1980.55 212.24 Q1978.68 210.388 1978.68 205.527 L1978.68 191.453 L1975.55 191.453 L1975.55 188.143 L1978.68 188.143 L1978.68 180.782 L1982.96 180.782 Z" fill="#000000" fill-rule="evenodd" fill-opacity="1" /><path clip-path="url(#clip590)" d="M2019.51 200.041 L2019.51 202.124 L1999.93 202.124 Q2000.21 206.522 2002.57 208.837 Q2004.95 211.129 2009.19 211.129 Q2011.64 211.129 2013.93 210.527 Q2016.25 209.925 2018.52 208.721 L2018.52 212.749 Q2016.23 213.721 2013.82 214.231 Q2011.41 214.74 2008.93 214.74 Q2002.73 214.74 1999.1 211.129 Q1995.48 207.518 1995.48 201.36 Q1995.48 194.995 1998.91 191.268 Q2002.36 187.518 2008.19 187.518 Q2013.42 187.518 2016.46 190.897 Q2019.51 194.254 2019.51 200.041 M2015.25 198.791 Q2015.21 195.296 2013.29 193.212 Q2011.39 191.129 2008.24 191.129 Q2004.67 191.129 2002.52 193.143 Q2000.39 195.157 2000.07 198.814 L2015.25 198.791 Z" fill="#000000" fill-rule="evenodd" fill-opacity="1" /><path clip-path="url(#clip590)" d="M2046.69 193.12 Q2048.29 190.249 2050.51 188.884 Q2052.73 187.518 2055.74 187.518 Q2059.79 187.518 2061.99 190.365 Q2064.19 193.189 2064.19 198.421 L2064.19 214.069 L2059.91 214.069 L2059.91 198.559 Q2059.91 194.833 2058.59 193.027 Q2057.27 191.222 2054.56 191.222 Q2051.25 191.222 2049.33 193.421 Q2047.41 195.62 2047.41 199.416 L2047.41 214.069 L2043.12 214.069 L2043.12 198.559 Q2043.12 194.809 2041.8 193.027 Q2040.48 191.222 2037.73 191.222 Q2034.47 191.222 2032.54 193.444 Q2030.62 195.643 2030.62 199.416 L2030.62 214.069 L2026.34 214.069 L2026.34 188.143 L2030.62 188.143 L2030.62 192.171 Q2032.08 189.786 2034.12 188.652 Q2036.16 187.518 2038.96 187.518 Q2041.78 187.518 2043.75 188.953 Q2045.74 190.388 2046.69 193.12 Z" fill="#000000" fill-rule="evenodd" fill-opacity="1" /><path clip-path="url(#clip590)" d="M2097.98 178.097 Q2094.88 183.421 2093.38 188.629 Q2091.87 193.837 2091.87 199.184 Q2091.87 204.532 2093.38 209.786 Q2094.91 215.018 2097.98 220.319 L2094.28 220.319 Q2090.81 214.879 2089.07 209.624 Q2087.36 204.37 2087.36 199.184 Q2087.36 194.022 2089.07 188.791 Q2090.79 183.56 2094.28 178.097 L2097.98 178.097 Z" fill="#000000" fill-rule="evenodd" fill-opacity="1" /><path clip-path="url(#clip590)" d="M2117.04 216.476 Q2115.23 221.106 2113.52 222.518 Q2111.8 223.93 2108.93 223.93 L2105.53 223.93 L2105.53 220.365 L2108.03 220.365 Q2109.79 220.365 2110.76 219.532 Q2111.73 218.698 2112.91 215.596 L2113.68 213.652 L2103.19 188.143 L2107.71 188.143 L2115.81 208.421 L2123.91 188.143 L2128.42 188.143 L2117.04 216.476 Z" fill="#000000" fill-rule="evenodd" fill-opacity="1" /><path clip-path="url(#clip590)" d="M2147.22 199.184 L2159.7 199.184 L2159.7 202.981 L2147.22 202.981 L2147.22 199.184 Z" fill="#000000" fill-rule="evenodd" fill-opacity="1" /><path clip-path="url(#clip590)" d="M2167.03 190.735 L2167.03 186.522 L2196.71 197.286 L2196.71 201.129 L2167.03 211.893 L2167.03 207.68 L2190.88 199.231 L2167.03 190.735 Z" fill="#000000" fill-rule="evenodd" fill-opacity="1" /><path clip-path="url(#clip590)" d="M2242.82 188.143 L2233.45 200.759 L2243.31 214.069 L2238.28 214.069 L2230.74 203.883 L2223.19 214.069 L2218.17 214.069 L2228.24 200.504 L2219.03 188.143 L2224.05 188.143 L2230.92 197.379 L2237.8 188.143 L2242.82 188.143 Z" fill="#000000" fill-rule="evenodd" fill-opacity="1" /><path clip-path="url(#clip590)" d="M2248.65 178.097 L2252.36 178.097 Q2255.83 183.56 2257.54 188.791 Q2259.28 194.022 2259.28 199.184 Q2259.28 204.37 2257.54 209.624 Q2255.83 214.879 2252.36 220.319 L2248.65 220.319 Q2251.73 215.018 2253.24 209.786 Q2254.77 204.532 2254.77 199.184 Q2254.77 193.837 2253.24 188.629 Q2251.73 183.421 2248.65 178.097 Z" fill="#000000" fill-rule="evenodd" fill-opacity="1" /><polyline clip-path="url(#clip590)" style="stroke:#3da44d; stroke-linecap:round; stroke-linejoin:round; stroke-width:4; stroke-opacity:1; fill:none" points="
  1275.82,248.629 1416.03,248.629 
  "/>
<circle clip-path="url(#clip590)" cx="1345.92" cy="248.629" r="19.4742" fill="#3da44d" fill-rule="evenodd" fill-opacity="1" stroke="#000000" stroke-opacity="1" stroke-width="10.24"/>
<path clip-path="url(#clip590)" d="M1461.11 250.261 L1461.11 265.909 L1456.85 265.909 L1456.85 250.399 Q1456.85 246.719 1455.42 244.89 Q1453.98 243.062 1451.11 243.062 Q1447.66 243.062 1445.67 245.261 Q1443.68 247.46 1443.68 251.256 L1443.68 265.909 L1439.4 265.909 L1439.4 229.89 L1443.68 229.89 L1443.68 244.011 Q1445.21 241.673 1447.27 240.515 Q1449.35 239.358 1452.06 239.358 Q1456.53 239.358 1458.82 242.136 Q1461.11 244.89 1461.11 250.261 Z" fill="#000000" fill-rule="evenodd" fill-opacity="1" /><path clip-path="url(#clip590)" d="M1491.78 251.881 L1491.78 253.964 L1472.2 253.964 Q1472.48 258.362 1474.84 260.677 Q1477.22 262.969 1481.46 262.969 Q1483.91 262.969 1486.21 262.367 Q1488.52 261.765 1490.79 260.561 L1490.79 264.589 Q1488.5 265.561 1486.09 266.071 Q1483.68 266.58 1481.21 266.58 Q1475 266.58 1471.37 262.969 Q1467.76 259.358 1467.76 253.2 Q1467.76 246.835 1471.18 243.108 Q1474.63 239.358 1480.46 239.358 Q1485.7 239.358 1488.73 242.737 Q1491.78 246.094 1491.78 251.881 M1487.52 250.631 Q1487.48 247.136 1485.56 245.052 Q1483.66 242.969 1480.51 242.969 Q1476.95 242.969 1474.79 244.983 Q1472.66 246.997 1472.34 250.654 L1487.52 250.631 Z" fill="#000000" fill-rule="evenodd" fill-opacity="1" /><path clip-path="url(#clip590)" d="M1520.33 250.261 L1520.33 265.909 L1516.07 265.909 L1516.07 250.399 Q1516.07 246.719 1514.63 244.89 Q1513.2 243.062 1510.33 243.062 Q1506.88 243.062 1504.89 245.261 Q1502.89 247.46 1502.89 251.256 L1502.89 265.909 L1498.61 265.909 L1498.61 239.983 L1502.89 239.983 L1502.89 244.011 Q1504.42 241.673 1506.48 240.515 Q1508.57 239.358 1511.27 239.358 Q1515.74 239.358 1518.03 242.136 Q1520.33 244.89 1520.33 250.261 Z" fill="#000000" fill-rule="evenodd" fill-opacity="1" /><path clip-path="url(#clip590)" d="M1538.87 242.969 Q1535.44 242.969 1533.45 245.654 Q1531.46 248.316 1531.46 252.969 Q1531.46 257.622 1533.43 260.307 Q1535.42 262.969 1538.87 262.969 Q1542.27 262.969 1544.26 260.284 Q1546.25 257.598 1546.25 252.969 Q1546.25 248.362 1544.26 245.677 Q1542.27 242.969 1538.87 242.969 M1538.87 239.358 Q1544.42 239.358 1547.59 242.969 Q1550.77 246.58 1550.77 252.969 Q1550.77 259.335 1547.59 262.969 Q1544.42 266.58 1538.87 266.58 Q1533.29 266.58 1530.12 262.969 Q1526.97 259.335 1526.97 252.969 Q1526.97 246.58 1530.12 242.969 Q1533.29 239.358 1538.87 239.358 Z" fill="#000000" fill-rule="evenodd" fill-opacity="1" /><path clip-path="url(#clip590)" d="M1579.38 250.261 L1579.38 265.909 L1575.12 265.909 L1575.12 250.399 Q1575.12 246.719 1573.68 244.89 Q1572.25 243.062 1569.38 243.062 Q1565.93 243.062 1563.94 245.261 Q1561.95 247.46 1561.95 251.256 L1561.95 265.909 L1557.66 265.909 L1557.66 239.983 L1561.95 239.983 L1561.95 244.011 Q1563.47 241.673 1565.53 240.515 Q1567.62 239.358 1570.33 239.358 Q1574.79 239.358 1577.08 242.136 Q1579.38 244.89 1579.38 250.261 Z" fill="#000000" fill-rule="evenodd" fill-opacity="1" /><path clip-path="url(#clip590)" d="M1602.5 255.677 L1602.5 239.983 L1606.76 239.983 L1606.76 255.515 Q1606.76 259.196 1608.2 261.048 Q1609.63 262.876 1612.5 262.876 Q1615.95 262.876 1617.94 260.677 Q1619.95 258.478 1619.95 254.682 L1619.95 239.983 L1624.21 239.983 L1624.21 265.909 L1619.95 265.909 L1619.95 261.927 Q1618.4 264.288 1616.34 265.446 Q1614.31 266.58 1611.6 266.58 Q1607.13 266.58 1604.82 263.802 Q1602.5 261.024 1602.5 255.677 M1613.22 239.358 L1613.22 239.358 Z" fill="#000000" fill-rule="evenodd" fill-opacity="1" /><path clip-path="url(#clip590)" d="M1654.54 250.261 L1654.54 265.909 L1650.28 265.909 L1650.28 250.399 Q1650.28 246.719 1648.84 244.89 Q1647.41 243.062 1644.54 243.062 Q1641.09 243.062 1639.1 245.261 Q1637.11 247.46 1637.11 251.256 L1637.11 265.909 L1632.82 265.909 L1632.82 239.983 L1637.11 239.983 L1637.11 244.011 Q1638.63 241.673 1640.7 240.515 Q1642.78 239.358 1645.49 239.358 Q1649.95 239.358 1652.25 242.136 Q1654.54 244.89 1654.54 250.261 Z" fill="#000000" fill-rule="evenodd" fill-opacity="1" /><path clip-path="url(#clip590)" d="M1663.03 239.983 L1667.29 239.983 L1667.29 265.909 L1663.03 265.909 L1663.03 239.983 M1663.03 229.89 L1667.29 229.89 L1667.29 235.284 L1663.03 235.284 L1663.03 229.89 Z" fill="#000000" fill-rule="evenodd" fill-opacity="1" /><path clip-path="url(#clip590)" d="M1693.26 243.918 L1693.26 229.89 L1697.52 229.89 L1697.52 265.909 L1693.26 265.909 L1693.26 262.02 Q1691.92 264.335 1689.86 265.469 Q1687.82 266.58 1684.95 266.58 Q1680.26 266.58 1677.29 262.83 Q1674.35 259.08 1674.35 252.969 Q1674.35 246.858 1677.29 243.108 Q1680.26 239.358 1684.95 239.358 Q1687.82 239.358 1689.86 240.492 Q1691.92 241.603 1693.26 243.918 M1678.75 252.969 Q1678.75 257.668 1680.67 260.353 Q1682.62 263.015 1686 263.015 Q1689.38 263.015 1691.32 260.353 Q1693.26 257.668 1693.26 252.969 Q1693.26 248.27 1691.32 245.608 Q1689.38 242.923 1686 242.923 Q1682.62 242.923 1680.67 245.608 Q1678.75 248.27 1678.75 252.969 Z" fill="#000000" fill-rule="evenodd" fill-opacity="1" /><path clip-path="url(#clip590)" d="M1706.3 239.983 L1710.56 239.983 L1710.56 265.909 L1706.3 265.909 L1706.3 239.983 M1706.3 229.89 L1710.56 229.89 L1710.56 235.284 L1706.3 235.284 L1706.3 229.89 Z" fill="#000000" fill-rule="evenodd" fill-opacity="1" /><path clip-path="url(#clip590)" d="M1734.49 243.964 Q1733.77 243.548 1732.92 243.362 Q1732.08 243.154 1731.06 243.154 Q1727.45 243.154 1725.51 245.515 Q1723.59 247.853 1723.59 252.251 L1723.59 265.909 L1719.31 265.909 L1719.31 239.983 L1723.59 239.983 L1723.59 244.011 Q1724.93 241.649 1727.08 240.515 Q1729.24 239.358 1732.31 239.358 Q1732.75 239.358 1733.29 239.427 Q1733.82 239.474 1734.47 239.589 L1734.49 243.964 Z" fill="#000000" fill-rule="evenodd" fill-opacity="1" /><path clip-path="url(#clip590)" d="M1764.26 229.937 Q1761.16 235.261 1759.65 240.469 Q1758.15 245.677 1758.15 251.024 Q1758.15 256.372 1759.65 261.626 Q1761.18 266.858 1764.26 272.159 L1760.56 272.159 Q1757.08 266.719 1755.35 261.464 Q1753.63 256.21 1753.63 251.024 Q1753.63 245.862 1755.35 240.631 Q1757.06 235.4 1760.56 229.937 L1764.26 229.937 Z" fill="#000000" fill-rule="evenodd" fill-opacity="1" /><path clip-path="url(#clip590)" d="M1794.07 239.983 L1784.7 252.599 L1794.56 265.909 L1789.54 265.909 L1781.99 255.723 L1774.44 265.909 L1769.42 265.909 L1779.49 252.344 L1770.28 239.983 L1775.3 239.983 L1782.18 249.219 L1789.05 239.983 L1794.07 239.983 Z" fill="#000000" fill-rule="evenodd" fill-opacity="1" /><path clip-path="url(#clip590)" d="M1813.5 251.024 L1825.97 251.024 L1825.97 254.821 L1813.5 254.821 L1813.5 251.024 Z" fill="#000000" fill-rule="evenodd" fill-opacity="1" /><path clip-path="url(#clip590)" d="M1833.31 242.575 L1833.31 238.362 L1862.99 249.126 L1862.99 252.969 L1833.31 263.733 L1833.31 259.52 L1857.15 251.071 L1833.31 242.575 Z" fill="#000000" fill-rule="evenodd" fill-opacity="1" /><path clip-path="url(#clip590)" d="M1898.33 268.316 Q1896.53 272.946 1894.81 274.358 Q1893.1 275.77 1890.23 275.77 L1886.83 275.77 L1886.83 272.205 L1889.33 272.205 Q1891.09 272.205 1892.06 271.372 Q1893.03 270.538 1894.21 267.436 L1894.98 265.492 L1884.49 239.983 L1889 239.983 L1897.11 260.261 L1905.21 239.983 L1909.72 239.983 L1898.33 268.316 Z" fill="#000000" fill-rule="evenodd" fill-opacity="1" /><path clip-path="url(#clip590)" d="M1914.93 229.937 L1918.63 229.937 Q1922.11 235.4 1923.82 240.631 Q1925.55 245.862 1925.55 251.024 Q1925.55 256.21 1923.82 261.464 Q1922.11 266.719 1918.63 272.159 L1914.93 272.159 Q1918.01 266.858 1919.51 261.626 Q1921.04 256.372 1921.04 251.024 Q1921.04 245.677 1919.51 240.469 Q1918.01 235.261 1914.93 229.937 Z" fill="#000000" fill-rule="evenodd" fill-opacity="1" /><polyline clip-path="url(#clip590)" style="stroke:#c271d2; stroke-linecap:round; stroke-linejoin:round; stroke-width:4; stroke-opacity:1; fill:none" points="
  1275.82,300.469 1416.03,300.469 
  "/>
<circle clip-path="url(#clip590)" cx="1345.92" cy="300.469" r="19.4742" fill="#c271d2" fill-rule="evenodd" fill-opacity="1" stroke="#000000" stroke-opacity="1" stroke-width="10.24"/>
<path clip-path="url(#clip590)" d="M1461.11 302.101 L1461.11 317.749 L1456.85 317.749 L1456.85 302.239 Q1456.85 298.559 1455.42 296.73 Q1453.98 294.902 1451.11 294.902 Q1447.66 294.902 1445.67 297.101 Q1443.68 299.3 1443.68 303.096 L1443.68 317.749 L1439.4 317.749 L1439.4 281.73 L1443.68 281.73 L1443.68 295.851 Q1445.21 293.513 1447.27 292.355 Q1449.35 291.198 1452.06 291.198 Q1456.53 291.198 1458.82 293.976 Q1461.11 296.73 1461.11 302.101 Z" fill="#000000" fill-rule="evenodd" fill-opacity="1" /><path clip-path="url(#clip590)" d="M1491.78 303.721 L1491.78 305.804 L1472.2 305.804 Q1472.48 310.202 1474.84 312.517 Q1477.22 314.809 1481.46 314.809 Q1483.91 314.809 1486.21 314.207 Q1488.52 313.605 1490.79 312.401 L1490.79 316.429 Q1488.5 317.401 1486.09 317.911 Q1483.68 318.42 1481.21 318.42 Q1475 318.42 1471.37 314.809 Q1467.76 311.198 1467.76 305.04 Q1467.76 298.675 1471.18 294.948 Q1474.63 291.198 1480.46 291.198 Q1485.7 291.198 1488.73 294.577 Q1491.78 297.934 1491.78 303.721 M1487.52 302.471 Q1487.48 298.976 1485.56 296.892 Q1483.66 294.809 1480.51 294.809 Q1476.95 294.809 1474.79 296.823 Q1472.66 298.837 1472.34 302.494 L1487.52 302.471 Z" fill="#000000" fill-rule="evenodd" fill-opacity="1" /><path clip-path="url(#clip590)" d="M1520.33 302.101 L1520.33 317.749 L1516.07 317.749 L1516.07 302.239 Q1516.07 298.559 1514.63 296.73 Q1513.2 294.902 1510.33 294.902 Q1506.88 294.902 1504.89 297.101 Q1502.89 299.3 1502.89 303.096 L1502.89 317.749 L1498.61 317.749 L1498.61 291.823 L1502.89 291.823 L1502.89 295.851 Q1504.42 293.513 1506.48 292.355 Q1508.57 291.198 1511.27 291.198 Q1515.74 291.198 1518.03 293.976 Q1520.33 296.73 1520.33 302.101 Z" fill="#000000" fill-rule="evenodd" fill-opacity="1" /><path clip-path="url(#clip590)" d="M1538.87 294.809 Q1535.44 294.809 1533.45 297.494 Q1531.46 300.156 1531.46 304.809 Q1531.46 309.462 1533.43 312.147 Q1535.42 314.809 1538.87 314.809 Q1542.27 314.809 1544.26 312.124 Q1546.25 309.438 1546.25 304.809 Q1546.25 300.202 1544.26 297.517 Q1542.27 294.809 1538.87 294.809 M1538.87 291.198 Q1544.42 291.198 1547.59 294.809 Q1550.77 298.42 1550.77 304.809 Q1550.77 311.175 1547.59 314.809 Q1544.42 318.42 1538.87 318.42 Q1533.29 318.42 1530.12 314.809 Q1526.97 311.175 1526.97 304.809 Q1526.97 298.42 1530.12 294.809 Q1533.29 291.198 1538.87 291.198 Z" fill="#000000" fill-rule="evenodd" fill-opacity="1" /><path clip-path="url(#clip590)" d="M1579.38 302.101 L1579.38 317.749 L1575.12 317.749 L1575.12 302.239 Q1575.12 298.559 1573.68 296.73 Q1572.25 294.902 1569.38 294.902 Q1565.93 294.902 1563.94 297.101 Q1561.95 299.3 1561.95 303.096 L1561.95 317.749 L1557.66 317.749 L1557.66 291.823 L1561.95 291.823 L1561.95 295.851 Q1563.47 293.513 1565.53 292.355 Q1567.62 291.198 1570.33 291.198 Q1574.79 291.198 1577.08 293.976 Q1579.38 296.73 1579.38 302.101 Z" fill="#000000" fill-rule="evenodd" fill-opacity="1" /><path clip-path="url(#clip590)" d="M1602.5 307.517 L1602.5 291.823 L1606.76 291.823 L1606.76 307.355 Q1606.76 311.036 1608.2 312.888 Q1609.63 314.716 1612.5 314.716 Q1615.95 314.716 1617.94 312.517 Q1619.95 310.318 1619.95 306.522 L1619.95 291.823 L1624.21 291.823 L1624.21 317.749 L1619.95 317.749 L1619.95 313.767 Q1618.4 316.128 1616.34 317.286 Q1614.31 318.42 1611.6 318.42 Q1607.13 318.42 1604.82 315.642 Q1602.5 312.864 1602.5 307.517 M1613.22 291.198 L1613.22 291.198 Z" fill="#000000" fill-rule="evenodd" fill-opacity="1" /><path clip-path="url(#clip590)" d="M1654.54 302.101 L1654.54 317.749 L1650.28 317.749 L1650.28 302.239 Q1650.28 298.559 1648.84 296.73 Q1647.41 294.902 1644.54 294.902 Q1641.09 294.902 1639.1 297.101 Q1637.11 299.3 1637.11 303.096 L1637.11 317.749 L1632.82 317.749 L1632.82 291.823 L1637.11 291.823 L1637.11 295.851 Q1638.63 293.513 1640.7 292.355 Q1642.78 291.198 1645.49 291.198 Q1649.95 291.198 1652.25 293.976 Q1654.54 296.73 1654.54 302.101 Z" fill="#000000" fill-rule="evenodd" fill-opacity="1" /><path clip-path="url(#clip590)" d="M1663.03 291.823 L1667.29 291.823 L1667.29 317.749 L1663.03 317.749 L1663.03 291.823 M1663.03 281.73 L1667.29 281.73 L1667.29 287.124 L1663.03 287.124 L1663.03 281.73 Z" fill="#000000" fill-rule="evenodd" fill-opacity="1" /><path clip-path="url(#clip590)" d="M1693.26 295.758 L1693.26 281.73 L1697.52 281.73 L1697.52 317.749 L1693.26 317.749 L1693.26 313.86 Q1691.92 316.175 1689.86 317.309 Q1687.82 318.42 1684.95 318.42 Q1680.26 318.42 1677.29 314.67 Q1674.35 310.92 1674.35 304.809 Q1674.35 298.698 1677.29 294.948 Q1680.26 291.198 1684.95 291.198 Q1687.82 291.198 1689.86 292.332 Q1691.92 293.443 1693.26 295.758 M1678.75 304.809 Q1678.75 309.508 1680.67 312.193 Q1682.62 314.855 1686 314.855 Q1689.38 314.855 1691.32 312.193 Q1693.26 309.508 1693.26 304.809 Q1693.26 300.11 1691.32 297.448 Q1689.38 294.763 1686 294.763 Q1682.62 294.763 1680.67 297.448 Q1678.75 300.11 1678.75 304.809 Z" fill="#000000" fill-rule="evenodd" fill-opacity="1" /><path clip-path="url(#clip590)" d="M1706.3 291.823 L1710.56 291.823 L1710.56 317.749 L1706.3 317.749 L1706.3 291.823 M1706.3 281.73 L1710.56 281.73 L1710.56 287.124 L1706.3 287.124 L1706.3 281.73 Z" fill="#000000" fill-rule="evenodd" fill-opacity="1" /><path clip-path="url(#clip590)" d="M1734.49 295.804 Q1733.77 295.388 1732.92 295.202 Q1732.08 294.994 1731.06 294.994 Q1727.45 294.994 1725.51 297.355 Q1723.59 299.693 1723.59 304.091 L1723.59 317.749 L1719.31 317.749 L1719.31 291.823 L1723.59 291.823 L1723.59 295.851 Q1724.93 293.489 1727.08 292.355 Q1729.24 291.198 1732.31 291.198 Q1732.75 291.198 1733.29 291.267 Q1733.82 291.314 1734.47 291.429 L1734.49 295.804 Z" fill="#000000" fill-rule="evenodd" fill-opacity="1" /><path clip-path="url(#clip590)" d="M1764.26 281.777 Q1761.16 287.101 1759.65 292.309 Q1758.15 297.517 1758.15 302.864 Q1758.15 308.212 1759.65 313.466 Q1761.18 318.698 1764.26 323.999 L1760.56 323.999 Q1757.08 318.559 1755.35 313.304 Q1753.63 308.05 1753.63 302.864 Q1753.63 297.702 1755.35 292.471 Q1757.06 287.24 1760.56 281.777 L1764.26 281.777 Z" fill="#000000" fill-rule="evenodd" fill-opacity="1" /><path clip-path="url(#clip590)" d="M1783.31 320.156 Q1781.5 324.786 1779.79 326.198 Q1778.08 327.61 1775.21 327.61 L1771.81 327.61 L1771.81 324.045 L1774.31 324.045 Q1776.06 324.045 1777.04 323.212 Q1778.01 322.378 1779.19 319.276 L1779.95 317.332 L1769.47 291.823 L1773.98 291.823 L1782.08 312.101 L1790.19 291.823 L1794.7 291.823 L1783.31 320.156 Z" fill="#000000" fill-rule="evenodd" fill-opacity="1" /><path clip-path="url(#clip590)" d="M1813.5 302.864 L1825.97 302.864 L1825.97 306.661 L1813.5 306.661 L1813.5 302.864 Z" fill="#000000" fill-rule="evenodd" fill-opacity="1" /><path clip-path="url(#clip590)" d="M1833.31 294.415 L1833.31 290.202 L1862.99 300.966 L1862.99 304.809 L1833.31 315.573 L1833.31 311.36 L1857.15 302.911 L1833.31 294.415 Z" fill="#000000" fill-rule="evenodd" fill-opacity="1" /><path clip-path="url(#clip590)" d="M1909.1 291.823 L1899.72 304.439 L1909.58 317.749 L1904.56 317.749 L1897.01 307.563 L1889.47 317.749 L1884.44 317.749 L1894.51 304.184 L1885.3 291.823 L1890.32 291.823 L1897.2 301.059 L1904.07 291.823 L1909.1 291.823 Z" fill="#000000" fill-rule="evenodd" fill-opacity="1" /><path clip-path="url(#clip590)" d="M1914.93 281.777 L1918.63 281.777 Q1922.11 287.24 1923.82 292.471 Q1925.55 297.702 1925.55 302.864 Q1925.55 308.05 1923.82 313.304 Q1922.11 318.559 1918.63 323.999 L1914.93 323.999 Q1918.01 318.698 1919.51 313.466 Q1921.04 308.212 1921.04 302.864 Q1921.04 297.517 1919.51 292.309 Q1918.01 287.101 1914.93 281.777 Z" fill="#000000" fill-rule="evenodd" fill-opacity="1" /></svg>
