<?xml version="1.0" encoding="utf-8"?>
<svg xmlns="http://www.w3.org/2000/svg" xmlns:xlink="http://www.w3.org/1999/xlink" width="600" height="400" viewBox="0 0 2400 1600">
<defs>
  <clipPath id="clip920">
    <rect x="0" y="0" width="2400" height="1600"/>
  </clipPath>
</defs>
<path clip-path="url(#clip920)" d="
M0 1600 L2400 1600 L2400 0 L0 0  Z
  " fill="#ffffff" fill-rule="evenodd" fill-opacity="1"/>
<defs>
  <clipPath id="clip921">
    <rect x="480" y="0" width="1681" height="1600"/>
  </clipPath>
</defs>
<path clip-path="url(#clip920)" d="
M249.542 1423.18 L2352.76 1423.18 L2352.76 47.2441 L249.542 47.2441  Z
  " fill="#ffffff" fill-rule="evenodd" fill-opacity="1"/>
<defs>
  <clipPath id="clip922">
    <rect x="249" y="47" width="2104" height="1377"/>
  </clipPath>
</defs>
<polyline clip-path="url(#clip922)" style="stroke:#000000; stroke-linecap:butt; stroke-linejoin:round; stroke-width:2; stroke-opacity:0.1; fill:none" points="
  289.025,1423.18 289.025,47.2441 
  "/>
<polyline clip-path="url(#clip922)" style="stroke:#000000; stroke-linecap:butt; stroke-linejoin:round; stroke-width:2; stroke-opacity:0.1; fill:none" points="
  790.076,1423.18 790.076,47.2441 
  "/>
<polyline clip-path="url(#clip922)" style="stroke:#000000; stroke-linecap:butt; stroke-linejoin:round; stroke-width:2; stroke-opacity:0.1; fill:none" points="
  1291.13,1423.18 1291.13,47.2441 
  "/>
<polyline clip-path="url(#clip922)" style="stroke:#000000; stroke-linecap:butt; stroke-linejoin:round; stroke-width:2; stroke-opacity:0.1; fill:none" points="
  1792.18,1423.18 1792.18,47.2441 
  "/>
<polyline clip-path="url(#clip922)" style="stroke:#000000; stroke-linecap:butt; stroke-linejoin:round; stroke-width:2; stroke-opacity:0.1; fill:none" points="
  2293.23,1423.18 2293.23,47.2441 
  "/>
<polyline clip-path="url(#clip920)" style="stroke:#000000; stroke-linecap:butt; stroke-linejoin:round; stroke-width:4; stroke-opacity:1; fill:none" points="
  249.542,1423.18 2352.76,1423.18 
  "/>
<polyline clip-path="url(#clip920)" style="stroke:#000000; stroke-linecap:butt; stroke-linejoin:round; stroke-width:4; stroke-opacity:1; fill:none" points="
  289.025,1423.18 289.025,1404.28 
  "/>
<polyline clip-path="url(#clip920)" style="stroke:#000000; stroke-linecap:butt; stroke-linejoin:round; stroke-width:4; stroke-opacity:1; fill:none" points="
  790.076,1423.18 790.076,1404.28 
  "/>
<polyline clip-path="url(#clip920)" style="stroke:#000000; stroke-linecap:butt; stroke-linejoin:round; stroke-width:4; stroke-opacity:1; fill:none" points="
  1291.13,1423.18 1291.13,1404.28 
  "/>
<polyline clip-path="url(#clip920)" style="stroke:#000000; stroke-linecap:butt; stroke-linejoin:round; stroke-width:4; stroke-opacity:1; fill:none" points="
  1792.18,1423.18 1792.18,1404.28 
  "/>
<polyline clip-path="url(#clip920)" style="stroke:#000000; stroke-linecap:butt; stroke-linejoin:round; stroke-width:4; stroke-opacity:1; fill:none" points="
  2293.23,1423.18 2293.23,1404.28 
  "/>
<path clip-path="url(#clip920)" d="M289.025 1454.1 Q285.414 1454.1 283.585 1457.66 Q281.78 1461.2 281.78 1468.33 Q281.78 1475.44 283.585 1479.01 Q285.414 1482.55 289.025 1482.55 Q292.659 1482.55 294.465 1479.01 Q296.293 1475.44 296.293 1468.33 Q296.293 1461.2 294.465 1457.66 Q292.659 1454.1 289.025 1454.1 M289.025 1450.39 Q294.835 1450.39 297.891 1455 Q300.969 1459.58 300.969 1468.33 Q300.969 1477.06 297.891 1481.67 Q294.835 1486.25 289.025 1486.25 Q283.215 1486.25 280.136 1481.67 Q277.081 1477.06 277.081 1468.33 Q277.081 1459.58 280.136 1455 Q283.215 1450.39 289.025 1450.39 Z" fill="#000000" fill-rule="evenodd" fill-opacity="1" /><path clip-path="url(#clip920)" d="M753.769 1481.64 L770.088 1481.64 L770.088 1485.58 L748.144 1485.58 L748.144 1481.64 Q750.806 1478.89 755.389 1474.26 Q759.996 1469.61 761.176 1468.27 Q763.421 1465.74 764.301 1464.01 Q765.204 1462.25 765.204 1460.56 Q765.204 1457.8 763.259 1456.07 Q761.338 1454.33 758.236 1454.33 Q756.037 1454.33 753.584 1455.09 Q751.153 1455.86 748.375 1457.41 L748.375 1452.69 Q751.199 1451.55 753.653 1450.97 Q756.107 1450.39 758.144 1450.39 Q763.514 1450.39 766.708 1453.08 Q769.903 1455.77 769.903 1460.26 Q769.903 1462.39 769.093 1464.31 Q768.306 1466.2 766.199 1468.8 Q765.621 1469.47 762.519 1472.69 Q759.417 1475.88 753.769 1481.64 Z" fill="#000000" fill-rule="evenodd" fill-opacity="1" /><path clip-path="url(#clip920)" d="M779.949 1451.02 L798.306 1451.02 L798.306 1454.96 L784.232 1454.96 L784.232 1463.43 Q785.25 1463.08 786.269 1462.92 Q787.287 1462.73 788.306 1462.73 Q794.093 1462.73 797.472 1465.9 Q800.852 1469.08 800.852 1474.49 Q800.852 1480.07 797.38 1483.17 Q793.907 1486.25 787.588 1486.25 Q785.412 1486.25 783.144 1485.88 Q780.898 1485.51 778.491 1484.77 L778.491 1480.07 Q780.574 1481.2 782.796 1481.76 Q785.019 1482.32 787.495 1482.32 Q791.5 1482.32 793.838 1480.21 Q796.176 1478.1 796.176 1474.49 Q796.176 1470.88 793.838 1468.77 Q791.5 1466.67 787.495 1466.67 Q785.62 1466.67 783.745 1467.08 Q781.894 1467.5 779.949 1468.38 L779.949 1451.02 Z" fill="#000000" fill-rule="evenodd" fill-opacity="1" /><path clip-path="url(#clip920)" d="M820.065 1454.1 Q816.454 1454.1 814.625 1457.66 Q812.819 1461.2 812.819 1468.33 Q812.819 1475.44 814.625 1479.01 Q816.454 1482.55 820.065 1482.55 Q823.699 1482.55 825.504 1479.01 Q827.333 1475.44 827.333 1468.33 Q827.333 1461.2 825.504 1457.66 Q823.699 1454.1 820.065 1454.1 M820.065 1450.39 Q825.875 1450.39 828.93 1455 Q832.009 1459.58 832.009 1468.33 Q832.009 1477.06 828.93 1481.67 Q825.875 1486.25 820.065 1486.25 Q814.255 1486.25 811.176 1481.67 Q808.12 1477.06 808.12 1468.33 Q808.12 1459.58 811.176 1455 Q814.255 1450.39 820.065 1450.39 Z" fill="#000000" fill-rule="evenodd" fill-opacity="1" /><path clip-path="url(#clip920)" d="M1250.75 1451.02 L1269.1 1451.02 L1269.1 1454.96 L1255.03 1454.96 L1255.03 1463.43 Q1256.05 1463.08 1257.07 1462.92 Q1258.08 1462.73 1259.1 1462.73 Q1264.89 1462.73 1268.27 1465.9 Q1271.65 1469.08 1271.65 1474.49 Q1271.65 1480.07 1268.18 1483.17 Q1264.7 1486.25 1258.39 1486.25 Q1256.21 1486.25 1253.94 1485.88 Q1251.7 1485.51 1249.29 1484.77 L1249.29 1480.07 Q1251.37 1481.2 1253.59 1481.76 Q1255.82 1482.32 1258.29 1482.32 Q1262.3 1482.32 1264.64 1480.21 Q1266.97 1478.1 1266.97 1474.49 Q1266.97 1470.88 1264.64 1468.77 Q1262.3 1466.67 1258.29 1466.67 Q1256.42 1466.67 1254.54 1467.08 Q1252.69 1467.5 1250.75 1468.38 L1250.75 1451.02 Z" fill="#000000" fill-rule="evenodd" fill-opacity="1" /><path clip-path="url(#clip920)" d="M1290.86 1454.1 Q1287.25 1454.1 1285.42 1457.66 Q1283.62 1461.2 1283.62 1468.33 Q1283.62 1475.44 1285.42 1479.01 Q1287.25 1482.55 1290.86 1482.55 Q1294.5 1482.55 1296.3 1479.01 Q1298.13 1475.44 1298.13 1468.33 Q1298.13 1461.2 1296.3 1457.66 Q1294.5 1454.1 1290.86 1454.1 M1290.86 1450.39 Q1296.67 1450.39 1299.73 1455 Q1302.81 1459.58 1302.81 1468.33 Q1302.81 1477.06 1299.73 1481.67 Q1296.67 1486.25 1290.86 1486.25 Q1285.05 1486.25 1281.97 1481.67 Q1278.92 1477.06 1278.92 1468.33 Q1278.92 1459.58 1281.97 1455 Q1285.05 1450.39 1290.86 1450.39 Z" fill="#000000" fill-rule="evenodd" fill-opacity="1" /><path clip-path="url(#clip920)" d="M1321.02 1454.1 Q1317.41 1454.1 1315.58 1457.66 Q1313.78 1461.2 1313.78 1468.33 Q1313.78 1475.44 1315.58 1479.01 Q1317.41 1482.55 1321.02 1482.55 Q1324.66 1482.55 1326.46 1479.01 Q1328.29 1475.44 1328.29 1468.33 Q1328.29 1461.2 1326.46 1457.66 Q1324.66 1454.1 1321.02 1454.1 M1321.02 1450.39 Q1326.83 1450.39 1329.89 1455 Q1332.97 1459.58 1332.97 1468.33 Q1332.97 1477.06 1329.89 1481.67 Q1326.83 1486.25 1321.02 1486.25 Q1315.21 1486.25 1312.13 1481.67 Q1309.08 1477.06 1309.08 1468.33 Q1309.08 1459.58 1312.13 1455 Q1315.21 1450.39 1321.02 1450.39 Z" fill="#000000" fill-rule="evenodd" fill-opacity="1" /><path clip-path="url(#clip920)" d="M1750.46 1451.02 L1772.68 1451.02 L1772.68 1453.01 L1760.13 1485.58 L1755.25 1485.58 L1767.05 1454.96 L1750.46 1454.96 L1750.46 1451.02 Z" fill="#000000" fill-rule="evenodd" fill-opacity="1" /><path clip-path="url(#clip920)" d="M1781.84 1451.02 L1800.2 1451.02 L1800.2 1454.96 L1786.13 1454.96 L1786.13 1463.43 Q1787.14 1463.08 1788.16 1462.92 Q1789.18 1462.73 1790.2 1462.73 Q1795.99 1462.73 1799.37 1465.9 Q1802.75 1469.08 1802.75 1474.49 Q1802.75 1480.07 1799.27 1483.17 Q1795.8 1486.25 1789.48 1486.25 Q1787.31 1486.25 1785.04 1485.88 Q1782.79 1485.51 1780.39 1484.77 L1780.39 1480.07 Q1782.47 1481.2 1784.69 1481.76 Q1786.91 1482.32 1789.39 1482.32 Q1793.39 1482.32 1795.73 1480.21 Q1798.07 1478.1 1798.07 1474.49 Q1798.07 1470.88 1795.73 1468.77 Q1793.39 1466.67 1789.39 1466.67 Q1787.52 1466.67 1785.64 1467.08 Q1783.79 1467.5 1781.84 1468.38 L1781.84 1451.02 Z" fill="#000000" fill-rule="evenodd" fill-opacity="1" /><path clip-path="url(#clip920)" d="M1821.96 1454.1 Q1818.35 1454.1 1816.52 1457.66 Q1814.71 1461.2 1814.71 1468.33 Q1814.71 1475.44 1816.52 1479.01 Q1818.35 1482.55 1821.96 1482.55 Q1825.59 1482.55 1827.4 1479.01 Q1829.23 1475.44 1829.23 1468.33 Q1829.23 1461.2 1827.4 1457.66 Q1825.59 1454.1 1821.96 1454.1 M1821.96 1450.39 Q1827.77 1450.39 1830.83 1455 Q1833.9 1459.58 1833.9 1468.33 Q1833.9 1477.06 1830.83 1481.67 Q1827.77 1486.25 1821.96 1486.25 Q1816.15 1486.25 1813.07 1481.67 Q1810.02 1477.06 1810.02 1468.33 Q1810.02 1459.58 1813.07 1455 Q1816.15 1450.39 1821.96 1450.39 Z" fill="#000000" fill-rule="evenodd" fill-opacity="1" /><path clip-path="url(#clip920)" d="M2237.76 1481.64 L2245.4 1481.64 L2245.4 1455.28 L2237.09 1456.95 L2237.09 1452.69 L2245.35 1451.02 L2250.03 1451.02 L2250.03 1481.64 L2257.66 1481.64 L2257.66 1485.58 L2237.76 1485.58 L2237.76 1481.64 Z" fill="#000000" fill-rule="evenodd" fill-opacity="1" /><path clip-path="url(#clip920)" d="M2277.11 1454.1 Q2273.5 1454.1 2271.67 1457.66 Q2269.86 1461.2 2269.86 1468.33 Q2269.86 1475.44 2271.67 1479.01 Q2273.5 1482.55 2277.11 1482.55 Q2280.74 1482.55 2282.55 1479.01 Q2284.38 1475.44 2284.38 1468.33 Q2284.38 1461.2 2282.55 1457.66 Q2280.74 1454.1 2277.11 1454.1 M2277.11 1450.39 Q2282.92 1450.39 2285.97 1455 Q2289.05 1459.58 2289.05 1468.33 Q2289.05 1477.06 2285.97 1481.67 Q2282.92 1486.25 2277.11 1486.25 Q2271.3 1486.25 2268.22 1481.67 Q2265.16 1477.06 2265.16 1468.33 Q2265.16 1459.58 2268.22 1455 Q2271.3 1450.39 2277.11 1450.39 Z" fill="#000000" fill-rule="evenodd" fill-opacity="1" /><path clip-path="url(#clip920)" d="M2307.27 1454.1 Q2303.66 1454.1 2301.83 1457.66 Q2300.02 1461.2 2300.02 1468.33 Q2300.02 1475.44 2301.83 1479.01 Q2303.66 1482.55 2307.27 1482.55 Q2310.9 1482.55 2312.71 1479.01 Q2314.54 1475.44 2314.54 1468.33 Q2314.54 1461.2 2312.71 1457.66 Q2310.9 1454.1 2307.27 1454.1 M2307.27 1450.39 Q2313.08 1450.39 2316.14 1455 Q2319.21 1459.58 2319.21 1468.33 Q2319.21 1477.06 2316.14 1481.67 Q2313.08 1486.25 2307.27 1486.25 Q2301.46 1486.25 2298.38 1481.67 Q2295.33 1477.06 2295.33 1468.33 Q2295.33 1459.58 2298.38 1455 Q2301.46 1450.39 2307.27 1450.39 Z" fill="#000000" fill-rule="evenodd" fill-opacity="1" /><path clip-path="url(#clip920)" d="M2337.43 1454.1 Q2333.82 1454.1 2331.99 1457.66 Q2330.19 1461.2 2330.19 1468.33 Q2330.19 1475.44 2331.99 1479.01 Q2333.82 1482.55 2337.43 1482.55 Q2341.07 1482.55 2342.87 1479.01 Q2344.7 1475.44 2344.7 1468.33 Q2344.7 1461.2 2342.87 1457.66 Q2341.07 1454.1 2337.43 1454.1 M2337.43 1450.39 Q2343.24 1450.39 2346.3 1455 Q2349.38 1459.58 2349.38 1468.33 Q2349.38 1477.06 2346.3 1481.67 Q2343.24 1486.25 2337.43 1486.25 Q2331.62 1486.25 2328.54 1481.67 Q2325.49 1477.06 2325.49 1468.33 Q2325.49 1459.58 2328.54 1455 Q2331.62 1450.39 2337.43 1450.39 Z" fill="#000000" fill-rule="evenodd" fill-opacity="1" /><path clip-path="url(#clip920)" d="M1065.68 1520.52 L1072.11 1520.52 L1072.11 1562.63 L1095.25 1562.63 L1095.25 1568.04 L1065.68 1568.04 L1065.68 1520.52 Z" fill="#000000" fill-rule="evenodd" fill-opacity="1" /><path clip-path="url(#clip920)" d="M1101.74 1532.4 L1107.6 1532.4 L1107.6 1568.04 L1101.74 1568.04 L1101.74 1532.4 M1101.74 1518.52 L1107.6 1518.52 L1107.6 1525.93 L1101.74 1525.93 L1101.74 1518.52 Z" fill="#000000" fill-rule="evenodd" fill-opacity="1" /><path clip-path="url(#clip920)" d="M1145.44 1550.25 Q1145.44 1543.79 1142.77 1540.13 Q1140.13 1536.44 1135.48 1536.44 Q1130.83 1536.44 1128.16 1540.13 Q1125.52 1543.79 1125.52 1550.25 Q1125.52 1556.71 1128.16 1560.4 Q1130.83 1564.07 1135.48 1564.07 Q1140.13 1564.07 1142.77 1560.4 Q1145.44 1556.71 1145.44 1550.25 M1125.52 1537.81 Q1127.37 1534.62 1130.17 1533.1 Q1133 1531.54 1136.91 1531.54 Q1143.41 1531.54 1147.45 1536.69 Q1151.52 1541.85 1151.52 1550.25 Q1151.52 1558.65 1147.45 1563.81 Q1143.41 1568.97 1136.91 1568.97 Q1133 1568.97 1130.17 1567.44 Q1127.37 1565.88 1125.52 1562.7 L1125.52 1568.04 L1119.63 1568.04 L1119.63 1518.52 L1125.52 1518.52 L1125.52 1537.81 Z" fill="#000000" fill-rule="evenodd" fill-opacity="1" /><path clip-path="url(#clip920)" d="M1181.89 1537.87 Q1180.9 1537.3 1179.72 1537.04 Q1178.58 1536.76 1177.18 1536.76 Q1172.21 1536.76 1169.54 1540 Q1166.9 1543.22 1166.9 1549.27 L1166.9 1568.04 L1161.01 1568.04 L1161.01 1532.4 L1166.9 1532.4 L1166.9 1537.93 Q1168.74 1534.69 1171.7 1533.13 Q1174.66 1531.54 1178.9 1531.54 Q1179.5 1531.54 1180.23 1531.63 Q1180.96 1531.7 1181.86 1531.85 L1181.89 1537.87 Z" fill="#000000" fill-rule="evenodd" fill-opacity="1" /><path clip-path="url(#clip920)" d="M1204.23 1550.12 Q1197.13 1550.12 1194.4 1551.75 Q1191.66 1553.37 1191.66 1557.29 Q1191.66 1560.4 1193.7 1562.25 Q1195.76 1564.07 1199.3 1564.07 Q1204.17 1564.07 1207.1 1560.63 Q1210.06 1557.16 1210.06 1551.43 L1210.06 1550.12 L1204.23 1550.12 M1215.91 1547.71 L1215.91 1568.04 L1210.06 1568.04 L1210.06 1562.63 Q1208.05 1565.88 1205.06 1567.44 Q1202.07 1568.97 1197.74 1568.97 Q1192.26 1568.97 1189.02 1565.91 Q1185.8 1562.82 1185.8 1557.67 Q1185.8 1551.65 1189.81 1548.6 Q1193.85 1545.54 1201.84 1545.54 L1210.06 1545.54 L1210.06 1544.97 Q1210.06 1540.93 1207.38 1538.73 Q1204.74 1536.5 1199.93 1536.5 Q1196.88 1536.5 1193.98 1537.23 Q1191.09 1537.97 1188.41 1539.43 L1188.41 1534.02 Q1191.63 1532.78 1194.65 1532.17 Q1197.67 1531.54 1200.54 1531.54 Q1208.27 1531.54 1212.09 1535.55 Q1215.91 1539.56 1215.91 1547.71 Z" fill="#000000" fill-rule="evenodd" fill-opacity="1" /><path clip-path="url(#clip920)" d="M1248.63 1537.87 Q1247.65 1537.3 1246.47 1537.04 Q1245.32 1536.76 1243.92 1536.76 Q1238.96 1536.76 1236.28 1540 Q1233.64 1543.22 1233.64 1549.27 L1233.64 1568.04 L1227.75 1568.04 L1227.75 1532.4 L1233.64 1532.4 L1233.64 1537.93 Q1235.49 1534.69 1238.45 1533.13 Q1241.41 1531.54 1245.64 1531.54 Q1246.24 1531.54 1246.98 1531.63 Q1247.71 1531.7 1248.6 1531.85 L1248.63 1537.87 Z" fill="#000000" fill-rule="evenodd" fill-opacity="1" /><path clip-path="url(#clip920)" d="M1269.61 1571.35 Q1267.12 1577.72 1264.77 1579.66 Q1262.41 1581.6 1258.47 1581.6 L1253.79 1581.6 L1253.79 1576.7 L1257.23 1576.7 Q1259.64 1576.7 1260.98 1575.56 Q1262.32 1574.41 1263.94 1570.14 L1264.99 1567.47 L1250.57 1532.4 L1256.78 1532.4 L1267.92 1560.28 L1279.06 1532.4 L1285.27 1532.4 L1269.61 1571.35 Z" fill="#000000" fill-rule="evenodd" fill-opacity="1" /><path clip-path="url(#clip920)" d="M1336.8 1533.45 L1336.8 1538.98 Q1334.31 1537.71 1331.64 1537.07 Q1328.97 1536.44 1326.1 1536.44 Q1321.74 1536.44 1319.55 1537.77 Q1317.38 1539.11 1317.38 1541.79 Q1317.38 1543.82 1318.94 1545 Q1320.5 1546.15 1325.21 1547.2 L1327.22 1547.64 Q1333.45 1548.98 1336.06 1551.43 Q1338.71 1553.85 1338.71 1558.21 Q1338.71 1563.17 1334.76 1566.07 Q1330.84 1568.97 1323.97 1568.97 Q1321.11 1568.97 1317.99 1568.39 Q1314.9 1567.85 1311.46 1566.74 L1311.46 1560.69 Q1314.71 1562.38 1317.86 1563.24 Q1321.01 1564.07 1324.1 1564.07 Q1328.24 1564.07 1330.46 1562.66 Q1332.69 1561.23 1332.69 1558.65 Q1332.69 1556.27 1331.07 1554.99 Q1329.48 1553.72 1324.03 1552.54 L1322 1552.07 Q1316.55 1550.92 1314.14 1548.56 Q1311.72 1546.18 1311.72 1542.04 Q1311.72 1537.01 1315.28 1534.27 Q1318.85 1531.54 1325.4 1531.54 Q1328.65 1531.54 1331.51 1532.01 Q1334.38 1532.49 1336.8 1533.45 Z" fill="#000000" fill-rule="evenodd" fill-opacity="1" /><path clip-path="url(#clip920)" d="M1348.03 1532.4 L1353.89 1532.4 L1353.89 1568.04 L1348.03 1568.04 L1348.03 1532.4 M1348.03 1518.52 L1353.89 1518.52 L1353.89 1525.93 L1348.03 1525.93 L1348.03 1518.52 Z" fill="#000000" fill-rule="evenodd" fill-opacity="1" /><path clip-path="url(#clip920)" d="M1363.6 1532.4 L1391.41 1532.4 L1391.41 1537.74 L1369.39 1563.37 L1391.41 1563.37 L1391.41 1568.04 L1362.8 1568.04 L1362.8 1562.7 L1384.83 1537.07 L1363.6 1537.07 L1363.6 1532.4 Z" fill="#000000" fill-rule="evenodd" fill-opacity="1" /><path clip-path="url(#clip920)" d="M1430.85 1548.76 L1430.85 1551.62 L1403.92 1551.62 Q1404.31 1557.67 1407.55 1560.85 Q1410.83 1564 1416.65 1564 Q1420.03 1564 1423.18 1563.17 Q1426.36 1562.35 1429.48 1560.69 L1429.48 1566.23 Q1426.33 1567.57 1423.02 1568.27 Q1419.71 1568.97 1416.3 1568.97 Q1407.77 1568.97 1402.78 1564 Q1397.81 1559.04 1397.81 1550.57 Q1397.81 1541.82 1402.52 1536.69 Q1407.27 1531.54 1415.29 1531.54 Q1422.48 1531.54 1426.65 1536.18 Q1430.85 1540.8 1430.85 1548.76 M1424.99 1547.04 Q1424.93 1542.23 1422.29 1539.37 Q1419.68 1536.5 1415.35 1536.5 Q1410.45 1536.5 1407.49 1539.27 Q1404.56 1542.04 1404.11 1547.07 L1424.99 1547.04 Z" fill="#000000" fill-rule="evenodd" fill-opacity="1" /><path clip-path="url(#clip920)" d="M1475.25 1518.58 Q1470.99 1525.9 1468.92 1533.06 Q1466.85 1540.23 1466.85 1547.58 Q1466.85 1554.93 1468.92 1562.16 Q1471.02 1569.35 1475.25 1576.64 L1470.16 1576.64 Q1465.38 1569.16 1463 1561.93 Q1460.64 1554.71 1460.64 1547.58 Q1460.64 1540.48 1463 1533.29 Q1465.35 1526.09 1470.16 1518.58 L1475.25 1518.58 Z" fill="#000000" fill-rule="evenodd" fill-opacity="1" /><path clip-path="url(#clip920)" d="M1486.87 1520.52 L1493.3 1520.52 L1493.3 1562.63 L1516.44 1562.63 L1516.44 1568.04 L1486.87 1568.04 L1486.87 1520.52 Z" fill="#000000" fill-rule="evenodd" fill-opacity="1" /><path clip-path="url(#clip920)" d="M1522.01 1518.58 L1527.1 1518.58 Q1531.87 1526.09 1534.23 1533.29 Q1536.62 1540.48 1536.62 1547.58 Q1536.62 1554.71 1534.23 1561.93 Q1531.87 1569.16 1527.1 1576.64 L1522.01 1576.64 Q1526.24 1569.35 1528.31 1562.16 Q1530.41 1554.93 1530.41 1547.58 Q1530.41 1540.23 1528.31 1533.06 Q1526.24 1525.9 1522.01 1518.58 Z" fill="#000000" fill-rule="evenodd" fill-opacity="1" /><polyline clip-path="url(#clip922)" style="stroke:#000000; stroke-linecap:butt; stroke-linejoin:round; stroke-width:2; stroke-opacity:0.1; fill:none" points="
  249.542,1360.64 2352.76,1360.64 
  "/>
<polyline clip-path="url(#clip922)" style="stroke:#000000; stroke-linecap:butt; stroke-linejoin:round; stroke-width:2; stroke-opacity:0.1; fill:none" points="
  249.542,1047.92 2352.76,1047.92 
  "/>
<polyline clip-path="url(#clip922)" style="stroke:#000000; stroke-linecap:butt; stroke-linejoin:round; stroke-width:2; stroke-opacity:0.1; fill:none" points="
  249.542,735.212 2352.76,735.212 
  "/>
<polyline clip-path="url(#clip922)" style="stroke:#000000; stroke-linecap:butt; stroke-linejoin:round; stroke-width:2; stroke-opacity:0.1; fill:none" points="
  249.542,422.499 2352.76,422.499 
  "/>
<polyline clip-path="url(#clip922)" style="stroke:#000000; stroke-linecap:butt; stroke-linejoin:round; stroke-width:2; stroke-opacity:0.1; fill:none" points="
  249.542,109.787 2352.76,109.787 
  "/>
<polyline clip-path="url(#clip920)" style="stroke:#000000; stroke-linecap:butt; stroke-linejoin:round; stroke-width:4; stroke-opacity:1; fill:none" points="
  249.542,1423.18 249.542,47.2441 
  "/>
<polyline clip-path="url(#clip920)" style="stroke:#000000; stroke-linecap:butt; stroke-linejoin:round; stroke-width:4; stroke-opacity:1; fill:none" points="
  249.542,1360.64 268.44,1360.64 
  "/>
<polyline clip-path="url(#clip920)" style="stroke:#000000; stroke-linecap:butt; stroke-linejoin:round; stroke-width:4; stroke-opacity:1; fill:none" points="
  249.542,1047.92 268.44,1047.92 
  "/>
<polyline clip-path="url(#clip920)" style="stroke:#000000; stroke-linecap:butt; stroke-linejoin:round; stroke-width:4; stroke-opacity:1; fill:none" points="
  249.542,735.212 268.44,735.212 
  "/>
<polyline clip-path="url(#clip920)" style="stroke:#000000; stroke-linecap:butt; stroke-linejoin:round; stroke-width:4; stroke-opacity:1; fill:none" points="
  249.542,422.499 268.44,422.499 
  "/>
<polyline clip-path="url(#clip920)" style="stroke:#000000; stroke-linecap:butt; stroke-linejoin:round; stroke-width:4; stroke-opacity:1; fill:none" points="
  249.542,109.787 268.44,109.787 
  "/>
<path clip-path="url(#clip920)" d="M126.205 1346.44 Q122.593 1346.44 120.765 1350 Q118.959 1353.54 118.959 1360.67 Q118.959 1367.78 120.765 1371.34 Q122.593 1374.88 126.205 1374.88 Q129.839 1374.88 131.644 1371.34 Q133.473 1367.78 133.473 1360.67 Q133.473 1353.54 131.644 1350 Q129.839 1346.44 126.205 1346.44 M126.205 1342.73 Q132.015 1342.73 135.07 1347.34 Q138.149 1351.92 138.149 1360.67 Q138.149 1369.4 135.07 1374.01 Q132.015 1378.59 126.205 1378.59 Q120.394 1378.59 117.316 1374.01 Q114.26 1369.4 114.26 1360.67 Q114.26 1351.92 117.316 1347.34 Q120.394 1342.73 126.205 1342.73 Z" fill="#000000" fill-rule="evenodd" fill-opacity="1" /><path clip-path="url(#clip920)" d="M146.366 1372.04 L151.251 1372.04 L151.251 1377.92 L146.366 1377.92 L146.366 1372.04 Z" fill="#000000" fill-rule="evenodd" fill-opacity="1" /><path clip-path="url(#clip920)" d="M171.436 1346.44 Q167.825 1346.44 165.996 1350 Q164.19 1353.54 164.19 1360.67 Q164.19 1367.78 165.996 1371.34 Q167.825 1374.88 171.436 1374.88 Q175.07 1374.88 176.876 1371.34 Q178.704 1367.78 178.704 1360.67 Q178.704 1353.54 176.876 1350 Q175.07 1346.44 171.436 1346.44 M171.436 1342.73 Q177.246 1342.73 180.301 1347.34 Q183.38 1351.92 183.38 1360.67 Q183.38 1369.4 180.301 1374.01 Q177.246 1378.59 171.436 1378.59 Q165.626 1378.59 162.547 1374.01 Q159.491 1369.4 159.491 1360.67 Q159.491 1351.92 162.547 1347.34 Q165.626 1342.73 171.436 1342.73 Z" fill="#000000" fill-rule="evenodd" fill-opacity="1" /><path clip-path="url(#clip920)" d="M201.598 1346.44 Q197.987 1346.44 196.158 1350 Q194.352 1353.54 194.352 1360.67 Q194.352 1367.78 196.158 1371.34 Q197.987 1374.88 201.598 1374.88 Q205.232 1374.88 207.037 1371.34 Q208.866 1367.78 208.866 1360.67 Q208.866 1353.54 207.037 1350 Q205.232 1346.44 201.598 1346.44 M201.598 1342.73 Q207.408 1342.73 210.463 1347.34 Q213.542 1351.92 213.542 1360.67 Q213.542 1369.4 210.463 1374.01 Q207.408 1378.59 201.598 1378.59 Q195.787 1378.59 192.709 1374.01 Q189.653 1369.4 189.653 1360.67 Q189.653 1351.92 192.709 1347.34 Q195.787 1342.73 201.598 1342.73 Z" fill="#000000" fill-rule="evenodd" fill-opacity="1" /><path clip-path="url(#clip920)" d="M127.2 1033.72 Q123.589 1033.72 121.76 1037.29 Q119.955 1040.83 119.955 1047.96 Q119.955 1055.07 121.76 1058.63 Q123.589 1062.17 127.2 1062.17 Q130.834 1062.17 132.64 1058.63 Q134.468 1055.07 134.468 1047.96 Q134.468 1040.83 132.64 1037.29 Q130.834 1033.72 127.2 1033.72 M127.2 1030.02 Q133.01 1030.02 136.066 1034.63 Q139.144 1039.21 139.144 1047.96 Q139.144 1056.69 136.066 1061.29 Q133.01 1065.88 127.2 1065.88 Q121.39 1065.88 118.311 1061.29 Q115.256 1056.69 115.256 1047.96 Q115.256 1039.21 118.311 1034.63 Q121.39 1030.02 127.2 1030.02 Z" fill="#000000" fill-rule="evenodd" fill-opacity="1" /><path clip-path="url(#clip920)" d="M147.362 1059.33 L152.246 1059.33 L152.246 1065.2 L147.362 1065.2 L147.362 1059.33 Z" fill="#000000" fill-rule="evenodd" fill-opacity="1" /><path clip-path="url(#clip920)" d="M166.459 1061.27 L182.778 1061.27 L182.778 1065.2 L160.834 1065.2 L160.834 1061.27 Q163.496 1058.51 168.079 1053.89 Q172.686 1049.23 173.866 1047.89 Q176.112 1045.37 176.991 1043.63 Q177.894 1041.87 177.894 1040.18 Q177.894 1037.43 175.95 1035.69 Q174.028 1033.95 170.927 1033.95 Q168.727 1033.95 166.274 1034.72 Q163.843 1035.48 161.065 1037.03 L161.065 1032.31 Q163.89 1031.18 166.343 1030.6 Q168.797 1030.02 170.834 1030.02 Q176.204 1030.02 179.399 1032.7 Q182.593 1035.39 182.593 1039.88 Q182.593 1042.01 181.783 1043.93 Q180.996 1045.83 178.889 1048.42 Q178.311 1049.09 175.209 1052.31 Q172.107 1055.51 166.459 1061.27 Z" fill="#000000" fill-rule="evenodd" fill-opacity="1" /><path clip-path="url(#clip920)" d="M192.639 1030.64 L210.996 1030.64 L210.996 1034.58 L196.922 1034.58 L196.922 1043.05 Q197.94 1042.7 198.959 1042.54 Q199.977 1042.36 200.996 1042.36 Q206.783 1042.36 210.162 1045.53 Q213.542 1048.7 213.542 1054.12 Q213.542 1059.7 210.07 1062.8 Q206.598 1065.88 200.278 1065.88 Q198.102 1065.88 195.834 1065.51 Q193.588 1065.14 191.181 1064.39 L191.181 1059.7 Q193.264 1060.83 195.487 1061.39 Q197.709 1061.94 200.186 1061.94 Q204.19 1061.94 206.528 1059.83 Q208.866 1057.73 208.866 1054.12 Q208.866 1050.51 206.528 1048.4 Q204.19 1046.29 200.186 1046.29 Q198.311 1046.29 196.436 1046.71 Q194.584 1047.13 192.639 1048.01 L192.639 1030.64 Z" fill="#000000" fill-rule="evenodd" fill-opacity="1" /><path clip-path="url(#clip920)" d="M126.205 721.011 Q122.593 721.011 120.765 724.575 Q118.959 728.117 118.959 735.247 Q118.959 742.353 120.765 745.918 Q122.593 749.46 126.205 749.46 Q129.839 749.46 131.644 745.918 Q133.473 742.353 133.473 735.247 Q133.473 728.117 131.644 724.575 Q129.839 721.011 126.205 721.011 M126.205 717.307 Q132.015 717.307 135.07 721.913 Q138.149 726.497 138.149 735.247 Q138.149 743.973 135.07 748.58 Q132.015 753.163 126.205 753.163 Q120.394 753.163 117.316 748.58 Q114.26 743.973 114.26 735.247 Q114.26 726.497 117.316 721.913 Q120.394 717.307 126.205 717.307 Z" fill="#000000" fill-rule="evenodd" fill-opacity="1" /><path clip-path="url(#clip920)" d="M146.366 746.612 L151.251 746.612 L151.251 752.492 L146.366 752.492 L146.366 746.612 Z" fill="#000000" fill-rule="evenodd" fill-opacity="1" /><path clip-path="url(#clip920)" d="M161.482 717.932 L179.839 717.932 L179.839 721.867 L165.765 721.867 L165.765 730.339 Q166.783 729.992 167.802 729.83 Q168.82 729.645 169.839 729.645 Q175.626 729.645 179.005 732.816 Q182.385 735.987 182.385 741.404 Q182.385 746.983 178.913 750.085 Q175.44 753.163 169.121 753.163 Q166.945 753.163 164.677 752.793 Q162.431 752.423 160.024 751.682 L160.024 746.983 Q162.107 748.117 164.329 748.673 Q166.552 749.228 169.028 749.228 Q173.033 749.228 175.371 747.122 Q177.709 745.015 177.709 741.404 Q177.709 737.793 175.371 735.687 Q173.033 733.58 169.028 733.58 Q167.153 733.58 165.278 733.997 Q163.427 734.413 161.482 735.293 L161.482 717.932 Z" fill="#000000" fill-rule="evenodd" fill-opacity="1" /><path clip-path="url(#clip920)" d="M201.598 721.011 Q197.987 721.011 196.158 724.575 Q194.352 728.117 194.352 735.247 Q194.352 742.353 196.158 745.918 Q197.987 749.46 201.598 749.46 Q205.232 749.46 207.037 745.918 Q208.866 742.353 208.866 735.247 Q208.866 728.117 207.037 724.575 Q205.232 721.011 201.598 721.011 M201.598 717.307 Q207.408 717.307 210.463 721.913 Q213.542 726.497 213.542 735.247 Q213.542 743.973 210.463 748.58 Q207.408 753.163 201.598 753.163 Q195.787 753.163 192.709 748.58 Q189.653 743.973 189.653 735.247 Q189.653 726.497 192.709 721.913 Q195.787 717.307 201.598 717.307 Z" fill="#000000" fill-rule="evenodd" fill-opacity="1" /><path clip-path="url(#clip920)" d="M127.2 408.298 Q123.589 408.298 121.76 411.863 Q119.955 415.404 119.955 422.534 Q119.955 429.64 121.76 433.205 Q123.589 436.747 127.2 436.747 Q130.834 436.747 132.64 433.205 Q134.468 429.64 134.468 422.534 Q134.468 415.404 132.64 411.863 Q130.834 408.298 127.2 408.298 M127.2 404.594 Q133.01 404.594 136.066 409.201 Q139.144 413.784 139.144 422.534 Q139.144 431.261 136.066 435.867 Q133.01 440.451 127.2 440.451 Q121.39 440.451 118.311 435.867 Q115.256 431.261 115.256 422.534 Q115.256 413.784 118.311 409.201 Q121.39 404.594 127.2 404.594 Z" fill="#000000" fill-rule="evenodd" fill-opacity="1" /><path clip-path="url(#clip920)" d="M147.362 433.9 L152.246 433.9 L152.246 439.779 L147.362 439.779 L147.362 433.9 Z" fill="#000000" fill-rule="evenodd" fill-opacity="1" /><path clip-path="url(#clip920)" d="M161.251 405.219 L183.473 405.219 L183.473 407.21 L170.927 439.779 L166.042 439.779 L177.848 409.154 L161.251 409.154 L161.251 405.219 Z" fill="#000000" fill-rule="evenodd" fill-opacity="1" /><path clip-path="url(#clip920)" d="M192.639 405.219 L210.996 405.219 L210.996 409.154 L196.922 409.154 L196.922 417.627 Q197.94 417.279 198.959 417.117 Q199.977 416.932 200.996 416.932 Q206.783 416.932 210.162 420.103 Q213.542 423.275 213.542 428.691 Q213.542 434.27 210.07 437.372 Q206.598 440.451 200.278 440.451 Q198.102 440.451 195.834 440.08 Q193.588 439.71 191.181 438.969 L191.181 434.27 Q193.264 435.404 195.487 435.96 Q197.709 436.515 200.186 436.515 Q204.19 436.515 206.528 434.409 Q208.866 432.302 208.866 428.691 Q208.866 425.08 206.528 422.974 Q204.19 420.867 200.186 420.867 Q198.311 420.867 196.436 421.284 Q194.584 421.701 192.639 422.58 L192.639 405.219 Z" fill="#000000" fill-rule="evenodd" fill-opacity="1" /><path clip-path="url(#clip920)" d="M117.015 123.131 L124.654 123.131 L124.654 96.7659 L116.343 98.4325 L116.343 94.1733 L124.607 92.5066 L129.283 92.5066 L129.283 123.131 L136.922 123.131 L136.922 127.067 L117.015 127.067 L117.015 123.131 Z" fill="#000000" fill-rule="evenodd" fill-opacity="1" /><path clip-path="url(#clip920)" d="M146.366 121.187 L151.251 121.187 L151.251 127.067 L146.366 127.067 L146.366 121.187 Z" fill="#000000" fill-rule="evenodd" fill-opacity="1" /><path clip-path="url(#clip920)" d="M171.436 95.5853 Q167.825 95.5853 165.996 99.1501 Q164.19 102.692 164.19 109.821 Q164.19 116.928 165.996 120.493 Q167.825 124.034 171.436 124.034 Q175.07 124.034 176.876 120.493 Q178.704 116.928 178.704 109.821 Q178.704 102.692 176.876 99.1501 Q175.07 95.5853 171.436 95.5853 M171.436 91.8816 Q177.246 91.8816 180.301 96.4881 Q183.38 101.071 183.38 109.821 Q183.38 118.548 180.301 123.155 Q177.246 127.738 171.436 127.738 Q165.626 127.738 162.547 123.155 Q159.491 118.548 159.491 109.821 Q159.491 101.071 162.547 96.4881 Q165.626 91.8816 171.436 91.8816 Z" fill="#000000" fill-rule="evenodd" fill-opacity="1" /><path clip-path="url(#clip920)" d="M201.598 95.5853 Q197.987 95.5853 196.158 99.1501 Q194.352 102.692 194.352 109.821 Q194.352 116.928 196.158 120.493 Q197.987 124.034 201.598 124.034 Q205.232 124.034 207.037 120.493 Q208.866 116.928 208.866 109.821 Q208.866 102.692 207.037 99.1501 Q205.232 95.5853 201.598 95.5853 M201.598 91.8816 Q207.408 91.8816 210.463 96.4881 Q213.542 101.071 213.542 109.821 Q213.542 118.548 210.463 123.155 Q207.408 127.738 201.598 127.738 Q195.787 127.738 192.709 123.155 Q189.653 118.548 189.653 109.821 Q189.653 101.071 192.709 96.4881 Q195.787 91.8816 201.598 91.8816 Z" fill="#000000" fill-rule="evenodd" fill-opacity="1" /><path clip-path="url(#clip920)" d="M20.1444 928.459 L26.9239 928.459 Q23.9002 931.705 22.4043 935.398 Q20.9083 939.058 20.9083 943.196 Q20.9083 951.344 25.9054 955.672 Q30.8707 960.001 40.2919 960.001 Q49.6813 960.001 54.6784 955.672 Q59.6436 951.344 59.6436 943.196 Q59.6436 939.058 58.1477 935.398 Q56.6518 931.705 53.6281 928.459 L60.3439 928.459 Q62.6355 931.833 63.7814 935.62 Q64.9272 939.376 64.9272 943.577 Q64.9272 954.367 58.3387 960.574 Q51.7183 966.78 40.2919 966.78 Q28.8336 966.78 22.2451 960.574 Q15.6248 954.367 15.6248 943.577 Q15.6248 939.312 16.7706 935.557 Q17.8846 931.769 20.1444 928.459 Z" fill="#000000" fill-rule="evenodd" fill-opacity="1" /><path clip-path="url(#clip920)" d="M32.4621 904.969 Q32.4621 909.68 36.1542 912.417 Q39.8145 915.155 46.212 915.155 Q52.6095 915.155 56.3017 912.449 Q59.9619 909.712 59.9619 904.969 Q59.9619 900.291 56.2698 897.553 Q52.5777 894.816 46.212 894.816 Q39.8781 894.816 36.186 897.553 Q32.4621 900.291 32.4621 904.969 M27.4968 904.969 Q27.4968 897.331 32.4621 892.97 Q37.4273 888.61 46.212 888.61 Q54.9649 888.61 59.9619 892.97 Q64.9272 897.331 64.9272 904.969 Q64.9272 912.64 59.9619 917.001 Q54.9649 921.329 46.212 921.329 Q37.4273 921.329 32.4621 917.001 Q27.4968 912.64 27.4968 904.969 Z" fill="#000000" fill-rule="evenodd" fill-opacity="1" /><path clip-path="url(#clip920)" d="M33.8307 858.245 Q33.2578 859.232 33.0032 860.41 Q32.7167 861.555 32.7167 862.956 Q32.7167 867.921 35.9632 870.595 Q39.1779 873.236 45.2253 873.236 L64.0042 873.236 L64.0042 879.125 L28.3562 879.125 L28.3562 873.236 L33.8944 873.236 Q30.6479 871.39 29.0883 868.43 Q27.4968 865.47 27.4968 861.237 Q27.4968 860.632 27.5923 859.9 Q27.656 859.168 27.8151 858.277 L33.8307 858.245 Z" fill="#000000" fill-rule="evenodd" fill-opacity="1" /><path clip-path="url(#clip920)" d="M33.8307 832.591 Q33.2578 833.578 33.0032 834.756 Q32.7167 835.902 32.7167 837.302 Q32.7167 842.267 35.9632 844.941 Q39.1779 847.583 45.2253 847.583 L64.0042 847.583 L64.0042 853.471 L28.3562 853.471 L28.3562 847.583 L33.8944 847.583 Q30.6479 845.737 29.0883 842.776 Q27.4968 839.816 27.4968 835.583 Q27.4968 834.979 27.5923 834.246 Q27.656 833.514 27.8151 832.623 L33.8307 832.591 Z" fill="#000000" fill-rule="evenodd" fill-opacity="1" /><path clip-path="url(#clip920)" d="M44.7161 797.389 L47.5806 797.389 L47.5806 824.316 Q53.6281 823.934 56.8109 820.687 Q59.9619 817.409 59.9619 811.585 Q59.9619 808.211 59.1344 805.06 Q58.3069 801.877 56.6518 798.758 L62.1899 798.758 Q63.5267 801.909 64.227 805.219 Q64.9272 808.529 64.9272 811.935 Q64.9272 820.465 59.9619 825.462 Q54.9967 830.427 46.5303 830.427 Q37.7774 830.427 32.6531 825.716 Q27.4968 820.974 27.4968 812.953 Q27.4968 805.76 32.1438 801.59 Q36.7589 797.389 44.7161 797.389 M42.9973 803.245 Q38.1912 803.309 35.3266 805.951 Q32.4621 808.561 32.4621 812.89 Q32.4621 817.791 35.2312 820.751 Q38.0002 823.679 43.0292 824.125 L42.9973 803.245 Z" fill="#000000" fill-rule="evenodd" fill-opacity="1" /><path clip-path="url(#clip920)" d="M14.479 787.777 L14.479 781.92 L64.0042 781.92 L64.0042 787.777 L14.479 787.777 Z" fill="#000000" fill-rule="evenodd" fill-opacity="1" /><path clip-path="url(#clip920)" d="M46.0847 753.466 Q46.0847 760.563 47.7079 763.301 Q49.3312 766.038 53.2461 766.038 Q56.3653 766.038 58.2114 764.001 Q60.0256 761.932 60.0256 758.399 Q60.0256 753.529 56.5881 750.601 Q53.1188 747.641 47.3897 747.641 L46.0847 747.641 L46.0847 753.466 M43.6657 741.785 L64.0042 741.785 L64.0042 747.641 L58.5933 747.641 Q61.8398 749.646 63.3994 752.638 Q64.9272 755.63 64.9272 759.959 Q64.9272 765.433 61.8716 768.68 Q58.7843 771.894 53.6281 771.894 Q47.6125 771.894 44.5569 767.884 Q41.5014 763.842 41.5014 755.853 L41.5014 747.641 L40.9285 747.641 Q36.8862 747.641 34.6901 750.315 Q32.4621 752.956 32.4621 757.762 Q32.4621 760.818 33.1941 763.714 Q33.9262 766.611 35.3903 769.284 L29.9795 769.284 Q28.7381 766.07 28.1334 763.046 Q27.4968 760.022 27.4968 757.158 Q27.4968 749.423 31.5072 745.604 Q35.5176 741.785 43.6657 741.785 Z" fill="#000000" fill-rule="evenodd" fill-opacity="1" /><path clip-path="url(#clip920)" d="M18.2347 723.929 L28.3562 723.929 L28.3562 711.866 L32.9077 711.866 L32.9077 723.929 L52.2594 723.929 Q56.6199 723.929 57.8613 722.751 Q59.1026 721.542 59.1026 717.881 L59.1026 711.866 L64.0042 711.866 L64.0042 717.881 Q64.0042 724.661 61.4897 727.239 Q58.9434 729.817 52.2594 729.817 L32.9077 729.817 L32.9077 734.114 L28.3562 734.114 L28.3562 729.817 L18.2347 729.817 L18.2347 723.929 Z" fill="#000000" fill-rule="evenodd" fill-opacity="1" /><path clip-path="url(#clip920)" d="M28.3562 704.163 L28.3562 698.307 L64.0042 698.307 L64.0042 704.163 L28.3562 704.163 M14.479 704.163 L14.479 698.307 L21.895 698.307 L21.895 704.163 L14.479 704.163 Z" fill="#000000" fill-rule="evenodd" fill-opacity="1" /><path clip-path="url(#clip920)" d="M32.4621 672.239 Q32.4621 676.95 36.1542 679.687 Q39.8145 682.424 46.212 682.424 Q52.6095 682.424 56.3017 679.719 Q59.9619 676.982 59.9619 672.239 Q59.9619 667.56 56.2698 664.823 Q52.5777 662.086 46.212 662.086 Q39.8781 662.086 36.186 664.823 Q32.4621 667.56 32.4621 672.239 M27.4968 672.239 Q27.4968 664.6 32.4621 660.24 Q37.4273 655.879 46.212 655.879 Q54.9649 655.879 59.9619 660.24 Q64.9272 664.6 64.9272 672.239 Q64.9272 679.91 59.9619 684.27 Q54.9649 688.599 46.212 688.599 Q37.4273 688.599 32.4621 684.27 Q27.4968 679.91 27.4968 672.239 Z" fill="#000000" fill-rule="evenodd" fill-opacity="1" /><path clip-path="url(#clip920)" d="M42.4881 616.539 L64.0042 616.539 L64.0042 622.396 L42.679 622.396 Q37.6183 622.396 35.1038 624.369 Q32.5894 626.342 32.5894 630.289 Q32.5894 635.032 35.6131 637.769 Q38.6368 640.506 43.8567 640.506 L64.0042 640.506 L64.0042 646.394 L28.3562 646.394 L28.3562 640.506 L33.8944 640.506 Q30.6797 638.405 29.0883 635.573 Q27.4968 632.708 27.4968 628.984 Q27.4968 622.841 31.3163 619.69 Q35.1038 616.539 42.4881 616.539 Z" fill="#000000" fill-rule="evenodd" fill-opacity="1" /><path clip-path="url(#clip920)" d="M14.5426 570.07 Q21.8632 574.335 29.0246 576.404 Q36.186 578.472 43.5384 578.472 Q50.8908 578.472 58.1159 576.404 Q65.3091 574.303 72.5979 570.07 L72.5979 575.162 Q65.1182 579.936 57.8931 582.324 Q50.668 584.679 43.5384 584.679 Q36.4406 584.679 29.2474 582.324 Q22.0542 579.968 14.5426 575.162 L14.5426 570.07 Z" fill="#000000" fill-rule="evenodd" fill-opacity="1" /><path clip-path="url(#clip920)" d="M34.7219 556.065 Q31.4754 554.124 28.6108 549.317 Q27.4968 547.44 27.4968 541.647 Q27.4968 535.154 32.6531 531.111 Q37.8093 527.037 46.212 527.037 Q54.6147 527.037 59.771 531.111 Q64.9272 535.154 64.9272 541.647 Q64.9272 545.562 63.3994 548.394 Q61.8398 551.195 58.657 553.041 L77.5631 553.041 L77.5631 558.93 L46.5303 558.93 Q39.1779 558.93 34.7219 556.065 M46.212 533.117 Q39.7508 533.117 36.0905 535.79 Q32.3984 538.432 32.3984 543.079 Q32.3984 547.726 36.0905 550.4 Q39.7508 553.041 46.212 553.041 Q52.6732 553.041 56.3653 550.4 Q60.0256 547.726 60.0256 543.079 Q60.0256 538.432 56.3653 535.79 Q52.6732 533.117 46.212 533.117 Z" fill="#000000" fill-rule="evenodd" fill-opacity="1" /><path clip-path="url(#clip920)" d="M14.5426 518.253 L14.5426 513.16 Q22.0542 508.386 29.2474 506.031 Q36.4406 503.643 43.5384 503.643 Q50.668 503.643 57.8931 506.031 Q65.1182 508.386 72.5979 513.16 L72.5979 518.253 Q65.3091 514.02 58.1159 511.951 Q50.8908 509.85 43.5384 509.85 Q36.186 509.85 29.0246 511.951 Q21.8632 514.02 14.5426 518.253 Z" fill="#000000" fill-rule="evenodd" fill-opacity="1" /><polyline clip-path="url(#clip922)" style="stroke:#000000; stroke-linecap:butt; stroke-linejoin:round; stroke-width:8; stroke-opacity:1; fill:none" stroke-dasharray="4, 8" points="
  309.067,157.223 329.109,467.111 349.151,967.797 369.193,556.636 389.235,461.638 409.277,473.388 429.319,550.019 449.361,435.148 469.403,503.851 489.446,486.246 
  529.53,542.75 569.614,769.052 609.698,853.183 649.782,890.015 689.866,738.68 729.95,776.945 770.034,783.163 810.118,697.548 850.203,705.458 890.287,795.692 
  990.497,735.383 1090.71,716.366 1190.92,679.708 1291.13,617.428 1391.34,665.834 1491.55,620.09 1591.76,590.55 1691.97,568.75 1792.18,524.617 1892.39,500.789 
  1992.6,495.307 2092.81,474.642 2193.02,449.954 2293.23,423.805 
  "/>
<polyline clip-path="url(#clip922)" style="stroke:#008000; stroke-linecap:butt; stroke-linejoin:round; stroke-width:8; stroke-opacity:1; fill:none" stroke-dasharray="32, 20" points="
  309.067,406.741 329.109,220.407 349.151,390.468 369.193,124.083 389.235,255.564 409.277,244.341 429.319,199.143 449.361,146.149 469.403,145.403 489.446,215.318 
  529.53,211.616 569.614,179.342 609.698,173.69 649.782,134.249 689.866,131.41 729.95,123.754 770.034,131.334 810.118,126.351 850.203,125.311 890.287,127.017 
  990.497,133.579 1090.71,130.014 1190.92,129.575 1291.13,128.551 1391.34,126.733 1491.55,125.045 1591.76,126.908 1691.97,126.138 1792.18,125.172 1892.39,124.37 
  1992.6,124.272 2092.81,123.158 2193.02,122.726 2293.23,122.259 
  "/>
<path clip-path="url(#clip920)" d="
M1001.16 1377.32 L2282.65 1377.32 L2282.65 1221.8 L1001.16 1221.8  Z
  " fill="#ffffff" fill-rule="evenodd" fill-opacity="1"/>
<polyline clip-path="url(#clip920)" style="stroke:#000000; stroke-linecap:butt; stroke-linejoin:round; stroke-width:4; stroke-opacity:1; fill:none" points="
  1001.16,1377.32 2282.65,1377.32 2282.65,1221.8 1001.16,1221.8 1001.16,1377.32 
  "/>
<polyline clip-path="url(#clip920)" style="stroke:#000000; stroke-linecap:butt; stroke-linejoin:round; stroke-width:4; stroke-opacity:1; fill:none" stroke-dasharray="2, 4" points="
  1024.53,1273.64 1164.75,1273.64 
  "/>
<path clip-path="url(#clip920)" d="M1208.62 1265.98 L1208.62 1269.97 Q1206.82 1268.97 1204.99 1268.48 Q1203.18 1267.98 1201.33 1267.98 Q1197.19 1267.98 1194.9 1270.61 Q1192.61 1273.23 1192.61 1277.98 Q1192.61 1282.72 1194.9 1285.36 Q1197.19 1287.98 1201.33 1287.98 Q1203.18 1287.98 1204.99 1287.49 Q1206.82 1286.98 1208.62 1285.98 L1208.62 1289.92 Q1206.84 1290.75 1204.92 1291.17 Q1203.02 1291.59 1200.87 1291.59 Q1195.01 1291.59 1191.56 1287.91 Q1188.12 1284.23 1188.12 1277.98 Q1188.12 1271.63 1191.59 1268 Q1195.08 1264.36 1201.15 1264.36 Q1203.12 1264.36 1204.99 1264.78 Q1206.87 1265.17 1208.62 1265.98 Z" fill="#000000" fill-rule="evenodd" fill-opacity="1" /><path clip-path="url(#clip920)" d="M1226.08 1267.98 Q1222.65 1267.98 1220.66 1270.66 Q1218.67 1273.32 1218.67 1277.98 Q1218.67 1282.63 1220.64 1285.31 Q1222.63 1287.98 1226.08 1287.98 Q1229.48 1287.98 1231.47 1285.29 Q1233.46 1282.61 1233.46 1277.98 Q1233.46 1273.37 1231.47 1270.68 Q1229.48 1267.98 1226.08 1267.98 M1226.08 1264.36 Q1231.63 1264.36 1234.8 1267.98 Q1237.98 1271.59 1237.98 1277.98 Q1237.98 1284.34 1234.8 1287.98 Q1231.63 1291.59 1226.08 1291.59 Q1220.5 1291.59 1217.33 1287.98 Q1214.18 1284.34 1214.18 1277.98 Q1214.18 1271.59 1217.33 1267.98 Q1220.5 1264.36 1226.08 1264.36 Z" fill="#000000" fill-rule="evenodd" fill-opacity="1" /><path clip-path="url(#clip920)" d="M1260.06 1268.97 Q1259.34 1268.55 1258.49 1268.37 Q1257.65 1268.16 1256.63 1268.16 Q1253.02 1268.16 1251.08 1270.52 Q1249.16 1272.86 1249.16 1277.26 L1249.16 1290.92 L1244.87 1290.92 L1244.87 1264.99 L1249.16 1264.99 L1249.16 1269.02 Q1250.5 1266.66 1252.65 1265.52 Q1254.8 1264.36 1257.88 1264.36 Q1258.32 1264.36 1258.86 1264.43 Q1259.39 1264.48 1260.04 1264.6 L1260.06 1268.97 Z" fill="#000000" fill-rule="evenodd" fill-opacity="1" /><path clip-path="url(#clip920)" d="M1274.76 1254.94 Q1271.66 1260.27 1270.15 1265.48 Q1268.65 1270.68 1268.65 1276.03 Q1268.65 1281.38 1270.15 1286.63 Q1271.68 1291.86 1274.76 1297.17 L1271.05 1297.17 Q1267.58 1291.73 1265.85 1286.47 Q1264.13 1281.22 1264.13 1276.03 Q1264.13 1270.87 1265.85 1265.64 Q1267.56 1260.41 1271.05 1254.94 L1274.76 1254.94 Z" fill="#000000" fill-rule="evenodd" fill-opacity="1" /><path clip-path="url(#clip920)" d="M1278.46 1256.36 L1283.49 1256.36 L1293.07 1270.57 L1302.58 1256.36 L1307.61 1256.36 L1295.38 1274.46 L1295.38 1290.92 L1290.68 1290.92 L1290.68 1274.46 L1278.46 1256.36 Z" fill="#000000" fill-rule="evenodd" fill-opacity="1" /><path clip-path="url(#clip920)" d="M1322.21 1254.94 Q1319.11 1260.27 1317.61 1265.48 Q1316.1 1270.68 1316.1 1276.03 Q1316.1 1281.38 1317.61 1286.63 Q1319.13 1291.86 1322.21 1297.17 L1318.51 1297.17 Q1315.04 1291.73 1313.3 1286.47 Q1311.59 1281.22 1311.59 1276.03 Q1311.59 1270.87 1313.3 1265.64 Q1315.01 1260.41 1318.51 1254.94 L1322.21 1254.94 Z" fill="#000000" fill-rule="evenodd" fill-opacity="1" /><path clip-path="url(#clip920)" d="M1334.69 1257.63 L1334.69 1264.99 L1343.46 1264.99 L1343.46 1268.3 L1334.69 1268.3 L1334.69 1282.37 Q1334.69 1285.54 1335.55 1286.45 Q1336.42 1287.35 1339.09 1287.35 L1343.46 1287.35 L1343.46 1290.92 L1339.09 1290.92 Q1334.16 1290.92 1332.28 1289.09 Q1330.41 1287.23 1330.41 1282.37 L1330.41 1268.3 L1327.28 1268.3 L1327.28 1264.99 L1330.41 1264.99 L1330.41 1257.63 L1334.69 1257.63 Z" fill="#000000" fill-rule="evenodd" fill-opacity="1" /><path clip-path="url(#clip920)" d="M1348.39 1254.94 L1352.1 1254.94 Q1355.57 1260.41 1357.28 1265.64 Q1359.02 1270.87 1359.02 1276.03 Q1359.02 1281.22 1357.28 1286.47 Q1355.57 1291.73 1352.1 1297.17 L1348.39 1297.17 Q1351.47 1291.86 1352.98 1286.63 Q1354.5 1281.38 1354.5 1276.03 Q1354.5 1270.68 1352.98 1265.48 Q1351.47 1260.27 1348.39 1254.94 Z" fill="#000000" fill-rule="evenodd" fill-opacity="1" /><path clip-path="url(#clip920)" d="M1368.65 1285.04 L1373.53 1285.04 L1373.53 1289.02 L1369.73 1296.42 L1366.75 1296.42 L1368.65 1289.02 L1368.65 1285.04 Z" fill="#000000" fill-rule="evenodd" fill-opacity="1" /><path clip-path="url(#clip920)" d="M1393.14 1256.36 L1398.16 1256.36 L1407.74 1270.57 L1417.26 1256.36 L1422.28 1256.36 L1410.06 1274.46 L1410.06 1290.92 L1405.36 1290.92 L1405.36 1274.46 L1393.14 1256.36 Z" fill="#000000" fill-rule="evenodd" fill-opacity="1" /><path clip-path="url(#clip920)" d="M1410.2 1259.2 L1408.88 1257.93 Q1408.37 1257.47 1408 1257.26 Q1407.6 1257.03 1407.3 1257.03 Q1406.42 1257.03 1406.01 1257.88 Q1405.59 1258.72 1405.54 1260.61 L1402.65 1260.61 Q1402.7 1257.49 1403.88 1255.8 Q1405.06 1254.09 1407.17 1254.09 Q1408.04 1254.09 1408.79 1254.41 Q1409.53 1254.73 1410.38 1255.5 L1411.7 1256.77 Q1412.21 1257.23 1412.6 1257.47 Q1412.98 1257.67 1413.28 1257.67 Q1414.16 1257.67 1414.57 1256.84 Q1414.99 1255.98 1415.04 1254.09 L1417.93 1254.09 Q1417.88 1257.21 1416.7 1258.92 Q1415.52 1260.61 1413.42 1260.61 Q1412.54 1260.61 1411.79 1260.29 Q1411.05 1259.97 1410.2 1259.2 Z" fill="#000000" fill-rule="evenodd" fill-opacity="1" /><path clip-path="url(#clip920)" d="M1436.89 1254.94 Q1433.79 1260.27 1432.28 1265.48 Q1430.78 1270.68 1430.78 1276.03 Q1430.78 1281.38 1432.28 1286.63 Q1433.81 1291.86 1436.89 1297.17 L1433.18 1297.17 Q1429.71 1291.73 1427.98 1286.47 Q1426.26 1281.22 1426.26 1276.03 Q1426.26 1270.87 1427.98 1265.64 Q1429.69 1260.41 1433.18 1254.94 L1436.89 1254.94 Z" fill="#000000" fill-rule="evenodd" fill-opacity="1" /><path clip-path="url(#clip920)" d="M1449.36 1257.63 L1449.36 1264.99 L1458.14 1264.99 L1458.14 1268.3 L1449.36 1268.3 L1449.36 1282.37 Q1449.36 1285.54 1450.22 1286.45 Q1451.1 1287.35 1453.76 1287.35 L1458.14 1287.35 L1458.14 1290.92 L1453.76 1290.92 Q1448.83 1290.92 1446.96 1289.09 Q1445.08 1287.23 1445.08 1282.37 L1445.08 1268.3 L1441.96 1268.3 L1441.96 1264.99 L1445.08 1264.99 L1445.08 1257.63 L1449.36 1257.63 Z" fill="#000000" fill-rule="evenodd" fill-opacity="1" /><path clip-path="url(#clip920)" d="M1463.07 1254.94 L1466.77 1254.94 Q1470.24 1260.41 1471.96 1265.64 Q1473.69 1270.87 1473.69 1276.03 Q1473.69 1281.22 1471.96 1286.47 Q1470.24 1291.73 1466.77 1297.17 L1463.07 1297.17 Q1466.15 1291.86 1467.65 1286.63 Q1469.18 1281.38 1469.18 1276.03 Q1469.18 1270.68 1467.65 1265.48 Q1466.15 1260.27 1463.07 1254.94 Z" fill="#000000" fill-rule="evenodd" fill-opacity="1" /><path clip-path="url(#clip920)" d="M1502.79 1254.69 L1502.79 1302.1 L1498.85 1302.1 L1498.85 1254.69 L1502.79 1254.69 Z" fill="#000000" fill-rule="evenodd" fill-opacity="1" /><path clip-path="url(#clip920)" d="M1528.53 1256.36 L1535.5 1256.36 L1544.32 1279.87 L1553.18 1256.36 L1560.15 1256.36 L1560.15 1290.92 L1555.59 1290.92 L1555.59 1260.57 L1546.68 1284.27 L1541.98 1284.27 L1533.07 1260.57 L1533.07 1290.92 L1528.53 1290.92 L1528.53 1256.36 Z" fill="#000000" fill-rule="evenodd" fill-opacity="1" /><path clip-path="url(#clip920)" d="M1590.8 1264.99 L1581.42 1277.61 L1591.28 1290.92 L1586.26 1290.92 L1578.72 1280.73 L1571.17 1290.92 L1566.15 1290.92 L1576.22 1277.35 L1567 1264.99 L1572.03 1264.99 L1578.9 1274.23 L1585.78 1264.99 L1590.8 1264.99 Z" fill="#000000" fill-rule="evenodd" fill-opacity="1" /><path clip-path="url(#clip920)" d="M1596.63 1254.94 L1600.34 1254.94 Q1603.81 1260.41 1605.52 1265.64 Q1607.26 1270.87 1607.26 1276.03 Q1607.26 1281.22 1605.52 1286.47 Q1603.81 1291.73 1600.34 1297.17 L1596.63 1297.17 Q1599.71 1291.86 1601.22 1286.63 Q1602.74 1281.38 1602.74 1276.03 Q1602.74 1270.68 1601.22 1265.48 Q1599.71 1260.27 1596.63 1254.94 Z" fill="#000000" fill-rule="evenodd" fill-opacity="1" /><path clip-path="url(#clip920)" d="M1616.89 1285.04 L1621.77 1285.04 L1621.77 1289.02 L1617.97 1296.42 L1614.99 1296.42 L1616.89 1289.02 L1616.89 1285.04 Z" fill="#000000" fill-rule="evenodd" fill-opacity="1" /><path clip-path="url(#clip920)" d="M1662.46 1265.75 L1662.46 1269.78 Q1660.66 1268.86 1658.71 1268.39 Q1656.77 1267.93 1654.69 1267.93 Q1651.52 1267.93 1649.92 1268.9 Q1648.34 1269.87 1648.34 1271.82 Q1648.34 1273.3 1649.48 1274.16 Q1650.61 1274.99 1654.04 1275.75 L1655.5 1276.08 Q1660.03 1277.05 1661.93 1278.83 Q1663.85 1280.59 1663.85 1283.76 Q1663.85 1287.37 1660.98 1289.48 Q1658.14 1291.59 1653.14 1291.59 Q1651.05 1291.59 1648.78 1291.17 Q1646.54 1290.78 1644.04 1289.97 L1644.04 1285.57 Q1646.4 1286.79 1648.69 1287.42 Q1650.98 1288.02 1653.23 1288.02 Q1656.24 1288.02 1657.86 1287 Q1659.48 1285.96 1659.48 1284.09 Q1659.48 1282.35 1658.3 1281.42 Q1657.14 1280.5 1653.18 1279.64 L1651.7 1279.3 Q1647.74 1278.46 1645.98 1276.75 Q1644.22 1275.01 1644.22 1272 Q1644.22 1268.35 1646.82 1266.36 Q1649.41 1264.36 1654.18 1264.36 Q1656.54 1264.36 1658.62 1264.71 Q1660.71 1265.06 1662.46 1265.75 Z" fill="#000000" fill-rule="evenodd" fill-opacity="1" /><path clip-path="url(#clip920)" d="M1692.81 1276.89 L1692.81 1278.97 L1673.23 1278.97 Q1673.51 1283.37 1675.87 1285.68 Q1678.25 1287.98 1682.49 1287.98 Q1684.94 1287.98 1687.23 1287.37 Q1689.55 1286.77 1691.82 1285.57 L1691.82 1289.6 Q1689.52 1290.57 1687.12 1291.08 Q1684.71 1291.59 1682.23 1291.59 Q1676.03 1291.59 1672.4 1287.98 Q1668.78 1284.36 1668.78 1278.21 Q1668.78 1271.84 1672.21 1268.11 Q1675.66 1264.36 1681.49 1264.36 Q1686.72 1264.36 1689.76 1267.74 Q1692.81 1271.1 1692.81 1276.89 M1688.55 1275.64 Q1688.51 1272.14 1686.58 1270.06 Q1684.69 1267.98 1681.54 1267.98 Q1677.97 1267.98 1675.82 1269.99 Q1673.69 1272 1673.37 1275.66 L1688.55 1275.64 Z" fill="#000000" fill-rule="evenodd" fill-opacity="1" /><path clip-path="url(#clip920)" d="M1716.86 1277.65 Q1716.86 1273.02 1714.94 1270.48 Q1713.04 1267.93 1709.59 1267.93 Q1706.17 1267.93 1704.25 1270.48 Q1702.35 1273.02 1702.35 1277.65 Q1702.35 1282.26 1704.25 1284.8 Q1706.17 1287.35 1709.59 1287.35 Q1713.04 1287.35 1714.94 1284.8 Q1716.86 1282.26 1716.86 1277.65 M1721.12 1287.7 Q1721.12 1294.32 1718.18 1297.54 Q1715.24 1300.78 1709.18 1300.78 Q1706.93 1300.78 1704.94 1300.43 Q1702.95 1300.11 1701.08 1299.41 L1701.08 1295.27 Q1702.95 1296.29 1704.78 1296.77 Q1706.61 1297.26 1708.51 1297.26 Q1712.7 1297.26 1714.78 1295.06 Q1716.86 1292.88 1716.86 1288.46 L1716.86 1286.36 Q1715.54 1288.65 1713.48 1289.78 Q1711.42 1290.92 1708.55 1290.92 Q1703.78 1290.92 1700.87 1287.28 Q1697.95 1283.65 1697.95 1277.65 Q1697.95 1271.63 1700.87 1268 Q1703.78 1264.36 1708.55 1264.36 Q1711.42 1264.36 1713.48 1265.5 Q1715.54 1266.63 1716.86 1268.92 L1716.86 1264.99 L1721.12 1264.99 L1721.12 1287.7 Z" fill="#000000" fill-rule="evenodd" fill-opacity="1" /><path clip-path="url(#clip920)" d="M1750.08 1269.97 Q1751.68 1267.1 1753.9 1265.73 Q1756.12 1264.36 1759.13 1264.36 Q1763.18 1264.36 1765.38 1267.21 Q1767.58 1270.04 1767.58 1275.27 L1767.58 1290.92 L1763.3 1290.92 L1763.3 1275.41 Q1763.3 1271.68 1761.98 1269.87 Q1760.66 1268.07 1757.95 1268.07 Q1754.64 1268.07 1752.72 1270.27 Q1750.8 1272.47 1750.8 1276.26 L1750.8 1290.92 L1746.52 1290.92 L1746.52 1275.41 Q1746.52 1271.66 1745.2 1269.87 Q1743.88 1268.07 1741.12 1268.07 Q1737.86 1268.07 1735.94 1270.29 Q1734.02 1272.49 1734.02 1276.26 L1734.02 1290.92 L1729.73 1290.92 L1729.73 1264.99 L1734.02 1264.99 L1734.02 1269.02 Q1735.47 1266.63 1737.51 1265.5 Q1739.55 1264.36 1742.35 1264.36 Q1745.17 1264.36 1747.14 1265.8 Q1749.13 1267.23 1750.08 1269.97 Z" fill="#000000" fill-rule="evenodd" fill-opacity="1" /><path clip-path="url(#clip920)" d="M1798.25 1276.89 L1798.25 1278.97 L1778.67 1278.97 Q1778.95 1283.37 1781.31 1285.68 Q1783.69 1287.98 1787.93 1287.98 Q1790.38 1287.98 1792.67 1287.37 Q1794.99 1286.77 1797.26 1285.57 L1797.26 1289.6 Q1794.96 1290.57 1792.56 1291.08 Q1790.15 1291.59 1787.67 1291.59 Q1781.47 1291.59 1777.83 1287.98 Q1774.22 1284.36 1774.22 1278.21 Q1774.22 1271.84 1777.65 1268.11 Q1781.1 1264.36 1786.93 1264.36 Q1792.16 1264.36 1795.2 1267.74 Q1798.25 1271.1 1798.25 1276.89 M1793.99 1275.64 Q1793.95 1272.14 1792.02 1270.06 Q1790.13 1267.98 1786.98 1267.98 Q1783.41 1267.98 1781.26 1269.99 Q1779.13 1272 1778.81 1275.66 L1793.99 1275.64 Z" fill="#000000" fill-rule="evenodd" fill-opacity="1" /><path clip-path="url(#clip920)" d="M1826.79 1275.27 L1826.79 1290.92 L1822.53 1290.92 L1822.53 1275.41 Q1822.53 1271.73 1821.1 1269.9 Q1819.66 1268.07 1816.79 1268.07 Q1813.34 1268.07 1811.35 1270.27 Q1809.36 1272.47 1809.36 1276.26 L1809.36 1290.92 L1805.08 1290.92 L1805.08 1264.99 L1809.36 1264.99 L1809.36 1269.02 Q1810.89 1266.68 1812.95 1265.52 Q1815.03 1264.36 1817.74 1264.36 Q1822.21 1264.36 1824.5 1267.14 Q1826.79 1269.9 1826.79 1275.27 Z" fill="#000000" fill-rule="evenodd" fill-opacity="1" /><path clip-path="url(#clip920)" d="M1839.5 1257.63 L1839.5 1264.99 L1848.27 1264.99 L1848.27 1268.3 L1839.5 1268.3 L1839.5 1282.37 Q1839.5 1285.54 1840.36 1286.45 Q1841.24 1287.35 1843.9 1287.35 L1848.27 1287.35 L1848.27 1290.92 L1843.9 1290.92 Q1838.97 1290.92 1837.09 1289.09 Q1835.22 1287.23 1835.22 1282.37 L1835.22 1268.3 L1832.09 1268.3 L1832.09 1264.99 L1835.22 1264.99 L1835.22 1257.63 L1839.5 1257.63 Z" fill="#000000" fill-rule="evenodd" fill-opacity="1" /><path clip-path="url(#clip920)" d="M1870.4 1265.75 L1870.4 1269.78 Q1868.6 1268.86 1866.65 1268.39 Q1864.71 1267.93 1862.63 1267.93 Q1859.45 1267.93 1857.86 1268.9 Q1856.28 1269.87 1856.28 1271.82 Q1856.28 1273.3 1857.42 1274.16 Q1858.55 1274.99 1861.98 1275.75 L1863.44 1276.08 Q1867.97 1277.05 1869.87 1278.83 Q1871.79 1280.59 1871.79 1283.76 Q1871.79 1287.37 1868.92 1289.48 Q1866.07 1291.59 1861.07 1291.59 Q1858.99 1291.59 1856.72 1291.17 Q1854.48 1290.78 1851.98 1289.97 L1851.98 1285.57 Q1854.34 1286.79 1856.63 1287.42 Q1858.92 1288.02 1861.17 1288.02 Q1864.18 1288.02 1865.8 1287 Q1867.42 1285.96 1867.42 1284.09 Q1867.42 1282.35 1866.24 1281.42 Q1865.08 1280.5 1861.12 1279.64 L1859.64 1279.3 Q1855.68 1278.46 1853.92 1276.75 Q1852.16 1275.01 1852.16 1272 Q1852.16 1268.35 1854.76 1266.36 Q1857.35 1264.36 1862.12 1264.36 Q1864.48 1264.36 1866.56 1264.71 Q1868.64 1265.06 1870.4 1265.75 Z" fill="#000000" fill-rule="evenodd" fill-opacity="1" /><path clip-path="url(#clip920)" d="M1906.77 1254.9 L1906.77 1258.44 L1902.69 1258.44 Q1900.4 1258.44 1899.5 1259.36 Q1898.62 1260.29 1898.62 1262.7 L1898.62 1264.99 L1905.63 1264.99 L1905.63 1268.3 L1898.62 1268.3 L1898.62 1290.92 L1894.34 1290.92 L1894.34 1268.3 L1890.26 1268.3 L1890.26 1264.99 L1894.34 1264.99 L1894.34 1263.18 Q1894.34 1258.86 1896.35 1256.89 Q1898.37 1254.9 1902.74 1254.9 L1906.77 1254.9 Z" fill="#000000" fill-rule="evenodd" fill-opacity="1" /><path clip-path="url(#clip920)" d="M1925.36 1268.97 Q1924.64 1268.55 1923.78 1268.37 Q1922.95 1268.16 1921.93 1268.16 Q1918.32 1268.16 1916.38 1270.52 Q1914.45 1272.86 1914.45 1277.26 L1914.45 1290.92 L1910.17 1290.92 L1910.17 1264.99 L1914.45 1264.99 L1914.45 1269.02 Q1915.8 1266.66 1917.95 1265.52 Q1920.1 1264.36 1923.18 1264.36 Q1923.62 1264.36 1924.15 1264.43 Q1924.69 1264.48 1925.33 1264.6 L1925.36 1268.97 Z" fill="#000000" fill-rule="evenodd" fill-opacity="1" /><path clip-path="url(#clip920)" d="M1938.83 1267.98 Q1935.4 1267.98 1933.41 1270.66 Q1931.42 1273.32 1931.42 1277.98 Q1931.42 1282.63 1933.39 1285.31 Q1935.38 1287.98 1938.83 1287.98 Q1942.23 1287.98 1944.22 1285.29 Q1946.21 1282.61 1946.21 1277.98 Q1946.21 1273.37 1944.22 1270.68 Q1942.23 1267.98 1938.83 1267.98 M1938.83 1264.36 Q1944.38 1264.36 1947.56 1267.98 Q1950.73 1271.59 1950.73 1277.98 Q1950.73 1284.34 1947.56 1287.98 Q1944.38 1291.59 1938.83 1291.59 Q1933.25 1291.59 1930.08 1287.98 Q1926.93 1284.34 1926.93 1277.98 Q1926.93 1271.59 1930.08 1267.98 Q1933.25 1264.36 1938.83 1264.36 Z" fill="#000000" fill-rule="evenodd" fill-opacity="1" /><path clip-path="url(#clip920)" d="M1977.97 1269.97 Q1979.57 1267.1 1981.79 1265.73 Q1984.01 1264.36 1987.02 1264.36 Q1991.07 1264.36 1993.27 1267.21 Q1995.47 1270.04 1995.47 1275.27 L1995.47 1290.92 L1991.19 1290.92 L1991.19 1275.41 Q1991.19 1271.68 1989.87 1269.87 Q1988.55 1268.07 1985.84 1268.07 Q1982.53 1268.07 1980.61 1270.27 Q1978.69 1272.47 1978.69 1276.26 L1978.69 1290.92 L1974.41 1290.92 L1974.41 1275.41 Q1974.41 1271.66 1973.09 1269.87 Q1971.77 1268.07 1969.01 1268.07 Q1965.75 1268.07 1963.83 1270.29 Q1961.91 1272.49 1961.91 1276.26 L1961.91 1290.92 L1957.63 1290.92 L1957.63 1264.99 L1961.91 1264.99 L1961.91 1269.02 Q1963.37 1266.63 1965.4 1265.5 Q1967.44 1264.36 1970.24 1264.36 Q1973.06 1264.36 1975.03 1265.8 Q1977.02 1267.23 1977.97 1269.97 Z" fill="#000000" fill-rule="evenodd" fill-opacity="1" /><path clip-path="url(#clip920)" d="M2035.56 1265.75 L2035.56 1269.78 Q2033.76 1268.86 2031.81 1268.39 Q2029.87 1267.93 2027.79 1267.93 Q2024.62 1267.93 2023.02 1268.9 Q2021.44 1269.87 2021.44 1271.82 Q2021.44 1273.3 2022.58 1274.16 Q2023.71 1274.99 2027.14 1275.75 L2028.6 1276.08 Q2033.13 1277.05 2035.03 1278.83 Q2036.95 1280.59 2036.95 1283.76 Q2036.95 1287.37 2034.08 1289.48 Q2031.24 1291.59 2026.24 1291.59 Q2024.15 1291.59 2021.88 1291.17 Q2019.64 1290.78 2017.14 1289.97 L2017.14 1285.57 Q2019.5 1286.79 2021.79 1287.42 Q2024.08 1288.02 2026.33 1288.02 Q2029.34 1288.02 2030.96 1287 Q2032.58 1285.96 2032.58 1284.09 Q2032.58 1282.35 2031.4 1281.42 Q2030.24 1280.5 2026.28 1279.64 L2024.8 1279.3 Q2020.84 1278.46 2019.08 1276.75 Q2017.32 1275.01 2017.32 1272 Q2017.32 1268.35 2019.92 1266.36 Q2022.51 1264.36 2027.28 1264.36 Q2029.64 1264.36 2031.72 1264.71 Q2033.81 1265.06 2035.56 1265.75 Z" fill="#000000" fill-rule="evenodd" fill-opacity="1" /><path clip-path="url(#clip920)" d="M2047.95 1257.63 L2047.95 1264.99 L2056.72 1264.99 L2056.72 1268.3 L2047.95 1268.3 L2047.95 1282.37 Q2047.95 1285.54 2048.81 1286.45 Q2049.68 1287.35 2052.35 1287.35 L2056.72 1287.35 L2056.72 1290.92 L2052.35 1290.92 Q2047.42 1290.92 2045.54 1289.09 Q2043.67 1287.23 2043.67 1282.37 L2043.67 1268.3 L2040.54 1268.3 L2040.54 1264.99 L2043.67 1264.99 L2043.67 1257.63 L2047.95 1257.63 Z" fill="#000000" fill-rule="evenodd" fill-opacity="1" /><path clip-path="url(#clip920)" d="M2074.11 1277.88 Q2068.94 1277.88 2066.95 1279.06 Q2064.96 1280.24 2064.96 1283.09 Q2064.96 1285.36 2066.44 1286.7 Q2067.95 1288.02 2070.52 1288.02 Q2074.06 1288.02 2076.19 1285.52 Q2078.34 1283 2078.34 1278.83 L2078.34 1277.88 L2074.11 1277.88 M2082.6 1276.12 L2082.6 1290.92 L2078.34 1290.92 L2078.34 1286.98 Q2076.88 1289.34 2074.71 1290.48 Q2072.53 1291.59 2069.38 1291.59 Q2065.4 1291.59 2063.04 1289.36 Q2060.7 1287.12 2060.7 1283.37 Q2060.7 1278.99 2063.62 1276.77 Q2066.56 1274.55 2072.37 1274.55 L2078.34 1274.55 L2078.34 1274.13 Q2078.34 1271.19 2076.4 1269.6 Q2074.48 1267.98 2070.98 1267.98 Q2068.76 1267.98 2066.65 1268.51 Q2064.55 1269.04 2062.6 1270.11 L2062.6 1266.17 Q2064.94 1265.27 2067.14 1264.83 Q2069.34 1264.36 2071.42 1264.36 Q2077.05 1264.36 2079.82 1267.28 Q2082.6 1270.2 2082.6 1276.12 Z" fill="#000000" fill-rule="evenodd" fill-opacity="1" /><path clip-path="url(#clip920)" d="M2106.4 1268.97 Q2105.68 1268.55 2104.82 1268.37 Q2103.99 1268.16 2102.97 1268.16 Q2099.36 1268.16 2097.42 1270.52 Q2095.49 1272.86 2095.49 1277.26 L2095.49 1290.92 L2091.21 1290.92 L2091.21 1264.99 L2095.49 1264.99 L2095.49 1269.02 Q2096.84 1266.66 2098.99 1265.52 Q2101.14 1264.36 2104.22 1264.36 Q2104.66 1264.36 2105.19 1264.43 Q2105.73 1264.48 2106.37 1264.6 L2106.4 1268.97 Z" fill="#000000" fill-rule="evenodd" fill-opacity="1" /><path clip-path="url(#clip920)" d="M2115.08 1257.63 L2115.08 1264.99 L2123.85 1264.99 L2123.85 1268.3 L2115.08 1268.3 L2115.08 1282.37 Q2115.08 1285.54 2115.93 1286.45 Q2116.81 1287.35 2119.48 1287.35 L2123.85 1287.35 L2123.85 1290.92 L2119.48 1290.92 Q2114.55 1290.92 2112.67 1289.09 Q2110.8 1287.23 2110.8 1282.37 L2110.8 1268.3 L2107.67 1268.3 L2107.67 1264.99 L2110.8 1264.99 L2110.8 1257.63 L2115.08 1257.63 Z" fill="#000000" fill-rule="evenodd" fill-opacity="1" /><path clip-path="url(#clip920)" d="M2148.74 1257.63 L2148.74 1264.99 L2157.51 1264.99 L2157.51 1268.3 L2148.74 1268.3 L2148.74 1282.37 Q2148.74 1285.54 2149.59 1286.45 Q2150.47 1287.35 2153.13 1287.35 L2157.51 1287.35 L2157.51 1290.92 L2153.13 1290.92 Q2148.2 1290.92 2146.33 1289.09 Q2144.45 1287.23 2144.45 1282.37 L2144.45 1268.3 L2141.33 1268.3 L2141.33 1264.99 L2144.45 1264.99 L2144.45 1257.63 L2148.74 1257.63 Z" fill="#000000" fill-rule="evenodd" fill-opacity="1" /><path clip-path="url(#clip920)" d="M2173.16 1267.98 Q2169.73 1267.98 2167.74 1270.66 Q2165.75 1273.32 2165.75 1277.98 Q2165.75 1282.63 2167.72 1285.31 Q2169.71 1287.98 2173.16 1287.98 Q2176.56 1287.98 2178.55 1285.29 Q2180.54 1282.61 2180.54 1277.98 Q2180.54 1273.37 2178.55 1270.68 Q2176.56 1267.98 2173.16 1267.98 M2173.16 1264.36 Q2178.71 1264.36 2181.88 1267.98 Q2185.05 1271.59 2185.05 1277.98 Q2185.05 1284.34 2181.88 1287.98 Q2178.71 1291.59 2173.16 1291.59 Q2167.58 1291.59 2164.41 1287.98 Q2161.26 1284.34 2161.26 1277.98 Q2161.26 1271.59 2164.41 1267.98 Q2167.58 1264.36 2173.16 1264.36 Z" fill="#000000" fill-rule="evenodd" fill-opacity="1" /><path clip-path="url(#clip920)" d="M2207.37 1256.36 L2212.05 1256.36 L2212.05 1286.98 L2228.87 1286.98 L2228.87 1290.92 L2207.37 1290.92 L2207.37 1256.36 Z" fill="#000000" fill-rule="evenodd" fill-opacity="1" /><polyline clip-path="url(#clip920)" style="stroke:#008000; stroke-linecap:butt; stroke-linejoin:round; stroke-width:4; stroke-opacity:1; fill:none" stroke-dasharray="16, 10" points="
  1024.53,1325.48 1164.75,1325.48 
  "/>
<path clip-path="url(#clip920)" d="M1208.62 1317.82 L1208.62 1321.81 Q1206.82 1320.81 1204.99 1320.32 Q1203.18 1319.82 1201.33 1319.82 Q1197.19 1319.82 1194.9 1322.45 Q1192.61 1325.07 1192.61 1329.82 Q1192.61 1334.56 1194.9 1337.2 Q1197.19 1339.82 1201.33 1339.82 Q1203.18 1339.82 1204.99 1339.33 Q1206.82 1338.82 1208.62 1337.82 L1208.62 1341.76 Q1206.84 1342.59 1204.92 1343.01 Q1203.02 1343.43 1200.87 1343.43 Q1195.01 1343.43 1191.56 1339.75 Q1188.12 1336.07 1188.12 1329.82 Q1188.12 1323.47 1191.59 1319.84 Q1195.08 1316.2 1201.15 1316.2 Q1203.12 1316.2 1204.99 1316.62 Q1206.87 1317.01 1208.62 1317.82 Z" fill="#000000" fill-rule="evenodd" fill-opacity="1" /><path clip-path="url(#clip920)" d="M1226.08 1319.82 Q1222.65 1319.82 1220.66 1322.5 Q1218.67 1325.16 1218.67 1329.82 Q1218.67 1334.47 1220.64 1337.15 Q1222.63 1339.82 1226.08 1339.82 Q1229.48 1339.82 1231.47 1337.13 Q1233.46 1334.45 1233.46 1329.82 Q1233.46 1325.21 1231.47 1322.52 Q1229.48 1319.82 1226.08 1319.82 M1226.08 1316.2 Q1231.63 1316.2 1234.8 1319.82 Q1237.98 1323.43 1237.98 1329.82 Q1237.98 1336.18 1234.8 1339.82 Q1231.63 1343.43 1226.08 1343.43 Q1220.5 1343.43 1217.33 1339.82 Q1214.18 1336.18 1214.18 1329.82 Q1214.18 1323.43 1217.33 1319.82 Q1220.5 1316.2 1226.08 1316.2 Z" fill="#000000" fill-rule="evenodd" fill-opacity="1" /><path clip-path="url(#clip920)" d="M1260.06 1320.81 Q1259.34 1320.39 1258.49 1320.21 Q1257.65 1320 1256.63 1320 Q1253.02 1320 1251.08 1322.36 Q1249.16 1324.7 1249.16 1329.1 L1249.16 1342.76 L1244.87 1342.76 L1244.87 1316.83 L1249.16 1316.83 L1249.16 1320.86 Q1250.5 1318.5 1252.65 1317.36 Q1254.8 1316.2 1257.88 1316.2 Q1258.32 1316.2 1258.86 1316.27 Q1259.39 1316.32 1260.04 1316.44 L1260.06 1320.81 Z" fill="#000000" fill-rule="evenodd" fill-opacity="1" /><path clip-path="url(#clip920)" d="M1274.76 1306.78 Q1271.66 1312.11 1270.15 1317.32 Q1268.65 1322.52 1268.65 1327.87 Q1268.65 1333.22 1270.15 1338.47 Q1271.68 1343.7 1274.76 1349.01 L1271.05 1349.01 Q1267.58 1343.57 1265.85 1338.31 Q1264.13 1333.06 1264.13 1327.87 Q1264.13 1322.71 1265.85 1317.48 Q1267.56 1312.25 1271.05 1306.78 L1274.76 1306.78 Z" fill="#000000" fill-rule="evenodd" fill-opacity="1" /><path clip-path="url(#clip920)" d="M1281.54 1308.2 L1286.56 1308.2 L1295.15 1321.04 L1303.79 1308.2 L1308.81 1308.2 L1297.7 1324.79 L1309.55 1342.76 L1304.53 1342.76 L1294.8 1328.06 L1285.01 1342.76 L1279.97 1342.76 L1292.3 1324.31 L1281.54 1308.2 Z" fill="#000000" fill-rule="evenodd" fill-opacity="1" /><path clip-path="url(#clip920)" d="M1325.73 1306.78 Q1322.63 1312.11 1321.12 1317.32 Q1319.62 1322.52 1319.62 1327.87 Q1319.62 1333.22 1321.12 1338.47 Q1322.65 1343.7 1325.73 1349.01 L1322.03 1349.01 Q1318.55 1343.57 1316.82 1338.31 Q1315.11 1333.06 1315.11 1327.87 Q1315.11 1322.71 1316.82 1317.48 Q1318.53 1312.25 1322.03 1306.78 L1325.73 1306.78 Z" fill="#000000" fill-rule="evenodd" fill-opacity="1" /><path clip-path="url(#clip920)" d="M1338.21 1309.47 L1338.21 1316.83 L1346.98 1316.83 L1346.98 1320.14 L1338.21 1320.14 L1338.21 1334.21 Q1338.21 1337.38 1339.06 1338.29 Q1339.94 1339.19 1342.61 1339.19 L1346.98 1339.19 L1346.98 1342.76 L1342.61 1342.76 Q1337.67 1342.76 1335.8 1340.93 Q1333.92 1339.07 1333.92 1334.21 L1333.92 1320.14 L1330.8 1320.14 L1330.8 1316.83 L1333.92 1316.83 L1333.92 1309.47 L1338.21 1309.47 Z" fill="#000000" fill-rule="evenodd" fill-opacity="1" /><path clip-path="url(#clip920)" d="M1351.91 1306.78 L1355.61 1306.78 Q1359.09 1312.25 1360.8 1317.48 Q1362.54 1322.71 1362.54 1327.87 Q1362.54 1333.06 1360.8 1338.31 Q1359.09 1343.57 1355.61 1349.01 L1351.91 1349.01 Q1354.99 1343.7 1356.49 1338.47 Q1358.02 1333.22 1358.02 1327.87 Q1358.02 1322.52 1356.49 1317.32 Q1354.99 1312.11 1351.91 1306.78 Z" fill="#000000" fill-rule="evenodd" fill-opacity="1" /><path clip-path="url(#clip920)" d="M1372.17 1336.88 L1377.05 1336.88 L1377.05 1340.86 L1373.25 1348.26 L1370.27 1348.26 L1372.17 1340.86 L1372.17 1336.88 Z" fill="#000000" fill-rule="evenodd" fill-opacity="1" /><path clip-path="url(#clip920)" d="M1399.73 1308.2 L1404.76 1308.2 L1413.35 1321.04 L1421.98 1308.2 L1427 1308.2 L1415.89 1324.79 L1427.74 1342.76 L1422.72 1342.76 L1413 1328.06 L1403.21 1342.76 L1398.16 1342.76 L1410.5 1324.31 L1399.73 1308.2 Z" fill="#000000" fill-rule="evenodd" fill-opacity="1" /><path clip-path="url(#clip920)" d="M1417.23 1311.04 L1415.92 1309.77 Q1415.41 1309.31 1415.04 1309.1 Q1414.64 1308.87 1414.34 1308.87 Q1413.46 1308.87 1413.04 1309.72 Q1412.63 1310.56 1412.58 1312.45 L1409.69 1312.45 Q1409.73 1309.33 1410.92 1307.64 Q1412.1 1305.93 1414.2 1305.93 Q1415.08 1305.93 1415.82 1306.25 Q1416.56 1306.57 1417.42 1307.34 L1418.74 1308.61 Q1419.25 1309.07 1419.64 1309.31 Q1420.01 1309.51 1420.31 1309.51 Q1421.19 1309.51 1421.61 1308.68 Q1422.03 1307.82 1422.07 1305.93 L1424.97 1305.93 Q1424.92 1309.05 1423.74 1310.76 Q1422.56 1312.45 1420.45 1312.45 Q1419.57 1312.45 1418.83 1312.13 Q1418.09 1311.81 1417.23 1311.04 Z" fill="#000000" fill-rule="evenodd" fill-opacity="1" /><path clip-path="url(#clip920)" d="M1443.92 1306.78 Q1440.82 1312.11 1439.32 1317.32 Q1437.81 1322.52 1437.81 1327.87 Q1437.81 1333.22 1439.32 1338.47 Q1440.85 1343.7 1443.92 1349.01 L1440.22 1349.01 Q1436.75 1343.57 1435.01 1338.31 Q1433.3 1333.06 1433.3 1327.87 Q1433.3 1322.71 1435.01 1317.48 Q1436.73 1312.25 1440.22 1306.78 L1443.92 1306.78 Z" fill="#000000" fill-rule="evenodd" fill-opacity="1" /><path clip-path="url(#clip920)" d="M1456.4 1309.47 L1456.4 1316.83 L1465.17 1316.83 L1465.17 1320.14 L1456.4 1320.14 L1456.4 1334.21 Q1456.4 1337.38 1457.26 1338.29 Q1458.14 1339.19 1460.8 1339.19 L1465.17 1339.19 L1465.17 1342.76 L1460.8 1342.76 Q1455.87 1342.76 1453.99 1340.93 Q1452.12 1339.07 1452.12 1334.21 L1452.12 1320.14 L1448.99 1320.14 L1448.99 1316.83 L1452.12 1316.83 L1452.12 1309.47 L1456.4 1309.47 Z" fill="#000000" fill-rule="evenodd" fill-opacity="1" /><path clip-path="url(#clip920)" d="M1470.1 1306.78 L1473.81 1306.78 Q1477.28 1312.25 1478.99 1317.48 Q1480.73 1322.71 1480.73 1327.87 Q1480.73 1333.06 1478.99 1338.31 Q1477.28 1343.57 1473.81 1349.01 L1470.1 1349.01 Q1473.18 1343.7 1474.69 1338.47 Q1476.22 1333.22 1476.22 1327.87 Q1476.22 1322.52 1474.69 1317.32 Q1473.18 1312.11 1470.1 1306.78 Z" fill="#000000" fill-rule="evenodd" fill-opacity="1" /><path clip-path="url(#clip920)" d="M1509.83 1306.53 L1509.83 1353.94 L1505.89 1353.94 L1505.89 1306.53 L1509.83 1306.53 Z" fill="#000000" fill-rule="evenodd" fill-opacity="1" /><path clip-path="url(#clip920)" d="M1535.57 1308.2 L1542.53 1308.2 L1551.35 1331.71 L1560.22 1308.2 L1567.19 1308.2 L1567.19 1342.76 L1562.63 1342.76 L1562.63 1312.41 L1553.72 1336.11 L1549.02 1336.11 L1540.1 1312.41 L1540.1 1342.76 L1535.57 1342.76 L1535.57 1308.2 Z" fill="#000000" fill-rule="evenodd" fill-opacity="1" /><path clip-path="url(#clip920)" d="M1587.07 1345.16 Q1585.27 1349.79 1583.55 1351.2 Q1581.84 1352.62 1578.97 1352.62 L1575.57 1352.62 L1575.57 1349.05 L1578.07 1349.05 Q1579.83 1349.05 1580.8 1348.22 Q1581.77 1347.38 1582.95 1344.28 L1583.72 1342.34 L1573.23 1316.83 L1577.74 1316.83 L1585.84 1337.11 L1593.95 1316.83 L1598.46 1316.83 L1587.07 1345.16 Z" fill="#000000" fill-rule="evenodd" fill-opacity="1" /><path clip-path="url(#clip920)" d="M1603.67 1306.78 L1607.37 1306.78 Q1610.84 1312.25 1612.56 1317.48 Q1614.29 1322.71 1614.29 1327.87 Q1614.29 1333.06 1612.56 1338.31 Q1610.84 1343.57 1607.37 1349.01 L1603.67 1349.01 Q1606.75 1343.7 1608.25 1338.47 Q1609.78 1333.22 1609.78 1327.87 Q1609.78 1322.52 1608.25 1317.32 Q1606.75 1312.11 1603.67 1306.78 Z" fill="#000000" fill-rule="evenodd" fill-opacity="1" /><path clip-path="url(#clip920)" d="M1623.92 1336.88 L1628.81 1336.88 L1628.81 1340.86 L1625.01 1348.26 L1622.03 1348.26 L1623.92 1340.86 L1623.92 1336.88 Z" fill="#000000" fill-rule="evenodd" fill-opacity="1" /><path clip-path="url(#clip920)" d="M1669.5 1317.59 L1669.5 1321.62 Q1667.7 1320.7 1665.75 1320.23 Q1663.81 1319.77 1661.72 1319.77 Q1658.55 1319.77 1656.96 1320.74 Q1655.38 1321.71 1655.38 1323.66 Q1655.38 1325.14 1656.52 1326 Q1657.65 1326.83 1661.08 1327.59 L1662.53 1327.92 Q1667.07 1328.89 1668.97 1330.67 Q1670.89 1332.43 1670.89 1335.6 Q1670.89 1339.21 1668.02 1341.32 Q1665.17 1343.43 1660.17 1343.43 Q1658.09 1343.43 1655.82 1343.01 Q1653.58 1342.62 1651.08 1341.81 L1651.08 1337.41 Q1653.44 1338.63 1655.73 1339.26 Q1658.02 1339.86 1660.27 1339.86 Q1663.27 1339.86 1664.9 1338.84 Q1666.52 1337.8 1666.52 1335.93 Q1666.52 1334.19 1665.34 1333.26 Q1664.18 1332.34 1660.22 1331.48 L1658.74 1331.14 Q1654.78 1330.3 1653.02 1328.59 Q1651.26 1326.85 1651.26 1323.84 Q1651.26 1320.19 1653.85 1318.2 Q1656.45 1316.2 1661.21 1316.2 Q1663.58 1316.2 1665.66 1316.55 Q1667.74 1316.9 1669.5 1317.59 Z" fill="#000000" fill-rule="evenodd" fill-opacity="1" /><path clip-path="url(#clip920)" d="M1699.85 1328.73 L1699.85 1330.81 L1680.27 1330.81 Q1680.54 1335.21 1682.9 1337.52 Q1685.29 1339.82 1689.52 1339.82 Q1691.98 1339.82 1694.27 1339.21 Q1696.58 1338.61 1698.85 1337.41 L1698.85 1341.44 Q1696.56 1342.41 1694.15 1342.92 Q1691.75 1343.43 1689.27 1343.43 Q1683.07 1343.43 1679.43 1339.82 Q1675.82 1336.2 1675.82 1330.05 Q1675.82 1323.68 1679.25 1319.95 Q1682.7 1316.2 1688.53 1316.2 Q1693.76 1316.2 1696.79 1319.58 Q1699.85 1322.94 1699.85 1328.73 M1695.59 1327.48 Q1695.54 1323.98 1693.62 1321.9 Q1691.72 1319.82 1688.58 1319.82 Q1685.01 1319.82 1682.86 1321.83 Q1680.73 1323.84 1680.4 1327.5 L1695.59 1327.48 Z" fill="#000000" fill-rule="evenodd" fill-opacity="1" /><path clip-path="url(#clip920)" d="M1723.9 1329.49 Q1723.9 1324.86 1721.98 1322.32 Q1720.08 1319.77 1716.63 1319.77 Q1713.21 1319.77 1711.28 1322.32 Q1709.39 1324.86 1709.39 1329.49 Q1709.39 1334.1 1711.28 1336.64 Q1713.21 1339.19 1716.63 1339.19 Q1720.08 1339.19 1721.98 1336.64 Q1723.9 1334.1 1723.9 1329.49 M1728.16 1339.54 Q1728.16 1346.16 1725.22 1349.38 Q1722.28 1352.62 1716.21 1352.62 Q1713.97 1352.62 1711.98 1352.27 Q1709.99 1351.95 1708.11 1351.25 L1708.11 1347.11 Q1709.99 1348.13 1711.82 1348.61 Q1713.64 1349.1 1715.54 1349.1 Q1719.73 1349.1 1721.82 1346.9 Q1723.9 1344.72 1723.9 1340.3 L1723.9 1338.2 Q1722.58 1340.49 1720.52 1341.62 Q1718.46 1342.76 1715.59 1342.76 Q1710.82 1342.76 1707.9 1339.12 Q1704.99 1335.49 1704.99 1329.49 Q1704.99 1323.47 1707.9 1319.84 Q1710.82 1316.2 1715.59 1316.2 Q1718.46 1316.2 1720.52 1317.34 Q1722.58 1318.47 1723.9 1320.76 L1723.9 1316.83 L1728.16 1316.83 L1728.16 1339.54 Z" fill="#000000" fill-rule="evenodd" fill-opacity="1" /><path clip-path="url(#clip920)" d="M1757.12 1321.81 Q1758.71 1318.94 1760.94 1317.57 Q1763.16 1316.2 1766.17 1316.2 Q1770.22 1316.2 1772.42 1319.05 Q1774.62 1321.88 1774.62 1327.11 L1774.62 1342.76 L1770.33 1342.76 L1770.33 1327.25 Q1770.33 1323.52 1769.02 1321.71 Q1767.7 1319.91 1764.99 1319.91 Q1761.68 1319.91 1759.76 1322.11 Q1757.83 1324.31 1757.83 1328.1 L1757.83 1342.76 L1753.55 1342.76 L1753.55 1327.25 Q1753.55 1323.5 1752.23 1321.71 Q1750.91 1319.91 1748.16 1319.91 Q1744.89 1319.91 1742.97 1322.13 Q1741.05 1324.33 1741.05 1328.1 L1741.05 1342.76 L1736.77 1342.76 L1736.77 1316.83 L1741.05 1316.83 L1741.05 1320.86 Q1742.51 1318.47 1744.55 1317.34 Q1746.58 1316.2 1749.39 1316.2 Q1752.21 1316.2 1754.18 1317.64 Q1756.17 1319.07 1757.12 1321.81 Z" fill="#000000" fill-rule="evenodd" fill-opacity="1" /><path clip-path="url(#clip920)" d="M1805.29 1328.73 L1805.29 1330.81 L1785.7 1330.81 Q1785.98 1335.21 1788.34 1337.52 Q1790.73 1339.82 1794.96 1339.82 Q1797.42 1339.82 1799.71 1339.21 Q1802.02 1338.61 1804.29 1337.41 L1804.29 1341.44 Q1802 1342.41 1799.59 1342.92 Q1797.19 1343.43 1794.71 1343.43 Q1788.51 1343.43 1784.87 1339.82 Q1781.26 1336.2 1781.26 1330.05 Q1781.26 1323.68 1784.69 1319.95 Q1788.14 1316.2 1793.97 1316.2 Q1799.2 1316.2 1802.23 1319.58 Q1805.29 1322.94 1805.29 1328.73 M1801.03 1327.48 Q1800.98 1323.98 1799.06 1321.9 Q1797.16 1319.82 1794.01 1319.82 Q1790.45 1319.82 1788.3 1321.83 Q1786.17 1323.84 1785.84 1327.5 L1801.03 1327.48 Z" fill="#000000" fill-rule="evenodd" fill-opacity="1" /><path clip-path="url(#clip920)" d="M1833.83 1327.11 L1833.83 1342.76 L1829.57 1342.76 L1829.57 1327.25 Q1829.57 1323.57 1828.14 1321.74 Q1826.7 1319.91 1823.83 1319.91 Q1820.38 1319.91 1818.39 1322.11 Q1816.4 1324.31 1816.4 1328.1 L1816.4 1342.76 L1812.12 1342.76 L1812.12 1316.83 L1816.4 1316.83 L1816.4 1320.86 Q1817.93 1318.52 1819.99 1317.36 Q1822.07 1316.2 1824.78 1316.2 Q1829.25 1316.2 1831.54 1318.98 Q1833.83 1321.74 1833.83 1327.11 Z" fill="#000000" fill-rule="evenodd" fill-opacity="1" /><path clip-path="url(#clip920)" d="M1846.54 1309.47 L1846.54 1316.83 L1855.31 1316.83 L1855.31 1320.14 L1846.54 1320.14 L1846.54 1334.21 Q1846.54 1337.38 1847.39 1338.29 Q1848.27 1339.19 1850.94 1339.19 L1855.31 1339.19 L1855.31 1342.76 L1850.94 1342.76 Q1846.01 1342.76 1844.13 1340.93 Q1842.26 1339.07 1842.26 1334.21 L1842.26 1320.14 L1839.13 1320.14 L1839.13 1316.83 L1842.26 1316.83 L1842.26 1309.47 L1846.54 1309.47 Z" fill="#000000" fill-rule="evenodd" fill-opacity="1" /><path clip-path="url(#clip920)" d="M1877.44 1317.59 L1877.44 1321.62 Q1875.63 1320.7 1873.69 1320.23 Q1871.75 1319.77 1869.66 1319.77 Q1866.49 1319.77 1864.89 1320.74 Q1863.32 1321.71 1863.32 1323.66 Q1863.32 1325.14 1864.45 1326 Q1865.59 1326.83 1869.01 1327.59 L1870.47 1327.92 Q1875.01 1328.89 1876.91 1330.67 Q1878.83 1332.43 1878.83 1335.6 Q1878.83 1339.21 1875.96 1341.32 Q1873.11 1343.43 1868.11 1343.43 Q1866.03 1343.43 1863.76 1343.01 Q1861.51 1342.62 1859.01 1341.81 L1859.01 1337.41 Q1861.38 1338.63 1863.67 1339.26 Q1865.96 1339.86 1868.2 1339.86 Q1871.21 1339.86 1872.83 1338.84 Q1874.45 1337.8 1874.45 1335.93 Q1874.45 1334.19 1873.27 1333.26 Q1872.12 1332.34 1868.16 1331.48 L1866.68 1331.14 Q1862.72 1330.3 1860.96 1328.59 Q1859.2 1326.85 1859.2 1323.84 Q1859.2 1320.19 1861.79 1318.2 Q1864.38 1316.2 1869.15 1316.2 Q1871.51 1316.2 1873.6 1316.55 Q1875.68 1316.9 1877.44 1317.59 Z" fill="#000000" fill-rule="evenodd" fill-opacity="1" /><path clip-path="url(#clip920)" d="M1913.81 1306.74 L1913.81 1310.28 L1909.73 1310.28 Q1907.44 1310.28 1906.54 1311.2 Q1905.66 1312.13 1905.66 1314.54 L1905.66 1316.83 L1912.67 1316.83 L1912.67 1320.14 L1905.66 1320.14 L1905.66 1342.76 L1901.38 1342.76 L1901.38 1320.14 L1897.3 1320.14 L1897.3 1316.83 L1901.38 1316.83 L1901.38 1315.02 Q1901.38 1310.7 1903.39 1308.73 Q1905.4 1306.74 1909.78 1306.74 L1913.81 1306.74 Z" fill="#000000" fill-rule="evenodd" fill-opacity="1" /><path clip-path="url(#clip920)" d="M1932.39 1320.81 Q1931.68 1320.39 1930.82 1320.21 Q1929.99 1320 1928.97 1320 Q1925.36 1320 1923.41 1322.36 Q1921.49 1324.7 1921.49 1329.1 L1921.49 1342.76 L1917.21 1342.76 L1917.21 1316.83 L1921.49 1316.83 L1921.49 1320.86 Q1922.83 1318.5 1924.99 1317.36 Q1927.14 1316.2 1930.22 1316.2 Q1930.66 1316.2 1931.19 1316.27 Q1931.72 1316.32 1932.37 1316.44 L1932.39 1320.81 Z" fill="#000000" fill-rule="evenodd" fill-opacity="1" /><path clip-path="url(#clip920)" d="M1945.87 1319.82 Q1942.44 1319.82 1940.45 1322.5 Q1938.46 1325.16 1938.46 1329.82 Q1938.46 1334.47 1940.43 1337.15 Q1942.42 1339.82 1945.87 1339.82 Q1949.27 1339.82 1951.26 1337.13 Q1953.25 1334.45 1953.25 1329.82 Q1953.25 1325.21 1951.26 1322.52 Q1949.27 1319.82 1945.87 1319.82 M1945.87 1316.2 Q1951.42 1316.2 1954.59 1319.82 Q1957.76 1323.43 1957.76 1329.82 Q1957.76 1336.18 1954.59 1339.82 Q1951.42 1343.43 1945.87 1343.43 Q1940.29 1343.43 1937.12 1339.82 Q1933.97 1336.18 1933.97 1329.82 Q1933.97 1323.43 1937.12 1319.82 Q1940.29 1316.2 1945.87 1316.2 Z" fill="#000000" fill-rule="evenodd" fill-opacity="1" /><path clip-path="url(#clip920)" d="M1985.01 1321.81 Q1986.61 1318.94 1988.83 1317.57 Q1991.05 1316.2 1994.06 1316.2 Q1998.11 1316.2 2000.31 1319.05 Q2002.51 1321.88 2002.51 1327.11 L2002.51 1342.76 L1998.23 1342.76 L1998.23 1327.25 Q1998.23 1323.52 1996.91 1321.71 Q1995.59 1319.91 1992.88 1319.91 Q1989.57 1319.91 1987.65 1322.11 Q1985.73 1324.31 1985.73 1328.1 L1985.73 1342.76 L1981.44 1342.76 L1981.44 1327.25 Q1981.44 1323.5 1980.13 1321.71 Q1978.81 1319.91 1976.05 1319.91 Q1972.79 1319.91 1970.87 1322.13 Q1968.94 1324.33 1968.94 1328.1 L1968.94 1342.76 L1964.66 1342.76 L1964.66 1316.83 L1968.94 1316.83 L1968.94 1320.86 Q1970.4 1318.47 1972.44 1317.34 Q1974.48 1316.2 1977.28 1316.2 Q1980.1 1316.2 1982.07 1317.64 Q1984.06 1319.07 1985.01 1321.81 Z" fill="#000000" fill-rule="evenodd" fill-opacity="1" /><path clip-path="url(#clip920)" d="M2042.6 1317.59 L2042.6 1321.62 Q2040.8 1320.7 2038.85 1320.23 Q2036.91 1319.77 2034.82 1319.77 Q2031.65 1319.77 2030.06 1320.74 Q2028.48 1321.71 2028.48 1323.66 Q2028.48 1325.14 2029.62 1326 Q2030.75 1326.83 2034.18 1327.59 L2035.63 1327.92 Q2040.17 1328.89 2042.07 1330.67 Q2043.99 1332.43 2043.99 1335.6 Q2043.99 1339.21 2041.12 1341.32 Q2038.27 1343.43 2033.27 1343.43 Q2031.19 1343.43 2028.92 1343.01 Q2026.68 1342.62 2024.18 1341.81 L2024.18 1337.41 Q2026.54 1338.63 2028.83 1339.26 Q2031.12 1339.86 2033.37 1339.86 Q2036.37 1339.86 2038 1338.84 Q2039.62 1337.8 2039.62 1335.93 Q2039.62 1334.19 2038.43 1333.26 Q2037.28 1332.34 2033.32 1331.48 L2031.84 1331.14 Q2027.88 1330.3 2026.12 1328.59 Q2024.36 1326.85 2024.36 1323.84 Q2024.36 1320.19 2026.95 1318.2 Q2029.55 1316.2 2034.31 1316.2 Q2036.68 1316.2 2038.76 1316.55 Q2040.84 1316.9 2042.6 1317.59 Z" fill="#000000" fill-rule="evenodd" fill-opacity="1" /><path clip-path="url(#clip920)" d="M2054.99 1309.47 L2054.99 1316.83 L2063.76 1316.83 L2063.76 1320.14 L2054.99 1320.14 L2054.99 1334.21 Q2054.99 1337.38 2055.84 1338.29 Q2056.72 1339.19 2059.38 1339.19 L2063.76 1339.19 L2063.76 1342.76 L2059.38 1342.76 Q2054.45 1342.76 2052.58 1340.93 Q2050.7 1339.07 2050.7 1334.21 L2050.7 1320.14 L2047.58 1320.14 L2047.58 1316.83 L2050.7 1316.83 L2050.7 1309.47 L2054.99 1309.47 Z" fill="#000000" fill-rule="evenodd" fill-opacity="1" /><path clip-path="url(#clip920)" d="M2081.14 1329.72 Q2075.98 1329.72 2073.99 1330.9 Q2072 1332.08 2072 1334.93 Q2072 1337.2 2073.48 1338.54 Q2074.99 1339.86 2077.56 1339.86 Q2081.1 1339.86 2083.23 1337.36 Q2085.38 1334.84 2085.38 1330.67 L2085.38 1329.72 L2081.14 1329.72 M2089.64 1327.96 L2089.64 1342.76 L2085.38 1342.76 L2085.38 1338.82 Q2083.92 1341.18 2081.74 1342.32 Q2079.57 1343.43 2076.42 1343.43 Q2072.44 1343.43 2070.08 1341.2 Q2067.74 1338.96 2067.74 1335.21 Q2067.74 1330.83 2070.66 1328.61 Q2073.6 1326.39 2079.41 1326.39 L2085.38 1326.39 L2085.38 1325.97 Q2085.38 1323.03 2083.43 1321.44 Q2081.51 1319.82 2078.02 1319.82 Q2075.8 1319.82 2073.69 1320.35 Q2071.58 1320.88 2069.64 1321.95 L2069.64 1318.01 Q2071.98 1317.11 2074.18 1316.67 Q2076.37 1316.2 2078.46 1316.2 Q2084.08 1316.2 2086.86 1319.12 Q2089.64 1322.04 2089.64 1327.96 Z" fill="#000000" fill-rule="evenodd" fill-opacity="1" /><path clip-path="url(#clip920)" d="M2113.43 1320.81 Q2112.72 1320.39 2111.86 1320.21 Q2111.03 1320 2110.01 1320 Q2106.4 1320 2104.45 1322.36 Q2102.53 1324.7 2102.53 1329.1 L2102.53 1342.76 L2098.25 1342.76 L2098.25 1316.83 L2102.53 1316.83 L2102.53 1320.86 Q2103.87 1318.5 2106.03 1317.36 Q2108.18 1316.2 2111.26 1316.2 Q2111.7 1316.2 2112.23 1316.27 Q2112.76 1316.32 2113.41 1316.44 L2113.43 1320.81 Z" fill="#000000" fill-rule="evenodd" fill-opacity="1" /><path clip-path="url(#clip920)" d="M2122.12 1309.47 L2122.12 1316.83 L2130.89 1316.83 L2130.89 1320.14 L2122.12 1320.14 L2122.12 1334.21 Q2122.12 1337.38 2122.97 1338.29 Q2123.85 1339.19 2126.51 1339.19 L2130.89 1339.19 L2130.89 1342.76 L2126.51 1342.76 Q2121.58 1342.76 2119.71 1340.93 Q2117.83 1339.07 2117.83 1334.21 L2117.83 1320.14 L2114.71 1320.14 L2114.71 1316.83 L2117.83 1316.83 L2117.83 1309.47 L2122.12 1309.47 Z" fill="#000000" fill-rule="evenodd" fill-opacity="1" /><path clip-path="url(#clip920)" d="M2155.77 1309.47 L2155.77 1316.83 L2164.55 1316.83 L2164.55 1320.14 L2155.77 1320.14 L2155.77 1334.21 Q2155.77 1337.38 2156.63 1338.29 Q2157.51 1339.19 2160.17 1339.19 L2164.55 1339.19 L2164.55 1342.76 L2160.17 1342.76 Q2155.24 1342.76 2153.36 1340.93 Q2151.49 1339.07 2151.49 1334.21 L2151.49 1320.14 L2148.36 1320.14 L2148.36 1316.83 L2151.49 1316.83 L2151.49 1309.47 L2155.77 1309.47 Z" fill="#000000" fill-rule="evenodd" fill-opacity="1" /><path clip-path="url(#clip920)" d="M2180.19 1319.82 Q2176.77 1319.82 2174.78 1322.5 Q2172.79 1325.16 2172.79 1329.82 Q2172.79 1334.47 2174.75 1337.15 Q2176.74 1339.82 2180.19 1339.82 Q2183.6 1339.82 2185.59 1337.13 Q2187.58 1334.45 2187.58 1329.82 Q2187.58 1325.21 2185.59 1322.52 Q2183.6 1319.82 2180.19 1319.82 M2180.19 1316.2 Q2185.75 1316.2 2188.92 1319.82 Q2192.09 1323.43 2192.09 1329.82 Q2192.09 1336.18 2188.92 1339.82 Q2185.75 1343.43 2180.19 1343.43 Q2174.61 1343.43 2171.44 1339.82 Q2168.3 1336.18 2168.3 1329.82 Q2168.3 1323.43 2171.44 1319.82 Q2174.61 1316.2 2180.19 1316.2 Z" fill="#000000" fill-rule="evenodd" fill-opacity="1" /><path clip-path="url(#clip920)" d="M2214.41 1308.2 L2219.08 1308.2 L2219.08 1338.82 L2235.91 1338.82 L2235.91 1342.76 L2214.41 1342.76 L2214.41 1308.2 Z" fill="#000000" fill-rule="evenodd" fill-opacity="1" /></svg>
