<?xml version="1.0" encoding="utf-8"?>
<svg xmlns="http://www.w3.org/2000/svg" xmlns:xlink="http://www.w3.org/1999/xlink" width="600" height="400" viewBox="0 0 2400 1600">
<defs>
  <clipPath id="clip830">
    <rect x="0" y="0" width="2400" height="1600"/>
  </clipPath>
</defs>
<path clip-path="url(#clip830)" d="
M0 1600 L2400 1600 L2400 0 L0 0  Z
  " fill="#ffffff" fill-rule="evenodd" fill-opacity="1"/>
<defs>
  <clipPath id="clip831">
    <rect x="480" y="0" width="1681" height="1600"/>
  </clipPath>
</defs>
<path clip-path="url(#clip830)" d="
M174.149 1423.18 L2352.76 1423.18 L2352.76 47.2441 L174.149 47.2441  Z
  " fill="#ffffff" fill-rule="evenodd" fill-opacity="1"/>
<defs>
  <clipPath id="clip832">
    <rect x="174" y="47" width="2180" height="1377"/>
  </clipPath>
</defs>
<polyline clip-path="url(#clip832)" style="stroke:#000000; stroke-linecap:butt; stroke-linejoin:round; stroke-width:2; stroke-opacity:0.1; fill:none" points="
  193.863,1423.18 193.863,47.2441 
  "/>
<polyline clip-path="url(#clip832)" style="stroke:#000000; stroke-linecap:butt; stroke-linejoin:round; stroke-width:2; stroke-opacity:0.1; fill:none" points="
  718.171,1423.18 718.171,47.2441 
  "/>
<polyline clip-path="url(#clip832)" style="stroke:#000000; stroke-linecap:butt; stroke-linejoin:round; stroke-width:2; stroke-opacity:0.1; fill:none" points="
  1242.48,1423.18 1242.48,47.2441 
  "/>
<polyline clip-path="url(#clip832)" style="stroke:#000000; stroke-linecap:butt; stroke-linejoin:round; stroke-width:2; stroke-opacity:0.1; fill:none" points="
  1766.79,1423.18 1766.79,47.2441 
  "/>
<polyline clip-path="url(#clip832)" style="stroke:#000000; stroke-linecap:butt; stroke-linejoin:round; stroke-width:2; stroke-opacity:0.1; fill:none" points="
  2291.1,1423.18 2291.1,47.2441 
  "/>
<polyline clip-path="url(#clip830)" style="stroke:#000000; stroke-linecap:butt; stroke-linejoin:round; stroke-width:4; stroke-opacity:1; fill:none" points="
  174.149,1423.18 2352.76,1423.18 
  "/>
<polyline clip-path="url(#clip830)" style="stroke:#000000; stroke-linecap:butt; stroke-linejoin:round; stroke-width:4; stroke-opacity:1; fill:none" points="
  193.863,1423.18 193.863,1404.28 
  "/>
<polyline clip-path="url(#clip830)" style="stroke:#000000; stroke-linecap:butt; stroke-linejoin:round; stroke-width:4; stroke-opacity:1; fill:none" points="
  718.171,1423.18 718.171,1404.28 
  "/>
<polyline clip-path="url(#clip830)" style="stroke:#000000; stroke-linecap:butt; stroke-linejoin:round; stroke-width:4; stroke-opacity:1; fill:none" points="
  1242.48,1423.18 1242.48,1404.28 
  "/>
<polyline clip-path="url(#clip830)" style="stroke:#000000; stroke-linecap:butt; stroke-linejoin:round; stroke-width:4; stroke-opacity:1; fill:none" points="
  1766.79,1423.18 1766.79,1404.28 
  "/>
<polyline clip-path="url(#clip830)" style="stroke:#000000; stroke-linecap:butt; stroke-linejoin:round; stroke-width:4; stroke-opacity:1; fill:none" points="
  2291.1,1423.18 2291.1,1404.28 
  "/>
<path clip-path="url(#clip830)" d="M156.166 1454.1 Q152.555 1454.1 150.727 1457.66 Q148.921 1461.2 148.921 1468.33 Q148.921 1475.44 150.727 1479.01 Q152.555 1482.55 156.166 1482.55 Q159.801 1482.55 161.606 1479.01 Q163.435 1475.44 163.435 1468.33 Q163.435 1461.2 161.606 1457.66 Q159.801 1454.1 156.166 1454.1 M156.166 1450.39 Q161.977 1450.39 165.032 1455 Q168.111 1459.58 168.111 1468.33 Q168.111 1477.06 165.032 1481.67 Q161.977 1486.25 156.166 1486.25 Q150.356 1486.25 147.278 1481.67 Q144.222 1477.06 144.222 1468.33 Q144.222 1459.58 147.278 1455 Q150.356 1450.39 156.166 1450.39 Z" fill="#000000" fill-rule="evenodd" fill-opacity="1" /><path clip-path="url(#clip830)" d="M176.328 1479.7 L181.213 1479.7 L181.213 1485.58 L176.328 1485.58 L176.328 1479.7 Z" fill="#000000" fill-rule="evenodd" fill-opacity="1" /><path clip-path="url(#clip830)" d="M201.398 1454.1 Q197.787 1454.1 195.958 1457.66 Q194.152 1461.2 194.152 1468.33 Q194.152 1475.44 195.958 1479.01 Q197.787 1482.55 201.398 1482.55 Q205.032 1482.55 206.837 1479.01 Q208.666 1475.44 208.666 1468.33 Q208.666 1461.2 206.837 1457.66 Q205.032 1454.1 201.398 1454.1 M201.398 1450.39 Q207.208 1450.39 210.263 1455 Q213.342 1459.58 213.342 1468.33 Q213.342 1477.06 210.263 1481.67 Q207.208 1486.25 201.398 1486.25 Q195.587 1486.25 192.509 1481.67 Q189.453 1477.06 189.453 1468.33 Q189.453 1459.58 192.509 1455 Q195.587 1450.39 201.398 1450.39 Z" fill="#000000" fill-rule="evenodd" fill-opacity="1" /><path clip-path="url(#clip830)" d="M231.559 1454.1 Q227.948 1454.1 226.12 1457.66 Q224.314 1461.2 224.314 1468.33 Q224.314 1475.44 226.12 1479.01 Q227.948 1482.55 231.559 1482.55 Q235.194 1482.55 236.999 1479.01 Q238.828 1475.44 238.828 1468.33 Q238.828 1461.2 236.999 1457.66 Q235.194 1454.1 231.559 1454.1 M231.559 1450.39 Q237.37 1450.39 240.425 1455 Q243.504 1459.58 243.504 1468.33 Q243.504 1477.06 240.425 1481.67 Q237.37 1486.25 231.559 1486.25 Q225.749 1486.25 222.671 1481.67 Q219.615 1477.06 219.615 1468.33 Q219.615 1459.58 222.671 1455 Q225.749 1450.39 231.559 1450.39 Z" fill="#000000" fill-rule="evenodd" fill-opacity="1" /><path clip-path="url(#clip830)" d="M680.973 1454.1 Q677.362 1454.1 675.533 1457.66 Q673.727 1461.2 673.727 1468.33 Q673.727 1475.44 675.533 1479.01 Q677.362 1482.55 680.973 1482.55 Q684.607 1482.55 686.412 1479.01 Q688.241 1475.44 688.241 1468.33 Q688.241 1461.2 686.412 1457.66 Q684.607 1454.1 680.973 1454.1 M680.973 1450.39 Q686.783 1450.39 689.838 1455 Q692.917 1459.58 692.917 1468.33 Q692.917 1477.06 689.838 1481.67 Q686.783 1486.25 680.973 1486.25 Q675.162 1486.25 672.084 1481.67 Q669.028 1477.06 669.028 1468.33 Q669.028 1459.58 672.084 1455 Q675.162 1450.39 680.973 1450.39 Z" fill="#000000" fill-rule="evenodd" fill-opacity="1" /><path clip-path="url(#clip830)" d="M701.135 1479.7 L706.019 1479.7 L706.019 1485.58 L701.135 1485.58 L701.135 1479.7 Z" fill="#000000" fill-rule="evenodd" fill-opacity="1" /><path clip-path="url(#clip830)" d="M720.232 1481.64 L736.551 1481.64 L736.551 1485.58 L714.607 1485.58 L714.607 1481.64 Q717.269 1478.89 721.852 1474.26 Q726.458 1469.61 727.639 1468.27 Q729.884 1465.74 730.764 1464.01 Q731.667 1462.25 731.667 1460.56 Q731.667 1457.8 729.722 1456.07 Q727.801 1454.33 724.699 1454.33 Q722.5 1454.33 720.046 1455.09 Q717.616 1455.86 714.838 1457.41 L714.838 1452.69 Q717.662 1451.55 720.116 1450.97 Q722.57 1450.39 724.607 1450.39 Q729.977 1450.39 733.171 1453.08 Q736.366 1455.77 736.366 1460.26 Q736.366 1462.39 735.556 1464.31 Q734.769 1466.2 732.662 1468.8 Q732.083 1469.47 728.982 1472.69 Q725.88 1475.88 720.232 1481.64 Z" fill="#000000" fill-rule="evenodd" fill-opacity="1" /><path clip-path="url(#clip830)" d="M746.412 1451.02 L764.768 1451.02 L764.768 1454.96 L750.694 1454.96 L750.694 1463.43 Q751.713 1463.08 752.731 1462.92 Q753.75 1462.73 754.769 1462.73 Q760.556 1462.73 763.935 1465.9 Q767.315 1469.08 767.315 1474.49 Q767.315 1480.07 763.843 1483.17 Q760.37 1486.25 754.051 1486.25 Q751.875 1486.25 749.607 1485.88 Q747.361 1485.51 744.954 1484.77 L744.954 1480.07 Q747.037 1481.2 749.259 1481.76 Q751.482 1482.32 753.958 1482.32 Q757.963 1482.32 760.301 1480.21 Q762.639 1478.1 762.639 1474.49 Q762.639 1470.88 760.301 1468.77 Q757.963 1466.67 753.958 1466.67 Q752.083 1466.67 750.208 1467.08 Q748.357 1467.5 746.412 1468.38 L746.412 1451.02 Z" fill="#000000" fill-rule="evenodd" fill-opacity="1" /><path clip-path="url(#clip830)" d="M1204.78 1454.1 Q1201.17 1454.1 1199.34 1457.66 Q1197.54 1461.2 1197.54 1468.33 Q1197.54 1475.44 1199.34 1479.01 Q1201.17 1482.55 1204.78 1482.55 Q1208.42 1482.55 1210.22 1479.01 Q1212.05 1475.44 1212.05 1468.33 Q1212.05 1461.2 1210.22 1457.66 Q1208.42 1454.1 1204.78 1454.1 M1204.78 1450.39 Q1210.59 1450.39 1213.65 1455 Q1216.73 1459.58 1216.73 1468.33 Q1216.73 1477.06 1213.65 1481.67 Q1210.59 1486.25 1204.78 1486.25 Q1198.97 1486.25 1195.89 1481.67 Q1192.84 1477.06 1192.84 1468.33 Q1192.84 1459.58 1195.89 1455 Q1198.97 1450.39 1204.78 1450.39 Z" fill="#000000" fill-rule="evenodd" fill-opacity="1" /><path clip-path="url(#clip830)" d="M1224.95 1479.7 L1229.83 1479.7 L1229.83 1485.58 L1224.95 1485.58 L1224.95 1479.7 Z" fill="#000000" fill-rule="evenodd" fill-opacity="1" /><path clip-path="url(#clip830)" d="M1240.06 1451.02 L1258.42 1451.02 L1258.42 1454.96 L1244.34 1454.96 L1244.34 1463.43 Q1245.36 1463.08 1246.38 1462.92 Q1247.4 1462.73 1248.42 1462.73 Q1254.2 1462.73 1257.58 1465.9 Q1260.96 1469.08 1260.96 1474.49 Q1260.96 1480.07 1257.49 1483.17 Q1254.02 1486.25 1247.7 1486.25 Q1245.52 1486.25 1243.26 1485.88 Q1241.01 1485.51 1238.6 1484.77 L1238.6 1480.07 Q1240.69 1481.2 1242.91 1481.76 Q1245.13 1482.32 1247.61 1482.32 Q1251.61 1482.32 1253.95 1480.21 Q1256.29 1478.1 1256.29 1474.49 Q1256.29 1470.88 1253.95 1468.77 Q1251.61 1466.67 1247.61 1466.67 Q1245.73 1466.67 1243.86 1467.08 Q1242.01 1467.5 1240.06 1468.38 L1240.06 1451.02 Z" fill="#000000" fill-rule="evenodd" fill-opacity="1" /><path clip-path="url(#clip830)" d="M1280.18 1454.1 Q1276.57 1454.1 1274.74 1457.66 Q1272.93 1461.2 1272.93 1468.33 Q1272.93 1475.44 1274.74 1479.01 Q1276.57 1482.55 1280.18 1482.55 Q1283.81 1482.55 1285.62 1479.01 Q1287.45 1475.44 1287.45 1468.33 Q1287.45 1461.2 1285.62 1457.66 Q1283.81 1454.1 1280.18 1454.1 M1280.18 1450.39 Q1285.99 1450.39 1289.04 1455 Q1292.12 1459.58 1292.12 1468.33 Q1292.12 1477.06 1289.04 1481.67 Q1285.99 1486.25 1280.18 1486.25 Q1274.37 1486.25 1271.29 1481.67 Q1268.23 1477.06 1268.23 1468.33 Q1268.23 1459.58 1271.29 1455 Q1274.37 1450.39 1280.18 1450.39 Z" fill="#000000" fill-rule="evenodd" fill-opacity="1" /><path clip-path="url(#clip830)" d="M1729.59 1454.1 Q1725.98 1454.1 1724.15 1457.66 Q1722.34 1461.2 1722.34 1468.33 Q1722.34 1475.44 1724.15 1479.01 Q1725.98 1482.55 1729.59 1482.55 Q1733.22 1482.55 1735.03 1479.01 Q1736.86 1475.44 1736.86 1468.33 Q1736.86 1461.2 1735.03 1457.66 Q1733.22 1454.1 1729.59 1454.1 M1729.59 1450.39 Q1735.4 1450.39 1738.46 1455 Q1741.53 1459.58 1741.53 1468.33 Q1741.53 1477.06 1738.46 1481.67 Q1735.4 1486.25 1729.59 1486.25 Q1723.78 1486.25 1720.7 1481.67 Q1717.65 1477.06 1717.65 1468.33 Q1717.65 1459.58 1720.7 1455 Q1723.78 1450.39 1729.59 1450.39 Z" fill="#000000" fill-rule="evenodd" fill-opacity="1" /><path clip-path="url(#clip830)" d="M1749.75 1479.7 L1754.64 1479.7 L1754.64 1485.58 L1749.75 1485.58 L1749.75 1479.7 Z" fill="#000000" fill-rule="evenodd" fill-opacity="1" /><path clip-path="url(#clip830)" d="M1763.64 1451.02 L1785.86 1451.02 L1785.86 1453.01 L1773.32 1485.58 L1768.43 1485.58 L1780.24 1454.96 L1763.64 1454.96 L1763.64 1451.02 Z" fill="#000000" fill-rule="evenodd" fill-opacity="1" /><path clip-path="url(#clip830)" d="M1795.03 1451.02 L1813.39 1451.02 L1813.39 1454.96 L1799.31 1454.96 L1799.31 1463.43 Q1800.33 1463.08 1801.35 1462.92 Q1802.37 1462.73 1803.39 1462.73 Q1809.17 1462.73 1812.55 1465.9 Q1815.93 1469.08 1815.93 1474.49 Q1815.93 1480.07 1812.46 1483.17 Q1808.99 1486.25 1802.67 1486.25 Q1800.49 1486.25 1798.22 1485.88 Q1795.98 1485.51 1793.57 1484.77 L1793.57 1480.07 Q1795.65 1481.2 1797.88 1481.76 Q1800.1 1482.32 1802.58 1482.32 Q1806.58 1482.32 1808.92 1480.21 Q1811.26 1478.1 1811.26 1474.49 Q1811.26 1470.88 1808.92 1468.77 Q1806.58 1466.67 1802.58 1466.67 Q1800.7 1466.67 1798.83 1467.08 Q1796.97 1467.5 1795.03 1468.38 L1795.03 1451.02 Z" fill="#000000" fill-rule="evenodd" fill-opacity="1" /><path clip-path="url(#clip830)" d="M2243.17 1481.64 L2250.81 1481.64 L2250.81 1455.28 L2242.5 1456.95 L2242.5 1452.69 L2250.76 1451.02 L2255.44 1451.02 L2255.44 1481.64 L2263.08 1481.64 L2263.08 1485.58 L2243.17 1485.58 L2243.17 1481.64 Z" fill="#000000" fill-rule="evenodd" fill-opacity="1" /><path clip-path="url(#clip830)" d="M2272.52 1479.7 L2277.41 1479.7 L2277.41 1485.58 L2272.52 1485.58 L2272.52 1479.7 Z" fill="#000000" fill-rule="evenodd" fill-opacity="1" /><path clip-path="url(#clip830)" d="M2297.59 1454.1 Q2293.98 1454.1 2292.15 1457.66 Q2290.34 1461.2 2290.34 1468.33 Q2290.34 1475.44 2292.15 1479.01 Q2293.98 1482.55 2297.59 1482.55 Q2301.22 1482.55 2303.03 1479.01 Q2304.86 1475.44 2304.86 1468.33 Q2304.86 1461.2 2303.03 1457.66 Q2301.22 1454.1 2297.59 1454.1 M2297.59 1450.39 Q2303.4 1450.39 2306.46 1455 Q2309.53 1459.58 2309.53 1468.33 Q2309.53 1477.06 2306.46 1481.67 Q2303.4 1486.25 2297.59 1486.25 Q2291.78 1486.25 2288.7 1481.67 Q2285.65 1477.06 2285.65 1468.33 Q2285.65 1459.58 2288.7 1455 Q2291.78 1450.39 2297.59 1450.39 Z" fill="#000000" fill-rule="evenodd" fill-opacity="1" /><path clip-path="url(#clip830)" d="M2327.75 1454.1 Q2324.14 1454.1 2322.31 1457.66 Q2320.51 1461.2 2320.51 1468.33 Q2320.51 1475.44 2322.31 1479.01 Q2324.14 1482.55 2327.75 1482.55 Q2331.39 1482.55 2333.19 1479.01 Q2335.02 1475.44 2335.02 1468.33 Q2335.02 1461.2 2333.19 1457.66 Q2331.39 1454.1 2327.75 1454.1 M2327.75 1450.39 Q2333.56 1450.39 2336.62 1455 Q2339.7 1459.58 2339.7 1468.33 Q2339.7 1477.06 2336.62 1481.67 Q2333.56 1486.25 2327.75 1486.25 Q2321.94 1486.25 2318.86 1481.67 Q2315.81 1477.06 2315.81 1468.33 Q2315.81 1459.58 2318.86 1455 Q2321.94 1450.39 2327.75 1450.39 Z" fill="#000000" fill-rule="evenodd" fill-opacity="1" /><path clip-path="url(#clip830)" d="M1184.63 1548.76 L1184.63 1551.62 L1157.7 1551.62 Q1158.08 1557.67 1161.33 1560.85 Q1164.61 1564 1170.43 1564 Q1173.81 1564 1176.96 1563.17 Q1180.14 1562.35 1183.26 1560.69 L1183.26 1566.23 Q1180.11 1567.57 1176.8 1568.27 Q1173.49 1568.97 1170.08 1568.97 Q1161.55 1568.97 1156.56 1564 Q1151.59 1559.04 1151.59 1550.57 Q1151.59 1541.82 1156.3 1536.69 Q1161.04 1531.54 1169.06 1531.54 Q1176.26 1531.54 1180.43 1536.18 Q1184.63 1540.8 1184.63 1548.76 M1178.77 1547.04 Q1178.71 1542.23 1176.07 1539.37 Q1173.46 1536.5 1169.13 1536.5 Q1164.23 1536.5 1161.27 1539.27 Q1158.34 1542.04 1157.89 1547.07 L1178.77 1547.04 Z" fill="#000000" fill-rule="evenodd" fill-opacity="1" /><path clip-path="url(#clip830)" d="M1199.91 1562.7 L1199.91 1581.6 L1194.02 1581.6 L1194.02 1532.4 L1199.91 1532.4 L1199.91 1537.81 Q1201.75 1534.62 1204.55 1533.1 Q1207.39 1531.54 1211.3 1531.54 Q1217.79 1531.54 1221.84 1536.69 Q1225.91 1541.85 1225.91 1550.25 Q1225.91 1558.65 1221.84 1563.81 Q1217.79 1568.97 1211.3 1568.97 Q1207.39 1568.97 1204.55 1567.44 Q1201.75 1565.88 1199.91 1562.7 M1219.83 1550.25 Q1219.83 1543.79 1217.16 1540.13 Q1214.52 1536.44 1209.87 1536.44 Q1205.22 1536.44 1202.55 1540.13 Q1199.91 1543.79 1199.91 1550.25 Q1199.91 1556.71 1202.55 1560.4 Q1205.22 1564.07 1209.87 1564.07 Q1214.52 1564.07 1217.16 1560.4 Q1219.83 1556.71 1219.83 1550.25 Z" fill="#000000" fill-rule="evenodd" fill-opacity="1" /><path clip-path="url(#clip830)" d="M1258.34 1533.45 L1258.34 1538.98 Q1255.86 1537.71 1253.19 1537.07 Q1250.51 1536.44 1247.65 1536.44 Q1243.29 1536.44 1241.09 1537.77 Q1238.93 1539.11 1238.93 1541.79 Q1238.93 1543.82 1240.49 1545 Q1242.05 1546.15 1246.76 1547.2 L1248.76 1547.64 Q1255 1548.98 1257.61 1551.43 Q1260.25 1553.85 1260.25 1558.21 Q1260.25 1563.17 1256.31 1566.07 Q1252.39 1568.97 1245.52 1568.97 Q1242.65 1568.97 1239.53 1568.39 Q1236.45 1567.85 1233.01 1566.74 L1233.01 1560.69 Q1236.25 1562.38 1239.41 1563.24 Q1242.56 1564.07 1245.64 1564.07 Q1249.78 1564.07 1252.01 1562.66 Q1254.24 1561.23 1254.24 1558.65 Q1254.24 1556.27 1252.61 1554.99 Q1251.02 1553.72 1245.58 1552.54 L1243.54 1552.07 Q1238.1 1550.92 1235.68 1548.56 Q1233.26 1546.18 1233.26 1542.04 Q1233.26 1537.01 1236.83 1534.27 Q1240.39 1531.54 1246.95 1531.54 Q1250.2 1531.54 1253.06 1532.01 Q1255.92 1532.49 1258.34 1533.45 Z" fill="#000000" fill-rule="evenodd" fill-opacity="1" /><path clip-path="url(#clip830)" d="M1269.58 1532.4 L1275.44 1532.4 L1275.44 1568.04 L1269.58 1568.04 L1269.58 1532.4 M1269.58 1518.52 L1275.44 1518.52 L1275.44 1525.93 L1269.58 1525.93 L1269.58 1518.52 Z" fill="#000000" fill-rule="evenodd" fill-opacity="1" /><path clip-path="url(#clip830)" d="M1287.69 1518.52 L1293.55 1518.52 L1293.55 1568.04 L1287.69 1568.04 L1287.69 1518.52 Z" fill="#000000" fill-rule="evenodd" fill-opacity="1" /><path clip-path="url(#clip830)" d="M1319.61 1536.5 Q1314.9 1536.5 1312.17 1540.19 Q1309.43 1543.85 1309.43 1550.25 Q1309.43 1556.65 1312.13 1560.34 Q1314.87 1564 1319.61 1564 Q1324.29 1564 1327.03 1560.31 Q1329.77 1556.62 1329.77 1550.25 Q1329.77 1543.92 1327.03 1540.23 Q1324.29 1536.5 1319.61 1536.5 M1319.61 1531.54 Q1327.25 1531.54 1331.61 1536.5 Q1335.97 1541.47 1335.97 1550.25 Q1335.97 1559 1331.61 1564 Q1327.25 1568.97 1319.61 1568.97 Q1311.94 1568.97 1307.58 1564 Q1303.25 1559 1303.25 1550.25 Q1303.25 1541.47 1307.58 1536.5 Q1311.94 1531.54 1319.61 1531.54 Z" fill="#000000" fill-rule="evenodd" fill-opacity="1" /><path clip-path="url(#clip830)" d="M1375.31 1546.53 L1375.31 1568.04 L1369.46 1568.04 L1369.46 1546.72 Q1369.46 1541.66 1367.48 1539.14 Q1365.51 1536.63 1361.56 1536.63 Q1356.82 1536.63 1354.08 1539.65 Q1351.35 1542.68 1351.35 1547.9 L1351.35 1568.04 L1345.46 1568.04 L1345.46 1532.4 L1351.35 1532.4 L1351.35 1537.93 Q1353.45 1534.72 1356.28 1533.13 Q1359.14 1531.54 1362.87 1531.54 Q1369.01 1531.54 1372.16 1535.36 Q1375.31 1539.14 1375.31 1546.53 Z" fill="#000000" fill-rule="evenodd" fill-opacity="1" /><polyline clip-path="url(#clip832)" style="stroke:#000000; stroke-linecap:butt; stroke-linejoin:round; stroke-width:2; stroke-opacity:0.1; fill:none" points="
  174.149,1384.24 2352.76,1384.24 
  "/>
<polyline clip-path="url(#clip832)" style="stroke:#000000; stroke-linecap:butt; stroke-linejoin:round; stroke-width:2; stroke-opacity:0.1; fill:none" points="
  174.149,947.39 2352.76,947.39 
  "/>
<polyline clip-path="url(#clip832)" style="stroke:#000000; stroke-linecap:butt; stroke-linejoin:round; stroke-width:2; stroke-opacity:0.1; fill:none" points="
  174.149,510.541 2352.76,510.541 
  "/>
<polyline clip-path="url(#clip832)" style="stroke:#000000; stroke-linecap:butt; stroke-linejoin:round; stroke-width:2; stroke-opacity:0.1; fill:none" points="
  174.149,73.6923 2352.76,73.6923 
  "/>
<polyline clip-path="url(#clip830)" style="stroke:#000000; stroke-linecap:butt; stroke-linejoin:round; stroke-width:4; stroke-opacity:1; fill:none" points="
  174.149,1423.18 174.149,47.2441 
  "/>
<polyline clip-path="url(#clip830)" style="stroke:#000000; stroke-linecap:butt; stroke-linejoin:round; stroke-width:4; stroke-opacity:1; fill:none" points="
  174.149,1384.24 193.047,1384.24 
  "/>
<polyline clip-path="url(#clip830)" style="stroke:#000000; stroke-linecap:butt; stroke-linejoin:round; stroke-width:4; stroke-opacity:1; fill:none" points="
  174.149,947.39 193.047,947.39 
  "/>
<polyline clip-path="url(#clip830)" style="stroke:#000000; stroke-linecap:butt; stroke-linejoin:round; stroke-width:4; stroke-opacity:1; fill:none" points="
  174.149,510.541 193.047,510.541 
  "/>
<polyline clip-path="url(#clip830)" style="stroke:#000000; stroke-linecap:butt; stroke-linejoin:round; stroke-width:4; stroke-opacity:1; fill:none" points="
  174.149,73.6923 193.047,73.6923 
  "/>
<path clip-path="url(#clip830)" d="M126.205 1370.04 Q122.593 1370.04 120.765 1373.6 Q118.959 1377.14 118.959 1384.27 Q118.959 1391.38 120.765 1394.94 Q122.593 1398.49 126.205 1398.49 Q129.839 1398.49 131.644 1394.94 Q133.473 1391.38 133.473 1384.27 Q133.473 1377.14 131.644 1373.6 Q129.839 1370.04 126.205 1370.04 M126.205 1366.33 Q132.015 1366.33 135.07 1370.94 Q138.149 1375.52 138.149 1384.27 Q138.149 1393 135.07 1397.61 Q132.015 1402.19 126.205 1402.19 Q120.394 1402.19 117.316 1397.61 Q114.26 1393 114.26 1384.27 Q114.26 1375.52 117.316 1370.94 Q120.394 1366.33 126.205 1366.33 Z" fill="#000000" fill-rule="evenodd" fill-opacity="1" /><path clip-path="url(#clip830)" d="M118.242 960.734 L125.88 960.734 L125.88 934.369 L117.57 936.035 L117.57 931.776 L125.834 930.11 L130.51 930.11 L130.51 960.734 L138.149 960.734 L138.149 964.67 L118.242 964.67 L118.242 960.734 Z" fill="#000000" fill-rule="evenodd" fill-opacity="1" /><path clip-path="url(#clip830)" d="M121.83 523.886 L138.149 523.886 L138.149 527.821 L116.205 527.821 L116.205 523.886 Q118.867 521.131 123.45 516.502 Q128.056 511.849 129.237 510.506 Q131.482 507.983 132.362 506.247 Q133.265 504.488 133.265 502.798 Q133.265 500.043 131.32 498.307 Q129.399 496.571 126.297 496.571 Q124.098 496.571 121.644 497.335 Q119.214 498.099 116.436 499.65 L116.436 494.928 Q119.26 493.793 121.714 493.215 Q124.168 492.636 126.205 492.636 Q131.575 492.636 134.769 495.321 Q137.964 498.006 137.964 502.497 Q137.964 504.627 137.154 506.548 Q136.367 508.446 134.26 511.039 Q133.681 511.71 130.58 514.927 Q127.478 518.122 121.83 523.886 Z" fill="#000000" fill-rule="evenodd" fill-opacity="1" /><path clip-path="url(#clip830)" d="M131.019 72.3381 Q134.376 73.0557 136.251 75.3242 Q138.149 77.5927 138.149 80.926 Q138.149 86.0417 134.63 88.8426 Q131.112 91.6435 124.63 91.6435 Q122.455 91.6435 120.14 91.2037 Q117.848 90.7871 115.394 89.9306 L115.394 85.4167 Q117.339 86.551 119.654 87.1297 Q121.968 87.7084 124.492 87.7084 Q128.89 87.7084 131.181 85.9723 Q133.496 84.2362 133.496 80.926 Q133.496 77.8705 131.343 76.1575 Q129.214 74.4214 125.394 74.4214 L121.367 74.4214 L121.367 70.5788 L125.58 70.5788 Q129.029 70.5788 130.857 69.2131 Q132.686 67.8242 132.686 65.2316 Q132.686 62.5696 130.788 61.1576 Q128.913 59.7224 125.394 59.7224 Q123.473 59.7224 121.274 60.1391 Q119.075 60.5557 116.436 61.4354 L116.436 57.2687 Q119.098 56.528 121.413 56.1576 Q123.751 55.7873 125.811 55.7873 Q131.135 55.7873 134.237 58.2178 Q137.339 60.6252 137.339 64.7455 Q137.339 67.6159 135.695 69.6066 Q134.052 71.5742 131.019 72.3381 Z" fill="#000000" fill-rule="evenodd" fill-opacity="1" /><path clip-path="url(#clip830)" d="M16.4842 1095.3 L16.4842 1055.1 L21.895 1055.1 L21.895 1071.97 L64.0042 1071.97 L64.0042 1078.43 L21.895 1078.43 L21.895 1095.3 L16.4842 1095.3 Z" fill="#000000" fill-rule="evenodd" fill-opacity="1" /><path clip-path="url(#clip830)" d="M33.8307 1038.08 Q33.2578 1039.06 33.0032 1040.24 Q32.7167 1041.39 32.7167 1042.79 Q32.7167 1047.75 35.9632 1050.43 Q39.1779 1053.07 45.2253 1053.07 L64.0042 1053.07 L64.0042 1058.96 L28.3562 1058.96 L28.3562 1053.07 L33.8944 1053.07 Q30.6479 1051.22 29.0883 1048.26 Q27.4968 1045.3 27.4968 1041.07 Q27.4968 1040.46 27.5923 1039.73 Q27.656 1039 27.8151 1038.11 L33.8307 1038.08 Z" fill="#000000" fill-rule="evenodd" fill-opacity="1" /><path clip-path="url(#clip830)" d="M46.0847 1015.73 Q46.0847 1022.83 47.7079 1025.57 Q49.3312 1028.31 53.2461 1028.31 Q56.3653 1028.31 58.2114 1026.27 Q60.0256 1024.2 60.0256 1020.67 Q60.0256 1015.8 56.5881 1012.87 Q53.1188 1009.91 47.3897 1009.91 L46.0847 1009.91 L46.0847 1015.73 M43.6657 1004.05 L64.0042 1004.05 L64.0042 1009.91 L58.5933 1009.91 Q61.8398 1011.91 63.3994 1014.91 Q64.9272 1017.9 64.9272 1022.23 Q64.9272 1027.7 61.8716 1030.95 Q58.7843 1034.16 53.6281 1034.16 Q47.6125 1034.16 44.5569 1030.15 Q41.5014 1026.11 41.5014 1018.12 L41.5014 1009.91 L40.9285 1009.91 Q36.8862 1009.91 34.6901 1012.58 Q32.4621 1015.22 32.4621 1020.03 Q32.4621 1023.09 33.1941 1025.98 Q33.9262 1028.88 35.3903 1031.55 L29.9795 1031.55 Q28.7381 1028.34 28.1334 1025.31 Q27.4968 1022.29 27.4968 1019.42 Q27.4968 1011.69 31.5072 1007.87 Q35.5176 1004.05 43.6657 1004.05 Z" fill="#000000" fill-rule="evenodd" fill-opacity="1" /><path clip-path="url(#clip830)" d="M42.4881 962.356 L64.0042 962.356 L64.0042 968.213 L42.679 968.213 Q37.6183 968.213 35.1038 970.186 Q32.5894 972.159 32.5894 976.106 Q32.5894 980.849 35.6131 983.586 Q38.6368 986.323 43.8567 986.323 L64.0042 986.323 L64.0042 992.211 L28.3562 992.211 L28.3562 986.323 L33.8944 986.323 Q30.6797 984.222 29.0883 981.39 Q27.4968 978.525 27.4968 974.801 Q27.4968 968.658 31.3163 965.507 Q35.1038 962.356 42.4881 962.356 Z" fill="#000000" fill-rule="evenodd" fill-opacity="1" /><path clip-path="url(#clip830)" d="M29.4065 927.95 L34.9447 927.95 Q33.6716 930.432 33.035 933.106 Q32.3984 935.779 32.3984 938.644 Q32.3984 943.005 33.7352 945.201 Q35.072 947.365 37.7456 947.365 Q39.7826 947.365 40.9603 945.805 Q42.1061 944.246 43.1565 939.535 L43.6021 937.53 Q44.9389 931.292 47.3897 928.682 Q49.8086 926.04 54.1691 926.04 Q59.1344 926.04 62.0308 929.987 Q64.9272 933.902 64.9272 940.777 Q64.9272 943.641 64.3543 946.76 Q63.8132 949.848 62.6992 953.285 L56.6518 953.285 Q58.3387 950.039 59.198 946.888 Q60.0256 943.737 60.0256 940.649 Q60.0256 936.512 58.6251 934.284 Q57.1929 932.056 54.6147 932.056 Q52.2276 932.056 50.9545 933.679 Q49.6813 935.27 48.5037 940.713 L48.0262 942.75 Q46.8804 948.193 44.5251 950.612 Q42.138 953.031 38.0002 953.031 Q32.9713 953.031 30.2341 949.466 Q27.4968 945.901 27.4968 939.344 Q27.4968 936.098 27.9743 933.233 Q28.4517 930.369 29.4065 927.95 Z" fill="#000000" fill-rule="evenodd" fill-opacity="1" /><path clip-path="url(#clip830)" d="M14.479 898.667 L19.3487 898.667 L19.3487 904.269 Q19.3487 907.42 20.6219 908.662 Q21.895 909.871 25.2052 909.871 L28.3562 909.871 L28.3562 900.227 L32.9077 900.227 L32.9077 909.871 L64.0042 909.871 L64.0042 915.759 L32.9077 915.759 L32.9077 921.361 L28.3562 921.361 L28.3562 915.759 L25.8736 915.759 Q19.9216 915.759 17.2162 912.99 Q14.479 910.221 14.479 904.206 L14.479 898.667 Z" fill="#000000" fill-rule="evenodd" fill-opacity="1" /><path clip-path="url(#clip830)" d="M44.7161 863.274 L47.5806 863.274 L47.5806 890.201 Q53.6281 889.819 56.8109 886.573 Q59.9619 883.294 59.9619 877.47 Q59.9619 874.096 59.1344 870.945 Q58.3069 867.762 56.6518 864.643 L62.1899 864.643 Q63.5267 867.794 64.227 871.104 Q64.9272 874.414 64.9272 877.82 Q64.9272 886.35 59.9619 891.347 Q54.9967 896.312 46.5303 896.312 Q37.7774 896.312 32.6531 891.601 Q27.4968 886.859 27.4968 878.838 Q27.4968 871.645 32.1438 867.475 Q36.7589 863.274 44.7161 863.274 M42.9973 869.131 Q38.1912 869.194 35.3266 871.836 Q32.4621 874.446 32.4621 878.775 Q32.4621 883.676 35.2312 886.636 Q38.0002 889.564 43.0292 890.01 L42.9973 869.131 Z" fill="#000000" fill-rule="evenodd" fill-opacity="1" /><path clip-path="url(#clip830)" d="M33.8307 833.005 Q33.2578 833.992 33.0032 835.169 Q32.7167 836.315 32.7167 837.716 Q32.7167 842.681 35.9632 845.355 Q39.1779 847.996 45.2253 847.996 L64.0042 847.996 L64.0042 853.885 L28.3562 853.885 L28.3562 847.996 L33.8944 847.996 Q30.6479 846.15 29.0883 843.19 Q27.4968 840.23 27.4968 835.997 Q27.4968 835.392 27.5923 834.66 Q27.656 833.928 27.8151 833.037 L33.8307 833.005 Z" fill="#000000" fill-rule="evenodd" fill-opacity="1" /><path clip-path="url(#clip830)" d="M44.7161 775.65 L47.5806 775.65 L47.5806 802.577 Q53.6281 802.195 56.8109 798.949 Q59.9619 795.67 59.9619 789.846 Q59.9619 786.472 59.1344 783.321 Q58.3069 780.138 56.6518 777.019 L62.1899 777.019 Q63.5267 780.17 64.227 783.48 Q64.9272 786.79 64.9272 790.196 Q64.9272 798.726 59.9619 803.723 Q54.9967 808.688 46.5303 808.688 Q37.7774 808.688 32.6531 803.978 Q27.4968 799.235 27.4968 791.214 Q27.4968 784.021 32.1438 779.851 Q36.7589 775.65 44.7161 775.65 M42.9973 781.507 Q38.1912 781.57 35.3266 784.212 Q32.4621 786.822 32.4621 791.151 Q32.4621 796.052 35.2312 799.012 Q38.0002 801.94 43.0292 802.386 L42.9973 781.507 Z" fill="#000000" fill-rule="evenodd" fill-opacity="1" /><path clip-path="url(#clip830)" d="M42.4881 736.406 L64.0042 736.406 L64.0042 742.262 L42.679 742.262 Q37.6183 742.262 35.1038 744.235 Q32.5894 746.209 32.5894 750.155 Q32.5894 754.898 35.6131 757.635 Q38.6368 760.372 43.8567 760.372 L64.0042 760.372 L64.0042 766.261 L28.3562 766.261 L28.3562 760.372 L33.8944 760.372 Q30.6797 758.272 29.0883 755.439 Q27.4968 752.574 27.4968 748.85 Q27.4968 742.708 31.3163 739.557 Q35.1038 736.406 42.4881 736.406 Z" fill="#000000" fill-rule="evenodd" fill-opacity="1" /><path clip-path="url(#clip830)" d="M18.2347 718.932 L28.3562 718.932 L28.3562 706.869 L32.9077 706.869 L32.9077 718.932 L52.2594 718.932 Q56.6199 718.932 57.8613 717.754 Q59.1026 716.545 59.1026 712.884 L59.1026 706.869 L64.0042 706.869 L64.0042 712.884 Q64.0042 719.664 61.4897 722.242 Q58.9434 724.82 52.2594 724.82 L32.9077 724.82 L32.9077 729.117 L28.3562 729.117 L28.3562 724.82 L18.2347 724.82 L18.2347 718.932 Z" fill="#000000" fill-rule="evenodd" fill-opacity="1" /><path clip-path="url(#clip830)" d="M33.8307 678.509 Q33.2578 679.496 33.0032 680.674 Q32.7167 681.82 32.7167 683.22 Q32.7167 688.185 35.9632 690.859 Q39.1779 693.501 45.2253 693.501 L64.0042 693.501 L64.0042 699.389 L28.3562 699.389 L28.3562 693.501 L33.8944 693.501 Q30.6479 691.655 29.0883 688.695 Q27.4968 685.735 27.4968 681.501 Q27.4968 680.897 27.5923 680.165 Q27.656 679.432 27.8151 678.541 L33.8307 678.509 Z" fill="#000000" fill-rule="evenodd" fill-opacity="1" /><path clip-path="url(#clip830)" d="M32.4621 659.985 Q32.4621 664.696 36.1542 667.433 Q39.8145 670.17 46.212 670.17 Q52.6095 670.17 56.3017 667.465 Q59.9619 664.728 59.9619 659.985 Q59.9619 655.306 56.2698 652.569 Q52.5777 649.832 46.212 649.832 Q39.8781 649.832 36.186 652.569 Q32.4621 655.306 32.4621 659.985 M27.4968 659.985 Q27.4968 652.346 32.4621 647.986 Q37.4273 643.625 46.212 643.625 Q54.9649 643.625 59.9619 647.986 Q64.9272 652.346 64.9272 659.985 Q64.9272 667.656 59.9619 672.016 Q54.9649 676.345 46.212 676.345 Q37.4273 676.345 32.4621 672.016 Q27.4968 667.656 27.4968 659.985 Z" fill="#000000" fill-rule="evenodd" fill-opacity="1" /><path clip-path="url(#clip830)" d="M58.657 628.252 L77.5631 628.252 L77.5631 634.14 L28.3562 634.14 L28.3562 628.252 L33.7671 628.252 Q30.5842 626.406 29.0564 623.605 Q27.4968 620.772 27.4968 616.858 Q27.4968 610.365 32.6531 606.322 Q37.8093 602.248 46.212 602.248 Q54.6147 602.248 59.771 606.322 Q64.9272 610.365 64.9272 616.858 Q64.9272 620.772 63.3994 623.605 Q61.8398 626.406 58.657 628.252 M46.212 608.328 Q39.7508 608.328 36.0905 611.001 Q32.3984 613.643 32.3984 618.29 Q32.3984 622.937 36.0905 625.61 Q39.7508 628.252 46.212 628.252 Q52.6732 628.252 56.3653 625.61 Q60.0256 622.937 60.0256 618.29 Q60.0256 613.643 56.3653 611.001 Q52.6732 608.328 46.212 608.328 Z" fill="#000000" fill-rule="evenodd" fill-opacity="1" /><path clip-path="url(#clip830)" d="M67.3143 577.708 Q73.68 580.191 75.6216 582.546 Q77.5631 584.902 77.5631 588.848 L77.5631 593.527 L72.6615 593.527 L72.6615 590.09 Q72.6615 587.671 71.5157 586.334 Q70.3699 584.997 66.1048 583.374 L63.4312 582.324 L28.3562 596.742 L28.3562 590.535 L56.238 579.395 L28.3562 568.255 L28.3562 562.049 L67.3143 577.708 Z" fill="#000000" fill-rule="evenodd" fill-opacity="1" /><path clip-path="url(#clip830)" d="M14.5426 519.176 Q21.8632 523.441 29.0246 525.51 Q36.186 527.579 43.5384 527.579 Q50.8908 527.579 58.1159 525.51 Q65.3091 523.409 72.5979 519.176 L72.5979 524.268 Q65.1182 529.043 57.8931 531.43 Q50.668 533.785 43.5384 533.785 Q36.4406 533.785 29.2474 531.43 Q22.0542 529.074 14.5426 524.268 L14.5426 519.176 Z" fill="#000000" fill-rule="evenodd" fill-opacity="1" /><path clip-path="url(#clip830)" d="M46.212 482.223 Q39.7508 482.223 36.0905 484.896 Q32.3984 487.538 32.3984 492.185 Q32.3984 496.832 36.0905 499.506 Q39.7508 502.148 46.212 502.148 Q52.6732 502.148 56.3653 499.506 Q60.0256 496.832 60.0256 492.185 Q60.0256 487.538 56.3653 484.896 Q52.6732 482.223 46.212 482.223 M33.7671 502.148 Q30.5842 500.301 29.0564 497.501 Q27.4968 494.668 27.4968 490.753 Q27.4968 484.26 32.6531 480.218 Q37.8093 476.144 46.212 476.144 Q54.6147 476.144 59.771 480.218 Q64.9272 484.26 64.9272 490.753 Q64.9272 494.668 63.3994 497.501 Q61.8398 500.301 58.657 502.148 L64.0042 502.148 L64.0042 508.036 L14.479 508.036 L14.479 502.148 L33.7671 502.148 Z" fill="#000000" fill-rule="evenodd" fill-opacity="1" /><path clip-path="url(#clip830)" d="M28.3562 466.436 L28.3562 460.579 L64.0042 460.579 L64.0042 466.436 L28.3562 466.436 M14.479 466.436 L14.479 460.579 L21.895 460.579 L21.895 466.436 L14.479 466.436 Z" fill="#000000" fill-rule="evenodd" fill-opacity="1" /><path clip-path="url(#clip830)" d="M18.2347 442.533 L28.3562 442.533 L28.3562 430.47 L32.9077 430.47 L32.9077 442.533 L52.2594 442.533 Q56.6199 442.533 57.8613 441.355 Q59.1026 440.146 59.1026 436.485 L59.1026 430.47 L64.0042 430.47 L64.0042 436.485 Q64.0042 443.265 61.4897 445.843 Q58.9434 448.421 52.2594 448.421 L32.9077 448.421 L32.9077 452.718 L28.3562 452.718 L28.3562 448.421 L18.2347 448.421 L18.2347 442.533 Z" fill="#000000" fill-rule="evenodd" fill-opacity="1" /><path clip-path="url(#clip830)" d="M29.4065 400.042 L34.9447 400.042 Q33.6716 402.524 33.035 405.198 Q32.3984 407.871 32.3984 410.736 Q32.3984 415.096 33.7352 417.293 Q35.072 419.457 37.7456 419.457 Q39.7826 419.457 40.9603 417.897 Q42.1061 416.338 43.1565 411.627 L43.6021 409.622 Q44.9389 403.384 47.3897 400.774 Q49.8086 398.132 54.1691 398.132 Q59.1344 398.132 62.0308 402.079 Q64.9272 405.994 64.9272 412.868 Q64.9272 415.733 64.3543 418.852 Q63.8132 421.94 62.6992 425.377 L56.6518 425.377 Q58.3387 422.131 59.198 418.98 Q60.0256 415.829 60.0256 412.741 Q60.0256 408.603 58.6251 406.375 Q57.1929 404.147 54.6147 404.147 Q52.2276 404.147 50.9545 405.771 Q49.6813 407.362 48.5037 412.805 L48.0262 414.842 Q46.8804 420.285 44.5251 422.704 Q42.138 425.122 38.0002 425.122 Q32.9713 425.122 30.2341 421.558 Q27.4968 417.993 27.4968 411.436 Q27.4968 408.19 27.9743 405.325 Q28.4517 402.461 29.4065 400.042 Z" fill="#000000" fill-rule="evenodd" fill-opacity="1" /><path clip-path="url(#clip830)" d="M14.5426 389.729 L14.5426 384.637 Q22.0542 379.862 29.2474 377.507 Q36.4406 375.12 43.5384 375.12 Q50.668 375.12 57.8931 377.507 Q65.1182 379.862 72.5979 384.637 L72.5979 389.729 Q65.3091 385.496 58.1159 383.427 Q50.8908 381.326 43.5384 381.326 Q36.186 381.326 29.0246 383.427 Q21.8632 385.496 14.5426 389.729 Z" fill="#000000" fill-rule="evenodd" fill-opacity="1" /><polyline clip-path="url(#clip832)" style="stroke:#000000; stroke-linecap:butt; stroke-linejoin:round; stroke-width:6; stroke-opacity:1; fill:none" points="
  235.808,1192.44 277.752,1101.02 319.697,1022.57 361.642,930.25 403.586,888.579 445.531,862.16 487.476,788.266 529.42,1384.24 571.365,1384.24 613.31,679.192 
  655.254,607.736 697.199,548.953 739.144,526.299 781.089,513.102 823.033,473.099 864.978,444.073 906.923,420.599 948.867,408.375 990.812,395.037 1032.76,365.949 
  1074.7,328.851 1116.65,326.038 1158.59,309.026 1200.54,309.583 1242.48,286.349 1284.42,271.08 1326.37,274.095 1368.31,241.921 1410.26,252.908 1452.2,233.916 
  1494.15,232.086 1536.09,208.92 1578.04,187.009 1619.98,193.727 1661.93,182.119 1703.87,174.437 1745.82,147.05 1787.76,160.785 1829.71,177.855 1871.65,269.927 
  1913.6,1246.87 1955.54,1384.24 1997.48,315.577 2039.43,231.762 2081.37,145.178 2123.32,126.759 2165.26,117.662 2207.21,117.881 2249.15,86.1857 2291.1,122.81 
  
  "/>
<polyline clip-path="url(#clip832)" style="stroke:#ff0000; stroke-linecap:butt; stroke-linejoin:round; stroke-width:4; stroke-opacity:1; fill:none" points="
  235.808,1235.17 277.752,1221.3 319.697,1207.59 361.642,1179.8 403.586,1171.23 445.531,1157.47 487.476,1173.96 529.42,1384.24 571.365,1384.24 613.31,1115.88 
  655.254,1082.2 697.199,1066.84 739.144,1027.36 781.089,1019.43 823.033,1013.49 864.978,1001.92 906.923,979.938 948.867,965.686 990.812,961.765 1032.76,962.234 
  1074.7,935.457 1116.65,914.503 1158.59,926.215 1200.54,917.678 1242.48,909.417 1284.42,915.367 1326.37,892.23 1368.31,895.883 1410.26,885.85 1452.2,886.4 
  1494.15,872.693 1536.09,876.339 1578.04,850.817 1619.98,855.918 1661.93,843.904 1703.87,837.962 1745.82,818.804 1787.76,831.372 1829.71,849.043 1871.65,901.898 
  1913.6,1330.98 1955.54,1384.24 1997.48,914.603 2039.43,848.739 2081.37,762.669 2123.32,737.655 2165.26,720.051 2207.21,699.4 2249.15,668.239 2291.1,696.534 
  
  "/>
<path clip-path="url(#clip830)" d="
M1840.85 248.629 L2280.14 248.629 L2280.14 93.1086 L1840.85 93.1086  Z
  " fill="#ffffff" fill-rule="evenodd" fill-opacity="1"/>
<polyline clip-path="url(#clip830)" style="stroke:#000000; stroke-linecap:butt; stroke-linejoin:round; stroke-width:4; stroke-opacity:1; fill:none" points="
  1840.85,248.629 2280.14,248.629 2280.14,93.1086 1840.85,93.1086 1840.85,248.629 
  "/>
<polyline clip-path="url(#clip830)" style="stroke:#000000; stroke-linecap:butt; stroke-linejoin:round; stroke-width:4; stroke-opacity:1; fill:none" points="
  1865.05,144.949 2010.29,144.949 
  "/>
<path clip-path="url(#clip830)" d="M2036.08 127.669 L2041.1 127.669 L2049.69 140.516 L2058.32 127.669 L2063.34 127.669 L2052.23 144.266 L2064.08 162.229 L2059.06 162.229 L2049.34 147.53 L2039.55 162.229 L2034.5 162.229 L2046.84 143.78 L2036.08 127.669 Z" fill="#000000" fill-rule="evenodd" fill-opacity="1" /><path clip-path="url(#clip830)" d="M2071.45 158.293 L2079.08 158.293 L2079.08 131.928 L2070.77 133.595 L2070.77 129.335 L2079.04 127.669 L2083.71 127.669 L2083.71 158.293 L2091.35 158.293 L2091.35 162.229 L2071.45 162.229 L2071.45 158.293 Z" fill="#000000" fill-rule="evenodd" fill-opacity="1" /><path clip-path="url(#clip830)" d="M2119.48 128.942 L2119.48 136.303 L2128.25 136.303 L2128.25 139.613 L2119.48 139.613 L2119.48 153.687 Q2119.48 156.858 2120.33 157.761 Q2121.21 158.664 2123.88 158.664 L2128.25 158.664 L2128.25 162.229 L2123.88 162.229 Q2118.95 162.229 2117.07 160.4 Q2115.2 158.548 2115.2 153.687 L2115.2 139.613 L2112.07 139.613 L2112.07 136.303 L2115.2 136.303 L2115.2 128.942 L2119.48 128.942 Z" fill="#000000" fill-rule="evenodd" fill-opacity="1" /><path clip-path="url(#clip830)" d="M2143.9 139.289 Q2140.47 139.289 2138.48 141.974 Q2136.49 144.636 2136.49 149.289 Q2136.49 153.942 2138.46 156.627 Q2140.45 159.289 2143.9 159.289 Q2147.3 159.289 2149.29 156.604 Q2151.28 153.918 2151.28 149.289 Q2151.28 144.682 2149.29 141.997 Q2147.3 139.289 2143.9 139.289 M2143.9 135.678 Q2149.45 135.678 2152.63 139.289 Q2155.8 142.9 2155.8 149.289 Q2155.8 155.655 2152.63 159.289 Q2149.45 162.9 2143.9 162.9 Q2138.32 162.9 2135.15 159.289 Q2132 155.655 2132 149.289 Q2132 142.9 2135.15 139.289 Q2138.32 135.678 2143.9 135.678 Z" fill="#000000" fill-rule="evenodd" fill-opacity="1" /><path clip-path="url(#clip830)" d="M2176.44 127.669 L2181.47 127.669 L2190.06 140.516 L2198.69 127.669 L2203.71 127.669 L2192.6 144.266 L2204.45 162.229 L2199.43 162.229 L2189.71 147.53 L2179.92 162.229 L2174.87 162.229 L2187.21 143.78 L2176.44 127.669 Z" fill="#000000" fill-rule="evenodd" fill-opacity="1" /><path clip-path="url(#clip830)" d="M2215.03 158.293 L2231.35 158.293 L2231.35 162.229 L2209.41 162.229 L2209.41 158.293 Q2212.07 155.539 2216.65 150.909 Q2221.26 146.256 2222.44 144.914 Q2224.69 142.391 2225.56 140.655 Q2226.47 138.895 2226.47 137.206 Q2226.47 134.451 2224.52 132.715 Q2222.6 130.979 2219.5 130.979 Q2217.3 130.979 2214.85 131.743 Q2212.42 132.507 2209.64 134.057 L2209.64 129.335 Q2212.46 128.201 2214.92 127.622 Q2217.37 127.044 2219.41 127.044 Q2224.78 127.044 2227.97 129.729 Q2231.17 132.414 2231.17 136.905 Q2231.17 139.034 2230.36 140.956 Q2229.57 142.854 2227.46 145.446 Q2226.88 146.118 2223.78 149.335 Q2220.68 152.53 2215.03 158.293 Z" fill="#000000" fill-rule="evenodd" fill-opacity="1" /><polyline clip-path="url(#clip830)" style="stroke:#ff0000; stroke-linecap:butt; stroke-linejoin:round; stroke-width:4; stroke-opacity:1; fill:none" points="
  1865.05,196.789 2010.29,196.789 
  "/>
<path clip-path="url(#clip830)" d="M2036.08 179.509 L2041.1 179.509 L2049.69 192.356 L2058.32 179.509 L2063.34 179.509 L2052.23 196.106 L2064.08 214.069 L2059.06 214.069 L2049.34 199.37 L2039.55 214.069 L2034.5 214.069 L2046.84 195.62 L2036.08 179.509 Z" fill="#000000" fill-rule="evenodd" fill-opacity="1" /><path clip-path="url(#clip830)" d="M2074.66 210.133 L2090.98 210.133 L2090.98 214.069 L2069.04 214.069 L2069.04 210.133 Q2071.7 207.379 2076.28 202.749 Q2080.89 198.096 2082.07 196.754 Q2084.32 194.231 2085.2 192.495 Q2086.1 190.735 2086.1 189.046 Q2086.1 186.291 2084.15 184.555 Q2082.23 182.819 2079.13 182.819 Q2076.93 182.819 2074.48 183.583 Q2072.05 184.347 2069.27 185.897 L2069.27 181.175 Q2072.09 180.041 2074.55 179.462 Q2077 178.884 2079.04 178.884 Q2084.41 178.884 2087.6 181.569 Q2090.8 184.254 2090.8 188.745 Q2090.8 190.874 2089.99 192.796 Q2089.2 194.694 2087.09 197.286 Q2086.51 197.958 2083.41 201.175 Q2080.31 204.37 2074.66 210.133 Z" fill="#000000" fill-rule="evenodd" fill-opacity="1" /><path clip-path="url(#clip830)" d="M2119.48 180.782 L2119.48 188.143 L2128.25 188.143 L2128.25 191.453 L2119.48 191.453 L2119.48 205.527 Q2119.48 208.698 2120.33 209.601 Q2121.21 210.504 2123.88 210.504 L2128.25 210.504 L2128.25 214.069 L2123.88 214.069 Q2118.95 214.069 2117.07 212.24 Q2115.2 210.388 2115.2 205.527 L2115.2 191.453 L2112.07 191.453 L2112.07 188.143 L2115.2 188.143 L2115.2 180.782 L2119.48 180.782 Z" fill="#000000" fill-rule="evenodd" fill-opacity="1" /><path clip-path="url(#clip830)" d="M2143.9 191.129 Q2140.47 191.129 2138.48 193.814 Q2136.49 196.476 2136.49 201.129 Q2136.49 205.782 2138.46 208.467 Q2140.45 211.129 2143.9 211.129 Q2147.3 211.129 2149.29 208.444 Q2151.28 205.758 2151.28 201.129 Q2151.28 196.522 2149.29 193.837 Q2147.3 191.129 2143.9 191.129 M2143.9 187.518 Q2149.45 187.518 2152.63 191.129 Q2155.8 194.74 2155.8 201.129 Q2155.8 207.495 2152.63 211.129 Q2149.45 214.74 2143.9 214.74 Q2138.32 214.74 2135.15 211.129 Q2132 207.495 2132 201.129 Q2132 194.74 2135.15 191.129 Q2138.32 187.518 2143.9 187.518 Z" fill="#000000" fill-rule="evenodd" fill-opacity="1" /><path clip-path="url(#clip830)" d="M2176.44 179.509 L2181.47 179.509 L2190.06 192.356 L2198.69 179.509 L2203.71 179.509 L2192.6 196.106 L2204.45 214.069 L2199.43 214.069 L2189.71 199.37 L2179.92 214.069 L2174.87 214.069 L2187.21 195.62 L2176.44 179.509 Z" fill="#000000" fill-rule="evenodd" fill-opacity="1" /><path clip-path="url(#clip830)" d="M2211.81 210.133 L2219.45 210.133 L2219.45 183.768 L2211.14 185.435 L2211.14 181.175 L2219.41 179.509 L2224.08 179.509 L2224.08 210.133 L2231.72 210.133 L2231.72 214.069 L2211.81 214.069 L2211.81 210.133 Z" fill="#000000" fill-rule="evenodd" fill-opacity="1" /></svg>
