<?xml version="1.0" encoding="utf-8"?>
<svg xmlns="http://www.w3.org/2000/svg" xmlns:xlink="http://www.w3.org/1999/xlink" width="600" height="400" viewBox="0 0 2400 1600">
<defs>
  <clipPath id="clip750">
    <rect x="0" y="0" width="2400" height="1600"/>
  </clipPath>
</defs>
<path clip-path="url(#clip750)" d="
M0 1600 L2400 1600 L2400 0 L0 0  Z
  " fill="#ffffff" fill-rule="evenodd" fill-opacity="1"/>
<defs>
  <clipPath id="clip751">
    <rect x="480" y="0" width="1681" height="1600"/>
  </clipPath>
</defs>
<path clip-path="url(#clip750)" d="
M255.977 1423.18 L2352.76 1423.18 L2352.76 47.2441 L255.977 47.2441  Z
  " fill="#ffffff" fill-rule="evenodd" fill-opacity="1"/>
<defs>
  <clipPath id="clip752">
    <rect x="255" y="47" width="2098" height="1377"/>
  </clipPath>
</defs>
<polyline clip-path="url(#clip752)" style="stroke:#000000; stroke-linecap:butt; stroke-linejoin:round; stroke-width:2; stroke-opacity:0.1; fill:none" points="
  274.951,1423.18 274.951,47.2441 
  "/>
<polyline clip-path="url(#clip752)" style="stroke:#000000; stroke-linecap:butt; stroke-linejoin:round; stroke-width:2; stroke-opacity:0.1; fill:none" points="
  779.566,1423.18 779.566,47.2441 
  "/>
<polyline clip-path="url(#clip752)" style="stroke:#000000; stroke-linecap:butt; stroke-linejoin:round; stroke-width:2; stroke-opacity:0.1; fill:none" points="
  1284.18,1423.18 1284.18,47.2441 
  "/>
<polyline clip-path="url(#clip752)" style="stroke:#000000; stroke-linecap:butt; stroke-linejoin:round; stroke-width:2; stroke-opacity:0.1; fill:none" points="
  1788.8,1423.18 1788.8,47.2441 
  "/>
<polyline clip-path="url(#clip752)" style="stroke:#000000; stroke-linecap:butt; stroke-linejoin:round; stroke-width:2; stroke-opacity:0.1; fill:none" points="
  2293.41,1423.18 2293.41,47.2441 
  "/>
<polyline clip-path="url(#clip750)" style="stroke:#000000; stroke-linecap:butt; stroke-linejoin:round; stroke-width:4; stroke-opacity:1; fill:none" points="
  255.977,1423.18 2352.76,1423.18 
  "/>
<polyline clip-path="url(#clip750)" style="stroke:#000000; stroke-linecap:butt; stroke-linejoin:round; stroke-width:4; stroke-opacity:1; fill:none" points="
  274.951,1423.18 274.951,1404.28 
  "/>
<polyline clip-path="url(#clip750)" style="stroke:#000000; stroke-linecap:butt; stroke-linejoin:round; stroke-width:4; stroke-opacity:1; fill:none" points="
  779.566,1423.18 779.566,1404.28 
  "/>
<polyline clip-path="url(#clip750)" style="stroke:#000000; stroke-linecap:butt; stroke-linejoin:round; stroke-width:4; stroke-opacity:1; fill:none" points="
  1284.18,1423.18 1284.18,1404.28 
  "/>
<polyline clip-path="url(#clip750)" style="stroke:#000000; stroke-linecap:butt; stroke-linejoin:round; stroke-width:4; stroke-opacity:1; fill:none" points="
  1788.8,1423.18 1788.8,1404.28 
  "/>
<polyline clip-path="url(#clip750)" style="stroke:#000000; stroke-linecap:butt; stroke-linejoin:round; stroke-width:4; stroke-opacity:1; fill:none" points="
  2293.41,1423.18 2293.41,1404.28 
  "/>
<path clip-path="url(#clip750)" d="M237.254 1454.1 Q233.643 1454.1 231.814 1457.66 Q230.009 1461.2 230.009 1468.33 Q230.009 1475.44 231.814 1479.01 Q233.643 1482.55 237.254 1482.55 Q240.888 1482.55 242.694 1479.01 Q244.523 1475.44 244.523 1468.33 Q244.523 1461.2 242.694 1457.66 Q240.888 1454.1 237.254 1454.1 M237.254 1450.39 Q243.064 1450.39 246.12 1455 Q249.199 1459.58 249.199 1468.33 Q249.199 1477.06 246.12 1481.67 Q243.064 1486.25 237.254 1486.25 Q231.444 1486.25 228.365 1481.67 Q225.31 1477.06 225.31 1468.33 Q225.31 1459.58 228.365 1455 Q231.444 1450.39 237.254 1450.39 Z" fill="#000000" fill-rule="evenodd" fill-opacity="1" /><path clip-path="url(#clip750)" d="M257.416 1479.7 L262.3 1479.7 L262.3 1485.58 L257.416 1485.58 L257.416 1479.7 Z" fill="#000000" fill-rule="evenodd" fill-opacity="1" /><path clip-path="url(#clip750)" d="M282.485 1454.1 Q278.874 1454.1 277.046 1457.66 Q275.24 1461.2 275.24 1468.33 Q275.24 1475.44 277.046 1479.01 Q278.874 1482.55 282.485 1482.55 Q286.12 1482.55 287.925 1479.01 Q289.754 1475.44 289.754 1468.33 Q289.754 1461.2 287.925 1457.66 Q286.12 1454.1 282.485 1454.1 M282.485 1450.39 Q288.296 1450.39 291.351 1455 Q294.43 1459.58 294.43 1468.33 Q294.43 1477.06 291.351 1481.67 Q288.296 1486.25 282.485 1486.25 Q276.675 1486.25 273.597 1481.67 Q270.541 1477.06 270.541 1468.33 Q270.541 1459.58 273.597 1455 Q276.675 1450.39 282.485 1450.39 Z" fill="#000000" fill-rule="evenodd" fill-opacity="1" /><path clip-path="url(#clip750)" d="M312.647 1454.1 Q309.036 1454.1 307.208 1457.66 Q305.402 1461.2 305.402 1468.33 Q305.402 1475.44 307.208 1479.01 Q309.036 1482.55 312.647 1482.55 Q316.282 1482.55 318.087 1479.01 Q319.916 1475.44 319.916 1468.33 Q319.916 1461.2 318.087 1457.66 Q316.282 1454.1 312.647 1454.1 M312.647 1450.39 Q318.457 1450.39 321.513 1455 Q324.592 1459.58 324.592 1468.33 Q324.592 1477.06 321.513 1481.67 Q318.457 1486.25 312.647 1486.25 Q306.837 1486.25 303.758 1481.67 Q300.703 1477.06 300.703 1468.33 Q300.703 1459.58 303.758 1455 Q306.837 1450.39 312.647 1450.39 Z" fill="#000000" fill-rule="evenodd" fill-opacity="1" /><path clip-path="url(#clip750)" d="M742.367 1454.1 Q738.756 1454.1 736.928 1457.66 Q735.122 1461.2 735.122 1468.33 Q735.122 1475.44 736.928 1479.01 Q738.756 1482.55 742.367 1482.55 Q746.002 1482.55 747.807 1479.01 Q749.636 1475.44 749.636 1468.33 Q749.636 1461.2 747.807 1457.66 Q746.002 1454.1 742.367 1454.1 M742.367 1450.39 Q748.178 1450.39 751.233 1455 Q754.312 1459.58 754.312 1468.33 Q754.312 1477.06 751.233 1481.67 Q748.178 1486.25 742.367 1486.25 Q736.557 1486.25 733.479 1481.67 Q730.423 1477.06 730.423 1468.33 Q730.423 1459.58 733.479 1455 Q736.557 1450.39 742.367 1450.39 Z" fill="#000000" fill-rule="evenodd" fill-opacity="1" /><path clip-path="url(#clip750)" d="M762.529 1479.7 L767.414 1479.7 L767.414 1485.58 L762.529 1485.58 L762.529 1479.7 Z" fill="#000000" fill-rule="evenodd" fill-opacity="1" /><path clip-path="url(#clip750)" d="M781.626 1481.64 L797.946 1481.64 L797.946 1485.58 L776.002 1485.58 L776.002 1481.64 Q778.664 1478.89 783.247 1474.26 Q787.853 1469.61 789.034 1468.27 Q791.279 1465.74 792.159 1464.01 Q793.062 1462.25 793.062 1460.56 Q793.062 1457.8 791.117 1456.07 Q789.196 1454.33 786.094 1454.33 Q783.895 1454.33 781.441 1455.09 Q779.011 1455.86 776.233 1457.41 L776.233 1452.69 Q779.057 1451.55 781.511 1450.97 Q783.964 1450.39 786.001 1450.39 Q791.372 1450.39 794.566 1453.08 Q797.761 1455.77 797.761 1460.26 Q797.761 1462.39 796.95 1464.31 Q796.163 1466.2 794.057 1468.8 Q793.478 1469.47 790.376 1472.69 Q787.275 1475.88 781.626 1481.64 Z" fill="#000000" fill-rule="evenodd" fill-opacity="1" /><path clip-path="url(#clip750)" d="M807.807 1451.02 L826.163 1451.02 L826.163 1454.96 L812.089 1454.96 L812.089 1463.43 Q813.108 1463.08 814.126 1462.92 Q815.145 1462.73 816.163 1462.73 Q821.95 1462.73 825.33 1465.9 Q828.71 1469.08 828.71 1474.49 Q828.71 1480.07 825.237 1483.17 Q821.765 1486.25 815.446 1486.25 Q813.27 1486.25 811.001 1485.88 Q808.756 1485.51 806.349 1484.77 L806.349 1480.07 Q808.432 1481.2 810.654 1481.76 Q812.876 1482.32 815.353 1482.32 Q819.358 1482.32 821.696 1480.21 Q824.034 1478.1 824.034 1474.49 Q824.034 1470.88 821.696 1468.77 Q819.358 1466.67 815.353 1466.67 Q813.478 1466.67 811.603 1467.08 Q809.751 1467.5 807.807 1468.38 L807.807 1451.02 Z" fill="#000000" fill-rule="evenodd" fill-opacity="1" /><path clip-path="url(#clip750)" d="M1246.49 1454.1 Q1242.87 1454.1 1241.05 1457.66 Q1239.24 1461.2 1239.24 1468.33 Q1239.24 1475.44 1241.05 1479.01 Q1242.87 1482.55 1246.49 1482.55 Q1250.12 1482.55 1251.93 1479.01 Q1253.75 1475.44 1253.75 1468.33 Q1253.75 1461.2 1251.93 1457.66 Q1250.12 1454.1 1246.49 1454.1 M1246.49 1450.39 Q1252.3 1450.39 1255.35 1455 Q1258.43 1459.58 1258.43 1468.33 Q1258.43 1477.06 1255.35 1481.67 Q1252.3 1486.25 1246.49 1486.25 Q1240.68 1486.25 1237.6 1481.67 Q1234.54 1477.06 1234.54 1468.33 Q1234.54 1459.58 1237.6 1455 Q1240.68 1450.39 1246.49 1450.39 Z" fill="#000000" fill-rule="evenodd" fill-opacity="1" /><path clip-path="url(#clip750)" d="M1266.65 1479.7 L1271.53 1479.7 L1271.53 1485.58 L1266.65 1485.58 L1266.65 1479.7 Z" fill="#000000" fill-rule="evenodd" fill-opacity="1" /><path clip-path="url(#clip750)" d="M1281.76 1451.02 L1300.12 1451.02 L1300.12 1454.96 L1286.05 1454.96 L1286.05 1463.43 Q1287.06 1463.08 1288.08 1462.92 Q1289.1 1462.73 1290.12 1462.73 Q1295.91 1462.73 1299.29 1465.9 Q1302.67 1469.08 1302.67 1474.49 Q1302.67 1480.07 1299.19 1483.17 Q1295.72 1486.25 1289.4 1486.25 Q1287.23 1486.25 1284.96 1485.88 Q1282.71 1485.51 1280.3 1484.77 L1280.3 1480.07 Q1282.39 1481.2 1284.61 1481.76 Q1286.83 1482.32 1289.31 1482.32 Q1293.31 1482.32 1295.65 1480.21 Q1297.99 1478.1 1297.99 1474.49 Q1297.99 1470.88 1295.65 1468.77 Q1293.31 1466.67 1289.31 1466.67 Q1287.43 1466.67 1285.56 1467.08 Q1283.71 1467.5 1281.76 1468.38 L1281.76 1451.02 Z" fill="#000000" fill-rule="evenodd" fill-opacity="1" /><path clip-path="url(#clip750)" d="M1321.88 1454.1 Q1318.27 1454.1 1316.44 1457.66 Q1314.63 1461.2 1314.63 1468.33 Q1314.63 1475.44 1316.44 1479.01 Q1318.27 1482.55 1321.88 1482.55 Q1325.51 1482.55 1327.32 1479.01 Q1329.15 1475.44 1329.15 1468.33 Q1329.15 1461.2 1327.32 1457.66 Q1325.51 1454.1 1321.88 1454.1 M1321.88 1450.39 Q1327.69 1450.39 1330.74 1455 Q1333.82 1459.58 1333.82 1468.33 Q1333.82 1477.06 1330.74 1481.67 Q1327.69 1486.25 1321.88 1486.25 Q1316.07 1486.25 1312.99 1481.67 Q1309.93 1477.06 1309.93 1468.33 Q1309.93 1459.58 1312.99 1455 Q1316.07 1450.39 1321.88 1450.39 Z" fill="#000000" fill-rule="evenodd" fill-opacity="1" /><path clip-path="url(#clip750)" d="M1751.6 1454.1 Q1747.99 1454.1 1746.16 1457.66 Q1744.35 1461.2 1744.35 1468.33 Q1744.35 1475.44 1746.16 1479.01 Q1747.99 1482.55 1751.6 1482.55 Q1755.23 1482.55 1757.04 1479.01 Q1758.87 1475.44 1758.87 1468.33 Q1758.87 1461.2 1757.04 1457.66 Q1755.23 1454.1 1751.6 1454.1 M1751.6 1450.39 Q1757.41 1450.39 1760.46 1455 Q1763.54 1459.58 1763.54 1468.33 Q1763.54 1477.06 1760.46 1481.67 Q1757.41 1486.25 1751.6 1486.25 Q1745.79 1486.25 1742.71 1481.67 Q1739.65 1477.06 1739.65 1468.33 Q1739.65 1459.58 1742.71 1455 Q1745.79 1450.39 1751.6 1450.39 Z" fill="#000000" fill-rule="evenodd" fill-opacity="1" /><path clip-path="url(#clip750)" d="M1771.76 1479.7 L1776.64 1479.7 L1776.64 1485.58 L1771.76 1485.58 L1771.76 1479.7 Z" fill="#000000" fill-rule="evenodd" fill-opacity="1" /><path clip-path="url(#clip750)" d="M1785.65 1451.02 L1807.87 1451.02 L1807.87 1453.01 L1795.33 1485.58 L1790.44 1485.58 L1802.25 1454.96 L1785.65 1454.96 L1785.65 1451.02 Z" fill="#000000" fill-rule="evenodd" fill-opacity="1" /><path clip-path="url(#clip750)" d="M1817.04 1451.02 L1835.39 1451.02 L1835.39 1454.96 L1821.32 1454.96 L1821.32 1463.43 Q1822.34 1463.08 1823.36 1462.92 Q1824.38 1462.73 1825.39 1462.73 Q1831.18 1462.73 1834.56 1465.9 Q1837.94 1469.08 1837.94 1474.49 Q1837.94 1480.07 1834.47 1483.17 Q1831 1486.25 1824.68 1486.25 Q1822.5 1486.25 1820.23 1485.88 Q1817.99 1485.51 1815.58 1484.77 L1815.58 1480.07 Q1817.66 1481.2 1819.89 1481.76 Q1822.11 1482.32 1824.58 1482.32 Q1828.59 1482.32 1830.93 1480.21 Q1833.26 1478.1 1833.26 1474.49 Q1833.26 1470.88 1830.93 1468.77 Q1828.59 1466.67 1824.58 1466.67 Q1822.71 1466.67 1820.83 1467.08 Q1818.98 1467.5 1817.04 1468.38 L1817.04 1451.02 Z" fill="#000000" fill-rule="evenodd" fill-opacity="1" /><path clip-path="url(#clip750)" d="M2245.49 1481.64 L2253.12 1481.64 L2253.12 1455.28 L2244.81 1456.95 L2244.81 1452.69 L2253.08 1451.02 L2257.75 1451.02 L2257.75 1481.64 L2265.39 1481.64 L2265.39 1485.58 L2245.49 1485.58 L2245.49 1481.64 Z" fill="#000000" fill-rule="evenodd" fill-opacity="1" /><path clip-path="url(#clip750)" d="M2274.84 1479.7 L2279.72 1479.7 L2279.72 1485.58 L2274.84 1485.58 L2274.84 1479.7 Z" fill="#000000" fill-rule="evenodd" fill-opacity="1" /><path clip-path="url(#clip750)" d="M2299.91 1454.1 Q2296.3 1454.1 2294.47 1457.66 Q2292.66 1461.2 2292.66 1468.33 Q2292.66 1475.44 2294.47 1479.01 Q2296.3 1482.55 2299.91 1482.55 Q2303.54 1482.55 2305.35 1479.01 Q2307.17 1475.44 2307.17 1468.33 Q2307.17 1461.2 2305.35 1457.66 Q2303.54 1454.1 2299.91 1454.1 M2299.91 1450.39 Q2305.72 1450.39 2308.77 1455 Q2311.85 1459.58 2311.85 1468.33 Q2311.85 1477.06 2308.77 1481.67 Q2305.72 1486.25 2299.91 1486.25 Q2294.1 1486.25 2291.02 1481.67 Q2287.96 1477.06 2287.96 1468.33 Q2287.96 1459.58 2291.02 1455 Q2294.1 1450.39 2299.91 1450.39 Z" fill="#000000" fill-rule="evenodd" fill-opacity="1" /><path clip-path="url(#clip750)" d="M2330.07 1454.1 Q2326.46 1454.1 2324.63 1457.66 Q2322.82 1461.2 2322.82 1468.33 Q2322.82 1475.44 2324.63 1479.01 Q2326.46 1482.55 2330.07 1482.55 Q2333.7 1482.55 2335.51 1479.01 Q2337.34 1475.44 2337.34 1468.33 Q2337.34 1461.2 2335.51 1457.66 Q2333.7 1454.1 2330.07 1454.1 M2330.07 1450.39 Q2335.88 1450.39 2338.93 1455 Q2342.01 1459.58 2342.01 1468.33 Q2342.01 1477.06 2338.93 1481.67 Q2335.88 1486.25 2330.07 1486.25 Q2324.26 1486.25 2321.18 1481.67 Q2318.12 1477.06 2318.12 1468.33 Q2318.12 1459.58 2321.18 1455 Q2324.26 1450.39 2330.07 1450.39 Z" fill="#000000" fill-rule="evenodd" fill-opacity="1" /><path clip-path="url(#clip750)" d="M1225.54 1548.76 L1225.54 1551.62 L1198.62 1551.62 Q1199 1557.67 1202.24 1560.85 Q1205.52 1564 1211.35 1564 Q1214.72 1564 1217.87 1563.17 Q1221.06 1562.35 1224.17 1560.69 L1224.17 1566.23 Q1221.02 1567.57 1217.71 1568.27 Q1214.4 1568.97 1211 1568.97 Q1202.47 1568.97 1197.47 1564 Q1192.51 1559.04 1192.51 1550.57 Q1192.51 1541.82 1197.22 1536.69 Q1201.96 1531.54 1209.98 1531.54 Q1217.17 1531.54 1221.34 1536.18 Q1225.54 1540.8 1225.54 1548.76 M1219.69 1547.04 Q1219.62 1542.23 1216.98 1539.37 Q1214.37 1536.5 1210.04 1536.5 Q1205.14 1536.5 1202.18 1539.27 Q1199.25 1542.04 1198.81 1547.07 L1219.69 1547.04 Z" fill="#000000" fill-rule="evenodd" fill-opacity="1" /><path clip-path="url(#clip750)" d="M1240.82 1562.7 L1240.82 1581.6 L1234.93 1581.6 L1234.93 1532.4 L1240.82 1532.4 L1240.82 1537.81 Q1242.67 1534.62 1245.47 1533.1 Q1248.3 1531.54 1252.22 1531.54 Q1258.71 1531.54 1262.75 1536.69 Q1266.82 1541.85 1266.82 1550.25 Q1266.82 1558.65 1262.75 1563.81 Q1258.71 1568.97 1252.22 1568.97 Q1248.3 1568.97 1245.47 1567.44 Q1242.67 1565.88 1240.82 1562.7 M1260.75 1550.25 Q1260.75 1543.79 1258.07 1540.13 Q1255.43 1536.44 1250.78 1536.44 Q1246.14 1536.44 1243.46 1540.13 Q1240.82 1543.79 1240.82 1550.25 Q1240.82 1556.71 1243.46 1560.4 Q1246.14 1564.07 1250.78 1564.07 Q1255.43 1564.07 1258.07 1560.4 Q1260.75 1556.71 1260.75 1550.25 Z" fill="#000000" fill-rule="evenodd" fill-opacity="1" /><path clip-path="url(#clip750)" d="M1299.26 1533.45 L1299.26 1538.98 Q1296.78 1537.71 1294.1 1537.07 Q1291.43 1536.44 1288.56 1536.44 Q1284.2 1536.44 1282.01 1537.77 Q1279.84 1539.11 1279.84 1541.79 Q1279.84 1543.82 1281.4 1545 Q1282.96 1546.15 1287.67 1547.2 L1289.68 1547.64 Q1295.92 1548.98 1298.53 1551.43 Q1301.17 1553.85 1301.17 1558.21 Q1301.17 1563.17 1297.22 1566.07 Q1293.31 1568.97 1286.43 1568.97 Q1283.57 1568.97 1280.45 1568.39 Q1277.36 1567.85 1273.92 1566.74 L1273.92 1560.69 Q1277.17 1562.38 1280.32 1563.24 Q1283.47 1564.07 1286.56 1564.07 Q1290.7 1564.07 1292.92 1562.66 Q1295.15 1561.23 1295.15 1558.65 Q1295.15 1556.27 1293.53 1554.99 Q1291.94 1553.72 1286.49 1552.54 L1284.46 1552.07 Q1279.02 1550.92 1276.6 1548.56 Q1274.18 1546.18 1274.18 1542.04 Q1274.18 1537.01 1277.74 1534.27 Q1281.31 1531.54 1287.86 1531.54 Q1291.11 1531.54 1293.97 1532.01 Q1296.84 1532.49 1299.26 1533.45 Z" fill="#000000" fill-rule="evenodd" fill-opacity="1" /><path clip-path="url(#clip750)" d="M1310.49 1532.4 L1316.35 1532.4 L1316.35 1568.04 L1310.49 1568.04 L1310.49 1532.4 M1310.49 1518.52 L1316.35 1518.52 L1316.35 1525.93 L1310.49 1525.93 L1310.49 1518.52 Z" fill="#000000" fill-rule="evenodd" fill-opacity="1" /><path clip-path="url(#clip750)" d="M1328.6 1518.52 L1334.46 1518.52 L1334.46 1568.04 L1328.6 1568.04 L1328.6 1518.52 Z" fill="#000000" fill-rule="evenodd" fill-opacity="1" /><path clip-path="url(#clip750)" d="M1360.53 1536.5 Q1355.82 1536.5 1353.08 1540.19 Q1350.34 1543.85 1350.34 1550.25 Q1350.34 1556.65 1353.05 1560.34 Q1355.79 1564 1360.53 1564 Q1365.21 1564 1367.94 1560.31 Q1370.68 1556.62 1370.68 1550.25 Q1370.68 1543.92 1367.94 1540.23 Q1365.21 1536.5 1360.53 1536.5 M1360.53 1531.54 Q1368.17 1531.54 1372.53 1536.5 Q1376.89 1541.47 1376.89 1550.25 Q1376.89 1559 1372.53 1564 Q1368.17 1568.97 1360.53 1568.97 Q1352.86 1568.97 1348.5 1564 Q1344.17 1559 1344.17 1550.25 Q1344.17 1541.47 1348.5 1536.5 Q1352.86 1531.54 1360.53 1531.54 Z" fill="#000000" fill-rule="evenodd" fill-opacity="1" /><path clip-path="url(#clip750)" d="M1416.23 1546.53 L1416.23 1568.04 L1410.37 1568.04 L1410.37 1546.72 Q1410.37 1541.66 1408.4 1539.14 Q1406.42 1536.63 1402.48 1536.63 Q1397.74 1536.63 1395 1539.65 Q1392.26 1542.68 1392.26 1547.9 L1392.26 1568.04 L1386.37 1568.04 L1386.37 1532.4 L1392.26 1532.4 L1392.26 1537.93 Q1394.36 1534.72 1397.19 1533.13 Q1400.06 1531.54 1403.78 1531.54 Q1409.93 1531.54 1413.08 1535.36 Q1416.23 1539.14 1416.23 1546.53 Z" fill="#000000" fill-rule="evenodd" fill-opacity="1" /><polyline clip-path="url(#clip752)" style="stroke:#000000; stroke-linecap:butt; stroke-linejoin:round; stroke-width:2; stroke-opacity:0.1; fill:none" points="
  255.977,1219.84 2352.76,1219.84 
  "/>
<polyline clip-path="url(#clip752)" style="stroke:#000000; stroke-linecap:butt; stroke-linejoin:round; stroke-width:2; stroke-opacity:0.1; fill:none" points="
  255.977,860.398 2352.76,860.398 
  "/>
<polyline clip-path="url(#clip752)" style="stroke:#000000; stroke-linecap:butt; stroke-linejoin:round; stroke-width:2; stroke-opacity:0.1; fill:none" points="
  255.977,500.956 2352.76,500.956 
  "/>
<polyline clip-path="url(#clip752)" style="stroke:#000000; stroke-linecap:butt; stroke-linejoin:round; stroke-width:2; stroke-opacity:0.1; fill:none" points="
  255.977,141.515 2352.76,141.515 
  "/>
<polyline clip-path="url(#clip750)" style="stroke:#000000; stroke-linecap:butt; stroke-linejoin:round; stroke-width:4; stroke-opacity:1; fill:none" points="
  255.977,1423.18 255.977,47.2441 
  "/>
<polyline clip-path="url(#clip750)" style="stroke:#000000; stroke-linecap:butt; stroke-linejoin:round; stroke-width:4; stroke-opacity:1; fill:none" points="
  255.977,1219.84 274.875,1219.84 
  "/>
<polyline clip-path="url(#clip750)" style="stroke:#000000; stroke-linecap:butt; stroke-linejoin:round; stroke-width:4; stroke-opacity:1; fill:none" points="
  255.977,860.398 274.875,860.398 
  "/>
<polyline clip-path="url(#clip750)" style="stroke:#000000; stroke-linecap:butt; stroke-linejoin:round; stroke-width:4; stroke-opacity:1; fill:none" points="
  255.977,500.956 274.875,500.956 
  "/>
<polyline clip-path="url(#clip750)" style="stroke:#000000; stroke-linecap:butt; stroke-linejoin:round; stroke-width:4; stroke-opacity:1; fill:none" points="
  255.977,141.515 274.875,141.515 
  "/>
<path clip-path="url(#clip750)" d="M114.26 1220.29 L143.936 1220.29 L143.936 1224.23 L114.26 1224.23 L114.26 1220.29 Z" fill="#000000" fill-rule="evenodd" fill-opacity="1" /><path clip-path="url(#clip750)" d="M164.028 1205.64 Q160.417 1205.64 158.589 1209.2 Q156.783 1212.74 156.783 1219.87 Q156.783 1226.98 158.589 1230.55 Q160.417 1234.09 164.028 1234.09 Q167.663 1234.09 169.468 1230.55 Q171.297 1226.98 171.297 1219.87 Q171.297 1212.74 169.468 1209.2 Q167.663 1205.64 164.028 1205.64 M164.028 1201.93 Q169.839 1201.93 172.894 1206.54 Q175.973 1211.12 175.973 1219.87 Q175.973 1228.6 172.894 1233.21 Q169.839 1237.79 164.028 1237.79 Q158.218 1237.79 155.14 1233.21 Q152.084 1228.6 152.084 1219.87 Q152.084 1211.12 155.14 1206.54 Q158.218 1201.93 164.028 1201.93 Z" fill="#000000" fill-rule="evenodd" fill-opacity="1" /><path clip-path="url(#clip750)" d="M184.19 1231.24 L189.075 1231.24 L189.075 1237.12 L184.19 1237.12 L184.19 1231.24 Z" fill="#000000" fill-rule="evenodd" fill-opacity="1" /><path clip-path="url(#clip750)" d="M200.07 1233.18 L207.709 1233.18 L207.709 1206.82 L199.399 1208.49 L199.399 1204.23 L207.662 1202.56 L212.338 1202.56 L212.338 1233.18 L219.977 1233.18 L219.977 1237.12 L200.07 1237.12 L200.07 1233.18 Z" fill="#000000" fill-rule="evenodd" fill-opacity="1" /><path clip-path="url(#clip750)" d="M162.802 846.197 Q159.19 846.197 157.362 849.761 Q155.556 853.303 155.556 860.433 Q155.556 867.539 157.362 871.104 Q159.19 874.646 162.802 874.646 Q166.436 874.646 168.241 871.104 Q170.07 867.539 170.07 860.433 Q170.07 853.303 168.241 849.761 Q166.436 846.197 162.802 846.197 M162.802 842.493 Q168.612 842.493 171.667 847.099 Q174.746 851.683 174.746 860.433 Q174.746 869.159 171.667 873.766 Q168.612 878.349 162.802 878.349 Q156.991 878.349 153.913 873.766 Q150.857 869.159 150.857 860.433 Q150.857 851.683 153.913 847.099 Q156.991 842.493 162.802 842.493 Z" fill="#000000" fill-rule="evenodd" fill-opacity="1" /><path clip-path="url(#clip750)" d="M182.963 871.798 L187.848 871.798 L187.848 877.678 L182.963 877.678 L182.963 871.798 Z" fill="#000000" fill-rule="evenodd" fill-opacity="1" /><path clip-path="url(#clip750)" d="M208.033 846.197 Q204.422 846.197 202.593 849.761 Q200.787 853.303 200.787 860.433 Q200.787 867.539 202.593 871.104 Q204.422 874.646 208.033 874.646 Q211.667 874.646 213.473 871.104 Q215.301 867.539 215.301 860.433 Q215.301 853.303 213.473 849.761 Q211.667 846.197 208.033 846.197 M208.033 842.493 Q213.843 842.493 216.898 847.099 Q219.977 851.683 219.977 860.433 Q219.977 869.159 216.898 873.766 Q213.843 878.349 208.033 878.349 Q202.223 878.349 199.144 873.766 Q196.088 869.159 196.088 860.433 Q196.088 851.683 199.144 847.099 Q202.223 842.493 208.033 842.493 Z" fill="#000000" fill-rule="evenodd" fill-opacity="1" /><path clip-path="url(#clip750)" d="M164.028 486.755 Q160.417 486.755 158.589 490.32 Q156.783 493.862 156.783 500.991 Q156.783 508.098 158.589 511.662 Q160.417 515.204 164.028 515.204 Q167.663 515.204 169.468 511.662 Q171.297 508.098 171.297 500.991 Q171.297 493.862 169.468 490.32 Q167.663 486.755 164.028 486.755 M164.028 483.051 Q169.839 483.051 172.894 487.658 Q175.973 492.241 175.973 500.991 Q175.973 509.718 172.894 514.324 Q169.839 518.908 164.028 518.908 Q158.218 518.908 155.14 514.324 Q152.084 509.718 152.084 500.991 Q152.084 492.241 155.14 487.658 Q158.218 483.051 164.028 483.051 Z" fill="#000000" fill-rule="evenodd" fill-opacity="1" /><path clip-path="url(#clip750)" d="M184.19 512.357 L189.075 512.357 L189.075 518.236 L184.19 518.236 L184.19 512.357 Z" fill="#000000" fill-rule="evenodd" fill-opacity="1" /><path clip-path="url(#clip750)" d="M200.07 514.301 L207.709 514.301 L207.709 487.936 L199.399 489.602 L199.399 485.343 L207.662 483.676 L212.338 483.676 L212.338 514.301 L219.977 514.301 L219.977 518.236 L200.07 518.236 L200.07 514.301 Z" fill="#000000" fill-rule="evenodd" fill-opacity="1" /><path clip-path="url(#clip750)" d="M164.399 127.314 Q160.788 127.314 158.959 130.879 Q157.153 134.42 157.153 141.55 Q157.153 148.656 158.959 152.221 Q160.788 155.763 164.399 155.763 Q168.033 155.763 169.839 152.221 Q171.667 148.656 171.667 141.55 Q171.667 134.42 169.839 130.879 Q168.033 127.314 164.399 127.314 M164.399 123.61 Q170.209 123.61 173.264 128.217 Q176.343 132.8 176.343 141.55 Q176.343 150.277 173.264 154.883 Q170.209 159.466 164.399 159.466 Q158.589 159.466 155.51 154.883 Q152.454 150.277 152.454 141.55 Q152.454 132.8 155.51 128.217 Q158.589 123.61 164.399 123.61 Z" fill="#000000" fill-rule="evenodd" fill-opacity="1" /><path clip-path="url(#clip750)" d="M184.561 152.915 L189.445 152.915 L189.445 158.795 L184.561 158.795 L184.561 152.915 Z" fill="#000000" fill-rule="evenodd" fill-opacity="1" /><path clip-path="url(#clip750)" d="M203.658 154.86 L219.977 154.86 L219.977 158.795 L198.033 158.795 L198.033 154.86 Q200.695 152.105 205.278 147.476 Q209.885 142.823 211.065 141.48 Q213.311 138.957 214.19 137.221 Q215.093 135.462 215.093 133.772 Q215.093 131.017 213.149 129.281 Q211.227 127.545 208.125 127.545 Q205.926 127.545 203.473 128.309 Q201.042 129.073 198.264 130.624 L198.264 125.902 Q201.088 124.767 203.542 124.189 Q205.996 123.61 208.033 123.61 Q213.403 123.61 216.598 126.295 Q219.792 128.98 219.792 133.471 Q219.792 135.601 218.982 137.522 Q218.195 139.42 216.088 142.013 Q215.51 142.684 212.408 145.902 Q209.306 149.096 203.658 154.86 Z" fill="#000000" fill-rule="evenodd" fill-opacity="1" /><path clip-path="url(#clip750)" d="M21.7677 1174.35 L39.6235 1174.35 L39.6235 1166.27 Q39.6235 1161.78 37.3 1159.33 Q34.9765 1156.88 30.6797 1156.88 Q26.4147 1156.88 24.0912 1159.33 Q21.7677 1161.78 21.7677 1166.27 L21.7677 1174.35 M16.4842 1180.78 L16.4842 1166.27 Q16.4842 1158.28 20.1126 1154.2 Q23.7092 1150.1 30.6797 1150.1 Q37.7138 1150.1 41.3104 1154.2 Q44.907 1158.28 44.907 1166.27 L44.907 1174.35 L64.0042 1174.35 L64.0042 1180.78 L16.4842 1180.78 Z" fill="#000000" fill-rule="evenodd" fill-opacity="1" /><path clip-path="url(#clip750)" d="M33.8307 1122.22 Q33.2578 1123.2 33.0032 1124.38 Q32.7167 1125.53 32.7167 1126.93 Q32.7167 1131.89 35.9632 1134.56 Q39.1779 1137.21 45.2253 1137.21 L64.0042 1137.21 L64.0042 1143.09 L28.3562 1143.09 L28.3562 1137.21 L33.8944 1137.21 Q30.6479 1135.36 29.0883 1132.4 Q27.4968 1129.44 27.4968 1125.21 Q27.4968 1124.6 27.5923 1123.87 Q27.656 1123.14 27.8151 1122.25 L33.8307 1122.22 Z" fill="#000000" fill-rule="evenodd" fill-opacity="1" /><path clip-path="url(#clip750)" d="M44.7161 1087.01 L47.5806 1087.01 L47.5806 1113.94 Q53.6281 1113.56 56.8109 1110.31 Q59.9619 1107.03 59.9619 1101.21 Q59.9619 1097.83 59.1344 1094.68 Q58.3069 1091.5 56.6518 1088.38 L62.1899 1088.38 Q63.5267 1091.53 64.227 1094.84 Q64.9272 1098.15 64.9272 1101.56 Q64.9272 1110.09 59.9619 1115.09 Q54.9967 1120.05 46.5303 1120.05 Q37.7774 1120.05 32.6531 1115.34 Q27.4968 1110.6 27.4968 1102.58 Q27.4968 1095.38 32.1438 1091.21 Q36.7589 1087.01 44.7161 1087.01 M42.9973 1092.87 Q38.1912 1092.93 35.3266 1095.57 Q32.4621 1098.18 32.4621 1102.51 Q32.4621 1107.41 35.2312 1110.37 Q38.0002 1113.3 43.0292 1113.75 L42.9973 1092.87 Z" fill="#000000" fill-rule="evenodd" fill-opacity="1" /><path clip-path="url(#clip750)" d="M33.7671 1053.94 L14.479 1053.94 L14.479 1048.09 L64.0042 1048.09 L64.0042 1053.94 L58.657 1053.94 Q61.8398 1055.79 63.3994 1058.62 Q64.9272 1061.42 64.9272 1065.37 Q64.9272 1071.83 59.771 1075.9 Q54.6147 1079.95 46.212 1079.95 Q37.8093 1079.95 32.6531 1075.9 Q27.4968 1071.83 27.4968 1065.37 Q27.4968 1061.42 29.0564 1058.62 Q30.5842 1055.79 33.7671 1053.94 M46.212 1073.9 Q52.6732 1073.9 56.3653 1071.26 Q60.0256 1068.58 60.0256 1063.94 Q60.0256 1059.29 56.3653 1056.62 Q52.6732 1053.94 46.212 1053.94 Q39.7508 1053.94 36.0905 1056.62 Q32.3984 1059.29 32.3984 1063.94 Q32.3984 1068.58 36.0905 1071.26 Q39.7508 1073.9 46.212 1073.9 Z" fill="#000000" fill-rule="evenodd" fill-opacity="1" /><path clip-path="url(#clip750)" d="M28.3562 1036.02 L28.3562 1030.17 L64.0042 1030.17 L64.0042 1036.02 L28.3562 1036.02 M14.479 1036.02 L14.479 1030.17 L21.895 1030.17 L21.895 1036.02 L14.479 1036.02 Z" fill="#000000" fill-rule="evenodd" fill-opacity="1" /><path clip-path="url(#clip750)" d="M29.7248 992.259 L35.1993 992.259 Q33.8307 994.742 33.1623 997.256 Q32.4621 999.739 32.4621 1002.29 Q32.4621 1007.98 36.0905 1011.13 Q39.6872 1014.28 46.212 1014.28 Q52.7369 1014.28 56.3653 1011.13 Q59.9619 1007.98 59.9619 1002.29 Q59.9619 999.739 59.2935 997.256 Q58.5933 994.742 57.2247 992.259 L62.6355 992.259 Q63.7814 994.71 64.3543 997.352 Q64.9272 999.962 64.9272 1002.92 Q64.9272 1010.97 59.8664 1015.72 Q54.8057 1020.46 46.212 1020.46 Q37.491 1020.46 32.4939 1015.69 Q27.4968 1010.88 27.4968 1002.54 Q27.4968 999.834 28.0697 997.256 Q28.6108 994.678 29.7248 992.259 Z" fill="#000000" fill-rule="evenodd" fill-opacity="1" /><path clip-path="url(#clip750)" d="M18.2347 976.281 L28.3562 976.281 L28.3562 964.218 L32.9077 964.218 L32.9077 976.281 L52.2594 976.281 Q56.6199 976.281 57.8613 975.104 Q59.1026 973.894 59.1026 970.234 L59.1026 964.218 L64.0042 964.218 L64.0042 970.234 Q64.0042 977.013 61.4897 979.591 Q58.9434 982.17 52.2594 982.17 L32.9077 982.17 L32.9077 986.466 L28.3562 986.466 L28.3562 982.17 L18.2347 982.17 L18.2347 976.281 Z" fill="#000000" fill-rule="evenodd" fill-opacity="1" /><path clip-path="url(#clip750)" d="M28.3562 956.516 L28.3562 950.659 L64.0042 950.659 L64.0042 956.516 L28.3562 956.516 M14.479 956.516 L14.479 950.659 L21.895 950.659 L21.895 956.516 L14.479 956.516 Z" fill="#000000" fill-rule="evenodd" fill-opacity="1" /><path clip-path="url(#clip750)" d="M28.3562 942.607 L28.3562 936.4 L58.275 925.26 L28.3562 914.12 L28.3562 907.914 L64.0042 921.282 L64.0042 929.239 L28.3562 942.607 Z" fill="#000000" fill-rule="evenodd" fill-opacity="1" /><path clip-path="url(#clip750)" d="M44.7161 869.337 L47.5806 869.337 L47.5806 896.264 Q53.6281 895.882 56.8109 892.636 Q59.9619 889.358 59.9619 883.533 Q59.9619 880.159 59.1344 877.008 Q58.3069 873.825 56.6518 870.706 L62.1899 870.706 Q63.5267 873.857 64.227 877.167 Q64.9272 880.477 64.9272 883.883 Q64.9272 892.413 59.9619 897.41 Q54.9967 902.375 46.5303 902.375 Q37.7774 902.375 32.6531 897.665 Q27.4968 892.922 27.4968 884.902 Q27.4968 877.708 32.1438 873.539 Q36.7589 869.337 44.7161 869.337 M42.9973 875.194 Q38.1912 875.258 35.3266 877.899 Q32.4621 880.509 32.4621 884.838 Q32.4621 889.739 35.2312 892.7 Q38.0002 895.628 43.0292 896.073 L42.9973 875.194 Z" fill="#000000" fill-rule="evenodd" fill-opacity="1" /><path clip-path="url(#clip750)" d="M46.0847 822.804 Q46.0847 829.902 47.7079 832.639 Q49.3312 835.376 53.2461 835.376 Q56.3653 835.376 58.2114 833.339 Q60.0256 831.27 60.0256 827.738 Q60.0256 822.868 56.5881 819.94 Q53.1188 816.979 47.3897 816.979 L46.0847 816.979 L46.0847 822.804 M43.6657 811.123 L64.0042 811.123 L64.0042 816.979 L58.5933 816.979 Q61.8398 818.985 63.3994 821.977 Q64.9272 824.968 64.9272 829.297 Q64.9272 834.772 61.8716 838.018 Q58.7843 841.233 53.6281 841.233 Q47.6125 841.233 44.5569 837.222 Q41.5014 833.18 41.5014 825.191 L41.5014 816.979 L40.9285 816.979 Q36.8862 816.979 34.6901 819.653 Q32.4621 822.295 32.4621 827.101 Q32.4621 830.156 33.1941 833.053 Q33.9262 835.949 35.3903 838.623 L29.9795 838.623 Q28.7381 835.408 28.1334 832.384 Q27.4968 829.361 27.4968 826.496 Q27.4968 818.762 31.5072 814.942 Q35.5176 811.123 43.6657 811.123 Z" fill="#000000" fill-rule="evenodd" fill-opacity="1" /><path clip-path="url(#clip750)" d="M29.4065 776.334 L34.9447 776.334 Q33.6716 778.817 33.035 781.491 Q32.3984 784.164 32.3984 787.029 Q32.3984 791.389 33.7352 793.585 Q35.072 795.75 37.7456 795.75 Q39.7826 795.75 40.9603 794.19 Q42.1061 792.631 43.1565 787.92 L43.6021 785.915 Q44.9389 779.676 47.3897 777.066 Q49.8086 774.425 54.1691 774.425 Q59.1344 774.425 62.0308 778.371 Q64.9272 782.286 64.9272 789.161 Q64.9272 792.026 64.3543 795.145 Q63.8132 798.232 62.6992 801.67 L56.6518 801.67 Q58.3387 798.423 59.198 795.272 Q60.0256 792.121 60.0256 789.034 Q60.0256 784.896 58.6251 782.668 Q57.1929 780.44 54.6147 780.44 Q52.2276 780.44 50.9545 782.064 Q49.6813 783.655 48.5037 789.098 L48.0262 791.135 Q46.8804 796.577 44.5251 798.996 Q42.138 801.415 38.0002 801.415 Q32.9713 801.415 30.2341 797.851 Q27.4968 794.286 27.4968 787.729 Q27.4968 784.483 27.9743 781.618 Q28.4517 778.753 29.4065 776.334 Z" fill="#000000" fill-rule="evenodd" fill-opacity="1" /><path clip-path="url(#clip750)" d="M67.3143 750.267 Q73.68 752.749 75.6216 755.105 Q77.5631 757.46 77.5631 761.407 L77.5631 766.086 L72.6615 766.086 L72.6615 762.648 Q72.6615 760.229 71.5157 758.892 Q70.3699 757.556 66.1048 755.932 L63.4312 754.882 L28.3562 769.3 L28.3562 763.094 L56.238 751.954 L28.3562 740.814 L28.3562 734.607 L67.3143 750.267 Z" fill="#000000" fill-rule="evenodd" fill-opacity="1" /><path clip-path="url(#clip750)" d="M35.1993 698.768 Q31.2526 696.572 29.3747 693.517 Q27.4968 690.461 27.4968 686.323 Q27.4968 680.753 31.4117 677.73 Q35.2948 674.706 42.4881 674.706 L64.0042 674.706 L64.0042 680.594 L42.679 680.594 Q37.5546 680.594 35.072 682.408 Q32.5894 684.223 32.5894 687.947 Q32.5894 692.498 35.6131 695.14 Q38.6368 697.782 43.8567 697.782 L64.0042 697.782 L64.0042 703.67 L42.679 703.67 Q37.5228 703.67 35.072 705.484 Q32.5894 707.298 32.5894 711.086 Q32.5894 715.574 35.6449 718.216 Q38.6686 720.857 43.8567 720.857 L64.0042 720.857 L64.0042 726.746 L28.3562 726.746 L28.3562 720.857 L33.8944 720.857 Q30.616 718.852 29.0564 716.051 Q27.4968 713.25 27.4968 709.399 Q27.4968 705.516 29.4702 702.811 Q31.4436 700.073 35.1993 698.768 Z" fill="#000000" fill-rule="evenodd" fill-opacity="1" /><path clip-path="url(#clip750)" d="M35.1993 635.27 Q31.2526 633.074 29.3747 630.019 Q27.4968 626.963 27.4968 622.825 Q27.4968 617.255 31.4117 614.232 Q35.2948 611.208 42.4881 611.208 L64.0042 611.208 L64.0042 617.096 L42.679 617.096 Q37.5546 617.096 35.072 618.911 Q32.5894 620.725 32.5894 624.449 Q32.5894 629 35.6131 631.642 Q38.6368 634.284 43.8567 634.284 L64.0042 634.284 L64.0042 640.172 L42.679 640.172 Q37.5228 640.172 35.072 641.986 Q32.5894 643.8 32.5894 647.588 Q32.5894 652.076 35.6449 654.718 Q38.6686 657.359 43.8567 657.359 L64.0042 657.359 L64.0042 663.248 L28.3562 663.248 L28.3562 657.359 L33.8944 657.359 Q30.616 655.354 29.0564 652.553 Q27.4968 649.752 27.4968 645.901 Q27.4968 642.018 29.4702 639.313 Q31.4436 636.575 35.1993 635.27 Z" fill="#000000" fill-rule="evenodd" fill-opacity="1" /><path clip-path="url(#clip750)" d="M44.7161 569.035 L47.5806 569.035 L47.5806 595.962 Q53.6281 595.58 56.8109 592.334 Q59.9619 589.055 59.9619 583.231 Q59.9619 579.857 59.1344 576.706 Q58.3069 573.523 56.6518 570.404 L62.1899 570.404 Q63.5267 573.555 64.227 576.865 Q64.9272 580.175 64.9272 583.581 Q64.9272 592.111 59.9619 597.108 Q54.9967 602.073 46.5303 602.073 Q37.7774 602.073 32.6531 597.363 Q27.4968 592.62 27.4968 584.599 Q27.4968 577.406 32.1438 573.237 Q36.7589 569.035 44.7161 569.035 M42.9973 574.892 Q38.1912 574.955 35.3266 577.597 Q32.4621 580.207 32.4621 584.536 Q32.4621 589.437 35.2312 592.397 Q38.0002 595.326 43.0292 595.771 L42.9973 574.892 Z" fill="#000000" fill-rule="evenodd" fill-opacity="1" /><path clip-path="url(#clip750)" d="M18.2347 553.63 L28.3562 553.63 L28.3562 541.567 L32.9077 541.567 L32.9077 553.63 L52.2594 553.63 Q56.6199 553.63 57.8613 552.453 Q59.1026 551.243 59.1026 547.583 L59.1026 541.567 L64.0042 541.567 L64.0042 547.583 Q64.0042 554.362 61.4897 556.94 Q58.9434 559.518 52.2594 559.518 L32.9077 559.518 L32.9077 563.815 L28.3562 563.815 L28.3562 559.518 L18.2347 559.518 L18.2347 553.63 Z" fill="#000000" fill-rule="evenodd" fill-opacity="1" /><path clip-path="url(#clip750)" d="M33.8307 513.208 Q33.2578 514.195 33.0032 515.372 Q32.7167 516.518 32.7167 517.919 Q32.7167 522.884 35.9632 525.557 Q39.1779 528.199 45.2253 528.199 L64.0042 528.199 L64.0042 534.087 L28.3562 534.087 L28.3562 528.199 L33.8944 528.199 Q30.6479 526.353 29.0883 523.393 Q27.4968 520.433 27.4968 516.2 Q27.4968 515.595 27.5923 514.863 Q27.656 514.131 27.8151 513.24 L33.8307 513.208 Z" fill="#000000" fill-rule="evenodd" fill-opacity="1" /><path clip-path="url(#clip750)" d="M67.3143 492.233 Q73.68 494.716 75.6216 497.071 Q77.5631 499.426 77.5631 503.373 L77.5631 508.052 L72.6615 508.052 L72.6615 504.614 Q72.6615 502.195 71.5157 500.858 Q70.3699 499.522 66.1048 497.898 L63.4312 496.848 L28.3562 511.266 L28.3562 505.06 L56.238 493.92 L28.3562 482.78 L28.3562 476.573 L67.3143 492.233 Z" fill="#000000" fill-rule="evenodd" fill-opacity="1" /><path clip-path="url(#clip750)" d="M14.5426 433.7 Q21.8632 437.965 29.0246 440.034 Q36.186 442.103 43.5384 442.103 Q50.8908 442.103 58.1159 440.034 Q65.3091 437.933 72.5979 433.7 L72.5979 438.793 Q65.1182 443.567 57.8931 445.954 Q50.668 448.31 43.5384 448.31 Q36.4406 448.31 29.2474 445.954 Q22.0542 443.599 14.5426 438.793 L14.5426 433.7 Z" fill="#000000" fill-rule="evenodd" fill-opacity="1" /><path clip-path="url(#clip750)" d="M46.212 396.747 Q39.7508 396.747 36.0905 399.421 Q32.3984 402.063 32.3984 406.71 Q32.3984 411.357 36.0905 414.03 Q39.7508 416.672 46.212 416.672 Q52.6732 416.672 56.3653 414.03 Q60.0256 411.357 60.0256 406.71 Q60.0256 402.063 56.3653 399.421 Q52.6732 396.747 46.212 396.747 M33.7671 416.672 Q30.5842 414.826 29.0564 412.025 Q27.4968 409.192 27.4968 405.277 Q27.4968 398.784 32.6531 394.742 Q37.8093 390.668 46.212 390.668 Q54.6147 390.668 59.771 394.742 Q64.9272 398.784 64.9272 405.277 Q64.9272 409.192 63.3994 412.025 Q61.8398 414.826 58.657 416.672 L64.0042 416.672 L64.0042 422.56 L14.479 422.56 L14.479 416.672 L33.7671 416.672 Z" fill="#000000" fill-rule="evenodd" fill-opacity="1" /><path clip-path="url(#clip750)" d="M28.3562 380.96 L28.3562 375.104 L64.0042 375.104 L64.0042 380.96 L28.3562 380.96 M14.479 380.96 L14.479 375.104 L21.895 375.104 L21.895 380.96 L14.479 380.96 Z" fill="#000000" fill-rule="evenodd" fill-opacity="1" /><path clip-path="url(#clip750)" d="M18.2347 357.057 L28.3562 357.057 L28.3562 344.994 L32.9077 344.994 L32.9077 357.057 L52.2594 357.057 Q56.6199 357.057 57.8613 355.88 Q59.1026 354.67 59.1026 351.01 L59.1026 344.994 L64.0042 344.994 L64.0042 351.01 Q64.0042 357.789 61.4897 360.367 Q58.9434 362.945 52.2594 362.945 L32.9077 362.945 L32.9077 367.242 L28.3562 367.242 L28.3562 362.945 L18.2347 362.945 L18.2347 357.057 Z" fill="#000000" fill-rule="evenodd" fill-opacity="1" /><path clip-path="url(#clip750)" d="M29.4065 314.566 L34.9447 314.566 Q33.6716 317.049 33.035 319.722 Q32.3984 322.396 32.3984 325.26 Q32.3984 329.621 33.7352 331.817 Q35.072 333.981 37.7456 333.981 Q39.7826 333.981 40.9603 332.422 Q42.1061 330.862 43.1565 326.152 L43.6021 324.146 Q44.9389 317.908 47.3897 315.298 Q49.8086 312.656 54.1691 312.656 Q59.1344 312.656 62.0308 316.603 Q64.9272 320.518 64.9272 327.393 Q64.9272 330.258 64.3543 333.377 Q63.8132 336.464 62.6992 339.902 L56.6518 339.902 Q58.3387 336.655 59.198 333.504 Q60.0256 330.353 60.0256 327.266 Q60.0256 323.128 58.6251 320.9 Q57.1929 318.672 54.6147 318.672 Q52.2276 318.672 50.9545 320.295 Q49.6813 321.887 48.5037 327.329 L48.0262 329.366 Q46.8804 334.809 44.5251 337.228 Q42.138 339.647 38.0002 339.647 Q32.9713 339.647 30.2341 336.082 Q27.4968 332.517 27.4968 325.961 Q27.4968 322.714 27.9743 319.85 Q28.4517 316.985 29.4065 314.566 Z" fill="#000000" fill-rule="evenodd" fill-opacity="1" /><path clip-path="url(#clip750)" d="M14.5426 304.254 L14.5426 299.161 Q22.0542 294.387 29.2474 292.031 Q36.4406 289.644 43.5384 289.644 Q50.668 289.644 57.8931 292.031 Q65.1182 294.387 72.5979 299.161 L72.5979 304.254 Q65.3091 300.02 58.1159 297.952 Q50.8908 295.851 43.5384 295.851 Q36.186 295.851 29.0246 297.952 Q21.8632 300.02 14.5426 304.254 Z" fill="#000000" fill-rule="evenodd" fill-opacity="1" /><polyline clip-path="url(#clip752)" style="stroke:#000000; stroke-linecap:butt; stroke-linejoin:round; stroke-width:6; stroke-opacity:1; fill:none" points="
  315.32,693.158 355.689,560.939 396.058,461.852 436.428,384.314 476.797,376.609 517.166,283.793 557.535,86.1857 597.905,414.349 638.274,509.284 678.643,207.862 
  719.012,349.85 759.382,334.817 799.751,280.925 840.12,408.996 880.489,344.926 920.859,385.776 961.228,287.927 1001.6,331.787 1041.97,379.904 1082.34,342.144 
  1122.7,347.915 1163.07,414.94 1203.44,345.534 1243.81,393.571 1284.18,393.704 1324.55,391.512 1364.92,386.391 1405.29,350.181 1445.66,399.518 1486.03,371.68 
  1526.4,409.724 1566.77,391.957 1607.14,413.562 1647.51,412.547 1687.87,452.814 1728.24,455.896 1768.61,434.178 1808.98,408.933 1849.35,448.899 1889.72,474.768 
  1930.09,716.225 1970.46,860.398 2010.83,405.044 2051.2,439.894 2091.57,461.018 2131.94,529.664 2172.31,568.622 2212.67,533.547 2253.04,519.835 2293.41,537.85 
  
  "/>
<polyline clip-path="url(#clip752)" style="stroke:#ff0000; stroke-linecap:butt; stroke-linejoin:round; stroke-width:4; stroke-opacity:1; fill:none" points="
  315.32,901.519 355.689,889.008 396.058,981.685 436.428,850.325 476.797,943.642 517.166,1189.05 557.535,1262.64 597.905,1384.24 638.274,1183.97 678.643,1014.59 
  719.012,841.667 759.382,847.08 799.751,924.34 840.12,847.504 880.489,929.477 920.859,983.872 961.228,955.749 1001.6,999.116 1041.97,936.722 1082.34,974.48 
  1122.7,946.281 1163.07,940.945 1203.44,977.588 1243.81,981.464 1284.18,948.405 1324.55,1014.88 1364.92,1027.89 1405.29,1008.07 1445.66,1015.65 1486.03,980.464 
  1526.4,978.832 1566.77,1019.37 1607.14,1022.44 1647.51,1056.86 1687.87,988.816 1728.24,994.503 1768.61,986.255 1808.98,983.199 1849.35,1046.46 1889.72,1074.4 
  1930.09,1368.81 1970.46,860.398 2010.83,1125.61 2051.2,1104.68 2091.57,1051.32 2131.94,1091.53 2172.31,1080.87 2212.67,1098.53 2253.04,1115.84 2293.41,1194.78 
  
  "/>
<polyline clip-path="url(#clip752)" style="stroke:#808080; stroke-linecap:butt; stroke-linejoin:round; stroke-width:4; stroke-opacity:1; fill:none" stroke-dasharray="16, 10" points="
  -1840.8,860.398 4449.53,860.398 
  "/>
<path clip-path="url(#clip750)" d="
M1852.67 248.629 L2282.86 248.629 L2282.86 93.1086 L1852.67 93.1086  Z
  " fill="#ffffff" fill-rule="evenodd" fill-opacity="1"/>
<polyline clip-path="url(#clip750)" style="stroke:#000000; stroke-linecap:butt; stroke-linejoin:round; stroke-width:4; stroke-opacity:1; fill:none" points="
  1852.67,248.629 2282.86,248.629 2282.86,93.1086 1852.67,93.1086 1852.67,248.629 
  "/>
<polyline clip-path="url(#clip750)" style="stroke:#000000; stroke-linecap:butt; stroke-linejoin:round; stroke-width:4; stroke-opacity:1; fill:none" points="
  1875.96,144.949 2015.75,144.949 
  "/>
<path clip-path="url(#clip750)" d="M2040.62 127.669 L2045.64 127.669 L2054.23 140.516 L2062.87 127.669 L2067.89 127.669 L2056.78 144.266 L2068.63 162.229 L2063.61 162.229 L2053.88 147.53 L2044.09 162.229 L2039.05 162.229 L2051.38 143.78 L2040.62 127.669 Z" fill="#000000" fill-rule="evenodd" fill-opacity="1" /><path clip-path="url(#clip750)" d="M2075.99 158.293 L2083.63 158.293 L2083.63 131.928 L2075.32 133.595 L2075.32 129.335 L2083.58 127.669 L2088.26 127.669 L2088.26 158.293 L2095.9 158.293 L2095.9 162.229 L2075.99 162.229 L2075.99 158.293 Z" fill="#000000" fill-rule="evenodd" fill-opacity="1" /><path clip-path="url(#clip750)" d="M2124.02 128.942 L2124.02 136.303 L2132.8 136.303 L2132.8 139.613 L2124.02 139.613 L2124.02 153.687 Q2124.02 156.858 2124.88 157.761 Q2125.76 158.664 2128.42 158.664 L2132.8 158.664 L2132.8 162.229 L2128.42 162.229 Q2123.49 162.229 2121.62 160.4 Q2119.74 158.548 2119.74 153.687 L2119.74 139.613 L2116.62 139.613 L2116.62 136.303 L2119.74 136.303 L2119.74 128.942 L2124.02 128.942 Z" fill="#000000" fill-rule="evenodd" fill-opacity="1" /><path clip-path="url(#clip750)" d="M2148.44 139.289 Q2145.02 139.289 2143.03 141.974 Q2141.04 144.636 2141.04 149.289 Q2141.04 153.942 2143 156.627 Q2145 159.289 2148.44 159.289 Q2151.85 159.289 2153.84 156.604 Q2155.83 153.918 2155.83 149.289 Q2155.83 144.682 2153.84 141.997 Q2151.85 139.289 2148.44 139.289 M2148.44 135.678 Q2154 135.678 2157.17 139.289 Q2160.34 142.9 2160.34 149.289 Q2160.34 155.655 2157.17 159.289 Q2154 162.9 2148.44 162.9 Q2142.87 162.9 2139.69 159.289 Q2136.55 155.655 2136.55 149.289 Q2136.55 142.9 2139.69 139.289 Q2142.87 135.678 2148.44 135.678 Z" fill="#000000" fill-rule="evenodd" fill-opacity="1" /><path clip-path="url(#clip750)" d="M2180.99 127.669 L2186.01 127.669 L2194.6 140.516 L2203.24 127.669 L2208.26 127.669 L2197.15 144.266 L2209 162.229 L2203.98 162.229 L2194.25 147.53 L2184.46 162.229 L2179.42 162.229 L2191.75 143.78 L2180.99 127.669 Z" fill="#000000" fill-rule="evenodd" fill-opacity="1" /><path clip-path="url(#clip750)" d="M2219.58 158.293 L2235.9 158.293 L2235.9 162.229 L2213.95 162.229 L2213.95 158.293 Q2216.62 155.539 2221.2 150.909 Q2225.81 146.256 2226.99 144.914 Q2229.23 142.391 2230.11 140.655 Q2231.01 138.895 2231.01 137.206 Q2231.01 134.451 2229.07 132.715 Q2227.15 130.979 2224.05 130.979 Q2221.85 130.979 2219.39 131.743 Q2216.96 132.507 2214.18 134.057 L2214.18 129.335 Q2217.01 128.201 2219.46 127.622 Q2221.92 127.044 2223.95 127.044 Q2229.32 127.044 2232.52 129.729 Q2235.71 132.414 2235.71 136.905 Q2235.71 139.034 2234.9 140.956 Q2234.12 142.854 2232.01 145.446 Q2231.43 146.118 2228.33 149.335 Q2225.23 152.53 2219.58 158.293 Z" fill="#000000" fill-rule="evenodd" fill-opacity="1" /><polyline clip-path="url(#clip750)" style="stroke:#ff0000; stroke-linecap:butt; stroke-linejoin:round; stroke-width:4; stroke-opacity:1; fill:none" points="
  1875.96,196.789 2015.75,196.789 
  "/>
<path clip-path="url(#clip750)" d="M2040.62 179.509 L2045.64 179.509 L2054.23 192.356 L2062.87 179.509 L2067.89 179.509 L2056.78 196.106 L2068.63 214.069 L2063.61 214.069 L2053.88 199.37 L2044.09 214.069 L2039.05 214.069 L2051.38 195.62 L2040.62 179.509 Z" fill="#000000" fill-rule="evenodd" fill-opacity="1" /><path clip-path="url(#clip750)" d="M2079.21 210.133 L2095.53 210.133 L2095.53 214.069 L2073.58 214.069 L2073.58 210.133 Q2076.25 207.379 2080.83 202.749 Q2085.44 198.096 2086.62 196.754 Q2088.86 194.231 2089.74 192.495 Q2090.64 190.735 2090.64 189.046 Q2090.64 186.291 2088.7 184.555 Q2086.78 182.819 2083.68 182.819 Q2081.48 182.819 2079.02 183.583 Q2076.59 184.347 2073.82 185.897 L2073.82 181.175 Q2076.64 180.041 2079.09 179.462 Q2081.55 178.884 2083.58 178.884 Q2088.95 178.884 2092.15 181.569 Q2095.34 184.254 2095.34 188.745 Q2095.34 190.874 2094.53 192.796 Q2093.75 194.694 2091.64 197.286 Q2091.06 197.958 2087.96 201.175 Q2084.86 204.37 2079.21 210.133 Z" fill="#000000" fill-rule="evenodd" fill-opacity="1" /><path clip-path="url(#clip750)" d="M2124.02 180.782 L2124.02 188.143 L2132.8 188.143 L2132.8 191.453 L2124.02 191.453 L2124.02 205.527 Q2124.02 208.698 2124.88 209.601 Q2125.76 210.504 2128.42 210.504 L2132.8 210.504 L2132.8 214.069 L2128.42 214.069 Q2123.49 214.069 2121.62 212.24 Q2119.74 210.388 2119.74 205.527 L2119.74 191.453 L2116.62 191.453 L2116.62 188.143 L2119.74 188.143 L2119.74 180.782 L2124.02 180.782 Z" fill="#000000" fill-rule="evenodd" fill-opacity="1" /><path clip-path="url(#clip750)" d="M2148.44 191.129 Q2145.02 191.129 2143.03 193.814 Q2141.04 196.476 2141.04 201.129 Q2141.04 205.782 2143 208.467 Q2145 211.129 2148.44 211.129 Q2151.85 211.129 2153.84 208.444 Q2155.83 205.758 2155.83 201.129 Q2155.83 196.522 2153.84 193.837 Q2151.85 191.129 2148.44 191.129 M2148.44 187.518 Q2154 187.518 2157.17 191.129 Q2160.34 194.74 2160.34 201.129 Q2160.34 207.495 2157.17 211.129 Q2154 214.74 2148.44 214.74 Q2142.87 214.74 2139.69 211.129 Q2136.55 207.495 2136.55 201.129 Q2136.55 194.74 2139.69 191.129 Q2142.87 187.518 2148.44 187.518 Z" fill="#000000" fill-rule="evenodd" fill-opacity="1" /><path clip-path="url(#clip750)" d="M2180.99 179.509 L2186.01 179.509 L2194.6 192.356 L2203.24 179.509 L2208.26 179.509 L2197.15 196.106 L2209 214.069 L2203.98 214.069 L2194.25 199.37 L2184.46 214.069 L2179.42 214.069 L2191.75 195.62 L2180.99 179.509 Z" fill="#000000" fill-rule="evenodd" fill-opacity="1" /><path clip-path="url(#clip750)" d="M2216.36 210.133 L2224 210.133 L2224 183.768 L2215.69 185.435 L2215.69 181.175 L2223.95 179.509 L2228.63 179.509 L2228.63 210.133 L2236.27 210.133 L2236.27 214.069 L2216.36 214.069 L2216.36 210.133 Z" fill="#000000" fill-rule="evenodd" fill-opacity="1" /></svg>
