<?xml version="1.0" encoding="utf-8"?>
<svg xmlns="http://www.w3.org/2000/svg" xmlns:xlink="http://www.w3.org/1999/xlink" width="600" height="400" viewBox="0 0 2400 1600">
<defs>
  <clipPath id="clip7800">
    <rect x="0" y="0" width="2000" height="2000"/>
  </clipPath>
</defs>
<defs>
  <clipPath id="clip7801">
    <rect x="0" y="0" width="2400" height="1600"/>
  </clipPath>
</defs>
<polygon clip-path="url(#clip7801)" points="
0,1600 2400,1600 2400,0 0,0 
  " fill="#ffffff" fill-rule="evenodd" fill-opacity="1"/>
<defs>
  <clipPath id="clip7802">
    <rect x="480" y="0" width="1681" height="1600"/>
  </clipPath>
</defs>
<polygon clip-path="url(#clip7801)" points="
224.386,1440.48 2321.26,1440.48 2321.26,47.2441 224.386,47.2441 
  " fill="#ffffff" fill-rule="evenodd" fill-opacity="1"/>
<defs>
  <clipPath id="clip7803">
    <rect x="224" y="47" width="2098" height="1394"/>
  </clipPath>
</defs>
<polyline clip-path="url(#clip7803)" style="stroke:#000000; stroke-width:2; stroke-opacity:0.1; fill:none" points="
  2042.12,1440.48 2042.12,47.2441 
  "/>
<polyline clip-path="url(#clip7803)" style="stroke:#000000; stroke-width:2; stroke-opacity:0.1; fill:none" points="
  1602.52,1440.48 1602.52,47.2441 
  "/>
<polyline clip-path="url(#clip7803)" style="stroke:#000000; stroke-width:2; stroke-opacity:0.1; fill:none" points="
  1162.92,1440.48 1162.92,47.2441 
  "/>
<polyline clip-path="url(#clip7803)" style="stroke:#000000; stroke-width:2; stroke-opacity:0.1; fill:none" points="
  723.328,1440.48 723.328,47.2441 
  "/>
<polyline clip-path="url(#clip7803)" style="stroke:#000000; stroke-width:2; stroke-opacity:0.1; fill:none" points="
  283.732,1440.48 283.732,47.2441 
  "/>
<polyline clip-path="url(#clip7803)" style="stroke:#000000; stroke-width:2; stroke-opacity:0.1; fill:none" points="
  2321.26,1420.52 224.386,1420.52 
  "/>
<polyline clip-path="url(#clip7803)" style="stroke:#000000; stroke-width:2; stroke-opacity:0.1; fill:none" points="
  2321.26,1188.59 224.386,1188.59 
  "/>
<polyline clip-path="url(#clip7803)" style="stroke:#000000; stroke-width:2; stroke-opacity:0.1; fill:none" points="
  2321.26,956.658 224.386,956.658 
  "/>
<polyline clip-path="url(#clip7803)" style="stroke:#000000; stroke-width:2; stroke-opacity:0.1; fill:none" points="
  2321.26,724.729 224.386,724.729 
  "/>
<polyline clip-path="url(#clip7803)" style="stroke:#000000; stroke-width:2; stroke-opacity:0.1; fill:none" points="
  2321.26,492.8 224.386,492.8 
  "/>
<polyline clip-path="url(#clip7803)" style="stroke:#000000; stroke-width:2; stroke-opacity:0.1; fill:none" points="
  2321.26,260.871 224.386,260.871 
  "/>
<polyline clip-path="url(#clip7801)" style="stroke:#000000; stroke-width:4; stroke-opacity:1; fill:none" points="
  2321.26,1440.48 224.386,1440.48 
  "/>
<polyline clip-path="url(#clip7801)" style="stroke:#000000; stroke-width:4; stroke-opacity:1; fill:none" points="
  224.386,1440.48 224.386,47.2441 
  "/>
<polyline clip-path="url(#clip7801)" style="stroke:#000000; stroke-width:4; stroke-opacity:1; fill:none" points="
  2042.12,1440.48 2042.12,1419.58 
  "/>
<polyline clip-path="url(#clip7801)" style="stroke:#000000; stroke-width:4; stroke-opacity:1; fill:none" points="
  1602.52,1440.48 1602.52,1419.58 
  "/>
<polyline clip-path="url(#clip7801)" style="stroke:#000000; stroke-width:4; stroke-opacity:1; fill:none" points="
  1162.92,1440.48 1162.92,1419.58 
  "/>
<polyline clip-path="url(#clip7801)" style="stroke:#000000; stroke-width:4; stroke-opacity:1; fill:none" points="
  723.328,1440.48 723.328,1419.58 
  "/>
<polyline clip-path="url(#clip7801)" style="stroke:#000000; stroke-width:4; stroke-opacity:1; fill:none" points="
  283.732,1440.48 283.732,1419.58 
  "/>
<polyline clip-path="url(#clip7801)" style="stroke:#000000; stroke-width:4; stroke-opacity:1; fill:none" points="
  224.386,1420.52 255.839,1420.52 
  "/>
<polyline clip-path="url(#clip7801)" style="stroke:#000000; stroke-width:4; stroke-opacity:1; fill:none" points="
  224.386,1188.59 255.839,1188.59 
  "/>
<polyline clip-path="url(#clip7801)" style="stroke:#000000; stroke-width:4; stroke-opacity:1; fill:none" points="
  224.386,956.658 255.839,956.658 
  "/>
<polyline clip-path="url(#clip7801)" style="stroke:#000000; stroke-width:4; stroke-opacity:1; fill:none" points="
  224.386,724.729 255.839,724.729 
  "/>
<polyline clip-path="url(#clip7801)" style="stroke:#000000; stroke-width:4; stroke-opacity:1; fill:none" points="
  224.386,492.8 255.839,492.8 
  "/>
<polyline clip-path="url(#clip7801)" style="stroke:#000000; stroke-width:4; stroke-opacity:1; fill:none" points="
  224.386,260.871 255.839,260.871 
  "/>
<g clip-path="url(#clip7801)">
<text style="fill:#000000; fill-opacity:1; font-family:Arial,Helvetica Neue,Helvetica,sans-serif; font-size:48px; text-anchor:middle;" transform="rotate(0, 2042.12, 1494.48)" x="2042.12" y="1494.48">0.1</text>
</g>
<g clip-path="url(#clip7801)">
<text style="fill:#000000; fill-opacity:1; font-family:Arial,Helvetica Neue,Helvetica,sans-serif; font-size:48px; text-anchor:middle;" transform="rotate(0, 1602.52, 1494.48)" x="1602.52" y="1494.48">0.2</text>
</g>
<g clip-path="url(#clip7801)">
<text style="fill:#000000; fill-opacity:1; font-family:Arial,Helvetica Neue,Helvetica,sans-serif; font-size:48px; text-anchor:middle;" transform="rotate(0, 1162.92, 1494.48)" x="1162.92" y="1494.48">0.3</text>
</g>
<g clip-path="url(#clip7801)">
<text style="fill:#000000; fill-opacity:1; font-family:Arial,Helvetica Neue,Helvetica,sans-serif; font-size:48px; text-anchor:middle;" transform="rotate(0, 723.328, 1494.48)" x="723.328" y="1494.48">0.4</text>
</g>
<g clip-path="url(#clip7801)">
<text style="fill:#000000; fill-opacity:1; font-family:Arial,Helvetica Neue,Helvetica,sans-serif; font-size:48px; text-anchor:middle;" transform="rotate(0, 283.732, 1494.48)" x="283.732" y="1494.48">0.5</text>
</g>
<g clip-path="url(#clip7801)">
<text style="fill:#000000; fill-opacity:1; font-family:Arial,Helvetica Neue,Helvetica,sans-serif; font-size:48px; text-anchor:end;" transform="rotate(0, 200.386, 1438.02)" x="200.386" y="1438.02">0.0</text>
</g>
<g clip-path="url(#clip7801)">
<text style="fill:#000000; fill-opacity:1; font-family:Arial,Helvetica Neue,Helvetica,sans-serif; font-size:48px; text-anchor:end;" transform="rotate(0, 200.386, 1206.09)" x="200.386" y="1206.09">0.1</text>
</g>
<g clip-path="url(#clip7801)">
<text style="fill:#000000; fill-opacity:1; font-family:Arial,Helvetica Neue,Helvetica,sans-serif; font-size:48px; text-anchor:end;" transform="rotate(0, 200.386, 974.158)" x="200.386" y="974.158">0.2</text>
</g>
<g clip-path="url(#clip7801)">
<text style="fill:#000000; fill-opacity:1; font-family:Arial,Helvetica Neue,Helvetica,sans-serif; font-size:48px; text-anchor:end;" transform="rotate(0, 200.386, 742.229)" x="200.386" y="742.229">0.3</text>
</g>
<g clip-path="url(#clip7801)">
<text style="fill:#000000; fill-opacity:1; font-family:Arial,Helvetica Neue,Helvetica,sans-serif; font-size:48px; text-anchor:end;" transform="rotate(0, 200.386, 510.3)" x="200.386" y="510.3">0.4</text>
</g>
<g clip-path="url(#clip7801)">
<text style="fill:#000000; fill-opacity:1; font-family:Arial,Helvetica Neue,Helvetica,sans-serif; font-size:48px; text-anchor:end;" transform="rotate(0, 200.386, 278.371)" x="200.386" y="278.371">0.5</text>
</g>
<g clip-path="url(#clip7801)">
<text style="fill:#000000; fill-opacity:1; font-family:Arial,Helvetica Neue,Helvetica,sans-serif; font-size:66px; text-anchor:middle;" transform="rotate(0, 1272.82, 1590.4)" x="1272.82" y="1590.4">Hypercube edge length</text>
</g>
<g clip-path="url(#clip7801)">
<text style="fill:#000000; fill-opacity:1; font-family:Arial,Helvetica Neue,Helvetica,sans-serif; font-size:66px; text-anchor:middle;" transform="rotate(-90, 57.6, 743.863)" x="57.6" y="743.863">Transfer entropy (bits)</text>
</g>
<polyline clip-path="url(#clip7803)" style="stroke:#000000; stroke-width:4; stroke-opacity:1; fill:none" points="
  2261.91,86.6754 2042.12,401.91 1822.32,975.594 1602.52,1044.47 1382.72,1371.58 1162.92,1123.52 943.126,864.579 723.328,1401.05 503.53,1396.5 283.732,1378.24 
  
  "/>
<polyline clip-path="url(#clip7803)" style="stroke:#ff0000; stroke-width:4; stroke-opacity:1; fill:none" points="
  2261.91,1164.52 2042.12,1264.93 1822.32,1327.14 1602.52,1376.08 1382.72,1217.28 1162.92,1351.93 943.126,1371.14 723.328,1065.73 503.53,1085.03 283.732,1264.99 
  
  "/>
<polygon clip-path="url(#clip7801)" points="
1784.57,312.204 2249.26,312.204 2249.26,130.764 1784.57,130.764 
  " fill="#ffffff" fill-rule="evenodd" fill-opacity="1"/>
<polyline clip-path="url(#clip7801)" style="stroke:#000000; stroke-width:4; stroke-opacity:1; fill:none" points="
  1784.57,312.204 2249.26,312.204 2249.26,130.764 1784.57,130.764 1784.57,312.204 
  "/>
<polyline clip-path="url(#clip7801)" style="stroke:#000000; stroke-width:4; stroke-opacity:1; fill:none" points="
  1808.57,191.244 1952.57,191.244 
  "/>
<g clip-path="url(#clip7801)">
<text style="fill:#000000; fill-opacity:1; font-family:Arial,Helvetica Neue,Helvetica,sans-serif; font-size:48px; text-anchor:start;" transform="rotate(0, 1976.57, 208.744)" x="1976.57" y="208.744">TE(x -&gt; y)</text>
</g>
<polyline clip-path="url(#clip7801)" style="stroke:#ff0000; stroke-width:4; stroke-opacity:1; fill:none" points="
  1808.57,251.724 1952.57,251.724 
  "/>
<g clip-path="url(#clip7801)">
<text style="fill:#000000; fill-opacity:1; font-family:Arial,Helvetica Neue,Helvetica,sans-serif; font-size:48px; text-anchor:start;" transform="rotate(0, 1976.57, 269.224)" x="1976.57" y="269.224">TE(y -&gt; x)</text>
</g>
</svg>
