<?xml version="1.0" encoding="utf-8"?>
<svg xmlns="http://www.w3.org/2000/svg" xmlns:xlink="http://www.w3.org/1999/xlink" width="600" height="400" viewBox="0 0 2400 1600">
<defs>
  <clipPath id="clip7900">
    <rect x="0" y="0" width="2000" height="2000"/>
  </clipPath>
</defs>
<defs>
  <clipPath id="clip7901">
    <rect x="0" y="0" width="2400" height="1600"/>
  </clipPath>
</defs>
<polygon clip-path="url(#clip7901)" points="
0,1600 2400,1600 2400,0 0,0 
  " fill="#ffffff" fill-rule="evenodd" fill-opacity="1"/>
<defs>
  <clipPath id="clip7902">
    <rect x="480" y="0" width="1681" height="1600"/>
  </clipPath>
</defs>
<polygon clip-path="url(#clip7901)" points="
224.386,1440.48 2321.26,1440.48 2321.26,47.2441 224.386,47.2441 
  " fill="#ffffff" fill-rule="evenodd" fill-opacity="1"/>
<defs>
  <clipPath id="clip7903">
    <rect x="224" y="47" width="2098" height="1394"/>
  </clipPath>
</defs>
<polyline clip-path="url(#clip7903)" style="stroke:#000000; stroke-width:2; stroke-opacity:0.1; fill:none" points="
  2070.48,1440.48 2070.48,47.2441 
  "/>
<polyline clip-path="url(#clip7903)" style="stroke:#000000; stroke-width:2; stroke-opacity:0.1; fill:none" points="
  1559.98,1440.48 1559.98,47.2441 
  "/>
<polyline clip-path="url(#clip7903)" style="stroke:#000000; stroke-width:2; stroke-opacity:0.1; fill:none" points="
  1049.48,1440.48 1049.48,47.2441 
  "/>
<polyline clip-path="url(#clip7903)" style="stroke:#000000; stroke-width:2; stroke-opacity:0.1; fill:none" points="
  538.981,1440.48 538.981,47.2441 
  "/>
<polyline clip-path="url(#clip7903)" style="stroke:#000000; stroke-width:2; stroke-opacity:0.1; fill:none" points="
  2321.26,1131.03 224.386,1131.03 
  "/>
<polyline clip-path="url(#clip7903)" style="stroke:#000000; stroke-width:2; stroke-opacity:0.1; fill:none" points="
  2321.26,808.085 224.386,808.085 
  "/>
<polyline clip-path="url(#clip7903)" style="stroke:#000000; stroke-width:2; stroke-opacity:0.1; fill:none" points="
  2321.26,485.144 224.386,485.144 
  "/>
<polyline clip-path="url(#clip7903)" style="stroke:#000000; stroke-width:2; stroke-opacity:0.1; fill:none" points="
  2321.26,162.203 224.386,162.203 
  "/>
<polyline clip-path="url(#clip7901)" style="stroke:#000000; stroke-width:4; stroke-opacity:1; fill:none" points="
  2321.26,1440.48 224.386,1440.48 
  "/>
<polyline clip-path="url(#clip7901)" style="stroke:#000000; stroke-width:4; stroke-opacity:1; fill:none" points="
  224.386,1440.48 224.386,47.2441 
  "/>
<polyline clip-path="url(#clip7901)" style="stroke:#000000; stroke-width:4; stroke-opacity:1; fill:none" points="
  2070.48,1440.48 2070.48,1419.58 
  "/>
<polyline clip-path="url(#clip7901)" style="stroke:#000000; stroke-width:4; stroke-opacity:1; fill:none" points="
  1559.98,1440.48 1559.98,1419.58 
  "/>
<polyline clip-path="url(#clip7901)" style="stroke:#000000; stroke-width:4; stroke-opacity:1; fill:none" points="
  1049.48,1440.48 1049.48,1419.58 
  "/>
<polyline clip-path="url(#clip7901)" style="stroke:#000000; stroke-width:4; stroke-opacity:1; fill:none" points="
  538.981,1440.48 538.981,1419.58 
  "/>
<polyline clip-path="url(#clip7901)" style="stroke:#000000; stroke-width:4; stroke-opacity:1; fill:none" points="
  224.386,1131.03 255.839,1131.03 
  "/>
<polyline clip-path="url(#clip7901)" style="stroke:#000000; stroke-width:4; stroke-opacity:1; fill:none" points="
  224.386,808.085 255.839,808.085 
  "/>
<polyline clip-path="url(#clip7901)" style="stroke:#000000; stroke-width:4; stroke-opacity:1; fill:none" points="
  224.386,485.144 255.839,485.144 
  "/>
<polyline clip-path="url(#clip7901)" style="stroke:#000000; stroke-width:4; stroke-opacity:1; fill:none" points="
  224.386,162.203 255.839,162.203 
  "/>
<g clip-path="url(#clip7901)">
<text style="fill:#000000; fill-opacity:1; font-family:Arial,Helvetica Neue,Helvetica,sans-serif; font-size:48px; text-anchor:middle;" transform="rotate(0, 2070.48, 1494.48)" x="2070.48" y="1494.48">0.1</text>
</g>
<g clip-path="url(#clip7901)">
<text style="fill:#000000; fill-opacity:1; font-family:Arial,Helvetica Neue,Helvetica,sans-serif; font-size:48px; text-anchor:middle;" transform="rotate(0, 1559.98, 1494.48)" x="1559.98" y="1494.48">0.2</text>
</g>
<g clip-path="url(#clip7901)">
<text style="fill:#000000; fill-opacity:1; font-family:Arial,Helvetica Neue,Helvetica,sans-serif; font-size:48px; text-anchor:middle;" transform="rotate(0, 1049.48, 1494.48)" x="1049.48" y="1494.48">0.3</text>
</g>
<g clip-path="url(#clip7901)">
<text style="fill:#000000; fill-opacity:1; font-family:Arial,Helvetica Neue,Helvetica,sans-serif; font-size:48px; text-anchor:middle;" transform="rotate(0, 538.981, 1494.48)" x="538.981" y="1494.48">0.4</text>
</g>
<g clip-path="url(#clip7901)">
<text style="fill:#000000; fill-opacity:1; font-family:Arial,Helvetica Neue,Helvetica,sans-serif; font-size:48px; text-anchor:end;" transform="rotate(0, 200.386, 1148.53)" x="200.386" y="1148.53">0.1</text>
</g>
<g clip-path="url(#clip7901)">
<text style="fill:#000000; fill-opacity:1; font-family:Arial,Helvetica Neue,Helvetica,sans-serif; font-size:48px; text-anchor:end;" transform="rotate(0, 200.386, 825.585)" x="200.386" y="825.585">0.2</text>
</g>
<g clip-path="url(#clip7901)">
<text style="fill:#000000; fill-opacity:1; font-family:Arial,Helvetica Neue,Helvetica,sans-serif; font-size:48px; text-anchor:end;" transform="rotate(0, 200.386, 502.644)" x="200.386" y="502.644">0.3</text>
</g>
<g clip-path="url(#clip7901)">
<text style="fill:#000000; fill-opacity:1; font-family:Arial,Helvetica Neue,Helvetica,sans-serif; font-size:48px; text-anchor:end;" transform="rotate(0, 200.386, 179.703)" x="200.386" y="179.703">0.4</text>
</g>
<g clip-path="url(#clip7901)">
<text style="fill:#000000; fill-opacity:1; font-family:Arial,Helvetica Neue,Helvetica,sans-serif; font-size:66px; text-anchor:middle;" transform="rotate(0, 1272.82, 1590.4)" x="1272.82" y="1590.4">Average hypercube edge length</text>
</g>
<g clip-path="url(#clip7901)">
<text style="fill:#000000; fill-opacity:1; font-family:Arial,Helvetica Neue,Helvetica,sans-serif; font-size:66px; text-anchor:middle;" transform="rotate(-90, 57.6, 743.863)" x="57.6" y="743.863">Transfer entropy (bits)</text>
</g>
<polyline clip-path="url(#clip7903)" style="stroke:#000000; stroke-width:4; stroke-opacity:1; fill:none" points="
  2261.91,86.6754 2042.12,573.542 1822.32,936.772 1602.52,957.912 1382.72,1264.16 1162.92,1008.39 943.126,859.059 723.328,1387.59 503.53,1113.93 283.732,717.467 
  
  "/>
<polyline clip-path="url(#clip7903)" style="stroke:#ff0000; stroke-width:4; stroke-opacity:1; fill:none" points="
  2261.91,1200.59 2042.12,1293.71 1822.32,1256.87 1602.52,1357.61 1382.72,1401.05 1162.92,1150.11 943.126,1306.86 723.328,1221.84 503.53,609.16 283.732,1069.85 
  
  "/>
<polygon clip-path="url(#clip7901)" points="
1784.57,312.204 2249.26,312.204 2249.26,130.764 1784.57,130.764 
  " fill="#ffffff" fill-rule="evenodd" fill-opacity="1"/>
<polyline clip-path="url(#clip7901)" style="stroke:#000000; stroke-width:4; stroke-opacity:1; fill:none" points="
  1784.57,312.204 2249.26,312.204 2249.26,130.764 1784.57,130.764 1784.57,312.204 
  "/>
<polyline clip-path="url(#clip7901)" style="stroke:#000000; stroke-width:4; stroke-opacity:1; fill:none" points="
  1808.57,191.244 1952.57,191.244 
  "/>
<g clip-path="url(#clip7901)">
<text style="fill:#000000; fill-opacity:1; font-family:Arial,Helvetica Neue,Helvetica,sans-serif; font-size:48px; text-anchor:start;" transform="rotate(0, 1976.57, 208.744)" x="1976.57" y="208.744">TE(x -&gt; y)</text>
</g>
<polyline clip-path="url(#clip7901)" style="stroke:#ff0000; stroke-width:4; stroke-opacity:1; fill:none" points="
  1808.57,251.724 1952.57,251.724 
  "/>
<g clip-path="url(#clip7901)">
<text style="fill:#000000; fill-opacity:1; font-family:Arial,Helvetica Neue,Helvetica,sans-serif; font-size:48px; text-anchor:start;" transform="rotate(0, 1976.57, 269.224)" x="1976.57" y="269.224">TE(y -&gt; x)</text>
</g>
</svg>
