<?xml version="1.0" encoding="utf-8"?>
<svg xmlns="http://www.w3.org/2000/svg" xmlns:xlink="http://www.w3.org/1999/xlink" width="600" height="400" viewBox="0 0 2400 1600">
<defs>
  <clipPath id="clip9600">
    <rect x="0" y="0" width="2400" height="1600"/>
  </clipPath>
</defs>
<path clip-path="url(#clip9600)" d="
M0 1600 L2400 1600 L2400 0 L0 0  Z
  " fill="#ffffff" fill-rule="evenodd" fill-opacity="1"/>
<defs>
  <clipPath id="clip9601">
    <rect x="480" y="0" width="1681" height="1600"/>
  </clipPath>
</defs>
<path clip-path="url(#clip9600)" d="
M243.864 656.547 L2352.76 656.547 L2352.76 47.2441 L243.864 47.2441  Z
  " fill="#ffffff" fill-rule="evenodd" fill-opacity="1"/>
<defs>
  <clipPath id="clip9602">
    <rect x="243" y="47" width="2110" height="610"/>
  </clipPath>
</defs>
<polyline clip-path="url(#clip9602)" style="stroke:#000000; stroke-width:2; stroke-opacity:0.1; fill:none" points="
  293.552,656.547 293.552,47.2441 
  "/>
<polyline clip-path="url(#clip9602)" style="stroke:#000000; stroke-width:2; stroke-opacity:0.1; fill:none" points="
  793.432,656.547 793.432,47.2441 
  "/>
<polyline clip-path="url(#clip9602)" style="stroke:#000000; stroke-width:2; stroke-opacity:0.1; fill:none" points="
  1293.31,656.547 1293.31,47.2441 
  "/>
<polyline clip-path="url(#clip9602)" style="stroke:#000000; stroke-width:2; stroke-opacity:0.1; fill:none" points="
  1793.19,656.547 1793.19,47.2441 
  "/>
<polyline clip-path="url(#clip9602)" style="stroke:#000000; stroke-width:2; stroke-opacity:0.1; fill:none" points="
  2293.07,656.547 2293.07,47.2441 
  "/>
<polyline clip-path="url(#clip9602)" style="stroke:#000000; stroke-width:2; stroke-opacity:0.1; fill:none" points="
  243.864,582.255 2352.76,582.255 
  "/>
<polyline clip-path="url(#clip9602)" style="stroke:#000000; stroke-width:2; stroke-opacity:0.1; fill:none" points="
  243.864,466.879 2352.76,466.879 
  "/>
<polyline clip-path="url(#clip9602)" style="stroke:#000000; stroke-width:2; stroke-opacity:0.1; fill:none" points="
  243.864,351.503 2352.76,351.503 
  "/>
<polyline clip-path="url(#clip9602)" style="stroke:#000000; stroke-width:2; stroke-opacity:0.1; fill:none" points="
  243.864,236.127 2352.76,236.127 
  "/>
<polyline clip-path="url(#clip9602)" style="stroke:#000000; stroke-width:2; stroke-opacity:0.1; fill:none" points="
  243.864,120.751 2352.76,120.751 
  "/>
<polyline clip-path="url(#clip9600)" style="stroke:#000000; stroke-width:4; stroke-opacity:1; fill:none" points="
  243.864,656.547 2352.76,656.547 
  "/>
<polyline clip-path="url(#clip9600)" style="stroke:#000000; stroke-width:4; stroke-opacity:1; fill:none" points="
  243.864,656.547 243.864,47.2441 
  "/>
<polyline clip-path="url(#clip9600)" style="stroke:#000000; stroke-width:4; stroke-opacity:1; fill:none" points="
  293.552,656.547 293.552,649.235 
  "/>
<polyline clip-path="url(#clip9600)" style="stroke:#000000; stroke-width:4; stroke-opacity:1; fill:none" points="
  793.432,656.547 793.432,649.235 
  "/>
<polyline clip-path="url(#clip9600)" style="stroke:#000000; stroke-width:4; stroke-opacity:1; fill:none" points="
  1293.31,656.547 1293.31,649.235 
  "/>
<polyline clip-path="url(#clip9600)" style="stroke:#000000; stroke-width:4; stroke-opacity:1; fill:none" points="
  1793.19,656.547 1793.19,649.235 
  "/>
<polyline clip-path="url(#clip9600)" style="stroke:#000000; stroke-width:4; stroke-opacity:1; fill:none" points="
  2293.07,656.547 2293.07,649.235 
  "/>
<polyline clip-path="url(#clip9600)" style="stroke:#000000; stroke-width:4; stroke-opacity:1; fill:none" points="
  243.864,582.255 269.171,582.255 
  "/>
<polyline clip-path="url(#clip9600)" style="stroke:#000000; stroke-width:4; stroke-opacity:1; fill:none" points="
  243.864,466.879 269.171,466.879 
  "/>
<polyline clip-path="url(#clip9600)" style="stroke:#000000; stroke-width:4; stroke-opacity:1; fill:none" points="
  243.864,351.503 269.171,351.503 
  "/>
<polyline clip-path="url(#clip9600)" style="stroke:#000000; stroke-width:4; stroke-opacity:1; fill:none" points="
  243.864,236.127 269.171,236.127 
  "/>
<polyline clip-path="url(#clip9600)" style="stroke:#000000; stroke-width:4; stroke-opacity:1; fill:none" points="
  243.864,120.751 269.171,120.751 
  "/>
<g clip-path="url(#clip9600)">
<text style="fill:#000000; fill-opacity:1; font-family:Arial,Helvetica Neue,Helvetica,sans-serif; font-size:48px; text-anchor:middle;" transform="rotate(0, 293.552, 710.547)" x="293.552" y="710.547">0</text>
</g>
<g clip-path="url(#clip9600)">
<text style="fill:#000000; fill-opacity:1; font-family:Arial,Helvetica Neue,Helvetica,sans-serif; font-size:48px; text-anchor:middle;" transform="rotate(0, 793.432, 710.547)" x="793.432" y="710.547">50</text>
</g>
<g clip-path="url(#clip9600)">
<text style="fill:#000000; fill-opacity:1; font-family:Arial,Helvetica Neue,Helvetica,sans-serif; font-size:48px; text-anchor:middle;" transform="rotate(0, 1293.31, 710.547)" x="1293.31" y="710.547">100</text>
</g>
<g clip-path="url(#clip9600)">
<text style="fill:#000000; fill-opacity:1; font-family:Arial,Helvetica Neue,Helvetica,sans-serif; font-size:48px; text-anchor:middle;" transform="rotate(0, 1793.19, 710.547)" x="1793.19" y="710.547">150</text>
</g>
<g clip-path="url(#clip9600)">
<text style="fill:#000000; fill-opacity:1; font-family:Arial,Helvetica Neue,Helvetica,sans-serif; font-size:48px; text-anchor:middle;" transform="rotate(0, 2293.07, 710.547)" x="2293.07" y="710.547">200</text>
</g>
<g clip-path="url(#clip9600)">
<text style="fill:#000000; fill-opacity:1; font-family:Arial,Helvetica Neue,Helvetica,sans-serif; font-size:48px; text-anchor:end;" transform="rotate(0, 219.864, 599.755)" x="219.864" y="599.755">-1.0</text>
</g>
<g clip-path="url(#clip9600)">
<text style="fill:#000000; fill-opacity:1; font-family:Arial,Helvetica Neue,Helvetica,sans-serif; font-size:48px; text-anchor:end;" transform="rotate(0, 219.864, 484.379)" x="219.864" y="484.379">-0.5</text>
</g>
<g clip-path="url(#clip9600)">
<text style="fill:#000000; fill-opacity:1; font-family:Arial,Helvetica Neue,Helvetica,sans-serif; font-size:48px; text-anchor:end;" transform="rotate(0, 219.864, 369.003)" x="219.864" y="369.003">0.0</text>
</g>
<g clip-path="url(#clip9600)">
<text style="fill:#000000; fill-opacity:1; font-family:Arial,Helvetica Neue,Helvetica,sans-serif; font-size:48px; text-anchor:end;" transform="rotate(0, 219.864, 253.627)" x="219.864" y="253.627">0.5</text>
</g>
<g clip-path="url(#clip9600)">
<text style="fill:#000000; fill-opacity:1; font-family:Arial,Helvetica Neue,Helvetica,sans-serif; font-size:48px; text-anchor:end;" transform="rotate(0, 219.864, 138.251)" x="219.864" y="138.251">1.0</text>
</g>
<g clip-path="url(#clip9600)">
<text style="fill:#000000; fill-opacity:1; font-family:Arial,Helvetica Neue,Helvetica,sans-serif; font-size:66px; text-anchor:middle;" transform="rotate(-90, 89.2861, 351.895)" x="89.2861" y="351.895">Value</text>
</g>
<polyline clip-path="url(#clip9602)" style="stroke:#000000; stroke-width:4; stroke-opacity:1; fill:none" points="
  303.55,101.536 313.547,184.879 323.545,144.088 333.543,181.547 343.54,153.722 353.538,269.621 363.535,259.396 373.533,333.412 383.531,437.77 393.528,480.514 
  403.526,424.761 413.523,549.172 423.521,559.988 433.518,607.481 443.516,556.106 453.514,597.463 463.511,561.49 473.509,492.146 483.506,526.34 493.504,480.829 
  503.502,463.429 513.499,327.477 523.497,326.161 533.494,284.24 543.492,196.042 553.49,147.014 563.487,211.371 573.485,74.8927 583.482,150.81 593.48,115.913 
  603.477,98.899 613.475,210.532 623.473,221.798 633.47,150.468 643.468,345.335 653.465,253.255 663.463,400.435 673.461,436.758 683.458,473.437 693.456,567.693 
  703.453,538.748 713.451,510.729 723.449,580.823 733.446,542.523 743.444,615.519 753.441,562.382 763.439,512.684 773.437,443.048 783.434,460.49 793.432,392.601 
  803.429,409.833 813.427,193.701 823.424,283.57 833.422,165.952 843.42,187.22 853.417,158.945 863.415,161.686 873.412,120.987 883.41,66.0618 893.408,201.339 
  903.405,185.473 913.403,180.983 923.4,196.368 933.398,393.748 943.396,263.411 953.393,463.42 963.391,402.868 973.388,481.375 983.386,626.018 993.384,546.768 
  1003.38,554.885 1013.38,553.391 1023.38,582.925 1033.37,607.828 1043.37,499.68 1053.37,536.819 1063.37,384.653 1073.36,473.384 1083.36,291.301 1093.36,394.933 
  1103.36,262.818 1113.35,178.016 1123.35,212.51 1133.35,64.4885 1143.35,200.478 1153.34,106.131 1163.34,67.1999 1173.34,215.502 1183.34,144.309 1193.34,166.485 
  1203.33,284.965 1213.33,208.407 1223.33,333.148 1233.33,402.197 1243.32,394.951 1253.32,491.29 1263.32,525.616 1273.32,525.404 1283.31,590.579 1293.31,587.926 
  1303.31,578.551 1313.31,627.332 1323.3,518.69 1333.3,533.812 1343.3,438.454 1353.3,401.189 1363.29,370.448 1373.29,396.825 1383.29,245.887 1393.29,214.504 
  1403.28,270.084 1413.28,130.027 1423.28,88.8042 1433.28,113.139 1443.28,126.766 1453.27,176.953 1463.27,179.793 1473.27,197.223 1483.27,219.48 1493.26,169.795 
  1503.26,368.477 1513.26,307.876 1523.26,451.066 1533.25,445.875 1543.25,474.218 1553.25,528.621 1563.25,607.146 1573.24,547.726 1583.24,614.659 1593.24,620.133 
  1603.24,531.202 1613.23,535.206 1623.23,480.328 1633.23,432.016 1643.23,369.846 1653.22,414.926 1663.22,301.77 1673.22,195.88 1683.22,279.766 1693.21,94.4409 
  1703.21,146.722 1713.21,204.956 1723.21,135.797 1733.21,74.4359 1743.2,96.1876 1753.2,179.051 1763.2,281.016 1773.2,224.996 1783.19,289.351 1793.19,321.412 
  1803.19,406.248 1813.19,404.664 1823.18,509.581 1833.18,508.441 1843.18,495.69 1853.18,639.302 1863.17,513.731 1873.17,612.572 1883.17,599.962 1893.17,550.63 
  1903.16,483.251 1913.16,473.966 1923.16,371.894 1933.16,418.609 1943.15,302.543 1953.15,317.55 1963.15,260.751 1973.15,135.257 1983.14,125.476 1993.14,183.158 
  2003.14,128.928 2013.14,120.447 2023.14,138.956 2033.13,160.507 2043.13,118.817 2053.13,255.628 2063.13,325.579 2073.12,236.245 2083.12,361.962 2093.12,450.078 
  2103.12,493.552 2113.11,483.968 2123.11,538 2133.11,578.978 2143.11,571.179 2153.1,597.822 2163.1,517.673 2173.1,632.906 2183.1,442.073 2193.09,506.211 
  2203.09,481.142 2213.09,394.731 2223.09,390.293 2233.08,254.842 2243.08,273.298 2253.08,129.261 2263.08,256.337 2273.08,117.749 2283.07,91.3849 2293.07,187.804 
  
  "/>
<path clip-path="url(#clip9600)" d="
M2003.31 251.724 L2280.76 251.724 L2280.76 130.764 L2003.31 130.764  Z
  " fill="#ffffff" fill-rule="evenodd" fill-opacity="1"/>
<polyline clip-path="url(#clip9600)" style="stroke:#000000; stroke-width:4; stroke-opacity:1; fill:none" points="
  2003.31,251.724 2280.76,251.724 2280.76,130.764 2003.31,130.764 2003.31,251.724 
  "/>
<polyline clip-path="url(#clip9600)" style="stroke:#000000; stroke-width:4; stroke-opacity:1; fill:none" points="
  2027.31,191.244 2171.31,191.244 
  "/>
<g clip-path="url(#clip9600)">
<text style="fill:#000000; fill-opacity:1; font-family:Arial,Helvetica Neue,Helvetica,sans-serif; font-size:48px; text-anchor:start;" transform="rotate(0, 2195.31, 208.744)" x="2195.31" y="208.744">ts</text>
</g>
<path clip-path="url(#clip9600)" d="
M243.864 1425.62 L2352.76 1425.62 L2352.76 816.316 L243.864 816.316  Z
  " fill="#ffffff" fill-rule="evenodd" fill-opacity="1"/>
<defs>
  <clipPath id="clip9603">
    <rect x="243" y="816" width="2110" height="610"/>
  </clipPath>
</defs>
<polyline clip-path="url(#clip9603)" style="stroke:#000000; stroke-width:2; stroke-opacity:0.1; fill:none" points="
  293.552,1425.62 293.552,816.316 
  "/>
<polyline clip-path="url(#clip9603)" style="stroke:#000000; stroke-width:2; stroke-opacity:0.1; fill:none" points="
  793.432,1425.62 793.432,816.316 
  "/>
<polyline clip-path="url(#clip9603)" style="stroke:#000000; stroke-width:2; stroke-opacity:0.1; fill:none" points="
  1293.31,1425.62 1293.31,816.316 
  "/>
<polyline clip-path="url(#clip9603)" style="stroke:#000000; stroke-width:2; stroke-opacity:0.1; fill:none" points="
  1793.19,1425.62 1793.19,816.316 
  "/>
<polyline clip-path="url(#clip9603)" style="stroke:#000000; stroke-width:2; stroke-opacity:0.1; fill:none" points="
  2293.07,1425.62 2293.07,816.316 
  "/>
<polyline clip-path="url(#clip9603)" style="stroke:#000000; stroke-width:2; stroke-opacity:0.1; fill:none" points="
  243.864,1351.33 2352.76,1351.33 
  "/>
<polyline clip-path="url(#clip9603)" style="stroke:#000000; stroke-width:2; stroke-opacity:0.1; fill:none" points="
  243.864,1235.95 2352.76,1235.95 
  "/>
<polyline clip-path="url(#clip9603)" style="stroke:#000000; stroke-width:2; stroke-opacity:0.1; fill:none" points="
  243.864,1120.58 2352.76,1120.58 
  "/>
<polyline clip-path="url(#clip9603)" style="stroke:#000000; stroke-width:2; stroke-opacity:0.1; fill:none" points="
  243.864,1005.2 2352.76,1005.2 
  "/>
<polyline clip-path="url(#clip9603)" style="stroke:#000000; stroke-width:2; stroke-opacity:0.1; fill:none" points="
  243.864,889.823 2352.76,889.823 
  "/>
<polyline clip-path="url(#clip9600)" style="stroke:#000000; stroke-width:4; stroke-opacity:1; fill:none" points="
  243.864,1425.62 2352.76,1425.62 
  "/>
<polyline clip-path="url(#clip9600)" style="stroke:#000000; stroke-width:4; stroke-opacity:1; fill:none" points="
  243.864,1425.62 243.864,816.316 
  "/>
<polyline clip-path="url(#clip9600)" style="stroke:#000000; stroke-width:4; stroke-opacity:1; fill:none" points="
  293.552,1425.62 293.552,1418.31 
  "/>
<polyline clip-path="url(#clip9600)" style="stroke:#000000; stroke-width:4; stroke-opacity:1; fill:none" points="
  793.432,1425.62 793.432,1418.31 
  "/>
<polyline clip-path="url(#clip9600)" style="stroke:#000000; stroke-width:4; stroke-opacity:1; fill:none" points="
  1293.31,1425.62 1293.31,1418.31 
  "/>
<polyline clip-path="url(#clip9600)" style="stroke:#000000; stroke-width:4; stroke-opacity:1; fill:none" points="
  1793.19,1425.62 1793.19,1418.31 
  "/>
<polyline clip-path="url(#clip9600)" style="stroke:#000000; stroke-width:4; stroke-opacity:1; fill:none" points="
  2293.07,1425.62 2293.07,1418.31 
  "/>
<polyline clip-path="url(#clip9600)" style="stroke:#000000; stroke-width:4; stroke-opacity:1; fill:none" points="
  243.864,1351.33 269.171,1351.33 
  "/>
<polyline clip-path="url(#clip9600)" style="stroke:#000000; stroke-width:4; stroke-opacity:1; fill:none" points="
  243.864,1235.95 269.171,1235.95 
  "/>
<polyline clip-path="url(#clip9600)" style="stroke:#000000; stroke-width:4; stroke-opacity:1; fill:none" points="
  243.864,1120.58 269.171,1120.58 
  "/>
<polyline clip-path="url(#clip9600)" style="stroke:#000000; stroke-width:4; stroke-opacity:1; fill:none" points="
  243.864,1005.2 269.171,1005.2 
  "/>
<polyline clip-path="url(#clip9600)" style="stroke:#000000; stroke-width:4; stroke-opacity:1; fill:none" points="
  243.864,889.823 269.171,889.823 
  "/>
<g clip-path="url(#clip9600)">
<text style="fill:#000000; fill-opacity:1; font-family:Arial,Helvetica Neue,Helvetica,sans-serif; font-size:48px; text-anchor:middle;" transform="rotate(0, 293.552, 1479.62)" x="293.552" y="1479.62">0</text>
</g>
<g clip-path="url(#clip9600)">
<text style="fill:#000000; fill-opacity:1; font-family:Arial,Helvetica Neue,Helvetica,sans-serif; font-size:48px; text-anchor:middle;" transform="rotate(0, 793.432, 1479.62)" x="793.432" y="1479.62">50</text>
</g>
<g clip-path="url(#clip9600)">
<text style="fill:#000000; fill-opacity:1; font-family:Arial,Helvetica Neue,Helvetica,sans-serif; font-size:48px; text-anchor:middle;" transform="rotate(0, 1293.31, 1479.62)" x="1293.31" y="1479.62">100</text>
</g>
<g clip-path="url(#clip9600)">
<text style="fill:#000000; fill-opacity:1; font-family:Arial,Helvetica Neue,Helvetica,sans-serif; font-size:48px; text-anchor:middle;" transform="rotate(0, 1793.19, 1479.62)" x="1793.19" y="1479.62">150</text>
</g>
<g clip-path="url(#clip9600)">
<text style="fill:#000000; fill-opacity:1; font-family:Arial,Helvetica Neue,Helvetica,sans-serif; font-size:48px; text-anchor:middle;" transform="rotate(0, 2293.07, 1479.62)" x="2293.07" y="1479.62">200</text>
</g>
<g clip-path="url(#clip9600)">
<text style="fill:#000000; fill-opacity:1; font-family:Arial,Helvetica Neue,Helvetica,sans-serif; font-size:48px; text-anchor:end;" transform="rotate(0, 219.864, 1368.83)" x="219.864" y="1368.83">-1.0</text>
</g>
<g clip-path="url(#clip9600)">
<text style="fill:#000000; fill-opacity:1; font-family:Arial,Helvetica Neue,Helvetica,sans-serif; font-size:48px; text-anchor:end;" transform="rotate(0, 219.864, 1253.45)" x="219.864" y="1253.45">-0.5</text>
</g>
<g clip-path="url(#clip9600)">
<text style="fill:#000000; fill-opacity:1; font-family:Arial,Helvetica Neue,Helvetica,sans-serif; font-size:48px; text-anchor:end;" transform="rotate(0, 219.864, 1138.08)" x="219.864" y="1138.08">0.0</text>
</g>
<g clip-path="url(#clip9600)">
<text style="fill:#000000; fill-opacity:1; font-family:Arial,Helvetica Neue,Helvetica,sans-serif; font-size:48px; text-anchor:end;" transform="rotate(0, 219.864, 1022.7)" x="219.864" y="1022.7">0.5</text>
</g>
<g clip-path="url(#clip9600)">
<text style="fill:#000000; fill-opacity:1; font-family:Arial,Helvetica Neue,Helvetica,sans-serif; font-size:48px; text-anchor:end;" transform="rotate(0, 219.864, 907.323)" x="219.864" y="907.323">1.0</text>
</g>
<g clip-path="url(#clip9600)">
<text style="fill:#000000; fill-opacity:1; font-family:Arial,Helvetica Neue,Helvetica,sans-serif; font-size:66px; text-anchor:middle;" transform="rotate(0, 1298.31, 1559.48)" x="1298.31" y="1559.48">Time step</text>
</g>
<g clip-path="url(#clip9600)">
<text style="fill:#000000; fill-opacity:1; font-family:Arial,Helvetica Neue,Helvetica,sans-serif; font-size:66px; text-anchor:middle;" transform="rotate(-90, 89.2861, 1120.97)" x="89.2861" y="1120.97">Value</text>
</g>
<polyline clip-path="url(#clip9603)" style="stroke:#009af9; stroke-width:4; stroke-opacity:1; fill:none" points="
  303.55,990.87 313.547,843.965 323.545,875.203 333.543,889.519 343.54,836.272 353.538,969.55 363.535,956.876 373.533,980.443 383.531,979.604 393.528,1096.55 
  403.526,1060.37 413.523,1243.04 423.521,1219.15 433.518,1278.65 443.516,1252.32 453.514,1348.05 463.511,1383.73 473.509,1329.06 483.506,1376.9 493.504,1352 
  503.502,1311.6 513.499,1250.45 523.497,1295.41 533.494,1094.65 543.492,1207.53 553.49,1070.84 563.487,1022.33 573.485,894.548 583.482,1029.82 593.48,916.086 
  603.477,904.329 613.475,887.889 623.473,843.508 633.47,898 643.468,919.882 653.465,974.028 663.463,1024.7 673.461,1053.31 683.458,1042.37 693.456,1165.9 
  703.453,1260.36 713.451,1212.12 723.449,1316.8 733.446,1319.7 743.444,1262.62 753.441,1389.21 763.439,1401.98 773.437,1261.22 783.434,1330.56 793.432,1287.76 
  803.429,1282.8 813.427,1205.83 823.424,1095.23 833.422,1140.97 843.42,1054.04 853.417,965.44 863.415,930.758 873.412,870.608 883.41,895.837 893.408,867.971 
  903.405,954.544 913.403,857.876 923.4,886.821 933.398,956.292 943.396,964.952 953.393,1131.03 963.391,1032.48 973.388,1201.09 983.386,1184 993.384,1232.5 
  1003.38,1249.4 1013.38,1307.82 1023.38,1357 1033.37,1336.76 1043.37,1349.9 1053.37,1331.45 1063.37,1395.09 1073.36,1170.26 1083.36,1323.96 1093.36,1214.95 
  1103.36,1137.55 1113.35,1163.8 1123.35,1050.09 1133.35,1038.69 1143.35,977.479 1153.34,899.099 1163.34,919.54 1173.34,948.123 1183.34,865.26 1193.34,913.381 
  1203.33,863.513 1213.33,1005.32 1223.33,1031.89 1233.33,950.055 1243.32,1052.64 1253.32,1114.41 1263.32,1162.82 1273.32,1243.29 1283.31,1220.14 1293.31,1318.24 
  1303.31,1242.46 1313.31,1396.4 1323.3,1315.84 1333.3,1384.59 1343.3,1294.69 1353.3,1275.28 1363.29,1281.76 1373.29,1297.69 1383.29,1161.67 1393.29,1211.15 
  1403.28,1048.84 1413.28,1025.41 1423.28,962.773 1433.28,984.574 1443.28,884.985 1453.27,935.557 1463.27,946.025 1473.27,833.56 1483.27,928.017 1493.26,988.552 
  1503.26,950.619 1513.26,970.411 1523.26,1102.48 1533.25,1058.42 1543.25,1159.36 1553.25,1193.83 1563.25,1249.9 1573.24,1277.51 1583.24,1229.56 1593.24,1304.28 
  1603.24,1376.55 1613.23,1325.18 1623.23,1359.65 1633.23,1268.75 1643.23,1300.27 1653.22,1171.94 1663.22,1307.07 1673.22,1164.02 1683.22,1171.27 1693.21,1138.92 
  1703.21,929.578 1713.21,1028.47 1723.21,981.582 1733.21,938.867 1743.2,952.229 1753.2,860.457 1763.2,922.794 1773.2,882.211 1783.19,947.088 1793.19,915.794 
  1803.19,1086.62 1813.19,1014.96 1823.18,1178.9 1833.18,1169.51 1843.18,1102.22 1853.18,1250.21 1863.17,1264.76 1873.17,1376.22 1883.17,1253.04 1893.17,1340.25 
  1903.16,1381.64 1913.16,1279.8 1923.16,1369.03 1933.16,1302.88 1943.15,1249.59 1953.15,1173.74 1963.15,1090.48 1973.15,1164 1983.14,983.576 1993.14,994.068 
  2003.14,953.951 2013.14,935.024 2023.14,948.865 2033.13,898.333 2043.13,890.059 2053.13,835.134 2063.13,908.028 2073.12,965.114 2083.12,913.16 2093.12,1039.16 
  2103.12,1071.62 2113.11,1175.32 2123.11,1139.52 2133.11,1242.51 2143.11,1286.75 2153.1,1232.49 2163.1,1347.62 2173.1,1366.53 2183.1,1305.89 2193.09,1408.37 
  2203.09,1322.46 2213.09,1294.48 2223.09,1366.89 2233.08,1206.84 2243.08,1187.68 2253.08,1153.73 2263.08,1023.91 2273.08,1076.95 2283.07,966.295 2293.07,904.869 
  
  "/>
<path clip-path="url(#clip9600)" d="
M1880.28 1020.8 L2280.76 1020.8 L2280.76 899.836 L1880.28 899.836  Z
  " fill="#ffffff" fill-rule="evenodd" fill-opacity="1"/>
<polyline clip-path="url(#clip9600)" style="stroke:#000000; stroke-width:4; stroke-opacity:1; fill:none" points="
  1880.28,1020.8 2280.76,1020.8 2280.76,899.836 1880.28,899.836 1880.28,1020.8 
  "/>
<polyline clip-path="url(#clip9600)" style="stroke:#009af9; stroke-width:4; stroke-opacity:1; fill:none" points="
  1904.28,960.316 2048.28,960.316 
  "/>
<g clip-path="url(#clip9600)">
<text style="fill:#000000; fill-opacity:1; font-family:Arial,Helvetica Neue,Helvetica,sans-serif; font-size:48px; text-anchor:start;" transform="rotate(0, 2072.28, 977.816)" x="2072.28" y="977.816">iaaft(ts)</text>
</g>
</svg>
