<?xml version="1.0" encoding="utf-8"?>
<svg xmlns="http://www.w3.org/2000/svg" xmlns:xlink="http://www.w3.org/1999/xlink" width="600" height="400" viewBox="0 0 2400 1600">
<defs>
  <clipPath id="clip590">
    <rect x="0" y="0" width="2400" height="1600"/>
  </clipPath>
</defs>
<path clip-path="url(#clip590)" d="
M0 1600 L2400 1600 L2400 0 L0 0  Z
  " fill="#ffffff" fill-rule="evenodd" fill-opacity="1"/>
<defs>
  <clipPath id="clip591">
    <rect x="480" y="0" width="1681" height="1600"/>
  </clipPath>
</defs>
<path clip-path="url(#clip590)" d="
M249.542 1423.18 L2352.76 1423.18 L2352.76 47.2441 L249.542 47.2441  Z
  " fill="#ffffff" fill-rule="evenodd" fill-opacity="1"/>
<defs>
  <clipPath id="clip592">
    <rect x="249" y="47" width="2104" height="1377"/>
  </clipPath>
</defs>
<polyline clip-path="url(#clip592)" style="stroke:#000000; stroke-linecap:butt; stroke-linejoin:round; stroke-width:2; stroke-opacity:0.1; fill:none" points="
  268.574,1423.18 268.574,47.2441 
  "/>
<polyline clip-path="url(#clip592)" style="stroke:#000000; stroke-linecap:butt; stroke-linejoin:round; stroke-width:2; stroke-opacity:0.1; fill:none" points="
  774.738,1423.18 774.738,47.2441 
  "/>
<polyline clip-path="url(#clip592)" style="stroke:#000000; stroke-linecap:butt; stroke-linejoin:round; stroke-width:2; stroke-opacity:0.1; fill:none" points="
  1280.9,1423.18 1280.9,47.2441 
  "/>
<polyline clip-path="url(#clip592)" style="stroke:#000000; stroke-linecap:butt; stroke-linejoin:round; stroke-width:2; stroke-opacity:0.1; fill:none" points="
  1787.07,1423.18 1787.07,47.2441 
  "/>
<polyline clip-path="url(#clip592)" style="stroke:#000000; stroke-linecap:butt; stroke-linejoin:round; stroke-width:2; stroke-opacity:0.1; fill:none" points="
  2293.23,1423.18 2293.23,47.2441 
  "/>
<polyline clip-path="url(#clip590)" style="stroke:#000000; stroke-linecap:butt; stroke-linejoin:round; stroke-width:4; stroke-opacity:1; fill:none" points="
  249.542,1423.18 2352.76,1423.18 
  "/>
<polyline clip-path="url(#clip590)" style="stroke:#000000; stroke-linecap:butt; stroke-linejoin:round; stroke-width:4; stroke-opacity:1; fill:none" points="
  268.574,1423.18 268.574,1404.28 
  "/>
<polyline clip-path="url(#clip590)" style="stroke:#000000; stroke-linecap:butt; stroke-linejoin:round; stroke-width:4; stroke-opacity:1; fill:none" points="
  774.738,1423.18 774.738,1404.28 
  "/>
<polyline clip-path="url(#clip590)" style="stroke:#000000; stroke-linecap:butt; stroke-linejoin:round; stroke-width:4; stroke-opacity:1; fill:none" points="
  1280.9,1423.18 1280.9,1404.28 
  "/>
<polyline clip-path="url(#clip590)" style="stroke:#000000; stroke-linecap:butt; stroke-linejoin:round; stroke-width:4; stroke-opacity:1; fill:none" points="
  1787.07,1423.18 1787.07,1404.28 
  "/>
<polyline clip-path="url(#clip590)" style="stroke:#000000; stroke-linecap:butt; stroke-linejoin:round; stroke-width:4; stroke-opacity:1; fill:none" points="
  2293.23,1423.18 2293.23,1404.28 
  "/>
<path clip-path="url(#clip590)" d="M230.877 1454.1 Q227.266 1454.1 225.437 1457.66 Q223.632 1461.2 223.632 1468.33 Q223.632 1475.44 225.437 1479.01 Q227.266 1482.55 230.877 1482.55 Q234.511 1482.55 236.317 1479.01 Q238.146 1475.44 238.146 1468.33 Q238.146 1461.2 236.317 1457.66 Q234.511 1454.1 230.877 1454.1 M230.877 1450.39 Q236.687 1450.39 239.743 1455 Q242.822 1459.58 242.822 1468.33 Q242.822 1477.06 239.743 1481.67 Q236.687 1486.25 230.877 1486.25 Q225.067 1486.25 221.988 1481.67 Q218.933 1477.06 218.933 1468.33 Q218.933 1459.58 221.988 1455 Q225.067 1450.39 230.877 1450.39 Z" fill="#000000" fill-rule="evenodd" fill-opacity="1" /><path clip-path="url(#clip590)" d="M251.039 1479.7 L255.923 1479.7 L255.923 1485.58 L251.039 1485.58 L251.039 1479.7 Z" fill="#000000" fill-rule="evenodd" fill-opacity="1" /><path clip-path="url(#clip590)" d="M276.108 1454.1 Q272.497 1454.1 270.669 1457.66 Q268.863 1461.2 268.863 1468.33 Q268.863 1475.44 270.669 1479.01 Q272.497 1482.55 276.108 1482.55 Q279.743 1482.55 281.548 1479.01 Q283.377 1475.44 283.377 1468.33 Q283.377 1461.2 281.548 1457.66 Q279.743 1454.1 276.108 1454.1 M276.108 1450.39 Q281.919 1450.39 284.974 1455 Q288.053 1459.58 288.053 1468.33 Q288.053 1477.06 284.974 1481.67 Q281.919 1486.25 276.108 1486.25 Q270.298 1486.25 267.22 1481.67 Q264.164 1477.06 264.164 1468.33 Q264.164 1459.58 267.22 1455 Q270.298 1450.39 276.108 1450.39 Z" fill="#000000" fill-rule="evenodd" fill-opacity="1" /><path clip-path="url(#clip590)" d="M306.27 1454.1 Q302.659 1454.1 300.831 1457.66 Q299.025 1461.2 299.025 1468.33 Q299.025 1475.44 300.831 1479.01 Q302.659 1482.55 306.27 1482.55 Q309.905 1482.55 311.71 1479.01 Q313.539 1475.44 313.539 1468.33 Q313.539 1461.2 311.71 1457.66 Q309.905 1454.1 306.27 1454.1 M306.27 1450.39 Q312.081 1450.39 315.136 1455 Q318.215 1459.58 318.215 1468.33 Q318.215 1477.06 315.136 1481.67 Q312.081 1486.25 306.27 1486.25 Q300.46 1486.25 297.382 1481.67 Q294.326 1477.06 294.326 1468.33 Q294.326 1459.58 297.382 1455 Q300.46 1450.39 306.27 1450.39 Z" fill="#000000" fill-rule="evenodd" fill-opacity="1" /><path clip-path="url(#clip590)" d="M737.539 1454.1 Q733.928 1454.1 732.099 1457.66 Q730.294 1461.2 730.294 1468.33 Q730.294 1475.44 732.099 1479.01 Q733.928 1482.55 737.539 1482.55 Q741.173 1482.55 742.979 1479.01 Q744.808 1475.44 744.808 1468.33 Q744.808 1461.2 742.979 1457.66 Q741.173 1454.1 737.539 1454.1 M737.539 1450.39 Q743.349 1450.39 746.405 1455 Q749.484 1459.58 749.484 1468.33 Q749.484 1477.06 746.405 1481.67 Q743.349 1486.25 737.539 1486.25 Q731.729 1486.25 728.65 1481.67 Q725.595 1477.06 725.595 1468.33 Q725.595 1459.58 728.65 1455 Q731.729 1450.39 737.539 1450.39 Z" fill="#000000" fill-rule="evenodd" fill-opacity="1" /><path clip-path="url(#clip590)" d="M757.701 1479.7 L762.585 1479.7 L762.585 1485.58 L757.701 1485.58 L757.701 1479.7 Z" fill="#000000" fill-rule="evenodd" fill-opacity="1" /><path clip-path="url(#clip590)" d="M776.798 1481.64 L793.118 1481.64 L793.118 1485.58 L771.173 1485.58 L771.173 1481.64 Q773.835 1478.89 778.419 1474.26 Q783.025 1469.61 784.206 1468.27 Q786.451 1465.74 787.331 1464.01 Q788.233 1462.25 788.233 1460.56 Q788.233 1457.8 786.289 1456.07 Q784.368 1454.33 781.266 1454.33 Q779.067 1454.33 776.613 1455.09 Q774.183 1455.86 771.405 1457.41 L771.405 1452.69 Q774.229 1451.55 776.683 1450.97 Q779.136 1450.39 781.173 1450.39 Q786.544 1450.39 789.738 1453.08 Q792.932 1455.77 792.932 1460.26 Q792.932 1462.39 792.122 1464.31 Q791.335 1466.2 789.229 1468.8 Q788.65 1469.47 785.548 1472.69 Q782.446 1475.88 776.798 1481.64 Z" fill="#000000" fill-rule="evenodd" fill-opacity="1" /><path clip-path="url(#clip590)" d="M802.979 1451.02 L821.335 1451.02 L821.335 1454.96 L807.261 1454.96 L807.261 1463.43 Q808.28 1463.08 809.298 1462.92 Q810.317 1462.73 811.335 1462.73 Q817.122 1462.73 820.502 1465.9 Q823.881 1469.08 823.881 1474.49 Q823.881 1480.07 820.409 1483.17 Q816.937 1486.25 810.618 1486.25 Q808.442 1486.25 806.173 1485.88 Q803.928 1485.51 801.52 1484.77 L801.52 1480.07 Q803.604 1481.2 805.826 1481.76 Q808.048 1482.32 810.525 1482.32 Q814.53 1482.32 816.868 1480.21 Q819.205 1478.1 819.205 1474.49 Q819.205 1470.88 816.868 1468.77 Q814.53 1466.67 810.525 1466.67 Q808.65 1466.67 806.775 1467.08 Q804.923 1467.5 802.979 1468.38 L802.979 1451.02 Z" fill="#000000" fill-rule="evenodd" fill-opacity="1" /><path clip-path="url(#clip590)" d="M1243.21 1454.1 Q1239.59 1454.1 1237.77 1457.66 Q1235.96 1461.2 1235.96 1468.33 Q1235.96 1475.44 1237.77 1479.01 Q1239.59 1482.55 1243.21 1482.55 Q1246.84 1482.55 1248.65 1479.01 Q1250.47 1475.44 1250.47 1468.33 Q1250.47 1461.2 1248.65 1457.66 Q1246.84 1454.1 1243.21 1454.1 M1243.21 1450.39 Q1249.02 1450.39 1252.07 1455 Q1255.15 1459.58 1255.15 1468.33 Q1255.15 1477.06 1252.07 1481.67 Q1249.02 1486.25 1243.21 1486.25 Q1237.4 1486.25 1234.32 1481.67 Q1231.26 1477.06 1231.26 1468.33 Q1231.26 1459.58 1234.32 1455 Q1237.4 1450.39 1243.21 1450.39 Z" fill="#000000" fill-rule="evenodd" fill-opacity="1" /><path clip-path="url(#clip590)" d="M1263.37 1479.7 L1268.25 1479.7 L1268.25 1485.58 L1263.37 1485.58 L1263.37 1479.7 Z" fill="#000000" fill-rule="evenodd" fill-opacity="1" /><path clip-path="url(#clip590)" d="M1278.48 1451.02 L1296.84 1451.02 L1296.84 1454.96 L1282.77 1454.96 L1282.77 1463.43 Q1283.78 1463.08 1284.8 1462.92 Q1285.82 1462.73 1286.84 1462.73 Q1292.63 1462.73 1296.01 1465.9 Q1299.39 1469.08 1299.39 1474.49 Q1299.39 1480.07 1295.91 1483.17 Q1292.44 1486.25 1286.12 1486.25 Q1283.95 1486.25 1281.68 1485.88 Q1279.43 1485.51 1277.03 1484.77 L1277.03 1480.07 Q1279.11 1481.2 1281.33 1481.76 Q1283.55 1482.32 1286.03 1482.32 Q1290.03 1482.32 1292.37 1480.21 Q1294.71 1478.1 1294.71 1474.49 Q1294.71 1470.88 1292.37 1468.77 Q1290.03 1466.67 1286.03 1466.67 Q1284.15 1466.67 1282.28 1467.08 Q1280.43 1467.5 1278.48 1468.38 L1278.48 1451.02 Z" fill="#000000" fill-rule="evenodd" fill-opacity="1" /><path clip-path="url(#clip590)" d="M1318.6 1454.1 Q1314.99 1454.1 1313.16 1457.66 Q1311.35 1461.2 1311.35 1468.33 Q1311.35 1475.44 1313.16 1479.01 Q1314.99 1482.55 1318.6 1482.55 Q1322.23 1482.55 1324.04 1479.01 Q1325.87 1475.44 1325.87 1468.33 Q1325.87 1461.2 1324.04 1457.66 Q1322.23 1454.1 1318.6 1454.1 M1318.6 1450.39 Q1324.41 1450.39 1327.46 1455 Q1330.54 1459.58 1330.54 1468.33 Q1330.54 1477.06 1327.46 1481.67 Q1324.41 1486.25 1318.6 1486.25 Q1312.79 1486.25 1309.71 1481.67 Q1306.65 1477.06 1306.65 1468.33 Q1306.65 1459.58 1309.71 1455 Q1312.79 1450.39 1318.6 1450.39 Z" fill="#000000" fill-rule="evenodd" fill-opacity="1" /><path clip-path="url(#clip590)" d="M1749.87 1454.1 Q1746.26 1454.1 1744.43 1457.66 Q1742.62 1461.2 1742.62 1468.33 Q1742.62 1475.44 1744.43 1479.01 Q1746.26 1482.55 1749.87 1482.55 Q1753.5 1482.55 1755.31 1479.01 Q1757.14 1475.44 1757.14 1468.33 Q1757.14 1461.2 1755.31 1457.66 Q1753.5 1454.1 1749.87 1454.1 M1749.87 1450.39 Q1755.68 1450.39 1758.73 1455 Q1761.81 1459.58 1761.81 1468.33 Q1761.81 1477.06 1758.73 1481.67 Q1755.68 1486.25 1749.87 1486.25 Q1744.06 1486.25 1740.98 1481.67 Q1737.92 1477.06 1737.92 1468.33 Q1737.92 1459.58 1740.98 1455 Q1744.06 1450.39 1749.87 1450.39 Z" fill="#000000" fill-rule="evenodd" fill-opacity="1" /><path clip-path="url(#clip590)" d="M1770.03 1479.7 L1774.91 1479.7 L1774.91 1485.58 L1770.03 1485.58 L1770.03 1479.7 Z" fill="#000000" fill-rule="evenodd" fill-opacity="1" /><path clip-path="url(#clip590)" d="M1783.92 1451.02 L1806.14 1451.02 L1806.14 1453.01 L1793.59 1485.58 L1788.71 1485.58 L1800.52 1454.96 L1783.92 1454.96 L1783.92 1451.02 Z" fill="#000000" fill-rule="evenodd" fill-opacity="1" /><path clip-path="url(#clip590)" d="M1815.31 1451.02 L1833.66 1451.02 L1833.66 1454.96 L1819.59 1454.96 L1819.59 1463.43 Q1820.61 1463.08 1821.63 1462.92 Q1822.65 1462.73 1823.66 1462.73 Q1829.45 1462.73 1832.83 1465.9 Q1836.21 1469.08 1836.21 1474.49 Q1836.21 1480.07 1832.74 1483.17 Q1829.27 1486.25 1822.95 1486.25 Q1820.77 1486.25 1818.5 1485.88 Q1816.26 1485.51 1813.85 1484.77 L1813.85 1480.07 Q1815.93 1481.2 1818.15 1481.76 Q1820.38 1482.32 1822.85 1482.32 Q1826.86 1482.32 1829.2 1480.21 Q1831.53 1478.1 1831.53 1474.49 Q1831.53 1470.88 1829.2 1468.77 Q1826.86 1466.67 1822.85 1466.67 Q1820.98 1466.67 1819.1 1467.08 Q1817.25 1467.5 1815.31 1468.38 L1815.31 1451.02 Z" fill="#000000" fill-rule="evenodd" fill-opacity="1" /><path clip-path="url(#clip590)" d="M2245.3 1481.64 L2252.94 1481.64 L2252.94 1455.28 L2244.63 1456.95 L2244.63 1452.69 L2252.9 1451.02 L2257.57 1451.02 L2257.57 1481.64 L2265.21 1481.64 L2265.21 1485.58 L2245.3 1485.58 L2245.3 1481.64 Z" fill="#000000" fill-rule="evenodd" fill-opacity="1" /><path clip-path="url(#clip590)" d="M2274.65 1479.7 L2279.54 1479.7 L2279.54 1485.58 L2274.65 1485.58 L2274.65 1479.7 Z" fill="#000000" fill-rule="evenodd" fill-opacity="1" /><path clip-path="url(#clip590)" d="M2299.72 1454.1 Q2296.11 1454.1 2294.28 1457.66 Q2292.48 1461.2 2292.48 1468.33 Q2292.48 1475.44 2294.28 1479.01 Q2296.11 1482.55 2299.72 1482.55 Q2303.36 1482.55 2305.16 1479.01 Q2306.99 1475.44 2306.99 1468.33 Q2306.99 1461.2 2305.16 1457.66 Q2303.36 1454.1 2299.72 1454.1 M2299.72 1450.39 Q2305.53 1450.39 2308.59 1455 Q2311.67 1459.58 2311.67 1468.33 Q2311.67 1477.06 2308.59 1481.67 Q2305.53 1486.25 2299.72 1486.25 Q2293.91 1486.25 2290.84 1481.67 Q2287.78 1477.06 2287.78 1468.33 Q2287.78 1459.58 2290.84 1455 Q2293.91 1450.39 2299.72 1450.39 Z" fill="#000000" fill-rule="evenodd" fill-opacity="1" /><path clip-path="url(#clip590)" d="M2329.89 1454.1 Q2326.27 1454.1 2324.45 1457.66 Q2322.64 1461.2 2322.64 1468.33 Q2322.64 1475.44 2324.45 1479.01 Q2326.27 1482.55 2329.89 1482.55 Q2333.52 1482.55 2335.33 1479.01 Q2337.15 1475.44 2337.15 1468.33 Q2337.15 1461.2 2335.33 1457.66 Q2333.52 1454.1 2329.89 1454.1 M2329.89 1450.39 Q2335.7 1450.39 2338.75 1455 Q2341.83 1459.58 2341.83 1468.33 Q2341.83 1477.06 2338.75 1481.67 Q2335.7 1486.25 2329.89 1486.25 Q2324.08 1486.25 2321 1481.67 Q2317.94 1477.06 2317.94 1468.33 Q2317.94 1459.58 2321 1455 Q2324.08 1450.39 2329.89 1450.39 Z" fill="#000000" fill-rule="evenodd" fill-opacity="1" /><path clip-path="url(#clip590)" d="M1222.33 1548.76 L1222.33 1551.62 L1195.4 1551.62 Q1195.78 1557.67 1199.03 1560.85 Q1202.31 1564 1208.13 1564 Q1211.5 1564 1214.65 1563.17 Q1217.84 1562.35 1220.96 1560.69 L1220.96 1566.23 Q1217.81 1567.57 1214.5 1568.27 Q1211.19 1568.97 1207.78 1568.97 Q1199.25 1568.97 1194.25 1564 Q1189.29 1559.04 1189.29 1550.57 Q1189.29 1541.82 1194 1536.69 Q1198.74 1531.54 1206.76 1531.54 Q1213.95 1531.54 1218.12 1536.18 Q1222.33 1540.8 1222.33 1548.76 M1216.47 1547.04 Q1216.41 1542.23 1213.76 1539.37 Q1211.15 1536.5 1206.83 1536.5 Q1201.92 1536.5 1198.96 1539.27 Q1196.04 1542.04 1195.59 1547.07 L1216.47 1547.04 Z" fill="#000000" fill-rule="evenodd" fill-opacity="1" /><path clip-path="url(#clip590)" d="M1237.6 1562.7 L1237.6 1581.6 L1231.72 1581.6 L1231.72 1532.4 L1237.6 1532.4 L1237.6 1537.81 Q1239.45 1534.62 1242.25 1533.1 Q1245.08 1531.54 1249 1531.54 Q1255.49 1531.54 1259.53 1536.69 Q1263.61 1541.85 1263.61 1550.25 Q1263.61 1558.65 1259.53 1563.81 Q1255.49 1568.97 1249 1568.97 Q1245.08 1568.97 1242.25 1567.44 Q1239.45 1565.88 1237.6 1562.7 M1257.53 1550.25 Q1257.53 1543.79 1254.85 1540.13 Q1252.21 1536.44 1247.57 1536.44 Q1242.92 1536.44 1240.25 1540.13 Q1237.6 1543.79 1237.6 1550.25 Q1237.6 1556.71 1240.25 1560.4 Q1242.92 1564.07 1247.57 1564.07 Q1252.21 1564.07 1254.85 1560.4 Q1257.53 1556.71 1257.53 1550.25 Z" fill="#000000" fill-rule="evenodd" fill-opacity="1" /><path clip-path="url(#clip590)" d="M1296.04 1533.45 L1296.04 1538.98 Q1293.56 1537.71 1290.88 1537.07 Q1288.21 1536.44 1285.35 1536.44 Q1280.99 1536.44 1278.79 1537.77 Q1276.63 1539.11 1276.63 1541.79 Q1276.63 1543.82 1278.18 1545 Q1279.74 1546.15 1284.45 1547.2 L1286.46 1547.64 Q1292.7 1548.98 1295.31 1551.43 Q1297.95 1553.85 1297.95 1558.21 Q1297.95 1563.17 1294 1566.07 Q1290.09 1568.97 1283.21 1568.97 Q1280.35 1568.97 1277.23 1568.39 Q1274.14 1567.85 1270.7 1566.74 L1270.7 1560.69 Q1273.95 1562.38 1277.1 1563.24 Q1280.25 1564.07 1283.34 1564.07 Q1287.48 1564.07 1289.71 1562.66 Q1291.93 1561.23 1291.93 1558.65 Q1291.93 1556.27 1290.31 1554.99 Q1288.72 1553.72 1283.28 1552.54 L1281.24 1552.07 Q1275.8 1550.92 1273.38 1548.56 Q1270.96 1546.18 1270.96 1542.04 Q1270.96 1537.01 1274.52 1534.27 Q1278.09 1531.54 1284.65 1531.54 Q1287.89 1531.54 1290.76 1532.01 Q1293.62 1532.49 1296.04 1533.45 Z" fill="#000000" fill-rule="evenodd" fill-opacity="1" /><path clip-path="url(#clip590)" d="M1307.28 1532.4 L1313.13 1532.4 L1313.13 1568.04 L1307.28 1568.04 L1307.28 1532.4 M1307.28 1518.52 L1313.13 1518.52 L1313.13 1525.93 L1307.28 1525.93 L1307.28 1518.52 Z" fill="#000000" fill-rule="evenodd" fill-opacity="1" /><path clip-path="url(#clip590)" d="M1325.39 1518.52 L1331.24 1518.52 L1331.24 1568.04 L1325.39 1568.04 L1325.39 1518.52 Z" fill="#000000" fill-rule="evenodd" fill-opacity="1" /><path clip-path="url(#clip590)" d="M1357.31 1536.5 Q1352.6 1536.5 1349.86 1540.19 Q1347.13 1543.85 1347.13 1550.25 Q1347.13 1556.65 1349.83 1560.34 Q1352.57 1564 1357.31 1564 Q1361.99 1564 1364.73 1560.31 Q1367.46 1556.62 1367.46 1550.25 Q1367.46 1543.92 1364.73 1540.23 Q1361.99 1536.5 1357.31 1536.5 M1357.31 1531.54 Q1364.95 1531.54 1369.31 1536.5 Q1373.67 1541.47 1373.67 1550.25 Q1373.67 1559 1369.31 1564 Q1364.95 1568.97 1357.31 1568.97 Q1349.64 1568.97 1345.28 1564 Q1340.95 1559 1340.95 1550.25 Q1340.95 1541.47 1345.28 1536.5 Q1349.64 1531.54 1357.31 1531.54 Z" fill="#000000" fill-rule="evenodd" fill-opacity="1" /><path clip-path="url(#clip590)" d="M1413.01 1546.53 L1413.01 1568.04 L1407.15 1568.04 L1407.15 1546.72 Q1407.15 1541.66 1405.18 1539.14 Q1403.21 1536.63 1399.26 1536.63 Q1394.52 1536.63 1391.78 1539.65 Q1389.04 1542.68 1389.04 1547.9 L1389.04 1568.04 L1383.16 1568.04 L1383.16 1532.4 L1389.04 1532.4 L1389.04 1537.93 Q1391.14 1534.72 1393.98 1533.13 Q1396.84 1531.54 1400.57 1531.54 Q1406.71 1531.54 1409.86 1535.36 Q1413.01 1539.14 1413.01 1546.53 Z" fill="#000000" fill-rule="evenodd" fill-opacity="1" /><polyline clip-path="url(#clip592)" style="stroke:#000000; stroke-linecap:butt; stroke-linejoin:round; stroke-width:2; stroke-opacity:0.1; fill:none" points="
  249.542,1384.24 2352.76,1384.24 
  "/>
<polyline clip-path="url(#clip592)" style="stroke:#000000; stroke-linecap:butt; stroke-linejoin:round; stroke-width:2; stroke-opacity:0.1; fill:none" points="
  249.542,1059.73 2352.76,1059.73 
  "/>
<polyline clip-path="url(#clip592)" style="stroke:#000000; stroke-linecap:butt; stroke-linejoin:round; stroke-width:2; stroke-opacity:0.1; fill:none" points="
  249.542,735.212 2352.76,735.212 
  "/>
<polyline clip-path="url(#clip592)" style="stroke:#000000; stroke-linecap:butt; stroke-linejoin:round; stroke-width:2; stroke-opacity:0.1; fill:none" points="
  249.542,410.699 2352.76,410.699 
  "/>
<polyline clip-path="url(#clip592)" style="stroke:#000000; stroke-linecap:butt; stroke-linejoin:round; stroke-width:2; stroke-opacity:0.1; fill:none" points="
  249.542,86.1857 2352.76,86.1857 
  "/>
<polyline clip-path="url(#clip590)" style="stroke:#000000; stroke-linecap:butt; stroke-linejoin:round; stroke-width:4; stroke-opacity:1; fill:none" points="
  249.542,1423.18 249.542,47.2441 
  "/>
<polyline clip-path="url(#clip590)" style="stroke:#000000; stroke-linecap:butt; stroke-linejoin:round; stroke-width:4; stroke-opacity:1; fill:none" points="
  249.542,1384.24 268.44,1384.24 
  "/>
<polyline clip-path="url(#clip590)" style="stroke:#000000; stroke-linecap:butt; stroke-linejoin:round; stroke-width:4; stroke-opacity:1; fill:none" points="
  249.542,1059.73 268.44,1059.73 
  "/>
<polyline clip-path="url(#clip590)" style="stroke:#000000; stroke-linecap:butt; stroke-linejoin:round; stroke-width:4; stroke-opacity:1; fill:none" points="
  249.542,735.212 268.44,735.212 
  "/>
<polyline clip-path="url(#clip590)" style="stroke:#000000; stroke-linecap:butt; stroke-linejoin:round; stroke-width:4; stroke-opacity:1; fill:none" points="
  249.542,410.699 268.44,410.699 
  "/>
<polyline clip-path="url(#clip590)" style="stroke:#000000; stroke-linecap:butt; stroke-linejoin:round; stroke-width:4; stroke-opacity:1; fill:none" points="
  249.542,86.1857 268.44,86.1857 
  "/>
<path clip-path="url(#clip590)" d="M126.205 1370.04 Q122.593 1370.04 120.765 1373.6 Q118.959 1377.14 118.959 1384.27 Q118.959 1391.38 120.765 1394.94 Q122.593 1398.49 126.205 1398.49 Q129.839 1398.49 131.644 1394.94 Q133.473 1391.38 133.473 1384.27 Q133.473 1377.14 131.644 1373.6 Q129.839 1370.04 126.205 1370.04 M126.205 1366.33 Q132.015 1366.33 135.07 1370.94 Q138.149 1375.52 138.149 1384.27 Q138.149 1393 135.07 1397.61 Q132.015 1402.19 126.205 1402.19 Q120.394 1402.19 117.316 1397.61 Q114.26 1393 114.26 1384.27 Q114.26 1375.52 117.316 1370.94 Q120.394 1366.33 126.205 1366.33 Z" fill="#000000" fill-rule="evenodd" fill-opacity="1" /><path clip-path="url(#clip590)" d="M146.366 1395.64 L151.251 1395.64 L151.251 1401.52 L146.366 1401.52 L146.366 1395.64 Z" fill="#000000" fill-rule="evenodd" fill-opacity="1" /><path clip-path="url(#clip590)" d="M171.436 1370.04 Q167.825 1370.04 165.996 1373.6 Q164.19 1377.14 164.19 1384.27 Q164.19 1391.38 165.996 1394.94 Q167.825 1398.49 171.436 1398.49 Q175.07 1398.49 176.876 1394.94 Q178.704 1391.38 178.704 1384.27 Q178.704 1377.14 176.876 1373.6 Q175.07 1370.04 171.436 1370.04 M171.436 1366.33 Q177.246 1366.33 180.301 1370.94 Q183.38 1375.52 183.38 1384.27 Q183.38 1393 180.301 1397.61 Q177.246 1402.19 171.436 1402.19 Q165.626 1402.19 162.547 1397.61 Q159.491 1393 159.491 1384.27 Q159.491 1375.52 162.547 1370.94 Q165.626 1366.33 171.436 1366.33 Z" fill="#000000" fill-rule="evenodd" fill-opacity="1" /><path clip-path="url(#clip590)" d="M201.598 1370.04 Q197.987 1370.04 196.158 1373.6 Q194.352 1377.14 194.352 1384.27 Q194.352 1391.38 196.158 1394.94 Q197.987 1398.49 201.598 1398.49 Q205.232 1398.49 207.037 1394.94 Q208.866 1391.38 208.866 1384.27 Q208.866 1377.14 207.037 1373.6 Q205.232 1370.04 201.598 1370.04 M201.598 1366.33 Q207.408 1366.33 210.463 1370.94 Q213.542 1375.52 213.542 1384.27 Q213.542 1393 210.463 1397.61 Q207.408 1402.19 201.598 1402.19 Q195.787 1402.19 192.709 1397.61 Q189.653 1393 189.653 1384.27 Q189.653 1375.52 192.709 1370.94 Q195.787 1366.33 201.598 1366.33 Z" fill="#000000" fill-rule="evenodd" fill-opacity="1" /><path clip-path="url(#clip590)" d="M127.2 1045.52 Q123.589 1045.52 121.76 1049.09 Q119.955 1052.63 119.955 1059.76 Q119.955 1066.87 121.76 1070.43 Q123.589 1073.97 127.2 1073.97 Q130.834 1073.97 132.64 1070.43 Q134.468 1066.87 134.468 1059.76 Q134.468 1052.63 132.64 1049.09 Q130.834 1045.52 127.2 1045.52 M127.2 1041.82 Q133.01 1041.82 136.066 1046.43 Q139.144 1051.01 139.144 1059.76 Q139.144 1068.49 136.066 1073.09 Q133.01 1077.68 127.2 1077.68 Q121.39 1077.68 118.311 1073.09 Q115.256 1068.49 115.256 1059.76 Q115.256 1051.01 118.311 1046.43 Q121.39 1041.82 127.2 1041.82 Z" fill="#000000" fill-rule="evenodd" fill-opacity="1" /><path clip-path="url(#clip590)" d="M147.362 1071.13 L152.246 1071.13 L152.246 1077.01 L147.362 1077.01 L147.362 1071.13 Z" fill="#000000" fill-rule="evenodd" fill-opacity="1" /><path clip-path="url(#clip590)" d="M166.459 1073.07 L182.778 1073.07 L182.778 1077.01 L160.834 1077.01 L160.834 1073.07 Q163.496 1070.32 168.079 1065.69 Q172.686 1061.03 173.866 1059.69 Q176.112 1057.17 176.991 1055.43 Q177.894 1053.67 177.894 1051.98 Q177.894 1049.23 175.95 1047.49 Q174.028 1045.76 170.927 1045.76 Q168.727 1045.76 166.274 1046.52 Q163.843 1047.28 161.065 1048.83 L161.065 1044.11 Q163.89 1042.98 166.343 1042.4 Q168.797 1041.82 170.834 1041.82 Q176.204 1041.82 179.399 1044.51 Q182.593 1047.19 182.593 1051.68 Q182.593 1053.81 181.783 1055.73 Q180.996 1057.63 178.889 1060.22 Q178.311 1060.89 175.209 1064.11 Q172.107 1067.31 166.459 1073.07 Z" fill="#000000" fill-rule="evenodd" fill-opacity="1" /><path clip-path="url(#clip590)" d="M192.639 1042.45 L210.996 1042.45 L210.996 1046.38 L196.922 1046.38 L196.922 1054.85 Q197.94 1054.51 198.959 1054.34 Q199.977 1054.16 200.996 1054.16 Q206.783 1054.16 210.162 1057.33 Q213.542 1060.5 213.542 1065.92 Q213.542 1071.5 210.07 1074.6 Q206.598 1077.68 200.278 1077.68 Q198.102 1077.68 195.834 1077.31 Q193.588 1076.94 191.181 1076.19 L191.181 1071.5 Q193.264 1072.63 195.487 1073.19 Q197.709 1073.74 200.186 1073.74 Q204.19 1073.74 206.528 1071.63 Q208.866 1069.53 208.866 1065.92 Q208.866 1062.31 206.528 1060.2 Q204.19 1058.09 200.186 1058.09 Q198.311 1058.09 196.436 1058.51 Q194.584 1058.93 192.639 1059.81 L192.639 1042.45 Z" fill="#000000" fill-rule="evenodd" fill-opacity="1" /><path clip-path="url(#clip590)" d="M126.205 721.011 Q122.593 721.011 120.765 724.575 Q118.959 728.117 118.959 735.247 Q118.959 742.353 120.765 745.918 Q122.593 749.46 126.205 749.46 Q129.839 749.46 131.644 745.918 Q133.473 742.353 133.473 735.247 Q133.473 728.117 131.644 724.575 Q129.839 721.011 126.205 721.011 M126.205 717.307 Q132.015 717.307 135.07 721.913 Q138.149 726.497 138.149 735.247 Q138.149 743.973 135.07 748.58 Q132.015 753.163 126.205 753.163 Q120.394 753.163 117.316 748.58 Q114.26 743.973 114.26 735.247 Q114.26 726.497 117.316 721.913 Q120.394 717.307 126.205 717.307 Z" fill="#000000" fill-rule="evenodd" fill-opacity="1" /><path clip-path="url(#clip590)" d="M146.366 746.612 L151.251 746.612 L151.251 752.492 L146.366 752.492 L146.366 746.612 Z" fill="#000000" fill-rule="evenodd" fill-opacity="1" /><path clip-path="url(#clip590)" d="M161.482 717.932 L179.839 717.932 L179.839 721.867 L165.765 721.867 L165.765 730.339 Q166.783 729.992 167.802 729.83 Q168.82 729.645 169.839 729.645 Q175.626 729.645 179.005 732.816 Q182.385 735.987 182.385 741.404 Q182.385 746.983 178.913 750.085 Q175.44 753.163 169.121 753.163 Q166.945 753.163 164.677 752.793 Q162.431 752.423 160.024 751.682 L160.024 746.983 Q162.107 748.117 164.329 748.673 Q166.552 749.228 169.028 749.228 Q173.033 749.228 175.371 747.122 Q177.709 745.015 177.709 741.404 Q177.709 737.793 175.371 735.687 Q173.033 733.58 169.028 733.58 Q167.153 733.58 165.278 733.997 Q163.427 734.413 161.482 735.293 L161.482 717.932 Z" fill="#000000" fill-rule="evenodd" fill-opacity="1" /><path clip-path="url(#clip590)" d="M201.598 721.011 Q197.987 721.011 196.158 724.575 Q194.352 728.117 194.352 735.247 Q194.352 742.353 196.158 745.918 Q197.987 749.46 201.598 749.46 Q205.232 749.46 207.037 745.918 Q208.866 742.353 208.866 735.247 Q208.866 728.117 207.037 724.575 Q205.232 721.011 201.598 721.011 M201.598 717.307 Q207.408 717.307 210.463 721.913 Q213.542 726.497 213.542 735.247 Q213.542 743.973 210.463 748.58 Q207.408 753.163 201.598 753.163 Q195.787 753.163 192.709 748.58 Q189.653 743.973 189.653 735.247 Q189.653 726.497 192.709 721.913 Q195.787 717.307 201.598 717.307 Z" fill="#000000" fill-rule="evenodd" fill-opacity="1" /><path clip-path="url(#clip590)" d="M127.2 396.498 Q123.589 396.498 121.76 400.062 Q119.955 403.604 119.955 410.734 Q119.955 417.84 121.76 421.405 Q123.589 424.946 127.2 424.946 Q130.834 424.946 132.64 421.405 Q134.468 417.84 134.468 410.734 Q134.468 403.604 132.64 400.062 Q130.834 396.498 127.2 396.498 M127.2 392.794 Q133.01 392.794 136.066 397.4 Q139.144 401.984 139.144 410.734 Q139.144 419.46 136.066 424.067 Q133.01 428.65 127.2 428.65 Q121.39 428.65 118.311 424.067 Q115.256 419.46 115.256 410.734 Q115.256 401.984 118.311 397.4 Q121.39 392.794 127.2 392.794 Z" fill="#000000" fill-rule="evenodd" fill-opacity="1" /><path clip-path="url(#clip590)" d="M147.362 422.099 L152.246 422.099 L152.246 427.979 L147.362 427.979 L147.362 422.099 Z" fill="#000000" fill-rule="evenodd" fill-opacity="1" /><path clip-path="url(#clip590)" d="M161.251 393.419 L183.473 393.419 L183.473 395.41 L170.927 427.979 L166.042 427.979 L177.848 397.354 L161.251 397.354 L161.251 393.419 Z" fill="#000000" fill-rule="evenodd" fill-opacity="1" /><path clip-path="url(#clip590)" d="M192.639 393.419 L210.996 393.419 L210.996 397.354 L196.922 397.354 L196.922 405.826 Q197.94 405.479 198.959 405.317 Q199.977 405.132 200.996 405.132 Q206.783 405.132 210.162 408.303 Q213.542 411.474 213.542 416.891 Q213.542 422.47 210.07 425.571 Q206.598 428.65 200.278 428.65 Q198.102 428.65 195.834 428.28 Q193.588 427.909 191.181 427.169 L191.181 422.47 Q193.264 423.604 195.487 424.159 Q197.709 424.715 200.186 424.715 Q204.19 424.715 206.528 422.608 Q208.866 420.502 208.866 416.891 Q208.866 413.28 206.528 411.173 Q204.19 409.067 200.186 409.067 Q198.311 409.067 196.436 409.484 Q194.584 409.9 192.639 410.78 L192.639 393.419 Z" fill="#000000" fill-rule="evenodd" fill-opacity="1" /><path clip-path="url(#clip590)" d="M117.015 99.5305 L124.654 99.5305 L124.654 73.1649 L116.343 74.8316 L116.343 70.5723 L124.607 68.9057 L129.283 68.9057 L129.283 99.5305 L136.922 99.5305 L136.922 103.466 L117.015 103.466 L117.015 99.5305 Z" fill="#000000" fill-rule="evenodd" fill-opacity="1" /><path clip-path="url(#clip590)" d="M146.366 97.5861 L151.251 97.5861 L151.251 103.466 L146.366 103.466 L146.366 97.5861 Z" fill="#000000" fill-rule="evenodd" fill-opacity="1" /><path clip-path="url(#clip590)" d="M171.436 71.9844 Q167.825 71.9844 165.996 75.5492 Q164.19 79.0908 164.19 86.2204 Q164.19 93.3268 165.996 96.8916 Q167.825 100.433 171.436 100.433 Q175.07 100.433 176.876 96.8916 Q178.704 93.3268 178.704 86.2204 Q178.704 79.0908 176.876 75.5492 Q175.07 71.9844 171.436 71.9844 M171.436 68.2807 Q177.246 68.2807 180.301 72.8871 Q183.38 77.4704 183.38 86.2204 Q183.38 94.9472 180.301 99.5537 Q177.246 104.137 171.436 104.137 Q165.626 104.137 162.547 99.5537 Q159.491 94.9472 159.491 86.2204 Q159.491 77.4704 162.547 72.8871 Q165.626 68.2807 171.436 68.2807 Z" fill="#000000" fill-rule="evenodd" fill-opacity="1" /><path clip-path="url(#clip590)" d="M201.598 71.9844 Q197.987 71.9844 196.158 75.5492 Q194.352 79.0908 194.352 86.2204 Q194.352 93.3268 196.158 96.8916 Q197.987 100.433 201.598 100.433 Q205.232 100.433 207.037 96.8916 Q208.866 93.3268 208.866 86.2204 Q208.866 79.0908 207.037 75.5492 Q205.232 71.9844 201.598 71.9844 M201.598 68.2807 Q207.408 68.2807 210.463 72.8871 Q213.542 77.4704 213.542 86.2204 Q213.542 94.9472 210.463 99.5537 Q207.408 104.137 201.598 104.137 Q195.787 104.137 192.709 99.5537 Q189.653 94.9472 189.653 86.2204 Q189.653 77.4704 192.709 72.8871 Q195.787 68.2807 201.598 68.2807 Z" fill="#000000" fill-rule="evenodd" fill-opacity="1" /><path clip-path="url(#clip590)" d="M21.7677 1174.35 L39.6235 1174.35 L39.6235 1166.27 Q39.6235 1161.78 37.3 1159.33 Q34.9765 1156.88 30.6797 1156.88 Q26.4147 1156.88 24.0912 1159.33 Q21.7677 1161.78 21.7677 1166.27 L21.7677 1174.35 M16.4842 1180.78 L16.4842 1166.27 Q16.4842 1158.28 20.1126 1154.2 Q23.7092 1150.1 30.6797 1150.1 Q37.7138 1150.1 41.3104 1154.2 Q44.907 1158.28 44.907 1166.27 L44.907 1174.35 L64.0042 1174.35 L64.0042 1180.78 L16.4842 1180.78 Z" fill="#000000" fill-rule="evenodd" fill-opacity="1" /><path clip-path="url(#clip590)" d="M33.8307 1122.22 Q33.2578 1123.2 33.0032 1124.38 Q32.7167 1125.53 32.7167 1126.93 Q32.7167 1131.89 35.9632 1134.56 Q39.1779 1137.21 45.2253 1137.21 L64.0042 1137.21 L64.0042 1143.09 L28.3562 1143.09 L28.3562 1137.21 L33.8944 1137.21 Q30.6479 1135.36 29.0883 1132.4 Q27.4968 1129.44 27.4968 1125.21 Q27.4968 1124.6 27.5923 1123.87 Q27.656 1123.14 27.8151 1122.25 L33.8307 1122.22 Z" fill="#000000" fill-rule="evenodd" fill-opacity="1" /><path clip-path="url(#clip590)" d="M44.7161 1087.01 L47.5806 1087.01 L47.5806 1113.94 Q53.6281 1113.56 56.8109 1110.31 Q59.9619 1107.03 59.9619 1101.21 Q59.9619 1097.83 59.1344 1094.68 Q58.3069 1091.5 56.6518 1088.38 L62.1899 1088.38 Q63.5267 1091.53 64.227 1094.84 Q64.9272 1098.15 64.9272 1101.56 Q64.9272 1110.09 59.9619 1115.09 Q54.9967 1120.05 46.5303 1120.05 Q37.7774 1120.05 32.6531 1115.34 Q27.4968 1110.6 27.4968 1102.58 Q27.4968 1095.38 32.1438 1091.21 Q36.7589 1087.01 44.7161 1087.01 M42.9973 1092.87 Q38.1912 1092.93 35.3266 1095.57 Q32.4621 1098.18 32.4621 1102.51 Q32.4621 1107.41 35.2312 1110.37 Q38.0002 1113.3 43.0292 1113.75 L42.9973 1092.87 Z" fill="#000000" fill-rule="evenodd" fill-opacity="1" /><path clip-path="url(#clip590)" d="M33.7671 1053.94 L14.479 1053.94 L14.479 1048.09 L64.0042 1048.09 L64.0042 1053.94 L58.657 1053.94 Q61.8398 1055.79 63.3994 1058.62 Q64.9272 1061.42 64.9272 1065.37 Q64.9272 1071.83 59.771 1075.9 Q54.6147 1079.95 46.212 1079.95 Q37.8093 1079.95 32.6531 1075.9 Q27.4968 1071.83 27.4968 1065.37 Q27.4968 1061.42 29.0564 1058.62 Q30.5842 1055.79 33.7671 1053.94 M46.212 1073.9 Q52.6732 1073.9 56.3653 1071.26 Q60.0256 1068.58 60.0256 1063.94 Q60.0256 1059.29 56.3653 1056.62 Q52.6732 1053.94 46.212 1053.94 Q39.7508 1053.94 36.0905 1056.62 Q32.3984 1059.29 32.3984 1063.94 Q32.3984 1068.58 36.0905 1071.26 Q39.7508 1073.9 46.212 1073.9 Z" fill="#000000" fill-rule="evenodd" fill-opacity="1" /><path clip-path="url(#clip590)" d="M28.3562 1036.02 L28.3562 1030.17 L64.0042 1030.17 L64.0042 1036.02 L28.3562 1036.02 M14.479 1036.02 L14.479 1030.17 L21.895 1030.17 L21.895 1036.02 L14.479 1036.02 Z" fill="#000000" fill-rule="evenodd" fill-opacity="1" /><path clip-path="url(#clip590)" d="M29.7248 992.259 L35.1993 992.259 Q33.8307 994.742 33.1623 997.256 Q32.4621 999.739 32.4621 1002.29 Q32.4621 1007.98 36.0905 1011.13 Q39.6872 1014.28 46.212 1014.28 Q52.7369 1014.28 56.3653 1011.13 Q59.9619 1007.98 59.9619 1002.29 Q59.9619 999.739 59.2935 997.256 Q58.5933 994.742 57.2247 992.259 L62.6355 992.259 Q63.7814 994.71 64.3543 997.352 Q64.9272 999.962 64.9272 1002.92 Q64.9272 1010.97 59.8664 1015.72 Q54.8057 1020.46 46.212 1020.46 Q37.491 1020.46 32.4939 1015.69 Q27.4968 1010.88 27.4968 1002.54 Q27.4968 999.834 28.0697 997.256 Q28.6108 994.678 29.7248 992.259 Z" fill="#000000" fill-rule="evenodd" fill-opacity="1" /><path clip-path="url(#clip590)" d="M18.2347 976.281 L28.3562 976.281 L28.3562 964.218 L32.9077 964.218 L32.9077 976.281 L52.2594 976.281 Q56.6199 976.281 57.8613 975.104 Q59.1026 973.894 59.1026 970.234 L59.1026 964.218 L64.0042 964.218 L64.0042 970.234 Q64.0042 977.013 61.4897 979.591 Q58.9434 982.17 52.2594 982.17 L32.9077 982.17 L32.9077 986.466 L28.3562 986.466 L28.3562 982.17 L18.2347 982.17 L18.2347 976.281 Z" fill="#000000" fill-rule="evenodd" fill-opacity="1" /><path clip-path="url(#clip590)" d="M28.3562 956.516 L28.3562 950.659 L64.0042 950.659 L64.0042 956.516 L28.3562 956.516 M14.479 956.516 L14.479 950.659 L21.895 950.659 L21.895 956.516 L14.479 956.516 Z" fill="#000000" fill-rule="evenodd" fill-opacity="1" /><path clip-path="url(#clip590)" d="M28.3562 942.607 L28.3562 936.4 L58.275 925.26 L28.3562 914.12 L28.3562 907.914 L64.0042 921.282 L64.0042 929.239 L28.3562 942.607 Z" fill="#000000" fill-rule="evenodd" fill-opacity="1" /><path clip-path="url(#clip590)" d="M44.7161 869.337 L47.5806 869.337 L47.5806 896.264 Q53.6281 895.882 56.8109 892.636 Q59.9619 889.358 59.9619 883.533 Q59.9619 880.159 59.1344 877.008 Q58.3069 873.825 56.6518 870.706 L62.1899 870.706 Q63.5267 873.857 64.227 877.167 Q64.9272 880.477 64.9272 883.883 Q64.9272 892.413 59.9619 897.41 Q54.9967 902.375 46.5303 902.375 Q37.7774 902.375 32.6531 897.665 Q27.4968 892.922 27.4968 884.902 Q27.4968 877.708 32.1438 873.539 Q36.7589 869.337 44.7161 869.337 M42.9973 875.194 Q38.1912 875.258 35.3266 877.899 Q32.4621 880.509 32.4621 884.838 Q32.4621 889.739 35.2312 892.7 Q38.0002 895.628 43.0292 896.073 L42.9973 875.194 Z" fill="#000000" fill-rule="evenodd" fill-opacity="1" /><path clip-path="url(#clip590)" d="M46.0847 822.804 Q46.0847 829.902 47.7079 832.639 Q49.3312 835.376 53.2461 835.376 Q56.3653 835.376 58.2114 833.339 Q60.0256 831.27 60.0256 827.738 Q60.0256 822.868 56.5881 819.94 Q53.1188 816.979 47.3897 816.979 L46.0847 816.979 L46.0847 822.804 M43.6657 811.123 L64.0042 811.123 L64.0042 816.979 L58.5933 816.979 Q61.8398 818.985 63.3994 821.977 Q64.9272 824.968 64.9272 829.297 Q64.9272 834.772 61.8716 838.018 Q58.7843 841.233 53.6281 841.233 Q47.6125 841.233 44.5569 837.222 Q41.5014 833.18 41.5014 825.191 L41.5014 816.979 L40.9285 816.979 Q36.8862 816.979 34.6901 819.653 Q32.4621 822.295 32.4621 827.101 Q32.4621 830.156 33.1941 833.053 Q33.9262 835.949 35.3903 838.623 L29.9795 838.623 Q28.7381 835.408 28.1334 832.384 Q27.4968 829.361 27.4968 826.496 Q27.4968 818.762 31.5072 814.942 Q35.5176 811.123 43.6657 811.123 Z" fill="#000000" fill-rule="evenodd" fill-opacity="1" /><path clip-path="url(#clip590)" d="M29.4065 776.334 L34.9447 776.334 Q33.6716 778.817 33.035 781.491 Q32.3984 784.164 32.3984 787.029 Q32.3984 791.389 33.7352 793.585 Q35.072 795.75 37.7456 795.75 Q39.7826 795.75 40.9603 794.19 Q42.1061 792.631 43.1565 787.92 L43.6021 785.915 Q44.9389 779.676 47.3897 777.066 Q49.8086 774.425 54.1691 774.425 Q59.1344 774.425 62.0308 778.371 Q64.9272 782.286 64.9272 789.161 Q64.9272 792.026 64.3543 795.145 Q63.8132 798.232 62.6992 801.67 L56.6518 801.67 Q58.3387 798.423 59.198 795.272 Q60.0256 792.121 60.0256 789.034 Q60.0256 784.896 58.6251 782.668 Q57.1929 780.44 54.6147 780.44 Q52.2276 780.44 50.9545 782.064 Q49.6813 783.655 48.5037 789.098 L48.0262 791.135 Q46.8804 796.577 44.5251 798.996 Q42.138 801.415 38.0002 801.415 Q32.9713 801.415 30.2341 797.851 Q27.4968 794.286 27.4968 787.729 Q27.4968 784.483 27.9743 781.618 Q28.4517 778.753 29.4065 776.334 Z" fill="#000000" fill-rule="evenodd" fill-opacity="1" /><path clip-path="url(#clip590)" d="M67.3143 750.267 Q73.68 752.749 75.6216 755.105 Q77.5631 757.46 77.5631 761.407 L77.5631 766.086 L72.6615 766.086 L72.6615 762.648 Q72.6615 760.229 71.5157 758.892 Q70.3699 757.556 66.1048 755.932 L63.4312 754.882 L28.3562 769.3 L28.3562 763.094 L56.238 751.954 L28.3562 740.814 L28.3562 734.607 L67.3143 750.267 Z" fill="#000000" fill-rule="evenodd" fill-opacity="1" /><path clip-path="url(#clip590)" d="M35.1993 698.768 Q31.2526 696.572 29.3747 693.517 Q27.4968 690.461 27.4968 686.323 Q27.4968 680.753 31.4117 677.73 Q35.2948 674.706 42.4881 674.706 L64.0042 674.706 L64.0042 680.594 L42.679 680.594 Q37.5546 680.594 35.072 682.408 Q32.5894 684.223 32.5894 687.947 Q32.5894 692.498 35.6131 695.14 Q38.6368 697.782 43.8567 697.782 L64.0042 697.782 L64.0042 703.67 L42.679 703.67 Q37.5228 703.67 35.072 705.484 Q32.5894 707.298 32.5894 711.086 Q32.5894 715.574 35.6449 718.216 Q38.6686 720.857 43.8567 720.857 L64.0042 720.857 L64.0042 726.746 L28.3562 726.746 L28.3562 720.857 L33.8944 720.857 Q30.616 718.852 29.0564 716.051 Q27.4968 713.25 27.4968 709.399 Q27.4968 705.516 29.4702 702.811 Q31.4436 700.073 35.1993 698.768 Z" fill="#000000" fill-rule="evenodd" fill-opacity="1" /><path clip-path="url(#clip590)" d="M35.1993 635.27 Q31.2526 633.074 29.3747 630.019 Q27.4968 626.963 27.4968 622.825 Q27.4968 617.255 31.4117 614.232 Q35.2948 611.208 42.4881 611.208 L64.0042 611.208 L64.0042 617.096 L42.679 617.096 Q37.5546 617.096 35.072 618.911 Q32.5894 620.725 32.5894 624.449 Q32.5894 629 35.6131 631.642 Q38.6368 634.284 43.8567 634.284 L64.0042 634.284 L64.0042 640.172 L42.679 640.172 Q37.5228 640.172 35.072 641.986 Q32.5894 643.8 32.5894 647.588 Q32.5894 652.076 35.6449 654.718 Q38.6686 657.359 43.8567 657.359 L64.0042 657.359 L64.0042 663.248 L28.3562 663.248 L28.3562 657.359 L33.8944 657.359 Q30.616 655.354 29.0564 652.553 Q27.4968 649.752 27.4968 645.901 Q27.4968 642.018 29.4702 639.313 Q31.4436 636.575 35.1993 635.27 Z" fill="#000000" fill-rule="evenodd" fill-opacity="1" /><path clip-path="url(#clip590)" d="M44.7161 569.035 L47.5806 569.035 L47.5806 595.962 Q53.6281 595.58 56.8109 592.334 Q59.9619 589.055 59.9619 583.231 Q59.9619 579.857 59.1344 576.706 Q58.3069 573.523 56.6518 570.404 L62.1899 570.404 Q63.5267 573.555 64.227 576.865 Q64.9272 580.175 64.9272 583.581 Q64.9272 592.111 59.9619 597.108 Q54.9967 602.073 46.5303 602.073 Q37.7774 602.073 32.6531 597.363 Q27.4968 592.62 27.4968 584.599 Q27.4968 577.406 32.1438 573.237 Q36.7589 569.035 44.7161 569.035 M42.9973 574.892 Q38.1912 574.955 35.3266 577.597 Q32.4621 580.207 32.4621 584.536 Q32.4621 589.437 35.2312 592.397 Q38.0002 595.326 43.0292 595.771 L42.9973 574.892 Z" fill="#000000" fill-rule="evenodd" fill-opacity="1" /><path clip-path="url(#clip590)" d="M18.2347 553.63 L28.3562 553.63 L28.3562 541.567 L32.9077 541.567 L32.9077 553.63 L52.2594 553.63 Q56.6199 553.63 57.8613 552.453 Q59.1026 551.243 59.1026 547.583 L59.1026 541.567 L64.0042 541.567 L64.0042 547.583 Q64.0042 554.362 61.4897 556.94 Q58.9434 559.518 52.2594 559.518 L32.9077 559.518 L32.9077 563.815 L28.3562 563.815 L28.3562 559.518 L18.2347 559.518 L18.2347 553.63 Z" fill="#000000" fill-rule="evenodd" fill-opacity="1" /><path clip-path="url(#clip590)" d="M33.8307 513.208 Q33.2578 514.195 33.0032 515.372 Q32.7167 516.518 32.7167 517.919 Q32.7167 522.884 35.9632 525.557 Q39.1779 528.199 45.2253 528.199 L64.0042 528.199 L64.0042 534.087 L28.3562 534.087 L28.3562 528.199 L33.8944 528.199 Q30.6479 526.353 29.0883 523.393 Q27.4968 520.433 27.4968 516.2 Q27.4968 515.595 27.5923 514.863 Q27.656 514.131 27.8151 513.24 L33.8307 513.208 Z" fill="#000000" fill-rule="evenodd" fill-opacity="1" /><path clip-path="url(#clip590)" d="M67.3143 492.233 Q73.68 494.716 75.6216 497.071 Q77.5631 499.426 77.5631 503.373 L77.5631 508.052 L72.6615 508.052 L72.6615 504.614 Q72.6615 502.195 71.5157 500.858 Q70.3699 499.522 66.1048 497.898 L63.4312 496.848 L28.3562 511.266 L28.3562 505.06 L56.238 493.92 L28.3562 482.78 L28.3562 476.573 L67.3143 492.233 Z" fill="#000000" fill-rule="evenodd" fill-opacity="1" /><path clip-path="url(#clip590)" d="M14.5426 433.7 Q21.8632 437.965 29.0246 440.034 Q36.186 442.103 43.5384 442.103 Q50.8908 442.103 58.1159 440.034 Q65.3091 437.933 72.5979 433.7 L72.5979 438.793 Q65.1182 443.567 57.8931 445.954 Q50.668 448.31 43.5384 448.31 Q36.4406 448.31 29.2474 445.954 Q22.0542 443.599 14.5426 438.793 L14.5426 433.7 Z" fill="#000000" fill-rule="evenodd" fill-opacity="1" /><path clip-path="url(#clip590)" d="M46.212 396.747 Q39.7508 396.747 36.0905 399.421 Q32.3984 402.063 32.3984 406.71 Q32.3984 411.357 36.0905 414.03 Q39.7508 416.672 46.212 416.672 Q52.6732 416.672 56.3653 414.03 Q60.0256 411.357 60.0256 406.71 Q60.0256 402.063 56.3653 399.421 Q52.6732 396.747 46.212 396.747 M33.7671 416.672 Q30.5842 414.826 29.0564 412.025 Q27.4968 409.192 27.4968 405.277 Q27.4968 398.784 32.6531 394.742 Q37.8093 390.668 46.212 390.668 Q54.6147 390.668 59.771 394.742 Q64.9272 398.784 64.9272 405.277 Q64.9272 409.192 63.3994 412.025 Q61.8398 414.826 58.657 416.672 L64.0042 416.672 L64.0042 422.56 L14.479 422.56 L14.479 416.672 L33.7671 416.672 Z" fill="#000000" fill-rule="evenodd" fill-opacity="1" /><path clip-path="url(#clip590)" d="M28.3562 380.96 L28.3562 375.104 L64.0042 375.104 L64.0042 380.96 L28.3562 380.96 M14.479 380.96 L14.479 375.104 L21.895 375.104 L21.895 380.96 L14.479 380.96 Z" fill="#000000" fill-rule="evenodd" fill-opacity="1" /><path clip-path="url(#clip590)" d="M18.2347 357.057 L28.3562 357.057 L28.3562 344.994 L32.9077 344.994 L32.9077 357.057 L52.2594 357.057 Q56.6199 357.057 57.8613 355.88 Q59.1026 354.67 59.1026 351.01 L59.1026 344.994 L64.0042 344.994 L64.0042 351.01 Q64.0042 357.789 61.4897 360.367 Q58.9434 362.945 52.2594 362.945 L32.9077 362.945 L32.9077 367.242 L28.3562 367.242 L28.3562 362.945 L18.2347 362.945 L18.2347 357.057 Z" fill="#000000" fill-rule="evenodd" fill-opacity="1" /><path clip-path="url(#clip590)" d="M29.4065 314.566 L34.9447 314.566 Q33.6716 317.049 33.035 319.722 Q32.3984 322.396 32.3984 325.26 Q32.3984 329.621 33.7352 331.817 Q35.072 333.981 37.7456 333.981 Q39.7826 333.981 40.9603 332.422 Q42.1061 330.862 43.1565 326.152 L43.6021 324.146 Q44.9389 317.908 47.3897 315.298 Q49.8086 312.656 54.1691 312.656 Q59.1344 312.656 62.0308 316.603 Q64.9272 320.518 64.9272 327.393 Q64.9272 330.258 64.3543 333.377 Q63.8132 336.464 62.6992 339.902 L56.6518 339.902 Q58.3387 336.655 59.198 333.504 Q60.0256 330.353 60.0256 327.266 Q60.0256 323.128 58.6251 320.9 Q57.1929 318.672 54.6147 318.672 Q52.2276 318.672 50.9545 320.295 Q49.6813 321.887 48.5037 327.329 L48.0262 329.366 Q46.8804 334.809 44.5251 337.228 Q42.138 339.647 38.0002 339.647 Q32.9713 339.647 30.2341 336.082 Q27.4968 332.517 27.4968 325.961 Q27.4968 322.714 27.9743 319.85 Q28.4517 316.985 29.4065 314.566 Z" fill="#000000" fill-rule="evenodd" fill-opacity="1" /><path clip-path="url(#clip590)" d="M14.5426 304.254 L14.5426 299.161 Q22.0542 294.387 29.2474 292.031 Q36.4406 289.644 43.5384 289.644 Q50.668 289.644 57.8931 292.031 Q65.1182 294.387 72.5979 299.161 L72.5979 304.254 Q65.3091 300.02 58.1159 297.952 Q50.8908 295.851 43.5384 295.851 Q36.186 295.851 29.0246 297.952 Q21.8632 300.02 14.5426 304.254 Z" fill="#000000" fill-rule="evenodd" fill-opacity="1" /><polyline clip-path="url(#clip592)" style="stroke:#000000; stroke-linecap:butt; stroke-linejoin:round; stroke-width:6; stroke-opacity:1; fill:none" points="
  309.067,1384.24 349.56,1384.24 390.053,1384.24 430.546,1384.24 471.04,1384.24 511.533,1384.24 552.026,1384.24 592.519,1384.24 633.012,1384.24 673.505,1384.24 
  713.998,1384.24 754.492,1384.24 794.985,1384.24 835.478,1384.24 875.971,1384.24 916.464,1384.24 956.957,1384.24 997.45,1384.24 1037.94,1384.24 1078.44,1384.24 
  1118.93,1384.24 1159.42,1384.24 1199.92,1384.24 1240.41,1384.24 1280.9,1384.24 1321.4,1384.24 1361.89,1384.24 1402.38,1384.24 1442.87,1384.24 1483.37,1384.24 
  1523.86,1384.24 1564.35,1384.24 1604.85,1384.24 1645.34,1384.24 1685.83,1384.24 1726.33,1384.24 1766.82,1384.24 1807.31,1384.24 1847.81,1384.24 1888.3,1384.24 
  1928.79,1384.24 1969.29,1384.24 2009.78,1384.24 2050.27,1384.24 2090.77,1384.24 2131.26,1384.24 2171.75,1384.24 2212.24,1384.24 2252.74,1384.24 2293.23,1384.24 
  
  "/>
<polyline clip-path="url(#clip592)" style="stroke:#ff0000; stroke-linecap:butt; stroke-linejoin:round; stroke-width:4; stroke-opacity:1; fill:none" points="
  309.067,1384.24 349.56,1384.24 390.053,1384.24 430.546,1384.24 471.04,1384.24 511.533,1384.24 552.026,1384.24 592.519,1384.24 633.012,1384.24 673.505,1384.24 
  713.998,1384.24 754.492,1384.24 794.985,1384.24 835.478,1384.24 875.971,1384.24 916.464,1384.24 956.957,1384.24 997.45,1384.24 1037.94,1384.24 1078.44,1384.24 
  1118.93,1384.24 1159.42,1384.24 1199.92,1384.24 1240.41,1384.24 1280.9,1384.24 1321.4,1384.24 1361.89,1384.24 1402.38,1384.24 1442.87,1384.24 1483.37,1384.24 
  1523.86,1384.24 1564.35,1384.24 1604.85,1384.24 1645.34,1384.24 1685.83,1384.24 1726.33,1384.24 1766.82,1384.24 1807.31,1384.24 1847.81,1384.24 1888.3,1384.24 
  1928.79,1384.24 1969.29,1384.24 2009.78,1384.24 2050.27,1384.24 2090.77,1384.24 2131.26,1384.24 2171.75,1384.24 2212.24,1384.24 2252.74,1384.24 2293.23,1384.24 
  
  "/>
<polyline clip-path="url(#clip592)" style="stroke:#808080; stroke-linecap:butt; stroke-linejoin:round; stroke-width:4; stroke-opacity:1; fill:none" stroke-dasharray="16, 10" points="
  -1853.67,1384.24 4455.97,1384.24 
  "/>
<path clip-path="url(#clip590)" d="
M1851.74 248.629 L2282.65 248.629 L2282.65 93.1086 L1851.74 93.1086  Z
  " fill="#ffffff" fill-rule="evenodd" fill-opacity="1"/>
<polyline clip-path="url(#clip590)" style="stroke:#000000; stroke-linecap:butt; stroke-linejoin:round; stroke-width:4; stroke-opacity:1; fill:none" points="
  1851.74,248.629 2282.65,248.629 2282.65,93.1086 1851.74,93.1086 1851.74,248.629 
  "/>
<polyline clip-path="url(#clip590)" style="stroke:#000000; stroke-linecap:butt; stroke-linejoin:round; stroke-width:4; stroke-opacity:1; fill:none" points="
  1875.11,144.949 2015.32,144.949 
  "/>
<path clip-path="url(#clip590)" d="M2040.26 127.669 L2045.29 127.669 L2053.87 140.516 L2062.51 127.669 L2067.53 127.669 L2056.42 144.266 L2068.27 162.229 L2063.25 162.229 L2053.53 147.53 L2043.74 162.229 L2038.69 162.229 L2051.03 143.78 L2040.26 127.669 Z" fill="#000000" fill-rule="evenodd" fill-opacity="1" /><path clip-path="url(#clip590)" d="M2075.63 158.293 L2083.27 158.293 L2083.27 131.928 L2074.96 133.595 L2074.96 129.335 L2083.23 127.669 L2087.9 127.669 L2087.9 158.293 L2095.54 158.293 L2095.54 162.229 L2075.63 162.229 L2075.63 158.293 Z" fill="#000000" fill-rule="evenodd" fill-opacity="1" /><path clip-path="url(#clip590)" d="M2123.67 128.942 L2123.67 136.303 L2132.44 136.303 L2132.44 139.613 L2123.67 139.613 L2123.67 153.687 Q2123.67 156.858 2124.52 157.761 Q2125.4 158.664 2128.06 158.664 L2132.44 158.664 L2132.44 162.229 L2128.06 162.229 Q2123.13 162.229 2121.26 160.4 Q2119.38 158.548 2119.38 153.687 L2119.38 139.613 L2116.26 139.613 L2116.26 136.303 L2119.38 136.303 L2119.38 128.942 L2123.67 128.942 Z" fill="#000000" fill-rule="evenodd" fill-opacity="1" /><path clip-path="url(#clip590)" d="M2148.09 139.289 Q2144.66 139.289 2142.67 141.974 Q2140.68 144.636 2140.68 149.289 Q2140.68 153.942 2142.65 156.627 Q2144.64 159.289 2148.09 159.289 Q2151.49 159.289 2153.48 156.604 Q2155.47 153.918 2155.47 149.289 Q2155.47 144.682 2153.48 141.997 Q2151.49 139.289 2148.09 139.289 M2148.09 135.678 Q2153.64 135.678 2156.81 139.289 Q2159.99 142.9 2159.99 149.289 Q2159.99 155.655 2156.81 159.289 Q2153.64 162.9 2148.09 162.9 Q2142.51 162.9 2139.34 159.289 Q2136.19 155.655 2136.19 149.289 Q2136.19 142.9 2139.34 139.289 Q2142.51 135.678 2148.09 135.678 Z" fill="#000000" fill-rule="evenodd" fill-opacity="1" /><path clip-path="url(#clip590)" d="M2180.63 127.669 L2185.66 127.669 L2194.24 140.516 L2202.88 127.669 L2207.9 127.669 L2196.79 144.266 L2208.64 162.229 L2203.62 162.229 L2193.9 147.53 L2184.11 162.229 L2179.06 162.229 L2191.4 143.78 L2180.63 127.669 Z" fill="#000000" fill-rule="evenodd" fill-opacity="1" /><path clip-path="url(#clip590)" d="M2219.22 158.293 L2235.54 158.293 L2235.54 162.229 L2213.6 162.229 L2213.6 158.293 Q2216.26 155.539 2220.84 150.909 Q2225.45 146.256 2226.63 144.914 Q2228.87 142.391 2229.75 140.655 Q2230.66 138.895 2230.66 137.206 Q2230.66 134.451 2228.71 132.715 Q2226.79 130.979 2223.69 130.979 Q2221.49 130.979 2219.04 131.743 Q2216.61 132.507 2213.83 134.057 L2213.83 129.335 Q2216.65 128.201 2219.11 127.622 Q2221.56 127.044 2223.6 127.044 Q2228.97 127.044 2232.16 129.729 Q2235.36 132.414 2235.36 136.905 Q2235.36 139.034 2234.54 140.956 Q2233.76 142.854 2231.65 145.446 Q2231.07 146.118 2227.97 149.335 Q2224.87 152.53 2219.22 158.293 Z" fill="#000000" fill-rule="evenodd" fill-opacity="1" /><polyline clip-path="url(#clip590)" style="stroke:#ff0000; stroke-linecap:butt; stroke-linejoin:round; stroke-width:4; stroke-opacity:1; fill:none" points="
  1875.11,196.789 2015.32,196.789 
  "/>
<path clip-path="url(#clip590)" d="M2040.26 179.509 L2045.29 179.509 L2053.87 192.356 L2062.51 179.509 L2067.53 179.509 L2056.42 196.106 L2068.27 214.069 L2063.25 214.069 L2053.53 199.37 L2043.74 214.069 L2038.69 214.069 L2051.03 195.62 L2040.26 179.509 Z" fill="#000000" fill-rule="evenodd" fill-opacity="1" /><path clip-path="url(#clip590)" d="M2078.85 210.133 L2095.17 210.133 L2095.17 214.069 L2073.23 214.069 L2073.23 210.133 Q2075.89 207.379 2080.47 202.749 Q2085.08 198.096 2086.26 196.754 Q2088.5 194.231 2089.38 192.495 Q2090.29 190.735 2090.29 189.046 Q2090.29 186.291 2088.34 184.555 Q2086.42 182.819 2083.32 182.819 Q2081.12 182.819 2078.67 183.583 Q2076.24 184.347 2073.46 185.897 L2073.46 181.175 Q2076.28 180.041 2078.74 179.462 Q2081.19 178.884 2083.23 178.884 Q2088.6 178.884 2091.79 181.569 Q2094.99 184.254 2094.99 188.745 Q2094.99 190.874 2094.18 192.796 Q2093.39 194.694 2091.28 197.286 Q2090.7 197.958 2087.6 201.175 Q2084.5 204.37 2078.85 210.133 Z" fill="#000000" fill-rule="evenodd" fill-opacity="1" /><path clip-path="url(#clip590)" d="M2123.67 180.782 L2123.67 188.143 L2132.44 188.143 L2132.44 191.453 L2123.67 191.453 L2123.67 205.527 Q2123.67 208.698 2124.52 209.601 Q2125.4 210.504 2128.06 210.504 L2132.44 210.504 L2132.44 214.069 L2128.06 214.069 Q2123.13 214.069 2121.26 212.24 Q2119.38 210.388 2119.38 205.527 L2119.38 191.453 L2116.26 191.453 L2116.26 188.143 L2119.38 188.143 L2119.38 180.782 L2123.67 180.782 Z" fill="#000000" fill-rule="evenodd" fill-opacity="1" /><path clip-path="url(#clip590)" d="M2148.09 191.129 Q2144.66 191.129 2142.67 193.814 Q2140.68 196.476 2140.68 201.129 Q2140.68 205.782 2142.65 208.467 Q2144.64 211.129 2148.09 211.129 Q2151.49 211.129 2153.48 208.444 Q2155.47 205.758 2155.47 201.129 Q2155.47 196.522 2153.48 193.837 Q2151.49 191.129 2148.09 191.129 M2148.09 187.518 Q2153.64 187.518 2156.81 191.129 Q2159.99 194.74 2159.99 201.129 Q2159.99 207.495 2156.81 211.129 Q2153.64 214.74 2148.09 214.74 Q2142.51 214.74 2139.34 211.129 Q2136.19 207.495 2136.19 201.129 Q2136.19 194.74 2139.34 191.129 Q2142.51 187.518 2148.09 187.518 Z" fill="#000000" fill-rule="evenodd" fill-opacity="1" /><path clip-path="url(#clip590)" d="M2180.63 179.509 L2185.66 179.509 L2194.24 192.356 L2202.88 179.509 L2207.9 179.509 L2196.79 196.106 L2208.64 214.069 L2203.62 214.069 L2193.9 199.37 L2184.11 214.069 L2179.06 214.069 L2191.4 195.62 L2180.63 179.509 Z" fill="#000000" fill-rule="evenodd" fill-opacity="1" /><path clip-path="url(#clip590)" d="M2216 210.133 L2223.64 210.133 L2223.64 183.768 L2215.33 185.435 L2215.33 181.175 L2223.6 179.509 L2228.27 179.509 L2228.27 210.133 L2235.91 210.133 L2235.91 214.069 L2216 214.069 L2216 210.133 Z" fill="#000000" fill-rule="evenodd" fill-opacity="1" /></svg>
