<?xml version="1.0" encoding="utf-8"?>
<svg xmlns="http://www.w3.org/2000/svg" xmlns:xlink="http://www.w3.org/1999/xlink" width="600" height="400" viewBox="0 0 2400 1600">
<defs>
  <clipPath id="clip620">
    <rect x="0" y="0" width="2400" height="1600"/>
  </clipPath>
</defs>
<path clip-path="url(#clip620)" d="
M0 1600 L2400 1600 L2400 0 L0 0  Z
  " fill="#ffffff" fill-rule="evenodd" fill-opacity="1"/>
<defs>
  <clipPath id="clip621">
    <rect x="480" y="0" width="1681" height="1600"/>
  </clipPath>
</defs>
<path clip-path="url(#clip620)" d="
M219.866 1423.18 L2352.76 1423.18 L2352.76 47.2441 L219.866 47.2441  Z
  " fill="#ffffff" fill-rule="evenodd" fill-opacity="1"/>
<defs>
  <clipPath id="clip622">
    <rect x="219" y="47" width="2134" height="1377"/>
  </clipPath>
</defs>
<polyline clip-path="url(#clip622)" style="stroke:#000000; stroke-linecap:butt; stroke-linejoin:round; stroke-width:2; stroke-opacity:0.1; fill:none" points="
  239.167,1423.18 239.167,47.2441 
  "/>
<polyline clip-path="url(#clip622)" style="stroke:#000000; stroke-linecap:butt; stroke-linejoin:round; stroke-width:2; stroke-opacity:0.1; fill:none" points="
  752.473,1423.18 752.473,47.2441 
  "/>
<polyline clip-path="url(#clip622)" style="stroke:#000000; stroke-linecap:butt; stroke-linejoin:round; stroke-width:2; stroke-opacity:0.1; fill:none" points="
  1265.78,1423.18 1265.78,47.2441 
  "/>
<polyline clip-path="url(#clip622)" style="stroke:#000000; stroke-linecap:butt; stroke-linejoin:round; stroke-width:2; stroke-opacity:0.1; fill:none" points="
  1779.08,1423.18 1779.08,47.2441 
  "/>
<polyline clip-path="url(#clip622)" style="stroke:#000000; stroke-linecap:butt; stroke-linejoin:round; stroke-width:2; stroke-opacity:0.1; fill:none" points="
  2292.39,1423.18 2292.39,47.2441 
  "/>
<polyline clip-path="url(#clip620)" style="stroke:#000000; stroke-linecap:butt; stroke-linejoin:round; stroke-width:4; stroke-opacity:1; fill:none" points="
  219.866,1423.18 2352.76,1423.18 
  "/>
<polyline clip-path="url(#clip620)" style="stroke:#000000; stroke-linecap:butt; stroke-linejoin:round; stroke-width:4; stroke-opacity:1; fill:none" points="
  239.167,1423.18 239.167,1404.28 
  "/>
<polyline clip-path="url(#clip620)" style="stroke:#000000; stroke-linecap:butt; stroke-linejoin:round; stroke-width:4; stroke-opacity:1; fill:none" points="
  752.473,1423.18 752.473,1404.28 
  "/>
<polyline clip-path="url(#clip620)" style="stroke:#000000; stroke-linecap:butt; stroke-linejoin:round; stroke-width:4; stroke-opacity:1; fill:none" points="
  1265.78,1423.18 1265.78,1404.28 
  "/>
<polyline clip-path="url(#clip620)" style="stroke:#000000; stroke-linecap:butt; stroke-linejoin:round; stroke-width:4; stroke-opacity:1; fill:none" points="
  1779.08,1423.18 1779.08,1404.28 
  "/>
<polyline clip-path="url(#clip620)" style="stroke:#000000; stroke-linecap:butt; stroke-linejoin:round; stroke-width:4; stroke-opacity:1; fill:none" points="
  2292.39,1423.18 2292.39,1404.28 
  "/>
<path clip-path="url(#clip620)" d="M201.47 1454.1 Q197.859 1454.1 196.03 1457.66 Q194.225 1461.2 194.225 1468.33 Q194.225 1475.44 196.03 1479.01 Q197.859 1482.55 201.47 1482.55 Q205.104 1482.55 206.91 1479.01 Q208.738 1475.44 208.738 1468.33 Q208.738 1461.2 206.91 1457.66 Q205.104 1454.1 201.47 1454.1 M201.47 1450.39 Q207.28 1450.39 210.336 1455 Q213.414 1459.58 213.414 1468.33 Q213.414 1477.06 210.336 1481.67 Q207.28 1486.25 201.47 1486.25 Q195.66 1486.25 192.581 1481.67 Q189.526 1477.06 189.526 1468.33 Q189.526 1459.58 192.581 1455 Q195.66 1450.39 201.47 1450.39 Z" fill="#000000" fill-rule="evenodd" fill-opacity="1" /><path clip-path="url(#clip620)" d="M221.632 1479.7 L226.516 1479.7 L226.516 1485.58 L221.632 1485.58 L221.632 1479.7 Z" fill="#000000" fill-rule="evenodd" fill-opacity="1" /><path clip-path="url(#clip620)" d="M246.701 1454.1 Q243.09 1454.1 241.261 1457.66 Q239.456 1461.2 239.456 1468.33 Q239.456 1475.44 241.261 1479.01 Q243.09 1482.55 246.701 1482.55 Q250.335 1482.55 252.141 1479.01 Q253.97 1475.44 253.97 1468.33 Q253.97 1461.2 252.141 1457.66 Q250.335 1454.1 246.701 1454.1 M246.701 1450.39 Q252.511 1450.39 255.567 1455 Q258.646 1459.58 258.646 1468.33 Q258.646 1477.06 255.567 1481.67 Q252.511 1486.25 246.701 1486.25 Q240.891 1486.25 237.812 1481.67 Q234.757 1477.06 234.757 1468.33 Q234.757 1459.58 237.812 1455 Q240.891 1450.39 246.701 1450.39 Z" fill="#000000" fill-rule="evenodd" fill-opacity="1" /><path clip-path="url(#clip620)" d="M276.863 1454.1 Q273.252 1454.1 271.423 1457.66 Q269.618 1461.2 269.618 1468.33 Q269.618 1475.44 271.423 1479.01 Q273.252 1482.55 276.863 1482.55 Q280.497 1482.55 282.303 1479.01 Q284.132 1475.44 284.132 1468.33 Q284.132 1461.2 282.303 1457.66 Q280.497 1454.1 276.863 1454.1 M276.863 1450.39 Q282.673 1450.39 285.729 1455 Q288.808 1459.58 288.808 1468.33 Q288.808 1477.06 285.729 1481.67 Q282.673 1486.25 276.863 1486.25 Q271.053 1486.25 267.974 1481.67 Q264.919 1477.06 264.919 1468.33 Q264.919 1459.58 267.974 1455 Q271.053 1450.39 276.863 1450.39 Z" fill="#000000" fill-rule="evenodd" fill-opacity="1" /><path clip-path="url(#clip620)" d="M715.274 1454.1 Q711.663 1454.1 709.834 1457.66 Q708.029 1461.2 708.029 1468.33 Q708.029 1475.44 709.834 1479.01 Q711.663 1482.55 715.274 1482.55 Q718.908 1482.55 720.714 1479.01 Q722.542 1475.44 722.542 1468.33 Q722.542 1461.2 720.714 1457.66 Q718.908 1454.1 715.274 1454.1 M715.274 1450.39 Q721.084 1450.39 724.14 1455 Q727.218 1459.58 727.218 1468.33 Q727.218 1477.06 724.14 1481.67 Q721.084 1486.25 715.274 1486.25 Q709.464 1486.25 706.385 1481.67 Q703.329 1477.06 703.329 1468.33 Q703.329 1459.58 706.385 1455 Q709.464 1450.39 715.274 1450.39 Z" fill="#000000" fill-rule="evenodd" fill-opacity="1" /><path clip-path="url(#clip620)" d="M735.436 1479.7 L740.32 1479.7 L740.32 1485.58 L735.436 1485.58 L735.436 1479.7 Z" fill="#000000" fill-rule="evenodd" fill-opacity="1" /><path clip-path="url(#clip620)" d="M754.533 1481.64 L770.852 1481.64 L770.852 1485.58 L748.908 1485.58 L748.908 1481.64 Q751.57 1478.89 756.153 1474.26 Q760.76 1469.61 761.94 1468.27 Q764.186 1465.74 765.065 1464.01 Q765.968 1462.25 765.968 1460.56 Q765.968 1457.8 764.024 1456.07 Q762.102 1454.33 759 1454.33 Q756.801 1454.33 754.348 1455.09 Q751.917 1455.86 749.139 1457.41 L749.139 1452.69 Q751.963 1451.55 754.417 1450.97 Q756.871 1450.39 758.908 1450.39 Q764.278 1450.39 767.473 1453.08 Q770.667 1455.77 770.667 1460.26 Q770.667 1462.39 769.857 1464.31 Q769.07 1466.2 766.963 1468.8 Q766.385 1469.47 763.283 1472.69 Q760.181 1475.88 754.533 1481.64 Z" fill="#000000" fill-rule="evenodd" fill-opacity="1" /><path clip-path="url(#clip620)" d="M780.713 1451.02 L799.07 1451.02 L799.07 1454.96 L784.996 1454.96 L784.996 1463.43 Q786.014 1463.08 787.033 1462.92 Q788.051 1462.73 789.07 1462.73 Q794.857 1462.73 798.236 1465.9 Q801.616 1469.08 801.616 1474.49 Q801.616 1480.07 798.144 1483.17 Q794.672 1486.25 788.352 1486.25 Q786.176 1486.25 783.908 1485.88 Q781.662 1485.51 779.255 1484.77 L779.255 1480.07 Q781.338 1481.2 783.561 1481.76 Q785.783 1482.32 788.26 1482.32 Q792.264 1482.32 794.602 1480.21 Q796.94 1478.1 796.94 1474.49 Q796.94 1470.88 794.602 1468.77 Q792.264 1466.67 788.26 1466.67 Q786.385 1466.67 784.51 1467.08 Q782.658 1467.5 780.713 1468.38 L780.713 1451.02 Z" fill="#000000" fill-rule="evenodd" fill-opacity="1" /><path clip-path="url(#clip620)" d="M1228.08 1454.1 Q1224.47 1454.1 1222.64 1457.66 Q1220.84 1461.2 1220.84 1468.33 Q1220.84 1475.44 1222.64 1479.01 Q1224.47 1482.55 1228.08 1482.55 Q1231.72 1482.55 1233.52 1479.01 Q1235.35 1475.44 1235.35 1468.33 Q1235.35 1461.2 1233.52 1457.66 Q1231.72 1454.1 1228.08 1454.1 M1228.08 1450.39 Q1233.89 1450.39 1236.95 1455 Q1240.03 1459.58 1240.03 1468.33 Q1240.03 1477.06 1236.95 1481.67 Q1233.89 1486.25 1228.08 1486.25 Q1222.27 1486.25 1219.19 1481.67 Q1216.14 1477.06 1216.14 1468.33 Q1216.14 1459.58 1219.19 1455 Q1222.27 1450.39 1228.08 1450.39 Z" fill="#000000" fill-rule="evenodd" fill-opacity="1" /><path clip-path="url(#clip620)" d="M1248.24 1479.7 L1253.13 1479.7 L1253.13 1485.58 L1248.24 1485.58 L1248.24 1479.7 Z" fill="#000000" fill-rule="evenodd" fill-opacity="1" /><path clip-path="url(#clip620)" d="M1263.36 1451.02 L1281.72 1451.02 L1281.72 1454.96 L1267.64 1454.96 L1267.64 1463.43 Q1268.66 1463.08 1269.68 1462.92 Q1270.7 1462.73 1271.72 1462.73 Q1277.5 1462.73 1280.88 1465.9 Q1284.26 1469.08 1284.26 1474.49 Q1284.26 1480.07 1280.79 1483.17 Q1277.32 1486.25 1271 1486.25 Q1268.82 1486.25 1266.55 1485.88 Q1264.31 1485.51 1261.9 1484.77 L1261.9 1480.07 Q1263.98 1481.2 1266.21 1481.76 Q1268.43 1482.32 1270.91 1482.32 Q1274.91 1482.32 1277.25 1480.21 Q1279.59 1478.1 1279.59 1474.49 Q1279.59 1470.88 1277.25 1468.77 Q1274.91 1466.67 1270.91 1466.67 Q1269.03 1466.67 1267.16 1467.08 Q1265.3 1467.5 1263.36 1468.38 L1263.36 1451.02 Z" fill="#000000" fill-rule="evenodd" fill-opacity="1" /><path clip-path="url(#clip620)" d="M1303.48 1454.1 Q1299.86 1454.1 1298.04 1457.66 Q1296.23 1461.2 1296.23 1468.33 Q1296.23 1475.44 1298.04 1479.01 Q1299.86 1482.55 1303.48 1482.55 Q1307.11 1482.55 1308.92 1479.01 Q1310.74 1475.44 1310.74 1468.33 Q1310.74 1461.2 1308.92 1457.66 Q1307.11 1454.1 1303.48 1454.1 M1303.48 1450.39 Q1309.29 1450.39 1312.34 1455 Q1315.42 1459.58 1315.42 1468.33 Q1315.42 1477.06 1312.34 1481.67 Q1309.29 1486.25 1303.48 1486.25 Q1297.67 1486.25 1294.59 1481.67 Q1291.53 1477.06 1291.53 1468.33 Q1291.53 1459.58 1294.59 1455 Q1297.67 1450.39 1303.48 1450.39 Z" fill="#000000" fill-rule="evenodd" fill-opacity="1" /><path clip-path="url(#clip620)" d="M1741.89 1454.1 Q1738.28 1454.1 1736.45 1457.66 Q1734.64 1461.2 1734.64 1468.33 Q1734.64 1475.44 1736.45 1479.01 Q1738.28 1482.55 1741.89 1482.55 Q1745.52 1482.55 1747.33 1479.01 Q1749.15 1475.44 1749.15 1468.33 Q1749.15 1461.2 1747.33 1457.66 Q1745.52 1454.1 1741.89 1454.1 M1741.89 1450.39 Q1747.7 1450.39 1750.75 1455 Q1753.83 1459.58 1753.83 1468.33 Q1753.83 1477.06 1750.75 1481.67 Q1747.7 1486.25 1741.89 1486.25 Q1736.08 1486.25 1733 1481.67 Q1729.94 1477.06 1729.94 1468.33 Q1729.94 1459.58 1733 1455 Q1736.08 1450.39 1741.89 1450.39 Z" fill="#000000" fill-rule="evenodd" fill-opacity="1" /><path clip-path="url(#clip620)" d="M1762.05 1479.7 L1766.93 1479.7 L1766.93 1485.58 L1762.05 1485.58 L1762.05 1479.7 Z" fill="#000000" fill-rule="evenodd" fill-opacity="1" /><path clip-path="url(#clip620)" d="M1775.94 1451.02 L1798.16 1451.02 L1798.16 1453.01 L1785.61 1485.58 L1780.73 1485.58 L1792.53 1454.96 L1775.94 1454.96 L1775.94 1451.02 Z" fill="#000000" fill-rule="evenodd" fill-opacity="1" /><path clip-path="url(#clip620)" d="M1807.33 1451.02 L1825.68 1451.02 L1825.68 1454.96 L1811.61 1454.96 L1811.61 1463.43 Q1812.63 1463.08 1813.64 1462.92 Q1814.66 1462.73 1815.68 1462.73 Q1821.47 1462.73 1824.85 1465.9 Q1828.23 1469.08 1828.23 1474.49 Q1828.23 1480.07 1824.76 1483.17 Q1821.28 1486.25 1814.96 1486.25 Q1812.79 1486.25 1810.52 1485.88 Q1808.27 1485.51 1805.87 1484.77 L1805.87 1480.07 Q1807.95 1481.2 1810.17 1481.76 Q1812.39 1482.32 1814.87 1482.32 Q1818.88 1482.32 1821.21 1480.21 Q1823.55 1478.1 1823.55 1474.49 Q1823.55 1470.88 1821.21 1468.77 Q1818.88 1466.67 1814.87 1466.67 Q1813 1466.67 1811.12 1467.08 Q1809.27 1467.5 1807.33 1468.38 L1807.33 1451.02 Z" fill="#000000" fill-rule="evenodd" fill-opacity="1" /><path clip-path="url(#clip620)" d="M2244.46 1481.64 L2252.1 1481.64 L2252.1 1455.28 L2243.79 1456.95 L2243.79 1452.69 L2252.06 1451.02 L2256.73 1451.02 L2256.73 1481.64 L2264.37 1481.64 L2264.37 1485.58 L2244.46 1485.58 L2244.46 1481.64 Z" fill="#000000" fill-rule="evenodd" fill-opacity="1" /><path clip-path="url(#clip620)" d="M2273.81 1479.7 L2278.7 1479.7 L2278.7 1485.58 L2273.81 1485.58 L2273.81 1479.7 Z" fill="#000000" fill-rule="evenodd" fill-opacity="1" /><path clip-path="url(#clip620)" d="M2298.88 1454.1 Q2295.27 1454.1 2293.44 1457.66 Q2291.64 1461.2 2291.64 1468.33 Q2291.64 1475.44 2293.44 1479.01 Q2295.27 1482.55 2298.88 1482.55 Q2302.52 1482.55 2304.32 1479.01 Q2306.15 1475.44 2306.15 1468.33 Q2306.15 1461.2 2304.32 1457.66 Q2302.52 1454.1 2298.88 1454.1 M2298.88 1450.39 Q2304.69 1450.39 2307.75 1455 Q2310.83 1459.58 2310.83 1468.33 Q2310.83 1477.06 2307.75 1481.67 Q2304.69 1486.25 2298.88 1486.25 Q2293.07 1486.25 2290 1481.67 Q2286.94 1477.06 2286.94 1468.33 Q2286.94 1459.58 2290 1455 Q2293.07 1450.39 2298.88 1450.39 Z" fill="#000000" fill-rule="evenodd" fill-opacity="1" /><path clip-path="url(#clip620)" d="M2329.05 1454.1 Q2325.43 1454.1 2323.61 1457.66 Q2321.8 1461.2 2321.8 1468.33 Q2321.8 1475.44 2323.61 1479.01 Q2325.43 1482.55 2329.05 1482.55 Q2332.68 1482.55 2334.49 1479.01 Q2336.31 1475.44 2336.31 1468.33 Q2336.31 1461.2 2334.49 1457.66 Q2332.68 1454.1 2329.05 1454.1 M2329.05 1450.39 Q2334.86 1450.39 2337.91 1455 Q2340.99 1459.58 2340.99 1468.33 Q2340.99 1477.06 2337.91 1481.67 Q2334.86 1486.25 2329.05 1486.25 Q2323.24 1486.25 2320.16 1481.67 Q2317.1 1477.06 2317.1 1468.33 Q2317.1 1459.58 2320.16 1455 Q2323.24 1450.39 2329.05 1450.39 Z" fill="#000000" fill-rule="evenodd" fill-opacity="1" /><path clip-path="url(#clip620)" d="M1207.49 1548.76 L1207.49 1551.62 L1180.56 1551.62 Q1180.94 1557.67 1184.19 1560.85 Q1187.47 1564 1193.29 1564 Q1196.67 1564 1199.82 1563.17 Q1203 1562.35 1206.12 1560.69 L1206.12 1566.23 Q1202.97 1567.57 1199.66 1568.27 Q1196.35 1568.97 1192.94 1568.97 Q1184.41 1568.97 1179.41 1564 Q1174.45 1559.04 1174.45 1550.57 Q1174.45 1541.82 1179.16 1536.69 Q1183.9 1531.54 1191.92 1531.54 Q1199.12 1531.54 1203.29 1536.18 Q1207.49 1540.8 1207.49 1548.76 M1201.63 1547.04 Q1201.57 1542.23 1198.93 1539.37 Q1196.32 1536.5 1191.99 1536.5 Q1187.09 1536.5 1184.13 1539.27 Q1181.2 1542.04 1180.75 1547.07 L1201.63 1547.04 Z" fill="#000000" fill-rule="evenodd" fill-opacity="1" /><path clip-path="url(#clip620)" d="M1222.77 1562.7 L1222.77 1581.6 L1216.88 1581.6 L1216.88 1532.4 L1222.77 1532.4 L1222.77 1537.81 Q1224.61 1534.62 1227.41 1533.1 Q1230.25 1531.54 1234.16 1531.54 Q1240.65 1531.54 1244.7 1536.69 Q1248.77 1541.85 1248.77 1550.25 Q1248.77 1558.65 1244.7 1563.81 Q1240.65 1568.97 1234.16 1568.97 Q1230.25 1568.97 1227.41 1567.44 Q1224.61 1565.88 1222.77 1562.7 M1242.69 1550.25 Q1242.69 1543.79 1240.02 1540.13 Q1237.37 1536.44 1232.73 1536.44 Q1228.08 1536.44 1225.41 1540.13 Q1222.77 1543.79 1222.77 1550.25 Q1222.77 1556.71 1225.41 1560.4 Q1228.08 1564.07 1232.73 1564.07 Q1237.37 1564.07 1240.02 1560.4 Q1242.69 1556.71 1242.69 1550.25 Z" fill="#000000" fill-rule="evenodd" fill-opacity="1" /><path clip-path="url(#clip620)" d="M1281.2 1533.45 L1281.2 1538.98 Q1278.72 1537.71 1276.05 1537.07 Q1273.37 1536.44 1270.51 1536.44 Q1266.15 1536.44 1263.95 1537.77 Q1261.79 1539.11 1261.79 1541.79 Q1261.79 1543.82 1263.35 1545 Q1264.91 1546.15 1269.62 1547.2 L1271.62 1547.64 Q1277.86 1548.98 1280.47 1551.43 Q1283.11 1553.85 1283.11 1558.21 Q1283.11 1563.17 1279.17 1566.07 Q1275.25 1568.97 1268.38 1568.97 Q1265.51 1568.97 1262.39 1568.39 Q1259.3 1567.85 1255.87 1566.74 L1255.87 1560.69 Q1259.11 1562.38 1262.26 1563.24 Q1265.42 1564.07 1268.5 1564.07 Q1272.64 1564.07 1274.87 1562.66 Q1277.1 1561.23 1277.1 1558.65 Q1277.1 1556.27 1275.47 1554.99 Q1273.88 1553.72 1268.44 1552.54 L1266.4 1552.07 Q1260.96 1550.92 1258.54 1548.56 Q1256.12 1546.18 1256.12 1542.04 Q1256.12 1537.01 1259.69 1534.27 Q1263.25 1531.54 1269.81 1531.54 Q1273.05 1531.54 1275.92 1532.01 Q1278.78 1532.49 1281.2 1533.45 Z" fill="#000000" fill-rule="evenodd" fill-opacity="1" /><path clip-path="url(#clip620)" d="M1292.44 1532.4 L1298.29 1532.4 L1298.29 1568.04 L1292.44 1568.04 L1292.44 1532.4 M1292.44 1518.52 L1298.29 1518.52 L1298.29 1525.93 L1292.44 1525.93 L1292.44 1518.52 Z" fill="#000000" fill-rule="evenodd" fill-opacity="1" /><path clip-path="url(#clip620)" d="M1310.55 1518.52 L1316.4 1518.52 L1316.4 1568.04 L1310.55 1568.04 L1310.55 1518.52 Z" fill="#000000" fill-rule="evenodd" fill-opacity="1" /><path clip-path="url(#clip620)" d="M1342.47 1536.5 Q1337.76 1536.5 1335.02 1540.19 Q1332.29 1543.85 1332.29 1550.25 Q1332.29 1556.65 1334.99 1560.34 Q1337.73 1564 1342.47 1564 Q1347.15 1564 1349.89 1560.31 Q1352.63 1556.62 1352.63 1550.25 Q1352.63 1543.92 1349.89 1540.23 Q1347.15 1536.5 1342.47 1536.5 M1342.47 1531.54 Q1350.11 1531.54 1354.47 1536.5 Q1358.83 1541.47 1358.83 1550.25 Q1358.83 1559 1354.47 1564 Q1350.11 1568.97 1342.47 1568.97 Q1334.8 1568.97 1330.44 1564 Q1326.11 1559 1326.11 1550.25 Q1326.11 1541.47 1330.44 1536.5 Q1334.8 1531.54 1342.47 1531.54 Z" fill="#000000" fill-rule="evenodd" fill-opacity="1" /><path clip-path="url(#clip620)" d="M1398.17 1546.53 L1398.17 1568.04 L1392.32 1568.04 L1392.32 1546.72 Q1392.32 1541.66 1390.34 1539.14 Q1388.37 1536.63 1384.42 1536.63 Q1379.68 1536.63 1376.94 1539.65 Q1374.21 1542.68 1374.21 1547.9 L1374.21 1568.04 L1368.32 1568.04 L1368.32 1532.4 L1374.21 1532.4 L1374.21 1537.93 Q1376.31 1534.72 1379.14 1533.13 Q1382 1531.54 1385.73 1531.54 Q1391.87 1531.54 1395.02 1535.36 Q1398.17 1539.14 1398.17 1546.53 Z" fill="#000000" fill-rule="evenodd" fill-opacity="1" /><polyline clip-path="url(#clip622)" style="stroke:#000000; stroke-linecap:butt; stroke-linejoin:round; stroke-width:2; stroke-opacity:0.1; fill:none" points="
  219.866,1423.18 2352.76,1423.18 
  "/>
<polyline clip-path="url(#clip622)" style="stroke:#000000; stroke-linecap:butt; stroke-linejoin:round; stroke-width:2; stroke-opacity:0.1; fill:none" points="
  219.866,1147.99 2352.76,1147.99 
  "/>
<polyline clip-path="url(#clip622)" style="stroke:#000000; stroke-linecap:butt; stroke-linejoin:round; stroke-width:2; stroke-opacity:0.1; fill:none" points="
  219.866,872.806 2352.76,872.806 
  "/>
<polyline clip-path="url(#clip622)" style="stroke:#000000; stroke-linecap:butt; stroke-linejoin:round; stroke-width:2; stroke-opacity:0.1; fill:none" points="
  219.866,597.618 2352.76,597.618 
  "/>
<polyline clip-path="url(#clip622)" style="stroke:#000000; stroke-linecap:butt; stroke-linejoin:round; stroke-width:2; stroke-opacity:0.1; fill:none" points="
  219.866,322.431 2352.76,322.431 
  "/>
<polyline clip-path="url(#clip622)" style="stroke:#000000; stroke-linecap:butt; stroke-linejoin:round; stroke-width:2; stroke-opacity:0.1; fill:none" points="
  219.866,47.2441 2352.76,47.2441 
  "/>
<polyline clip-path="url(#clip620)" style="stroke:#000000; stroke-linecap:butt; stroke-linejoin:round; stroke-width:4; stroke-opacity:1; fill:none" points="
  219.866,1423.18 219.866,47.2441 
  "/>
<polyline clip-path="url(#clip620)" style="stroke:#000000; stroke-linecap:butt; stroke-linejoin:round; stroke-width:4; stroke-opacity:1; fill:none" points="
  219.866,1423.18 238.764,1423.18 
  "/>
<polyline clip-path="url(#clip620)" style="stroke:#000000; stroke-linecap:butt; stroke-linejoin:round; stroke-width:4; stroke-opacity:1; fill:none" points="
  219.866,1147.99 238.764,1147.99 
  "/>
<polyline clip-path="url(#clip620)" style="stroke:#000000; stroke-linecap:butt; stroke-linejoin:round; stroke-width:4; stroke-opacity:1; fill:none" points="
  219.866,872.806 238.764,872.806 
  "/>
<polyline clip-path="url(#clip620)" style="stroke:#000000; stroke-linecap:butt; stroke-linejoin:round; stroke-width:4; stroke-opacity:1; fill:none" points="
  219.866,597.618 238.764,597.618 
  "/>
<polyline clip-path="url(#clip620)" style="stroke:#000000; stroke-linecap:butt; stroke-linejoin:round; stroke-width:4; stroke-opacity:1; fill:none" points="
  219.866,322.431 238.764,322.431 
  "/>
<polyline clip-path="url(#clip620)" style="stroke:#000000; stroke-linecap:butt; stroke-linejoin:round; stroke-width:4; stroke-opacity:1; fill:none" points="
  219.866,47.2441 238.764,47.2441 
  "/>
<path clip-path="url(#clip620)" d="M126.691 1408.98 Q123.08 1408.98 121.251 1412.54 Q119.445 1416.08 119.445 1423.21 Q119.445 1430.32 121.251 1433.89 Q123.08 1437.43 126.691 1437.43 Q130.325 1437.43 132.13 1433.89 Q133.959 1430.32 133.959 1423.21 Q133.959 1416.08 132.13 1412.54 Q130.325 1408.98 126.691 1408.98 M126.691 1405.27 Q132.501 1405.27 135.556 1409.88 Q138.635 1414.46 138.635 1423.21 Q138.635 1431.94 135.556 1436.55 Q132.501 1441.13 126.691 1441.13 Q120.88 1441.13 117.802 1436.55 Q114.746 1431.94 114.746 1423.21 Q114.746 1414.46 117.802 1409.88 Q120.88 1405.27 126.691 1405.27 Z" fill="#000000" fill-rule="evenodd" fill-opacity="1" /><path clip-path="url(#clip620)" d="M146.853 1434.58 L151.737 1434.58 L151.737 1440.46 L146.853 1440.46 L146.853 1434.58 Z" fill="#000000" fill-rule="evenodd" fill-opacity="1" /><path clip-path="url(#clip620)" d="M171.922 1408.98 Q168.311 1408.98 166.482 1412.54 Q164.677 1416.08 164.677 1423.21 Q164.677 1430.32 166.482 1433.89 Q168.311 1437.43 171.922 1437.43 Q175.556 1437.43 177.362 1433.89 Q179.19 1430.32 179.19 1423.21 Q179.19 1416.08 177.362 1412.54 Q175.556 1408.98 171.922 1408.98 M171.922 1405.27 Q177.732 1405.27 180.788 1409.88 Q183.866 1414.46 183.866 1423.21 Q183.866 1431.94 180.788 1436.55 Q177.732 1441.13 171.922 1441.13 Q166.112 1441.13 163.033 1436.55 Q159.978 1431.94 159.978 1423.21 Q159.978 1414.46 163.033 1409.88 Q166.112 1405.27 171.922 1405.27 Z" fill="#000000" fill-rule="evenodd" fill-opacity="1" /><path clip-path="url(#clip620)" d="M128.288 1133.79 Q124.677 1133.79 122.848 1137.36 Q121.043 1140.9 121.043 1148.03 Q121.043 1155.13 122.848 1158.7 Q124.677 1162.24 128.288 1162.24 Q131.922 1162.24 133.728 1158.7 Q135.556 1155.13 135.556 1148.03 Q135.556 1140.9 133.728 1137.36 Q131.922 1133.79 128.288 1133.79 M128.288 1130.09 Q134.098 1130.09 137.154 1134.69 Q140.232 1139.28 140.232 1148.03 Q140.232 1156.75 137.154 1161.36 Q134.098 1165.94 128.288 1165.94 Q122.478 1165.94 119.399 1161.36 Q116.343 1156.75 116.343 1148.03 Q116.343 1139.28 119.399 1134.69 Q122.478 1130.09 128.288 1130.09 Z" fill="#000000" fill-rule="evenodd" fill-opacity="1" /><path clip-path="url(#clip620)" d="M148.45 1159.39 L153.334 1159.39 L153.334 1165.27 L148.45 1165.27 L148.45 1159.39 Z" fill="#000000" fill-rule="evenodd" fill-opacity="1" /><path clip-path="url(#clip620)" d="M167.547 1161.34 L183.866 1161.34 L183.866 1165.27 L161.922 1165.27 L161.922 1161.34 Q164.584 1158.58 169.167 1153.95 Q173.774 1149.3 174.954 1147.96 Q177.2 1145.43 178.079 1143.7 Q178.982 1141.94 178.982 1140.25 Q178.982 1137.5 177.038 1135.76 Q175.116 1134.02 172.014 1134.02 Q169.815 1134.02 167.362 1134.79 Q164.931 1135.55 162.153 1137.1 L162.153 1132.38 Q164.977 1131.25 167.431 1130.67 Q169.885 1130.09 171.922 1130.09 Q177.292 1130.09 180.487 1132.77 Q183.681 1135.46 183.681 1139.95 Q183.681 1142.08 182.871 1144 Q182.084 1145.9 179.977 1148.49 Q179.399 1149.16 176.297 1152.38 Q173.195 1155.57 167.547 1161.34 Z" fill="#000000" fill-rule="evenodd" fill-opacity="1" /><path clip-path="url(#clip620)" d="M126.205 858.604 Q122.593 858.604 120.765 862.169 Q118.959 865.711 118.959 872.84 Q118.959 879.947 120.765 883.512 Q122.593 887.053 126.205 887.053 Q129.839 887.053 131.644 883.512 Q133.473 879.947 133.473 872.84 Q133.473 865.711 131.644 862.169 Q129.839 858.604 126.205 858.604 M126.205 854.901 Q132.015 854.901 135.07 859.507 Q138.149 864.09 138.149 872.84 Q138.149 881.567 135.07 886.174 Q132.015 890.757 126.205 890.757 Q120.394 890.757 117.316 886.174 Q114.26 881.567 114.26 872.84 Q114.26 864.09 117.316 859.507 Q120.394 854.901 126.205 854.901 Z" fill="#000000" fill-rule="evenodd" fill-opacity="1" /><path clip-path="url(#clip620)" d="M146.366 884.206 L151.251 884.206 L151.251 890.086 L146.366 890.086 L146.366 884.206 Z" fill="#000000" fill-rule="evenodd" fill-opacity="1" /><path clip-path="url(#clip620)" d="M174.283 859.6 L162.477 878.049 L174.283 878.049 L174.283 859.6 M173.056 855.526 L178.936 855.526 L178.936 878.049 L183.866 878.049 L183.866 881.937 L178.936 881.937 L178.936 890.086 L174.283 890.086 L174.283 881.937 L158.681 881.937 L158.681 877.424 L173.056 855.526 Z" fill="#000000" fill-rule="evenodd" fill-opacity="1" /><path clip-path="url(#clip620)" d="M126.529 583.417 Q122.918 583.417 121.089 586.982 Q119.283 590.524 119.283 597.653 Q119.283 604.76 121.089 608.324 Q122.918 611.866 126.529 611.866 Q130.163 611.866 131.968 608.324 Q133.797 604.76 133.797 597.653 Q133.797 590.524 131.968 586.982 Q130.163 583.417 126.529 583.417 M126.529 579.713 Q132.339 579.713 135.394 584.32 Q138.473 588.903 138.473 597.653 Q138.473 606.38 135.394 610.986 Q132.339 615.57 126.529 615.57 Q120.718 615.57 117.64 610.986 Q114.584 606.38 114.584 597.653 Q114.584 588.903 117.64 584.32 Q120.718 579.713 126.529 579.713 Z" fill="#000000" fill-rule="evenodd" fill-opacity="1" /><path clip-path="url(#clip620)" d="M146.691 609.019 L151.575 609.019 L151.575 614.898 L146.691 614.898 L146.691 609.019 Z" fill="#000000" fill-rule="evenodd" fill-opacity="1" /><path clip-path="url(#clip620)" d="M172.339 595.755 Q169.19 595.755 167.339 597.908 Q165.51 600.061 165.51 603.81 Q165.51 607.537 167.339 609.713 Q169.19 611.866 172.339 611.866 Q175.487 611.866 177.315 609.713 Q179.167 607.537 179.167 603.81 Q179.167 600.061 177.315 597.908 Q175.487 595.755 172.339 595.755 M181.621 581.102 L181.621 585.362 Q179.862 584.528 178.056 584.088 Q176.274 583.649 174.514 583.649 Q169.885 583.649 167.431 586.774 Q165.001 589.899 164.653 596.218 Q166.019 594.204 168.079 593.139 Q170.139 592.051 172.616 592.051 Q177.825 592.051 180.834 595.223 Q183.866 598.371 183.866 603.81 Q183.866 609.135 180.718 612.352 Q177.57 615.57 172.339 615.57 Q166.343 615.57 163.172 610.986 Q160.001 606.38 160.001 597.653 Q160.001 589.459 163.89 584.598 Q167.778 579.713 174.329 579.713 Q176.089 579.713 177.871 580.061 Q179.676 580.408 181.621 581.102 Z" fill="#000000" fill-rule="evenodd" fill-opacity="1" /><path clip-path="url(#clip620)" d="M126.783 308.23 Q123.172 308.23 121.343 311.795 Q119.538 315.336 119.538 322.466 Q119.538 329.572 121.343 333.137 Q123.172 336.679 126.783 336.679 Q130.417 336.679 132.223 333.137 Q134.052 329.572 134.052 322.466 Q134.052 315.336 132.223 311.795 Q130.417 308.23 126.783 308.23 M126.783 304.526 Q132.593 304.526 135.649 309.133 Q138.728 313.716 138.728 322.466 Q138.728 331.193 135.649 335.799 Q132.593 340.383 126.783 340.383 Q120.973 340.383 117.894 335.799 Q114.839 331.193 114.839 322.466 Q114.839 313.716 117.894 309.133 Q120.973 304.526 126.783 304.526 Z" fill="#000000" fill-rule="evenodd" fill-opacity="1" /><path clip-path="url(#clip620)" d="M146.945 333.832 L151.829 333.832 L151.829 339.711 L146.945 339.711 L146.945 333.832 Z" fill="#000000" fill-rule="evenodd" fill-opacity="1" /><path clip-path="url(#clip620)" d="M172.014 323.299 Q168.681 323.299 166.76 325.082 Q164.862 326.864 164.862 329.989 Q164.862 333.114 166.76 334.896 Q168.681 336.679 172.014 336.679 Q175.348 336.679 177.269 334.896 Q179.19 333.091 179.19 329.989 Q179.19 326.864 177.269 325.082 Q175.371 323.299 172.014 323.299 M167.339 321.309 Q164.329 320.568 162.64 318.508 Q160.973 316.447 160.973 313.485 Q160.973 309.341 163.913 306.934 Q166.876 304.526 172.014 304.526 Q177.176 304.526 180.116 306.934 Q183.056 309.341 183.056 313.485 Q183.056 316.447 181.366 318.508 Q179.7 320.568 176.714 321.309 Q180.093 322.096 181.968 324.387 Q183.866 326.679 183.866 329.989 Q183.866 335.012 180.788 337.697 Q177.732 340.383 172.014 340.383 Q166.297 340.383 163.218 337.697 Q160.163 335.012 160.163 329.989 Q160.163 326.679 162.061 324.387 Q163.959 322.096 167.339 321.309 M165.626 313.924 Q165.626 316.61 167.292 318.114 Q168.982 319.619 172.014 319.619 Q175.024 319.619 176.714 318.114 Q178.426 316.61 178.426 313.924 Q178.426 311.239 176.714 309.735 Q175.024 308.23 172.014 308.23 Q168.982 308.23 167.292 309.735 Q165.626 311.239 165.626 313.924 Z" fill="#000000" fill-rule="evenodd" fill-opacity="1" /><path clip-path="url(#clip620)" d="M117.501 60.5889 L125.14 60.5889 L125.14 34.2233 L116.83 35.89 L116.83 31.6308 L125.093 29.9641 L129.769 29.9641 L129.769 60.5889 L137.408 60.5889 L137.408 64.5241 L117.501 64.5241 L117.501 60.5889 Z" fill="#000000" fill-rule="evenodd" fill-opacity="1" /><path clip-path="url(#clip620)" d="M146.853 58.6445 L151.737 58.6445 L151.737 64.5241 L146.853 64.5241 L146.853 58.6445 Z" fill="#000000" fill-rule="evenodd" fill-opacity="1" /><path clip-path="url(#clip620)" d="M171.922 33.0428 Q168.311 33.0428 166.482 36.6076 Q164.677 40.1492 164.677 47.2788 Q164.677 54.3853 166.482 57.9501 Q168.311 61.4917 171.922 61.4917 Q175.556 61.4917 177.362 57.9501 Q179.19 54.3853 179.19 47.2788 Q179.19 40.1492 177.362 36.6076 Q175.556 33.0428 171.922 33.0428 M171.922 29.3391 Q177.732 29.3391 180.788 33.9456 Q183.866 38.5289 183.866 47.2788 Q183.866 56.0056 180.788 60.6121 Q177.732 65.1954 171.922 65.1954 Q166.112 65.1954 163.033 60.6121 Q159.978 56.0056 159.978 47.2788 Q159.978 38.5289 163.033 33.9456 Q166.112 29.3391 171.922 29.3391 Z" fill="#000000" fill-rule="evenodd" fill-opacity="1" /><path clip-path="url(#clip620)" d="M21.7677 1174.35 L39.6235 1174.35 L39.6235 1166.27 Q39.6235 1161.78 37.3 1159.33 Q34.9765 1156.88 30.6797 1156.88 Q26.4147 1156.88 24.0912 1159.33 Q21.7677 1161.78 21.7677 1166.27 L21.7677 1174.35 M16.4842 1180.78 L16.4842 1166.27 Q16.4842 1158.28 20.1126 1154.2 Q23.7092 1150.1 30.6797 1150.1 Q37.7138 1150.1 41.3104 1154.2 Q44.907 1158.28 44.907 1166.27 L44.907 1174.35 L64.0042 1174.35 L64.0042 1180.78 L16.4842 1180.78 Z" fill="#000000" fill-rule="evenodd" fill-opacity="1" /><path clip-path="url(#clip620)" d="M33.8307 1122.22 Q33.2578 1123.2 33.0032 1124.38 Q32.7167 1125.53 32.7167 1126.93 Q32.7167 1131.89 35.9632 1134.56 Q39.1779 1137.21 45.2253 1137.21 L64.0042 1137.21 L64.0042 1143.09 L28.3562 1143.09 L28.3562 1137.21 L33.8944 1137.21 Q30.6479 1135.36 29.0883 1132.4 Q27.4968 1129.44 27.4968 1125.21 Q27.4968 1124.6 27.5923 1123.87 Q27.656 1123.14 27.8151 1122.25 L33.8307 1122.22 Z" fill="#000000" fill-rule="evenodd" fill-opacity="1" /><path clip-path="url(#clip620)" d="M44.7161 1087.01 L47.5806 1087.01 L47.5806 1113.94 Q53.6281 1113.56 56.8109 1110.31 Q59.9619 1107.03 59.9619 1101.21 Q59.9619 1097.83 59.1344 1094.68 Q58.3069 1091.5 56.6518 1088.38 L62.1899 1088.38 Q63.5267 1091.53 64.227 1094.84 Q64.9272 1098.15 64.9272 1101.56 Q64.9272 1110.09 59.9619 1115.09 Q54.9967 1120.05 46.5303 1120.05 Q37.7774 1120.05 32.6531 1115.34 Q27.4968 1110.6 27.4968 1102.58 Q27.4968 1095.38 32.1438 1091.21 Q36.7589 1087.01 44.7161 1087.01 M42.9973 1092.87 Q38.1912 1092.93 35.3266 1095.57 Q32.4621 1098.18 32.4621 1102.51 Q32.4621 1107.41 35.2312 1110.37 Q38.0002 1113.3 43.0292 1113.75 L42.9973 1092.87 Z" fill="#000000" fill-rule="evenodd" fill-opacity="1" /><path clip-path="url(#clip620)" d="M33.7671 1053.94 L14.479 1053.94 L14.479 1048.09 L64.0042 1048.09 L64.0042 1053.94 L58.657 1053.94 Q61.8398 1055.79 63.3994 1058.62 Q64.9272 1061.42 64.9272 1065.37 Q64.9272 1071.83 59.771 1075.9 Q54.6147 1079.95 46.212 1079.95 Q37.8093 1079.95 32.6531 1075.9 Q27.4968 1071.83 27.4968 1065.37 Q27.4968 1061.42 29.0564 1058.62 Q30.5842 1055.79 33.7671 1053.94 M46.212 1073.9 Q52.6732 1073.9 56.3653 1071.26 Q60.0256 1068.58 60.0256 1063.94 Q60.0256 1059.29 56.3653 1056.62 Q52.6732 1053.94 46.212 1053.94 Q39.7508 1053.94 36.0905 1056.62 Q32.3984 1059.29 32.3984 1063.94 Q32.3984 1068.58 36.0905 1071.26 Q39.7508 1073.9 46.212 1073.9 Z" fill="#000000" fill-rule="evenodd" fill-opacity="1" /><path clip-path="url(#clip620)" d="M28.3562 1036.02 L28.3562 1030.17 L64.0042 1030.17 L64.0042 1036.02 L28.3562 1036.02 M14.479 1036.02 L14.479 1030.17 L21.895 1030.17 L21.895 1036.02 L14.479 1036.02 Z" fill="#000000" fill-rule="evenodd" fill-opacity="1" /><path clip-path="url(#clip620)" d="M29.7248 992.259 L35.1993 992.259 Q33.8307 994.742 33.1623 997.256 Q32.4621 999.739 32.4621 1002.29 Q32.4621 1007.98 36.0905 1011.13 Q39.6872 1014.28 46.212 1014.28 Q52.7369 1014.28 56.3653 1011.13 Q59.9619 1007.98 59.9619 1002.29 Q59.9619 999.739 59.2935 997.256 Q58.5933 994.742 57.2247 992.259 L62.6355 992.259 Q63.7814 994.71 64.3543 997.352 Q64.9272 999.962 64.9272 1002.92 Q64.9272 1010.97 59.8664 1015.72 Q54.8057 1020.46 46.212 1020.46 Q37.491 1020.46 32.4939 1015.69 Q27.4968 1010.88 27.4968 1002.54 Q27.4968 999.834 28.0697 997.256 Q28.6108 994.678 29.7248 992.259 Z" fill="#000000" fill-rule="evenodd" fill-opacity="1" /><path clip-path="url(#clip620)" d="M18.2347 976.281 L28.3562 976.281 L28.3562 964.218 L32.9077 964.218 L32.9077 976.281 L52.2594 976.281 Q56.6199 976.281 57.8613 975.104 Q59.1026 973.894 59.1026 970.234 L59.1026 964.218 L64.0042 964.218 L64.0042 970.234 Q64.0042 977.013 61.4897 979.591 Q58.9434 982.17 52.2594 982.17 L32.9077 982.17 L32.9077 986.466 L28.3562 986.466 L28.3562 982.17 L18.2347 982.17 L18.2347 976.281 Z" fill="#000000" fill-rule="evenodd" fill-opacity="1" /><path clip-path="url(#clip620)" d="M28.3562 956.516 L28.3562 950.659 L64.0042 950.659 L64.0042 956.516 L28.3562 956.516 M14.479 956.516 L14.479 950.659 L21.895 950.659 L21.895 956.516 L14.479 956.516 Z" fill="#000000" fill-rule="evenodd" fill-opacity="1" /><path clip-path="url(#clip620)" d="M28.3562 942.607 L28.3562 936.4 L58.275 925.26 L28.3562 914.12 L28.3562 907.914 L64.0042 921.282 L64.0042 929.239 L28.3562 942.607 Z" fill="#000000" fill-rule="evenodd" fill-opacity="1" /><path clip-path="url(#clip620)" d="M44.7161 869.337 L47.5806 869.337 L47.5806 896.264 Q53.6281 895.882 56.8109 892.636 Q59.9619 889.358 59.9619 883.533 Q59.9619 880.159 59.1344 877.008 Q58.3069 873.825 56.6518 870.706 L62.1899 870.706 Q63.5267 873.857 64.227 877.167 Q64.9272 880.477 64.9272 883.883 Q64.9272 892.413 59.9619 897.41 Q54.9967 902.375 46.5303 902.375 Q37.7774 902.375 32.6531 897.665 Q27.4968 892.922 27.4968 884.902 Q27.4968 877.708 32.1438 873.539 Q36.7589 869.337 44.7161 869.337 M42.9973 875.194 Q38.1912 875.258 35.3266 877.899 Q32.4621 880.509 32.4621 884.838 Q32.4621 889.739 35.2312 892.7 Q38.0002 895.628 43.0292 896.073 L42.9973 875.194 Z" fill="#000000" fill-rule="evenodd" fill-opacity="1" /><path clip-path="url(#clip620)" d="M46.0847 822.804 Q46.0847 829.902 47.7079 832.639 Q49.3312 835.376 53.2461 835.376 Q56.3653 835.376 58.2114 833.339 Q60.0256 831.27 60.0256 827.738 Q60.0256 822.868 56.5881 819.94 Q53.1188 816.979 47.3897 816.979 L46.0847 816.979 L46.0847 822.804 M43.6657 811.123 L64.0042 811.123 L64.0042 816.979 L58.5933 816.979 Q61.8398 818.985 63.3994 821.977 Q64.9272 824.968 64.9272 829.297 Q64.9272 834.772 61.8716 838.018 Q58.7843 841.233 53.6281 841.233 Q47.6125 841.233 44.5569 837.222 Q41.5014 833.18 41.5014 825.191 L41.5014 816.979 L40.9285 816.979 Q36.8862 816.979 34.6901 819.653 Q32.4621 822.295 32.4621 827.101 Q32.4621 830.156 33.1941 833.053 Q33.9262 835.949 35.3903 838.623 L29.9795 838.623 Q28.7381 835.408 28.1334 832.384 Q27.4968 829.361 27.4968 826.496 Q27.4968 818.762 31.5072 814.942 Q35.5176 811.123 43.6657 811.123 Z" fill="#000000" fill-rule="evenodd" fill-opacity="1" /><path clip-path="url(#clip620)" d="M29.4065 776.334 L34.9447 776.334 Q33.6716 778.817 33.035 781.491 Q32.3984 784.164 32.3984 787.029 Q32.3984 791.389 33.7352 793.585 Q35.072 795.75 37.7456 795.75 Q39.7826 795.75 40.9603 794.19 Q42.1061 792.631 43.1565 787.92 L43.6021 785.915 Q44.9389 779.676 47.3897 777.066 Q49.8086 774.425 54.1691 774.425 Q59.1344 774.425 62.0308 778.371 Q64.9272 782.286 64.9272 789.161 Q64.9272 792.026 64.3543 795.145 Q63.8132 798.232 62.6992 801.67 L56.6518 801.67 Q58.3387 798.423 59.198 795.272 Q60.0256 792.121 60.0256 789.034 Q60.0256 784.896 58.6251 782.668 Q57.1929 780.44 54.6147 780.44 Q52.2276 780.44 50.9545 782.064 Q49.6813 783.655 48.5037 789.098 L48.0262 791.135 Q46.8804 796.577 44.5251 798.996 Q42.138 801.415 38.0002 801.415 Q32.9713 801.415 30.2341 797.851 Q27.4968 794.286 27.4968 787.729 Q27.4968 784.483 27.9743 781.618 Q28.4517 778.753 29.4065 776.334 Z" fill="#000000" fill-rule="evenodd" fill-opacity="1" /><path clip-path="url(#clip620)" d="M67.3143 750.267 Q73.68 752.749 75.6216 755.105 Q77.5631 757.46 77.5631 761.407 L77.5631 766.086 L72.6615 766.086 L72.6615 762.648 Q72.6615 760.229 71.5157 758.892 Q70.3699 757.556 66.1048 755.932 L63.4312 754.882 L28.3562 769.3 L28.3562 763.094 L56.238 751.954 L28.3562 740.814 L28.3562 734.607 L67.3143 750.267 Z" fill="#000000" fill-rule="evenodd" fill-opacity="1" /><path clip-path="url(#clip620)" d="M35.1993 698.768 Q31.2526 696.572 29.3747 693.517 Q27.4968 690.461 27.4968 686.323 Q27.4968 680.753 31.4117 677.73 Q35.2948 674.706 42.4881 674.706 L64.0042 674.706 L64.0042 680.594 L42.679 680.594 Q37.5546 680.594 35.072 682.408 Q32.5894 684.223 32.5894 687.947 Q32.5894 692.498 35.6131 695.14 Q38.6368 697.782 43.8567 697.782 L64.0042 697.782 L64.0042 703.67 L42.679 703.67 Q37.5228 703.67 35.072 705.484 Q32.5894 707.298 32.5894 711.086 Q32.5894 715.574 35.6449 718.216 Q38.6686 720.857 43.8567 720.857 L64.0042 720.857 L64.0042 726.746 L28.3562 726.746 L28.3562 720.857 L33.8944 720.857 Q30.616 718.852 29.0564 716.051 Q27.4968 713.25 27.4968 709.399 Q27.4968 705.516 29.4702 702.811 Q31.4436 700.073 35.1993 698.768 Z" fill="#000000" fill-rule="evenodd" fill-opacity="1" /><path clip-path="url(#clip620)" d="M35.1993 635.27 Q31.2526 633.074 29.3747 630.019 Q27.4968 626.963 27.4968 622.825 Q27.4968 617.255 31.4117 614.232 Q35.2948 611.208 42.4881 611.208 L64.0042 611.208 L64.0042 617.096 L42.679 617.096 Q37.5546 617.096 35.072 618.911 Q32.5894 620.725 32.5894 624.449 Q32.5894 629 35.6131 631.642 Q38.6368 634.284 43.8567 634.284 L64.0042 634.284 L64.0042 640.172 L42.679 640.172 Q37.5228 640.172 35.072 641.986 Q32.5894 643.8 32.5894 647.588 Q32.5894 652.076 35.6449 654.718 Q38.6686 657.359 43.8567 657.359 L64.0042 657.359 L64.0042 663.248 L28.3562 663.248 L28.3562 657.359 L33.8944 657.359 Q30.616 655.354 29.0564 652.553 Q27.4968 649.752 27.4968 645.901 Q27.4968 642.018 29.4702 639.313 Q31.4436 636.575 35.1993 635.27 Z" fill="#000000" fill-rule="evenodd" fill-opacity="1" /><path clip-path="url(#clip620)" d="M44.7161 569.035 L47.5806 569.035 L47.5806 595.962 Q53.6281 595.58 56.8109 592.334 Q59.9619 589.055 59.9619 583.231 Q59.9619 579.857 59.1344 576.706 Q58.3069 573.523 56.6518 570.404 L62.1899 570.404 Q63.5267 573.555 64.227 576.865 Q64.9272 580.175 64.9272 583.581 Q64.9272 592.111 59.9619 597.108 Q54.9967 602.073 46.5303 602.073 Q37.7774 602.073 32.6531 597.363 Q27.4968 592.62 27.4968 584.599 Q27.4968 577.406 32.1438 573.237 Q36.7589 569.035 44.7161 569.035 M42.9973 574.892 Q38.1912 574.955 35.3266 577.597 Q32.4621 580.207 32.4621 584.536 Q32.4621 589.437 35.2312 592.397 Q38.0002 595.326 43.0292 595.771 L42.9973 574.892 Z" fill="#000000" fill-rule="evenodd" fill-opacity="1" /><path clip-path="url(#clip620)" d="M18.2347 553.63 L28.3562 553.63 L28.3562 541.567 L32.9077 541.567 L32.9077 553.63 L52.2594 553.63 Q56.6199 553.63 57.8613 552.453 Q59.1026 551.243 59.1026 547.583 L59.1026 541.567 L64.0042 541.567 L64.0042 547.583 Q64.0042 554.362 61.4897 556.94 Q58.9434 559.518 52.2594 559.518 L32.9077 559.518 L32.9077 563.815 L28.3562 563.815 L28.3562 559.518 L18.2347 559.518 L18.2347 553.63 Z" fill="#000000" fill-rule="evenodd" fill-opacity="1" /><path clip-path="url(#clip620)" d="M33.8307 513.208 Q33.2578 514.195 33.0032 515.372 Q32.7167 516.518 32.7167 517.919 Q32.7167 522.884 35.9632 525.557 Q39.1779 528.199 45.2253 528.199 L64.0042 528.199 L64.0042 534.087 L28.3562 534.087 L28.3562 528.199 L33.8944 528.199 Q30.6479 526.353 29.0883 523.393 Q27.4968 520.433 27.4968 516.2 Q27.4968 515.595 27.5923 514.863 Q27.656 514.131 27.8151 513.24 L33.8307 513.208 Z" fill="#000000" fill-rule="evenodd" fill-opacity="1" /><path clip-path="url(#clip620)" d="M67.3143 492.233 Q73.68 494.716 75.6216 497.071 Q77.5631 499.426 77.5631 503.373 L77.5631 508.052 L72.6615 508.052 L72.6615 504.614 Q72.6615 502.195 71.5157 500.858 Q70.3699 499.522 66.1048 497.898 L63.4312 496.848 L28.3562 511.266 L28.3562 505.06 L56.238 493.92 L28.3562 482.78 L28.3562 476.573 L67.3143 492.233 Z" fill="#000000" fill-rule="evenodd" fill-opacity="1" /><path clip-path="url(#clip620)" d="M14.5426 433.7 Q21.8632 437.965 29.0246 440.034 Q36.186 442.103 43.5384 442.103 Q50.8908 442.103 58.1159 440.034 Q65.3091 437.933 72.5979 433.7 L72.5979 438.793 Q65.1182 443.567 57.8931 445.954 Q50.668 448.31 43.5384 448.31 Q36.4406 448.31 29.2474 445.954 Q22.0542 443.599 14.5426 438.793 L14.5426 433.7 Z" fill="#000000" fill-rule="evenodd" fill-opacity="1" /><path clip-path="url(#clip620)" d="M46.212 396.747 Q39.7508 396.747 36.0905 399.421 Q32.3984 402.063 32.3984 406.71 Q32.3984 411.357 36.0905 414.03 Q39.7508 416.672 46.212 416.672 Q52.6732 416.672 56.3653 414.03 Q60.0256 411.357 60.0256 406.71 Q60.0256 402.063 56.3653 399.421 Q52.6732 396.747 46.212 396.747 M33.7671 416.672 Q30.5842 414.826 29.0564 412.025 Q27.4968 409.192 27.4968 405.277 Q27.4968 398.784 32.6531 394.742 Q37.8093 390.668 46.212 390.668 Q54.6147 390.668 59.771 394.742 Q64.9272 398.784 64.9272 405.277 Q64.9272 409.192 63.3994 412.025 Q61.8398 414.826 58.657 416.672 L64.0042 416.672 L64.0042 422.56 L14.479 422.56 L14.479 416.672 L33.7671 416.672 Z" fill="#000000" fill-rule="evenodd" fill-opacity="1" /><path clip-path="url(#clip620)" d="M28.3562 380.96 L28.3562 375.104 L64.0042 375.104 L64.0042 380.96 L28.3562 380.96 M14.479 380.96 L14.479 375.104 L21.895 375.104 L21.895 380.96 L14.479 380.96 Z" fill="#000000" fill-rule="evenodd" fill-opacity="1" /><path clip-path="url(#clip620)" d="M18.2347 357.057 L28.3562 357.057 L28.3562 344.994 L32.9077 344.994 L32.9077 357.057 L52.2594 357.057 Q56.6199 357.057 57.8613 355.88 Q59.1026 354.67 59.1026 351.01 L59.1026 344.994 L64.0042 344.994 L64.0042 351.01 Q64.0042 357.789 61.4897 360.367 Q58.9434 362.945 52.2594 362.945 L32.9077 362.945 L32.9077 367.242 L28.3562 367.242 L28.3562 362.945 L18.2347 362.945 L18.2347 357.057 Z" fill="#000000" fill-rule="evenodd" fill-opacity="1" /><path clip-path="url(#clip620)" d="M29.4065 314.566 L34.9447 314.566 Q33.6716 317.049 33.035 319.722 Q32.3984 322.396 32.3984 325.26 Q32.3984 329.621 33.7352 331.817 Q35.072 333.981 37.7456 333.981 Q39.7826 333.981 40.9603 332.422 Q42.1061 330.862 43.1565 326.152 L43.6021 324.146 Q44.9389 317.908 47.3897 315.298 Q49.8086 312.656 54.1691 312.656 Q59.1344 312.656 62.0308 316.603 Q64.9272 320.518 64.9272 327.393 Q64.9272 330.258 64.3543 333.377 Q63.8132 336.464 62.6992 339.902 L56.6518 339.902 Q58.3387 336.655 59.198 333.504 Q60.0256 330.353 60.0256 327.266 Q60.0256 323.128 58.6251 320.9 Q57.1929 318.672 54.6147 318.672 Q52.2276 318.672 50.9545 320.295 Q49.6813 321.887 48.5037 327.329 L48.0262 329.366 Q46.8804 334.809 44.5251 337.228 Q42.138 339.647 38.0002 339.647 Q32.9713 339.647 30.2341 336.082 Q27.4968 332.517 27.4968 325.961 Q27.4968 322.714 27.9743 319.85 Q28.4517 316.985 29.4065 314.566 Z" fill="#000000" fill-rule="evenodd" fill-opacity="1" /><path clip-path="url(#clip620)" d="M14.5426 304.254 L14.5426 299.161 Q22.0542 294.387 29.2474 292.031 Q36.4406 289.644 43.5384 289.644 Q50.668 289.644 57.8931 292.031 Q65.1182 294.387 72.5979 299.161 L72.5979 304.254 Q65.3091 300.02 58.1159 297.952 Q50.8908 295.851 43.5384 295.851 Q36.186 295.851 29.0246 297.952 Q21.8632 300.02 14.5426 304.254 Z" fill="#000000" fill-rule="evenodd" fill-opacity="1" /><polyline clip-path="url(#clip622)" style="stroke:#000000; stroke-linecap:butt; stroke-linejoin:round; stroke-width:6; stroke-opacity:1; fill:none" points="
  280.231,1423.18 321.296,1423.18 362.36,1423.18 403.425,1423.18 444.489,1423.18 485.554,1423.18 526.618,1423.18 567.683,1423.18 608.747,1423.18 649.811,1423.18 
  690.876,1423.18 731.94,1423.18 773.005,1423.18 814.069,1423.18 855.134,1423.18 896.198,1423.18 937.263,1423.18 978.327,1423.18 1019.39,1423.18 1060.46,1423.18 
  1101.52,1423.18 1142.59,1423.18 1183.65,1423.18 1224.71,1423.18 1265.78,1423.18 1306.84,1423.18 1347.91,1423.18 1388.97,1423.18 1430.04,1423.18 1471.1,1423.18 
  1512.17,1423.18 1553.23,1423.18 1594.29,1423.18 1635.36,1423.18 1676.42,1423.18 1717.49,1423.18 1758.55,1423.18 1799.62,1423.18 1840.68,1423.18 1881.75,1423.18 
  1922.81,1423.18 1963.88,1423.18 2004.94,1423.18 2046,1423.18 2087.07,1423.18 2128.13,1423.18 2169.2,1423.18 2210.26,1423.18 2251.33,1423.18 2292.39,1423.18 
  
  "/>
<polyline clip-path="url(#clip622)" style="stroke:#000000; stroke-linecap:butt; stroke-linejoin:round; stroke-width:4; stroke-opacity:1; fill:none" stroke-dasharray="2, 4" points="
  280.231,1423.18 321.296,1423.18 362.36,1423.18 403.425,1423.18 444.489,1423.18 485.554,1423.18 526.618,1423.18 567.683,1423.18 608.747,1423.18 649.811,1423.18 
  690.876,1423.18 731.94,1423.18 773.005,1423.18 814.069,1423.18 855.134,1423.18 896.198,1423.18 937.263,1423.18 978.327,1423.18 1019.39,1423.18 1060.46,1423.18 
  1101.52,1423.18 1142.59,1423.18 1183.65,1423.18 1224.71,1423.18 1265.78,1423.18 1306.84,1423.18 1347.91,1423.18 1388.97,1423.18 1430.04,1423.18 1471.1,1423.18 
  1512.17,1423.18 1553.23,1423.18 1594.29,1423.18 1635.36,1423.18 1676.42,1423.18 1717.49,1423.18 1758.55,1423.18 1799.62,1423.18 1840.68,1423.18 1881.75,1423.18 
  1922.81,1423.18 1963.88,1423.18 2004.94,1423.18 2046,1423.18 2087.07,1423.18 2128.13,1423.18 2169.2,1423.18 2210.26,1423.18 2251.33,1423.18 2292.39,1423.18 
  
  "/>
<polyline clip-path="url(#clip622)" style="stroke:#ff0000; stroke-linecap:butt; stroke-linejoin:round; stroke-width:4; stroke-opacity:1; fill:none" points="
  280.231,1423.18 321.296,1423.18 362.36,1423.18 403.425,1423.18 444.489,1423.18 485.554,1423.18 526.618,1423.18 567.683,1423.18 608.747,1423.18 649.811,1423.18 
  690.876,1423.18 731.94,1423.18 773.005,1423.18 814.069,1423.18 855.134,1423.18 896.198,1423.18 937.263,1423.18 978.327,1423.18 1019.39,1423.18 1060.46,1423.18 
  1101.52,1423.18 1142.59,1423.18 1183.65,1423.18 1224.71,1423.18 1265.78,1423.18 1306.84,1423.18 1347.91,1423.18 1388.97,1423.18 1430.04,1423.18 1471.1,1423.18 
  1512.17,1423.18 1553.23,1423.18 1594.29,1423.18 1635.36,1423.18 1676.42,1423.18 1717.49,1423.18 1758.55,1423.18 1799.62,1423.18 1840.68,1423.18 1881.75,1423.18 
  1922.81,1423.18 1963.88,1423.18 2004.94,1423.18 2046,1423.18 2087.07,1423.18 2128.13,1423.18 2169.2,1423.18 2210.26,1423.18 2251.33,1423.18 2292.39,1423.18 
  
  "/>
<polyline clip-path="url(#clip622)" style="stroke:#ff0000; stroke-linecap:butt; stroke-linejoin:round; stroke-width:4; stroke-opacity:1; fill:none" stroke-dasharray="2, 4" points="
  280.231,1423.18 321.296,1423.18 362.36,1423.18 403.425,1423.18 444.489,1423.18 485.554,1423.18 526.618,1423.18 567.683,1423.18 608.747,1423.18 649.811,1423.18 
  690.876,1423.18 731.94,1423.18 773.005,1423.18 814.069,1423.18 855.134,1423.18 896.198,1423.18 937.263,1423.18 978.327,1423.18 1019.39,1423.18 1060.46,1423.18 
  1101.52,1423.18 1142.59,1423.18 1183.65,1423.18 1224.71,1423.18 1265.78,1423.18 1306.84,1423.18 1347.91,1423.18 1388.97,1423.18 1430.04,1423.18 1471.1,1423.18 
  1512.17,1423.18 1553.23,1423.18 1594.29,1423.18 1635.36,1423.18 1676.42,1423.18 1717.49,1423.18 1758.55,1423.18 1799.62,1423.18 1840.68,1423.18 1881.75,1423.18 
  1922.81,1423.18 1963.88,1423.18 2004.94,1423.18 2046,1423.18 2087.07,1423.18 2128.13,1423.18 2169.2,1423.18 2210.26,1423.18 2251.33,1423.18 2292.39,1423.18 
  
  "/>
<polyline clip-path="url(#clip622)" style="stroke:#808080; stroke-linecap:butt; stroke-linejoin:round; stroke-width:4; stroke-opacity:1; fill:none" stroke-dasharray="16, 10" points="
  -1913.02,1423.18 4485.65,1423.18 
  "/>
<path clip-path="url(#clip620)" d="
M1847.45 352.309 L2281.66 352.309 L2281.66 93.1086 L1847.45 93.1086  Z
  " fill="#ffffff" fill-rule="evenodd" fill-opacity="1"/>
<polyline clip-path="url(#clip620)" style="stroke:#000000; stroke-linecap:butt; stroke-linejoin:round; stroke-width:4; stroke-opacity:1; fill:none" points="
  1847.45,352.309 2281.66,352.309 2281.66,93.1086 1847.45,93.1086 1847.45,352.309 
  "/>
<polyline clip-path="url(#clip620)" style="stroke:#000000; stroke-linecap:butt; stroke-linejoin:round; stroke-width:4; stroke-opacity:1; fill:none" points="
  1871.15,144.949 2013.34,144.949 
  "/>
<path clip-path="url(#clip620)" d="M2038.61 127.669 L2043.64 127.669 L2052.23 140.516 L2060.86 127.669 L2065.88 127.669 L2054.77 144.266 L2066.62 162.229 L2061.6 162.229 L2051.88 147.53 L2042.09 162.229 L2037.04 162.229 L2049.38 143.78 L2038.61 127.669 Z" fill="#000000" fill-rule="evenodd" fill-opacity="1" /><path clip-path="url(#clip620)" d="M2073.99 158.293 L2081.62 158.293 L2081.62 131.928 L2073.31 133.595 L2073.31 129.335 L2081.58 127.669 L2086.25 127.669 L2086.25 158.293 L2093.89 158.293 L2093.89 162.229 L2073.99 162.229 L2073.99 158.293 Z" fill="#000000" fill-rule="evenodd" fill-opacity="1" /><path clip-path="url(#clip620)" d="M2122.02 128.942 L2122.02 136.303 L2130.79 136.303 L2130.79 139.613 L2122.02 139.613 L2122.02 153.687 Q2122.02 156.858 2122.87 157.761 Q2123.75 158.664 2126.42 158.664 L2130.79 158.664 L2130.79 162.229 L2126.42 162.229 Q2121.48 162.229 2119.61 160.4 Q2117.73 158.548 2117.73 153.687 L2117.73 139.613 L2114.61 139.613 L2114.61 136.303 L2117.73 136.303 L2117.73 128.942 L2122.02 128.942 Z" fill="#000000" fill-rule="evenodd" fill-opacity="1" /><path clip-path="url(#clip620)" d="M2146.44 139.289 Q2143.01 139.289 2141.02 141.974 Q2139.03 144.636 2139.03 149.289 Q2139.03 153.942 2141 156.627 Q2142.99 159.289 2146.44 159.289 Q2149.84 159.289 2151.83 156.604 Q2153.82 153.918 2153.82 149.289 Q2153.82 144.682 2151.83 141.997 Q2149.84 139.289 2146.44 139.289 M2146.44 135.678 Q2151.99 135.678 2155.17 139.289 Q2158.34 142.9 2158.34 149.289 Q2158.34 155.655 2155.17 159.289 Q2151.99 162.9 2146.44 162.9 Q2140.86 162.9 2137.69 159.289 Q2134.54 155.655 2134.54 149.289 Q2134.54 142.9 2137.69 139.289 Q2140.86 135.678 2146.44 135.678 Z" fill="#000000" fill-rule="evenodd" fill-opacity="1" /><path clip-path="url(#clip620)" d="M2178.98 127.669 L2184.01 127.669 L2192.6 140.516 L2201.23 127.669 L2206.25 127.669 L2195.14 144.266 L2206.99 162.229 L2201.97 162.229 L2192.25 147.53 L2182.46 162.229 L2177.41 162.229 L2189.75 143.78 L2178.98 127.669 Z" fill="#000000" fill-rule="evenodd" fill-opacity="1" /><path clip-path="url(#clip620)" d="M2217.57 158.293 L2233.89 158.293 L2233.89 162.229 L2211.95 162.229 L2211.95 158.293 Q2214.61 155.539 2219.19 150.909 Q2223.8 146.256 2224.98 144.914 Q2227.23 142.391 2228.1 140.655 Q2229.01 138.895 2229.01 137.206 Q2229.01 134.451 2227.06 132.715 Q2225.14 130.979 2222.04 130.979 Q2219.84 130.979 2217.39 131.743 Q2214.96 132.507 2212.18 134.057 L2212.18 129.335 Q2215 128.201 2217.46 127.622 Q2219.91 127.044 2221.95 127.044 Q2227.32 127.044 2230.51 129.729 Q2233.71 132.414 2233.71 136.905 Q2233.71 139.034 2232.9 140.956 Q2232.11 142.854 2230 145.446 Q2229.42 146.118 2226.32 149.335 Q2223.22 152.53 2217.57 158.293 Z" fill="#000000" fill-rule="evenodd" fill-opacity="1" /><polyline clip-path="url(#clip620)" style="stroke:#000000; stroke-linecap:butt; stroke-linejoin:round; stroke-width:4; stroke-opacity:1; fill:none" stroke-dasharray="2, 4" points="
  1871.15,196.789 2013.34,196.789 
  "/>
<path clip-path="url(#clip620)" d="M2038.61 179.509 L2043.64 179.509 L2052.23 192.356 L2060.86 179.509 L2065.88 179.509 L2054.77 196.106 L2066.62 214.069 L2061.6 214.069 L2051.88 199.37 L2042.09 214.069 L2037.04 214.069 L2049.38 195.62 L2038.61 179.509 Z" fill="#000000" fill-rule="evenodd" fill-opacity="1" /><path clip-path="url(#clip620)" d="M2073.99 210.133 L2081.62 210.133 L2081.62 183.768 L2073.31 185.435 L2073.31 181.175 L2081.58 179.509 L2086.25 179.509 L2086.25 210.133 L2093.89 210.133 L2093.89 214.069 L2073.99 214.069 L2073.99 210.133 Z" fill="#000000" fill-rule="evenodd" fill-opacity="1" /><path clip-path="url(#clip620)" d="M2122.02 180.782 L2122.02 188.143 L2130.79 188.143 L2130.79 191.453 L2122.02 191.453 L2122.02 205.527 Q2122.02 208.698 2122.87 209.601 Q2123.75 210.504 2126.42 210.504 L2130.79 210.504 L2130.79 214.069 L2126.42 214.069 Q2121.48 214.069 2119.61 212.24 Q2117.73 210.388 2117.73 205.527 L2117.73 191.453 L2114.61 191.453 L2114.61 188.143 L2117.73 188.143 L2117.73 180.782 L2122.02 180.782 Z" fill="#000000" fill-rule="evenodd" fill-opacity="1" /><path clip-path="url(#clip620)" d="M2146.44 191.129 Q2143.01 191.129 2141.02 193.814 Q2139.03 196.476 2139.03 201.129 Q2139.03 205.782 2141 208.467 Q2142.99 211.129 2146.44 211.129 Q2149.84 211.129 2151.83 208.444 Q2153.82 205.758 2153.82 201.129 Q2153.82 196.522 2151.83 193.837 Q2149.84 191.129 2146.44 191.129 M2146.44 187.518 Q2151.99 187.518 2155.17 191.129 Q2158.34 194.74 2158.34 201.129 Q2158.34 207.495 2155.17 211.129 Q2151.99 214.74 2146.44 214.74 Q2140.86 214.74 2137.69 211.129 Q2134.54 207.495 2134.54 201.129 Q2134.54 194.74 2137.69 191.129 Q2140.86 187.518 2146.44 187.518 Z" fill="#000000" fill-rule="evenodd" fill-opacity="1" /><path clip-path="url(#clip620)" d="M2178.98 179.509 L2184.01 179.509 L2192.6 192.356 L2201.23 179.509 L2206.25 179.509 L2195.14 196.106 L2206.99 214.069 L2201.97 214.069 L2192.25 199.37 L2182.46 214.069 L2177.41 214.069 L2189.75 195.62 L2178.98 179.509 Z" fill="#000000" fill-rule="evenodd" fill-opacity="1" /><path clip-path="url(#clip620)" d="M2217.57 210.133 L2233.89 210.133 L2233.89 214.069 L2211.95 214.069 L2211.95 210.133 Q2214.61 207.379 2219.19 202.749 Q2223.8 198.096 2224.98 196.754 Q2227.23 194.231 2228.1 192.495 Q2229.01 190.735 2229.01 189.046 Q2229.01 186.291 2227.06 184.555 Q2225.14 182.819 2222.04 182.819 Q2219.84 182.819 2217.39 183.583 Q2214.96 184.347 2212.18 185.897 L2212.18 181.175 Q2215 180.041 2217.46 179.462 Q2219.91 178.884 2221.95 178.884 Q2227.32 178.884 2230.51 181.569 Q2233.71 184.254 2233.71 188.745 Q2233.71 190.874 2232.9 192.796 Q2232.11 194.694 2230 197.286 Q2229.42 197.958 2226.32 201.175 Q2223.22 204.37 2217.57 210.133 Z" fill="#000000" fill-rule="evenodd" fill-opacity="1" /><polyline clip-path="url(#clip620)" style="stroke:#ff0000; stroke-linecap:butt; stroke-linejoin:round; stroke-width:4; stroke-opacity:1; fill:none" points="
  1871.15,248.629 2013.34,248.629 
  "/>
<path clip-path="url(#clip620)" d="M2038.61 231.349 L2043.64 231.349 L2052.23 244.196 L2060.86 231.349 L2065.88 231.349 L2054.77 247.946 L2066.62 265.909 L2061.6 265.909 L2051.88 251.21 L2042.09 265.909 L2037.04 265.909 L2049.38 247.46 L2038.61 231.349 Z" fill="#000000" fill-rule="evenodd" fill-opacity="1" /><path clip-path="url(#clip620)" d="M2077.2 261.973 L2093.52 261.973 L2093.52 265.909 L2071.58 265.909 L2071.58 261.973 Q2074.24 259.219 2078.82 254.589 Q2083.43 249.936 2084.61 248.594 Q2086.86 246.071 2087.74 244.335 Q2088.64 242.575 2088.64 240.886 Q2088.64 238.131 2086.69 236.395 Q2084.77 234.659 2081.67 234.659 Q2079.47 234.659 2077.02 235.423 Q2074.59 236.187 2071.81 237.737 L2071.81 233.015 Q2074.63 231.881 2077.09 231.302 Q2079.54 230.724 2081.58 230.724 Q2086.95 230.724 2090.14 233.409 Q2093.34 236.094 2093.34 240.585 Q2093.34 242.714 2092.53 244.636 Q2091.74 246.534 2089.63 249.126 Q2089.05 249.798 2085.95 253.015 Q2082.85 256.21 2077.2 261.973 Z" fill="#000000" fill-rule="evenodd" fill-opacity="1" /><path clip-path="url(#clip620)" d="M2122.02 232.622 L2122.02 239.983 L2130.79 239.983 L2130.79 243.293 L2122.02 243.293 L2122.02 257.367 Q2122.02 260.538 2122.87 261.441 Q2123.75 262.344 2126.42 262.344 L2130.79 262.344 L2130.79 265.909 L2126.42 265.909 Q2121.48 265.909 2119.61 264.08 Q2117.73 262.228 2117.73 257.367 L2117.73 243.293 L2114.61 243.293 L2114.61 239.983 L2117.73 239.983 L2117.73 232.622 L2122.02 232.622 Z" fill="#000000" fill-rule="evenodd" fill-opacity="1" /><path clip-path="url(#clip620)" d="M2146.44 242.969 Q2143.01 242.969 2141.02 245.654 Q2139.03 248.316 2139.03 252.969 Q2139.03 257.622 2141 260.307 Q2142.99 262.969 2146.44 262.969 Q2149.84 262.969 2151.83 260.284 Q2153.82 257.598 2153.82 252.969 Q2153.82 248.362 2151.83 245.677 Q2149.84 242.969 2146.44 242.969 M2146.44 239.358 Q2151.99 239.358 2155.17 242.969 Q2158.34 246.58 2158.34 252.969 Q2158.34 259.335 2155.17 262.969 Q2151.99 266.58 2146.44 266.58 Q2140.86 266.58 2137.69 262.969 Q2134.54 259.335 2134.54 252.969 Q2134.54 246.58 2137.69 242.969 Q2140.86 239.358 2146.44 239.358 Z" fill="#000000" fill-rule="evenodd" fill-opacity="1" /><path clip-path="url(#clip620)" d="M2178.98 231.349 L2184.01 231.349 L2192.6 244.196 L2201.23 231.349 L2206.25 231.349 L2195.14 247.946 L2206.99 265.909 L2201.97 265.909 L2192.25 251.21 L2182.46 265.909 L2177.41 265.909 L2189.75 247.46 L2178.98 231.349 Z" fill="#000000" fill-rule="evenodd" fill-opacity="1" /><path clip-path="url(#clip620)" d="M2214.35 261.973 L2221.99 261.973 L2221.99 235.608 L2213.68 237.275 L2213.68 233.015 L2221.95 231.349 L2226.62 231.349 L2226.62 261.973 L2234.26 261.973 L2234.26 265.909 L2214.35 265.909 L2214.35 261.973 Z" fill="#000000" fill-rule="evenodd" fill-opacity="1" /><polyline clip-path="url(#clip620)" style="stroke:#ff0000; stroke-linecap:butt; stroke-linejoin:round; stroke-width:4; stroke-opacity:1; fill:none" stroke-dasharray="2, 4" points="
  1871.15,300.469 2013.34,300.469 
  "/>
<path clip-path="url(#clip620)" d="M2038.61 283.189 L2043.64 283.189 L2052.23 296.036 L2060.86 283.189 L2065.88 283.189 L2054.77 299.786 L2066.62 317.749 L2061.6 317.749 L2051.88 303.05 L2042.09 317.749 L2037.04 317.749 L2049.38 299.3 L2038.61 283.189 Z" fill="#000000" fill-rule="evenodd" fill-opacity="1" /><path clip-path="url(#clip620)" d="M2077.2 313.813 L2093.52 313.813 L2093.52 317.749 L2071.58 317.749 L2071.58 313.813 Q2074.24 311.059 2078.82 306.429 Q2083.43 301.776 2084.61 300.434 Q2086.86 297.911 2087.74 296.175 Q2088.64 294.415 2088.64 292.726 Q2088.64 289.971 2086.69 288.235 Q2084.77 286.499 2081.67 286.499 Q2079.47 286.499 2077.02 287.263 Q2074.59 288.027 2071.81 289.577 L2071.81 284.855 Q2074.63 283.721 2077.09 283.142 Q2079.54 282.564 2081.58 282.564 Q2086.95 282.564 2090.14 285.249 Q2093.34 287.934 2093.34 292.425 Q2093.34 294.554 2092.53 296.476 Q2091.74 298.374 2089.63 300.966 Q2089.05 301.638 2085.95 304.855 Q2082.85 308.05 2077.2 313.813 Z" fill="#000000" fill-rule="evenodd" fill-opacity="1" /><path clip-path="url(#clip620)" d="M2122.02 284.462 L2122.02 291.823 L2130.79 291.823 L2130.79 295.133 L2122.02 295.133 L2122.02 309.207 Q2122.02 312.378 2122.87 313.281 Q2123.75 314.184 2126.42 314.184 L2130.79 314.184 L2130.79 317.749 L2126.42 317.749 Q2121.48 317.749 2119.61 315.92 Q2117.73 314.068 2117.73 309.207 L2117.73 295.133 L2114.61 295.133 L2114.61 291.823 L2117.73 291.823 L2117.73 284.462 L2122.02 284.462 Z" fill="#000000" fill-rule="evenodd" fill-opacity="1" /><path clip-path="url(#clip620)" d="M2146.44 294.809 Q2143.01 294.809 2141.02 297.494 Q2139.03 300.156 2139.03 304.809 Q2139.03 309.462 2141 312.147 Q2142.99 314.809 2146.44 314.809 Q2149.84 314.809 2151.83 312.124 Q2153.82 309.438 2153.82 304.809 Q2153.82 300.202 2151.83 297.517 Q2149.84 294.809 2146.44 294.809 M2146.44 291.198 Q2151.99 291.198 2155.17 294.809 Q2158.34 298.42 2158.34 304.809 Q2158.34 311.175 2155.17 314.809 Q2151.99 318.42 2146.44 318.42 Q2140.86 318.42 2137.69 314.809 Q2134.54 311.175 2134.54 304.809 Q2134.54 298.42 2137.69 294.809 Q2140.86 291.198 2146.44 291.198 Z" fill="#000000" fill-rule="evenodd" fill-opacity="1" /><path clip-path="url(#clip620)" d="M2178.98 283.189 L2184.01 283.189 L2192.6 296.036 L2201.23 283.189 L2206.25 283.189 L2195.14 299.786 L2206.99 317.749 L2201.97 317.749 L2192.25 303.05 L2182.46 317.749 L2177.41 317.749 L2189.75 299.3 L2178.98 283.189 Z" fill="#000000" fill-rule="evenodd" fill-opacity="1" /><path clip-path="url(#clip620)" d="M2214.35 313.813 L2221.99 313.813 L2221.99 287.448 L2213.68 289.115 L2213.68 284.855 L2221.95 283.189 L2226.62 283.189 L2226.62 313.813 L2234.26 313.813 L2234.26 317.749 L2214.35 317.749 L2214.35 313.813 Z" fill="#000000" fill-rule="evenodd" fill-opacity="1" /></svg>
