<?xml version="1.0" encoding="utf-8"?>
<svg xmlns="http://www.w3.org/2000/svg" xmlns:xlink="http://www.w3.org/1999/xlink" width="600" height="400" viewBox="0 0 2400 1600">
<defs>
  <clipPath id="clip5100">
    <rect x="0" y="0" width="2000" height="2000"/>
  </clipPath>
</defs>
<defs>
  <clipPath id="clip5101">
    <rect x="0" y="0" width="2400" height="1600"/>
  </clipPath>
</defs>
<polygon clip-path="url(#clip5101)" points="
0,1600 2400,1600 2400,0 0,0 
  " fill="#ffffff" fill-rule="evenodd" fill-opacity="1"/>
<defs>
  <clipPath id="clip5102">
    <rect x="480" y="0" width="1681" height="1600"/>
  </clipPath>
</defs>
<polygon clip-path="url(#clip5101)" points="
224.386,1440.48 2321.26,1440.48 2321.26,47.2441 224.386,47.2441 
  " fill="#ffffff" fill-rule="evenodd" fill-opacity="1"/>
<defs>
  <clipPath id="clip5103">
    <rect x="224" y="47" width="2098" height="1394"/>
  </clipPath>
</defs>
<polyline clip-path="url(#clip5103)" style="stroke:#000000; stroke-width:2; stroke-opacity:0.1; fill:none" points="
  578.355,1440.48 578.355,47.2441 
  "/>
<polyline clip-path="url(#clip5103)" style="stroke:#000000; stroke-width:2; stroke-opacity:0.1; fill:none" points="
  999.245,1440.48 999.245,47.2441 
  "/>
<polyline clip-path="url(#clip5103)" style="stroke:#000000; stroke-width:2; stroke-opacity:0.1; fill:none" points="
  1420.13,1440.48 1420.13,47.2441 
  "/>
<polyline clip-path="url(#clip5103)" style="stroke:#000000; stroke-width:2; stroke-opacity:0.1; fill:none" points="
  1841.02,1440.48 1841.02,47.2441 
  "/>
<polyline clip-path="url(#clip5103)" style="stroke:#000000; stroke-width:2; stroke-opacity:0.1; fill:none" points="
  2261.91,1440.48 2261.91,47.2441 
  "/>
<polyline clip-path="url(#clip5103)" style="stroke:#000000; stroke-width:2; stroke-opacity:0.1; fill:none" points="
  224.386,1411.14 2321.26,1411.14 
  "/>
<polyline clip-path="url(#clip5103)" style="stroke:#000000; stroke-width:2; stroke-opacity:0.1; fill:none" points="
  224.386,1068.12 2321.26,1068.12 
  "/>
<polyline clip-path="url(#clip5103)" style="stroke:#000000; stroke-width:2; stroke-opacity:0.1; fill:none" points="
  224.386,725.106 2321.26,725.106 
  "/>
<polyline clip-path="url(#clip5103)" style="stroke:#000000; stroke-width:2; stroke-opacity:0.1; fill:none" points="
  224.386,382.087 2321.26,382.087 
  "/>
<polyline clip-path="url(#clip5101)" style="stroke:#000000; stroke-width:4; stroke-opacity:1; fill:none" points="
  224.386,1440.48 2321.26,1440.48 
  "/>
<polyline clip-path="url(#clip5101)" style="stroke:#000000; stroke-width:4; stroke-opacity:1; fill:none" points="
  224.386,1440.48 224.386,47.2441 
  "/>
<polyline clip-path="url(#clip5101)" style="stroke:#000000; stroke-width:4; stroke-opacity:1; fill:none" points="
  578.355,1440.48 578.355,1419.58 
  "/>
<polyline clip-path="url(#clip5101)" style="stroke:#000000; stroke-width:4; stroke-opacity:1; fill:none" points="
  999.245,1440.48 999.245,1419.58 
  "/>
<polyline clip-path="url(#clip5101)" style="stroke:#000000; stroke-width:4; stroke-opacity:1; fill:none" points="
  1420.13,1440.48 1420.13,1419.58 
  "/>
<polyline clip-path="url(#clip5101)" style="stroke:#000000; stroke-width:4; stroke-opacity:1; fill:none" points="
  1841.02,1440.48 1841.02,1419.58 
  "/>
<polyline clip-path="url(#clip5101)" style="stroke:#000000; stroke-width:4; stroke-opacity:1; fill:none" points="
  2261.91,1440.48 2261.91,1419.58 
  "/>
<polyline clip-path="url(#clip5101)" style="stroke:#000000; stroke-width:4; stroke-opacity:1; fill:none" points="
  224.386,1411.14 255.839,1411.14 
  "/>
<polyline clip-path="url(#clip5101)" style="stroke:#000000; stroke-width:4; stroke-opacity:1; fill:none" points="
  224.386,1068.12 255.839,1068.12 
  "/>
<polyline clip-path="url(#clip5101)" style="stroke:#000000; stroke-width:4; stroke-opacity:1; fill:none" points="
  224.386,725.106 255.839,725.106 
  "/>
<polyline clip-path="url(#clip5101)" style="stroke:#000000; stroke-width:4; stroke-opacity:1; fill:none" points="
  224.386,382.087 255.839,382.087 
  "/>
<g clip-path="url(#clip5101)">
<text style="fill:#000000; fill-opacity:1; font-family:Arial,Helvetica Neue,Helvetica,sans-serif; font-size:48px; text-anchor:middle;" transform="rotate(0, 578.355, 1494.48)" x="578.355" y="1494.48">10</text>
</g>
<g clip-path="url(#clip5101)">
<text style="fill:#000000; fill-opacity:1; font-family:Arial,Helvetica Neue,Helvetica,sans-serif; font-size:48px; text-anchor:middle;" transform="rotate(0, 999.245, 1494.48)" x="999.245" y="1494.48">20</text>
</g>
<g clip-path="url(#clip5101)">
<text style="fill:#000000; fill-opacity:1; font-family:Arial,Helvetica Neue,Helvetica,sans-serif; font-size:48px; text-anchor:middle;" transform="rotate(0, 1420.13, 1494.48)" x="1420.13" y="1494.48">30</text>
</g>
<g clip-path="url(#clip5101)">
<text style="fill:#000000; fill-opacity:1; font-family:Arial,Helvetica Neue,Helvetica,sans-serif; font-size:48px; text-anchor:middle;" transform="rotate(0, 1841.02, 1494.48)" x="1841.02" y="1494.48">40</text>
</g>
<g clip-path="url(#clip5101)">
<text style="fill:#000000; fill-opacity:1; font-family:Arial,Helvetica Neue,Helvetica,sans-serif; font-size:48px; text-anchor:middle;" transform="rotate(0, 2261.91, 1494.48)" x="2261.91" y="1494.48">50</text>
</g>
<g clip-path="url(#clip5101)">
<text style="fill:#000000; fill-opacity:1; font-family:Arial,Helvetica Neue,Helvetica,sans-serif; font-size:48px; text-anchor:end;" transform="rotate(0, 200.386, 1428.64)" x="200.386" y="1428.64">0.0</text>
</g>
<g clip-path="url(#clip5101)">
<text style="fill:#000000; fill-opacity:1; font-family:Arial,Helvetica Neue,Helvetica,sans-serif; font-size:48px; text-anchor:end;" transform="rotate(0, 200.386, 1085.62)" x="200.386" y="1085.62">0.2</text>
</g>
<g clip-path="url(#clip5101)">
<text style="fill:#000000; fill-opacity:1; font-family:Arial,Helvetica Neue,Helvetica,sans-serif; font-size:48px; text-anchor:end;" transform="rotate(0, 200.386, 742.606)" x="200.386" y="742.606">0.4</text>
</g>
<g clip-path="url(#clip5101)">
<text style="fill:#000000; fill-opacity:1; font-family:Arial,Helvetica Neue,Helvetica,sans-serif; font-size:48px; text-anchor:end;" transform="rotate(0, 200.386, 399.587)" x="200.386" y="399.587">0.6</text>
</g>
<g clip-path="url(#clip5101)">
<text style="fill:#000000; fill-opacity:1; font-family:Arial,Helvetica Neue,Helvetica,sans-serif; font-size:66px; text-anchor:middle;" transform="rotate(0, 1272.82, 1590.4)" x="1272.82" y="1590.4">Average number of subdivisions along the embedding axes</text>
</g>
<g clip-path="url(#clip5101)">
<text style="fill:#000000; fill-opacity:1; font-family:Arial,Helvetica Neue,Helvetica,sans-serif; font-size:66px; text-anchor:middle;" transform="rotate(-90, 57.6, 743.863)" x="57.6" y="743.863">Transfer entropy (bits)</text>
</g>
<polyline clip-path="url(#clip5103)" style="stroke:#000000; stroke-width:4; stroke-opacity:1; fill:none" points="
  283.732,1362.67 325.821,1249.39 367.91,1091.48 409.999,1041.57 452.088,854.192 494.177,825.722 536.266,714.966 578.355,716.259 620.444,704.132 662.533,564.085 
  704.622,468.473 746.711,484.79 788.8,413.16 830.889,431.863 872.978,312.192 915.067,313.335 957.156,295.428 999.245,270.08 1041.33,313.496 1083.42,351.537 
  1125.51,214.739 1167.6,114.54 1209.69,256.893 1251.78,153.284 1293.87,86.6754 1335.96,120.673 1378.05,143.807 1420.13,149.49 1462.22,167.946 1504.31,136.076 
  1546.4,142.109 1588.49,141.869 1630.58,102.166 1672.67,163.894 1714.76,171.258 1756.85,205.709 1798.94,188.658 1841.02,236.026 1883.11,188.661 1925.2,284.855 
  1967.29,129.455 2009.38,246.294 2051.47,310.105 2093.56,257.629 2135.65,244.234 2177.74,250.749 2219.83,286.345 2261.91,347.436 
  "/>
<polyline clip-path="url(#clip5103)" style="stroke:#ff0000; stroke-width:4; stroke-opacity:1; fill:none" points="
  283.732,1341.51 325.821,1401.05 367.91,1346.7 409.999,1274.06 452.088,1287.2 494.177,1315.67 536.266,1297.31 578.355,1254.27 620.444,1246.58 662.533,1217.86 
  704.622,1191.44 746.711,1195.43 788.8,1142.45 830.889,1061.78 872.978,1104.66 915.067,1055.79 957.156,1048.18 999.245,1096.58 1041.33,1072.68 1083.42,988.255 
  1125.51,1043.84 1167.6,911.496 1209.69,894.545 1251.78,942.591 1293.87,905.861 1335.96,872.273 1378.05,781.825 1420.13,903.24 1462.22,911.044 1504.31,790.828 
  1546.4,819.822 1588.49,813.965 1630.58,755.761 1672.67,842.748 1714.76,747.326 1756.85,722.677 1798.94,787.434 1841.02,618.897 1883.11,770.033 1925.2,725.402 
  1967.29,699.616 2009.38,715.406 2051.47,621.597 2093.56,688.972 2135.65,579.003 2177.74,633.692 2219.83,622.244 2261.91,604.07 
  "/>
<polygon clip-path="url(#clip5101)" points="
1784.57,312.204 2249.26,312.204 2249.26,130.764 1784.57,130.764 
  " fill="#ffffff" fill-rule="evenodd" fill-opacity="1"/>
<polyline clip-path="url(#clip5101)" style="stroke:#000000; stroke-width:4; stroke-opacity:1; fill:none" points="
  1784.57,312.204 2249.26,312.204 2249.26,130.764 1784.57,130.764 1784.57,312.204 
  "/>
<polyline clip-path="url(#clip5101)" style="stroke:#000000; stroke-width:4; stroke-opacity:1; fill:none" points="
  1808.57,191.244 1952.57,191.244 
  "/>
<g clip-path="url(#clip5101)">
<text style="fill:#000000; fill-opacity:1; font-family:Arial,Helvetica Neue,Helvetica,sans-serif; font-size:48px; text-anchor:start;" transform="rotate(0, 1976.57, 208.744)" x="1976.57" y="208.744">TE(x -&gt; y)</text>
</g>
<polyline clip-path="url(#clip5101)" style="stroke:#ff0000; stroke-width:4; stroke-opacity:1; fill:none" points="
  1808.57,251.724 1952.57,251.724 
  "/>
<g clip-path="url(#clip5101)">
<text style="fill:#000000; fill-opacity:1; font-family:Arial,Helvetica Neue,Helvetica,sans-serif; font-size:48px; text-anchor:start;" transform="rotate(0, 1976.57, 269.224)" x="1976.57" y="269.224">TE(y -&gt; x)</text>
</g>
</svg>
