<?xml version="1.0" encoding="utf-8"?>
<svg xmlns="http://www.w3.org/2000/svg" xmlns:xlink="http://www.w3.org/1999/xlink" width="600" height="400" viewBox="0 0 2400 1600">
<defs>
  <clipPath id="clip5000">
    <rect x="0" y="0" width="2000" height="2000"/>
  </clipPath>
</defs>
<defs>
  <clipPath id="clip5001">
    <rect x="0" y="0" width="2400" height="1600"/>
  </clipPath>
</defs>
<polygon clip-path="url(#clip5001)" points="
0,1600 2400,1600 2400,0 0,0 
  " fill="#ffffff" fill-rule="evenodd" fill-opacity="1"/>
<defs>
  <clipPath id="clip5002">
    <rect x="480" y="0" width="1681" height="1600"/>
  </clipPath>
</defs>
<polygon clip-path="url(#clip5001)" points="
224.386,1440.48 2321.26,1440.48 2321.26,47.2441 224.386,47.2441 
  " fill="#ffffff" fill-rule="evenodd" fill-opacity="1"/>
<defs>
  <clipPath id="clip5003">
    <rect x="224" y="47" width="2098" height="1394"/>
  </clipPath>
</defs>
<polyline clip-path="url(#clip5003)" style="stroke:#000000; stroke-width:2; stroke-opacity:0.1; fill:none" points="
  2070.48,1440.48 2070.48,47.2441 
  "/>
<polyline clip-path="url(#clip5003)" style="stroke:#000000; stroke-width:2; stroke-opacity:0.1; fill:none" points="
  1559.98,1440.48 1559.98,47.2441 
  "/>
<polyline clip-path="url(#clip5003)" style="stroke:#000000; stroke-width:2; stroke-opacity:0.1; fill:none" points="
  1049.48,1440.48 1049.48,47.2441 
  "/>
<polyline clip-path="url(#clip5003)" style="stroke:#000000; stroke-width:2; stroke-opacity:0.1; fill:none" points="
  538.981,1440.48 538.981,47.2441 
  "/>
<polyline clip-path="url(#clip5003)" style="stroke:#000000; stroke-width:2; stroke-opacity:0.1; fill:none" points="
  2321.26,1401.05 224.386,1401.05 
  "/>
<polyline clip-path="url(#clip5003)" style="stroke:#000000; stroke-width:2; stroke-opacity:0.1; fill:none" points="
  2321.26,1140.17 224.386,1140.17 
  "/>
<polyline clip-path="url(#clip5003)" style="stroke:#000000; stroke-width:2; stroke-opacity:0.1; fill:none" points="
  2321.26,879.296 224.386,879.296 
  "/>
<polyline clip-path="url(#clip5003)" style="stroke:#000000; stroke-width:2; stroke-opacity:0.1; fill:none" points="
  2321.26,618.418 224.386,618.418 
  "/>
<polyline clip-path="url(#clip5003)" style="stroke:#000000; stroke-width:2; stroke-opacity:0.1; fill:none" points="
  2321.26,357.54 224.386,357.54 
  "/>
<polyline clip-path="url(#clip5003)" style="stroke:#000000; stroke-width:2; stroke-opacity:0.1; fill:none" points="
  2321.26,96.6621 224.386,96.6621 
  "/>
<polyline clip-path="url(#clip5001)" style="stroke:#000000; stroke-width:4; stroke-opacity:1; fill:none" points="
  2321.26,1440.48 224.386,1440.48 
  "/>
<polyline clip-path="url(#clip5001)" style="stroke:#000000; stroke-width:4; stroke-opacity:1; fill:none" points="
  224.386,1440.48 224.386,47.2441 
  "/>
<polyline clip-path="url(#clip5001)" style="stroke:#000000; stroke-width:4; stroke-opacity:1; fill:none" points="
  2070.48,1440.48 2070.48,1419.58 
  "/>
<polyline clip-path="url(#clip5001)" style="stroke:#000000; stroke-width:4; stroke-opacity:1; fill:none" points="
  1559.98,1440.48 1559.98,1419.58 
  "/>
<polyline clip-path="url(#clip5001)" style="stroke:#000000; stroke-width:4; stroke-opacity:1; fill:none" points="
  1049.48,1440.48 1049.48,1419.58 
  "/>
<polyline clip-path="url(#clip5001)" style="stroke:#000000; stroke-width:4; stroke-opacity:1; fill:none" points="
  538.981,1440.48 538.981,1419.58 
  "/>
<polyline clip-path="url(#clip5001)" style="stroke:#000000; stroke-width:4; stroke-opacity:1; fill:none" points="
  224.386,1401.05 255.839,1401.05 
  "/>
<polyline clip-path="url(#clip5001)" style="stroke:#000000; stroke-width:4; stroke-opacity:1; fill:none" points="
  224.386,1140.17 255.839,1140.17 
  "/>
<polyline clip-path="url(#clip5001)" style="stroke:#000000; stroke-width:4; stroke-opacity:1; fill:none" points="
  224.386,879.296 255.839,879.296 
  "/>
<polyline clip-path="url(#clip5001)" style="stroke:#000000; stroke-width:4; stroke-opacity:1; fill:none" points="
  224.386,618.418 255.839,618.418 
  "/>
<polyline clip-path="url(#clip5001)" style="stroke:#000000; stroke-width:4; stroke-opacity:1; fill:none" points="
  224.386,357.54 255.839,357.54 
  "/>
<polyline clip-path="url(#clip5001)" style="stroke:#000000; stroke-width:4; stroke-opacity:1; fill:none" points="
  224.386,96.6621 255.839,96.6621 
  "/>
<g clip-path="url(#clip5001)">
<text style="fill:#000000; fill-opacity:1; font-family:Arial,Helvetica Neue,Helvetica,sans-serif; font-size:48px; text-anchor:middle;" transform="rotate(0, 2070.48, 1494.48)" x="2070.48" y="1494.48">0.1</text>
</g>
<g clip-path="url(#clip5001)">
<text style="fill:#000000; fill-opacity:1; font-family:Arial,Helvetica Neue,Helvetica,sans-serif; font-size:48px; text-anchor:middle;" transform="rotate(0, 1559.98, 1494.48)" x="1559.98" y="1494.48">0.2</text>
</g>
<g clip-path="url(#clip5001)">
<text style="fill:#000000; fill-opacity:1; font-family:Arial,Helvetica Neue,Helvetica,sans-serif; font-size:48px; text-anchor:middle;" transform="rotate(0, 1049.48, 1494.48)" x="1049.48" y="1494.48">0.3</text>
</g>
<g clip-path="url(#clip5001)">
<text style="fill:#000000; fill-opacity:1; font-family:Arial,Helvetica Neue,Helvetica,sans-serif; font-size:48px; text-anchor:middle;" transform="rotate(0, 538.981, 1494.48)" x="538.981" y="1494.48">0.4</text>
</g>
<g clip-path="url(#clip5001)">
<text style="fill:#000000; fill-opacity:1; font-family:Arial,Helvetica Neue,Helvetica,sans-serif; font-size:48px; text-anchor:end;" transform="rotate(0, 200.386, 1418.55)" x="200.386" y="1418.55">0.0</text>
</g>
<g clip-path="url(#clip5001)">
<text style="fill:#000000; fill-opacity:1; font-family:Arial,Helvetica Neue,Helvetica,sans-serif; font-size:48px; text-anchor:end;" transform="rotate(0, 200.386, 1157.67)" x="200.386" y="1157.67">0.1</text>
</g>
<g clip-path="url(#clip5001)">
<text style="fill:#000000; fill-opacity:1; font-family:Arial,Helvetica Neue,Helvetica,sans-serif; font-size:48px; text-anchor:end;" transform="rotate(0, 200.386, 896.796)" x="200.386" y="896.796">0.2</text>
</g>
<g clip-path="url(#clip5001)">
<text style="fill:#000000; fill-opacity:1; font-family:Arial,Helvetica Neue,Helvetica,sans-serif; font-size:48px; text-anchor:end;" transform="rotate(0, 200.386, 635.918)" x="200.386" y="635.918">0.3</text>
</g>
<g clip-path="url(#clip5001)">
<text style="fill:#000000; fill-opacity:1; font-family:Arial,Helvetica Neue,Helvetica,sans-serif; font-size:48px; text-anchor:end;" transform="rotate(0, 200.386, 375.04)" x="200.386" y="375.04">0.4</text>
</g>
<g clip-path="url(#clip5001)">
<text style="fill:#000000; fill-opacity:1; font-family:Arial,Helvetica Neue,Helvetica,sans-serif; font-size:48px; text-anchor:end;" transform="rotate(0, 200.386, 114.162)" x="200.386" y="114.162">0.5</text>
</g>
<g clip-path="url(#clip5001)">
<text style="fill:#000000; fill-opacity:1; font-family:Arial,Helvetica Neue,Helvetica,sans-serif; font-size:66px; text-anchor:middle;" transform="rotate(0, 1272.82, 1590.4)" x="1272.82" y="1590.4">Average hypercube edge length</text>
</g>
<g clip-path="url(#clip5001)">
<text style="fill:#000000; fill-opacity:1; font-family:Arial,Helvetica Neue,Helvetica,sans-serif; font-size:66px; text-anchor:middle;" transform="rotate(-90, 57.6, 743.863)" x="57.6" y="743.863">Transfer entropy (bits)</text>
</g>
<polyline clip-path="url(#clip5003)" style="stroke:#000000; stroke-width:4; stroke-opacity:1; fill:none" points="
  2261.91,86.6754 2042.12,686.859 1822.32,972.123 1602.52,956.845 1382.72,1165.65 1162.92,1001.2 943.126,961.798 723.328,1288.49 503.53,1106.13 283.732,888.419 
  
  "/>
<polyline clip-path="url(#clip5003)" style="stroke:#ff0000; stroke-width:4; stroke-opacity:1; fill:none" points="
  2261.91,1258.42 2042.12,1278.49 1822.32,1326.92 1602.52,1292.66 1382.72,1248.42 1162.92,1295.58 943.126,1305.16 723.328,1268.67 503.53,1401.05 283.732,1201.44 
  
  "/>
<polygon clip-path="url(#clip5001)" points="
1784.57,312.204 2249.26,312.204 2249.26,130.764 1784.57,130.764 
  " fill="#ffffff" fill-rule="evenodd" fill-opacity="1"/>
<polyline clip-path="url(#clip5001)" style="stroke:#000000; stroke-width:4; stroke-opacity:1; fill:none" points="
  1784.57,312.204 2249.26,312.204 2249.26,130.764 1784.57,130.764 1784.57,312.204 
  "/>
<polyline clip-path="url(#clip5001)" style="stroke:#000000; stroke-width:4; stroke-opacity:1; fill:none" points="
  1808.57,191.244 1952.57,191.244 
  "/>
<g clip-path="url(#clip5001)">
<text style="fill:#000000; fill-opacity:1; font-family:Arial,Helvetica Neue,Helvetica,sans-serif; font-size:48px; text-anchor:start;" transform="rotate(0, 1976.57, 208.744)" x="1976.57" y="208.744">TE(x -&gt; y)</text>
</g>
<polyline clip-path="url(#clip5001)" style="stroke:#ff0000; stroke-width:4; stroke-opacity:1; fill:none" points="
  1808.57,251.724 1952.57,251.724 
  "/>
<g clip-path="url(#clip5001)">
<text style="fill:#000000; fill-opacity:1; font-family:Arial,Helvetica Neue,Helvetica,sans-serif; font-size:48px; text-anchor:start;" transform="rotate(0, 1976.57, 269.224)" x="1976.57" y="269.224">TE(y -&gt; x)</text>
</g>
</svg>
