<?xml version="1.0" encoding="utf-8"?>
<svg xmlns="http://www.w3.org/2000/svg" xmlns:xlink="http://www.w3.org/1999/xlink" width="600" height="400" viewBox="0 0 2400 1600">
<defs>
  <clipPath id="clip4900">
    <rect x="0" y="0" width="2000" height="2000"/>
  </clipPath>
</defs>
<defs>
  <clipPath id="clip4901">
    <rect x="0" y="0" width="2400" height="1600"/>
  </clipPath>
</defs>
<polygon clip-path="url(#clip4901)" points="
0,1600 2400,1600 2400,0 0,0 
  " fill="#ffffff" fill-rule="evenodd" fill-opacity="1"/>
<defs>
  <clipPath id="clip4902">
    <rect x="480" y="0" width="1681" height="1600"/>
  </clipPath>
</defs>
<polygon clip-path="url(#clip4901)" points="
224.386,1440.48 2321.26,1440.48 2321.26,47.2441 224.386,47.2441 
  " fill="#ffffff" fill-rule="evenodd" fill-opacity="1"/>
<defs>
  <clipPath id="clip4903">
    <rect x="224" y="47" width="2098" height="1394"/>
  </clipPath>
</defs>
<polyline clip-path="url(#clip4903)" style="stroke:#000000; stroke-width:2; stroke-opacity:0.1; fill:none" points="
  2042.12,1440.48 2042.12,47.2441 
  "/>
<polyline clip-path="url(#clip4903)" style="stroke:#000000; stroke-width:2; stroke-opacity:0.1; fill:none" points="
  1602.52,1440.48 1602.52,47.2441 
  "/>
<polyline clip-path="url(#clip4903)" style="stroke:#000000; stroke-width:2; stroke-opacity:0.1; fill:none" points="
  1162.92,1440.48 1162.92,47.2441 
  "/>
<polyline clip-path="url(#clip4903)" style="stroke:#000000; stroke-width:2; stroke-opacity:0.1; fill:none" points="
  723.328,1440.48 723.328,47.2441 
  "/>
<polyline clip-path="url(#clip4903)" style="stroke:#000000; stroke-width:2; stroke-opacity:0.1; fill:none" points="
  283.732,1440.48 283.732,47.2441 
  "/>
<polyline clip-path="url(#clip4903)" style="stroke:#000000; stroke-width:2; stroke-opacity:0.1; fill:none" points="
  2321.26,1419.73 224.386,1419.73 
  "/>
<polyline clip-path="url(#clip4903)" style="stroke:#000000; stroke-width:2; stroke-opacity:0.1; fill:none" points="
  2321.26,1221.55 224.386,1221.55 
  "/>
<polyline clip-path="url(#clip4903)" style="stroke:#000000; stroke-width:2; stroke-opacity:0.1; fill:none" points="
  2321.26,1023.37 224.386,1023.37 
  "/>
<polyline clip-path="url(#clip4903)" style="stroke:#000000; stroke-width:2; stroke-opacity:0.1; fill:none" points="
  2321.26,825.193 224.386,825.193 
  "/>
<polyline clip-path="url(#clip4903)" style="stroke:#000000; stroke-width:2; stroke-opacity:0.1; fill:none" points="
  2321.26,627.014 224.386,627.014 
  "/>
<polyline clip-path="url(#clip4903)" style="stroke:#000000; stroke-width:2; stroke-opacity:0.1; fill:none" points="
  2321.26,428.834 224.386,428.834 
  "/>
<polyline clip-path="url(#clip4903)" style="stroke:#000000; stroke-width:2; stroke-opacity:0.1; fill:none" points="
  2321.26,230.655 224.386,230.655 
  "/>
<polyline clip-path="url(#clip4901)" style="stroke:#000000; stroke-width:4; stroke-opacity:1; fill:none" points="
  2321.26,1440.48 224.386,1440.48 
  "/>
<polyline clip-path="url(#clip4901)" style="stroke:#000000; stroke-width:4; stroke-opacity:1; fill:none" points="
  224.386,1440.48 224.386,47.2441 
  "/>
<polyline clip-path="url(#clip4901)" style="stroke:#000000; stroke-width:4; stroke-opacity:1; fill:none" points="
  2042.12,1440.48 2042.12,1419.58 
  "/>
<polyline clip-path="url(#clip4901)" style="stroke:#000000; stroke-width:4; stroke-opacity:1; fill:none" points="
  1602.52,1440.48 1602.52,1419.58 
  "/>
<polyline clip-path="url(#clip4901)" style="stroke:#000000; stroke-width:4; stroke-opacity:1; fill:none" points="
  1162.92,1440.48 1162.92,1419.58 
  "/>
<polyline clip-path="url(#clip4901)" style="stroke:#000000; stroke-width:4; stroke-opacity:1; fill:none" points="
  723.328,1440.48 723.328,1419.58 
  "/>
<polyline clip-path="url(#clip4901)" style="stroke:#000000; stroke-width:4; stroke-opacity:1; fill:none" points="
  283.732,1440.48 283.732,1419.58 
  "/>
<polyline clip-path="url(#clip4901)" style="stroke:#000000; stroke-width:4; stroke-opacity:1; fill:none" points="
  224.386,1419.73 255.839,1419.73 
  "/>
<polyline clip-path="url(#clip4901)" style="stroke:#000000; stroke-width:4; stroke-opacity:1; fill:none" points="
  224.386,1221.55 255.839,1221.55 
  "/>
<polyline clip-path="url(#clip4901)" style="stroke:#000000; stroke-width:4; stroke-opacity:1; fill:none" points="
  224.386,1023.37 255.839,1023.37 
  "/>
<polyline clip-path="url(#clip4901)" style="stroke:#000000; stroke-width:4; stroke-opacity:1; fill:none" points="
  224.386,825.193 255.839,825.193 
  "/>
<polyline clip-path="url(#clip4901)" style="stroke:#000000; stroke-width:4; stroke-opacity:1; fill:none" points="
  224.386,627.014 255.839,627.014 
  "/>
<polyline clip-path="url(#clip4901)" style="stroke:#000000; stroke-width:4; stroke-opacity:1; fill:none" points="
  224.386,428.834 255.839,428.834 
  "/>
<polyline clip-path="url(#clip4901)" style="stroke:#000000; stroke-width:4; stroke-opacity:1; fill:none" points="
  224.386,230.655 255.839,230.655 
  "/>
<g clip-path="url(#clip4901)">
<text style="fill:#000000; fill-opacity:1; font-family:Arial,Helvetica Neue,Helvetica,sans-serif; font-size:48px; text-anchor:middle;" transform="rotate(0, 2042.12, 1494.48)" x="2042.12" y="1494.48">0.1</text>
</g>
<g clip-path="url(#clip4901)">
<text style="fill:#000000; fill-opacity:1; font-family:Arial,Helvetica Neue,Helvetica,sans-serif; font-size:48px; text-anchor:middle;" transform="rotate(0, 1602.52, 1494.48)" x="1602.52" y="1494.48">0.2</text>
</g>
<g clip-path="url(#clip4901)">
<text style="fill:#000000; fill-opacity:1; font-family:Arial,Helvetica Neue,Helvetica,sans-serif; font-size:48px; text-anchor:middle;" transform="rotate(0, 1162.92, 1494.48)" x="1162.92" y="1494.48">0.3</text>
</g>
<g clip-path="url(#clip4901)">
<text style="fill:#000000; fill-opacity:1; font-family:Arial,Helvetica Neue,Helvetica,sans-serif; font-size:48px; text-anchor:middle;" transform="rotate(0, 723.328, 1494.48)" x="723.328" y="1494.48">0.4</text>
</g>
<g clip-path="url(#clip4901)">
<text style="fill:#000000; fill-opacity:1; font-family:Arial,Helvetica Neue,Helvetica,sans-serif; font-size:48px; text-anchor:middle;" transform="rotate(0, 283.732, 1494.48)" x="283.732" y="1494.48">0.5</text>
</g>
<g clip-path="url(#clip4901)">
<text style="fill:#000000; fill-opacity:1; font-family:Arial,Helvetica Neue,Helvetica,sans-serif; font-size:48px; text-anchor:end;" transform="rotate(0, 200.386, 1437.23)" x="200.386" y="1437.23">0.0</text>
</g>
<g clip-path="url(#clip4901)">
<text style="fill:#000000; fill-opacity:1; font-family:Arial,Helvetica Neue,Helvetica,sans-serif; font-size:48px; text-anchor:end;" transform="rotate(0, 200.386, 1239.05)" x="200.386" y="1239.05">0.1</text>
</g>
<g clip-path="url(#clip4901)">
<text style="fill:#000000; fill-opacity:1; font-family:Arial,Helvetica Neue,Helvetica,sans-serif; font-size:48px; text-anchor:end;" transform="rotate(0, 200.386, 1040.87)" x="200.386" y="1040.87">0.2</text>
</g>
<g clip-path="url(#clip4901)">
<text style="fill:#000000; fill-opacity:1; font-family:Arial,Helvetica Neue,Helvetica,sans-serif; font-size:48px; text-anchor:end;" transform="rotate(0, 200.386, 842.693)" x="200.386" y="842.693">0.3</text>
</g>
<g clip-path="url(#clip4901)">
<text style="fill:#000000; fill-opacity:1; font-family:Arial,Helvetica Neue,Helvetica,sans-serif; font-size:48px; text-anchor:end;" transform="rotate(0, 200.386, 644.514)" x="200.386" y="644.514">0.4</text>
</g>
<g clip-path="url(#clip4901)">
<text style="fill:#000000; fill-opacity:1; font-family:Arial,Helvetica Neue,Helvetica,sans-serif; font-size:48px; text-anchor:end;" transform="rotate(0, 200.386, 446.334)" x="200.386" y="446.334">0.5</text>
</g>
<g clip-path="url(#clip4901)">
<text style="fill:#000000; fill-opacity:1; font-family:Arial,Helvetica Neue,Helvetica,sans-serif; font-size:48px; text-anchor:end;" transform="rotate(0, 200.386, 248.155)" x="200.386" y="248.155">0.6</text>
</g>
<g clip-path="url(#clip4901)">
<text style="fill:#000000; fill-opacity:1; font-family:Arial,Helvetica Neue,Helvetica,sans-serif; font-size:66px; text-anchor:middle;" transform="rotate(0, 1272.82, 1590.4)" x="1272.82" y="1590.4">Hypercube edge length</text>
</g>
<g clip-path="url(#clip4901)">
<text style="fill:#000000; fill-opacity:1; font-family:Arial,Helvetica Neue,Helvetica,sans-serif; font-size:66px; text-anchor:middle;" transform="rotate(-90, 57.6, 743.863)" x="57.6" y="743.863">Transfer entropy (bits)</text>
</g>
<polyline clip-path="url(#clip4903)" style="stroke:#000000; stroke-width:4; stroke-opacity:1; fill:none" points="
  2261.91,86.6754 2042.12,531.969 1822.32,1013.39 1602.52,1117.36 1382.72,1210.56 1162.92,1092.65 943.126,996.78 723.328,1381.23 503.53,1401.05 283.732,1361.83 
  
  "/>
<polyline clip-path="url(#clip4903)" style="stroke:#ff0000; stroke-width:4; stroke-opacity:1; fill:none" points="
  2261.91,1208.46 2042.12,1320.28 1822.32,1267.42 1602.52,1384.65 1382.72,1302.18 1162.92,1266.43 943.126,1209.57 723.328,1185.4 503.53,1293.97 283.732,1314.05 
  
  "/>
<polygon clip-path="url(#clip4901)" points="
1784.57,312.204 2249.26,312.204 2249.26,130.764 1784.57,130.764 
  " fill="#ffffff" fill-rule="evenodd" fill-opacity="1"/>
<polyline clip-path="url(#clip4901)" style="stroke:#000000; stroke-width:4; stroke-opacity:1; fill:none" points="
  1784.57,312.204 2249.26,312.204 2249.26,130.764 1784.57,130.764 1784.57,312.204 
  "/>
<polyline clip-path="url(#clip4901)" style="stroke:#000000; stroke-width:4; stroke-opacity:1; fill:none" points="
  1808.57,191.244 1952.57,191.244 
  "/>
<g clip-path="url(#clip4901)">
<text style="fill:#000000; fill-opacity:1; font-family:Arial,Helvetica Neue,Helvetica,sans-serif; font-size:48px; text-anchor:start;" transform="rotate(0, 1976.57, 208.744)" x="1976.57" y="208.744">TE(x -&gt; y)</text>
</g>
<polyline clip-path="url(#clip4901)" style="stroke:#ff0000; stroke-width:4; stroke-opacity:1; fill:none" points="
  1808.57,251.724 1952.57,251.724 
  "/>
<g clip-path="url(#clip4901)">
<text style="fill:#000000; fill-opacity:1; font-family:Arial,Helvetica Neue,Helvetica,sans-serif; font-size:48px; text-anchor:start;" transform="rotate(0, 1976.57, 269.224)" x="1976.57" y="269.224">TE(y -&gt; x)</text>
</g>
</svg>
