<?xml version="1.0" encoding="utf-8"?>
<svg xmlns="http://www.w3.org/2000/svg" xmlns:xlink="http://www.w3.org/1999/xlink" width="600" height="400" viewBox="0 0 2400 1600">
<defs>
  <clipPath id="clip4800">
    <rect x="0" y="0" width="2000" height="2000"/>
  </clipPath>
</defs>
<defs>
  <clipPath id="clip4801">
    <rect x="0" y="0" width="2400" height="1600"/>
  </clipPath>
</defs>
<polygon clip-path="url(#clip4801)" points="
0,1600 2400,1600 2400,0 0,0 
  " fill="#ffffff" fill-rule="evenodd" fill-opacity="1"/>
<defs>
  <clipPath id="clip4802">
    <rect x="480" y="0" width="1681" height="1600"/>
  </clipPath>
</defs>
<polygon clip-path="url(#clip4801)" points="
224.386,1440.48 2321.26,1440.48 2321.26,47.2441 224.386,47.2441 
  " fill="#ffffff" fill-rule="evenodd" fill-opacity="1"/>
<defs>
  <clipPath id="clip4803">
    <rect x="224" y="47" width="2098" height="1394"/>
  </clipPath>
</defs>
<polyline clip-path="url(#clip4803)" style="stroke:#000000; stroke-width:2; stroke-opacity:0.1; fill:none" points="
  242.52,1440.48 242.52,47.2441 
  "/>
<polyline clip-path="url(#clip4803)" style="stroke:#000000; stroke-width:2; stroke-opacity:0.1; fill:none" points="
  654.641,1440.48 654.641,47.2441 
  "/>
<polyline clip-path="url(#clip4803)" style="stroke:#000000; stroke-width:2; stroke-opacity:0.1; fill:none" points="
  1066.76,1440.48 1066.76,47.2441 
  "/>
<polyline clip-path="url(#clip4803)" style="stroke:#000000; stroke-width:2; stroke-opacity:0.1; fill:none" points="
  1478.88,1440.48 1478.88,47.2441 
  "/>
<polyline clip-path="url(#clip4803)" style="stroke:#000000; stroke-width:2; stroke-opacity:0.1; fill:none" points="
  1891.01,1440.48 1891.01,47.2441 
  "/>
<polyline clip-path="url(#clip4803)" style="stroke:#000000; stroke-width:2; stroke-opacity:0.1; fill:none" points="
  2303.13,1440.48 2303.13,47.2441 
  "/>
<polyline clip-path="url(#clip4803)" style="stroke:#000000; stroke-width:2; stroke-opacity:0.1; fill:none" points="
  224.386,1401.05 2321.26,1401.05 
  "/>
<polyline clip-path="url(#clip4803)" style="stroke:#000000; stroke-width:2; stroke-opacity:0.1; fill:none" points="
  224.386,1067.87 2321.26,1067.87 
  "/>
<polyline clip-path="url(#clip4803)" style="stroke:#000000; stroke-width:2; stroke-opacity:0.1; fill:none" points="
  224.386,734.692 2321.26,734.692 
  "/>
<polyline clip-path="url(#clip4803)" style="stroke:#000000; stroke-width:2; stroke-opacity:0.1; fill:none" points="
  224.386,401.512 2321.26,401.512 
  "/>
<polyline clip-path="url(#clip4803)" style="stroke:#000000; stroke-width:2; stroke-opacity:0.1; fill:none" points="
  224.386,68.3319 2321.26,68.3319 
  "/>
<polyline clip-path="url(#clip4801)" style="stroke:#000000; stroke-width:4; stroke-opacity:1; fill:none" points="
  224.386,1440.48 2321.26,1440.48 
  "/>
<polyline clip-path="url(#clip4801)" style="stroke:#000000; stroke-width:4; stroke-opacity:1; fill:none" points="
  224.386,1440.48 224.386,47.2441 
  "/>
<polyline clip-path="url(#clip4801)" style="stroke:#000000; stroke-width:4; stroke-opacity:1; fill:none" points="
  242.52,1440.48 242.52,1419.58 
  "/>
<polyline clip-path="url(#clip4801)" style="stroke:#000000; stroke-width:4; stroke-opacity:1; fill:none" points="
  654.641,1440.48 654.641,1419.58 
  "/>
<polyline clip-path="url(#clip4801)" style="stroke:#000000; stroke-width:4; stroke-opacity:1; fill:none" points="
  1066.76,1440.48 1066.76,1419.58 
  "/>
<polyline clip-path="url(#clip4801)" style="stroke:#000000; stroke-width:4; stroke-opacity:1; fill:none" points="
  1478.88,1440.48 1478.88,1419.58 
  "/>
<polyline clip-path="url(#clip4801)" style="stroke:#000000; stroke-width:4; stroke-opacity:1; fill:none" points="
  1891.01,1440.48 1891.01,1419.58 
  "/>
<polyline clip-path="url(#clip4801)" style="stroke:#000000; stroke-width:4; stroke-opacity:1; fill:none" points="
  2303.13,1440.48 2303.13,1419.58 
  "/>
<polyline clip-path="url(#clip4801)" style="stroke:#000000; stroke-width:4; stroke-opacity:1; fill:none" points="
  224.386,1401.05 255.839,1401.05 
  "/>
<polyline clip-path="url(#clip4801)" style="stroke:#000000; stroke-width:4; stroke-opacity:1; fill:none" points="
  224.386,1067.87 255.839,1067.87 
  "/>
<polyline clip-path="url(#clip4801)" style="stroke:#000000; stroke-width:4; stroke-opacity:1; fill:none" points="
  224.386,734.692 255.839,734.692 
  "/>
<polyline clip-path="url(#clip4801)" style="stroke:#000000; stroke-width:4; stroke-opacity:1; fill:none" points="
  224.386,401.512 255.839,401.512 
  "/>
<polyline clip-path="url(#clip4801)" style="stroke:#000000; stroke-width:4; stroke-opacity:1; fill:none" points="
  224.386,68.3319 255.839,68.3319 
  "/>
<g clip-path="url(#clip4801)">
<text style="fill:#000000; fill-opacity:1; font-family:Arial,Helvetica Neue,Helvetica,sans-serif; font-size:48px; text-anchor:middle;" transform="rotate(0, 242.52, 1494.48)" x="242.52" y="1494.48">0</text>
</g>
<g clip-path="url(#clip4801)">
<text style="fill:#000000; fill-opacity:1; font-family:Arial,Helvetica Neue,Helvetica,sans-serif; font-size:48px; text-anchor:middle;" transform="rotate(0, 654.641, 1494.48)" x="654.641" y="1494.48">10</text>
</g>
<g clip-path="url(#clip4801)">
<text style="fill:#000000; fill-opacity:1; font-family:Arial,Helvetica Neue,Helvetica,sans-serif; font-size:48px; text-anchor:middle;" transform="rotate(0, 1066.76, 1494.48)" x="1066.76" y="1494.48">20</text>
</g>
<g clip-path="url(#clip4801)">
<text style="fill:#000000; fill-opacity:1; font-family:Arial,Helvetica Neue,Helvetica,sans-serif; font-size:48px; text-anchor:middle;" transform="rotate(0, 1478.88, 1494.48)" x="1478.88" y="1494.48">30</text>
</g>
<g clip-path="url(#clip4801)">
<text style="fill:#000000; fill-opacity:1; font-family:Arial,Helvetica Neue,Helvetica,sans-serif; font-size:48px; text-anchor:middle;" transform="rotate(0, 1891.01, 1494.48)" x="1891.01" y="1494.48">40</text>
</g>
<g clip-path="url(#clip4801)">
<text style="fill:#000000; fill-opacity:1; font-family:Arial,Helvetica Neue,Helvetica,sans-serif; font-size:48px; text-anchor:middle;" transform="rotate(0, 2303.13, 1494.48)" x="2303.13" y="1494.48">50</text>
</g>
<g clip-path="url(#clip4801)">
<text style="fill:#000000; fill-opacity:1; font-family:Arial,Helvetica Neue,Helvetica,sans-serif; font-size:48px; text-anchor:end;" transform="rotate(0, 200.386, 1418.55)" x="200.386" y="1418.55">0.0</text>
</g>
<g clip-path="url(#clip4801)">
<text style="fill:#000000; fill-opacity:1; font-family:Arial,Helvetica Neue,Helvetica,sans-serif; font-size:48px; text-anchor:end;" transform="rotate(0, 200.386, 1085.37)" x="200.386" y="1085.37">0.2</text>
</g>
<g clip-path="url(#clip4801)">
<text style="fill:#000000; fill-opacity:1; font-family:Arial,Helvetica Neue,Helvetica,sans-serif; font-size:48px; text-anchor:end;" transform="rotate(0, 200.386, 752.192)" x="200.386" y="752.192">0.4</text>
</g>
<g clip-path="url(#clip4801)">
<text style="fill:#000000; fill-opacity:1; font-family:Arial,Helvetica Neue,Helvetica,sans-serif; font-size:48px; text-anchor:end;" transform="rotate(0, 200.386, 419.012)" x="200.386" y="419.012">0.6</text>
</g>
<g clip-path="url(#clip4801)">
<text style="fill:#000000; fill-opacity:1; font-family:Arial,Helvetica Neue,Helvetica,sans-serif; font-size:48px; text-anchor:end;" transform="rotate(0, 200.386, 85.8319)" x="200.386" y="85.8319">0.8</text>
</g>
<g clip-path="url(#clip4801)">
<text style="fill:#000000; fill-opacity:1; font-family:Arial,Helvetica Neue,Helvetica,sans-serif; font-size:66px; text-anchor:middle;" transform="rotate(0, 1272.82, 1590.4)" x="1272.82" y="1590.4"># subdivisions along each axis</text>
</g>
<g clip-path="url(#clip4801)">
<text style="fill:#000000; fill-opacity:1; font-family:Arial,Helvetica Neue,Helvetica,sans-serif; font-size:66px; text-anchor:middle;" transform="rotate(-90, 57.6, 743.863)" x="57.6" y="743.863">Transfer entropy (bits)</text>
</g>
<polyline clip-path="url(#clip4803)" style="stroke:#000000; stroke-width:4; stroke-opacity:1; fill:none" points="
  283.732,1401.05 366.156,1328.73 448.58,1098 531.004,949.791 613.429,782.26 695.853,702.005 778.277,458.884 860.702,448.683 943.126,326.331 1025.55,377.294 
  1107.97,276.335 1190.4,228.785 1272.82,234.31 1355.25,138.262 1437.67,86.6754 1520.1,210.418 1602.52,131.273 1684.94,155.291 1767.37,197.711 1849.79,250.431 
  1932.22,272.726 2014.64,211.185 2097.07,285.743 2179.49,192.995 2261.91,295.676 
  "/>
<polyline clip-path="url(#clip4803)" style="stroke:#ff0000; stroke-width:4; stroke-opacity:1; fill:none" points="
  283.732,1401.05 366.156,1374.21 448.58,1344.76 531.004,1267.32 613.429,1311.42 695.853,1256.52 778.277,1159.15 860.702,1181.14 943.126,1104.73 1025.55,1057.99 
  1107.97,1018.78 1190.4,1035.41 1272.82,890.211 1355.25,907.742 1437.67,771.57 1520.1,892.909 1602.52,826.767 1684.94,784.313 1767.37,736.445 1849.79,858.562 
  1932.22,733.707 2014.64,659.712 2097.07,607.132 2179.49,580.851 2261.91,640.82 
  "/>
<polygon clip-path="url(#clip4801)" points="
1784.57,312.204 2249.26,312.204 2249.26,130.764 1784.57,130.764 
  " fill="#ffffff" fill-rule="evenodd" fill-opacity="1"/>
<polyline clip-path="url(#clip4801)" style="stroke:#000000; stroke-width:4; stroke-opacity:1; fill:none" points="
  1784.57,312.204 2249.26,312.204 2249.26,130.764 1784.57,130.764 1784.57,312.204 
  "/>
<polyline clip-path="url(#clip4801)" style="stroke:#000000; stroke-width:4; stroke-opacity:1; fill:none" points="
  1808.57,191.244 1952.57,191.244 
  "/>
<g clip-path="url(#clip4801)">
<text style="fill:#000000; fill-opacity:1; font-family:Arial,Helvetica Neue,Helvetica,sans-serif; font-size:48px; text-anchor:start;" transform="rotate(0, 1976.57, 208.744)" x="1976.57" y="208.744">TE(x -&gt; y)</text>
</g>
<polyline clip-path="url(#clip4801)" style="stroke:#ff0000; stroke-width:4; stroke-opacity:1; fill:none" points="
  1808.57,251.724 1952.57,251.724 
  "/>
<g clip-path="url(#clip4801)">
<text style="fill:#000000; fill-opacity:1; font-family:Arial,Helvetica Neue,Helvetica,sans-serif; font-size:48px; text-anchor:start;" transform="rotate(0, 1976.57, 269.224)" x="1976.57" y="269.224">TE(y -&gt; x)</text>
</g>
</svg>
