<?xml version="1.0" encoding="utf-8"?>
<svg xmlns="http://www.w3.org/2000/svg" xmlns:xlink="http://www.w3.org/1999/xlink" width="600" height="400" viewBox="0 0 2400 1600">
<defs>
  <clipPath id="clip8500">
    <rect x="0" y="0" width="2400" height="1600"/>
  </clipPath>
</defs>
<path clip-path="url(#clip8500)" d="
M0 1600 L2400 1600 L2400 0 L0 0  Z
  " fill="#ffffff" fill-rule="evenodd" fill-opacity="1"/>
<defs>
  <clipPath id="clip8501">
    <rect x="480" y="0" width="1681" height="1600"/>
  </clipPath>
</defs>
<path clip-path="url(#clip8500)" d="
M215.754 1425.62 L2352.76 1425.62 L2352.76 47.2441 L215.754 47.2441  Z
  " fill="#ffffff" fill-rule="evenodd" fill-opacity="1"/>
<defs>
  <clipPath id="clip8502">
    <rect x="215" y="47" width="2138" height="1379"/>
  </clipPath>
</defs>
<polyline clip-path="url(#clip8502)" style="stroke:#000000; stroke-width:2; stroke-opacity:0.1; fill:none" points="
  2097.17,1425.62 2097.17,47.2441 
  "/>
<polyline clip-path="url(#clip8502)" style="stroke:#000000; stroke-width:2; stroke-opacity:0.1; fill:none" points="
  1576.91,1425.62 1576.91,47.2441 
  "/>
<polyline clip-path="url(#clip8502)" style="stroke:#000000; stroke-width:2; stroke-opacity:0.1; fill:none" points="
  1056.64,1425.62 1056.64,47.2441 
  "/>
<polyline clip-path="url(#clip8502)" style="stroke:#000000; stroke-width:2; stroke-opacity:0.1; fill:none" points="
  536.369,1425.62 536.369,47.2441 
  "/>
<polyline clip-path="url(#clip8502)" style="stroke:#000000; stroke-width:2; stroke-opacity:0.1; fill:none" points="
  2352.76,1395.49 215.754,1395.49 
  "/>
<polyline clip-path="url(#clip8502)" style="stroke:#000000; stroke-width:2; stroke-opacity:0.1; fill:none" points="
  2352.76,1139.73 215.754,1139.73 
  "/>
<polyline clip-path="url(#clip8502)" style="stroke:#000000; stroke-width:2; stroke-opacity:0.1; fill:none" points="
  2352.76,883.958 215.754,883.958 
  "/>
<polyline clip-path="url(#clip8502)" style="stroke:#000000; stroke-width:2; stroke-opacity:0.1; fill:none" points="
  2352.76,628.19 215.754,628.19 
  "/>
<polyline clip-path="url(#clip8502)" style="stroke:#000000; stroke-width:2; stroke-opacity:0.1; fill:none" points="
  2352.76,372.422 215.754,372.422 
  "/>
<polyline clip-path="url(#clip8502)" style="stroke:#000000; stroke-width:2; stroke-opacity:0.1; fill:none" points="
  2352.76,116.655 215.754,116.655 
  "/>
<polyline clip-path="url(#clip8500)" style="stroke:#000000; stroke-width:4; stroke-opacity:1; fill:none" points="
  2352.76,1425.62 215.754,1425.62 
  "/>
<polyline clip-path="url(#clip8500)" style="stroke:#000000; stroke-width:4; stroke-opacity:1; fill:none" points="
  215.754,1425.62 215.754,47.2441 
  "/>
<polyline clip-path="url(#clip8500)" style="stroke:#000000; stroke-width:4; stroke-opacity:1; fill:none" points="
  2097.17,1425.62 2097.17,1404.94 
  "/>
<polyline clip-path="url(#clip8500)" style="stroke:#000000; stroke-width:4; stroke-opacity:1; fill:none" points="
  1576.91,1425.62 1576.91,1404.94 
  "/>
<polyline clip-path="url(#clip8500)" style="stroke:#000000; stroke-width:4; stroke-opacity:1; fill:none" points="
  1056.64,1425.62 1056.64,1404.94 
  "/>
<polyline clip-path="url(#clip8500)" style="stroke:#000000; stroke-width:4; stroke-opacity:1; fill:none" points="
  536.369,1425.62 536.369,1404.94 
  "/>
<polyline clip-path="url(#clip8500)" style="stroke:#000000; stroke-width:4; stroke-opacity:1; fill:none" points="
  215.754,1395.49 247.809,1395.49 
  "/>
<polyline clip-path="url(#clip8500)" style="stroke:#000000; stroke-width:4; stroke-opacity:1; fill:none" points="
  215.754,1139.73 247.809,1139.73 
  "/>
<polyline clip-path="url(#clip8500)" style="stroke:#000000; stroke-width:4; stroke-opacity:1; fill:none" points="
  215.754,883.958 247.809,883.958 
  "/>
<polyline clip-path="url(#clip8500)" style="stroke:#000000; stroke-width:4; stroke-opacity:1; fill:none" points="
  215.754,628.19 247.809,628.19 
  "/>
<polyline clip-path="url(#clip8500)" style="stroke:#000000; stroke-width:4; stroke-opacity:1; fill:none" points="
  215.754,372.422 247.809,372.422 
  "/>
<polyline clip-path="url(#clip8500)" style="stroke:#000000; stroke-width:4; stroke-opacity:1; fill:none" points="
  215.754,116.655 247.809,116.655 
  "/>
<g clip-path="url(#clip8500)">
<text style="fill:#000000; fill-opacity:1; font-family:Arial,Helvetica Neue,Helvetica,sans-serif; font-size:48px; text-anchor:middle;" transform="rotate(0, 2097.17, 1479.62)" x="2097.17" y="1479.62">0.1</text>
</g>
<g clip-path="url(#clip8500)">
<text style="fill:#000000; fill-opacity:1; font-family:Arial,Helvetica Neue,Helvetica,sans-serif; font-size:48px; text-anchor:middle;" transform="rotate(0, 1576.91, 1479.62)" x="1576.91" y="1479.62">0.2</text>
</g>
<g clip-path="url(#clip8500)">
<text style="fill:#000000; fill-opacity:1; font-family:Arial,Helvetica Neue,Helvetica,sans-serif; font-size:48px; text-anchor:middle;" transform="rotate(0, 1056.64, 1479.62)" x="1056.64" y="1479.62">0.3</text>
</g>
<g clip-path="url(#clip8500)">
<text style="fill:#000000; fill-opacity:1; font-family:Arial,Helvetica Neue,Helvetica,sans-serif; font-size:48px; text-anchor:middle;" transform="rotate(0, 536.369, 1479.62)" x="536.369" y="1479.62">0.4</text>
</g>
<g clip-path="url(#clip8500)">
<text style="fill:#000000; fill-opacity:1; font-family:Arial,Helvetica Neue,Helvetica,sans-serif; font-size:48px; text-anchor:end;" transform="rotate(0, 191.754, 1412.99)" x="191.754" y="1412.99">0.0</text>
</g>
<g clip-path="url(#clip8500)">
<text style="fill:#000000; fill-opacity:1; font-family:Arial,Helvetica Neue,Helvetica,sans-serif; font-size:48px; text-anchor:end;" transform="rotate(0, 191.754, 1157.23)" x="191.754" y="1157.23">0.1</text>
</g>
<g clip-path="url(#clip8500)">
<text style="fill:#000000; fill-opacity:1; font-family:Arial,Helvetica Neue,Helvetica,sans-serif; font-size:48px; text-anchor:end;" transform="rotate(0, 191.754, 901.458)" x="191.754" y="901.458">0.2</text>
</g>
<g clip-path="url(#clip8500)">
<text style="fill:#000000; fill-opacity:1; font-family:Arial,Helvetica Neue,Helvetica,sans-serif; font-size:48px; text-anchor:end;" transform="rotate(0, 191.754, 645.69)" x="191.754" y="645.69">0.3</text>
</g>
<g clip-path="url(#clip8500)">
<text style="fill:#000000; fill-opacity:1; font-family:Arial,Helvetica Neue,Helvetica,sans-serif; font-size:48px; text-anchor:end;" transform="rotate(0, 191.754, 389.922)" x="191.754" y="389.922">0.4</text>
</g>
<g clip-path="url(#clip8500)">
<text style="fill:#000000; fill-opacity:1; font-family:Arial,Helvetica Neue,Helvetica,sans-serif; font-size:48px; text-anchor:end;" transform="rotate(0, 191.754, 134.155)" x="191.754" y="134.155">0.5</text>
</g>
<g clip-path="url(#clip8500)">
<text style="fill:#000000; fill-opacity:1; font-family:Arial,Helvetica Neue,Helvetica,sans-serif; font-size:66px; text-anchor:middle;" transform="rotate(0, 1284.25, 1559.48)" x="1284.25" y="1559.48">Average hypercube edge length</text>
</g>
<g clip-path="url(#clip8500)">
<text style="fill:#000000; fill-opacity:1; font-family:Arial,Helvetica Neue,Helvetica,sans-serif; font-size:66px; text-anchor:middle;" transform="rotate(-90, 89.2861, 736.431)" x="89.2861" y="736.431">Transfer entropy (bits)</text>
</g>
<polyline clip-path="url(#clip8502)" style="stroke:#000000; stroke-width:4; stroke-opacity:1; fill:none" points="
  2292.27,86.2547 2068.27,540.59 1844.27,875.368 1620.26,929.037 1396.26,1192.53 1172.25,1172.86 948.248,990.4 724.244,1130.58 500.24,1067.98 276.235,1246.3 
  
  "/>
<polyline clip-path="url(#clip8502)" style="stroke:#ff0000; stroke-width:4; stroke-opacity:1; fill:none" points="
  2292.27,1283.1 2068.27,1276.52 1844.27,1272.35 1620.26,1310.06 1396.26,1227.06 1172.25,1171.74 948.248,1386.61 724.244,992.016 500.24,961.645 276.235,1365.13 
  
  "/>
<path clip-path="url(#clip8500)" d="
M1816.07 312.204 L2280.76 312.204 L2280.76 130.764 L1816.07 130.764  Z
  " fill="#ffffff" fill-rule="evenodd" fill-opacity="1"/>
<polyline clip-path="url(#clip8500)" style="stroke:#000000; stroke-width:4; stroke-opacity:1; fill:none" points="
  1816.07,312.204 2280.76,312.204 2280.76,130.764 1816.07,130.764 1816.07,312.204 
  "/>
<polyline clip-path="url(#clip8500)" style="stroke:#000000; stroke-width:4; stroke-opacity:1; fill:none" points="
  1840.07,191.244 1984.07,191.244 
  "/>
<g clip-path="url(#clip8500)">
<text style="fill:#000000; fill-opacity:1; font-family:Arial,Helvetica Neue,Helvetica,sans-serif; font-size:48px; text-anchor:start;" transform="rotate(0, 2008.07, 208.744)" x="2008.07" y="208.744">TE(x -&gt; y)</text>
</g>
<polyline clip-path="url(#clip8500)" style="stroke:#ff0000; stroke-width:4; stroke-opacity:1; fill:none" points="
  1840.07,251.724 1984.07,251.724 
  "/>
<g clip-path="url(#clip8500)">
<text style="fill:#000000; fill-opacity:1; font-family:Arial,Helvetica Neue,Helvetica,sans-serif; font-size:48px; text-anchor:start;" transform="rotate(0, 2008.07, 269.224)" x="2008.07" y="269.224">TE(y -&gt; x)</text>
</g>
</svg>
