<?xml version="1.0" encoding="utf-8"?>
<svg xmlns="http://www.w3.org/2000/svg" xmlns:xlink="http://www.w3.org/1999/xlink" width="600" height="400" viewBox="0 0 2400 1600">
<defs>
  <clipPath id="clip1800">
    <rect x="0" y="0" width="2400" height="1600"/>
  </clipPath>
</defs>
<path clip-path="url(#clip1800)" d="
M0 1600 L2400 1600 L2400 0 L0 0  Z
  " fill="#ffffff" fill-rule="evenodd" fill-opacity="1"/>
<defs>
  <clipPath id="clip1801">
    <rect x="480" y="0" width="1681" height="1600"/>
  </clipPath>
</defs>
<path clip-path="url(#clip1800)" d="
M252.496 671.979 L2321.26 671.979 L2321.26 47.2441 L252.496 47.2441  Z
  " fill="#ffffff" fill-rule="evenodd" fill-opacity="1"/>
<defs>
  <clipPath id="clip1802">
    <rect x="252" y="47" width="2070" height="626"/>
  </clipPath>
</defs>
<polyline clip-path="url(#clip1802)" style="stroke:#000000; stroke-width:2; stroke-opacity:0.1; fill:none" points="
  298.035,671.979 298.035,47.2441 
  "/>
<polyline clip-path="url(#clip1802)" style="stroke:#000000; stroke-width:2; stroke-opacity:0.1; fill:none" points="
  948.59,671.979 948.59,47.2441 
  "/>
<polyline clip-path="url(#clip1802)" style="stroke:#000000; stroke-width:2; stroke-opacity:0.1; fill:none" points="
  1599.14,671.979 1599.14,47.2441 
  "/>
<polyline clip-path="url(#clip1802)" style="stroke:#000000; stroke-width:2; stroke-opacity:0.1; fill:none" points="
  2249.7,671.979 2249.7,47.2441 
  "/>
<polyline clip-path="url(#clip1802)" style="stroke:#000000; stroke-width:2; stroke-opacity:0.1; fill:none" points="
  252.496,655.475 2321.26,655.475 
  "/>
<polyline clip-path="url(#clip1802)" style="stroke:#000000; stroke-width:2; stroke-opacity:0.1; fill:none" points="
  252.496,495.505 2321.26,495.505 
  "/>
<polyline clip-path="url(#clip1802)" style="stroke:#000000; stroke-width:2; stroke-opacity:0.1; fill:none" points="
  252.496,335.536 2321.26,335.536 
  "/>
<polyline clip-path="url(#clip1802)" style="stroke:#000000; stroke-width:2; stroke-opacity:0.1; fill:none" points="
  252.496,175.566 2321.26,175.566 
  "/>
<polyline clip-path="url(#clip1800)" style="stroke:#000000; stroke-width:4; stroke-opacity:1; fill:none" points="
  252.496,671.979 2321.26,671.979 
  "/>
<polyline clip-path="url(#clip1800)" style="stroke:#000000; stroke-width:4; stroke-opacity:1; fill:none" points="
  252.496,671.979 252.496,47.2441 
  "/>
<polyline clip-path="url(#clip1800)" style="stroke:#000000; stroke-width:4; stroke-opacity:1; fill:none" points="
  298.035,671.979 298.035,662.608 
  "/>
<polyline clip-path="url(#clip1800)" style="stroke:#000000; stroke-width:4; stroke-opacity:1; fill:none" points="
  948.59,671.979 948.59,662.608 
  "/>
<polyline clip-path="url(#clip1800)" style="stroke:#000000; stroke-width:4; stroke-opacity:1; fill:none" points="
  1599.14,671.979 1599.14,662.608 
  "/>
<polyline clip-path="url(#clip1800)" style="stroke:#000000; stroke-width:4; stroke-opacity:1; fill:none" points="
  2249.7,671.979 2249.7,662.608 
  "/>
<polyline clip-path="url(#clip1800)" style="stroke:#000000; stroke-width:4; stroke-opacity:1; fill:none" points="
  252.496,655.475 283.528,655.475 
  "/>
<polyline clip-path="url(#clip1800)" style="stroke:#000000; stroke-width:4; stroke-opacity:1; fill:none" points="
  252.496,495.505 283.528,495.505 
  "/>
<polyline clip-path="url(#clip1800)" style="stroke:#000000; stroke-width:4; stroke-opacity:1; fill:none" points="
  252.496,335.536 283.528,335.536 
  "/>
<polyline clip-path="url(#clip1800)" style="stroke:#000000; stroke-width:4; stroke-opacity:1; fill:none" points="
  252.496,175.566 283.528,175.566 
  "/>
<g clip-path="url(#clip1800)">
<text style="fill:#000000; fill-opacity:1; font-family:Arial,Helvetica Neue,Helvetica,sans-serif; font-size:48px; text-anchor:middle;" transform="rotate(0, 298.035, 725.979)" x="298.035" y="725.979">0</text>
</g>
<g clip-path="url(#clip1800)">
<text style="fill:#000000; fill-opacity:1; font-family:Arial,Helvetica Neue,Helvetica,sans-serif; font-size:48px; text-anchor:middle;" transform="rotate(0, 948.59, 725.979)" x="948.59" y="725.979">50</text>
</g>
<g clip-path="url(#clip1800)">
<text style="fill:#000000; fill-opacity:1; font-family:Arial,Helvetica Neue,Helvetica,sans-serif; font-size:48px; text-anchor:middle;" transform="rotate(0, 1599.14, 725.979)" x="1599.14" y="725.979">100</text>
</g>
<g clip-path="url(#clip1800)">
<text style="fill:#000000; fill-opacity:1; font-family:Arial,Helvetica Neue,Helvetica,sans-serif; font-size:48px; text-anchor:middle;" transform="rotate(0, 2249.7, 725.979)" x="2249.7" y="725.979">150</text>
</g>
<g clip-path="url(#clip1800)">
<text style="fill:#000000; fill-opacity:1; font-family:Arial,Helvetica Neue,Helvetica,sans-serif; font-size:48px; text-anchor:end;" transform="rotate(0, 228.496, 672.975)" x="228.496" y="672.975">-1.0</text>
</g>
<g clip-path="url(#clip1800)">
<text style="fill:#000000; fill-opacity:1; font-family:Arial,Helvetica Neue,Helvetica,sans-serif; font-size:48px; text-anchor:end;" transform="rotate(0, 228.496, 513.005)" x="228.496" y="513.005">-0.5</text>
</g>
<g clip-path="url(#clip1800)">
<text style="fill:#000000; fill-opacity:1; font-family:Arial,Helvetica Neue,Helvetica,sans-serif; font-size:48px; text-anchor:end;" transform="rotate(0, 228.496, 353.036)" x="228.496" y="353.036">0.0</text>
</g>
<g clip-path="url(#clip1800)">
<text style="fill:#000000; fill-opacity:1; font-family:Arial,Helvetica Neue,Helvetica,sans-serif; font-size:48px; text-anchor:end;" transform="rotate(0, 228.496, 193.066)" x="228.496" y="193.066">0.5</text>
</g>
<g clip-path="url(#clip1800)">
<text style="fill:#000000; fill-opacity:1; font-family:Arial,Helvetica Neue,Helvetica,sans-serif; font-size:66px; text-anchor:middle;" transform="rotate(-90, 57.6, 359.611)" x="57.6" y="359.611">Value</text>
</g>
<polyline clip-path="url(#clip1802)" style="stroke:#000000; stroke-width:4; stroke-opacity:1; fill:none" points="
  311.046,153.205 324.057,64.9253 337.068,355.898 350.079,406.655 363.091,638.43 376.102,511.876 389.113,406.885 402.124,618.25 415.135,480.246 428.146,432.418 
  441.157,450.923 454.168,554.228 467.179,379.952 480.19,503.441 493.201,614.591 506.213,570.87 519.224,621.09 532.235,336.582 545.246,339.343 558.257,347.189 
  571.268,383.365 584.279,546.812 597.29,639.903 610.301,516.841 623.312,456.536 636.323,574.984 649.335,649.911 662.346,638.449 675.357,335.968 688.368,336.864 
  701.379,340.7 714.39,354.194 727.401,415.24 740.412,415.006 753.423,413.609 766.434,397.196 779.445,608.719 792.457,514.836 805.468,444.988 818.479,509.05 
  831.49,379.099 844.501,491.292 857.512,612.566 870.523,398.386 883.534,579.8 896.545,398.48 909.556,585.72 922.567,395.715 935.579,621.842 948.59,595.651 
  961.601,628.127 974.612,653.134 987.623,612.082 1000.63,438.208 1013.65,494.843 1026.66,502.458 1039.67,364.194 1052.68,441.783 1065.69,487.139 1078.7,531.427 
  1091.71,448.677 1104.72,617.92 1117.73,435.199 1130.74,449.006 1143.76,602.712 1156.77,490.871 1169.78,508.931 1182.79,622.297 1195.8,440.368 1208.81,574.534 
  1221.82,410.368 1234.83,382.36 1247.84,539.626 1260.86,558.761 1273.87,425.663 1286.88,404.324 1299.89,632.401 1312.9,393.731 1325.91,609.303 1338.92,413.047 
  1351.93,365.775 1364.94,467.877 1377.96,444.343 1390.97,582.454 1403.98,344.554 1416.99,364.109 1430,458.638 1443.01,339.679 1456.02,348.864 1469.03,385.085 
  1482.04,564.161 1495.06,618.536 1508.07,499.423 1521.08,573.239 1534.09,517.537 1547.1,424.644 1560.11,470.786 1573.12,455.295 1586.13,645.57 1599.14,609.189 
  1612.16,623.157 1625.17,641.491 1638.18,464.875 1651.19,379.05 1664.2,496.105 1677.21,606.928 1690.22,492.83 1703.23,602.229 1716.24,519.109 1729.26,365.916 
  1742.27,458.353 1755.28,584.194 1768.29,419.23 1781.3,364.558 1794.31,453.173 1807.32,556.502 1820.33,449.063 1833.34,631.595 1846.35,381.277 1859.37,546.433 
  1872.38,454.195 1885.39,341.749 1898.4,359.893 1911.41,424.612 1924.42,393.675 1937.43,590.794 1950.44,342.417 1963.45,361.748 1976.47,426.182 1989.48,444.207 
  2002.49,599.128 2015.5,654.297 2028.51,623.769 2041.52,521.655 2054.53,391.073 2067.54,570.891 2080.55,373.435 2093.57,504.601 2106.58,382.693 2119.59,525.037 
  2132.6,399.31 2145.61,635.285 2158.62,625.15 2171.63,349.283 2184.64,391.362 2197.65,571.84 2210.67,378.224 2223.68,528.428 2236.69,578.012 2249.7,611.85 
  2262.71,545.613 
  "/>
<path clip-path="url(#clip1800)" d="
M1985.19 251.724 L2249.26 251.724 L2249.26 130.764 L1985.19 130.764  Z
  " fill="#ffffff" fill-rule="evenodd" fill-opacity="1"/>
<polyline clip-path="url(#clip1800)" style="stroke:#000000; stroke-width:4; stroke-opacity:1; fill:none" points="
  1985.19,251.724 2249.26,251.724 2249.26,130.764 1985.19,130.764 1985.19,251.724 
  "/>
<polyline clip-path="url(#clip1800)" style="stroke:#000000; stroke-width:4; stroke-opacity:1; fill:none" points="
  2009.19,191.244 2153.19,191.244 
  "/>
<g clip-path="url(#clip1800)">
<text style="fill:#000000; fill-opacity:1; font-family:Arial,Helvetica Neue,Helvetica,sans-serif; font-size:48px; text-anchor:start;" transform="rotate(0, 2177.19, 208.744)" x="2177.19" y="208.744">x</text>
</g>
<path clip-path="url(#clip1800)" d="
M252.496 1440.48 L2321.26 1440.48 L2321.26 815.748 L252.496 815.748  Z
  " fill="#ffffff" fill-rule="evenodd" fill-opacity="1"/>
<defs>
  <clipPath id="clip1803">
    <rect x="252" y="815" width="2070" height="626"/>
  </clipPath>
</defs>
<polyline clip-path="url(#clip1803)" style="stroke:#000000; stroke-width:2; stroke-opacity:0.1; fill:none" points="
  298.035,1440.48 298.035,815.748 
  "/>
<polyline clip-path="url(#clip1803)" style="stroke:#000000; stroke-width:2; stroke-opacity:0.1; fill:none" points="
  948.59,1440.48 948.59,815.748 
  "/>
<polyline clip-path="url(#clip1803)" style="stroke:#000000; stroke-width:2; stroke-opacity:0.1; fill:none" points="
  1599.14,1440.48 1599.14,815.748 
  "/>
<polyline clip-path="url(#clip1803)" style="stroke:#000000; stroke-width:2; stroke-opacity:0.1; fill:none" points="
  2249.7,1440.48 2249.7,815.748 
  "/>
<polyline clip-path="url(#clip1803)" style="stroke:#000000; stroke-width:2; stroke-opacity:0.1; fill:none" points="
  252.496,1404.97 2321.26,1404.97 
  "/>
<polyline clip-path="url(#clip1803)" style="stroke:#000000; stroke-width:2; stroke-opacity:0.1; fill:none" points="
  252.496,1316.74 2321.26,1316.74 
  "/>
<polyline clip-path="url(#clip1803)" style="stroke:#000000; stroke-width:2; stroke-opacity:0.1; fill:none" points="
  252.496,1228.51 2321.26,1228.51 
  "/>
<polyline clip-path="url(#clip1803)" style="stroke:#000000; stroke-width:2; stroke-opacity:0.1; fill:none" points="
  252.496,1140.29 2321.26,1140.29 
  "/>
<polyline clip-path="url(#clip1803)" style="stroke:#000000; stroke-width:2; stroke-opacity:0.1; fill:none" points="
  252.496,1052.06 2321.26,1052.06 
  "/>
<polyline clip-path="url(#clip1803)" style="stroke:#000000; stroke-width:2; stroke-opacity:0.1; fill:none" points="
  252.496,963.835 2321.26,963.835 
  "/>
<polyline clip-path="url(#clip1803)" style="stroke:#000000; stroke-width:2; stroke-opacity:0.1; fill:none" points="
  252.496,875.608 2321.26,875.608 
  "/>
<polyline clip-path="url(#clip1800)" style="stroke:#000000; stroke-width:4; stroke-opacity:1; fill:none" points="
  252.496,1440.48 2321.26,1440.48 
  "/>
<polyline clip-path="url(#clip1800)" style="stroke:#000000; stroke-width:4; stroke-opacity:1; fill:none" points="
  252.496,1440.48 252.496,815.748 
  "/>
<polyline clip-path="url(#clip1800)" style="stroke:#000000; stroke-width:4; stroke-opacity:1; fill:none" points="
  298.035,1440.48 298.035,1431.11 
  "/>
<polyline clip-path="url(#clip1800)" style="stroke:#000000; stroke-width:4; stroke-opacity:1; fill:none" points="
  948.59,1440.48 948.59,1431.11 
  "/>
<polyline clip-path="url(#clip1800)" style="stroke:#000000; stroke-width:4; stroke-opacity:1; fill:none" points="
  1599.14,1440.48 1599.14,1431.11 
  "/>
<polyline clip-path="url(#clip1800)" style="stroke:#000000; stroke-width:4; stroke-opacity:1; fill:none" points="
  2249.7,1440.48 2249.7,1431.11 
  "/>
<polyline clip-path="url(#clip1800)" style="stroke:#000000; stroke-width:4; stroke-opacity:1; fill:none" points="
  252.496,1404.97 283.528,1404.97 
  "/>
<polyline clip-path="url(#clip1800)" style="stroke:#000000; stroke-width:4; stroke-opacity:1; fill:none" points="
  252.496,1316.74 283.528,1316.74 
  "/>
<polyline clip-path="url(#clip1800)" style="stroke:#000000; stroke-width:4; stroke-opacity:1; fill:none" points="
  252.496,1228.51 283.528,1228.51 
  "/>
<polyline clip-path="url(#clip1800)" style="stroke:#000000; stroke-width:4; stroke-opacity:1; fill:none" points="
  252.496,1140.29 283.528,1140.29 
  "/>
<polyline clip-path="url(#clip1800)" style="stroke:#000000; stroke-width:4; stroke-opacity:1; fill:none" points="
  252.496,1052.06 283.528,1052.06 
  "/>
<polyline clip-path="url(#clip1800)" style="stroke:#000000; stroke-width:4; stroke-opacity:1; fill:none" points="
  252.496,963.835 283.528,963.835 
  "/>
<polyline clip-path="url(#clip1800)" style="stroke:#000000; stroke-width:4; stroke-opacity:1; fill:none" points="
  252.496,875.608 283.528,875.608 
  "/>
<g clip-path="url(#clip1800)">
<text style="fill:#000000; fill-opacity:1; font-family:Arial,Helvetica Neue,Helvetica,sans-serif; font-size:48px; text-anchor:middle;" transform="rotate(0, 298.035, 1494.48)" x="298.035" y="1494.48">0</text>
</g>
<g clip-path="url(#clip1800)">
<text style="fill:#000000; fill-opacity:1; font-family:Arial,Helvetica Neue,Helvetica,sans-serif; font-size:48px; text-anchor:middle;" transform="rotate(0, 948.59, 1494.48)" x="948.59" y="1494.48">50</text>
</g>
<g clip-path="url(#clip1800)">
<text style="fill:#000000; fill-opacity:1; font-family:Arial,Helvetica Neue,Helvetica,sans-serif; font-size:48px; text-anchor:middle;" transform="rotate(0, 1599.14, 1494.48)" x="1599.14" y="1494.48">100</text>
</g>
<g clip-path="url(#clip1800)">
<text style="fill:#000000; fill-opacity:1; font-family:Arial,Helvetica Neue,Helvetica,sans-serif; font-size:48px; text-anchor:middle;" transform="rotate(0, 2249.7, 1494.48)" x="2249.7" y="1494.48">150</text>
</g>
<g clip-path="url(#clip1800)">
<text style="fill:#000000; fill-opacity:1; font-family:Arial,Helvetica Neue,Helvetica,sans-serif; font-size:48px; text-anchor:end;" transform="rotate(0, 228.496, 1422.47)" x="228.496" y="1422.47">-4</text>
</g>
<g clip-path="url(#clip1800)">
<text style="fill:#000000; fill-opacity:1; font-family:Arial,Helvetica Neue,Helvetica,sans-serif; font-size:48px; text-anchor:end;" transform="rotate(0, 228.496, 1334.24)" x="228.496" y="1334.24">-3</text>
</g>
<g clip-path="url(#clip1800)">
<text style="fill:#000000; fill-opacity:1; font-family:Arial,Helvetica Neue,Helvetica,sans-serif; font-size:48px; text-anchor:end;" transform="rotate(0, 228.496, 1246.01)" x="228.496" y="1246.01">-2</text>
</g>
<g clip-path="url(#clip1800)">
<text style="fill:#000000; fill-opacity:1; font-family:Arial,Helvetica Neue,Helvetica,sans-serif; font-size:48px; text-anchor:end;" transform="rotate(0, 228.496, 1157.79)" x="228.496" y="1157.79">-1</text>
</g>
<g clip-path="url(#clip1800)">
<text style="fill:#000000; fill-opacity:1; font-family:Arial,Helvetica Neue,Helvetica,sans-serif; font-size:48px; text-anchor:end;" transform="rotate(0, 228.496, 1069.56)" x="228.496" y="1069.56">0</text>
</g>
<g clip-path="url(#clip1800)">
<text style="fill:#000000; fill-opacity:1; font-family:Arial,Helvetica Neue,Helvetica,sans-serif; font-size:48px; text-anchor:end;" transform="rotate(0, 228.496, 981.335)" x="228.496" y="981.335">1</text>
</g>
<g clip-path="url(#clip1800)">
<text style="fill:#000000; fill-opacity:1; font-family:Arial,Helvetica Neue,Helvetica,sans-serif; font-size:48px; text-anchor:end;" transform="rotate(0, 228.496, 893.108)" x="228.496" y="893.108">2</text>
</g>
<g clip-path="url(#clip1800)">
<text style="fill:#000000; fill-opacity:1; font-family:Arial,Helvetica Neue,Helvetica,sans-serif; font-size:66px; text-anchor:middle;" transform="rotate(0, 1286.88, 1590.4)" x="1286.88" y="1590.4">Time step</text>
</g>
<g clip-path="url(#clip1800)">
<text style="fill:#000000; fill-opacity:1; font-family:Arial,Helvetica Neue,Helvetica,sans-serif; font-size:66px; text-anchor:middle;" transform="rotate(-90, 57.6, 1128.12)" x="57.6" y="1128.12">Value</text>
</g>
<polyline clip-path="url(#clip1803)" style="stroke:#009af9; stroke-width:4; stroke-opacity:1; fill:none" points="
  311.046,932.398 324.057,833.429 337.068,1103.65 350.079,1089.85 363.091,1290.09 376.102,1213.73 389.113,1165.24 402.124,1274.41 415.135,1213.11 428.146,1215.03 
  441.157,1131.76 454.168,1261.51 467.179,1124.58 480.19,1156.62 493.201,1319.74 506.213,1269.22 519.224,1301.83 532.235,1057.77 545.246,1101.68 558.257,1107 
  571.268,1197.61 584.279,1379.5 597.29,1347.14 610.301,1242.99 623.312,1246.25 636.323,1324.62 649.335,1386.78 662.346,1368.37 675.357,1026.61 688.368,1050.58 
  701.379,1105.54 714.39,1106.35 727.401,1174.28 740.412,1112.51 753.423,1124.38 766.434,1069.41 779.445,1329.01 792.457,1270.93 805.468,1193.03 818.479,1303.3 
  831.49,1044.05 844.501,1171.04 857.512,1245.31 870.523,1048.99 883.534,1213.74 896.545,1071.68 909.556,1282.19 922.567,1092.86 935.579,1354.09 948.59,1388.3 
  961.601,1364.56 974.612,1339.46 987.623,1255.38 1000.63,1148.93 1013.65,1210.42 1026.66,1239.1 1039.67,1138.6 1052.68,1176.24 1065.69,1223.11 1078.7,1268.22 
  1091.71,1194.53 1104.72,1305.25 1117.73,1164.46 1130.74,1141.75 1143.76,1351.99 1156.77,1252.81 1169.78,1291.93 1182.79,1349.82 1195.8,1165.54 1208.81,1274.24 
  1221.82,1099.25 1234.83,1073.24 1247.84,1206.5 1260.86,1245.09 1273.87,1142.37 1286.88,1109.06 1299.89,1343.68 1312.9,1157.68 1325.91,1295.66 1338.92,1100.38 
  1351.93,1049.95 1364.94,1107.1 1377.96,1114.15 1390.97,1299.33 1403.98,1118.47 1416.99,1107.2 1430,1146.73 1443.01,1046.99 1456.02,1115.1 1469.03,1151.82 
  1482.04,1274.85 1495.06,1358.97 1508.07,1268.66 1521.08,1310.48 1534.09,1256.4 1547.1,1165.33 1560.11,1203.88 1573.12,1215.52 1586.13,1339.27 1599.14,1326.29 
  1612.16,1304.93 1625.17,1320.28 1638.18,1161.12 1651.19,1134.31 1664.2,1241.85 1677.21,1291.19 1690.22,1258.65 1703.23,1404.87 1716.24,1226.4 1729.26,1073.52 
  1742.27,1124.8 1755.28,1169.84 1768.29,1043.52 1781.3,1049.88 1794.31,1167.31 1807.32,1299.65 1820.33,1211.25 1833.34,1328.64 1846.35,1117.27 1859.37,1253.04 
  1872.38,1190.93 1885.39,1115.72 1898.4,1149.94 1911.41,1175.77 1924.42,1108.47 1937.43,1338.41 1950.44,1082.27 1963.45,1093.84 1976.47,1103.52 1989.48,1109.52 
  2002.49,1282.12 2015.5,1381.58 2028.51,1422.8 2041.52,1311.77 2054.53,1180.64 2067.54,1326.39 2080.55,1054.09 2093.57,1208.54 2106.58,1127.2 2119.59,1244.7 
  2132.6,1130.28 2145.61,1325.7 2158.62,1370.08 2171.63,1104.37 2184.64,1173.8 2197.65,1303.33 2210.67,1088.05 2223.68,1277.41 2236.69,1286.5 2249.7,1285.44 
  2262.71,1283.27 
  "/>
<path clip-path="url(#clip1800)" d="
M1557.24 1020.23 L2249.26 1020.23 L2249.26 899.268 L1557.24 899.268  Z
  " fill="#ffffff" fill-rule="evenodd" fill-opacity="1"/>
<polyline clip-path="url(#clip1800)" style="stroke:#000000; stroke-width:4; stroke-opacity:1; fill:none" points="
  1557.24,1020.23 2249.26,1020.23 2249.26,899.268 1557.24,899.268 1557.24,1020.23 
  "/>
<polyline clip-path="url(#clip1800)" style="stroke:#009af9; stroke-width:4; stroke-opacity:1; fill:none" points="
  1581.24,959.748 1725.24,959.748 
  "/>
<g clip-path="url(#clip1800)">
<text style="fill:#000000; fill-opacity:1; font-family:Arial,Helvetica Neue,Helvetica,sans-serif; font-size:48px; text-anchor:start;" transform="rotate(0, 1749.24, 977.248)" x="1749.24" y="977.248">randomamplitudes(x)</text>
</g>
</svg>
