<?xml version="1.0" encoding="utf-8"?>
<svg xmlns="http://www.w3.org/2000/svg" xmlns:xlink="http://www.w3.org/1999/xlink" width="600" height="400" viewBox="0 0 2400 1600">
<defs>
  <clipPath id="clip1500">
    <rect x="0" y="0" width="2400" height="1600"/>
  </clipPath>
</defs>
<path clip-path="url(#clip1500)" d="
M0 1600 L2400 1600 L2400 0 L0 0  Z
  " fill="#ffffff" fill-rule="evenodd" fill-opacity="1"/>
<defs>
  <clipPath id="clip1501">
    <rect x="480" y="0" width="1681" height="1600"/>
  </clipPath>
</defs>
<path clip-path="url(#clip1500)" d="
M252.496 671.979 L2321.26 671.979 L2321.26 47.2441 L252.496 47.2441  Z
  " fill="#ffffff" fill-rule="evenodd" fill-opacity="1"/>
<defs>
  <clipPath id="clip1502">
    <rect x="252" y="47" width="2070" height="626"/>
  </clipPath>
</defs>
<polyline clip-path="url(#clip1502)" style="stroke:#000000; stroke-width:2; stroke-opacity:0.1; fill:none" points="
  301.239,671.979 301.239,47.2441 
  "/>
<polyline clip-path="url(#clip1502)" style="stroke:#000000; stroke-width:2; stroke-opacity:0.1; fill:none" points="
  791.607,671.979 791.607,47.2441 
  "/>
<polyline clip-path="url(#clip1502)" style="stroke:#000000; stroke-width:2; stroke-opacity:0.1; fill:none" points="
  1281.97,671.979 1281.97,47.2441 
  "/>
<polyline clip-path="url(#clip1502)" style="stroke:#000000; stroke-width:2; stroke-opacity:0.1; fill:none" points="
  1772.34,671.979 1772.34,47.2441 
  "/>
<polyline clip-path="url(#clip1502)" style="stroke:#000000; stroke-width:2; stroke-opacity:0.1; fill:none" points="
  2262.71,671.979 2262.71,47.2441 
  "/>
<polyline clip-path="url(#clip1502)" style="stroke:#000000; stroke-width:2; stroke-opacity:0.1; fill:none" points="
  252.496,576.104 2321.26,576.104 
  "/>
<polyline clip-path="url(#clip1502)" style="stroke:#000000; stroke-width:2; stroke-opacity:0.1; fill:none" points="
  252.496,464.582 2321.26,464.582 
  "/>
<polyline clip-path="url(#clip1502)" style="stroke:#000000; stroke-width:2; stroke-opacity:0.1; fill:none" points="
  252.496,353.06 2321.26,353.06 
  "/>
<polyline clip-path="url(#clip1502)" style="stroke:#000000; stroke-width:2; stroke-opacity:0.1; fill:none" points="
  252.496,241.538 2321.26,241.538 
  "/>
<polyline clip-path="url(#clip1502)" style="stroke:#000000; stroke-width:2; stroke-opacity:0.1; fill:none" points="
  252.496,130.016 2321.26,130.016 
  "/>
<polyline clip-path="url(#clip1500)" style="stroke:#000000; stroke-width:4; stroke-opacity:1; fill:none" points="
  252.496,671.979 2321.26,671.979 
  "/>
<polyline clip-path="url(#clip1500)" style="stroke:#000000; stroke-width:4; stroke-opacity:1; fill:none" points="
  252.496,671.979 252.496,47.2441 
  "/>
<polyline clip-path="url(#clip1500)" style="stroke:#000000; stroke-width:4; stroke-opacity:1; fill:none" points="
  301.239,671.979 301.239,662.608 
  "/>
<polyline clip-path="url(#clip1500)" style="stroke:#000000; stroke-width:4; stroke-opacity:1; fill:none" points="
  791.607,671.979 791.607,662.608 
  "/>
<polyline clip-path="url(#clip1500)" style="stroke:#000000; stroke-width:4; stroke-opacity:1; fill:none" points="
  1281.97,671.979 1281.97,662.608 
  "/>
<polyline clip-path="url(#clip1500)" style="stroke:#000000; stroke-width:4; stroke-opacity:1; fill:none" points="
  1772.34,671.979 1772.34,662.608 
  "/>
<polyline clip-path="url(#clip1500)" style="stroke:#000000; stroke-width:4; stroke-opacity:1; fill:none" points="
  2262.71,671.979 2262.71,662.608 
  "/>
<polyline clip-path="url(#clip1500)" style="stroke:#000000; stroke-width:4; stroke-opacity:1; fill:none" points="
  252.496,576.104 283.528,576.104 
  "/>
<polyline clip-path="url(#clip1500)" style="stroke:#000000; stroke-width:4; stroke-opacity:1; fill:none" points="
  252.496,464.582 283.528,464.582 
  "/>
<polyline clip-path="url(#clip1500)" style="stroke:#000000; stroke-width:4; stroke-opacity:1; fill:none" points="
  252.496,353.06 283.528,353.06 
  "/>
<polyline clip-path="url(#clip1500)" style="stroke:#000000; stroke-width:4; stroke-opacity:1; fill:none" points="
  252.496,241.538 283.528,241.538 
  "/>
<polyline clip-path="url(#clip1500)" style="stroke:#000000; stroke-width:4; stroke-opacity:1; fill:none" points="
  252.496,130.016 283.528,130.016 
  "/>
<g clip-path="url(#clip1500)">
<text style="fill:#000000; fill-opacity:1; font-family:Arial,Helvetica Neue,Helvetica,sans-serif; font-size:48px; text-anchor:middle;" transform="rotate(0, 301.239, 725.979)" x="301.239" y="725.979">0</text>
</g>
<g clip-path="url(#clip1500)">
<text style="fill:#000000; fill-opacity:1; font-family:Arial,Helvetica Neue,Helvetica,sans-serif; font-size:48px; text-anchor:middle;" transform="rotate(0, 791.607, 725.979)" x="791.607" y="725.979">50</text>
</g>
<g clip-path="url(#clip1500)">
<text style="fill:#000000; fill-opacity:1; font-family:Arial,Helvetica Neue,Helvetica,sans-serif; font-size:48px; text-anchor:middle;" transform="rotate(0, 1281.97, 725.979)" x="1281.97" y="725.979">100</text>
</g>
<g clip-path="url(#clip1500)">
<text style="fill:#000000; fill-opacity:1; font-family:Arial,Helvetica Neue,Helvetica,sans-serif; font-size:48px; text-anchor:middle;" transform="rotate(0, 1772.34, 725.979)" x="1772.34" y="725.979">150</text>
</g>
<g clip-path="url(#clip1500)">
<text style="fill:#000000; fill-opacity:1; font-family:Arial,Helvetica Neue,Helvetica,sans-serif; font-size:48px; text-anchor:middle;" transform="rotate(0, 2262.71, 725.979)" x="2262.71" y="725.979">200</text>
</g>
<g clip-path="url(#clip1500)">
<text style="fill:#000000; fill-opacity:1; font-family:Arial,Helvetica Neue,Helvetica,sans-serif; font-size:48px; text-anchor:end;" transform="rotate(0, 228.496, 593.604)" x="228.496" y="593.604">-1.0</text>
</g>
<g clip-path="url(#clip1500)">
<text style="fill:#000000; fill-opacity:1; font-family:Arial,Helvetica Neue,Helvetica,sans-serif; font-size:48px; text-anchor:end;" transform="rotate(0, 228.496, 482.082)" x="228.496" y="482.082">-0.5</text>
</g>
<g clip-path="url(#clip1500)">
<text style="fill:#000000; fill-opacity:1; font-family:Arial,Helvetica Neue,Helvetica,sans-serif; font-size:48px; text-anchor:end;" transform="rotate(0, 228.496, 370.56)" x="228.496" y="370.56">0.0</text>
</g>
<g clip-path="url(#clip1500)">
<text style="fill:#000000; fill-opacity:1; font-family:Arial,Helvetica Neue,Helvetica,sans-serif; font-size:48px; text-anchor:end;" transform="rotate(0, 228.496, 259.038)" x="228.496" y="259.038">0.5</text>
</g>
<g clip-path="url(#clip1500)">
<text style="fill:#000000; fill-opacity:1; font-family:Arial,Helvetica Neue,Helvetica,sans-serif; font-size:48px; text-anchor:end;" transform="rotate(0, 228.496, 147.516)" x="228.496" y="147.516">1.0</text>
</g>
<g clip-path="url(#clip1500)">
<text style="fill:#000000; fill-opacity:1; font-family:Arial,Helvetica Neue,Helvetica,sans-serif; font-size:66px; text-anchor:middle;" transform="rotate(-90, 57.6, 359.611)" x="57.6" y="359.611">Value</text>
</g>
<polyline clip-path="url(#clip1502)" style="stroke:#000000; stroke-width:4; stroke-opacity:1; fill:none" points="
  311.046,146.79 320.854,126.604 330.661,154.361 340.468,163.887 350.276,199.05 360.083,231.438 369.89,313.28 379.698,404.724 389.505,344.331 399.312,437.281 
  409.12,528.499 418.927,511.016 428.734,501.284 438.542,654.297 448.349,582.349 458.156,514.373 467.964,615.802 477.771,531.526 487.579,420.236 497.386,465.322 
  507.193,437.456 517.001,365.451 526.808,355.529 536.615,220.195 546.423,307.804 556.23,104.29 566.037,177.687 575.845,133.52 585.652,161.259 595.459,94.5624 
  605.267,153.589 615.074,170.239 624.882,185.166 634.689,316.239 644.496,270.056 654.304,264.039 664.111,405.864 673.918,469.021 683.726,470.93 693.533,443.351 
  703.34,518.113 713.148,593.414 722.955,604.981 732.762,585.966 742.57,540.304 752.377,576.619 762.185,455.78 771.992,529.753 781.799,461.262 791.607,389.378 
  801.414,258.818 811.221,338.083 821.029,268.676 830.836,232.051 840.643,146.822 850.451,114.301 860.258,105.923 870.065,199.071 879.873,110.579 889.68,145.702 
  899.487,193.642 909.295,180.305 919.102,303.378 928.91,305.798 938.717,301.283 948.524,474.332 958.332,399.873 968.139,549.118 977.946,487.619 987.754,553.364 
  997.561,605.788 1007.37,553.107 1017.18,587.52 1026.98,487.642 1036.79,604.604 1046.6,474.043 1056.41,385.643 1066.21,450.68 1076.02,406.39 1085.83,243.602 
  1095.63,348.999 1105.44,171.658 1115.25,201.103 1125.06,130.746 1134.86,188.386 1144.67,64.9253 1154.48,189.657 1164.29,163.694 1174.09,173.863 1183.9,123.785 
  1193.71,280.422 1203.52,235.962 1213.32,401.924 1223.13,381.051 1232.94,404.548 1242.74,443.637 1252.55,511.721 1262.36,571.897 1272.17,602.996 1281.97,576.851 
  1291.78,500.962 1301.59,606.016 1311.4,575.272 1321.2,530.978 1331.01,427.9 1340.82,450.019 1350.63,373.452 1360.43,355.439 1370.24,205.043 1380.05,245.188 
  1389.86,258.716 1399.66,111.19 1409.47,153.444 1419.28,149.022 1429.08,144.369 1438.89,181.573 1448.7,127.355 1458.51,158.37 1468.31,214.727 1478.12,339.3 
  1487.93,301.352 1497.74,345.122 1507.54,388.381 1517.35,499.066 1527.16,426.079 1536.97,571.321 1546.77,550.882 1556.58,548.412 1566.39,627.595 1576.2,593.852 
  1586,514.221 1595.81,465.8 1605.62,523.549 1615.42,466.407 1625.23,401.708 1635.04,387.094 1644.85,282.411 1654.65,211.144 1664.46,214.396 1674.27,192.649 
  1684.08,237.66 1693.88,85.0556 1703.69,151.629 1713.5,78.3372 1723.31,131.109 1733.11,215.637 1742.92,259.225 1752.73,242.921 1762.53,297.785 1772.34,326.371 
  1782.15,405.609 1791.96,403.291 1801.76,496.676 1811.57,497.57 1821.38,507.724 1831.19,555.224 1840.99,631.433 1850.8,525.103 1860.61,638.008 1870.42,525.86 
  1880.22,469.04 1890.03,477.992 1899.84,458.671 1909.65,345.758 1919.45,300.959 1929.26,315.073 1939.07,254.148 1948.87,177.46 1958.68,175.535 1968.49,127.085 
  1978.3,144.006 1988.1,77.1332 1997.91,110.831 2007.72,203.832 2017.53,172.124 2027.33,286.16 2037.14,244.323 2046.95,352.04 2056.76,359.666 2066.56,442.527 
  2076.37,458.572 2086.18,469.738 2095.98,514.375 2105.79,550.882 2115.6,635.73 2125.41,493.03 2135.21,608.659 2145.02,580.067 2154.83,535.135 2164.64,492.826 
  2174.44,387.198 2184.25,371.105 2194.06,400.149 2203.87,274.079 2213.67,225.151 2223.48,189.811 2233.29,178.453 2243.1,208.723 2252.9,164.432 2262.71,69.2001 
  
  "/>
<path clip-path="url(#clip1500)" d="
M1971.81 251.724 L2249.26 251.724 L2249.26 130.764 L1971.81 130.764  Z
  " fill="#ffffff" fill-rule="evenodd" fill-opacity="1"/>
<polyline clip-path="url(#clip1500)" style="stroke:#000000; stroke-width:4; stroke-opacity:1; fill:none" points="
  1971.81,251.724 2249.26,251.724 2249.26,130.764 1971.81,130.764 1971.81,251.724 
  "/>
<polyline clip-path="url(#clip1500)" style="stroke:#000000; stroke-width:4; stroke-opacity:1; fill:none" points="
  1995.81,191.244 2139.81,191.244 
  "/>
<g clip-path="url(#clip1500)">
<text style="fill:#000000; fill-opacity:1; font-family:Arial,Helvetica Neue,Helvetica,sans-serif; font-size:48px; text-anchor:start;" transform="rotate(0, 2163.81, 208.744)" x="2163.81" y="208.744">ts</text>
</g>
<path clip-path="url(#clip1500)" d="
M252.496 1440.48 L2321.26 1440.48 L2321.26 815.748 L252.496 815.748  Z
  " fill="#ffffff" fill-rule="evenodd" fill-opacity="1"/>
<defs>
  <clipPath id="clip1503">
    <rect x="252" y="815" width="2070" height="626"/>
  </clipPath>
</defs>
<polyline clip-path="url(#clip1503)" style="stroke:#000000; stroke-width:2; stroke-opacity:0.1; fill:none" points="
  301.239,1440.48 301.239,815.748 
  "/>
<polyline clip-path="url(#clip1503)" style="stroke:#000000; stroke-width:2; stroke-opacity:0.1; fill:none" points="
  791.607,1440.48 791.607,815.748 
  "/>
<polyline clip-path="url(#clip1503)" style="stroke:#000000; stroke-width:2; stroke-opacity:0.1; fill:none" points="
  1281.97,1440.48 1281.97,815.748 
  "/>
<polyline clip-path="url(#clip1503)" style="stroke:#000000; stroke-width:2; stroke-opacity:0.1; fill:none" points="
  1772.34,1440.48 1772.34,815.748 
  "/>
<polyline clip-path="url(#clip1503)" style="stroke:#000000; stroke-width:2; stroke-opacity:0.1; fill:none" points="
  2262.71,1440.48 2262.71,815.748 
  "/>
<polyline clip-path="url(#clip1503)" style="stroke:#000000; stroke-width:2; stroke-opacity:0.1; fill:none" points="
  252.496,1344.61 2321.26,1344.61 
  "/>
<polyline clip-path="url(#clip1503)" style="stroke:#000000; stroke-width:2; stroke-opacity:0.1; fill:none" points="
  252.496,1233.09 2321.26,1233.09 
  "/>
<polyline clip-path="url(#clip1503)" style="stroke:#000000; stroke-width:2; stroke-opacity:0.1; fill:none" points="
  252.496,1121.56 2321.26,1121.56 
  "/>
<polyline clip-path="url(#clip1503)" style="stroke:#000000; stroke-width:2; stroke-opacity:0.1; fill:none" points="
  252.496,1010.04 2321.26,1010.04 
  "/>
<polyline clip-path="url(#clip1503)" style="stroke:#000000; stroke-width:2; stroke-opacity:0.1; fill:none" points="
  252.496,898.52 2321.26,898.52 
  "/>
<polyline clip-path="url(#clip1500)" style="stroke:#000000; stroke-width:4; stroke-opacity:1; fill:none" points="
  252.496,1440.48 2321.26,1440.48 
  "/>
<polyline clip-path="url(#clip1500)" style="stroke:#000000; stroke-width:4; stroke-opacity:1; fill:none" points="
  252.496,1440.48 252.496,815.748 
  "/>
<polyline clip-path="url(#clip1500)" style="stroke:#000000; stroke-width:4; stroke-opacity:1; fill:none" points="
  301.239,1440.48 301.239,1431.11 
  "/>
<polyline clip-path="url(#clip1500)" style="stroke:#000000; stroke-width:4; stroke-opacity:1; fill:none" points="
  791.607,1440.48 791.607,1431.11 
  "/>
<polyline clip-path="url(#clip1500)" style="stroke:#000000; stroke-width:4; stroke-opacity:1; fill:none" points="
  1281.97,1440.48 1281.97,1431.11 
  "/>
<polyline clip-path="url(#clip1500)" style="stroke:#000000; stroke-width:4; stroke-opacity:1; fill:none" points="
  1772.34,1440.48 1772.34,1431.11 
  "/>
<polyline clip-path="url(#clip1500)" style="stroke:#000000; stroke-width:4; stroke-opacity:1; fill:none" points="
  2262.71,1440.48 2262.71,1431.11 
  "/>
<polyline clip-path="url(#clip1500)" style="stroke:#000000; stroke-width:4; stroke-opacity:1; fill:none" points="
  252.496,1344.61 283.528,1344.61 
  "/>
<polyline clip-path="url(#clip1500)" style="stroke:#000000; stroke-width:4; stroke-opacity:1; fill:none" points="
  252.496,1233.09 283.528,1233.09 
  "/>
<polyline clip-path="url(#clip1500)" style="stroke:#000000; stroke-width:4; stroke-opacity:1; fill:none" points="
  252.496,1121.56 283.528,1121.56 
  "/>
<polyline clip-path="url(#clip1500)" style="stroke:#000000; stroke-width:4; stroke-opacity:1; fill:none" points="
  252.496,1010.04 283.528,1010.04 
  "/>
<polyline clip-path="url(#clip1500)" style="stroke:#000000; stroke-width:4; stroke-opacity:1; fill:none" points="
  252.496,898.52 283.528,898.52 
  "/>
<g clip-path="url(#clip1500)">
<text style="fill:#000000; fill-opacity:1; font-family:Arial,Helvetica Neue,Helvetica,sans-serif; font-size:48px; text-anchor:middle;" transform="rotate(0, 301.239, 1494.48)" x="301.239" y="1494.48">0</text>
</g>
<g clip-path="url(#clip1500)">
<text style="fill:#000000; fill-opacity:1; font-family:Arial,Helvetica Neue,Helvetica,sans-serif; font-size:48px; text-anchor:middle;" transform="rotate(0, 791.607, 1494.48)" x="791.607" y="1494.48">50</text>
</g>
<g clip-path="url(#clip1500)">
<text style="fill:#000000; fill-opacity:1; font-family:Arial,Helvetica Neue,Helvetica,sans-serif; font-size:48px; text-anchor:middle;" transform="rotate(0, 1281.97, 1494.48)" x="1281.97" y="1494.48">100</text>
</g>
<g clip-path="url(#clip1500)">
<text style="fill:#000000; fill-opacity:1; font-family:Arial,Helvetica Neue,Helvetica,sans-serif; font-size:48px; text-anchor:middle;" transform="rotate(0, 1772.34, 1494.48)" x="1772.34" y="1494.48">150</text>
</g>
<g clip-path="url(#clip1500)">
<text style="fill:#000000; fill-opacity:1; font-family:Arial,Helvetica Neue,Helvetica,sans-serif; font-size:48px; text-anchor:middle;" transform="rotate(0, 2262.71, 1494.48)" x="2262.71" y="1494.48">200</text>
</g>
<g clip-path="url(#clip1500)">
<text style="fill:#000000; fill-opacity:1; font-family:Arial,Helvetica Neue,Helvetica,sans-serif; font-size:48px; text-anchor:end;" transform="rotate(0, 228.496, 1362.11)" x="228.496" y="1362.11">-1.0</text>
</g>
<g clip-path="url(#clip1500)">
<text style="fill:#000000; fill-opacity:1; font-family:Arial,Helvetica Neue,Helvetica,sans-serif; font-size:48px; text-anchor:end;" transform="rotate(0, 228.496, 1250.59)" x="228.496" y="1250.59">-0.5</text>
</g>
<g clip-path="url(#clip1500)">
<text style="fill:#000000; fill-opacity:1; font-family:Arial,Helvetica Neue,Helvetica,sans-serif; font-size:48px; text-anchor:end;" transform="rotate(0, 228.496, 1139.06)" x="228.496" y="1139.06">0.0</text>
</g>
<g clip-path="url(#clip1500)">
<text style="fill:#000000; fill-opacity:1; font-family:Arial,Helvetica Neue,Helvetica,sans-serif; font-size:48px; text-anchor:end;" transform="rotate(0, 228.496, 1027.54)" x="228.496" y="1027.54">0.5</text>
</g>
<g clip-path="url(#clip1500)">
<text style="fill:#000000; fill-opacity:1; font-family:Arial,Helvetica Neue,Helvetica,sans-serif; font-size:48px; text-anchor:end;" transform="rotate(0, 228.496, 916.02)" x="228.496" y="916.02">1.0</text>
</g>
<g clip-path="url(#clip1500)">
<text style="fill:#000000; fill-opacity:1; font-family:Arial,Helvetica Neue,Helvetica,sans-serif; font-size:66px; text-anchor:middle;" transform="rotate(0, 1286.88, 1590.4)" x="1286.88" y="1590.4">Time step</text>
</g>
<g clip-path="url(#clip1500)">
<text style="fill:#000000; fill-opacity:1; font-family:Arial,Helvetica Neue,Helvetica,sans-serif; font-size:66px; text-anchor:middle;" transform="rotate(-90, 57.6, 1128.12)" x="57.6" y="1128.12">Value</text>
</g>
<polyline clip-path="url(#clip1503)" style="stroke:#009af9; stroke-width:4; stroke-opacity:1; fill:none" points="
  311.046,940.162 320.854,967.575 330.661,929.763 340.468,920.133 350.276,846.841 360.083,1004.47 369.89,1000.55 379.698,932.391 389.505,945.964 399.312,1117.5 
  409.12,1170.21 418.927,1074.3 428.734,1261.53 438.542,1188.74 448.349,1280.22 458.156,1343.78 467.964,1297 477.771,1361.92 487.579,1299.48 497.386,1321.61 
  507.193,1374.29 517.001,1212.14 526.808,1205.78 536.615,1234.3 546.423,1124.03 556.23,1106.59 566.037,1120.54 575.845,912.51 585.652,979.648 595.459,938.743 
  605.267,982.9 615.074,872.794 624.882,961.153 634.689,879.335 644.496,853.559 654.304,1037.18 664.111,1022.65 673.918,1050.92 683.726,1083.58 693.533,1066.29 
  703.34,1157.88 713.148,1282.88 722.955,1218.52 732.762,1298.26 742.57,1282.73 752.377,1396.1 762.185,1303.64 771.992,1422.8 781.799,1265.18 791.607,1246.5 
  801.414,1317.62 811.221,1269.47 821.029,1156.88 830.836,1154.15 840.643,1069.46 850.451,1042.58 860.258,962.146 870.065,973.547 879.873,946.191 889.68,902.024 
  899.487,879.694 909.295,915.294 919.102,882.805 928.91,895.108 938.717,977.227 948.524,1069.79 958.332,1011.43 968.139,1133.95 977.946,1155.7 987.754,1171.8 
  997.561,1282.88 1007.37,1321.87 1017.18,1229.77 1026.98,1319.39 1036.79,1373.11 1046.6,1339.83 1056.41,1348.57 1066.21,1286.62 1076.02,1276.23 1085.83,1227.17 
  1095.63,1234.91 1105.44,1113.63 1115.25,1038.56 1125.06,1027.32 1134.86,1071.88 1144.67,874.427 1154.48,956.89 1164.29,895.859 1174.09,940.628 1183.9,833.429 
  1193.71,953.67 1203.52,967.554 1213.32,917.526 1223.13,993.655 1232.94,1027.73 1242.74,1084.74 1252.55,1170.43 1262.36,1219.18 1272.17,1238.24 1281.97,1174.37 
  1291.78,1371.5 1301.59,1373.48 1311.4,1350.85 1321.2,1404.23 1331.01,1269.79 1340.82,1384.31 1350.63,1323.73 1360.43,1256.15 1370.24,1239.43 1380.05,1128.17 
  1389.86,1112.83 1399.66,1155.6 1409.47,946.956 1419.28,1006.16 1429.08,969.607 1438.89,922.865 1448.7,837.704 1458.51,863.066 1468.31,932.936 1478.12,915.326 
  1487.93,950.077 1497.74,926.874 1507.54,1012.11 1517.35,1107.8 1527.16,1168.38 1536.97,1149.55 1546.77,1196.4 1556.58,1242.55 1566.39,1256.12 1576.2,1293.61 
  1586,1308.81 1595.81,1399.94 1605.62,1362.36 1615.42,1406.51 1625.23,1267.57 1635.04,1345.12 1644.85,1174.11 1654.65,1227.08 1664.46,1114.26 1674.27,1094.87 
  1684.08,1013.69 1693.88,988.699 1703.69,958.161 1713.5,944.039 1723.31,922.092 1733.11,892.289 1742.92,845.637 1752.73,921.948 1762.53,899.613 1772.34,972.336 
  1782.15,932.198 1791.96,1081.78 1801.76,1076.31 1811.57,1032.54 1821.38,1174.89 1831.19,1224.28 1840.99,1279.52 1850.8,1237.53 1860.61,1319.39 1870.42,1316.92 
  1880.22,1374.52 1890.03,1300.03 1899.84,1345.35 1909.65,1340.4 1919.45,1242.84 1929.26,1211.03 1939.07,1194.58 1948.87,1123.94 1958.68,1141.96 1968.49,1048.93 
  1978.3,1027.22 1988.1,948.809 1997.91,958.314 2007.72,895.589 2017.53,912.873 2027.33,879.083 2037.14,899.25 2046.95,914.206 2056.76,942.367 2066.56,999.942 
  2076.37,1012.83 2086.18,1069.86 2095.98,1139.61 2105.79,1211.85 2115.6,1237.54 2125.41,1261.33 2135.21,1205.96 2145.02,1377.16 2154.83,1292.05 2164.64,1356.02 
  2174.44,1294.36 2184.25,1354.47 2194.06,1233.83 2203.87,1266.07 2213.67,1173.23 2223.48,1173.05 2233.29,1168.65 2243.1,1054.66 2252.9,983.231 2262.71,984.14 
  
  "/>
<path clip-path="url(#clip1500)" d="
M1848.78 1020.23 L2249.26 1020.23 L2249.26 899.268 L1848.78 899.268  Z
  " fill="#ffffff" fill-rule="evenodd" fill-opacity="1"/>
<polyline clip-path="url(#clip1500)" style="stroke:#000000; stroke-width:4; stroke-opacity:1; fill:none" points="
  1848.78,1020.23 2249.26,1020.23 2249.26,899.268 1848.78,899.268 1848.78,1020.23 
  "/>
<polyline clip-path="url(#clip1500)" style="stroke:#009af9; stroke-width:4; stroke-opacity:1; fill:none" points="
  1872.78,959.748 2016.78,959.748 
  "/>
<g clip-path="url(#clip1500)">
<text style="fill:#000000; fill-opacity:1; font-family:Arial,Helvetica Neue,Helvetica,sans-serif; font-size:48px; text-anchor:start;" transform="rotate(0, 2040.78, 977.248)" x="2040.78" y="977.248">iaaft(ts)</text>
</g>
</svg>
