<?xml version="1.0" encoding="utf-8"?>
<svg xmlns="http://www.w3.org/2000/svg" xmlns:xlink="http://www.w3.org/1999/xlink" width="600" height="400" viewBox="0 0 2400 1600">
<defs>
  <clipPath id="clip2100">
    <rect x="0" y="0" width="2400" height="1600"/>
  </clipPath>
</defs>
<path clip-path="url(#clip2100)" d="
M0 1600 L2400 1600 L2400 0 L0 0  Z
  " fill="#ffffff" fill-rule="evenodd" fill-opacity="1"/>
<defs>
  <clipPath id="clip2101">
    <rect x="480" y="0" width="1681" height="1600"/>
  </clipPath>
</defs>
<path clip-path="url(#clip2100)" d="
M252.496 671.979 L2321.26 671.979 L2321.26 47.2441 L252.496 47.2441  Z
  " fill="#ffffff" fill-rule="evenodd" fill-opacity="1"/>
<defs>
  <clipPath id="clip2102">
    <rect x="252" y="47" width="2070" height="626"/>
  </clipPath>
</defs>
<polyline clip-path="url(#clip2102)" style="stroke:#000000; stroke-width:2; stroke-opacity:0.1; fill:none" points="
  298.035,671.979 298.035,47.2441 
  "/>
<polyline clip-path="url(#clip2102)" style="stroke:#000000; stroke-width:2; stroke-opacity:0.1; fill:none" points="
  948.59,671.979 948.59,47.2441 
  "/>
<polyline clip-path="url(#clip2102)" style="stroke:#000000; stroke-width:2; stroke-opacity:0.1; fill:none" points="
  1599.14,671.979 1599.14,47.2441 
  "/>
<polyline clip-path="url(#clip2102)" style="stroke:#000000; stroke-width:2; stroke-opacity:0.1; fill:none" points="
  2249.7,671.979 2249.7,47.2441 
  "/>
<polyline clip-path="url(#clip2102)" style="stroke:#000000; stroke-width:2; stroke-opacity:0.1; fill:none" points="
  252.496,656.17 2321.26,656.17 
  "/>
<polyline clip-path="url(#clip2102)" style="stroke:#000000; stroke-width:2; stroke-opacity:0.1; fill:none" points="
  252.496,503.528 2321.26,503.528 
  "/>
<polyline clip-path="url(#clip2102)" style="stroke:#000000; stroke-width:2; stroke-opacity:0.1; fill:none" points="
  252.496,350.885 2321.26,350.885 
  "/>
<polyline clip-path="url(#clip2102)" style="stroke:#000000; stroke-width:2; stroke-opacity:0.1; fill:none" points="
  252.496,198.243 2321.26,198.243 
  "/>
<polyline clip-path="url(#clip2100)" style="stroke:#000000; stroke-width:4; stroke-opacity:1; fill:none" points="
  252.496,671.979 2321.26,671.979 
  "/>
<polyline clip-path="url(#clip2100)" style="stroke:#000000; stroke-width:4; stroke-opacity:1; fill:none" points="
  252.496,671.979 252.496,47.2441 
  "/>
<polyline clip-path="url(#clip2100)" style="stroke:#000000; stroke-width:4; stroke-opacity:1; fill:none" points="
  298.035,671.979 298.035,662.608 
  "/>
<polyline clip-path="url(#clip2100)" style="stroke:#000000; stroke-width:4; stroke-opacity:1; fill:none" points="
  948.59,671.979 948.59,662.608 
  "/>
<polyline clip-path="url(#clip2100)" style="stroke:#000000; stroke-width:4; stroke-opacity:1; fill:none" points="
  1599.14,671.979 1599.14,662.608 
  "/>
<polyline clip-path="url(#clip2100)" style="stroke:#000000; stroke-width:4; stroke-opacity:1; fill:none" points="
  2249.7,671.979 2249.7,662.608 
  "/>
<polyline clip-path="url(#clip2100)" style="stroke:#000000; stroke-width:4; stroke-opacity:1; fill:none" points="
  252.496,656.17 283.528,656.17 
  "/>
<polyline clip-path="url(#clip2100)" style="stroke:#000000; stroke-width:4; stroke-opacity:1; fill:none" points="
  252.496,503.528 283.528,503.528 
  "/>
<polyline clip-path="url(#clip2100)" style="stroke:#000000; stroke-width:4; stroke-opacity:1; fill:none" points="
  252.496,350.885 283.528,350.885 
  "/>
<polyline clip-path="url(#clip2100)" style="stroke:#000000; stroke-width:4; stroke-opacity:1; fill:none" points="
  252.496,198.243 283.528,198.243 
  "/>
<g clip-path="url(#clip2100)">
<text style="fill:#000000; fill-opacity:1; font-family:Arial,Helvetica Neue,Helvetica,sans-serif; font-size:48px; text-anchor:middle;" transform="rotate(0, 298.035, 725.979)" x="298.035" y="725.979">0</text>
</g>
<g clip-path="url(#clip2100)">
<text style="fill:#000000; fill-opacity:1; font-family:Arial,Helvetica Neue,Helvetica,sans-serif; font-size:48px; text-anchor:middle;" transform="rotate(0, 948.59, 725.979)" x="948.59" y="725.979">50</text>
</g>
<g clip-path="url(#clip2100)">
<text style="fill:#000000; fill-opacity:1; font-family:Arial,Helvetica Neue,Helvetica,sans-serif; font-size:48px; text-anchor:middle;" transform="rotate(0, 1599.14, 725.979)" x="1599.14" y="725.979">100</text>
</g>
<g clip-path="url(#clip2100)">
<text style="fill:#000000; fill-opacity:1; font-family:Arial,Helvetica Neue,Helvetica,sans-serif; font-size:48px; text-anchor:middle;" transform="rotate(0, 2249.7, 725.979)" x="2249.7" y="725.979">150</text>
</g>
<g clip-path="url(#clip2100)">
<text style="fill:#000000; fill-opacity:1; font-family:Arial,Helvetica Neue,Helvetica,sans-serif; font-size:48px; text-anchor:end;" transform="rotate(0, 228.496, 673.67)" x="228.496" y="673.67">-1.0</text>
</g>
<g clip-path="url(#clip2100)">
<text style="fill:#000000; fill-opacity:1; font-family:Arial,Helvetica Neue,Helvetica,sans-serif; font-size:48px; text-anchor:end;" transform="rotate(0, 228.496, 521.028)" x="228.496" y="521.028">-0.5</text>
</g>
<g clip-path="url(#clip2100)">
<text style="fill:#000000; fill-opacity:1; font-family:Arial,Helvetica Neue,Helvetica,sans-serif; font-size:48px; text-anchor:end;" transform="rotate(0, 228.496, 368.385)" x="228.496" y="368.385">0.0</text>
</g>
<g clip-path="url(#clip2100)">
<text style="fill:#000000; fill-opacity:1; font-family:Arial,Helvetica Neue,Helvetica,sans-serif; font-size:48px; text-anchor:end;" transform="rotate(0, 228.496, 215.743)" x="228.496" y="215.743">0.5</text>
</g>
<g clip-path="url(#clip2100)">
<text style="fill:#000000; fill-opacity:1; font-family:Arial,Helvetica Neue,Helvetica,sans-serif; font-size:66px; text-anchor:middle;" transform="rotate(-90, 57.6, 359.611)" x="57.6" y="359.611">Value</text>
</g>
<polyline clip-path="url(#clip2102)" style="stroke:#009af9; stroke-width:4; stroke-opacity:1; fill:none" points="
  311.046,193.013 324.057,152.452 337.068,240.807 350.079,119.973 363.091,120.779 376.102,132.968 389.113,146.795 402.124,230.784 415.135,143.831 428.146,239.057 
  441.157,151.616 454.168,210.316 467.179,163.948 480.19,173.427 493.201,219.2 506.213,64.9253 519.224,406.927 532.235,615.821 545.246,496.104 558.257,580.482 
  571.268,628.601 584.279,651.695 597.29,602.187 610.301,636.523 623.312,649.226 636.323,622.65 649.335,454.158 662.346,601.648 675.357,648.488 688.368,548.983 
  701.379,375.469 714.39,434.958 727.401,447.095 740.412,465.597 753.423,642.029 766.434,541.78 779.445,620.665 792.457,624.308 805.468,501.348 818.479,502.203 
  831.49,612.709 844.501,584.944 857.512,593.722 870.523,441.793 883.534,521.77 896.545,504.975 909.556,359.456 922.567,385.619 935.579,496.143 948.59,472.06 
  961.601,365.845 974.612,414.092 987.623,654.297 1000.63,596.173 1013.65,479.424 1026.66,470.303 1039.67,400.275 1052.68,568.445 1065.69,457.662 1078.7,549.233 
  1091.71,577.037 1104.72,602.867 1117.73,369.249 1130.74,428.831 1143.76,429.745 1156.77,410.553 1169.78,637.387 1182.79,434.824 1195.8,467.836 1208.81,653.252 
  1221.82,648.505 1234.83,517.563 1247.84,368.155 1260.86,407.914 1273.87,617.642 1286.88,415.222 1299.89,601.88 1312.9,622.543 1325.91,439.368 1338.92,503.803 
  1351.93,358.075 1364.94,380.172 1377.96,476.28 1390.97,400.141 1403.98,535.229 1416.99,580.868 1430,591.91 1443.01,351.037 1456.02,351.417 1469.03,353.026 
  1482.04,359.435 1495.06,383.617 1508.07,469.401 1521.08,637.062 1534.09,468.685 1547.1,386.683 1560.11,499.145 1573.12,483.516 1586.13,477.588 1599.14,374.453 
  1612.16,432.25 1625.17,427.116 1638.18,356.492 1651.19,372.819 1664.2,432.854 1677.21,382.085 1690.22,486.396 1703.23,474.509 1716.24,626.504 1729.26,563.035 
  1742.27,414.022 1755.28,606.575 1768.29,545.493 1781.3,534.41 1794.31,548.333 1807.32,557.817 1820.33,466.767 1833.34,588.473 1846.35,389.676 1859.37,489.016 
  1872.38,536.919 1885.39,592.14 1898.4,385.178 1911.41,475.153 1924.42,375.901 1937.43,460.009 1950.44,640.871 1963.45,455.785 1976.47,574.018 1989.48,475.562 
  2002.49,401.374 2015.5,541.469 2028.51,612.744 2041.52,530.376 2054.53,526.359 2067.54,400.413 2080.55,552.395 2093.57,589.169 2106.58,478.182 2119.59,375.113 
  2132.6,435.753 2145.61,434.572 2158.62,392.139 2171.63,538.999 2184.64,649.024 2197.65,560.094 2210.67,497.014 2223.68,506.568 2236.69,549.701 2249.7,653.702 
  2262.71,626.569 
  "/>
<path clip-path="url(#clip2100)" d="
M1985.19 251.724 L2249.26 251.724 L2249.26 130.764 L1985.19 130.764  Z
  " fill="#ffffff" fill-rule="evenodd" fill-opacity="1"/>
<polyline clip-path="url(#clip2100)" style="stroke:#000000; stroke-width:4; stroke-opacity:1; fill:none" points="
  1985.19,251.724 2249.26,251.724 2249.26,130.764 1985.19,130.764 1985.19,251.724 
  "/>
<polyline clip-path="url(#clip2100)" style="stroke:#009af9; stroke-width:4; stroke-opacity:1; fill:none" points="
  2009.19,191.244 2153.19,191.244 
  "/>
<g clip-path="url(#clip2100)">
<text style="fill:#000000; fill-opacity:1; font-family:Arial,Helvetica Neue,Helvetica,sans-serif; font-size:48px; text-anchor:start;" transform="rotate(0, 2177.19, 208.744)" x="2177.19" y="208.744">x</text>
</g>
<path clip-path="url(#clip2100)" d="
M252.496 1440.48 L2321.26 1440.48 L2321.26 815.748 L252.496 815.748  Z
  " fill="#ffffff" fill-rule="evenodd" fill-opacity="1"/>
<defs>
  <clipPath id="clip2103">
    <rect x="252" y="815" width="2070" height="626"/>
  </clipPath>
</defs>
<polyline clip-path="url(#clip2103)" style="stroke:#000000; stroke-width:2; stroke-opacity:0.1; fill:none" points="
  298.035,1440.48 298.035,815.748 
  "/>
<polyline clip-path="url(#clip2103)" style="stroke:#000000; stroke-width:2; stroke-opacity:0.1; fill:none" points="
  948.59,1440.48 948.59,815.748 
  "/>
<polyline clip-path="url(#clip2103)" style="stroke:#000000; stroke-width:2; stroke-opacity:0.1; fill:none" points="
  1599.14,1440.48 1599.14,815.748 
  "/>
<polyline clip-path="url(#clip2103)" style="stroke:#000000; stroke-width:2; stroke-opacity:0.1; fill:none" points="
  2249.7,1440.48 2249.7,815.748 
  "/>
<polyline clip-path="url(#clip2103)" style="stroke:#000000; stroke-width:2; stroke-opacity:0.1; fill:none" points="
  252.496,1432.21 2321.26,1432.21 
  "/>
<polyline clip-path="url(#clip2103)" style="stroke:#000000; stroke-width:2; stroke-opacity:0.1; fill:none" points="
  252.496,1253.03 2321.26,1253.03 
  "/>
<polyline clip-path="url(#clip2103)" style="stroke:#000000; stroke-width:2; stroke-opacity:0.1; fill:none" points="
  252.496,1073.85 2321.26,1073.85 
  "/>
<polyline clip-path="url(#clip2103)" style="stroke:#000000; stroke-width:2; stroke-opacity:0.1; fill:none" points="
  252.496,894.663 2321.26,894.663 
  "/>
<polyline clip-path="url(#clip2100)" style="stroke:#000000; stroke-width:4; stroke-opacity:1; fill:none" points="
  252.496,1440.48 2321.26,1440.48 
  "/>
<polyline clip-path="url(#clip2100)" style="stroke:#000000; stroke-width:4; stroke-opacity:1; fill:none" points="
  252.496,1440.48 252.496,815.748 
  "/>
<polyline clip-path="url(#clip2100)" style="stroke:#000000; stroke-width:4; stroke-opacity:1; fill:none" points="
  298.035,1440.48 298.035,1431.11 
  "/>
<polyline clip-path="url(#clip2100)" style="stroke:#000000; stroke-width:4; stroke-opacity:1; fill:none" points="
  948.59,1440.48 948.59,1431.11 
  "/>
<polyline clip-path="url(#clip2100)" style="stroke:#000000; stroke-width:4; stroke-opacity:1; fill:none" points="
  1599.14,1440.48 1599.14,1431.11 
  "/>
<polyline clip-path="url(#clip2100)" style="stroke:#000000; stroke-width:4; stroke-opacity:1; fill:none" points="
  2249.7,1440.48 2249.7,1431.11 
  "/>
<polyline clip-path="url(#clip2100)" style="stroke:#000000; stroke-width:4; stroke-opacity:1; fill:none" points="
  252.496,1432.21 283.528,1432.21 
  "/>
<polyline clip-path="url(#clip2100)" style="stroke:#000000; stroke-width:4; stroke-opacity:1; fill:none" points="
  252.496,1253.03 283.528,1253.03 
  "/>
<polyline clip-path="url(#clip2100)" style="stroke:#000000; stroke-width:4; stroke-opacity:1; fill:none" points="
  252.496,1073.85 283.528,1073.85 
  "/>
<polyline clip-path="url(#clip2100)" style="stroke:#000000; stroke-width:4; stroke-opacity:1; fill:none" points="
  252.496,894.663 283.528,894.663 
  "/>
<g clip-path="url(#clip2100)">
<text style="fill:#000000; fill-opacity:1; font-family:Arial,Helvetica Neue,Helvetica,sans-serif; font-size:48px; text-anchor:middle;" transform="rotate(0, 298.035, 1494.48)" x="298.035" y="1494.48">0</text>
</g>
<g clip-path="url(#clip2100)">
<text style="fill:#000000; fill-opacity:1; font-family:Arial,Helvetica Neue,Helvetica,sans-serif; font-size:48px; text-anchor:middle;" transform="rotate(0, 948.59, 1494.48)" x="948.59" y="1494.48">50</text>
</g>
<g clip-path="url(#clip2100)">
<text style="fill:#000000; fill-opacity:1; font-family:Arial,Helvetica Neue,Helvetica,sans-serif; font-size:48px; text-anchor:middle;" transform="rotate(0, 1599.14, 1494.48)" x="1599.14" y="1494.48">100</text>
</g>
<g clip-path="url(#clip2100)">
<text style="fill:#000000; fill-opacity:1; font-family:Arial,Helvetica Neue,Helvetica,sans-serif; font-size:48px; text-anchor:middle;" transform="rotate(0, 2249.7, 1494.48)" x="2249.7" y="1494.48">150</text>
</g>
<g clip-path="url(#clip2100)">
<text style="fill:#000000; fill-opacity:1; font-family:Arial,Helvetica Neue,Helvetica,sans-serif; font-size:48px; text-anchor:end;" transform="rotate(0, 228.496, 1449.71)" x="228.496" y="1449.71">-1.0</text>
</g>
<g clip-path="url(#clip2100)">
<text style="fill:#000000; fill-opacity:1; font-family:Arial,Helvetica Neue,Helvetica,sans-serif; font-size:48px; text-anchor:end;" transform="rotate(0, 228.496, 1270.53)" x="228.496" y="1270.53">-0.5</text>
</g>
<g clip-path="url(#clip2100)">
<text style="fill:#000000; fill-opacity:1; font-family:Arial,Helvetica Neue,Helvetica,sans-serif; font-size:48px; text-anchor:end;" transform="rotate(0, 228.496, 1091.35)" x="228.496" y="1091.35">0.0</text>
</g>
<g clip-path="url(#clip2100)">
<text style="fill:#000000; fill-opacity:1; font-family:Arial,Helvetica Neue,Helvetica,sans-serif; font-size:48px; text-anchor:end;" transform="rotate(0, 228.496, 912.163)" x="228.496" y="912.163">0.5</text>
</g>
<g clip-path="url(#clip2100)">
<text style="fill:#000000; fill-opacity:1; font-family:Arial,Helvetica Neue,Helvetica,sans-serif; font-size:66px; text-anchor:middle;" transform="rotate(0, 1286.88, 1590.4)" x="1286.88" y="1590.4">Time step</text>
</g>
<g clip-path="url(#clip2100)">
<text style="fill:#000000; fill-opacity:1; font-family:Arial,Helvetica Neue,Helvetica,sans-serif; font-size:66px; text-anchor:middle;" transform="rotate(-90, 57.6, 1128.12)" x="57.6" y="1128.12">Value</text>
</g>
<polyline clip-path="url(#clip2103)" style="stroke:#009af9; stroke-width:4; stroke-opacity:1; fill:none" points="
  311.046,1210.38 324.057,1179.17 337.068,1010.76 350.079,1250.61 363.091,1267.28 376.102,952.163 389.113,1085.54 402.124,1067.01 415.135,938.267 428.146,1248.59 
  441.157,1125.93 454.168,1093.76 467.179,1211.46 480.19,1049.59 493.201,991.923 506.213,1057.16 519.224,1096.69 532.235,1224.38 545.246,1094.1 558.257,1182.53 
  571.268,1112.06 584.279,1179.89 597.29,1206.84 610.301,1288.84 623.312,1368.88 636.323,1309.66 649.335,1316.75 662.346,1422.8 675.357,1375.46 688.368,1406.4 
  701.379,1288.76 714.39,1333.57 727.401,1358.42 740.412,1221.73 753.423,1266.42 766.434,1357.28 779.445,1349.54 792.457,1229.47 805.468,1150.43 818.479,1137.44 
  831.49,1124.19 844.501,1083.33 857.512,1074.79 870.523,969.856 883.534,1007.38 896.545,956.736 909.556,939.329 922.567,918.171 935.579,991.708 948.59,960.123 
  961.601,929.372 974.612,1087.26 987.623,1031.61 1000.63,1083.99 1013.65,1049 1026.66,1003.37 1039.67,1069.22 1052.68,986.83 1065.69,1057.15 1078.7,1115.17 
  1091.71,1083.95 1104.72,1091.52 1117.73,1043.91 1130.74,1135.05 1143.76,1174.34 1156.77,1077.06 1169.78,1108.97 1182.79,1094.92 1195.8,1140.59 1208.81,1085.09 
  1221.82,1041.43 1234.83,1178.62 1247.84,1137.9 1260.86,1112.62 1273.87,1090.65 1286.88,1134.29 1299.89,1169.66 1312.9,1130.62 1325.91,1098.65 1338.92,1131.45 
  1351.93,1179.17 1364.94,1181.05 1377.96,1073.59 1390.97,1134.52 1403.98,1106.52 1416.99,1070.65 1430,1151.47 1443.01,1162.49 1456.02,1154.27 1469.03,1139.27 
  1482.04,1163.63 1495.06,1153.66 1508.07,1225.15 1521.08,1282.55 1534.09,1273.86 1547.1,1253.15 1560.11,1225.06 1573.12,1132.3 1586.13,1122.31 1599.14,1050.17 
  1612.16,1083.98 1625.17,1030.93 1638.18,1027.67 1651.19,1184.13 1664.2,1101.78 1677.21,1141.91 1690.22,1013.8 1703.23,1046.56 1716.24,1071.52 1729.26,1065.11 
  1742.27,1099.33 1755.28,1236.54 1768.29,1073.99 1781.3,1218.46 1794.31,1208.96 1807.32,1246.74 1820.33,1231.4 1833.34,1095.33 1846.35,1232.46 1859.37,1229.47 
  1872.38,1152.01 1885.39,1177.66 1898.4,1292.6 1911.41,1277.9 1924.42,1104.11 1937.43,1121.26 1950.44,1186.16 1963.45,1144.17 1976.47,1089 1989.48,1012.86 
  2002.49,1134.71 2015.5,1112.84 2028.51,1187.81 2041.52,1132.9 2054.53,1051.72 2067.54,1172.99 2080.55,1167.06 2093.57,1172.25 2106.58,1153.35 2119.59,1217.27 
  2132.6,1010.04 2145.61,833.429 2158.62,907.236 2171.63,1165.19 2184.64,1065.58 2197.65,1136.39 2210.67,1092.56 2223.68,1163.48 2236.69,1050.69 2249.7,883.284 
  2262.71,1147.66 
  "/>
<path clip-path="url(#clip2100)" d="
M1634.78 1020.23 L2249.26 1020.23 L2249.26 899.268 L1634.78 899.268  Z
  " fill="#ffffff" fill-rule="evenodd" fill-opacity="1"/>
<polyline clip-path="url(#clip2100)" style="stroke:#000000; stroke-width:4; stroke-opacity:1; fill:none" points="
  1634.78,1020.23 2249.26,1020.23 2249.26,899.268 1634.78,899.268 1634.78,1020.23 
  "/>
<polyline clip-path="url(#clip2100)" style="stroke:#009af9; stroke-width:4; stroke-opacity:1; fill:none" points="
  1658.78,959.748 1802.78,959.748 
  "/>
<g clip-path="url(#clip2100)">
<text style="fill:#000000; fill-opacity:1; font-family:Arial,Helvetica Neue,Helvetica,sans-serif; font-size:48px; text-anchor:start;" transform="rotate(0, 1826.78, 977.248)" x="1826.78" y="977.248">randomphases(x)</text>
</g>
</svg>
