<?xml version="1.0" encoding="utf-8"?>
<svg xmlns="http://www.w3.org/2000/svg" xmlns:xlink="http://www.w3.org/1999/xlink" width="600" height="400" viewBox="0 0 2400 1600">
<defs>
  <clipPath id="clip2400">
    <rect x="0" y="0" width="2400" height="1600"/>
  </clipPath>
</defs>
<path clip-path="url(#clip2400)" d="
M0 1600 L2400 1600 L2400 0 L0 0  Z
  " fill="#ffffff" fill-rule="evenodd" fill-opacity="1"/>
<defs>
  <clipPath id="clip2401">
    <rect x="480" y="0" width="1681" height="1600"/>
  </clipPath>
</defs>
<path clip-path="url(#clip2400)" d="
M252.496 671.979 L2321.26 671.979 L2321.26 47.2441 L252.496 47.2441  Z
  " fill="#ffffff" fill-rule="evenodd" fill-opacity="1"/>
<defs>
  <clipPath id="clip2402">
    <rect x="252" y="47" width="2070" height="626"/>
  </clipPath>
</defs>
<polyline clip-path="url(#clip2402)" style="stroke:#000000; stroke-width:2; stroke-opacity:0.1; fill:none" points="
  291.332,671.979 291.332,47.2441 
  "/>
<polyline clip-path="url(#clip2402)" style="stroke:#000000; stroke-width:2; stroke-opacity:0.1; fill:none" points="
  784.177,671.979 784.177,47.2441 
  "/>
<polyline clip-path="url(#clip2402)" style="stroke:#000000; stroke-width:2; stroke-opacity:0.1; fill:none" points="
  1277.02,671.979 1277.02,47.2441 
  "/>
<polyline clip-path="url(#clip2402)" style="stroke:#000000; stroke-width:2; stroke-opacity:0.1; fill:none" points="
  1769.87,671.979 1769.87,47.2441 
  "/>
<polyline clip-path="url(#clip2402)" style="stroke:#000000; stroke-width:2; stroke-opacity:0.1; fill:none" points="
  2262.71,671.979 2262.71,47.2441 
  "/>
<polyline clip-path="url(#clip2402)" style="stroke:#000000; stroke-width:2; stroke-opacity:0.1; fill:none" points="
  252.496,595.294 2321.26,595.294 
  "/>
<polyline clip-path="url(#clip2402)" style="stroke:#000000; stroke-width:2; stroke-opacity:0.1; fill:none" points="
  252.496,476.546 2321.26,476.546 
  "/>
<polyline clip-path="url(#clip2402)" style="stroke:#000000; stroke-width:2; stroke-opacity:0.1; fill:none" points="
  252.496,357.797 2321.26,357.797 
  "/>
<polyline clip-path="url(#clip2402)" style="stroke:#000000; stroke-width:2; stroke-opacity:0.1; fill:none" points="
  252.496,239.049 2321.26,239.049 
  "/>
<polyline clip-path="url(#clip2402)" style="stroke:#000000; stroke-width:2; stroke-opacity:0.1; fill:none" points="
  252.496,120.301 2321.26,120.301 
  "/>
<polyline clip-path="url(#clip2400)" style="stroke:#000000; stroke-width:4; stroke-opacity:1; fill:none" points="
  252.496,671.979 2321.26,671.979 
  "/>
<polyline clip-path="url(#clip2400)" style="stroke:#000000; stroke-width:4; stroke-opacity:1; fill:none" points="
  252.496,671.979 252.496,47.2441 
  "/>
<polyline clip-path="url(#clip2400)" style="stroke:#000000; stroke-width:4; stroke-opacity:1; fill:none" points="
  291.332,671.979 291.332,662.608 
  "/>
<polyline clip-path="url(#clip2400)" style="stroke:#000000; stroke-width:4; stroke-opacity:1; fill:none" points="
  784.177,671.979 784.177,662.608 
  "/>
<polyline clip-path="url(#clip2400)" style="stroke:#000000; stroke-width:4; stroke-opacity:1; fill:none" points="
  1277.02,671.979 1277.02,662.608 
  "/>
<polyline clip-path="url(#clip2400)" style="stroke:#000000; stroke-width:4; stroke-opacity:1; fill:none" points="
  1769.87,671.979 1769.87,662.608 
  "/>
<polyline clip-path="url(#clip2400)" style="stroke:#000000; stroke-width:4; stroke-opacity:1; fill:none" points="
  2262.71,671.979 2262.71,662.608 
  "/>
<polyline clip-path="url(#clip2400)" style="stroke:#000000; stroke-width:4; stroke-opacity:1; fill:none" points="
  252.496,595.294 283.528,595.294 
  "/>
<polyline clip-path="url(#clip2400)" style="stroke:#000000; stroke-width:4; stroke-opacity:1; fill:none" points="
  252.496,476.546 283.528,476.546 
  "/>
<polyline clip-path="url(#clip2400)" style="stroke:#000000; stroke-width:4; stroke-opacity:1; fill:none" points="
  252.496,357.797 283.528,357.797 
  "/>
<polyline clip-path="url(#clip2400)" style="stroke:#000000; stroke-width:4; stroke-opacity:1; fill:none" points="
  252.496,239.049 283.528,239.049 
  "/>
<polyline clip-path="url(#clip2400)" style="stroke:#000000; stroke-width:4; stroke-opacity:1; fill:none" points="
  252.496,120.301 283.528,120.301 
  "/>
<g clip-path="url(#clip2400)">
<text style="fill:#000000; fill-opacity:1; font-family:Arial,Helvetica Neue,Helvetica,sans-serif; font-size:48px; text-anchor:middle;" transform="rotate(0, 291.332, 725.979)" x="291.332" y="725.979">0</text>
</g>
<g clip-path="url(#clip2400)">
<text style="fill:#000000; fill-opacity:1; font-family:Arial,Helvetica Neue,Helvetica,sans-serif; font-size:48px; text-anchor:middle;" transform="rotate(0, 784.177, 725.979)" x="784.177" y="725.979">25</text>
</g>
<g clip-path="url(#clip2400)">
<text style="fill:#000000; fill-opacity:1; font-family:Arial,Helvetica Neue,Helvetica,sans-serif; font-size:48px; text-anchor:middle;" transform="rotate(0, 1277.02, 725.979)" x="1277.02" y="725.979">50</text>
</g>
<g clip-path="url(#clip2400)">
<text style="fill:#000000; fill-opacity:1; font-family:Arial,Helvetica Neue,Helvetica,sans-serif; font-size:48px; text-anchor:middle;" transform="rotate(0, 1769.87, 725.979)" x="1769.87" y="725.979">75</text>
</g>
<g clip-path="url(#clip2400)">
<text style="fill:#000000; fill-opacity:1; font-family:Arial,Helvetica Neue,Helvetica,sans-serif; font-size:48px; text-anchor:middle;" transform="rotate(0, 2262.71, 725.979)" x="2262.71" y="725.979">100</text>
</g>
<g clip-path="url(#clip2400)">
<text style="fill:#000000; fill-opacity:1; font-family:Arial,Helvetica Neue,Helvetica,sans-serif; font-size:48px; text-anchor:end;" transform="rotate(0, 228.496, 612.794)" x="228.496" y="612.794">-1.0</text>
</g>
<g clip-path="url(#clip2400)">
<text style="fill:#000000; fill-opacity:1; font-family:Arial,Helvetica Neue,Helvetica,sans-serif; font-size:48px; text-anchor:end;" transform="rotate(0, 228.496, 494.046)" x="228.496" y="494.046">-0.5</text>
</g>
<g clip-path="url(#clip2400)">
<text style="fill:#000000; fill-opacity:1; font-family:Arial,Helvetica Neue,Helvetica,sans-serif; font-size:48px; text-anchor:end;" transform="rotate(0, 228.496, 375.297)" x="228.496" y="375.297">0.0</text>
</g>
<g clip-path="url(#clip2400)">
<text style="fill:#000000; fill-opacity:1; font-family:Arial,Helvetica Neue,Helvetica,sans-serif; font-size:48px; text-anchor:end;" transform="rotate(0, 228.496, 256.549)" x="228.496" y="256.549">0.5</text>
</g>
<g clip-path="url(#clip2400)">
<text style="fill:#000000; fill-opacity:1; font-family:Arial,Helvetica Neue,Helvetica,sans-serif; font-size:48px; text-anchor:end;" transform="rotate(0, 228.496, 137.801)" x="228.496" y="137.801">1.0</text>
</g>
<g clip-path="url(#clip2400)">
<text style="fill:#000000; fill-opacity:1; font-family:Arial,Helvetica Neue,Helvetica,sans-serif; font-size:66px; text-anchor:middle;" transform="rotate(-90, 57.6, 359.611)" x="57.6" y="359.611">Value</text>
</g>
<polyline clip-path="url(#clip2402)" style="stroke:#000000; stroke-width:4; stroke-opacity:1; fill:none" points="
  311.046,66.1251 330.76,204.968 350.474,116.551 370.187,136.769 389.901,247.039 409.615,363.704 429.329,319.037 449.043,370.418 468.756,513.73 488.47,441.783 
  508.184,600.315 527.898,612.429 547.611,529.381 567.325,596.797 587.039,654.297 606.753,484.359 626.467,468.5 646.18,443.321 665.894,387.116 685.608,367.998 
  705.322,288.031 725.035,277.867 744.749,134.439 764.463,135.783 784.177,99.0355 803.891,175.146 823.604,112.722 843.318,94.8558 863.032,230.72 882.746,252.253 
  902.459,358.523 922.173,270.079 941.887,516.567 961.601,382.523 981.315,577.832 1001.03,613.733 1020.74,550.309 1040.46,582.568 1060.17,570.934 1079.88,525.096 
  1099.6,540.008 1119.31,524.628 1139.02,391.587 1158.74,438.373 1178.45,305.576 1198.17,245.258 1217.88,259.843 1237.59,125.684 1257.31,163.931 1277.02,64.9253 
  1296.73,176.834 1316.45,72.7836 1336.16,181.398 1355.88,243.045 1375.59,249.877 1395.3,335.812 1415.02,323.739 1434.73,517.395 1454.45,473.676 1474.16,515.344 
  1493.87,547.176 1513.59,589.291 1533.3,599.151 1553.01,536.141 1572.73,563.371 1592.44,601.308 1612.16,447.314 1631.87,416.5 1651.58,405.549 1671.3,227.809 
  1691.01,267.771 1710.72,225.154 1730.44,165.988 1750.15,153.797 1769.87,98.3361 1789.58,87.3889 1809.29,204.492 1829.01,186.617 1848.72,151.328 1868.43,328.946 
  1888.15,262.76 1907.86,394.071 1927.58,460.128 1947.29,476.509 1967,561.347 1986.72,613.137 2006.43,625.113 2026.14,580.196 2045.86,581.457 2065.57,528.8 
  2085.29,498.961 2105,489.435 2124.71,346.011 2144.43,338.249 2164.14,320.579 2183.85,301.22 2203.57,106.158 2223.28,165.888 2243,120.158 2262.71,147.747 
  
  "/>
<path clip-path="url(#clip2400)" d="
M1971.81 251.724 L2249.26 251.724 L2249.26 130.764 L1971.81 130.764  Z
  " fill="#ffffff" fill-rule="evenodd" fill-opacity="1"/>
<polyline clip-path="url(#clip2400)" style="stroke:#000000; stroke-width:4; stroke-opacity:1; fill:none" points="
  1971.81,251.724 2249.26,251.724 2249.26,130.764 1971.81,130.764 1971.81,251.724 
  "/>
<polyline clip-path="url(#clip2400)" style="stroke:#000000; stroke-width:4; stroke-opacity:1; fill:none" points="
  1995.81,191.244 2139.81,191.244 
  "/>
<g clip-path="url(#clip2400)">
<text style="fill:#000000; fill-opacity:1; font-family:Arial,Helvetica Neue,Helvetica,sans-serif; font-size:48px; text-anchor:start;" transform="rotate(0, 2163.81, 208.744)" x="2163.81" y="208.744">ts</text>
</g>
<path clip-path="url(#clip2400)" d="
M252.496 1440.48 L2321.26 1440.48 L2321.26 815.748 L252.496 815.748  Z
  " fill="#ffffff" fill-rule="evenodd" fill-opacity="1"/>
<defs>
  <clipPath id="clip2403">
    <rect x="252" y="815" width="2070" height="626"/>
  </clipPath>
</defs>
<polyline clip-path="url(#clip2403)" style="stroke:#000000; stroke-width:2; stroke-opacity:0.1; fill:none" points="
  291.332,1440.48 291.332,815.748 
  "/>
<polyline clip-path="url(#clip2403)" style="stroke:#000000; stroke-width:2; stroke-opacity:0.1; fill:none" points="
  784.177,1440.48 784.177,815.748 
  "/>
<polyline clip-path="url(#clip2403)" style="stroke:#000000; stroke-width:2; stroke-opacity:0.1; fill:none" points="
  1277.02,1440.48 1277.02,815.748 
  "/>
<polyline clip-path="url(#clip2403)" style="stroke:#000000; stroke-width:2; stroke-opacity:0.1; fill:none" points="
  1769.87,1440.48 1769.87,815.748 
  "/>
<polyline clip-path="url(#clip2403)" style="stroke:#000000; stroke-width:2; stroke-opacity:0.1; fill:none" points="
  2262.71,1440.48 2262.71,815.748 
  "/>
<polyline clip-path="url(#clip2403)" style="stroke:#000000; stroke-width:2; stroke-opacity:0.1; fill:none" points="
  252.496,1363.8 2321.26,1363.8 
  "/>
<polyline clip-path="url(#clip2403)" style="stroke:#000000; stroke-width:2; stroke-opacity:0.1; fill:none" points="
  252.496,1245.05 2321.26,1245.05 
  "/>
<polyline clip-path="url(#clip2403)" style="stroke:#000000; stroke-width:2; stroke-opacity:0.1; fill:none" points="
  252.496,1126.3 2321.26,1126.3 
  "/>
<polyline clip-path="url(#clip2403)" style="stroke:#000000; stroke-width:2; stroke-opacity:0.1; fill:none" points="
  252.496,1007.55 2321.26,1007.55 
  "/>
<polyline clip-path="url(#clip2403)" style="stroke:#000000; stroke-width:2; stroke-opacity:0.1; fill:none" points="
  252.496,888.805 2321.26,888.805 
  "/>
<polyline clip-path="url(#clip2400)" style="stroke:#000000; stroke-width:4; stroke-opacity:1; fill:none" points="
  252.496,1440.48 2321.26,1440.48 
  "/>
<polyline clip-path="url(#clip2400)" style="stroke:#000000; stroke-width:4; stroke-opacity:1; fill:none" points="
  252.496,1440.48 252.496,815.748 
  "/>
<polyline clip-path="url(#clip2400)" style="stroke:#000000; stroke-width:4; stroke-opacity:1; fill:none" points="
  291.332,1440.48 291.332,1431.11 
  "/>
<polyline clip-path="url(#clip2400)" style="stroke:#000000; stroke-width:4; stroke-opacity:1; fill:none" points="
  784.177,1440.48 784.177,1431.11 
  "/>
<polyline clip-path="url(#clip2400)" style="stroke:#000000; stroke-width:4; stroke-opacity:1; fill:none" points="
  1277.02,1440.48 1277.02,1431.11 
  "/>
<polyline clip-path="url(#clip2400)" style="stroke:#000000; stroke-width:4; stroke-opacity:1; fill:none" points="
  1769.87,1440.48 1769.87,1431.11 
  "/>
<polyline clip-path="url(#clip2400)" style="stroke:#000000; stroke-width:4; stroke-opacity:1; fill:none" points="
  2262.71,1440.48 2262.71,1431.11 
  "/>
<polyline clip-path="url(#clip2400)" style="stroke:#000000; stroke-width:4; stroke-opacity:1; fill:none" points="
  252.496,1363.8 283.528,1363.8 
  "/>
<polyline clip-path="url(#clip2400)" style="stroke:#000000; stroke-width:4; stroke-opacity:1; fill:none" points="
  252.496,1245.05 283.528,1245.05 
  "/>
<polyline clip-path="url(#clip2400)" style="stroke:#000000; stroke-width:4; stroke-opacity:1; fill:none" points="
  252.496,1126.3 283.528,1126.3 
  "/>
<polyline clip-path="url(#clip2400)" style="stroke:#000000; stroke-width:4; stroke-opacity:1; fill:none" points="
  252.496,1007.55 283.528,1007.55 
  "/>
<polyline clip-path="url(#clip2400)" style="stroke:#000000; stroke-width:4; stroke-opacity:1; fill:none" points="
  252.496,888.805 283.528,888.805 
  "/>
<g clip-path="url(#clip2400)">
<text style="fill:#000000; fill-opacity:1; font-family:Arial,Helvetica Neue,Helvetica,sans-serif; font-size:48px; text-anchor:middle;" transform="rotate(0, 291.332, 1494.48)" x="291.332" y="1494.48">0</text>
</g>
<g clip-path="url(#clip2400)">
<text style="fill:#000000; fill-opacity:1; font-family:Arial,Helvetica Neue,Helvetica,sans-serif; font-size:48px; text-anchor:middle;" transform="rotate(0, 784.177, 1494.48)" x="784.177" y="1494.48">25</text>
</g>
<g clip-path="url(#clip2400)">
<text style="fill:#000000; fill-opacity:1; font-family:Arial,Helvetica Neue,Helvetica,sans-serif; font-size:48px; text-anchor:middle;" transform="rotate(0, 1277.02, 1494.48)" x="1277.02" y="1494.48">50</text>
</g>
<g clip-path="url(#clip2400)">
<text style="fill:#000000; fill-opacity:1; font-family:Arial,Helvetica Neue,Helvetica,sans-serif; font-size:48px; text-anchor:middle;" transform="rotate(0, 1769.87, 1494.48)" x="1769.87" y="1494.48">75</text>
</g>
<g clip-path="url(#clip2400)">
<text style="fill:#000000; fill-opacity:1; font-family:Arial,Helvetica Neue,Helvetica,sans-serif; font-size:48px; text-anchor:middle;" transform="rotate(0, 2262.71, 1494.48)" x="2262.71" y="1494.48">100</text>
</g>
<g clip-path="url(#clip2400)">
<text style="fill:#000000; fill-opacity:1; font-family:Arial,Helvetica Neue,Helvetica,sans-serif; font-size:48px; text-anchor:end;" transform="rotate(0, 228.496, 1381.3)" x="228.496" y="1381.3">-1.0</text>
</g>
<g clip-path="url(#clip2400)">
<text style="fill:#000000; fill-opacity:1; font-family:Arial,Helvetica Neue,Helvetica,sans-serif; font-size:48px; text-anchor:end;" transform="rotate(0, 228.496, 1262.55)" x="228.496" y="1262.55">-0.5</text>
</g>
<g clip-path="url(#clip2400)">
<text style="fill:#000000; fill-opacity:1; font-family:Arial,Helvetica Neue,Helvetica,sans-serif; font-size:48px; text-anchor:end;" transform="rotate(0, 228.496, 1143.8)" x="228.496" y="1143.8">0.0</text>
</g>
<g clip-path="url(#clip2400)">
<text style="fill:#000000; fill-opacity:1; font-family:Arial,Helvetica Neue,Helvetica,sans-serif; font-size:48px; text-anchor:end;" transform="rotate(0, 228.496, 1025.05)" x="228.496" y="1025.05">0.5</text>
</g>
<g clip-path="url(#clip2400)">
<text style="fill:#000000; fill-opacity:1; font-family:Arial,Helvetica Neue,Helvetica,sans-serif; font-size:48px; text-anchor:end;" transform="rotate(0, 228.496, 906.305)" x="228.496" y="906.305">1.0</text>
</g>
<g clip-path="url(#clip2400)">
<text style="fill:#000000; fill-opacity:1; font-family:Arial,Helvetica Neue,Helvetica,sans-serif; font-size:66px; text-anchor:middle;" transform="rotate(0, 1286.88, 1590.4)" x="1286.88" y="1590.4">Time step</text>
</g>
<g clip-path="url(#clip2400)">
<text style="fill:#000000; fill-opacity:1; font-family:Arial,Helvetica Neue,Helvetica,sans-serif; font-size:66px; text-anchor:middle;" transform="rotate(-90, 57.6, 1128.12)" x="57.6" y="1128.12">Value</text>
</g>
<polyline clip-path="url(#clip2403)" style="stroke:#009af9; stroke-width:4; stroke-opacity:1; fill:none" points="
  311.046,1136.5 330.76,973.472 350.474,904.287 370.187,905.273 389.901,1228.63 409.615,955.12 429.329,1069.72 449.043,1365.3 468.756,1215.82 488.47,934.392 
  508.184,1285.07 527.898,1369.81 547.611,1283.85 567.325,1368.82 587.039,1074.08 606.753,1348.7 626.467,1092.24 646.18,1127.03 665.894,1304.64 685.608,866.84 
  705.322,881.226 725.035,1174.05 744.749,932.435 764.463,1315.68 784.177,1252.86 803.891,1028.35 823.604,1211.82 843.318,1106.75 863.032,943.65 882.746,885.054 
  902.459,949.902 922.173,1267.47 941.887,1285.9 961.601,1245.01 981.315,874.662 1001.03,1151.03 1020.74,1318.81 1040.46,1018.38 1060.17,1138.92 1079.88,972.996 
  1099.6,1056.53 1119.31,1351.07 1139.02,1357.79 1158.74,1087.54 1178.45,934.492 1198.17,1297.3 1217.88,1293.13 1237.59,945.338 1257.31,916.251 1277.02,1380.93 
  1296.73,996.312 1316.45,855.893 1336.16,1036.27 1355.88,1331.87 1375.59,1046.37 1395.3,1237 1415.02,1020.76 1434.73,1013.76 1454.45,1242.18 1474.16,1382.24 
  1493.87,1381.64 1513.59,1393.62 1533.3,1422.8 1553.01,1162.57 1572.73,1104.32 1592.44,1031.26 1612.16,1132.21 1631.87,1015.54 1651.58,1329.85 1671.3,894.188 
  1691.01,1206.88 1710.72,1367.66 1730.44,902.943 1750.15,841.288 1769.87,1155.62 1789.58,1089.08 1809.29,1282.23 1829.01,1114.51 1848.72,919.832 1868.43,1346.34 
  1888.15,1349.96 1907.86,1339.44 1927.58,922.301 1947.29,1160.09 1967,1210.29 1986.72,1257.94 2006.43,1011.55 2026.14,1308.51 2045.86,888.662 2065.57,1297.89 
  2085.29,1097.45 2105,833.429 2124.71,993.658 2144.43,863.36 2164.14,1293.6 2183.85,999.224 2203.57,1185 2223.28,867.539 2243,834.629 2262.71,1038.58 
  
  "/>
<path clip-path="url(#clip2400)" d="
M1634.78 1020.23 L2249.26 1020.23 L2249.26 899.268 L1634.78 899.268  Z
  " fill="#ffffff" fill-rule="evenodd" fill-opacity="1"/>
<polyline clip-path="url(#clip2400)" style="stroke:#000000; stroke-width:4; stroke-opacity:1; fill:none" points="
  1634.78,1020.23 2249.26,1020.23 2249.26,899.268 1634.78,899.268 1634.78,1020.23 
  "/>
<polyline clip-path="url(#clip2400)" style="stroke:#009af9; stroke-width:4; stroke-opacity:1; fill:none" points="
  1658.78,959.748 1802.78,959.748 
  "/>
<g clip-path="url(#clip2400)">
<text style="fill:#000000; fill-opacity:1; font-family:Arial,Helvetica Neue,Helvetica,sans-serif; font-size:48px; text-anchor:start;" transform="rotate(0, 1826.78, 977.248)" x="1826.78" y="977.248">randomshuffle(ts)</text>
</g>
</svg>
