<?xml version="1.0" encoding="utf-8"?>
<svg xmlns="http://www.w3.org/2000/svg" xmlns:xlink="http://www.w3.org/1999/xlink" width="600" height="400" viewBox="0 0 2400 1600">
<defs>
  <clipPath id="clip800">
    <rect x="0" y="0" width="2400" height="1600"/>
  </clipPath>
</defs>
<path clip-path="url(#clip800)" d="
M0 1600 L2400 1600 L2400 0 L0 0  Z
  " fill="#ffffff" fill-rule="evenodd" fill-opacity="1"/>
<defs>
  <clipPath id="clip801">
    <rect x="480" y="0" width="1681" height="1600"/>
  </clipPath>
</defs>
<path clip-path="url(#clip800)" d="
M210.746 1423.18 L2352.76 1423.18 L2352.76 47.2441 L210.746 47.2441  Z
  " fill="#ffffff" fill-rule="evenodd" fill-opacity="1"/>
<defs>
  <clipPath id="clip802">
    <rect x="210" y="47" width="2143" height="1377"/>
  </clipPath>
</defs>
<polyline clip-path="url(#clip802)" style="stroke:#000000; stroke-linecap:butt; stroke-linejoin:round; stroke-width:2; stroke-opacity:0.1; fill:none" points="
  251.161,1423.18 251.161,47.2441 
  "/>
<polyline clip-path="url(#clip802)" style="stroke:#000000; stroke-linecap:butt; stroke-linejoin:round; stroke-width:2; stroke-opacity:0.1; fill:none" points="
  756.352,1423.18 756.352,47.2441 
  "/>
<polyline clip-path="url(#clip802)" style="stroke:#000000; stroke-linecap:butt; stroke-linejoin:round; stroke-width:2; stroke-opacity:0.1; fill:none" points="
  1261.54,1423.18 1261.54,47.2441 
  "/>
<polyline clip-path="url(#clip802)" style="stroke:#000000; stroke-linecap:butt; stroke-linejoin:round; stroke-width:2; stroke-opacity:0.1; fill:none" points="
  1766.73,1423.18 1766.73,47.2441 
  "/>
<polyline clip-path="url(#clip802)" style="stroke:#000000; stroke-linecap:butt; stroke-linejoin:round; stroke-width:2; stroke-opacity:0.1; fill:none" points="
  2271.93,1423.18 2271.93,47.2441 
  "/>
<polyline clip-path="url(#clip800)" style="stroke:#000000; stroke-linecap:butt; stroke-linejoin:round; stroke-width:4; stroke-opacity:1; fill:none" points="
  210.746,1423.18 2352.76,1423.18 
  "/>
<polyline clip-path="url(#clip800)" style="stroke:#000000; stroke-linecap:butt; stroke-linejoin:round; stroke-width:4; stroke-opacity:1; fill:none" points="
  251.161,1423.18 251.161,1404.28 
  "/>
<polyline clip-path="url(#clip800)" style="stroke:#000000; stroke-linecap:butt; stroke-linejoin:round; stroke-width:4; stroke-opacity:1; fill:none" points="
  756.352,1423.18 756.352,1404.28 
  "/>
<polyline clip-path="url(#clip800)" style="stroke:#000000; stroke-linecap:butt; stroke-linejoin:round; stroke-width:4; stroke-opacity:1; fill:none" points="
  1261.54,1423.18 1261.54,1404.28 
  "/>
<polyline clip-path="url(#clip800)" style="stroke:#000000; stroke-linecap:butt; stroke-linejoin:round; stroke-width:4; stroke-opacity:1; fill:none" points="
  1766.73,1423.18 1766.73,1404.28 
  "/>
<polyline clip-path="url(#clip800)" style="stroke:#000000; stroke-linecap:butt; stroke-linejoin:round; stroke-width:4; stroke-opacity:1; fill:none" points="
  2271.93,1423.18 2271.93,1404.28 
  "/>
<path clip-path="url(#clip800)" d="M251.161 1454.1 Q247.55 1454.1 245.721 1457.66 Q243.916 1461.2 243.916 1468.33 Q243.916 1475.44 245.721 1479.01 Q247.55 1482.55 251.161 1482.55 Q254.795 1482.55 256.601 1479.01 Q258.43 1475.44 258.43 1468.33 Q258.43 1461.2 256.601 1457.66 Q254.795 1454.1 251.161 1454.1 M251.161 1450.39 Q256.971 1450.39 260.027 1455 Q263.106 1459.58 263.106 1468.33 Q263.106 1477.06 260.027 1481.67 Q256.971 1486.25 251.161 1486.25 Q245.351 1486.25 242.272 1481.67 Q239.217 1477.06 239.217 1468.33 Q239.217 1459.58 242.272 1455 Q245.351 1450.39 251.161 1450.39 Z" fill="#000000" fill-rule="evenodd" fill-opacity="1" /><path clip-path="url(#clip800)" d="M735.623 1481.64 L751.943 1481.64 L751.943 1485.58 L729.998 1485.58 L729.998 1481.64 Q732.66 1478.89 737.244 1474.26 Q741.85 1469.61 743.031 1468.27 Q745.276 1465.74 746.156 1464.01 Q747.058 1462.25 747.058 1460.56 Q747.058 1457.8 745.114 1456.07 Q743.193 1454.33 740.091 1454.33 Q737.892 1454.33 735.438 1455.09 Q733.007 1455.86 730.23 1457.41 L730.23 1452.69 Q733.054 1451.55 735.507 1450.97 Q737.961 1450.39 739.998 1450.39 Q745.369 1450.39 748.563 1453.08 Q751.757 1455.77 751.757 1460.26 Q751.757 1462.39 750.947 1464.31 Q750.16 1466.2 748.054 1468.8 Q747.475 1469.47 744.373 1472.69 Q741.271 1475.88 735.623 1481.64 Z" fill="#000000" fill-rule="evenodd" fill-opacity="1" /><path clip-path="url(#clip800)" d="M761.804 1451.02 L780.16 1451.02 L780.16 1454.96 L766.086 1454.96 L766.086 1463.43 Q767.105 1463.08 768.123 1462.92 Q769.142 1462.73 770.16 1462.73 Q775.947 1462.73 779.327 1465.9 Q782.706 1469.08 782.706 1474.49 Q782.706 1480.07 779.234 1483.17 Q775.762 1486.25 769.442 1486.25 Q767.267 1486.25 764.998 1485.88 Q762.753 1485.51 760.345 1484.77 L760.345 1480.07 Q762.429 1481.2 764.651 1481.76 Q766.873 1482.32 769.35 1482.32 Q773.354 1482.32 775.692 1480.21 Q778.03 1478.1 778.03 1474.49 Q778.03 1470.88 775.692 1468.77 Q773.354 1466.67 769.35 1466.67 Q767.475 1466.67 765.6 1467.08 Q763.748 1467.5 761.804 1468.38 L761.804 1451.02 Z" fill="#000000" fill-rule="evenodd" fill-opacity="1" /><path clip-path="url(#clip800)" d="M1236.24 1451.02 L1254.6 1451.02 L1254.6 1454.96 L1240.52 1454.96 L1240.52 1463.43 Q1241.54 1463.08 1242.56 1462.92 Q1243.58 1462.73 1244.6 1462.73 Q1250.39 1462.73 1253.77 1465.9 Q1257.15 1469.08 1257.15 1474.49 Q1257.15 1480.07 1253.67 1483.17 Q1250.2 1486.25 1243.88 1486.25 Q1241.71 1486.25 1239.44 1485.88 Q1237.19 1485.51 1234.78 1484.77 L1234.78 1480.07 Q1236.87 1481.2 1239.09 1481.76 Q1241.31 1482.32 1243.79 1482.32 Q1247.79 1482.32 1250.13 1480.21 Q1252.47 1478.1 1252.47 1474.49 Q1252.47 1470.88 1250.13 1468.77 Q1247.79 1466.67 1243.79 1466.67 Q1241.91 1466.67 1240.04 1467.08 Q1238.19 1467.5 1236.24 1468.38 L1236.24 1451.02 Z" fill="#000000" fill-rule="evenodd" fill-opacity="1" /><path clip-path="url(#clip800)" d="M1276.36 1454.1 Q1272.75 1454.1 1270.92 1457.66 Q1269.11 1461.2 1269.11 1468.33 Q1269.11 1475.44 1270.92 1479.01 Q1272.75 1482.55 1276.36 1482.55 Q1279.99 1482.55 1281.8 1479.01 Q1283.63 1475.44 1283.63 1468.33 Q1283.63 1461.2 1281.8 1457.66 Q1279.99 1454.1 1276.36 1454.1 M1276.36 1450.39 Q1282.17 1450.39 1285.22 1455 Q1288.3 1459.58 1288.3 1468.33 Q1288.3 1477.06 1285.22 1481.67 Q1282.17 1486.25 1276.36 1486.25 Q1270.55 1486.25 1267.47 1481.67 Q1264.41 1477.06 1264.41 1468.33 Q1264.41 1459.58 1267.47 1455 Q1270.55 1450.39 1276.36 1450.39 Z" fill="#000000" fill-rule="evenodd" fill-opacity="1" /><path clip-path="url(#clip800)" d="M1740.59 1451.02 L1762.81 1451.02 L1762.81 1453.01 L1750.26 1485.58 L1745.38 1485.58 L1757.19 1454.96 L1740.59 1454.96 L1740.59 1451.02 Z" fill="#000000" fill-rule="evenodd" fill-opacity="1" /><path clip-path="url(#clip800)" d="M1771.98 1451.02 L1790.33 1451.02 L1790.33 1454.96 L1776.26 1454.96 L1776.26 1463.43 Q1777.28 1463.08 1778.3 1462.92 Q1779.32 1462.73 1780.33 1462.73 Q1786.12 1462.73 1789.5 1465.9 Q1792.88 1469.08 1792.88 1474.49 Q1792.88 1480.07 1789.41 1483.17 Q1785.94 1486.25 1779.62 1486.25 Q1777.44 1486.25 1775.17 1485.88 Q1772.93 1485.51 1770.52 1484.77 L1770.52 1480.07 Q1772.6 1481.2 1774.82 1481.76 Q1777.05 1482.32 1779.52 1482.32 Q1783.53 1482.32 1785.87 1480.21 Q1788.2 1478.1 1788.2 1474.49 Q1788.2 1470.88 1785.87 1468.77 Q1783.53 1466.67 1779.52 1466.67 Q1777.65 1466.67 1775.77 1467.08 Q1773.92 1467.5 1771.98 1468.38 L1771.98 1451.02 Z" fill="#000000" fill-rule="evenodd" fill-opacity="1" /><path clip-path="url(#clip800)" d="M2231.53 1481.64 L2239.17 1481.64 L2239.17 1455.28 L2230.86 1456.95 L2230.86 1452.69 L2239.12 1451.02 L2243.8 1451.02 L2243.8 1481.64 L2251.44 1481.64 L2251.44 1485.58 L2231.53 1485.58 L2231.53 1481.64 Z" fill="#000000" fill-rule="evenodd" fill-opacity="1" /><path clip-path="url(#clip800)" d="M2270.88 1454.1 Q2267.27 1454.1 2265.44 1457.66 Q2263.64 1461.2 2263.64 1468.33 Q2263.64 1475.44 2265.44 1479.01 Q2267.27 1482.55 2270.88 1482.55 Q2274.52 1482.55 2276.32 1479.01 Q2278.15 1475.44 2278.15 1468.33 Q2278.15 1461.2 2276.32 1457.66 Q2274.52 1454.1 2270.88 1454.1 M2270.88 1450.39 Q2276.69 1450.39 2279.75 1455 Q2282.83 1459.58 2282.83 1468.33 Q2282.83 1477.06 2279.75 1481.67 Q2276.69 1486.25 2270.88 1486.25 Q2265.07 1486.25 2261.99 1481.67 Q2258.94 1477.06 2258.94 1468.33 Q2258.94 1459.58 2261.99 1455 Q2265.07 1450.39 2270.88 1450.39 Z" fill="#000000" fill-rule="evenodd" fill-opacity="1" /><path clip-path="url(#clip800)" d="M2301.05 1454.1 Q2297.43 1454.1 2295.61 1457.66 Q2293.8 1461.2 2293.8 1468.33 Q2293.8 1475.44 2295.61 1479.01 Q2297.43 1482.55 2301.05 1482.55 Q2304.68 1482.55 2306.49 1479.01 Q2308.31 1475.44 2308.31 1468.33 Q2308.31 1461.2 2306.49 1457.66 Q2304.68 1454.1 2301.05 1454.1 M2301.05 1450.39 Q2306.86 1450.39 2309.91 1455 Q2312.99 1459.58 2312.99 1468.33 Q2312.99 1477.06 2309.91 1481.67 Q2306.86 1486.25 2301.05 1486.25 Q2295.24 1486.25 2292.16 1481.67 Q2289.1 1477.06 2289.1 1468.33 Q2289.1 1459.58 2292.16 1455 Q2295.24 1450.39 2301.05 1450.39 Z" fill="#000000" fill-rule="evenodd" fill-opacity="1" /><path clip-path="url(#clip800)" d="M1122.82 1520.52 L1163.01 1520.52 L1163.01 1525.93 L1146.15 1525.93 L1146.15 1568.04 L1139.68 1568.04 L1139.68 1525.93 L1122.82 1525.93 L1122.82 1520.52 Z" fill="#000000" fill-rule="evenodd" fill-opacity="1" /><path clip-path="url(#clip800)" d="M1166.96 1532.4 L1172.82 1532.4 L1172.82 1568.04 L1166.96 1568.04 L1166.96 1532.4 M1166.96 1518.52 L1172.82 1518.52 L1172.82 1525.93 L1166.96 1525.93 L1166.96 1518.52 Z" fill="#000000" fill-rule="evenodd" fill-opacity="1" /><path clip-path="url(#clip800)" d="M1212.83 1539.24 Q1215.02 1535.29 1218.08 1533.41 Q1221.13 1531.54 1225.27 1531.54 Q1230.84 1531.54 1233.86 1535.45 Q1236.89 1539.33 1236.89 1546.53 L1236.89 1568.04 L1231 1568.04 L1231 1546.72 Q1231 1541.59 1229.19 1539.11 Q1227.37 1536.63 1223.65 1536.63 Q1219.1 1536.63 1216.45 1539.65 Q1213.81 1542.68 1213.81 1547.9 L1213.81 1568.04 L1207.92 1568.04 L1207.92 1546.72 Q1207.92 1541.56 1206.11 1539.11 Q1204.3 1536.63 1200.51 1536.63 Q1196.02 1536.63 1193.38 1539.68 Q1190.74 1542.71 1190.74 1547.9 L1190.74 1568.04 L1184.85 1568.04 L1184.85 1532.4 L1190.74 1532.4 L1190.74 1537.93 Q1192.74 1534.66 1195.54 1533.1 Q1198.34 1531.54 1202.2 1531.54 Q1206.08 1531.54 1208.78 1533.51 Q1211.52 1535.48 1212.83 1539.24 Z" fill="#000000" fill-rule="evenodd" fill-opacity="1" /><path clip-path="url(#clip800)" d="M1279.06 1548.76 L1279.06 1551.62 L1252.13 1551.62 Q1252.52 1557.67 1255.76 1560.85 Q1259.04 1564 1264.87 1564 Q1268.24 1564 1271.39 1563.17 Q1274.57 1562.35 1277.69 1560.69 L1277.69 1566.23 Q1274.54 1567.57 1271.23 1568.27 Q1267.92 1568.97 1264.52 1568.97 Q1255.99 1568.97 1250.99 1564 Q1246.02 1559.04 1246.02 1550.57 Q1246.02 1541.82 1250.73 1536.69 Q1255.48 1531.54 1263.5 1531.54 Q1270.69 1531.54 1274.86 1536.18 Q1279.06 1540.8 1279.06 1548.76 M1273.2 1547.04 Q1273.14 1542.23 1270.5 1539.37 Q1267.89 1536.5 1263.56 1536.5 Q1258.66 1536.5 1255.7 1539.27 Q1252.77 1542.04 1252.33 1547.07 L1273.2 1547.04 Z" fill="#000000" fill-rule="evenodd" fill-opacity="1" /><path clip-path="url(#clip800)" d="M1332.12 1533.45 L1332.12 1538.98 Q1329.64 1537.71 1326.96 1537.07 Q1324.29 1536.44 1321.43 1536.44 Q1317.06 1536.44 1314.87 1537.77 Q1312.7 1539.11 1312.7 1541.79 Q1312.7 1543.82 1314.26 1545 Q1315.82 1546.15 1320.53 1547.2 L1322.54 1547.64 Q1328.78 1548.98 1331.39 1551.43 Q1334.03 1553.85 1334.03 1558.21 Q1334.03 1563.17 1330.08 1566.07 Q1326.17 1568.97 1319.29 1568.97 Q1316.43 1568.97 1313.31 1568.39 Q1310.22 1567.85 1306.78 1566.74 L1306.78 1560.69 Q1310.03 1562.38 1313.18 1563.24 Q1316.33 1564.07 1319.42 1564.07 Q1323.56 1564.07 1325.79 1562.66 Q1328.01 1561.23 1328.01 1558.65 Q1328.01 1556.27 1326.39 1554.99 Q1324.8 1553.72 1319.36 1552.54 L1317.32 1552.07 Q1311.88 1550.92 1309.46 1548.56 Q1307.04 1546.18 1307.04 1542.04 Q1307.04 1537.01 1310.6 1534.27 Q1314.17 1531.54 1320.72 1531.54 Q1323.97 1531.54 1326.84 1532.01 Q1329.7 1532.49 1332.12 1533.45 Z" fill="#000000" fill-rule="evenodd" fill-opacity="1" /><path clip-path="url(#clip800)" d="M1349.15 1522.27 L1349.15 1532.4 L1361.21 1532.4 L1361.21 1536.95 L1349.15 1536.95 L1349.15 1556.3 Q1349.15 1560.66 1350.33 1561.9 Q1351.53 1563.14 1355.2 1563.14 L1361.21 1563.14 L1361.21 1568.04 L1355.2 1568.04 Q1348.42 1568.04 1345.84 1565.53 Q1343.26 1562.98 1343.26 1556.3 L1343.26 1536.95 L1338.96 1536.95 L1338.96 1532.4 L1343.26 1532.4 L1343.26 1522.27 L1349.15 1522.27 Z" fill="#000000" fill-rule="evenodd" fill-opacity="1" /><path clip-path="url(#clip800)" d="M1399.41 1548.76 L1399.41 1551.62 L1372.48 1551.62 Q1372.86 1557.67 1376.11 1560.85 Q1379.38 1564 1385.21 1564 Q1388.58 1564 1391.73 1563.17 Q1394.92 1562.35 1398.04 1560.69 L1398.04 1566.23 Q1394.89 1567.57 1391.58 1568.27 Q1388.27 1568.97 1384.86 1568.97 Q1376.33 1568.97 1371.33 1564 Q1366.37 1559.04 1366.37 1550.57 Q1366.37 1541.82 1371.08 1536.69 Q1375.82 1531.54 1383.84 1531.54 Q1391.03 1531.54 1395.2 1536.18 Q1399.41 1540.8 1399.41 1548.76 M1393.55 1547.04 Q1393.48 1542.23 1390.84 1539.37 Q1388.23 1536.5 1383.9 1536.5 Q1379 1536.5 1376.04 1539.27 Q1373.11 1542.04 1372.67 1547.07 L1393.55 1547.04 Z" fill="#000000" fill-rule="evenodd" fill-opacity="1" /><path clip-path="url(#clip800)" d="M1414.68 1562.7 L1414.68 1581.6 L1408.79 1581.6 L1408.79 1532.4 L1414.68 1532.4 L1414.68 1537.81 Q1416.53 1534.62 1419.33 1533.1 Q1422.16 1531.54 1426.08 1531.54 Q1432.57 1531.54 1436.61 1536.69 Q1440.69 1541.85 1440.69 1550.25 Q1440.69 1558.65 1436.61 1563.81 Q1432.57 1568.97 1426.08 1568.97 Q1422.16 1568.97 1419.33 1567.44 Q1416.53 1565.88 1414.68 1562.7 M1434.61 1550.25 Q1434.61 1543.79 1431.93 1540.13 Q1429.29 1536.44 1424.65 1536.44 Q1420 1536.44 1417.32 1540.13 Q1414.68 1543.79 1414.68 1550.25 Q1414.68 1556.71 1417.32 1560.4 Q1420 1564.07 1424.65 1564.07 Q1429.29 1564.07 1431.93 1560.4 Q1434.61 1556.71 1434.61 1550.25 Z" fill="#000000" fill-rule="evenodd" fill-opacity="1" /><polyline clip-path="url(#clip802)" style="stroke:#000000; stroke-linecap:butt; stroke-linejoin:round; stroke-width:2; stroke-opacity:0.1; fill:none" points="
  210.746,1200.55 2352.76,1200.55 
  "/>
<polyline clip-path="url(#clip802)" style="stroke:#000000; stroke-linecap:butt; stroke-linejoin:round; stroke-width:2; stroke-opacity:0.1; fill:none" points="
  210.746,966.116 2352.76,966.116 
  "/>
<polyline clip-path="url(#clip802)" style="stroke:#000000; stroke-linecap:butt; stroke-linejoin:round; stroke-width:2; stroke-opacity:0.1; fill:none" points="
  210.746,731.683 2352.76,731.683 
  "/>
<polyline clip-path="url(#clip802)" style="stroke:#000000; stroke-linecap:butt; stroke-linejoin:round; stroke-width:2; stroke-opacity:0.1; fill:none" points="
  210.746,497.251 2352.76,497.251 
  "/>
<polyline clip-path="url(#clip802)" style="stroke:#000000; stroke-linecap:butt; stroke-linejoin:round; stroke-width:2; stroke-opacity:0.1; fill:none" points="
  210.746,262.819 2352.76,262.819 
  "/>
<polyline clip-path="url(#clip800)" style="stroke:#000000; stroke-linecap:butt; stroke-linejoin:round; stroke-width:4; stroke-opacity:1; fill:none" points="
  210.746,1423.18 210.746,47.2441 
  "/>
<polyline clip-path="url(#clip800)" style="stroke:#000000; stroke-linecap:butt; stroke-linejoin:round; stroke-width:4; stroke-opacity:1; fill:none" points="
  210.746,1200.55 229.644,1200.55 
  "/>
<polyline clip-path="url(#clip800)" style="stroke:#000000; stroke-linecap:butt; stroke-linejoin:round; stroke-width:4; stroke-opacity:1; fill:none" points="
  210.746,966.116 229.644,966.116 
  "/>
<polyline clip-path="url(#clip800)" style="stroke:#000000; stroke-linecap:butt; stroke-linejoin:round; stroke-width:4; stroke-opacity:1; fill:none" points="
  210.746,731.683 229.644,731.683 
  "/>
<polyline clip-path="url(#clip800)" style="stroke:#000000; stroke-linecap:butt; stroke-linejoin:round; stroke-width:4; stroke-opacity:1; fill:none" points="
  210.746,497.251 229.644,497.251 
  "/>
<polyline clip-path="url(#clip800)" style="stroke:#000000; stroke-linecap:butt; stroke-linejoin:round; stroke-width:4; stroke-opacity:1; fill:none" points="
  210.746,262.819 229.644,262.819 
  "/>
<path clip-path="url(#clip800)" d="M114.631 1201 L144.306 1201 L144.306 1204.93 L114.631 1204.93 L114.631 1201 Z" fill="#000000" fill-rule="evenodd" fill-opacity="1" /><path clip-path="url(#clip800)" d="M158.427 1213.89 L174.746 1213.89 L174.746 1217.83 L152.802 1217.83 L152.802 1213.89 Q155.464 1211.14 160.047 1206.51 Q164.653 1201.86 165.834 1200.51 Q168.079 1197.99 168.959 1196.25 Q169.862 1194.49 169.862 1192.8 Q169.862 1190.05 167.917 1188.31 Q165.996 1186.58 162.894 1186.58 Q160.695 1186.58 158.241 1187.34 Q155.811 1188.11 153.033 1189.66 L153.033 1184.93 Q155.857 1183.8 158.311 1183.22 Q160.765 1182.64 162.802 1182.64 Q168.172 1182.64 171.366 1185.33 Q174.561 1188.01 174.561 1192.5 Q174.561 1194.63 173.751 1196.55 Q172.964 1198.45 170.857 1201.05 Q170.278 1201.72 167.177 1204.93 Q164.075 1208.13 158.427 1213.89 Z" fill="#000000" fill-rule="evenodd" fill-opacity="1" /><path clip-path="url(#clip800)" d="M114.26 966.567 L143.936 966.567 L143.936 970.502 L114.26 970.502 L114.26 966.567 Z" fill="#000000" fill-rule="evenodd" fill-opacity="1" /><path clip-path="url(#clip800)" d="M154.839 979.46 L162.477 979.46 L162.477 953.095 L154.167 954.761 L154.167 950.502 L162.431 948.836 L167.107 948.836 L167.107 979.46 L174.746 979.46 L174.746 983.396 L154.839 983.396 L154.839 979.46 Z" fill="#000000" fill-rule="evenodd" fill-opacity="1" /><path clip-path="url(#clip800)" d="M162.802 717.482 Q159.19 717.482 157.362 721.047 Q155.556 724.588 155.556 731.718 Q155.556 738.824 157.362 742.389 Q159.19 745.931 162.802 745.931 Q166.436 745.931 168.241 742.389 Q170.07 738.824 170.07 731.718 Q170.07 724.588 168.241 721.047 Q166.436 717.482 162.802 717.482 M162.802 713.778 Q168.612 713.778 171.667 718.385 Q174.746 722.968 174.746 731.718 Q174.746 740.445 171.667 745.051 Q168.612 749.635 162.802 749.635 Q156.991 749.635 153.913 745.051 Q150.857 740.445 150.857 731.718 Q150.857 722.968 153.913 718.385 Q156.991 713.778 162.802 713.778 Z" fill="#000000" fill-rule="evenodd" fill-opacity="1" /><path clip-path="url(#clip800)" d="M154.839 510.596 L162.477 510.596 L162.477 484.23 L154.167 485.897 L154.167 481.638 L162.431 479.971 L167.107 479.971 L167.107 510.596 L174.746 510.596 L174.746 514.531 L154.839 514.531 L154.839 510.596 Z" fill="#000000" fill-rule="evenodd" fill-opacity="1" /><path clip-path="url(#clip800)" d="M158.427 276.164 L174.746 276.164 L174.746 280.099 L152.802 280.099 L152.802 276.164 Q155.464 273.409 160.047 268.779 Q164.653 264.127 165.834 262.784 Q168.079 260.261 168.959 258.525 Q169.862 256.766 169.862 255.076 Q169.862 252.321 167.917 250.585 Q165.996 248.849 162.894 248.849 Q160.695 248.849 158.241 249.613 Q155.811 250.377 153.033 251.928 L153.033 247.205 Q155.857 246.071 158.311 245.492 Q160.765 244.914 162.802 244.914 Q168.172 244.914 171.366 247.599 Q174.561 250.284 174.561 254.775 Q174.561 256.904 173.751 258.826 Q172.964 260.724 170.857 263.316 Q170.278 263.988 167.177 267.205 Q164.075 270.4 158.427 276.164 Z" fill="#000000" fill-rule="evenodd" fill-opacity="1" /><path clip-path="url(#clip800)" d="M64.0042 804.582 L16.4842 822.725 L16.4842 816.009 L56.4926 800.954 L16.4842 785.867 L16.4842 779.183 L64.0042 797.294 L64.0042 804.582 Z" fill="#000000" fill-rule="evenodd" fill-opacity="1" /><path clip-path="url(#clip800)" d="M46.0847 761.359 Q46.0847 768.457 47.7079 771.194 Q49.3312 773.931 53.2461 773.931 Q56.3653 773.931 58.2114 771.894 Q60.0256 769.825 60.0256 766.293 Q60.0256 761.423 56.5881 758.495 Q53.1188 755.534 47.3897 755.534 L46.0847 755.534 L46.0847 761.359 M43.6657 749.678 L64.0042 749.678 L64.0042 755.534 L58.5933 755.534 Q61.8398 757.54 63.3994 760.532 Q64.9272 763.523 64.9272 767.852 Q64.9272 773.327 61.8716 776.573 Q58.7843 779.788 53.6281 779.788 Q47.6125 779.788 44.5569 775.777 Q41.5014 771.735 41.5014 763.746 L41.5014 755.534 L40.9285 755.534 Q36.8862 755.534 34.6901 758.208 Q32.4621 760.85 32.4621 765.656 Q32.4621 768.711 33.1941 771.608 Q33.9262 774.504 35.3903 777.178 L29.9795 777.178 Q28.7381 773.963 28.1334 770.939 Q27.4968 767.916 27.4968 765.051 Q27.4968 757.317 31.5072 753.497 Q35.5176 749.678 43.6657 749.678 Z" fill="#000000" fill-rule="evenodd" fill-opacity="1" /><path clip-path="url(#clip800)" d="M14.479 737.615 L14.479 731.759 L64.0042 731.759 L64.0042 737.615 L14.479 737.615 Z" fill="#000000" fill-rule="evenodd" fill-opacity="1" /><path clip-path="url(#clip800)" d="M49.9359 720.109 L28.3562 720.109 L28.3562 714.253 L49.7131 714.253 Q54.7739 714.253 57.3202 712.28 Q59.8346 710.306 59.8346 706.359 Q59.8346 701.617 56.8109 698.88 Q53.7872 696.111 48.5673 696.111 L28.3562 696.111 L28.3562 690.254 L64.0042 690.254 L64.0042 696.111 L58.5296 696.111 Q61.7762 698.243 63.3676 701.076 Q64.9272 703.877 64.9272 707.601 Q64.9272 713.744 61.1078 716.926 Q57.2883 720.109 49.9359 720.109 M27.4968 705.373 L27.4968 705.373 Z" fill="#000000" fill-rule="evenodd" fill-opacity="1" /><path clip-path="url(#clip800)" d="M44.7161 647.699 L47.5806 647.699 L47.5806 674.626 Q53.6281 674.244 56.8109 670.998 Q59.9619 667.72 59.9619 661.895 Q59.9619 658.521 59.1344 655.37 Q58.3069 652.187 56.6518 649.068 L62.1899 649.068 Q63.5267 652.219 64.227 655.529 Q64.9272 658.839 64.9272 662.245 Q64.9272 670.775 59.9619 675.772 Q54.9967 680.737 46.5303 680.737 Q37.7774 680.737 32.6531 676.027 Q27.4968 671.284 27.4968 663.264 Q27.4968 656.07 32.1438 651.901 Q36.7589 647.699 44.7161 647.699 M42.9973 653.556 Q38.1912 653.62 35.3266 656.261 Q32.4621 658.871 32.4621 663.2 Q32.4621 668.102 35.2312 671.062 Q38.0002 673.99 43.0292 674.435 L42.9973 653.556 Z" fill="#000000" fill-rule="evenodd" fill-opacity="1" /><polyline clip-path="url(#clip802)" style="stroke:#009af9; stroke-linecap:butt; stroke-linejoin:round; stroke-width:4; stroke-opacity:1; fill:none" points="
  271.369,832.7 291.577,1051.25 311.784,975.922 331.992,675.98 352.199,427.186 372.407,458.279 392.615,740.673 412.822,1014.74 433.03,1028.5 453.238,769.302 
  473.445,475.456 493.653,417.119 513.861,647.925 534.068,955.673 554.276,1057.42 574.483,859.621 594.691,544.131 614.899,401.01 635.106,561.843 655.314,878.761 
  675.522,1060.39 695.729,939.742 715.937,627.74 736.145,411.237 756.352,489.285 776.56,790.127 796.768,1037.17 816.975,1003.28 837.183,719.624 857.39,446.985 
  877.598,436.03 897.806,696.832 918.013,989.61 938.221,1045.19 958.429,812.463 978.636,505.406 998.844,406.322 1019.05,606.308 1039.26,921.497 1059.47,1062.11 
  1079.67,898.861 1099.88,581.847 1120.09,402.525 1140.3,525.765 1160.51,838.259 1180.71,1052.7 1200.92,971.936 1221.13,670.217 1241.34,424.944 1261.54,461.62 
  1281.75,746.525 1301.96,1017.72 1322.17,1025.87 1342.37,763.479 1362.58,471.792 1382.79,418.982 1403,653.603 1423.2,959.945 1443.41,1056.36 1463.62,854.202 
  1483.83,539.336 1504.03,401.248 1524.24,566.895 1544.45,883.982 1564.66,1060.98 1584.87,935.159 1605.07,622.197 1625.28,409.831 1645.49,493.308 1665.7,795.881 
  1685.9,1039.36 1706.11,999.902 1726.32,713.775 1746.53,444.047 1766.73,438.705 1786.94,702.66 1807.15,993.234 1827.36,1043.27 1847.56,806.773 1867.77,501.17 
  1887.98,407.434 1908.19,611.746 1928.4,926.262 1948.6,1061.82 1968.81,893.783 1989.02,576.649 2009.23,401.987 2029.43,530.38 2049.64,843.785 2069.85,1054.06 
  2090.06,967.876 2110.26,664.473 2130.47,422.798 2150.68,465.045 2170.89,752.372 2191.09,1020.61 2211.3,1023.15 2231.51,757.646 2251.72,468.209 2271.93,420.943 
  2292.13,659.305 
  "/>
<polyline clip-path="url(#clip802)" style="stroke:#e26f46; stroke-linecap:butt; stroke-linejoin:round; stroke-width:4; stroke-opacity:1; fill:none" points="
  271.369,368.121 291.577,869.157 311.784,901.527 331.992,682.12 352.199,706.084 372.407,568.708 392.615,591.349 412.822,834.184 433.03,1142.38 453.238,615.558 
  473.445,491.603 493.653,770.455 513.861,640.504 534.068,602.259 554.276,1232.7 574.483,695.976 594.691,939.891 614.899,86.1857 635.106,915.906 655.314,789.029 
  675.522,776.809 695.729,888.661 715.937,740.556 736.145,778.976 756.352,854.547 776.56,375.282 796.768,499.333 816.975,563.372 837.183,1229.22 857.39,445.216 
  877.598,432.239 897.806,918.629 918.013,496.106 938.221,854.281 958.429,758.583 978.636,493.696 998.844,643.881 1019.05,753.268 1039.26,697.678 1059.47,510.147 
  1079.67,855.404 1099.88,917.036 1120.09,461.591 1140.3,393.966 1160.51,891.308 1180.71,981.535 1200.92,903.377 1221.13,617.517 1241.34,662.906 1261.54,476.825 
  1281.75,965.46 1301.96,576.054 1322.17,962.589 1342.37,956.887 1362.58,953.745 1382.79,771.615 1403,649.129 1423.2,837.592 1443.41,677.648 1463.62,1118.5 
  1483.83,746.066 1504.03,684.831 1524.24,669.397 1544.45,440.413 1564.66,699.581 1584.87,905.838 1605.07,202.514 1625.28,751.313 1645.49,757.191 1665.7,174.355 
  1685.9,456.433 1706.11,948.192 1726.32,887.142 1746.53,734.947 1766.73,797.608 1786.94,488.046 1807.15,697.642 1827.36,770.942 1847.56,845.444 1867.77,1005.5 
  1887.98,672.248 1908.19,365.568 1928.4,367.494 1948.6,857.485 1968.81,1384.24 1989.02,831.948 2009.23,640.804 2029.43,928.456 2049.64,1009.15 2069.85,871.916 
  2090.06,1066.35 2110.26,486.293 2130.47,751.925 2150.68,771.867 2170.89,1017.67 2191.09,906.7 2211.3,566.916 2231.51,1188.74 2251.72,585.315 2271.93,731.971 
  2292.13,448.705 
  "/>
<path clip-path="url(#clip800)" d="
M2018.12 248.629 L2281.36 248.629 L2281.36 93.1086 L2018.12 93.1086  Z
  " fill="#ffffff" fill-rule="evenodd" fill-opacity="1"/>
<polyline clip-path="url(#clip800)" style="stroke:#000000; stroke-linecap:butt; stroke-linejoin:round; stroke-width:4; stroke-opacity:1; fill:none" points="
  2018.12,248.629 2281.36,248.629 2281.36,93.1086 2018.12,93.1086 2018.12,248.629 
  "/>
<polyline clip-path="url(#clip800)" style="stroke:#009af9; stroke-linecap:butt; stroke-linejoin:round; stroke-width:4; stroke-opacity:1; fill:none" points="
  2041.92,144.949 2184.72,144.949 
  "/>
<path clip-path="url(#clip800)" d="M2233.18 136.303 L2223.8 148.919 L2233.66 162.229 L2228.64 162.229 L2221.09 152.043 L2213.55 162.229 L2208.52 162.229 L2218.59 148.664 L2209.38 136.303 L2214.4 136.303 L2221.28 145.539 L2228.15 136.303 L2233.18 136.303 Z" fill="#000000" fill-rule="evenodd" fill-opacity="1" /><polyline clip-path="url(#clip800)" style="stroke:#e26f46; stroke-linecap:butt; stroke-linejoin:round; stroke-width:4; stroke-opacity:1; fill:none" points="
  2041.92,196.789 2184.72,196.789 
  "/>
<path clip-path="url(#clip800)" d="M2222.37 216.476 Q2220.56 221.106 2218.85 222.518 Q2217.14 223.93 2214.26 223.93 L2210.86 223.93 L2210.86 220.365 L2213.36 220.365 Q2215.12 220.365 2216.09 219.532 Q2217.07 218.698 2218.25 215.596 L2219.01 213.652 L2208.52 188.143 L2213.04 188.143 L2221.14 208.421 L2229.24 188.143 L2233.76 188.143 L2222.37 216.476 Z" fill="#000000" fill-rule="evenodd" fill-opacity="1" /></svg>
