<?xml version="1.0" encoding="utf-8"?>
<svg xmlns="http://www.w3.org/2000/svg" xmlns:xlink="http://www.w3.org/1999/xlink" width="600" height="400" viewBox="0 0 2400 1600">
<defs>
  <clipPath id="clip5700">
    <rect x="0" y="0" width="2400" height="1600"/>
  </clipPath>
</defs>
<polygon clip-path="url(#clip5700)" points="
0,1600 2400,1600 2400,0 0,0 
  " fill="#ffffff" fill-rule="evenodd" fill-opacity="1"/>
<defs>
  <clipPath id="clip5701">
    <rect x="480" y="0" width="1681" height="1600"/>
  </clipPath>
</defs>
<polygon clip-path="url(#clip5700)" points="
215.754,1425.62 2352.76,1425.62 2352.76,47.2441 215.754,47.2441 
  " fill="#ffffff" fill-rule="evenodd" fill-opacity="1"/>
<defs>
  <clipPath id="clip5702">
    <rect x="215" y="47" width="2138" height="1379"/>
  </clipPath>
</defs>
<polyline clip-path="url(#clip5702)" style="stroke:#000000; stroke-width:2; stroke-opacity:0.1; fill:none" points="
  234.234,1425.62 234.234,47.2441 
  "/>
<polyline clip-path="url(#clip5702)" style="stroke:#000000; stroke-width:2; stroke-opacity:0.1; fill:none" points="
  654.243,1425.62 654.243,47.2441 
  "/>
<polyline clip-path="url(#clip5702)" style="stroke:#000000; stroke-width:2; stroke-opacity:0.1; fill:none" points="
  1074.25,1425.62 1074.25,47.2441 
  "/>
<polyline clip-path="url(#clip5702)" style="stroke:#000000; stroke-width:2; stroke-opacity:0.1; fill:none" points="
  1494.26,1425.62 1494.26,47.2441 
  "/>
<polyline clip-path="url(#clip5702)" style="stroke:#000000; stroke-width:2; stroke-opacity:0.1; fill:none" points="
  1914.27,1425.62 1914.27,47.2441 
  "/>
<polyline clip-path="url(#clip5702)" style="stroke:#000000; stroke-width:2; stroke-opacity:0.1; fill:none" points="
  2334.28,1425.62 2334.28,47.2441 
  "/>
<polyline clip-path="url(#clip5702)" style="stroke:#000000; stroke-width:2; stroke-opacity:0.1; fill:none" points="
  215.754,1386.61 2352.76,1386.61 
  "/>
<polyline clip-path="url(#clip5702)" style="stroke:#000000; stroke-width:2; stroke-opacity:0.1; fill:none" points="
  215.754,1085.83 2352.76,1085.83 
  "/>
<polyline clip-path="url(#clip5702)" style="stroke:#000000; stroke-width:2; stroke-opacity:0.1; fill:none" points="
  215.754,785.059 2352.76,785.059 
  "/>
<polyline clip-path="url(#clip5702)" style="stroke:#000000; stroke-width:2; stroke-opacity:0.1; fill:none" points="
  215.754,484.285 2352.76,484.285 
  "/>
<polyline clip-path="url(#clip5702)" style="stroke:#000000; stroke-width:2; stroke-opacity:0.1; fill:none" points="
  215.754,183.51 2352.76,183.51 
  "/>
<polyline clip-path="url(#clip5700)" style="stroke:#000000; stroke-width:4; stroke-opacity:1; fill:none" points="
  215.754,1425.62 2352.76,1425.62 
  "/>
<polyline clip-path="url(#clip5700)" style="stroke:#000000; stroke-width:4; stroke-opacity:1; fill:none" points="
  215.754,1425.62 215.754,47.2441 
  "/>
<polyline clip-path="url(#clip5700)" style="stroke:#000000; stroke-width:4; stroke-opacity:1; fill:none" points="
  234.234,1425.62 234.234,1404.94 
  "/>
<polyline clip-path="url(#clip5700)" style="stroke:#000000; stroke-width:4; stroke-opacity:1; fill:none" points="
  654.243,1425.62 654.243,1404.94 
  "/>
<polyline clip-path="url(#clip5700)" style="stroke:#000000; stroke-width:4; stroke-opacity:1; fill:none" points="
  1074.25,1425.62 1074.25,1404.94 
  "/>
<polyline clip-path="url(#clip5700)" style="stroke:#000000; stroke-width:4; stroke-opacity:1; fill:none" points="
  1494.26,1425.62 1494.26,1404.94 
  "/>
<polyline clip-path="url(#clip5700)" style="stroke:#000000; stroke-width:4; stroke-opacity:1; fill:none" points="
  1914.27,1425.62 1914.27,1404.94 
  "/>
<polyline clip-path="url(#clip5700)" style="stroke:#000000; stroke-width:4; stroke-opacity:1; fill:none" points="
  2334.28,1425.62 2334.28,1404.94 
  "/>
<polyline clip-path="url(#clip5700)" style="stroke:#000000; stroke-width:4; stroke-opacity:1; fill:none" points="
  215.754,1386.61 247.809,1386.61 
  "/>
<polyline clip-path="url(#clip5700)" style="stroke:#000000; stroke-width:4; stroke-opacity:1; fill:none" points="
  215.754,1085.83 247.809,1085.83 
  "/>
<polyline clip-path="url(#clip5700)" style="stroke:#000000; stroke-width:4; stroke-opacity:1; fill:none" points="
  215.754,785.059 247.809,785.059 
  "/>
<polyline clip-path="url(#clip5700)" style="stroke:#000000; stroke-width:4; stroke-opacity:1; fill:none" points="
  215.754,484.285 247.809,484.285 
  "/>
<polyline clip-path="url(#clip5700)" style="stroke:#000000; stroke-width:4; stroke-opacity:1; fill:none" points="
  215.754,183.51 247.809,183.51 
  "/>
<g clip-path="url(#clip5700)">
<text style="fill:#000000; fill-opacity:1; font-family:Arial,Helvetica Neue,Helvetica,sans-serif; font-size:48px; text-anchor:middle;" transform="rotate(0, 234.234, 1479.62)" x="234.234" y="1479.62">0</text>
</g>
<g clip-path="url(#clip5700)">
<text style="fill:#000000; fill-opacity:1; font-family:Arial,Helvetica Neue,Helvetica,sans-serif; font-size:48px; text-anchor:middle;" transform="rotate(0, 654.243, 1479.62)" x="654.243" y="1479.62">10</text>
</g>
<g clip-path="url(#clip5700)">
<text style="fill:#000000; fill-opacity:1; font-family:Arial,Helvetica Neue,Helvetica,sans-serif; font-size:48px; text-anchor:middle;" transform="rotate(0, 1074.25, 1479.62)" x="1074.25" y="1479.62">20</text>
</g>
<g clip-path="url(#clip5700)">
<text style="fill:#000000; fill-opacity:1; font-family:Arial,Helvetica Neue,Helvetica,sans-serif; font-size:48px; text-anchor:middle;" transform="rotate(0, 1494.26, 1479.62)" x="1494.26" y="1479.62">30</text>
</g>
<g clip-path="url(#clip5700)">
<text style="fill:#000000; fill-opacity:1; font-family:Arial,Helvetica Neue,Helvetica,sans-serif; font-size:48px; text-anchor:middle;" transform="rotate(0, 1914.27, 1479.62)" x="1914.27" y="1479.62">40</text>
</g>
<g clip-path="url(#clip5700)">
<text style="fill:#000000; fill-opacity:1; font-family:Arial,Helvetica Neue,Helvetica,sans-serif; font-size:48px; text-anchor:middle;" transform="rotate(0, 2334.28, 1479.62)" x="2334.28" y="1479.62">50</text>
</g>
<g clip-path="url(#clip5700)">
<text style="fill:#000000; fill-opacity:1; font-family:Arial,Helvetica Neue,Helvetica,sans-serif; font-size:48px; text-anchor:end;" transform="rotate(0, 191.754, 1404.11)" x="191.754" y="1404.11">0.0</text>
</g>
<g clip-path="url(#clip5700)">
<text style="fill:#000000; fill-opacity:1; font-family:Arial,Helvetica Neue,Helvetica,sans-serif; font-size:48px; text-anchor:end;" transform="rotate(0, 191.754, 1103.33)" x="191.754" y="1103.33">0.2</text>
</g>
<g clip-path="url(#clip5700)">
<text style="fill:#000000; fill-opacity:1; font-family:Arial,Helvetica Neue,Helvetica,sans-serif; font-size:48px; text-anchor:end;" transform="rotate(0, 191.754, 802.559)" x="191.754" y="802.559">0.4</text>
</g>
<g clip-path="url(#clip5700)">
<text style="fill:#000000; fill-opacity:1; font-family:Arial,Helvetica Neue,Helvetica,sans-serif; font-size:48px; text-anchor:end;" transform="rotate(0, 191.754, 501.785)" x="191.754" y="501.785">0.6</text>
</g>
<g clip-path="url(#clip5700)">
<text style="fill:#000000; fill-opacity:1; font-family:Arial,Helvetica Neue,Helvetica,sans-serif; font-size:48px; text-anchor:end;" transform="rotate(0, 191.754, 201.01)" x="191.754" y="201.01">0.8</text>
</g>
<g clip-path="url(#clip5700)">
<text style="fill:#000000; fill-opacity:1; font-family:Arial,Helvetica Neue,Helvetica,sans-serif; font-size:66px; text-anchor:middle;" transform="rotate(0, 1284.25, 1559.48)" x="1284.25" y="1559.48"># subdivisions along each axis</text>
</g>
<g clip-path="url(#clip5700)">
<text style="fill:#000000; fill-opacity:1; font-family:Arial,Helvetica Neue,Helvetica,sans-serif; font-size:66px; text-anchor:middle;" transform="rotate(-90, 89.2861, 736.431)" x="89.2861" y="736.431">Transfer entropy (bits)</text>
</g>
<polyline clip-path="url(#clip5702)" style="stroke:#000000; stroke-width:4; stroke-opacity:1; fill:none" points="
  276.235,1386.61 360.237,1336.08 444.239,1016.79 528.24,838.807 612.242,718.974 696.243,653.771 780.245,555.243 864.247,387.571 948.248,348.258 1032.25,260.002 
  1116.25,138.569 1200.25,222.551 1284.25,164.443 1368.26,133.763 1452.26,179.198 1536.26,120.511 1620.26,192.252 1704.26,86.2547 1788.26,159.203 1872.27,142.564 
  1956.27,186.894 2040.27,253.348 2124.27,229.696 2208.27,266.542 2292.27,312.253 
  "/>
<polyline clip-path="url(#clip5702)" style="stroke:#ff0000; stroke-width:4; stroke-opacity:1; fill:none" points="
  276.235,1386.61 360.237,1386.61 444.239,1225.5 528.24,1317.11 612.242,1252.79 696.243,1219.78 780.245,1208.78 864.247,1112.67 948.248,1103.17 1032.25,1043.54 
  1116.25,1057.23 1200.25,912.801 1284.25,972.388 1368.26,897.017 1452.26,995.759 1536.26,825.864 1620.26,825.109 1704.26,767.283 1788.26,795.992 1872.27,783.908 
  1956.27,738.548 2040.27,824.011 2124.27,698.387 2208.27,747.523 2292.27,628.034 
  "/>
<polygon clip-path="url(#clip5700)" points="
1816.07,312.204 2280.76,312.204 2280.76,130.764 1816.07,130.764 
  " fill="#ffffff" fill-rule="evenodd" fill-opacity="1"/>
<polyline clip-path="url(#clip5700)" style="stroke:#000000; stroke-width:4; stroke-opacity:1; fill:none" points="
  1816.07,312.204 2280.76,312.204 2280.76,130.764 1816.07,130.764 1816.07,312.204 
  "/>
<polyline clip-path="url(#clip5700)" style="stroke:#000000; stroke-width:4; stroke-opacity:1; fill:none" points="
  1840.07,191.244 1984.07,191.244 
  "/>
<g clip-path="url(#clip5700)">
<text style="fill:#000000; fill-opacity:1; font-family:Arial,Helvetica Neue,Helvetica,sans-serif; font-size:48px; text-anchor:start;" transform="rotate(0, 2008.07, 208.744)" x="2008.07" y="208.744">TE(x -&gt; y)</text>
</g>
<polyline clip-path="url(#clip5700)" style="stroke:#ff0000; stroke-width:4; stroke-opacity:1; fill:none" points="
  1840.07,251.724 1984.07,251.724 
  "/>
<g clip-path="url(#clip5700)">
<text style="fill:#000000; fill-opacity:1; font-family:Arial,Helvetica Neue,Helvetica,sans-serif; font-size:48px; text-anchor:start;" transform="rotate(0, 2008.07, 269.224)" x="2008.07" y="269.224">TE(y -&gt; x)</text>
</g>
</svg>
