<?xml version="1.0" encoding="utf-8"?>
<svg xmlns="http://www.w3.org/2000/svg" xmlns:xlink="http://www.w3.org/1999/xlink" width="600" height="400" viewBox="0 0 2400 1600">
<defs>
  <clipPath id="clip3300">
    <rect x="0" y="0" width="2400" height="1600"/>
  </clipPath>
</defs>
<path clip-path="url(#clip3300)" d="
M0 1600 L2400 1600 L2400 0 L0 0  Z
  " fill="#ffffff" fill-rule="evenodd" fill-opacity="1"/>
<defs>
  <clipPath id="clip3301">
    <rect x="480" y="0" width="1681" height="1600"/>
  </clipPath>
</defs>
<path clip-path="url(#clip3300)" d="
M251.149 1440.48 L2321.26 1440.48 L2321.26 47.2441 L251.149 47.2441  Z
  " fill="#ffffff" fill-rule="evenodd" fill-opacity="1"/>
<defs>
  <clipPath id="clip3302">
    <rect x="251" y="47" width="2071" height="1394"/>
  </clipPath>
</defs>
<polyline clip-path="url(#clip3302)" style="stroke:#000000; stroke-width:2; stroke-opacity:0.1; fill:none" points="
  309.737,1440.48 309.737,47.2441 
  "/>
<polyline clip-path="url(#clip3302)" style="stroke:#000000; stroke-width:2; stroke-opacity:0.1; fill:none" points="
  797.97,1440.48 797.97,47.2441 
  "/>
<polyline clip-path="url(#clip3302)" style="stroke:#000000; stroke-width:2; stroke-opacity:0.1; fill:none" points="
  1286.2,1440.48 1286.2,47.2441 
  "/>
<polyline clip-path="url(#clip3302)" style="stroke:#000000; stroke-width:2; stroke-opacity:0.1; fill:none" points="
  1774.44,1440.48 1774.44,47.2441 
  "/>
<polyline clip-path="url(#clip3302)" style="stroke:#000000; stroke-width:2; stroke-opacity:0.1; fill:none" points="
  2262.67,1440.48 2262.67,47.2441 
  "/>
<polyline clip-path="url(#clip3302)" style="stroke:#000000; stroke-width:2; stroke-opacity:0.1; fill:none" points="
  251.149,1377.15 2321.26,1377.15 
  "/>
<polyline clip-path="url(#clip3302)" style="stroke:#000000; stroke-width:2; stroke-opacity:0.1; fill:none" points="
  251.149,1060.51 2321.26,1060.51 
  "/>
<polyline clip-path="url(#clip3302)" style="stroke:#000000; stroke-width:2; stroke-opacity:0.1; fill:none" points="
  251.149,743.863 2321.26,743.863 
  "/>
<polyline clip-path="url(#clip3302)" style="stroke:#000000; stroke-width:2; stroke-opacity:0.1; fill:none" points="
  251.149,427.218 2321.26,427.218 
  "/>
<polyline clip-path="url(#clip3302)" style="stroke:#000000; stroke-width:2; stroke-opacity:0.1; fill:none" points="
  251.149,110.573 2321.26,110.573 
  "/>
<polyline clip-path="url(#clip3300)" style="stroke:#000000; stroke-width:4; stroke-opacity:1; fill:none" points="
  251.149,1440.48 2321.26,1440.48 
  "/>
<polyline clip-path="url(#clip3300)" style="stroke:#000000; stroke-width:4; stroke-opacity:1; fill:none" points="
  251.149,1440.48 251.149,47.2441 
  "/>
<polyline clip-path="url(#clip3300)" style="stroke:#000000; stroke-width:4; stroke-opacity:1; fill:none" points="
  309.737,1440.48 309.737,1419.58 
  "/>
<polyline clip-path="url(#clip3300)" style="stroke:#000000; stroke-width:4; stroke-opacity:1; fill:none" points="
  797.97,1440.48 797.97,1419.58 
  "/>
<polyline clip-path="url(#clip3300)" style="stroke:#000000; stroke-width:4; stroke-opacity:1; fill:none" points="
  1286.2,1440.48 1286.2,1419.58 
  "/>
<polyline clip-path="url(#clip3300)" style="stroke:#000000; stroke-width:4; stroke-opacity:1; fill:none" points="
  1774.44,1440.48 1774.44,1419.58 
  "/>
<polyline clip-path="url(#clip3300)" style="stroke:#000000; stroke-width:4; stroke-opacity:1; fill:none" points="
  2262.67,1440.48 2262.67,1419.58 
  "/>
<polyline clip-path="url(#clip3300)" style="stroke:#000000; stroke-width:4; stroke-opacity:1; fill:none" points="
  251.149,1377.15 282.2,1377.15 
  "/>
<polyline clip-path="url(#clip3300)" style="stroke:#000000; stroke-width:4; stroke-opacity:1; fill:none" points="
  251.149,1060.51 282.2,1060.51 
  "/>
<polyline clip-path="url(#clip3300)" style="stroke:#000000; stroke-width:4; stroke-opacity:1; fill:none" points="
  251.149,743.863 282.2,743.863 
  "/>
<polyline clip-path="url(#clip3300)" style="stroke:#000000; stroke-width:4; stroke-opacity:1; fill:none" points="
  251.149,427.218 282.2,427.218 
  "/>
<polyline clip-path="url(#clip3300)" style="stroke:#000000; stroke-width:4; stroke-opacity:1; fill:none" points="
  251.149,110.573 282.2,110.573 
  "/>
<g clip-path="url(#clip3300)">
<text style="fill:#000000; fill-opacity:1; font-family:Arial,Helvetica Neue,Helvetica,sans-serif; font-size:48px; text-anchor:middle;" transform="rotate(0, 309.737, 1494.48)" x="309.737" y="1494.48">2</text>
</g>
<g clip-path="url(#clip3300)">
<text style="fill:#000000; fill-opacity:1; font-family:Arial,Helvetica Neue,Helvetica,sans-serif; font-size:48px; text-anchor:middle;" transform="rotate(0, 797.97, 1494.48)" x="797.97" y="1494.48">4</text>
</g>
<g clip-path="url(#clip3300)">
<text style="fill:#000000; fill-opacity:1; font-family:Arial,Helvetica Neue,Helvetica,sans-serif; font-size:48px; text-anchor:middle;" transform="rotate(0, 1286.2, 1494.48)" x="1286.2" y="1494.48">6</text>
</g>
<g clip-path="url(#clip3300)">
<text style="fill:#000000; fill-opacity:1; font-family:Arial,Helvetica Neue,Helvetica,sans-serif; font-size:48px; text-anchor:middle;" transform="rotate(0, 1774.44, 1494.48)" x="1774.44" y="1494.48">8</text>
</g>
<g clip-path="url(#clip3300)">
<text style="fill:#000000; fill-opacity:1; font-family:Arial,Helvetica Neue,Helvetica,sans-serif; font-size:48px; text-anchor:middle;" transform="rotate(0, 2262.67, 1494.48)" x="2262.67" y="1494.48">10</text>
</g>
<g clip-path="url(#clip3300)">
<text style="fill:#000000; fill-opacity:1; font-family:Arial,Helvetica Neue,Helvetica,sans-serif; font-size:48px; text-anchor:end;" transform="rotate(0, 227.149, 1394.65)" x="227.149" y="1394.65">0.00</text>
</g>
<g clip-path="url(#clip3300)">
<text style="fill:#000000; fill-opacity:1; font-family:Arial,Helvetica Neue,Helvetica,sans-serif; font-size:48px; text-anchor:end;" transform="rotate(0, 227.149, 1078.01)" x="227.149" y="1078.01">0.25</text>
</g>
<g clip-path="url(#clip3300)">
<text style="fill:#000000; fill-opacity:1; font-family:Arial,Helvetica Neue,Helvetica,sans-serif; font-size:48px; text-anchor:end;" transform="rotate(0, 227.149, 761.363)" x="227.149" y="761.363">0.50</text>
</g>
<g clip-path="url(#clip3300)">
<text style="fill:#000000; fill-opacity:1; font-family:Arial,Helvetica Neue,Helvetica,sans-serif; font-size:48px; text-anchor:end;" transform="rotate(0, 227.149, 444.718)" x="227.149" y="444.718">0.75</text>
</g>
<g clip-path="url(#clip3300)">
<text style="fill:#000000; fill-opacity:1; font-family:Arial,Helvetica Neue,Helvetica,sans-serif; font-size:48px; text-anchor:end;" transform="rotate(0, 227.149, 128.073)" x="227.149" y="128.073">1.00</text>
</g>
<g clip-path="url(#clip3300)">
<text style="fill:#000000; fill-opacity:1; font-family:Arial,Helvetica Neue,Helvetica,sans-serif; font-size:66px; text-anchor:middle;" transform="rotate(0, 1286.2, 1590.4)" x="1286.2" y="1590.4"># nearest neighbors (k)</text>
</g>
<g clip-path="url(#clip3300)">
<text style="fill:#000000; fill-opacity:1; font-family:Arial,Helvetica Neue,Helvetica,sans-serif; font-size:66px; text-anchor:middle;" transform="rotate(-90, 57.6, 743.863)" x="57.6" y="743.863">S</text>
</g>
<polyline clip-path="url(#clip3302)" style="stroke:#000000; stroke-width:4; stroke-opacity:1; fill:none" points="
  309.737,1356.09 553.853,1358.65 797.97,1357.26 1042.09,1355.44 1286.2,1353.55 1530.32,1351.75 1774.44,1350.09 2018.55,1348.45 2262.67,1346.88 
  "/>
<circle clip-path="url(#clip3302)" style="fill:#000000; stroke:none; fill-opacity:1" cx="309.737" cy="1356.09" r="21"/>
<circle clip-path="url(#clip3302)" style="fill:#000000; stroke:none; fill-opacity:1" cx="309.737" cy="1356.09" r="14"/>
<circle clip-path="url(#clip3302)" style="fill:#000000; stroke:none; fill-opacity:1" cx="553.853" cy="1358.65" r="21"/>
<circle clip-path="url(#clip3302)" style="fill:#000000; stroke:none; fill-opacity:1" cx="553.853" cy="1358.65" r="14"/>
<circle clip-path="url(#clip3302)" style="fill:#000000; stroke:none; fill-opacity:1" cx="797.97" cy="1357.26" r="21"/>
<circle clip-path="url(#clip3302)" style="fill:#000000; stroke:none; fill-opacity:1" cx="797.97" cy="1357.26" r="14"/>
<circle clip-path="url(#clip3302)" style="fill:#000000; stroke:none; fill-opacity:1" cx="1042.09" cy="1355.44" r="21"/>
<circle clip-path="url(#clip3302)" style="fill:#000000; stroke:none; fill-opacity:1" cx="1042.09" cy="1355.44" r="14"/>
<circle clip-path="url(#clip3302)" style="fill:#000000; stroke:none; fill-opacity:1" cx="1286.2" cy="1353.55" r="21"/>
<circle clip-path="url(#clip3302)" style="fill:#000000; stroke:none; fill-opacity:1" cx="1286.2" cy="1353.55" r="14"/>
<circle clip-path="url(#clip3302)" style="fill:#000000; stroke:none; fill-opacity:1" cx="1530.32" cy="1351.75" r="21"/>
<circle clip-path="url(#clip3302)" style="fill:#000000; stroke:none; fill-opacity:1" cx="1530.32" cy="1351.75" r="14"/>
<circle clip-path="url(#clip3302)" style="fill:#000000; stroke:none; fill-opacity:1" cx="1774.44" cy="1350.09" r="21"/>
<circle clip-path="url(#clip3302)" style="fill:#000000; stroke:none; fill-opacity:1" cx="1774.44" cy="1350.09" r="14"/>
<circle clip-path="url(#clip3302)" style="fill:#000000; stroke:none; fill-opacity:1" cx="2018.55" cy="1348.45" r="21"/>
<circle clip-path="url(#clip3302)" style="fill:#000000; stroke:none; fill-opacity:1" cx="2018.55" cy="1348.45" r="14"/>
<circle clip-path="url(#clip3302)" style="fill:#000000; stroke:none; fill-opacity:1" cx="2262.67" cy="1346.88" r="21"/>
<circle clip-path="url(#clip3302)" style="fill:#000000; stroke:none; fill-opacity:1" cx="2262.67" cy="1346.88" r="14"/>
<polyline clip-path="url(#clip3302)" style="stroke:#ff0000; stroke-width:4; stroke-opacity:1; fill:none" points="
  309.737,1357.11 553.853,1358.69 797.97,1356.98 1042.09,1355.16 1286.2,1353.34 1530.32,1351.63 1774.44,1349.97 2018.55,1348.31 2262.67,1346.78 
  "/>
<circle clip-path="url(#clip3302)" style="fill:#000000; stroke:none; fill-opacity:1" cx="309.737" cy="1357.11" r="21"/>
<circle clip-path="url(#clip3302)" style="fill:#ff0000; stroke:none; fill-opacity:1" cx="309.737" cy="1357.11" r="14"/>
<circle clip-path="url(#clip3302)" style="fill:#000000; stroke:none; fill-opacity:1" cx="553.853" cy="1358.69" r="21"/>
<circle clip-path="url(#clip3302)" style="fill:#ff0000; stroke:none; fill-opacity:1" cx="553.853" cy="1358.69" r="14"/>
<circle clip-path="url(#clip3302)" style="fill:#000000; stroke:none; fill-opacity:1" cx="797.97" cy="1356.98" r="21"/>
<circle clip-path="url(#clip3302)" style="fill:#ff0000; stroke:none; fill-opacity:1" cx="797.97" cy="1356.98" r="14"/>
<circle clip-path="url(#clip3302)" style="fill:#000000; stroke:none; fill-opacity:1" cx="1042.09" cy="1355.16" r="21"/>
<circle clip-path="url(#clip3302)" style="fill:#ff0000; stroke:none; fill-opacity:1" cx="1042.09" cy="1355.16" r="14"/>
<circle clip-path="url(#clip3302)" style="fill:#000000; stroke:none; fill-opacity:1" cx="1286.2" cy="1353.34" r="21"/>
<circle clip-path="url(#clip3302)" style="fill:#ff0000; stroke:none; fill-opacity:1" cx="1286.2" cy="1353.34" r="14"/>
<circle clip-path="url(#clip3302)" style="fill:#000000; stroke:none; fill-opacity:1" cx="1530.32" cy="1351.63" r="21"/>
<circle clip-path="url(#clip3302)" style="fill:#ff0000; stroke:none; fill-opacity:1" cx="1530.32" cy="1351.63" r="14"/>
<circle clip-path="url(#clip3302)" style="fill:#000000; stroke:none; fill-opacity:1" cx="1774.44" cy="1349.97" r="21"/>
<circle clip-path="url(#clip3302)" style="fill:#ff0000; stroke:none; fill-opacity:1" cx="1774.44" cy="1349.97" r="14"/>
<circle clip-path="url(#clip3302)" style="fill:#000000; stroke:none; fill-opacity:1" cx="2018.55" cy="1348.31" r="21"/>
<circle clip-path="url(#clip3302)" style="fill:#ff0000; stroke:none; fill-opacity:1" cx="2018.55" cy="1348.31" r="14"/>
<circle clip-path="url(#clip3302)" style="fill:#000000; stroke:none; fill-opacity:1" cx="2262.67" cy="1346.78" r="21"/>
<circle clip-path="url(#clip3302)" style="fill:#ff0000; stroke:none; fill-opacity:1" cx="2262.67" cy="1346.78" r="14"/>
<polyline clip-path="url(#clip3302)" style="stroke:#3da44d; stroke-width:4; stroke-opacity:1; fill:none" points="
  309.737,350.7 553.853,462.145 797.97,515.351 1042.09,548.761 1286.2,566.542 1530.32,576.457 1774.44,580.602 2018.55,582.133 2262.67,584.501 
  "/>
<circle clip-path="url(#clip3302)" style="fill:#000000; stroke:none; fill-opacity:1" cx="309.737" cy="350.7" r="21"/>
<circle clip-path="url(#clip3302)" style="fill:#3da44d; stroke:none; fill-opacity:1" cx="309.737" cy="350.7" r="14"/>
<circle clip-path="url(#clip3302)" style="fill:#000000; stroke:none; fill-opacity:1" cx="553.853" cy="462.145" r="21"/>
<circle clip-path="url(#clip3302)" style="fill:#3da44d; stroke:none; fill-opacity:1" cx="553.853" cy="462.145" r="14"/>
<circle clip-path="url(#clip3302)" style="fill:#000000; stroke:none; fill-opacity:1" cx="797.97" cy="515.351" r="21"/>
<circle clip-path="url(#clip3302)" style="fill:#3da44d; stroke:none; fill-opacity:1" cx="797.97" cy="515.351" r="14"/>
<circle clip-path="url(#clip3302)" style="fill:#000000; stroke:none; fill-opacity:1" cx="1042.09" cy="548.761" r="21"/>
<circle clip-path="url(#clip3302)" style="fill:#3da44d; stroke:none; fill-opacity:1" cx="1042.09" cy="548.761" r="14"/>
<circle clip-path="url(#clip3302)" style="fill:#000000; stroke:none; fill-opacity:1" cx="1286.2" cy="566.542" r="21"/>
<circle clip-path="url(#clip3302)" style="fill:#3da44d; stroke:none; fill-opacity:1" cx="1286.2" cy="566.542" r="14"/>
<circle clip-path="url(#clip3302)" style="fill:#000000; stroke:none; fill-opacity:1" cx="1530.32" cy="576.457" r="21"/>
<circle clip-path="url(#clip3302)" style="fill:#3da44d; stroke:none; fill-opacity:1" cx="1530.32" cy="576.457" r="14"/>
<circle clip-path="url(#clip3302)" style="fill:#000000; stroke:none; fill-opacity:1" cx="1774.44" cy="580.602" r="21"/>
<circle clip-path="url(#clip3302)" style="fill:#3da44d; stroke:none; fill-opacity:1" cx="1774.44" cy="580.602" r="14"/>
<circle clip-path="url(#clip3302)" style="fill:#000000; stroke:none; fill-opacity:1" cx="2018.55" cy="582.133" r="21"/>
<circle clip-path="url(#clip3302)" style="fill:#3da44d; stroke:none; fill-opacity:1" cx="2018.55" cy="582.133" r="14"/>
<circle clip-path="url(#clip3302)" style="fill:#000000; stroke:none; fill-opacity:1" cx="2262.67" cy="584.501" r="21"/>
<circle clip-path="url(#clip3302)" style="fill:#3da44d; stroke:none; fill-opacity:1" cx="2262.67" cy="584.501" r="14"/>
<polyline clip-path="url(#clip3302)" style="stroke:#c271d2; stroke-width:4; stroke-opacity:1; fill:none" points="
  309.737,380.063 553.853,536.901 797.97,617.753 1042.09,664.803 1286.2,681.472 1530.32,688.586 1774.44,695.381 2018.55,699.49 2262.67,707.788 
  "/>
<circle clip-path="url(#clip3302)" style="fill:#000000; stroke:none; fill-opacity:1" cx="309.737" cy="380.063" r="21"/>
<circle clip-path="url(#clip3302)" style="fill:#c271d2; stroke:none; fill-opacity:1" cx="309.737" cy="380.063" r="14"/>
<circle clip-path="url(#clip3302)" style="fill:#000000; stroke:none; fill-opacity:1" cx="553.853" cy="536.901" r="21"/>
<circle clip-path="url(#clip3302)" style="fill:#c271d2; stroke:none; fill-opacity:1" cx="553.853" cy="536.901" r="14"/>
<circle clip-path="url(#clip3302)" style="fill:#000000; stroke:none; fill-opacity:1" cx="797.97" cy="617.753" r="21"/>
<circle clip-path="url(#clip3302)" style="fill:#c271d2; stroke:none; fill-opacity:1" cx="797.97" cy="617.753" r="14"/>
<circle clip-path="url(#clip3302)" style="fill:#000000; stroke:none; fill-opacity:1" cx="1042.09" cy="664.803" r="21"/>
<circle clip-path="url(#clip3302)" style="fill:#c271d2; stroke:none; fill-opacity:1" cx="1042.09" cy="664.803" r="14"/>
<circle clip-path="url(#clip3302)" style="fill:#000000; stroke:none; fill-opacity:1" cx="1286.2" cy="681.472" r="21"/>
<circle clip-path="url(#clip3302)" style="fill:#c271d2; stroke:none; fill-opacity:1" cx="1286.2" cy="681.472" r="14"/>
<circle clip-path="url(#clip3302)" style="fill:#000000; stroke:none; fill-opacity:1" cx="1530.32" cy="688.586" r="21"/>
<circle clip-path="url(#clip3302)" style="fill:#c271d2; stroke:none; fill-opacity:1" cx="1530.32" cy="688.586" r="14"/>
<circle clip-path="url(#clip3302)" style="fill:#000000; stroke:none; fill-opacity:1" cx="1774.44" cy="695.381" r="21"/>
<circle clip-path="url(#clip3302)" style="fill:#c271d2; stroke:none; fill-opacity:1" cx="1774.44" cy="695.381" r="14"/>
<circle clip-path="url(#clip3302)" style="fill:#000000; stroke:none; fill-opacity:1" cx="2018.55" cy="699.49" r="21"/>
<circle clip-path="url(#clip3302)" style="fill:#c271d2; stroke:none; fill-opacity:1" cx="2018.55" cy="699.49" r="14"/>
<circle clip-path="url(#clip3302)" style="fill:#000000; stroke:none; fill-opacity:1" cx="2262.67" cy="707.788" r="21"/>
<circle clip-path="url(#clip3302)" style="fill:#c271d2; stroke:none; fill-opacity:1" cx="2262.67" cy="707.788" r="14"/>
<path clip-path="url(#clip3300)" d="
M1268.24 433.164 L2249.26 433.164 L2249.26 130.764 L1268.24 130.764  Z
  " fill="#ffffff" fill-rule="evenodd" fill-opacity="1"/>
<polyline clip-path="url(#clip3300)" style="stroke:#000000; stroke-width:4; stroke-opacity:1; fill:none" points="
  1268.24,433.164 2249.26,433.164 2249.26,130.764 1268.24,130.764 1268.24,433.164 
  "/>
<polyline clip-path="url(#clip3300)" style="stroke:#000000; stroke-width:4; stroke-opacity:1; fill:none" points="
  1292.24,191.244 1436.24,191.244 
  "/>
<circle clip-path="url(#clip3300)" style="fill:#000000; stroke:none; fill-opacity:1" cx="1376.24" cy="191.244" r="28"/>
<circle clip-path="url(#clip3300)" style="fill:#000000; stroke:none; fill-opacity:1" cx="1376.24" cy="191.244" r="21"/>
<g clip-path="url(#clip3300)">
<text style="fill:#000000; fill-opacity:1; font-family:Arial,Helvetica Neue,Helvetica,sans-serif; font-size:48px; text-anchor:start;" transform="rotate(0, 1460.24, 208.744)" x="1460.24" y="208.744">random uncoupled system (x -&gt; y)</text>
</g>
<polyline clip-path="url(#clip3300)" style="stroke:#ff0000; stroke-width:4; stroke-opacity:1; fill:none" points="
  1292.24,251.724 1436.24,251.724 
  "/>
<circle clip-path="url(#clip3300)" style="fill:#000000; stroke:none; fill-opacity:1" cx="1376.24" cy="251.724" r="28"/>
<circle clip-path="url(#clip3300)" style="fill:#ff0000; stroke:none; fill-opacity:1" cx="1376.24" cy="251.724" r="21"/>
<g clip-path="url(#clip3300)">
<text style="fill:#000000; fill-opacity:1; font-family:Arial,Helvetica Neue,Helvetica,sans-serif; font-size:48px; text-anchor:start;" transform="rotate(0, 1460.24, 269.224)" x="1460.24" y="269.224">random uncoupled system (y -&gt; x)</text>
</g>
<polyline clip-path="url(#clip3300)" style="stroke:#3da44d; stroke-width:4; stroke-opacity:1; fill:none" points="
  1292.24,312.204 1436.24,312.204 
  "/>
<circle clip-path="url(#clip3300)" style="fill:#000000; stroke:none; fill-opacity:1" cx="1376.24" cy="312.204" r="28"/>
<circle clip-path="url(#clip3300)" style="fill:#3da44d; stroke:none; fill-opacity:1" cx="1376.24" cy="312.204" r="21"/>
<g clip-path="url(#clip3300)">
<text style="fill:#000000; fill-opacity:1; font-family:Arial,Helvetica Neue,Helvetica,sans-serif; font-size:48px; text-anchor:start;" transform="rotate(0, 1460.24, 329.704)" x="1460.24" y="329.704">henon unidir (x -&gt; y)</text>
</g>
<polyline clip-path="url(#clip3300)" style="stroke:#c271d2; stroke-width:4; stroke-opacity:1; fill:none" points="
  1292.24,372.684 1436.24,372.684 
  "/>
<circle clip-path="url(#clip3300)" style="fill:#000000; stroke:none; fill-opacity:1" cx="1376.24" cy="372.684" r="28"/>
<circle clip-path="url(#clip3300)" style="fill:#c271d2; stroke:none; fill-opacity:1" cx="1376.24" cy="372.684" r="21"/>
<g clip-path="url(#clip3300)">
<text style="fill:#000000; fill-opacity:1; font-family:Arial,Helvetica Neue,Helvetica,sans-serif; font-size:48px; text-anchor:start;" transform="rotate(0, 1460.24, 390.184)" x="1460.24" y="390.184">henon unidir (y -&gt; x)</text>
</g>
</svg>
