<?xml version="1.0" encoding="utf-8" standalone="no"?>
<!DOCTYPE svg PUBLIC "-//W3C//DTD SVG 1.1//EN"
  "http://www.w3.org/Graphics/SVG/1.1/DTD/svg11.dtd">
<!-- Created with matplotlib (https://matplotlib.org/) -->
<svg height="288pt" version="1.1" viewBox="0 0 432 288" width="432pt" xmlns="http://www.w3.org/2000/svg" xmlns:xlink="http://www.w3.org/1999/xlink">
 <defs>
  <style type="text/css">
*{stroke-linecap:butt;stroke-linejoin:round;}
  </style>
 </defs>
 <g id="figure_1">
  <g id="patch_1">
   <path d="M 0 288 
L 432 288 
L 432 0 
L 0 0 
z
" style="fill:#ffffff;"/>
  </g>
  <g id="axes_1">
   <g id="patch_2">
    <path d="M 36.614646 123.065354 
L 429.165354 123.065354 
L 429.165354 2.834646 
L 36.614646 2.834646 
z
" style="fill:#ffffff;"/>
   </g>
   <g id="matplotlib.axis_1">
    <g id="xtick_1">
     <g id="line2d_1">
      <path clip-path="url(#peb8d53bea5)" d="M 45.863612 123.065354 
L 45.863612 2.834646 
" style="fill:none;stroke:#000000;stroke-linecap:square;stroke-opacity:0.1;stroke-width:0.5;"/>
     </g>
     <g id="line2d_2">
      <defs>
       <path d="M 0 0 
L 0 -3.5 
" id="m9ca327d441" style="stroke:#000000;stroke-width:0.8;"/>
      </defs>
      <g>
       <use style="stroke:#000000;stroke-width:0.8;" x="45.863612" xlink:href="#m9ca327d441" y="123.065354"/>
      </g>
     </g>
     <g id="text_1">
      <!-- 0 -->
      <defs>
       <path d="M 31.78125 66.40625 
Q 24.171875 66.40625 20.328125 58.90625 
Q 16.5 51.421875 16.5 36.375 
Q 16.5 21.390625 20.328125 13.890625 
Q 24.171875 6.390625 31.78125 6.390625 
Q 39.453125 6.390625 43.28125 13.890625 
Q 47.125 21.390625 47.125 36.375 
Q 47.125 51.421875 43.28125 58.90625 
Q 39.453125 66.40625 31.78125 66.40625 
z
M 31.78125 74.21875 
Q 44.046875 74.21875 50.515625 64.515625 
Q 56.984375 54.828125 56.984375 36.375 
Q 56.984375 17.96875 50.515625 8.265625 
Q 44.046875 -1.421875 31.78125 -1.421875 
Q 19.53125 -1.421875 13.0625 8.265625 
Q 6.59375 17.96875 6.59375 36.375 
Q 6.59375 54.828125 13.0625 64.515625 
Q 19.53125 74.21875 31.78125 74.21875 
z
" id="DejaVuSans-48"/>
      </defs>
      <g transform="translate(43.318612 132.644104)scale(0.08 -0.08)">
       <use xlink:href="#DejaVuSans-48"/>
      </g>
     </g>
    </g>
    <g id="xtick_2">
     <g id="line2d_3">
      <path clip-path="url(#peb8d53bea5)" d="M 138.911566 123.065354 
L 138.911566 2.834646 
" style="fill:none;stroke:#000000;stroke-linecap:square;stroke-opacity:0.1;stroke-width:0.5;"/>
     </g>
     <g id="line2d_4">
      <g>
       <use style="stroke:#000000;stroke-width:0.8;" x="138.911566" xlink:href="#m9ca327d441" y="123.065354"/>
      </g>
     </g>
     <g id="text_2">
      <!-- 50 -->
      <defs>
       <path d="M 10.796875 72.90625 
L 49.515625 72.90625 
L 49.515625 64.59375 
L 19.828125 64.59375 
L 19.828125 46.734375 
Q 21.96875 47.46875 24.109375 47.828125 
Q 26.265625 48.1875 28.421875 48.1875 
Q 40.625 48.1875 47.75 41.5 
Q 54.890625 34.8125 54.890625 23.390625 
Q 54.890625 11.625 47.5625 5.09375 
Q 40.234375 -1.421875 26.90625 -1.421875 
Q 22.3125 -1.421875 17.546875 -0.640625 
Q 12.796875 0.140625 7.71875 1.703125 
L 7.71875 11.625 
Q 12.109375 9.234375 16.796875 8.0625 
Q 21.484375 6.890625 26.703125 6.890625 
Q 35.15625 6.890625 40.078125 11.328125 
Q 45.015625 15.765625 45.015625 23.390625 
Q 45.015625 31 40.078125 35.4375 
Q 35.15625 39.890625 26.703125 39.890625 
Q 22.75 39.890625 18.8125 39.015625 
Q 14.890625 38.140625 10.796875 36.28125 
z
" id="DejaVuSans-53"/>
      </defs>
      <g transform="translate(133.821566 132.644104)scale(0.08 -0.08)">
       <use xlink:href="#DejaVuSans-53"/>
       <use x="63.623047" xlink:href="#DejaVuSans-48"/>
      </g>
     </g>
    </g>
    <g id="xtick_3">
     <g id="line2d_5">
      <path clip-path="url(#peb8d53bea5)" d="M 231.95952 123.065354 
L 231.95952 2.834646 
" style="fill:none;stroke:#000000;stroke-linecap:square;stroke-opacity:0.1;stroke-width:0.5;"/>
     </g>
     <g id="line2d_6">
      <g>
       <use style="stroke:#000000;stroke-width:0.8;" x="231.95952" xlink:href="#m9ca327d441" y="123.065354"/>
      </g>
     </g>
     <g id="text_3">
      <!-- 100 -->
      <defs>
       <path d="M 12.40625 8.296875 
L 28.515625 8.296875 
L 28.515625 63.921875 
L 10.984375 60.40625 
L 10.984375 69.390625 
L 28.421875 72.90625 
L 38.28125 72.90625 
L 38.28125 8.296875 
L 54.390625 8.296875 
L 54.390625 0 
L 12.40625 0 
z
" id="DejaVuSans-49"/>
      </defs>
      <g transform="translate(224.32452 132.644104)scale(0.08 -0.08)">
       <use xlink:href="#DejaVuSans-49"/>
       <use x="63.623047" xlink:href="#DejaVuSans-48"/>
       <use x="127.246094" xlink:href="#DejaVuSans-48"/>
      </g>
     </g>
    </g>
    <g id="xtick_4">
     <g id="line2d_7">
      <path clip-path="url(#peb8d53bea5)" d="M 325.007475 123.065354 
L 325.007475 2.834646 
" style="fill:none;stroke:#000000;stroke-linecap:square;stroke-opacity:0.1;stroke-width:0.5;"/>
     </g>
     <g id="line2d_8">
      <g>
       <use style="stroke:#000000;stroke-width:0.8;" x="325.007475" xlink:href="#m9ca327d441" y="123.065354"/>
      </g>
     </g>
     <g id="text_4">
      <!-- 150 -->
      <g transform="translate(317.372475 132.644104)scale(0.08 -0.08)">
       <use xlink:href="#DejaVuSans-49"/>
       <use x="63.623047" xlink:href="#DejaVuSans-53"/>
       <use x="127.246094" xlink:href="#DejaVuSans-48"/>
      </g>
     </g>
    </g>
    <g id="xtick_5">
     <g id="line2d_9">
      <path clip-path="url(#peb8d53bea5)" d="M 418.055429 123.065354 
L 418.055429 2.834646 
" style="fill:none;stroke:#000000;stroke-linecap:square;stroke-opacity:0.1;stroke-width:0.5;"/>
     </g>
     <g id="line2d_10">
      <g>
       <use style="stroke:#000000;stroke-width:0.8;" x="418.055429" xlink:href="#m9ca327d441" y="123.065354"/>
      </g>
     </g>
     <g id="text_5">
      <!-- 200 -->
      <defs>
       <path d="M 19.1875 8.296875 
L 53.609375 8.296875 
L 53.609375 0 
L 7.328125 0 
L 7.328125 8.296875 
Q 12.9375 14.109375 22.625 23.890625 
Q 32.328125 33.6875 34.8125 36.53125 
Q 39.546875 41.84375 41.421875 45.53125 
Q 43.3125 49.21875 43.3125 52.78125 
Q 43.3125 58.59375 39.234375 62.25 
Q 35.15625 65.921875 28.609375 65.921875 
Q 23.96875 65.921875 18.8125 64.3125 
Q 13.671875 62.703125 7.8125 59.421875 
L 7.8125 69.390625 
Q 13.765625 71.78125 18.9375 73 
Q 24.125 74.21875 28.421875 74.21875 
Q 39.75 74.21875 46.484375 68.546875 
Q 53.21875 62.890625 53.21875 53.421875 
Q 53.21875 48.921875 51.53125 44.890625 
Q 49.859375 40.875 45.40625 35.40625 
Q 44.1875 33.984375 37.640625 27.21875 
Q 31.109375 20.453125 19.1875 8.296875 
z
" id="DejaVuSans-50"/>
      </defs>
      <g transform="translate(410.420429 132.644104)scale(0.08 -0.08)">
       <use xlink:href="#DejaVuSans-50"/>
       <use x="63.623047" xlink:href="#DejaVuSans-48"/>
       <use x="127.246094" xlink:href="#DejaVuSans-48"/>
      </g>
     </g>
    </g>
   </g>
   <g id="matplotlib.axis_2">
    <g id="ytick_1">
     <g id="line2d_11">
      <path clip-path="url(#peb8d53bea5)" d="M 36.614646 104.929558 
L 429.165354 104.929558 
" style="fill:none;stroke:#000000;stroke-linecap:square;stroke-opacity:0.1;stroke-width:0.5;"/>
     </g>
     <g id="line2d_12">
      <defs>
       <path d="M 0 0 
L 3.5 0 
" id="m5eee56ca0b" style="stroke:#000000;stroke-width:0.8;"/>
      </defs>
      <g>
       <use style="stroke:#000000;stroke-width:0.8;" x="36.614646" xlink:href="#m5eee56ca0b" y="104.929558"/>
      </g>
     </g>
     <g id="text_6">
      <!-- -1.0 -->
      <defs>
       <path d="M 4.890625 31.390625 
L 31.203125 31.390625 
L 31.203125 23.390625 
L 4.890625 23.390625 
z
" id="DejaVuSans-45"/>
       <path d="M 10.6875 12.40625 
L 21 12.40625 
L 21 0 
L 10.6875 0 
z
" id="DejaVuSans-46"/>
      </defs>
      <g transform="translate(17.505896 107.968933)scale(0.08 -0.08)">
       <use xlink:href="#DejaVuSans-45"/>
       <use x="36.083984" xlink:href="#DejaVuSans-49"/>
       <use x="99.707031" xlink:href="#DejaVuSans-46"/>
       <use x="131.494141" xlink:href="#DejaVuSans-48"/>
      </g>
     </g>
    </g>
    <g id="ytick_2">
     <g id="line2d_13">
      <path clip-path="url(#peb8d53bea5)" d="M 36.614646 84.116926 
L 429.165354 84.116926 
" style="fill:none;stroke:#000000;stroke-linecap:square;stroke-opacity:0.1;stroke-width:0.5;"/>
     </g>
     <g id="line2d_14">
      <g>
       <use style="stroke:#000000;stroke-width:0.8;" x="36.614646" xlink:href="#m5eee56ca0b" y="84.116926"/>
      </g>
     </g>
     <g id="text_7">
      <!-- -0.5 -->
      <g transform="translate(17.505896 87.156301)scale(0.08 -0.08)">
       <use xlink:href="#DejaVuSans-45"/>
       <use x="36.083984" xlink:href="#DejaVuSans-48"/>
       <use x="99.707031" xlink:href="#DejaVuSans-46"/>
       <use x="131.494141" xlink:href="#DejaVuSans-53"/>
      </g>
     </g>
    </g>
    <g id="ytick_3">
     <g id="line2d_15">
      <path clip-path="url(#peb8d53bea5)" d="M 36.614646 63.304295 
L 429.165354 63.304295 
" style="fill:none;stroke:#000000;stroke-linecap:square;stroke-opacity:0.1;stroke-width:0.5;"/>
     </g>
     <g id="line2d_16">
      <g>
       <use style="stroke:#000000;stroke-width:0.8;" x="36.614646" xlink:href="#m5eee56ca0b" y="63.304295"/>
      </g>
     </g>
     <g id="text_8">
      <!-- 0.0 -->
      <g transform="translate(20.392146 66.34367)scale(0.08 -0.08)">
       <use xlink:href="#DejaVuSans-48"/>
       <use x="63.623047" xlink:href="#DejaVuSans-46"/>
       <use x="95.410156" xlink:href="#DejaVuSans-48"/>
      </g>
     </g>
    </g>
    <g id="ytick_4">
     <g id="line2d_17">
      <path clip-path="url(#peb8d53bea5)" d="M 36.614646 42.491663 
L 429.165354 42.491663 
" style="fill:none;stroke:#000000;stroke-linecap:square;stroke-opacity:0.1;stroke-width:0.5;"/>
     </g>
     <g id="line2d_18">
      <g>
       <use style="stroke:#000000;stroke-width:0.8;" x="36.614646" xlink:href="#m5eee56ca0b" y="42.491663"/>
      </g>
     </g>
     <g id="text_9">
      <!-- 0.5 -->
      <g transform="translate(20.392146 45.531038)scale(0.08 -0.08)">
       <use xlink:href="#DejaVuSans-48"/>
       <use x="63.623047" xlink:href="#DejaVuSans-46"/>
       <use x="95.410156" xlink:href="#DejaVuSans-53"/>
      </g>
     </g>
    </g>
    <g id="ytick_5">
     <g id="line2d_19">
      <path clip-path="url(#peb8d53bea5)" d="M 36.614646 21.679032 
L 429.165354 21.679032 
" style="fill:none;stroke:#000000;stroke-linecap:square;stroke-opacity:0.1;stroke-width:0.5;"/>
     </g>
     <g id="line2d_20">
      <g>
       <use style="stroke:#000000;stroke-width:0.8;" x="36.614646" xlink:href="#m5eee56ca0b" y="21.679032"/>
      </g>
     </g>
     <g id="text_10">
      <!-- 1.0 -->
      <g transform="translate(20.392146 24.718407)scale(0.08 -0.08)">
       <use xlink:href="#DejaVuSans-49"/>
       <use x="63.623047" xlink:href="#DejaVuSans-46"/>
       <use x="95.410156" xlink:href="#DejaVuSans-48"/>
      </g>
     </g>
    </g>
    <g id="text_11">
     <!-- Value -->
     <defs>
      <path d="M 28.609375 0 
L 0.78125 72.90625 
L 11.078125 72.90625 
L 34.1875 11.53125 
L 57.328125 72.90625 
L 67.578125 72.90625 
L 39.796875 0 
z
" id="DejaVuSans-86"/>
      <path d="M 34.28125 27.484375 
Q 23.390625 27.484375 19.1875 25 
Q 14.984375 22.515625 14.984375 16.5 
Q 14.984375 11.71875 18.140625 8.90625 
Q 21.296875 6.109375 26.703125 6.109375 
Q 34.1875 6.109375 38.703125 11.40625 
Q 43.21875 16.703125 43.21875 25.484375 
L 43.21875 27.484375 
z
M 52.203125 31.203125 
L 52.203125 0 
L 43.21875 0 
L 43.21875 8.296875 
Q 40.140625 3.328125 35.546875 0.953125 
Q 30.953125 -1.421875 24.3125 -1.421875 
Q 15.921875 -1.421875 10.953125 3.296875 
Q 6 8.015625 6 15.921875 
Q 6 25.140625 12.171875 29.828125 
Q 18.359375 34.515625 30.609375 34.515625 
L 43.21875 34.515625 
L 43.21875 35.40625 
Q 43.21875 41.609375 39.140625 45 
Q 35.0625 48.390625 27.6875 48.390625 
Q 23 48.390625 18.546875 47.265625 
Q 14.109375 46.140625 10.015625 43.890625 
L 10.015625 52.203125 
Q 14.9375 54.109375 19.578125 55.046875 
Q 24.21875 56 28.609375 56 
Q 40.484375 56 46.34375 49.84375 
Q 52.203125 43.703125 52.203125 31.203125 
z
" id="DejaVuSans-97"/>
      <path d="M 9.421875 75.984375 
L 18.40625 75.984375 
L 18.40625 0 
L 9.421875 0 
z
" id="DejaVuSans-108"/>
      <path d="M 8.5 21.578125 
L 8.5 54.6875 
L 17.484375 54.6875 
L 17.484375 21.921875 
Q 17.484375 14.15625 20.5 10.265625 
Q 23.53125 6.390625 29.59375 6.390625 
Q 36.859375 6.390625 41.078125 11.03125 
Q 45.3125 15.671875 45.3125 23.6875 
L 45.3125 54.6875 
L 54.296875 54.6875 
L 54.296875 0 
L 45.3125 0 
L 45.3125 8.40625 
Q 42.046875 3.421875 37.71875 1 
Q 33.40625 -1.421875 27.6875 -1.421875 
Q 18.265625 -1.421875 13.375 4.4375 
Q 8.5 10.296875 8.5 21.578125 
z
M 31.109375 56 
z
" id="DejaVuSans-117"/>
      <path d="M 56.203125 29.59375 
L 56.203125 25.203125 
L 14.890625 25.203125 
Q 15.484375 15.921875 20.484375 11.0625 
Q 25.484375 6.203125 34.421875 6.203125 
Q 39.59375 6.203125 44.453125 7.46875 
Q 49.3125 8.734375 54.109375 11.28125 
L 54.109375 2.78125 
Q 49.265625 0.734375 44.1875 -0.34375 
Q 39.109375 -1.421875 33.890625 -1.421875 
Q 20.796875 -1.421875 13.15625 6.1875 
Q 5.515625 13.8125 5.515625 26.8125 
Q 5.515625 40.234375 12.765625 48.109375 
Q 20.015625 56 32.328125 56 
Q 43.359375 56 49.78125 48.890625 
Q 56.203125 41.796875 56.203125 29.59375 
z
M 47.21875 32.234375 
Q 47.125 39.59375 43.09375 43.984375 
Q 39.0625 48.390625 32.421875 48.390625 
Q 24.90625 48.390625 20.390625 44.140625 
Q 15.875 39.890625 15.1875 32.171875 
z
" id="DejaVuSans-101"/>
     </defs>
     <g transform="translate(11.218239 78.474609)rotate(-90)scale(0.11 -0.11)">
      <use xlink:href="#DejaVuSans-86"/>
      <use x="68.298828" xlink:href="#DejaVuSans-97"/>
      <use x="129.578125" xlink:href="#DejaVuSans-108"/>
      <use x="157.361328" xlink:href="#DejaVuSans-117"/>
      <use x="220.740234" xlink:href="#DejaVuSans-101"/>
     </g>
    </g>
   </g>
   <g id="line2d_21">
    <path clip-path="url(#peb8d53bea5)" d="M 47.724571 25.326661 
L 49.58553 16.78122 
L 51.44649 31.273483 
L 53.307449 30.439324 
L 55.168408 31.430653 
L 57.029367 50.205749 
L 58.890326 46.900977 
L 60.751285 57.887052 
L 62.612244 78.842872 
L 64.473203 68.188283 
L 66.334162 94.834334 
L 68.195121 96.082225 
L 70.05608 107.791534 
L 71.917039 94.238694 
L 73.777999 103.213742 
L 75.638958 102.277512 
L 77.499917 97.074551 
L 79.360876 109.160371 
L 83.082794 82.261075 
L 84.943753 73.60616 
L 86.804712 52.421118 
L 88.665671 68.348842 
L 90.52663 53.691509 
L 92.387589 32.485425 
L 94.248548 40.80885 
L 96.109508 11.554017 
L 97.970467 40.020745 
L 99.831426 6.237402 
L 101.692385 27.016882 
L 103.553344 31.803095 
L 105.414303 31.486131 
L 109.136221 38.260207 
L 110.99718 48.842023 
L 112.858139 52.955468 
L 114.719098 59.54655 
L 116.580057 89.75776 
L 118.441016 83.17805 
L 120.301976 98.24687 
L 122.162935 84.277554 
L 124.023894 105.293185 
L 125.884853 98.266154 
L 127.745812 103.271924 
L 129.606771 106.143687 
L 131.46773 114.928221 
L 133.328689 85.686531 
L 135.189648 92.821847 
L 137.050607 73.666742 
L 140.772525 56.50421 
L 142.633485 60.074489 
L 144.494444 37.957436 
L 146.355403 35.329007 
L 148.216362 31.681534 
L 150.077321 26.95077 
L 151.93828 14.137622 
L 153.799239 37.246901 
L 155.660198 10.745897 
L 157.521157 38.310131 
L 159.382116 20.085527 
L 161.243075 50.364987 
L 163.104034 43.549949 
L 164.964994 43.153308 
L 166.825953 59.651648 
L 168.686912 81.587811 
L 170.547871 76.888202 
L 172.40883 102.797445 
L 174.269789 95.47705 
L 176.130748 84.560552 
L 177.991707 106.124353 
L 179.852666 119.662598 
L 181.713625 102.394841 
L 183.574584 94.705381 
L 185.435543 85.869743 
L 187.296503 106.871652 
L 189.157462 79.608736 
L 191.018421 66.738749 
L 192.87938 72.87387 
L 194.740339 56.271794 
L 196.601298 42.334464 
L 198.462257 43.449895 
L 200.323216 30.812966 
L 202.184175 30.340435 
L 204.045134 11.849362 
L 205.906093 19.646434 
L 207.767052 28.727795 
L 209.628011 15.586533 
L 211.488971 26.934547 
L 213.34993 45.478218 
L 215.210889 45.880443 
L 217.071848 55.12865 
L 218.932807 47.326834 
L 220.793766 76.281971 
L 222.654725 77.321403 
L 224.515684 82.626154 
L 226.376643 95.973901 
L 228.237602 87.633157 
L 230.098561 108.78842 
L 231.95952 110.812216 
L 233.82048 95.421274 
L 235.681439 114.757019 
L 237.542398 85.810379 
L 239.403357 93.519684 
L 241.264316 94.674492 
L 243.125275 81.69617 
L 244.986234 62.767882 
L 246.847193 59.057772 
L 248.708152 50.894945 
L 250.569111 33.499657 
L 252.43007 46.252787 
L 254.291029 25.29555 
L 256.151989 21.533855 
L 258.012948 24.294757 
L 259.873907 22.11815 
L 261.734866 23.938421 
L 263.595825 22.675457 
L 265.456784 41.163866 
L 267.317743 43.934208 
L 269.178702 37.600228 
L 271.039661 55.295639 
L 274.761579 74.183458 
L 276.622538 79.595692 
L 278.483497 88.277615 
L 280.344457 99.0695 
L 282.205416 98.954283 
L 284.066375 100.994125 
L 285.927334 110.63268 
L 287.788293 101.505375 
L 289.649252 110.589926 
L 291.510211 89.960924 
L 293.37117 82.384294 
L 295.232129 86.77525 
L 297.093088 78.456354 
L 298.954047 55.874373 
L 300.815006 56.654887 
L 302.675966 45.2165 
L 304.536925 32.497662 
L 306.397884 46.009586 
L 308.258843 22.509567 
L 310.119802 21.67912 
L 311.980761 23.653491 
L 313.84172 9.67593 
L 315.702679 39.912498 
L 317.563638 23.069198 
L 319.424597 41.397578 
L 321.285556 36.367454 
L 323.146515 61.161272 
L 325.007475 47.003545 
L 326.868434 70.528448 
L 328.729393 91.37966 
L 330.590352 71.696998 
L 332.451311 110.482739 
L 334.31227 83.953694 
L 336.173229 104.74522 
L 338.034188 119.139826 
L 339.895147 92.489506 
L 341.756106 104.917826 
L 343.617065 107.701028 
L 345.478024 78.475731 
L 347.338984 84.143158 
L 349.199943 91.718332 
L 351.060902 56.417351 
L 352.921861 53.982073 
L 354.78282 59.908847 
L 356.643779 27.754304 
L 358.504738 33.0737 
L 360.365697 28.646385 
L 362.226656 40.036793 
L 364.087615 9.765525 
L 365.948574 35.546271 
L 367.809533 9.20051 
L 371.531452 46.553162 
L 373.392411 30.629986 
L 375.25337 46.020503 
L 377.114329 54.613653 
L 378.975288 65.067894 
L 380.836247 84.930318 
L 382.697206 80.113936 
L 384.558165 86.818177 
L 386.419124 111.237473 
L 388.280083 84.67277 
L 390.141042 108.165623 
L 392.002001 115.052924 
L 393.862961 98.768936 
L 395.72392 97.765927 
L 397.584879 88.712335 
L 399.445838 98.04144 
L 401.306797 76.974777 
L 403.167756 77.375847 
L 405.028715 66.877786 
L 406.889674 41.160622 
L 408.750633 43.650001 
L 410.611592 48.620564 
L 412.472551 21.729904 
L 414.33351 26.102593 
L 416.19447 29.805088 
L 418.055429 17.648314 
L 418.055429 17.648314 
" style="fill:none;stroke:#000000;stroke-linecap:round;"/>
   </g>
   <g id="patch_3">
    <path d="M 36.614646 123.065354 
L 36.614646 2.834646 
" style="fill:none;stroke:#000000;stroke-linecap:square;stroke-linejoin:miter;"/>
   </g>
   <g id="patch_4">
    <path d="M 36.614646 123.065354 
L 429.165354 123.065354 
" style="fill:none;stroke:#000000;stroke-linecap:square;stroke-linejoin:miter;"/>
   </g>
   <g id="legend_1">
    <g id="patch_5">
     <path d="M 216.438125 20.977146 
L 249.341875 20.977146 
Q 250.941875 20.977146 250.941875 19.377146 
L 250.941875 8.434646 
Q 250.941875 6.834646 249.341875 6.834646 
L 216.438125 6.834646 
Q 214.838125 6.834646 214.838125 8.434646 
L 214.838125 19.377146 
Q 214.838125 20.977146 216.438125 20.977146 
z
" style="fill:#ffffff;stroke:#000000;stroke-linejoin:miter;"/>
    </g>
    <g id="line2d_22">
     <path d="M 218.038125 13.313396 
L 234.038125 13.313396 
" style="fill:none;stroke:#000000;stroke-linecap:square;"/>
    </g>
    <g id="line2d_23"/>
    <g id="text_12">
     <!-- ts -->
     <defs>
      <path d="M 18.3125 70.21875 
L 18.3125 54.6875 
L 36.8125 54.6875 
L 36.8125 47.703125 
L 18.3125 47.703125 
L 18.3125 18.015625 
Q 18.3125 11.328125 20.140625 9.421875 
Q 21.96875 7.515625 27.59375 7.515625 
L 36.8125 7.515625 
L 36.8125 0 
L 27.59375 0 
Q 17.1875 0 13.234375 3.875 
Q 9.28125 7.765625 9.28125 18.015625 
L 9.28125 47.703125 
L 2.6875 47.703125 
L 2.6875 54.6875 
L 9.28125 54.6875 
L 9.28125 70.21875 
z
" id="DejaVuSans-116"/>
      <path d="M 44.28125 53.078125 
L 44.28125 44.578125 
Q 40.484375 46.53125 36.375 47.5 
Q 32.28125 48.484375 27.875 48.484375 
Q 21.1875 48.484375 17.84375 46.4375 
Q 14.5 44.390625 14.5 40.28125 
Q 14.5 37.15625 16.890625 35.375 
Q 19.28125 33.59375 26.515625 31.984375 
L 29.59375 31.296875 
Q 39.15625 29.25 43.1875 25.515625 
Q 47.21875 21.78125 47.21875 15.09375 
Q 47.21875 7.46875 41.1875 3.015625 
Q 35.15625 -1.421875 24.609375 -1.421875 
Q 20.21875 -1.421875 15.453125 -0.5625 
Q 10.6875 0.296875 5.421875 2 
L 5.421875 11.28125 
Q 10.40625 8.6875 15.234375 7.390625 
Q 20.0625 6.109375 24.8125 6.109375 
Q 31.15625 6.109375 34.5625 8.28125 
Q 37.984375 10.453125 37.984375 14.40625 
Q 37.984375 18.0625 35.515625 20.015625 
Q 33.0625 21.96875 24.703125 23.78125 
L 21.578125 24.515625 
Q 13.234375 26.265625 9.515625 29.90625 
Q 5.8125 33.546875 5.8125 39.890625 
Q 5.8125 47.609375 11.28125 51.796875 
Q 16.75 56 26.8125 56 
Q 31.78125 56 36.171875 55.265625 
Q 40.578125 54.546875 44.28125 53.078125 
z
" id="DejaVuSans-115"/>
     </defs>
     <g transform="translate(240.438125 16.113396)scale(0.08 -0.08)">
      <use xlink:href="#DejaVuSans-116"/>
      <use x="39.208984" xlink:href="#DejaVuSans-115"/>
     </g>
    </g>
   </g>
  </g>
  <g id="axes_2">
   <g id="patch_6">
    <path d="M 36.614646 259.665354 
L 429.165354 259.665354 
L 429.165354 139.434646 
L 36.614646 139.434646 
z
" style="fill:#ffffff;"/>
   </g>
   <g id="matplotlib.axis_3">
    <g id="xtick_6">
     <g id="line2d_24">
      <path clip-path="url(#p9eba825133)" d="M 45.863612 259.665354 
L 45.863612 139.434646 
" style="fill:none;stroke:#000000;stroke-linecap:square;stroke-opacity:0.1;stroke-width:0.5;"/>
     </g>
     <g id="line2d_25">
      <g>
       <use style="stroke:#000000;stroke-width:0.8;" x="45.863612" xlink:href="#m9ca327d441" y="259.665354"/>
      </g>
     </g>
     <g id="text_13">
      <!-- 0 -->
      <g transform="translate(43.318612 269.244104)scale(0.08 -0.08)">
       <use xlink:href="#DejaVuSans-48"/>
      </g>
     </g>
    </g>
    <g id="xtick_7">
     <g id="line2d_26">
      <path clip-path="url(#p9eba825133)" d="M 138.911566 259.665354 
L 138.911566 139.434646 
" style="fill:none;stroke:#000000;stroke-linecap:square;stroke-opacity:0.1;stroke-width:0.5;"/>
     </g>
     <g id="line2d_27">
      <g>
       <use style="stroke:#000000;stroke-width:0.8;" x="138.911566" xlink:href="#m9ca327d441" y="259.665354"/>
      </g>
     </g>
     <g id="text_14">
      <!-- 50 -->
      <g transform="translate(133.821566 269.244104)scale(0.08 -0.08)">
       <use xlink:href="#DejaVuSans-53"/>
       <use x="63.623047" xlink:href="#DejaVuSans-48"/>
      </g>
     </g>
    </g>
    <g id="xtick_8">
     <g id="line2d_28">
      <path clip-path="url(#p9eba825133)" d="M 231.95952 259.665354 
L 231.95952 139.434646 
" style="fill:none;stroke:#000000;stroke-linecap:square;stroke-opacity:0.1;stroke-width:0.5;"/>
     </g>
     <g id="line2d_29">
      <g>
       <use style="stroke:#000000;stroke-width:0.8;" x="231.95952" xlink:href="#m9ca327d441" y="259.665354"/>
      </g>
     </g>
     <g id="text_15">
      <!-- 100 -->
      <g transform="translate(224.32452 269.244104)scale(0.08 -0.08)">
       <use xlink:href="#DejaVuSans-49"/>
       <use x="63.623047" xlink:href="#DejaVuSans-48"/>
       <use x="127.246094" xlink:href="#DejaVuSans-48"/>
      </g>
     </g>
    </g>
    <g id="xtick_9">
     <g id="line2d_30">
      <path clip-path="url(#p9eba825133)" d="M 325.007475 259.665354 
L 325.007475 139.434646 
" style="fill:none;stroke:#000000;stroke-linecap:square;stroke-opacity:0.1;stroke-width:0.5;"/>
     </g>
     <g id="line2d_31">
      <g>
       <use style="stroke:#000000;stroke-width:0.8;" x="325.007475" xlink:href="#m9ca327d441" y="259.665354"/>
      </g>
     </g>
     <g id="text_16">
      <!-- 150 -->
      <g transform="translate(317.372475 269.244104)scale(0.08 -0.08)">
       <use xlink:href="#DejaVuSans-49"/>
       <use x="63.623047" xlink:href="#DejaVuSans-53"/>
       <use x="127.246094" xlink:href="#DejaVuSans-48"/>
      </g>
     </g>
    </g>
    <g id="xtick_10">
     <g id="line2d_32">
      <path clip-path="url(#p9eba825133)" d="M 418.055429 259.665354 
L 418.055429 139.434646 
" style="fill:none;stroke:#000000;stroke-linecap:square;stroke-opacity:0.1;stroke-width:0.5;"/>
     </g>
     <g id="line2d_33">
      <g>
       <use style="stroke:#000000;stroke-width:0.8;" x="418.055429" xlink:href="#m9ca327d441" y="259.665354"/>
      </g>
     </g>
     <g id="text_17">
      <!-- 200 -->
      <g transform="translate(410.420429 269.244104)scale(0.08 -0.08)">
       <use xlink:href="#DejaVuSans-50"/>
       <use x="63.623047" xlink:href="#DejaVuSans-48"/>
       <use x="127.246094" xlink:href="#DejaVuSans-48"/>
      </g>
     </g>
    </g>
    <g id="text_18">
     <!-- Time step -->
     <defs>
      <path d="M -0.296875 72.90625 
L 61.375 72.90625 
L 61.375 64.59375 
L 35.5 64.59375 
L 35.5 0 
L 25.59375 0 
L 25.59375 64.59375 
L -0.296875 64.59375 
z
" id="DejaVuSans-84"/>
      <path d="M 9.421875 54.6875 
L 18.40625 54.6875 
L 18.40625 0 
L 9.421875 0 
z
M 9.421875 75.984375 
L 18.40625 75.984375 
L 18.40625 64.59375 
L 9.421875 64.59375 
z
" id="DejaVuSans-105"/>
      <path d="M 52 44.1875 
Q 55.375 50.25 60.0625 53.125 
Q 64.75 56 71.09375 56 
Q 79.640625 56 84.28125 50.015625 
Q 88.921875 44.046875 88.921875 33.015625 
L 88.921875 0 
L 79.890625 0 
L 79.890625 32.71875 
Q 79.890625 40.578125 77.09375 44.375 
Q 74.3125 48.1875 68.609375 48.1875 
Q 61.625 48.1875 57.5625 43.546875 
Q 53.515625 38.921875 53.515625 30.90625 
L 53.515625 0 
L 44.484375 0 
L 44.484375 32.71875 
Q 44.484375 40.625 41.703125 44.40625 
Q 38.921875 48.1875 33.109375 48.1875 
Q 26.21875 48.1875 22.15625 43.53125 
Q 18.109375 38.875 18.109375 30.90625 
L 18.109375 0 
L 9.078125 0 
L 9.078125 54.6875 
L 18.109375 54.6875 
L 18.109375 46.1875 
Q 21.1875 51.21875 25.484375 53.609375 
Q 29.78125 56 35.6875 56 
Q 41.65625 56 45.828125 52.96875 
Q 50 49.953125 52 44.1875 
z
" id="DejaVuSans-109"/>
      <path id="DejaVuSans-32"/>
      <path d="M 18.109375 8.203125 
L 18.109375 -20.796875 
L 9.078125 -20.796875 
L 9.078125 54.6875 
L 18.109375 54.6875 
L 18.109375 46.390625 
Q 20.953125 51.265625 25.265625 53.625 
Q 29.59375 56 35.59375 56 
Q 45.5625 56 51.78125 48.09375 
Q 58.015625 40.1875 58.015625 27.296875 
Q 58.015625 14.40625 51.78125 6.484375 
Q 45.5625 -1.421875 35.59375 -1.421875 
Q 29.59375 -1.421875 25.265625 0.953125 
Q 20.953125 3.328125 18.109375 8.203125 
z
M 48.6875 27.296875 
Q 48.6875 37.203125 44.609375 42.84375 
Q 40.53125 48.484375 33.40625 48.484375 
Q 26.265625 48.484375 22.1875 42.84375 
Q 18.109375 37.203125 18.109375 27.296875 
Q 18.109375 17.390625 22.1875 11.75 
Q 26.265625 6.109375 33.40625 6.109375 
Q 40.53125 6.109375 44.609375 11.75 
Q 48.6875 17.390625 48.6875 27.296875 
z
" id="DejaVuSans-112"/>
     </defs>
     <g transform="translate(205.618594 283.266136)scale(0.11 -0.11)">
      <use xlink:href="#DejaVuSans-84"/>
      <use x="61.037109" xlink:href="#DejaVuSans-105"/>
      <use x="88.820312" xlink:href="#DejaVuSans-109"/>
      <use x="186.232422" xlink:href="#DejaVuSans-101"/>
      <use x="247.755859" xlink:href="#DejaVuSans-32"/>
      <use x="279.542969" xlink:href="#DejaVuSans-115"/>
      <use x="331.642578" xlink:href="#DejaVuSans-116"/>
      <use x="370.851562" xlink:href="#DejaVuSans-101"/>
      <use x="432.375" xlink:href="#DejaVuSans-112"/>
     </g>
    </g>
   </g>
   <g id="matplotlib.axis_4">
    <g id="ytick_6">
     <g id="line2d_34">
      <path clip-path="url(#p9eba825133)" d="M 36.614646 241.529558 
L 429.165354 241.529558 
" style="fill:none;stroke:#000000;stroke-linecap:square;stroke-opacity:0.1;stroke-width:0.5;"/>
     </g>
     <g id="line2d_35">
      <g>
       <use style="stroke:#000000;stroke-width:0.8;" x="36.614646" xlink:href="#m5eee56ca0b" y="241.529558"/>
      </g>
     </g>
     <g id="text_19">
      <!-- -1.0 -->
      <g transform="translate(17.505896 244.568933)scale(0.08 -0.08)">
       <use xlink:href="#DejaVuSans-45"/>
       <use x="36.083984" xlink:href="#DejaVuSans-49"/>
       <use x="99.707031" xlink:href="#DejaVuSans-46"/>
       <use x="131.494141" xlink:href="#DejaVuSans-48"/>
      </g>
     </g>
    </g>
    <g id="ytick_7">
     <g id="line2d_36">
      <path clip-path="url(#p9eba825133)" d="M 36.614646 220.716926 
L 429.165354 220.716926 
" style="fill:none;stroke:#000000;stroke-linecap:square;stroke-opacity:0.1;stroke-width:0.5;"/>
     </g>
     <g id="line2d_37">
      <g>
       <use style="stroke:#000000;stroke-width:0.8;" x="36.614646" xlink:href="#m5eee56ca0b" y="220.716926"/>
      </g>
     </g>
     <g id="text_20">
      <!-- -0.5 -->
      <g transform="translate(17.505896 223.756301)scale(0.08 -0.08)">
       <use xlink:href="#DejaVuSans-45"/>
       <use x="36.083984" xlink:href="#DejaVuSans-48"/>
       <use x="99.707031" xlink:href="#DejaVuSans-46"/>
       <use x="131.494141" xlink:href="#DejaVuSans-53"/>
      </g>
     </g>
    </g>
    <g id="ytick_8">
     <g id="line2d_38">
      <path clip-path="url(#p9eba825133)" d="M 36.614646 199.904295 
L 429.165354 199.904295 
" style="fill:none;stroke:#000000;stroke-linecap:square;stroke-opacity:0.1;stroke-width:0.5;"/>
     </g>
     <g id="line2d_39">
      <g>
       <use style="stroke:#000000;stroke-width:0.8;" x="36.614646" xlink:href="#m5eee56ca0b" y="199.904295"/>
      </g>
     </g>
     <g id="text_21">
      <!-- 0.0 -->
      <g transform="translate(20.392146 202.94367)scale(0.08 -0.08)">
       <use xlink:href="#DejaVuSans-48"/>
       <use x="63.623047" xlink:href="#DejaVuSans-46"/>
       <use x="95.410156" xlink:href="#DejaVuSans-48"/>
      </g>
     </g>
    </g>
    <g id="ytick_9">
     <g id="line2d_40">
      <path clip-path="url(#p9eba825133)" d="M 36.614646 179.091663 
L 429.165354 179.091663 
" style="fill:none;stroke:#000000;stroke-linecap:square;stroke-opacity:0.1;stroke-width:0.5;"/>
     </g>
     <g id="line2d_41">
      <g>
       <use style="stroke:#000000;stroke-width:0.8;" x="36.614646" xlink:href="#m5eee56ca0b" y="179.091663"/>
      </g>
     </g>
     <g id="text_22">
      <!-- 0.5 -->
      <g transform="translate(20.392146 182.131038)scale(0.08 -0.08)">
       <use xlink:href="#DejaVuSans-48"/>
       <use x="63.623047" xlink:href="#DejaVuSans-46"/>
       <use x="95.410156" xlink:href="#DejaVuSans-53"/>
      </g>
     </g>
    </g>
    <g id="ytick_10">
     <g id="line2d_42">
      <path clip-path="url(#p9eba825133)" d="M 36.614646 158.279032 
L 429.165354 158.279032 
" style="fill:none;stroke:#000000;stroke-linecap:square;stroke-opacity:0.1;stroke-width:0.5;"/>
     </g>
     <g id="line2d_43">
      <g>
       <use style="stroke:#000000;stroke-width:0.8;" x="36.614646" xlink:href="#m5eee56ca0b" y="158.279032"/>
      </g>
     </g>
     <g id="text_23">
      <!-- 1.0 -->
      <g transform="translate(20.392146 161.318407)scale(0.08 -0.08)">
       <use xlink:href="#DejaVuSans-49"/>
       <use x="63.623047" xlink:href="#DejaVuSans-46"/>
       <use x="95.410156" xlink:href="#DejaVuSans-48"/>
      </g>
     </g>
    </g>
    <g id="text_24">
     <!-- Value -->
     <g transform="translate(11.218239 215.074609)rotate(-90)scale(0.11 -0.11)">
      <use xlink:href="#DejaVuSans-86"/>
      <use x="68.298828" xlink:href="#DejaVuSans-97"/>
      <use x="129.578125" xlink:href="#DejaVuSans-108"/>
      <use x="157.361328" xlink:href="#DejaVuSans-117"/>
      <use x="220.740234" xlink:href="#DejaVuSans-101"/>
     </g>
    </g>
   </g>
   <g id="line2d_44">
    <path clip-path="url(#p9eba825133)" d="M 47.724571 213.574777 
L 49.58553 228.318332 
L 51.44649 224.233157 
L 53.307449 238.877512 
L 55.168408 241.517826 
L 57.029367 235.6695 
L 58.890326 251.652924 
L 60.751285 235.554283 
L 62.612244 220.553694 
L 64.473203 241.34522 
L 66.334162 218.187811 
L 68.195121 220.743158 
L 70.05608 190.291509 
L 71.917039 191.213653 
L 73.777999 191.895639 
L 75.638958 182.620503 
L 77.499917 174.557436 
L 79.360876 167.412966 
L 81.221835 153.38122 
L 83.082794 167.039324 
L 84.943753 158.329904 
L 86.804712 172.967454 
L 88.665671 160.538421 
L 90.52663 167.229986 
L 92.387589 166.940435 
L 94.248548 189.021118 
L 96.109508 185.442023 
L 97.970467 213.975847 
L 99.831426 196.674489 
L 101.692385 218.861075 
L 103.553344 216.208736 
L 105.414303 239.813742 
L 107.275262 229.421847 
L 109.136221 234.866154 
L 110.99718 256.262598 
L 112.858139 219.226154 
L 114.719098 247.23268 
L 116.580057 216.713936 
L 118.441016 231.274492 
L 120.301976 227.97966 
L 122.162935 199.367882 
L 124.023894 203.477786 
L 125.884853 187.494945 
L 127.745812 182.852787 
L 129.606771 168.281534 
L 131.46773 177.997578 
L 133.328689 165.327795 
L 135.189648 159.669198 
L 137.050607 177.40885 
L 138.911566 147.345897 
L 140.772525 166.405088 
L 142.633485 167.873483 
L 144.494444 169.6737 
L 146.355403 180.149949 
L 148.216362 194.487052 
L 150.077321 196.14655 
L 151.93828 204.948842 
L 153.799239 215.442872 
L 155.660198 210.266742 
L 157.521157 232.07705 
L 159.382116 242.724353 
L 161.243075 221.160552 
L 163.104034 241.893185 
L 164.964994 237.594125 
L 166.825953 220.877554 
L 168.686912 235.368936 
L 170.547871 238.994841 
L 172.40883 213.488202 
L 174.269789 230.119684 
L 176.130748 192.474373 
L 177.991707 193.254887 
L 179.852666 179.753308 
L 181.713625 180.534208 
L 183.574584 177.760622 
L 185.435543 164.392664 
L 187.296503 158.133855 
L 189.157462 170.099657 
L 191.018421 154.248314 
L 192.87938 142.837402 
L 194.740339 176.620745 
L 196.601298 168.086131 
L 198.462257 158.27912 
L 200.323216 195.657772 
L 202.184175 189.555468 
L 204.045134 197.761272 
L 205.906093 201.667894 
L 207.767052 221.530318 
L 209.628011 222.469743 
L 211.488971 222.286531 
L 213.34993 247.412216 
L 215.210889 247.082739 
L 217.071848 238.105375 
L 218.932807 251.528221 
L 220.793766 225.312335 
L 222.654725 247.189926 
L 224.515684 232.021274 
L 226.376643 223.418177 
L 228.237602 216.195692 
L 231.95952 186.805749 
L 233.82048 193.017351 
L 235.681439 161.89555 
L 237.542398 182.609586 
L 239.403357 163.55077 
L 241.264316 156.246434 
L 243.125275 160.253491 
L 244.986234 163.534547 
L 246.847193 152.186533 
L 248.708152 161.926661 
L 250.569111 160.894757 
L 252.43007 180.049895 
L 254.291029 174.910131 
L 256.151989 209.47387 
L 258.012948 190.582073 
L 259.873907 213.921403 
L 261.734866 232.573901 
L 263.595825 226.35776 
L 265.456784 244.301028 
L 267.317743 244.765623 
L 269.178702 247.837473 
L 271.039661 245.760371 
L 272.90062 233.674551 
L 274.761579 243.471652 
L 276.622538 223.37525 
L 278.483497 231.434334 
L 280.344457 221.27277 
L 282.205416 204.788283 
L 284.066375 192.871794 
L 285.927334 207.128448 
L 289.649252 159.275457 
L 291.510211 163.616882 
L 293.37117 169.085425 
L 295.232129 156.685527 
L 297.093088 159.109567 
L 298.954047 148.154017 
L 300.815006 148.449362 
L 302.675966 172.146271 
L 304.536925 168.403095 
L 306.397884 182.480443 
L 308.258843 191.72865 
L 310.119802 183.500977 
L 311.980761 215.075731 
L 313.84172 215.056354 
L 315.702679 218.29617 
L 317.563638 231.956202 
L 319.424597 244.391534 
L 321.285556 234.84687 
L 323.146515 255.739826 
L 325.007475 234.365927 
L 326.868434 231.305381 
L 328.729393 251.357019 
L 330.590352 224.877615 
L 332.451311 218.984294 
L 334.31227 210.20616 
L 336.173229 208.296998 
L 339.895147 185.220564 
L 341.756106 178.934464 
L 343.617065 176.636793 
L 345.478024 171.54061 
L 347.338984 145.80051 
L 349.199943 173.846901 
L 351.060902 165.246385 
L 352.921861 146.365525 
L 354.78282 162.702593 
L 356.643779 183.153162 
L 358.504738 174.860207 
L 360.365697 180.250001 
L 362.226656 181.8165 
L 364.087615 210.783458 
L 365.948574 193.10421 
L 367.809533 234.64144 
L 369.670492 230.838694 
L 371.531452 229.089506 
L 373.392411 242.743687 
L 375.25337 232.682225 
L 377.114329 239.871924 
L 378.975288 245.38842 
L 380.836247 222.410379 
L 382.697206 239.397445 
L 384.558165 219.77805 
L 386.419124 226.560924 
L 388.280083 201.560994 
L 390.141042 196.251648 
L 392.002001 182.078218 
L 393.862961 183.926834 
L 395.72392 177.763866 
L 397.584879 176.512498 
L 399.445838 158.71815 
L 401.306797 146.27593 
L 403.167756 168.030653 
L 405.028715 150.737622 
L 406.889674 169.097662 
L 408.750633 164.354304 
L 410.611592 171.929007 
L 412.472551 186.964987 
L 414.33351 174.200228 
L 416.19447 203.338749 
L 418.055429 212.881971 
L 418.055429 212.881971 
" style="fill:none;stroke:#009afa;stroke-linecap:round;"/>
   </g>
   <g id="patch_7">
    <path d="M 36.614646 259.665354 
L 36.614646 139.434646 
" style="fill:none;stroke:#000000;stroke-linecap:square;stroke-linejoin:miter;"/>
   </g>
   <g id="patch_8">
    <path d="M 36.614646 259.665354 
L 429.165354 259.665354 
" style="fill:none;stroke:#000000;stroke-linecap:square;stroke-linejoin:miter;"/>
   </g>
   <g id="legend_2">
    <g id="patch_9">
     <path d="M 42.214646 157.577146 
L 99.339646 157.577146 
Q 100.939646 157.577146 100.939646 155.977146 
L 100.939646 145.034646 
Q 100.939646 143.434646 99.339646 143.434646 
L 42.214646 143.434646 
Q 40.614646 143.434646 40.614646 145.034646 
L 40.614646 155.977146 
Q 40.614646 157.577146 42.214646 157.577146 
z
" style="fill:#ffffff;stroke:#000000;stroke-linejoin:miter;"/>
    </g>
    <g id="line2d_45">
     <path d="M 43.814646 149.913396 
L 59.814646 149.913396 
" style="fill:none;stroke:#009afa;stroke-linecap:square;"/>
    </g>
    <g id="line2d_46"/>
    <g id="text_25">
     <!-- iaaft(ts) -->
     <defs>
      <path d="M 37.109375 75.984375 
L 37.109375 68.5 
L 28.515625 68.5 
Q 23.6875 68.5 21.796875 66.546875 
Q 19.921875 64.59375 19.921875 59.515625 
L 19.921875 54.6875 
L 34.71875 54.6875 
L 34.71875 47.703125 
L 19.921875 47.703125 
L 19.921875 0 
L 10.890625 0 
L 10.890625 47.703125 
L 2.296875 47.703125 
L 2.296875 54.6875 
L 10.890625 54.6875 
L 10.890625 58.5 
Q 10.890625 67.625 15.140625 71.796875 
Q 19.390625 75.984375 28.609375 75.984375 
z
" id="DejaVuSans-102"/>
      <path d="M 31 75.875 
Q 24.46875 64.65625 21.28125 53.65625 
Q 18.109375 42.671875 18.109375 31.390625 
Q 18.109375 20.125 21.3125 9.0625 
Q 24.515625 -2 31 -13.1875 
L 23.1875 -13.1875 
Q 15.875 -1.703125 12.234375 9.375 
Q 8.59375 20.453125 8.59375 31.390625 
Q 8.59375 42.28125 12.203125 53.3125 
Q 15.828125 64.359375 23.1875 75.875 
z
" id="DejaVuSans-40"/>
      <path d="M 8.015625 75.875 
L 15.828125 75.875 
Q 23.140625 64.359375 26.78125 53.3125 
Q 30.421875 42.28125 30.421875 31.390625 
Q 30.421875 20.453125 26.78125 9.375 
Q 23.140625 -1.703125 15.828125 -13.1875 
L 8.015625 -13.1875 
Q 14.5 -2 17.703125 9.0625 
Q 20.90625 20.125 20.90625 31.390625 
Q 20.90625 42.671875 17.703125 53.65625 
Q 14.5 64.65625 8.015625 75.875 
z
" id="DejaVuSans-41"/>
     </defs>
     <g transform="translate(66.214646 152.713396)scale(0.08 -0.08)">
      <use xlink:href="#DejaVuSans-105"/>
      <use x="27.783203" xlink:href="#DejaVuSans-97"/>
      <use x="89.0625" xlink:href="#DejaVuSans-97"/>
      <use x="150.341797" xlink:href="#DejaVuSans-102"/>
      <use x="185.53125" xlink:href="#DejaVuSans-116"/>
      <use x="224.740234" xlink:href="#DejaVuSans-40"/>
      <use x="263.753906" xlink:href="#DejaVuSans-116"/>
      <use x="302.962891" xlink:href="#DejaVuSans-115"/>
      <use x="355.0625" xlink:href="#DejaVuSans-41"/>
     </g>
    </g>
   </g>
  </g>
 </g>
 <defs>
  <clipPath id="peb8d53bea5">
   <rect height="120.230709" width="392.550709" x="36.614646" y="2.834646"/>
  </clipPath>
  <clipPath id="p9eba825133">
   <rect height="120.230709" width="392.550709" x="36.614646" y="139.434646"/>
  </clipPath>
 </defs>
</svg>
