<?xml version="1.0" encoding="utf-8"?>
<svg xmlns="http://www.w3.org/2000/svg" xmlns:xlink="http://www.w3.org/1999/xlink" width="600" height="400" viewBox="0 0 2400 1600">
<defs>
  <clipPath id="clip530">
    <rect x="0" y="0" width="2400" height="1600"/>
  </clipPath>
</defs>
<path clip-path="url(#clip530)" d="
M0 1600 L2400 1600 L2400 0 L0 0  Z
  " fill="#ffffff" fill-rule="evenodd" fill-opacity="1"/>
<defs>
  <clipPath id="clip531">
    <rect x="480" y="0" width="1681" height="1600"/>
  </clipPath>
</defs>
<path clip-path="url(#clip530)" d="
M219.866 1423.18 L2352.76 1423.18 L2352.76 47.2441 L219.866 47.2441  Z
  " fill="#ffffff" fill-rule="evenodd" fill-opacity="1"/>
<defs>
  <clipPath id="clip532">
    <rect x="219" y="47" width="2134" height="1377"/>
  </clipPath>
</defs>
<polyline clip-path="url(#clip532)" style="stroke:#000000; stroke-linecap:butt; stroke-linejoin:round; stroke-width:2; stroke-opacity:0.1; fill:none" points="
  270.12,1423.18 270.12,47.2441 
  "/>
<polyline clip-path="url(#clip532)" style="stroke:#000000; stroke-linecap:butt; stroke-linejoin:round; stroke-width:2; stroke-opacity:0.1; fill:none" points="
  775.688,1423.18 775.688,47.2441 
  "/>
<polyline clip-path="url(#clip532)" style="stroke:#000000; stroke-linecap:butt; stroke-linejoin:round; stroke-width:2; stroke-opacity:0.1; fill:none" points="
  1281.26,1423.18 1281.26,47.2441 
  "/>
<polyline clip-path="url(#clip532)" style="stroke:#000000; stroke-linecap:butt; stroke-linejoin:round; stroke-width:2; stroke-opacity:0.1; fill:none" points="
  1786.82,1423.18 1786.82,47.2441 
  "/>
<polyline clip-path="url(#clip532)" style="stroke:#000000; stroke-linecap:butt; stroke-linejoin:round; stroke-width:2; stroke-opacity:0.1; fill:none" points="
  2292.39,1423.18 2292.39,47.2441 
  "/>
<polyline clip-path="url(#clip530)" style="stroke:#000000; stroke-linecap:butt; stroke-linejoin:round; stroke-width:4; stroke-opacity:1; fill:none" points="
  219.866,1423.18 2352.76,1423.18 
  "/>
<polyline clip-path="url(#clip530)" style="stroke:#000000; stroke-linecap:butt; stroke-linejoin:round; stroke-width:4; stroke-opacity:1; fill:none" points="
  270.12,1423.18 270.12,1404.28 
  "/>
<polyline clip-path="url(#clip530)" style="stroke:#000000; stroke-linecap:butt; stroke-linejoin:round; stroke-width:4; stroke-opacity:1; fill:none" points="
  775.688,1423.18 775.688,1404.28 
  "/>
<polyline clip-path="url(#clip530)" style="stroke:#000000; stroke-linecap:butt; stroke-linejoin:round; stroke-width:4; stroke-opacity:1; fill:none" points="
  1281.26,1423.18 1281.26,1404.28 
  "/>
<polyline clip-path="url(#clip530)" style="stroke:#000000; stroke-linecap:butt; stroke-linejoin:round; stroke-width:4; stroke-opacity:1; fill:none" points="
  1786.82,1423.18 1786.82,1404.28 
  "/>
<polyline clip-path="url(#clip530)" style="stroke:#000000; stroke-linecap:butt; stroke-linejoin:round; stroke-width:4; stroke-opacity:1; fill:none" points="
  2292.39,1423.18 2292.39,1404.28 
  "/>
<path clip-path="url(#clip530)" d="M270.12 1454.1 Q266.509 1454.1 264.68 1457.66 Q262.874 1461.2 262.874 1468.33 Q262.874 1475.44 264.68 1479.01 Q266.509 1482.55 270.12 1482.55 Q273.754 1482.55 275.559 1479.01 Q277.388 1475.44 277.388 1468.33 Q277.388 1461.2 275.559 1457.66 Q273.754 1454.1 270.12 1454.1 M270.12 1450.39 Q275.93 1450.39 278.985 1455 Q282.064 1459.58 282.064 1468.33 Q282.064 1477.06 278.985 1481.67 Q275.93 1486.25 270.12 1486.25 Q264.31 1486.25 261.231 1481.67 Q258.175 1477.06 258.175 1468.33 Q258.175 1459.58 261.231 1455 Q264.31 1450.39 270.12 1450.39 Z" fill="#000000" fill-rule="evenodd" fill-opacity="1" /><path clip-path="url(#clip530)" d="M750.387 1451.02 L768.743 1451.02 L768.743 1454.96 L754.669 1454.96 L754.669 1463.43 Q755.688 1463.08 756.706 1462.92 Q757.725 1462.73 758.743 1462.73 Q764.53 1462.73 767.91 1465.9 Q771.289 1469.08 771.289 1474.49 Q771.289 1480.07 767.817 1483.17 Q764.345 1486.25 758.026 1486.25 Q755.85 1486.25 753.581 1485.88 Q751.336 1485.51 748.928 1484.77 L748.928 1480.07 Q751.012 1481.2 753.234 1481.76 Q755.456 1482.32 757.933 1482.32 Q761.938 1482.32 764.276 1480.21 Q766.614 1478.1 766.614 1474.49 Q766.614 1470.88 764.276 1468.77 Q761.938 1466.67 757.933 1466.67 Q756.058 1466.67 754.183 1467.08 Q752.331 1467.5 750.387 1468.38 L750.387 1451.02 Z" fill="#000000" fill-rule="evenodd" fill-opacity="1" /><path clip-path="url(#clip530)" d="M790.502 1454.1 Q786.891 1454.1 785.063 1457.66 Q783.257 1461.2 783.257 1468.33 Q783.257 1475.44 785.063 1479.01 Q786.891 1482.55 790.502 1482.55 Q794.137 1482.55 795.942 1479.01 Q797.771 1475.44 797.771 1468.33 Q797.771 1461.2 795.942 1457.66 Q794.137 1454.1 790.502 1454.1 M790.502 1450.39 Q796.312 1450.39 799.368 1455 Q802.447 1459.58 802.447 1468.33 Q802.447 1477.06 799.368 1481.67 Q796.312 1486.25 790.502 1486.25 Q784.692 1486.25 781.613 1481.67 Q778.558 1477.06 778.558 1468.33 Q778.558 1459.58 781.613 1455 Q784.692 1450.39 790.502 1450.39 Z" fill="#000000" fill-rule="evenodd" fill-opacity="1" /><path clip-path="url(#clip530)" d="M1240.86 1481.64 L1248.5 1481.64 L1248.5 1455.28 L1240.19 1456.95 L1240.19 1452.69 L1248.45 1451.02 L1253.13 1451.02 L1253.13 1481.64 L1260.77 1481.64 L1260.77 1485.58 L1240.86 1485.58 L1240.86 1481.64 Z" fill="#000000" fill-rule="evenodd" fill-opacity="1" /><path clip-path="url(#clip530)" d="M1280.21 1454.1 Q1276.6 1454.1 1274.77 1457.66 Q1272.97 1461.2 1272.97 1468.33 Q1272.97 1475.44 1274.77 1479.01 Q1276.6 1482.55 1280.21 1482.55 Q1283.85 1482.55 1285.65 1479.01 Q1287.48 1475.44 1287.48 1468.33 Q1287.48 1461.2 1285.65 1457.66 Q1283.85 1454.1 1280.21 1454.1 M1280.21 1450.39 Q1286.02 1450.39 1289.08 1455 Q1292.16 1459.58 1292.16 1468.33 Q1292.16 1477.06 1289.08 1481.67 Q1286.02 1486.25 1280.21 1486.25 Q1274.4 1486.25 1271.32 1481.67 Q1268.27 1477.06 1268.27 1468.33 Q1268.27 1459.58 1271.32 1455 Q1274.4 1450.39 1280.21 1450.39 Z" fill="#000000" fill-rule="evenodd" fill-opacity="1" /><path clip-path="url(#clip530)" d="M1310.38 1454.1 Q1306.76 1454.1 1304.94 1457.66 Q1303.13 1461.2 1303.13 1468.33 Q1303.13 1475.44 1304.94 1479.01 Q1306.76 1482.55 1310.38 1482.55 Q1314.01 1482.55 1315.82 1479.01 Q1317.64 1475.44 1317.64 1468.33 Q1317.64 1461.2 1315.82 1457.66 Q1314.01 1454.1 1310.38 1454.1 M1310.38 1450.39 Q1316.19 1450.39 1319.24 1455 Q1322.32 1459.58 1322.32 1468.33 Q1322.32 1477.06 1319.24 1481.67 Q1316.19 1486.25 1310.38 1486.25 Q1304.57 1486.25 1301.49 1481.67 Q1298.43 1477.06 1298.43 1468.33 Q1298.43 1459.58 1301.49 1455 Q1304.57 1450.39 1310.38 1450.39 Z" fill="#000000" fill-rule="evenodd" fill-opacity="1" /><path clip-path="url(#clip530)" d="M1746.43 1481.64 L1754.07 1481.64 L1754.07 1455.28 L1745.76 1456.95 L1745.76 1452.69 L1754.02 1451.02 L1758.7 1451.02 L1758.7 1481.64 L1766.34 1481.64 L1766.34 1485.58 L1746.43 1485.58 L1746.43 1481.64 Z" fill="#000000" fill-rule="evenodd" fill-opacity="1" /><path clip-path="url(#clip530)" d="M1775.83 1451.02 L1794.18 1451.02 L1794.18 1454.96 L1780.11 1454.96 L1780.11 1463.43 Q1781.13 1463.08 1782.15 1462.92 Q1783.17 1462.73 1784.18 1462.73 Q1789.97 1462.73 1793.35 1465.9 Q1796.73 1469.08 1796.73 1474.49 Q1796.73 1480.07 1793.26 1483.17 Q1789.79 1486.25 1783.47 1486.25 Q1781.29 1486.25 1779.02 1485.88 Q1776.78 1485.51 1774.37 1484.77 L1774.37 1480.07 Q1776.45 1481.2 1778.68 1481.76 Q1780.9 1482.32 1783.37 1482.32 Q1787.38 1482.32 1789.72 1480.21 Q1792.05 1478.1 1792.05 1474.49 Q1792.05 1470.88 1789.72 1468.77 Q1787.38 1466.67 1783.37 1466.67 Q1781.5 1466.67 1779.62 1467.08 Q1777.77 1467.5 1775.83 1468.38 L1775.83 1451.02 Z" fill="#000000" fill-rule="evenodd" fill-opacity="1" /><path clip-path="url(#clip530)" d="M1815.94 1454.1 Q1812.33 1454.1 1810.5 1457.66 Q1808.7 1461.2 1808.7 1468.33 Q1808.7 1475.44 1810.5 1479.01 Q1812.33 1482.55 1815.94 1482.55 Q1819.58 1482.55 1821.38 1479.01 Q1823.21 1475.44 1823.21 1468.33 Q1823.21 1461.2 1821.38 1457.66 Q1819.58 1454.1 1815.94 1454.1 M1815.94 1450.39 Q1821.75 1450.39 1824.81 1455 Q1827.89 1459.58 1827.89 1468.33 Q1827.89 1477.06 1824.81 1481.67 Q1821.75 1486.25 1815.94 1486.25 Q1810.13 1486.25 1807.05 1481.67 Q1804 1477.06 1804 1468.33 Q1804 1459.58 1807.05 1455 Q1810.13 1450.39 1815.94 1450.39 Z" fill="#000000" fill-rule="evenodd" fill-opacity="1" /><path clip-path="url(#clip530)" d="M2256.08 1481.64 L2272.4 1481.64 L2272.4 1485.58 L2250.46 1485.58 L2250.46 1481.64 Q2253.12 1478.89 2257.7 1474.26 Q2262.31 1469.61 2263.49 1468.27 Q2265.74 1465.74 2266.62 1464.01 Q2267.52 1462.25 2267.52 1460.56 Q2267.52 1457.8 2265.57 1456.07 Q2263.65 1454.33 2260.55 1454.33 Q2258.35 1454.33 2255.9 1455.09 Q2253.47 1455.86 2250.69 1457.41 L2250.69 1452.69 Q2253.51 1451.55 2255.97 1450.97 Q2258.42 1450.39 2260.46 1450.39 Q2265.83 1450.39 2269.02 1453.08 Q2272.22 1455.77 2272.22 1460.26 Q2272.22 1462.39 2271.41 1464.31 Q2270.62 1466.2 2268.51 1468.8 Q2267.94 1469.47 2264.83 1472.69 Q2261.73 1475.88 2256.08 1481.64 Z" fill="#000000" fill-rule="evenodd" fill-opacity="1" /><path clip-path="url(#clip530)" d="M2292.22 1454.1 Q2288.61 1454.1 2286.78 1457.66 Q2284.97 1461.2 2284.97 1468.33 Q2284.97 1475.44 2286.78 1479.01 Q2288.61 1482.55 2292.22 1482.55 Q2295.85 1482.55 2297.66 1479.01 Q2299.49 1475.44 2299.49 1468.33 Q2299.49 1461.2 2297.66 1457.66 Q2295.85 1454.1 2292.22 1454.1 M2292.22 1450.39 Q2298.03 1450.39 2301.08 1455 Q2304.16 1459.58 2304.16 1468.33 Q2304.16 1477.06 2301.08 1481.67 Q2298.03 1486.25 2292.22 1486.25 Q2286.41 1486.25 2283.33 1481.67 Q2280.27 1477.06 2280.27 1468.33 Q2280.27 1459.58 2283.33 1455 Q2286.41 1450.39 2292.22 1450.39 Z" fill="#000000" fill-rule="evenodd" fill-opacity="1" /><path clip-path="url(#clip530)" d="M2322.38 1454.1 Q2318.77 1454.1 2316.94 1457.66 Q2315.13 1461.2 2315.13 1468.33 Q2315.13 1475.44 2316.94 1479.01 Q2318.77 1482.55 2322.38 1482.55 Q2326.01 1482.55 2327.82 1479.01 Q2329.65 1475.44 2329.65 1468.33 Q2329.65 1461.2 2327.82 1457.66 Q2326.01 1454.1 2322.38 1454.1 M2322.38 1450.39 Q2328.19 1450.39 2331.25 1455 Q2334.32 1459.58 2334.32 1468.33 Q2334.32 1477.06 2331.25 1481.67 Q2328.19 1486.25 2322.38 1486.25 Q2316.57 1486.25 2313.49 1481.67 Q2310.43 1477.06 2310.43 1468.33 Q2310.43 1459.58 2313.49 1455 Q2316.57 1450.39 2322.38 1450.39 Z" fill="#000000" fill-rule="evenodd" fill-opacity="1" /><path clip-path="url(#clip530)" d="M1127.38 1520.52 L1167.57 1520.52 L1167.57 1525.93 L1150.71 1525.93 L1150.71 1568.04 L1144.24 1568.04 L1144.24 1525.93 L1127.38 1525.93 L1127.38 1520.52 Z" fill="#000000" fill-rule="evenodd" fill-opacity="1" /><path clip-path="url(#clip530)" d="M1171.52 1532.4 L1177.38 1532.4 L1177.38 1568.04 L1171.52 1568.04 L1171.52 1532.4 M1171.52 1518.52 L1177.38 1518.52 L1177.38 1525.93 L1171.52 1525.93 L1171.52 1518.52 Z" fill="#000000" fill-rule="evenodd" fill-opacity="1" /><path clip-path="url(#clip530)" d="M1217.39 1539.24 Q1219.58 1535.29 1222.64 1533.41 Q1225.69 1531.54 1229.83 1531.54 Q1235.4 1531.54 1238.43 1535.45 Q1241.45 1539.33 1241.45 1546.53 L1241.45 1568.04 L1235.56 1568.04 L1235.56 1546.72 Q1235.56 1541.59 1233.75 1539.11 Q1231.93 1536.63 1228.21 1536.63 Q1223.66 1536.63 1221.01 1539.65 Q1218.37 1542.68 1218.37 1547.9 L1218.37 1568.04 L1212.48 1568.04 L1212.48 1546.72 Q1212.48 1541.56 1210.67 1539.11 Q1208.86 1536.63 1205.07 1536.63 Q1200.58 1536.63 1197.94 1539.68 Q1195.3 1542.71 1195.3 1547.9 L1195.3 1568.04 L1189.41 1568.04 L1189.41 1532.4 L1195.3 1532.4 L1195.3 1537.93 Q1197.3 1534.66 1200.1 1533.1 Q1202.9 1531.54 1206.76 1531.54 Q1210.64 1531.54 1213.34 1533.51 Q1216.08 1535.48 1217.39 1539.24 Z" fill="#000000" fill-rule="evenodd" fill-opacity="1" /><path clip-path="url(#clip530)" d="M1283.62 1548.76 L1283.62 1551.62 L1256.69 1551.62 Q1257.08 1557.67 1260.32 1560.85 Q1263.6 1564 1269.43 1564 Q1272.8 1564 1275.95 1563.17 Q1279.13 1562.35 1282.25 1560.69 L1282.25 1566.23 Q1279.1 1567.57 1275.79 1568.27 Q1272.48 1568.97 1269.08 1568.97 Q1260.55 1568.97 1255.55 1564 Q1250.58 1559.04 1250.58 1550.57 Q1250.58 1541.82 1255.29 1536.69 Q1260.04 1531.54 1268.06 1531.54 Q1275.25 1531.54 1279.42 1536.18 Q1283.62 1540.8 1283.62 1548.76 M1277.77 1547.04 Q1277.7 1542.23 1275.06 1539.37 Q1272.45 1536.5 1268.12 1536.5 Q1263.22 1536.5 1260.26 1539.27 Q1257.33 1542.04 1256.89 1547.07 L1277.77 1547.04 Z" fill="#000000" fill-rule="evenodd" fill-opacity="1" /><path clip-path="url(#clip530)" d="M1336.68 1533.45 L1336.68 1538.98 Q1334.2 1537.71 1331.52 1537.07 Q1328.85 1536.44 1325.99 1536.44 Q1321.62 1536.44 1319.43 1537.77 Q1317.26 1539.11 1317.26 1541.79 Q1317.26 1543.82 1318.82 1545 Q1320.38 1546.15 1325.09 1547.2 L1327.1 1547.64 Q1333.34 1548.98 1335.95 1551.43 Q1338.59 1553.85 1338.59 1558.21 Q1338.59 1563.17 1334.64 1566.07 Q1330.73 1568.97 1323.85 1568.97 Q1320.99 1568.97 1317.87 1568.39 Q1314.78 1567.85 1311.34 1566.74 L1311.34 1560.69 Q1314.59 1562.38 1317.74 1563.24 Q1320.89 1564.07 1323.98 1564.07 Q1328.12 1564.07 1330.35 1562.66 Q1332.57 1561.23 1332.57 1558.65 Q1332.57 1556.27 1330.95 1554.99 Q1329.36 1553.72 1323.92 1552.54 L1321.88 1552.07 Q1316.44 1550.92 1314.02 1548.56 Q1311.6 1546.18 1311.6 1542.04 Q1311.6 1537.01 1315.16 1534.27 Q1318.73 1531.54 1325.29 1531.54 Q1328.53 1531.54 1331.4 1532.01 Q1334.26 1532.49 1336.68 1533.45 Z" fill="#000000" fill-rule="evenodd" fill-opacity="1" /><path clip-path="url(#clip530)" d="M1353.71 1522.27 L1353.71 1532.4 L1365.77 1532.4 L1365.77 1536.95 L1353.71 1536.95 L1353.71 1556.3 Q1353.71 1560.66 1354.89 1561.9 Q1356.1 1563.14 1359.76 1563.14 L1365.77 1563.14 L1365.77 1568.04 L1359.76 1568.04 Q1352.98 1568.04 1350.4 1565.53 Q1347.82 1562.98 1347.82 1556.3 L1347.82 1536.95 L1343.52 1536.95 L1343.52 1532.4 L1347.82 1532.4 L1347.82 1522.27 L1353.71 1522.27 Z" fill="#000000" fill-rule="evenodd" fill-opacity="1" /><path clip-path="url(#clip530)" d="M1403.97 1548.76 L1403.97 1551.62 L1377.04 1551.62 Q1377.42 1557.67 1380.67 1560.85 Q1383.95 1564 1389.77 1564 Q1393.14 1564 1396.29 1563.17 Q1399.48 1562.35 1402.6 1560.69 L1402.6 1566.23 Q1399.45 1567.57 1396.14 1568.27 Q1392.83 1568.97 1389.42 1568.97 Q1380.89 1568.97 1375.89 1564 Q1370.93 1559.04 1370.93 1550.57 Q1370.93 1541.82 1375.64 1536.69 Q1380.38 1531.54 1388.4 1531.54 Q1395.59 1531.54 1399.76 1536.18 Q1403.97 1540.8 1403.97 1548.76 M1398.11 1547.04 Q1398.05 1542.23 1395.4 1539.37 Q1392.79 1536.5 1388.46 1536.5 Q1383.56 1536.5 1380.6 1539.27 Q1377.67 1542.04 1377.23 1547.07 L1398.11 1547.04 Z" fill="#000000" fill-rule="evenodd" fill-opacity="1" /><path clip-path="url(#clip530)" d="M1419.24 1562.7 L1419.24 1581.6 L1413.35 1581.6 L1413.35 1532.4 L1419.24 1532.4 L1419.24 1537.81 Q1421.09 1534.62 1423.89 1533.1 Q1426.72 1531.54 1430.64 1531.54 Q1437.13 1531.54 1441.17 1536.69 Q1445.25 1541.85 1445.25 1550.25 Q1445.25 1558.65 1441.17 1563.81 Q1437.13 1568.97 1430.64 1568.97 Q1426.72 1568.97 1423.89 1567.44 Q1421.09 1565.88 1419.24 1562.7 M1439.17 1550.25 Q1439.17 1543.79 1436.49 1540.13 Q1433.85 1536.44 1429.21 1536.44 Q1424.56 1536.44 1421.88 1540.13 Q1419.24 1543.79 1419.24 1550.25 Q1419.24 1556.71 1421.88 1560.4 Q1424.56 1564.07 1429.21 1564.07 Q1433.85 1564.07 1436.49 1560.4 Q1439.17 1556.71 1439.17 1550.25 Z" fill="#000000" fill-rule="evenodd" fill-opacity="1" /><polyline clip-path="url(#clip532)" style="stroke:#000000; stroke-linecap:butt; stroke-linejoin:round; stroke-width:2; stroke-opacity:0.1; fill:none" points="
  219.866,1348.86 2352.76,1348.86 
  "/>
<polyline clip-path="url(#clip532)" style="stroke:#000000; stroke-linecap:butt; stroke-linejoin:round; stroke-width:2; stroke-opacity:0.1; fill:none" points="
  219.866,1010.27 2352.76,1010.27 
  "/>
<polyline clip-path="url(#clip532)" style="stroke:#000000; stroke-linecap:butt; stroke-linejoin:round; stroke-width:2; stroke-opacity:0.1; fill:none" points="
  219.866,671.684 2352.76,671.684 
  "/>
<polyline clip-path="url(#clip532)" style="stroke:#000000; stroke-linecap:butt; stroke-linejoin:round; stroke-width:2; stroke-opacity:0.1; fill:none" points="
  219.866,333.096 2352.76,333.096 
  "/>
<polyline clip-path="url(#clip530)" style="stroke:#000000; stroke-linecap:butt; stroke-linejoin:round; stroke-width:4; stroke-opacity:1; fill:none" points="
  219.866,1423.18 219.866,47.2441 
  "/>
<polyline clip-path="url(#clip530)" style="stroke:#000000; stroke-linecap:butt; stroke-linejoin:round; stroke-width:4; stroke-opacity:1; fill:none" points="
  219.866,1348.86 238.764,1348.86 
  "/>
<polyline clip-path="url(#clip530)" style="stroke:#000000; stroke-linecap:butt; stroke-linejoin:round; stroke-width:4; stroke-opacity:1; fill:none" points="
  219.866,1010.27 238.764,1010.27 
  "/>
<polyline clip-path="url(#clip530)" style="stroke:#000000; stroke-linecap:butt; stroke-linejoin:round; stroke-width:4; stroke-opacity:1; fill:none" points="
  219.866,671.684 238.764,671.684 
  "/>
<polyline clip-path="url(#clip530)" style="stroke:#000000; stroke-linecap:butt; stroke-linejoin:round; stroke-width:4; stroke-opacity:1; fill:none" points="
  219.866,333.096 238.764,333.096 
  "/>
<path clip-path="url(#clip530)" d="M128.288 1334.66 Q124.677 1334.66 122.848 1338.22 Q121.043 1341.77 121.043 1348.9 Q121.043 1356 122.848 1359.57 Q124.677 1363.11 128.288 1363.11 Q131.922 1363.11 133.728 1359.57 Q135.556 1356 135.556 1348.9 Q135.556 1341.77 133.728 1338.22 Q131.922 1334.66 128.288 1334.66 M128.288 1330.96 Q134.098 1330.96 137.154 1335.56 Q140.232 1340.15 140.232 1348.9 Q140.232 1357.62 137.154 1362.23 Q134.098 1366.81 128.288 1366.81 Q122.478 1366.81 119.399 1362.23 Q116.343 1357.62 116.343 1348.9 Q116.343 1340.15 119.399 1335.56 Q122.478 1330.96 128.288 1330.96 Z" fill="#000000" fill-rule="evenodd" fill-opacity="1" /><path clip-path="url(#clip530)" d="M148.45 1360.26 L153.334 1360.26 L153.334 1366.14 L148.45 1366.14 L148.45 1360.26 Z" fill="#000000" fill-rule="evenodd" fill-opacity="1" /><path clip-path="url(#clip530)" d="M167.547 1362.21 L183.866 1362.21 L183.866 1366.14 L161.922 1366.14 L161.922 1362.21 Q164.584 1359.45 169.167 1354.82 Q173.774 1350.17 174.954 1348.83 Q177.2 1346.3 178.079 1344.57 Q178.982 1342.81 178.982 1341.12 Q178.982 1338.36 177.038 1336.63 Q175.116 1334.89 172.014 1334.89 Q169.815 1334.89 167.362 1335.65 Q164.931 1336.42 162.153 1337.97 L162.153 1333.25 Q164.977 1332.11 167.431 1331.53 Q169.885 1330.96 171.922 1330.96 Q177.292 1330.96 180.487 1333.64 Q183.681 1336.33 183.681 1340.82 Q183.681 1342.95 182.871 1344.87 Q182.084 1346.77 179.977 1349.36 Q179.399 1350.03 176.297 1353.25 Q173.195 1356.44 167.547 1362.21 Z" fill="#000000" fill-rule="evenodd" fill-opacity="1" /><path clip-path="url(#clip530)" d="M126.205 996.071 Q122.593 996.071 120.765 999.636 Q118.959 1003.18 118.959 1010.31 Q118.959 1017.41 120.765 1020.98 Q122.593 1024.52 126.205 1024.52 Q129.839 1024.52 131.644 1020.98 Q133.473 1017.41 133.473 1010.31 Q133.473 1003.18 131.644 999.636 Q129.839 996.071 126.205 996.071 M126.205 992.367 Q132.015 992.367 135.07 996.974 Q138.149 1001.56 138.149 1010.31 Q138.149 1019.03 135.07 1023.64 Q132.015 1028.22 126.205 1028.22 Q120.394 1028.22 117.316 1023.64 Q114.26 1019.03 114.26 1010.31 Q114.26 1001.56 117.316 996.974 Q120.394 992.367 126.205 992.367 Z" fill="#000000" fill-rule="evenodd" fill-opacity="1" /><path clip-path="url(#clip530)" d="M146.366 1021.67 L151.251 1021.67 L151.251 1027.55 L146.366 1027.55 L146.366 1021.67 Z" fill="#000000" fill-rule="evenodd" fill-opacity="1" /><path clip-path="url(#clip530)" d="M174.283 997.066 L162.477 1015.52 L174.283 1015.52 L174.283 997.066 M173.056 992.992 L178.936 992.992 L178.936 1015.52 L183.866 1015.52 L183.866 1019.4 L178.936 1019.4 L178.936 1027.55 L174.283 1027.55 L174.283 1019.4 L158.681 1019.4 L158.681 1014.89 L173.056 992.992 Z" fill="#000000" fill-rule="evenodd" fill-opacity="1" /><path clip-path="url(#clip530)" d="M126.529 657.483 Q122.918 657.483 121.089 661.048 Q119.283 664.589 119.283 671.719 Q119.283 678.825 121.089 682.39 Q122.918 685.932 126.529 685.932 Q130.163 685.932 131.968 682.39 Q133.797 678.825 133.797 671.719 Q133.797 664.589 131.968 661.048 Q130.163 657.483 126.529 657.483 M126.529 653.779 Q132.339 653.779 135.394 658.386 Q138.473 662.969 138.473 671.719 Q138.473 680.446 135.394 685.052 Q132.339 689.636 126.529 689.636 Q120.718 689.636 117.64 685.052 Q114.584 680.446 114.584 671.719 Q114.584 662.969 117.64 658.386 Q120.718 653.779 126.529 653.779 Z" fill="#000000" fill-rule="evenodd" fill-opacity="1" /><path clip-path="url(#clip530)" d="M146.691 683.085 L151.575 683.085 L151.575 688.964 L146.691 688.964 L146.691 683.085 Z" fill="#000000" fill-rule="evenodd" fill-opacity="1" /><path clip-path="url(#clip530)" d="M172.339 669.821 Q169.19 669.821 167.339 671.974 Q165.51 674.126 165.51 677.876 Q165.51 681.603 167.339 683.779 Q169.19 685.932 172.339 685.932 Q175.487 685.932 177.315 683.779 Q179.167 681.603 179.167 677.876 Q179.167 674.126 177.315 671.974 Q175.487 669.821 172.339 669.821 M181.621 655.168 L181.621 659.427 Q179.862 658.594 178.056 658.154 Q176.274 657.714 174.514 657.714 Q169.885 657.714 167.431 660.839 Q165.001 663.964 164.653 670.284 Q166.019 668.27 168.079 667.205 Q170.139 666.117 172.616 666.117 Q177.825 666.117 180.834 669.288 Q183.866 672.437 183.866 677.876 Q183.866 683.2 180.718 686.418 Q177.57 689.636 172.339 689.636 Q166.343 689.636 163.172 685.052 Q160.001 680.446 160.001 671.719 Q160.001 663.525 163.89 658.664 Q167.778 653.779 174.329 653.779 Q176.089 653.779 177.871 654.127 Q179.676 654.474 181.621 655.168 Z" fill="#000000" fill-rule="evenodd" fill-opacity="1" /><path clip-path="url(#clip530)" d="M126.783 318.895 Q123.172 318.895 121.343 322.46 Q119.538 326.001 119.538 333.131 Q119.538 340.237 121.343 343.802 Q123.172 347.344 126.783 347.344 Q130.417 347.344 132.223 343.802 Q134.052 340.237 134.052 333.131 Q134.052 326.001 132.223 322.46 Q130.417 318.895 126.783 318.895 M126.783 315.191 Q132.593 315.191 135.649 319.798 Q138.728 324.381 138.728 333.131 Q138.728 341.858 135.649 346.464 Q132.593 351.048 126.783 351.048 Q120.973 351.048 117.894 346.464 Q114.839 341.858 114.839 333.131 Q114.839 324.381 117.894 319.798 Q120.973 315.191 126.783 315.191 Z" fill="#000000" fill-rule="evenodd" fill-opacity="1" /><path clip-path="url(#clip530)" d="M146.945 344.497 L151.829 344.497 L151.829 350.376 L146.945 350.376 L146.945 344.497 Z" fill="#000000" fill-rule="evenodd" fill-opacity="1" /><path clip-path="url(#clip530)" d="M172.014 333.964 Q168.681 333.964 166.76 335.747 Q164.862 337.529 164.862 340.654 Q164.862 343.779 166.76 345.561 Q168.681 347.344 172.014 347.344 Q175.348 347.344 177.269 345.561 Q179.19 343.756 179.19 340.654 Q179.19 337.529 177.269 335.747 Q175.371 333.964 172.014 333.964 M167.339 331.974 Q164.329 331.233 162.64 329.173 Q160.973 327.112 160.973 324.15 Q160.973 320.006 163.913 317.599 Q166.876 315.191 172.014 315.191 Q177.176 315.191 180.116 317.599 Q183.056 320.006 183.056 324.15 Q183.056 327.112 181.366 329.173 Q179.7 331.233 176.714 331.974 Q180.093 332.761 181.968 335.052 Q183.866 337.344 183.866 340.654 Q183.866 345.677 180.788 348.362 Q177.732 351.048 172.014 351.048 Q166.297 351.048 163.218 348.362 Q160.163 345.677 160.163 340.654 Q160.163 337.344 162.061 335.052 Q163.959 332.761 167.339 331.974 M165.626 324.589 Q165.626 327.274 167.292 328.779 Q168.982 330.284 172.014 330.284 Q175.024 330.284 176.714 328.779 Q178.426 327.274 178.426 324.589 Q178.426 321.904 176.714 320.4 Q175.024 318.895 172.014 318.895 Q168.982 318.895 167.292 320.4 Q165.626 321.904 165.626 324.589 Z" fill="#000000" fill-rule="evenodd" fill-opacity="1" /><path clip-path="url(#clip530)" d="M64.0042 804.582 L16.4842 822.725 L16.4842 816.009 L56.4926 800.954 L16.4842 785.867 L16.4842 779.183 L64.0042 797.294 L64.0042 804.582 Z" fill="#000000" fill-rule="evenodd" fill-opacity="1" /><path clip-path="url(#clip530)" d="M46.0847 761.359 Q46.0847 768.457 47.7079 771.194 Q49.3312 773.931 53.2461 773.931 Q56.3653 773.931 58.2114 771.894 Q60.0256 769.825 60.0256 766.293 Q60.0256 761.423 56.5881 758.495 Q53.1188 755.534 47.3897 755.534 L46.0847 755.534 L46.0847 761.359 M43.6657 749.678 L64.0042 749.678 L64.0042 755.534 L58.5933 755.534 Q61.8398 757.54 63.3994 760.532 Q64.9272 763.523 64.9272 767.852 Q64.9272 773.327 61.8716 776.573 Q58.7843 779.788 53.6281 779.788 Q47.6125 779.788 44.5569 775.777 Q41.5014 771.735 41.5014 763.746 L41.5014 755.534 L40.9285 755.534 Q36.8862 755.534 34.6901 758.208 Q32.4621 760.85 32.4621 765.656 Q32.4621 768.711 33.1941 771.608 Q33.9262 774.504 35.3903 777.178 L29.9795 777.178 Q28.7381 773.963 28.1334 770.939 Q27.4968 767.916 27.4968 765.051 Q27.4968 757.317 31.5072 753.497 Q35.5176 749.678 43.6657 749.678 Z" fill="#000000" fill-rule="evenodd" fill-opacity="1" /><path clip-path="url(#clip530)" d="M14.479 737.615 L14.479 731.759 L64.0042 731.759 L64.0042 737.615 L14.479 737.615 Z" fill="#000000" fill-rule="evenodd" fill-opacity="1" /><path clip-path="url(#clip530)" d="M49.9359 720.109 L28.3562 720.109 L28.3562 714.253 L49.7131 714.253 Q54.7739 714.253 57.3202 712.28 Q59.8346 710.306 59.8346 706.359 Q59.8346 701.617 56.8109 698.88 Q53.7872 696.111 48.5673 696.111 L28.3562 696.111 L28.3562 690.254 L64.0042 690.254 L64.0042 696.111 L58.5296 696.111 Q61.7762 698.243 63.3676 701.076 Q64.9272 703.877 64.9272 707.601 Q64.9272 713.744 61.1078 716.926 Q57.2883 720.109 49.9359 720.109 M27.4968 705.373 L27.4968 705.373 Z" fill="#000000" fill-rule="evenodd" fill-opacity="1" /><path clip-path="url(#clip530)" d="M44.7161 647.699 L47.5806 647.699 L47.5806 674.626 Q53.6281 674.244 56.8109 670.998 Q59.9619 667.72 59.9619 661.895 Q59.9619 658.521 59.1344 655.37 Q58.3069 652.187 56.6518 649.068 L62.1899 649.068 Q63.5267 652.219 64.227 655.529 Q64.9272 658.839 64.9272 662.245 Q64.9272 670.775 59.9619 675.772 Q54.9967 680.737 46.5303 680.737 Q37.7774 680.737 32.6531 676.027 Q27.4968 671.284 27.4968 663.264 Q27.4968 656.07 32.1438 651.901 Q36.7589 647.699 44.7161 647.699 M42.9973 653.556 Q38.1912 653.62 35.3266 656.261 Q32.4621 658.871 32.4621 663.2 Q32.4621 668.102 35.2312 671.062 Q38.0002 673.99 43.0292 674.435 L42.9973 653.556 Z" fill="#000000" fill-rule="evenodd" fill-opacity="1" /><polyline clip-path="url(#clip532)" style="stroke:#009af9; stroke-linecap:butt; stroke-linejoin:round; stroke-width:4; stroke-opacity:1; fill:none" points="
  280.231,1216.26 290.342,403.02 300.454,522.304 310.565,326.619 320.676,684.401 330.788,150.6 340.899,1163.5 351.011,321.328 361.122,698.111 371.233,141.47 
  381.345,1190.96 391.456,362.241 401.567,606.598 411.679,220.539 421.79,955.7 431.901,120.68 442.013,1258.89 452.124,478.283 462.235,385.903 472.347,565.837 
  482.458,258.247 492.57,864.775 502.681,87.8351 512.792,1379.37 522.904,732.14 533.015,121.366 543.126,1256.42 553.238,473.695 563.349,393.483 573.46,550.351 
  583.572,278.051 593.683,813.522 603.794,88.738 613.906,1376.27 624.017,724.712 634.129,125.28 644.24,1243.61 654.351,450.389 664.463,433.356 674.574,473.133 
  684.685,392.897 694.797,551.019 704.908,278.258 715.019,813.536 725.131,87.9391 735.242,1378.33 745.353,729.96 755.465,123.115 765.576,1248.25 775.688,458.501 
  785.799,420.75 795.91,496.584 806.022,355.623 816.133,629.963 826.244,188.289 836.356,1060.34 846.467,192.35 856.578,1048.43 866.69,181.02 876.801,1081.86 
  886.912,214.418 897.024,984.928 907.135,131.437 917.247,1235.03 927.358,431.476 937.469,476.66 947.581,386.959 957.692,563.075 967.803,262.903 977.915,853.154 
  988.026,86.1857 998.137,1384.24 1008.25,744.257 1018.36,116.244 1028.47,1270.42 1038.58,499.755 1048.69,353.467 1058.81,634.755 1068.92,183.666 1079.03,1073.96 
  1089.14,206.115 1099.25,1008.62 1109.36,147.757 1119.47,1183.32 1129.59,346.48 1139.7,650.597 1149.81,168.805 1159.92,1118.08 1170.03,256.671 1180.14,869.887 
  1190.25,87.0626 1200.36,1380.48 1210.48,735.491 1220.59,120.616 1230.7,1255.15 1240.81,470.863 1250.92,401.179 1261.03,533.86 1271.14,302.46 1281.26,753.386 
  1291.37,103.846 1301.48,1324.7 1311.59,607.595 1321.7,219.877 1331.81,956.199 1341.92,120.529 1352.03,1261.25 1362.15,482.591 1372.26,379.514 1382.37,579.102 
  1392.48,242.111 1402.59,907.817 1412.7,96.2157 1422.81,1351.1 1432.93,665.788 1443.04,164.688 1453.15,1120.38 1463.26,263.803 1473.37,840.149 1483.48,93.2494 
  1493.59,1348.42 1503.71,662.711 1513.82,160.577 1523.93,1144.1 1534.04,289.544 1544.15,784.461 1554.26,94.6738 1564.37,1356.27 1574.48,677.659 1584.6,155.496 
  1594.71,1148.51 1604.82,300.392 1614.93,748.07 1625.04,114.18 1635.15,1278.71 1645.26,515.959 1655.38,327.818 1665.49,693.1 1675.6,136.219 1685.71,1219.38 
  1695.82,404.748 1705.93,528.184 1716.04,307.44 1726.16,740.024 1736.27,111.66 1746.38,1299.75 1756.49,554.501 1766.6,281.789 1776.71,794.464 1786.82,98.8995 
  1796.93,1329.25 1807.05,620.176 1817.16,199.168 1827.27,1028.87 1837.38,163.5 1847.49,1134.24 1857.6,277.209 1867.71,816.618 1877.83,86.9161 1887.94,1380.95 
  1898.05,736.634 1908.16,120.06 1918.27,1256.95 1928.38,474.182 1938.49,395.66 1948.6,544.908 1958.72,287.395 1968.83,790.579 1978.94,92.0011 1989.05,1364.4 
  1999.16,696.99 2009.27,142.644 2019.38,1185.58 2029.5,353.654 2039.61,627.011 2049.72,199.328 2059.83,1017.08 2069.94,159.889 2080.05,1134.51 2090.16,281.714 
  2100.28,794.454 2110.39,98.8896 2120.5,1329.33 2130.61,620.365 2140.72,198.955 2150.83,1029.49 2160.94,164.018 2171.05,1132.65 2181.17,275.143 2191.28,821.892 
  2201.39,86.3607 2211.5,1382.84 2221.61,741.204 2231.72,117.888 2241.83,1264.01 2251.95,487.367 2262.06,374.188 2272.17,589.218 2282.28,232.428 2292.39,934.929 
  
  "/>
<polyline clip-path="url(#clip532)" style="stroke:#e26f46; stroke-linecap:butt; stroke-linejoin:round; stroke-width:4; stroke-opacity:1; fill:none" points="
  280.231,297.192 290.342,856.161 300.454,269.672 310.565,978.486 320.676,302.205 330.788,888.319 340.899,283.304 351.011,892.548 361.122,275.768 371.233,949.082 
  381.345,297.713 391.456,857.051 401.567,271.662 411.679,966.607 421.79,301.215 431.901,868.373 442.013,283.48 452.124,884.225 462.235,267.362 472.347,995.555 
  482.458,301.364 492.57,925.137 502.681,257.812 512.792,1044.3 522.904,303.294 533.015,881.93 543.126,284.109 553.238,882.967 563.349,267.448 573.46,994.708 
  583.572,301.514 593.683,923.168 603.794,259.545 613.906,1039.89 624.017,299.824 634.129,890.473 644.24,284.732 654.351,882.579 664.463,268.517 674.574,988.752 
  684.685,301.388 694.797,914.056 704.908,269.082 715.019,1000.37 725.131,294.115 735.242,956.047 745.353,246.855 755.465,1017.36 765.576,332.364 775.688,776.096 
  785.799,280.986 795.91,959.681 806.022,286.45 816.133,952.074 826.244,277.577 836.356,987.214 846.467,276.276 856.578,990.026 866.69,278.378 876.801,985.882 
  886.912,274.631 897.024,992.174 907.135,282.239 917.247,980.705 927.358,265.376 937.469,996.598 947.581,305.603 957.692,904.852 967.803,266.537 977.915,1007.9 
  988.026,297.218 998.137,948.901 1008.25,243.433 1018.36,1024.77 1028.47,337.461 1038.58,763.529 1048.69,283.345 1058.81,959.636 1068.92,280.49 1079.03,980.571 
  1089.14,272.027 1099.25,999.207 1109.36,285.483 1119.47,971.583 1129.59,262.708 1139.7,1010.31 1149.81,306.879 1159.92,919.723 1170.03,244.765 1180.14,1062.96 
  1190.25,338.153 1200.36,856.389 1210.48,221.686 1220.59,1081.45 1230.7,381.76 1240.81,675.446 1250.92,335.5 1261.03,837.085 1271.14,264.102 1281.26,1010.58 
  1291.37,302.937 1301.48,934.127 1311.59,240.205 1321.7,1044.62 1331.81,347.59 1341.92,767.273 1352.03,302.525 1362.15,840.4 1372.26,266.41 1382.37,998.423 
  1392.48,302.484 1402.59,923.866 1412.7,255.494 1422.81,1049.41 1432.93,308.618 1443.04,875.256 1453.15,281.61 1463.26,900.094 1473.37,279.562 1483.48,928.213 
  1493.59,293.354 1503.71,854.045 1513.82,256.925 1523.93,1040.38 1534.04,309.094 1544.15,904.813 1554.26,256.295 1564.37,1047.53 1574.48,306.845 1584.6,878.303 
  1594.71,282.226 1604.82,896.314 1614.93,277.275 1625.04,941.316 1635.15,296.278 1645.26,853.11 1655.38,264.165 1665.49,1008.29 1675.6,303.888 1685.71,929.278 
  1695.82,243.207 1705.93,1054.3 1716.04,343.562 1726.16,827.198 1736.27,254.661 1746.38,1050.2 1756.49,311.217 1766.6,878.438 1776.71,276.199 1786.82,940.018 
  1796.93,296.539 1807.05,848.365 1817.16,259.136 1827.27,1031.59 1837.38,306.755 1847.49,920.441 1857.6,244.244 1867.71,1062.53 1877.83,339.754 1887.94,852.926 
  1898.05,221.53 1908.16,1081.76 1918.27,382.059 1928.38,674.731 1938.49,335.843 1948.6,836.783 1958.72,263.572 1968.83,1013.15 1978.94,303.132 1989.05,934.643 
  1999.16,238.628 2009.27,1041 2019.38,347.827 2029.5,748.628 2039.61,297.723 2049.72,903.323 2059.83,283.087 2069.94,905.201 2080.05,285.236 2090.16,890.442 
  2100.28,277.363 2110.39,937.242 2120.5,295.679 2130.61,850.314 2140.72,259.072 2150.83,1031.77 2160.94,306.865 2171.05,920.144 2181.17,244.228 2191.28,1062.75 
  2201.39,339.746 2211.5,852.986 2221.61,221.438 2231.72,1081.6 2241.83,381.995 2251.95,674.31 2262.06,335.374 2272.17,839.514 2282.28,261.137 2292.39,1023.81 
  
  "/>
<path clip-path="url(#clip530)" d="
M2016.43 248.629 L2281.66 248.629 L2281.66 93.1086 L2016.43 93.1086  Z
  " fill="#ffffff" fill-rule="evenodd" fill-opacity="1"/>
<polyline clip-path="url(#clip530)" style="stroke:#000000; stroke-linecap:butt; stroke-linejoin:round; stroke-width:4; stroke-opacity:1; fill:none" points="
  2016.43,248.629 2281.66,248.629 2281.66,93.1086 2016.43,93.1086 2016.43,248.629 
  "/>
<polyline clip-path="url(#clip530)" style="stroke:#009af9; stroke-linecap:butt; stroke-linejoin:round; stroke-width:4; stroke-opacity:1; fill:none" points="
  2040.43,144.949 2184.43,144.949 
  "/>
<path clip-path="url(#clip530)" d="M2233.08 136.303 L2223.71 148.919 L2233.57 162.229 L2228.54 162.229 L2221 152.043 L2213.45 162.229 L2208.43 162.229 L2218.5 148.664 L2209.28 136.303 L2214.31 136.303 L2221.18 145.539 L2228.06 136.303 L2233.08 136.303 Z" fill="#000000" fill-rule="evenodd" fill-opacity="1" /><polyline clip-path="url(#clip530)" style="stroke:#e26f46; stroke-linecap:butt; stroke-linejoin:round; stroke-width:4; stroke-opacity:1; fill:none" points="
  2040.43,196.789 2184.43,196.789 
  "/>
<path clip-path="url(#clip530)" d="M2222.27 216.476 Q2220.47 221.106 2218.75 222.518 Q2217.04 223.93 2214.17 223.93 L2210.77 223.93 L2210.77 220.365 L2213.27 220.365 Q2215.03 220.365 2216 219.532 Q2216.97 218.698 2218.15 215.596 L2218.91 213.652 L2208.43 188.143 L2212.94 188.143 L2221.04 208.421 L2229.15 188.143 L2233.66 188.143 L2222.27 216.476 Z" fill="#000000" fill-rule="evenodd" fill-opacity="1" /></svg>
