<?xml version="1.0" encoding="utf-8"?>
<svg xmlns="http://www.w3.org/2000/svg" xmlns:xlink="http://www.w3.org/1999/xlink" width="600" height="400" viewBox="0 0 2400 1600">
<defs>
  <clipPath id="clip680">
    <rect x="0" y="0" width="2400" height="1600"/>
  </clipPath>
</defs>
<path clip-path="url(#clip680)" d="
M0 1600 L2400 1600 L2400 0 L0 0  Z
  " fill="#ffffff" fill-rule="evenodd" fill-opacity="1"/>
<defs>
  <clipPath id="clip681">
    <rect x="480" y="0" width="1681" height="1600"/>
  </clipPath>
</defs>
<path clip-path="url(#clip680)" d="
M219.866 1423.18 L2352.76 1423.18 L2352.76 47.2441 L219.866 47.2441  Z
  " fill="#ffffff" fill-rule="evenodd" fill-opacity="1"/>
<defs>
  <clipPath id="clip682">
    <rect x="219" y="47" width="2134" height="1377"/>
  </clipPath>
</defs>
<polyline clip-path="url(#clip682)" style="stroke:#000000; stroke-linecap:butt; stroke-linejoin:round; stroke-width:2; stroke-opacity:0.1; fill:none" points="
  280.231,1423.18 280.231,47.2441 
  "/>
<polyline clip-path="url(#clip682)" style="stroke:#000000; stroke-linecap:butt; stroke-linejoin:round; stroke-width:2; stroke-opacity:0.1; fill:none" points="
  783.271,1423.18 783.271,47.2441 
  "/>
<polyline clip-path="url(#clip682)" style="stroke:#000000; stroke-linecap:butt; stroke-linejoin:round; stroke-width:2; stroke-opacity:0.1; fill:none" points="
  1286.31,1423.18 1286.31,47.2441 
  "/>
<polyline clip-path="url(#clip682)" style="stroke:#000000; stroke-linecap:butt; stroke-linejoin:round; stroke-width:2; stroke-opacity:0.1; fill:none" points="
  1789.35,1423.18 1789.35,47.2441 
  "/>
<polyline clip-path="url(#clip682)" style="stroke:#000000; stroke-linecap:butt; stroke-linejoin:round; stroke-width:2; stroke-opacity:0.1; fill:none" points="
  2292.39,1423.18 2292.39,47.2441 
  "/>
<polyline clip-path="url(#clip680)" style="stroke:#000000; stroke-linecap:butt; stroke-linejoin:round; stroke-width:4; stroke-opacity:1; fill:none" points="
  219.866,1423.18 2352.76,1423.18 
  "/>
<polyline clip-path="url(#clip680)" style="stroke:#000000; stroke-linecap:butt; stroke-linejoin:round; stroke-width:4; stroke-opacity:1; fill:none" points="
  280.231,1423.18 280.231,1404.28 
  "/>
<polyline clip-path="url(#clip680)" style="stroke:#000000; stroke-linecap:butt; stroke-linejoin:round; stroke-width:4; stroke-opacity:1; fill:none" points="
  783.271,1423.18 783.271,1404.28 
  "/>
<polyline clip-path="url(#clip680)" style="stroke:#000000; stroke-linecap:butt; stroke-linejoin:round; stroke-width:4; stroke-opacity:1; fill:none" points="
  1286.31,1423.18 1286.31,1404.28 
  "/>
<polyline clip-path="url(#clip680)" style="stroke:#000000; stroke-linecap:butt; stroke-linejoin:round; stroke-width:4; stroke-opacity:1; fill:none" points="
  1789.35,1423.18 1789.35,1404.28 
  "/>
<polyline clip-path="url(#clip680)" style="stroke:#000000; stroke-linecap:butt; stroke-linejoin:round; stroke-width:4; stroke-opacity:1; fill:none" points="
  2292.39,1423.18 2292.39,1404.28 
  "/>
<path clip-path="url(#clip680)" d="M242.535 1454.1 Q238.923 1454.1 237.095 1457.66 Q235.289 1461.2 235.289 1468.33 Q235.289 1475.44 237.095 1479.01 Q238.923 1482.55 242.535 1482.55 Q246.169 1482.55 247.974 1479.01 Q249.803 1475.44 249.803 1468.33 Q249.803 1461.2 247.974 1457.66 Q246.169 1454.1 242.535 1454.1 M242.535 1450.39 Q248.345 1450.39 251.4 1455 Q254.479 1459.58 254.479 1468.33 Q254.479 1477.06 251.4 1481.67 Q248.345 1486.25 242.535 1486.25 Q236.724 1486.25 233.646 1481.67 Q230.59 1477.06 230.59 1468.33 Q230.59 1459.58 233.646 1455 Q236.724 1450.39 242.535 1450.39 Z" fill="#000000" fill-rule="evenodd" fill-opacity="1" /><path clip-path="url(#clip680)" d="M262.696 1479.7 L267.581 1479.7 L267.581 1485.58 L262.696 1485.58 L262.696 1479.7 Z" fill="#000000" fill-rule="evenodd" fill-opacity="1" /><path clip-path="url(#clip680)" d="M287.766 1454.1 Q284.155 1454.1 282.326 1457.66 Q280.52 1461.2 280.52 1468.33 Q280.52 1475.44 282.326 1479.01 Q284.155 1482.55 287.766 1482.55 Q291.4 1482.55 293.206 1479.01 Q295.034 1475.44 295.034 1468.33 Q295.034 1461.2 293.206 1457.66 Q291.4 1454.1 287.766 1454.1 M287.766 1450.39 Q293.576 1450.39 296.631 1455 Q299.71 1459.58 299.71 1468.33 Q299.71 1477.06 296.631 1481.67 Q293.576 1486.25 287.766 1486.25 Q281.956 1486.25 278.877 1481.67 Q275.821 1477.06 275.821 1468.33 Q275.821 1459.58 278.877 1455 Q281.956 1450.39 287.766 1450.39 Z" fill="#000000" fill-rule="evenodd" fill-opacity="1" /><path clip-path="url(#clip680)" d="M317.928 1454.1 Q314.317 1454.1 312.488 1457.66 Q310.682 1461.2 310.682 1468.33 Q310.682 1475.44 312.488 1479.01 Q314.317 1482.55 317.928 1482.55 Q321.562 1482.55 323.367 1479.01 Q325.196 1475.44 325.196 1468.33 Q325.196 1461.2 323.367 1457.66 Q321.562 1454.1 317.928 1454.1 M317.928 1450.39 Q323.738 1450.39 326.793 1455 Q329.872 1459.58 329.872 1468.33 Q329.872 1477.06 326.793 1481.67 Q323.738 1486.25 317.928 1486.25 Q312.117 1486.25 309.039 1481.67 Q305.983 1477.06 305.983 1468.33 Q305.983 1459.58 309.039 1455 Q312.117 1450.39 317.928 1450.39 Z" fill="#000000" fill-rule="evenodd" fill-opacity="1" /><path clip-path="url(#clip680)" d="M746.072 1454.1 Q742.461 1454.1 740.632 1457.66 Q738.827 1461.2 738.827 1468.33 Q738.827 1475.44 740.632 1479.01 Q742.461 1482.55 746.072 1482.55 Q749.706 1482.55 751.512 1479.01 Q753.341 1475.44 753.341 1468.33 Q753.341 1461.2 751.512 1457.66 Q749.706 1454.1 746.072 1454.1 M746.072 1450.39 Q751.882 1450.39 754.938 1455 Q758.017 1459.58 758.017 1468.33 Q758.017 1477.06 754.938 1481.67 Q751.882 1486.25 746.072 1486.25 Q740.262 1486.25 737.183 1481.67 Q734.128 1477.06 734.128 1468.33 Q734.128 1459.58 737.183 1455 Q740.262 1450.39 746.072 1450.39 Z" fill="#000000" fill-rule="evenodd" fill-opacity="1" /><path clip-path="url(#clip680)" d="M766.234 1479.7 L771.118 1479.7 L771.118 1485.58 L766.234 1485.58 L766.234 1479.7 Z" fill="#000000" fill-rule="evenodd" fill-opacity="1" /><path clip-path="url(#clip680)" d="M785.331 1481.64 L801.651 1481.64 L801.651 1485.58 L779.706 1485.58 L779.706 1481.64 Q782.368 1478.89 786.952 1474.26 Q791.558 1469.61 792.739 1468.27 Q794.984 1465.74 795.864 1464.01 Q796.766 1462.25 796.766 1460.56 Q796.766 1457.8 794.822 1456.07 Q792.901 1454.33 789.799 1454.33 Q787.6 1454.33 785.146 1455.09 Q782.716 1455.86 779.938 1457.41 L779.938 1452.69 Q782.762 1451.55 785.216 1450.97 Q787.669 1450.39 789.706 1450.39 Q795.077 1450.39 798.271 1453.08 Q801.465 1455.77 801.465 1460.26 Q801.465 1462.39 800.655 1464.31 Q799.868 1466.2 797.762 1468.8 Q797.183 1469.47 794.081 1472.69 Q790.979 1475.88 785.331 1481.64 Z" fill="#000000" fill-rule="evenodd" fill-opacity="1" /><path clip-path="url(#clip680)" d="M811.512 1451.02 L829.868 1451.02 L829.868 1454.96 L815.794 1454.96 L815.794 1463.43 Q816.813 1463.08 817.831 1462.92 Q818.85 1462.73 819.868 1462.73 Q825.655 1462.73 829.035 1465.9 Q832.414 1469.08 832.414 1474.49 Q832.414 1480.07 828.942 1483.17 Q825.47 1486.25 819.151 1486.25 Q816.975 1486.25 814.706 1485.88 Q812.461 1485.51 810.053 1484.77 L810.053 1480.07 Q812.137 1481.2 814.359 1481.76 Q816.581 1482.32 819.058 1482.32 Q823.063 1482.32 825.4 1480.21 Q827.738 1478.1 827.738 1474.49 Q827.738 1470.88 825.4 1468.77 Q823.063 1466.67 819.058 1466.67 Q817.183 1466.67 815.308 1467.08 Q813.456 1467.5 811.512 1468.38 L811.512 1451.02 Z" fill="#000000" fill-rule="evenodd" fill-opacity="1" /><path clip-path="url(#clip680)" d="M1248.61 1454.1 Q1245 1454.1 1243.17 1457.66 Q1241.37 1461.2 1241.37 1468.33 Q1241.37 1475.44 1243.17 1479.01 Q1245 1482.55 1248.61 1482.55 Q1252.25 1482.55 1254.05 1479.01 Q1255.88 1475.44 1255.88 1468.33 Q1255.88 1461.2 1254.05 1457.66 Q1252.25 1454.1 1248.61 1454.1 M1248.61 1450.39 Q1254.42 1450.39 1257.48 1455 Q1260.56 1459.58 1260.56 1468.33 Q1260.56 1477.06 1257.48 1481.67 Q1254.42 1486.25 1248.61 1486.25 Q1242.8 1486.25 1239.73 1481.67 Q1236.67 1477.06 1236.67 1468.33 Q1236.67 1459.58 1239.73 1455 Q1242.8 1450.39 1248.61 1450.39 Z" fill="#000000" fill-rule="evenodd" fill-opacity="1" /><path clip-path="url(#clip680)" d="M1268.78 1479.7 L1273.66 1479.7 L1273.66 1485.58 L1268.78 1485.58 L1268.78 1479.7 Z" fill="#000000" fill-rule="evenodd" fill-opacity="1" /><path clip-path="url(#clip680)" d="M1283.89 1451.02 L1302.25 1451.02 L1302.25 1454.96 L1288.17 1454.96 L1288.17 1463.43 Q1289.19 1463.08 1290.21 1462.92 Q1291.23 1462.73 1292.25 1462.73 Q1298.04 1462.73 1301.42 1465.9 Q1304.79 1469.08 1304.79 1474.49 Q1304.79 1480.07 1301.32 1483.17 Q1297.85 1486.25 1291.53 1486.25 Q1289.36 1486.25 1287.09 1485.88 Q1284.84 1485.51 1282.43 1484.77 L1282.43 1480.07 Q1284.52 1481.2 1286.74 1481.76 Q1288.96 1482.32 1291.44 1482.32 Q1295.44 1482.32 1297.78 1480.21 Q1300.12 1478.1 1300.12 1474.49 Q1300.12 1470.88 1297.78 1468.77 Q1295.44 1466.67 1291.44 1466.67 Q1289.56 1466.67 1287.69 1467.08 Q1285.84 1467.5 1283.89 1468.38 L1283.89 1451.02 Z" fill="#000000" fill-rule="evenodd" fill-opacity="1" /><path clip-path="url(#clip680)" d="M1324.01 1454.1 Q1320.4 1454.1 1318.57 1457.66 Q1316.76 1461.2 1316.76 1468.33 Q1316.76 1475.44 1318.57 1479.01 Q1320.4 1482.55 1324.01 1482.55 Q1327.64 1482.55 1329.45 1479.01 Q1331.28 1475.44 1331.28 1468.33 Q1331.28 1461.2 1329.45 1457.66 Q1327.64 1454.1 1324.01 1454.1 M1324.01 1450.39 Q1329.82 1450.39 1332.87 1455 Q1335.95 1459.58 1335.95 1468.33 Q1335.95 1477.06 1332.87 1481.67 Q1329.82 1486.25 1324.01 1486.25 Q1318.2 1486.25 1315.12 1481.67 Q1312.06 1477.06 1312.06 1468.33 Q1312.06 1459.58 1315.12 1455 Q1318.2 1450.39 1324.01 1450.39 Z" fill="#000000" fill-rule="evenodd" fill-opacity="1" /><path clip-path="url(#clip680)" d="M1752.15 1454.1 Q1748.54 1454.1 1746.71 1457.66 Q1744.91 1461.2 1744.91 1468.33 Q1744.91 1475.44 1746.71 1479.01 Q1748.54 1482.55 1752.15 1482.55 Q1755.79 1482.55 1757.59 1479.01 Q1759.42 1475.44 1759.42 1468.33 Q1759.42 1461.2 1757.59 1457.66 Q1755.79 1454.1 1752.15 1454.1 M1752.15 1450.39 Q1757.96 1450.39 1761.02 1455 Q1764.1 1459.58 1764.1 1468.33 Q1764.1 1477.06 1761.02 1481.67 Q1757.96 1486.25 1752.15 1486.25 Q1746.34 1486.25 1743.26 1481.67 Q1740.21 1477.06 1740.21 1468.33 Q1740.21 1459.58 1743.26 1455 Q1746.34 1450.39 1752.15 1450.39 Z" fill="#000000" fill-rule="evenodd" fill-opacity="1" /><path clip-path="url(#clip680)" d="M1772.31 1479.7 L1777.2 1479.7 L1777.2 1485.58 L1772.31 1485.58 L1772.31 1479.7 Z" fill="#000000" fill-rule="evenodd" fill-opacity="1" /><path clip-path="url(#clip680)" d="M1786.2 1451.02 L1808.43 1451.02 L1808.43 1453.01 L1795.88 1485.58 L1790.99 1485.58 L1802.8 1454.96 L1786.2 1454.96 L1786.2 1451.02 Z" fill="#000000" fill-rule="evenodd" fill-opacity="1" /><path clip-path="url(#clip680)" d="M1817.59 1451.02 L1835.95 1451.02 L1835.95 1454.96 L1821.87 1454.96 L1821.87 1463.43 Q1822.89 1463.08 1823.91 1462.92 Q1824.93 1462.73 1825.95 1462.73 Q1831.74 1462.73 1835.11 1465.9 Q1838.49 1469.08 1838.49 1474.49 Q1838.49 1480.07 1835.02 1483.17 Q1831.55 1486.25 1825.23 1486.25 Q1823.05 1486.25 1820.79 1485.88 Q1818.54 1485.51 1816.13 1484.77 L1816.13 1480.07 Q1818.22 1481.2 1820.44 1481.76 Q1822.66 1482.32 1825.14 1482.32 Q1829.14 1482.32 1831.48 1480.21 Q1833.82 1478.1 1833.82 1474.49 Q1833.82 1470.88 1831.48 1468.77 Q1829.14 1466.67 1825.14 1466.67 Q1823.26 1466.67 1821.39 1467.08 Q1819.54 1467.5 1817.59 1468.38 L1817.59 1451.02 Z" fill="#000000" fill-rule="evenodd" fill-opacity="1" /><path clip-path="url(#clip680)" d="M2244.46 1481.64 L2252.1 1481.64 L2252.1 1455.28 L2243.79 1456.95 L2243.79 1452.69 L2252.06 1451.02 L2256.73 1451.02 L2256.73 1481.64 L2264.37 1481.64 L2264.37 1485.58 L2244.46 1485.58 L2244.46 1481.64 Z" fill="#000000" fill-rule="evenodd" fill-opacity="1" /><path clip-path="url(#clip680)" d="M2273.81 1479.7 L2278.7 1479.7 L2278.7 1485.58 L2273.81 1485.58 L2273.81 1479.7 Z" fill="#000000" fill-rule="evenodd" fill-opacity="1" /><path clip-path="url(#clip680)" d="M2298.88 1454.1 Q2295.27 1454.1 2293.44 1457.66 Q2291.64 1461.2 2291.64 1468.33 Q2291.64 1475.44 2293.44 1479.01 Q2295.27 1482.55 2298.88 1482.55 Q2302.52 1482.55 2304.32 1479.01 Q2306.15 1475.44 2306.15 1468.33 Q2306.15 1461.2 2304.32 1457.66 Q2302.52 1454.1 2298.88 1454.1 M2298.88 1450.39 Q2304.69 1450.39 2307.75 1455 Q2310.83 1459.58 2310.83 1468.33 Q2310.83 1477.06 2307.75 1481.67 Q2304.69 1486.25 2298.88 1486.25 Q2293.07 1486.25 2290 1481.67 Q2286.94 1477.06 2286.94 1468.33 Q2286.94 1459.58 2290 1455 Q2293.07 1450.39 2298.88 1450.39 Z" fill="#000000" fill-rule="evenodd" fill-opacity="1" /><path clip-path="url(#clip680)" d="M2329.05 1454.1 Q2325.43 1454.1 2323.61 1457.66 Q2321.8 1461.2 2321.8 1468.33 Q2321.8 1475.44 2323.61 1479.01 Q2325.43 1482.55 2329.05 1482.55 Q2332.68 1482.55 2334.49 1479.01 Q2336.31 1475.44 2336.31 1468.33 Q2336.31 1461.2 2334.49 1457.66 Q2332.68 1454.1 2329.05 1454.1 M2329.05 1450.39 Q2334.86 1450.39 2337.91 1455 Q2340.99 1459.58 2340.99 1468.33 Q2340.99 1477.06 2337.91 1481.67 Q2334.86 1486.25 2329.05 1486.25 Q2323.24 1486.25 2320.16 1481.67 Q2317.1 1477.06 2317.1 1468.33 Q2317.1 1459.58 2320.16 1455 Q2323.24 1450.39 2329.05 1450.39 Z" fill="#000000" fill-rule="evenodd" fill-opacity="1" /><path clip-path="url(#clip680)" d="M1038.1 1524.18 L1038.1 1530.96 Q1034.85 1527.94 1031.16 1526.44 Q1027.5 1524.95 1023.36 1524.95 Q1015.21 1524.95 1010.88 1529.95 Q1006.55 1534.91 1006.55 1544.33 Q1006.55 1553.72 1010.88 1558.72 Q1015.21 1563.68 1023.36 1563.68 Q1027.5 1563.68 1031.16 1562.19 Q1034.85 1560.69 1038.1 1557.67 L1038.1 1564.38 Q1034.72 1566.68 1030.93 1567.82 Q1027.18 1568.97 1022.98 1568.97 Q1012.19 1568.97 1005.98 1562.38 Q999.775 1555.76 999.775 1544.33 Q999.775 1532.87 1005.98 1526.28 Q1012.19 1519.66 1022.98 1519.66 Q1027.24 1519.66 1031 1520.81 Q1034.79 1521.92 1038.1 1524.18 Z" fill="#000000" fill-rule="evenodd" fill-opacity="1" /><path clip-path="url(#clip680)" d="M1061.59 1536.5 Q1056.88 1536.5 1054.14 1540.19 Q1051.4 1543.85 1051.4 1550.25 Q1051.4 1556.65 1054.11 1560.34 Q1056.84 1564 1061.59 1564 Q1066.26 1564 1069 1560.31 Q1071.74 1556.62 1071.74 1550.25 Q1071.74 1543.92 1069 1540.23 Q1066.26 1536.5 1061.59 1536.5 M1061.59 1531.54 Q1069.22 1531.54 1073.59 1536.5 Q1077.95 1541.47 1077.95 1550.25 Q1077.95 1559 1073.59 1564 Q1069.22 1568.97 1061.59 1568.97 Q1053.92 1568.97 1049.55 1564 Q1045.23 1559 1045.23 1550.25 Q1045.23 1541.47 1049.55 1536.5 Q1053.92 1531.54 1061.59 1531.54 Z" fill="#000000" fill-rule="evenodd" fill-opacity="1" /><path clip-path="url(#clip680)" d="M1087.05 1553.98 L1087.05 1532.4 L1092.91 1532.4 L1092.91 1553.75 Q1092.91 1558.81 1094.88 1561.36 Q1096.85 1563.87 1100.8 1563.87 Q1105.54 1563.87 1108.28 1560.85 Q1111.05 1557.83 1111.05 1552.61 L1111.05 1532.4 L1116.9 1532.4 L1116.9 1568.04 L1111.05 1568.04 L1111.05 1562.57 Q1108.91 1565.82 1106.08 1567.41 Q1103.28 1568.97 1099.56 1568.97 Q1093.41 1568.97 1090.23 1565.15 Q1087.05 1561.33 1087.05 1553.98 M1101.79 1531.54 L1101.79 1531.54 Z" fill="#000000" fill-rule="evenodd" fill-opacity="1" /><path clip-path="url(#clip680)" d="M1134.63 1562.7 L1134.63 1581.6 L1128.74 1581.6 L1128.74 1532.4 L1134.63 1532.4 L1134.63 1537.81 Q1136.48 1534.62 1139.28 1533.1 Q1142.11 1531.54 1146.03 1531.54 Q1152.52 1531.54 1156.56 1536.69 Q1160.64 1541.85 1160.64 1550.25 Q1160.64 1558.65 1156.56 1563.81 Q1152.52 1568.97 1146.03 1568.97 Q1142.11 1568.97 1139.28 1567.44 Q1136.48 1565.88 1134.63 1562.7 M1154.56 1550.25 Q1154.56 1543.79 1151.88 1540.13 Q1149.24 1536.44 1144.59 1536.44 Q1139.95 1536.44 1137.27 1540.13 Q1134.63 1543.79 1134.63 1550.25 Q1134.63 1556.71 1137.27 1560.4 Q1139.95 1564.07 1144.59 1564.07 Q1149.24 1564.07 1151.88 1560.4 Q1154.56 1556.71 1154.56 1550.25 Z" fill="#000000" fill-rule="evenodd" fill-opacity="1" /><path clip-path="url(#clip680)" d="M1170.34 1518.52 L1176.2 1518.52 L1176.2 1568.04 L1170.34 1568.04 L1170.34 1518.52 Z" fill="#000000" fill-rule="evenodd" fill-opacity="1" /><path clip-path="url(#clip680)" d="M1188.45 1532.4 L1194.31 1532.4 L1194.31 1568.04 L1188.45 1568.04 L1188.45 1532.4 M1188.45 1518.52 L1194.31 1518.52 L1194.31 1525.93 L1188.45 1525.93 L1188.45 1518.52 Z" fill="#000000" fill-rule="evenodd" fill-opacity="1" /><path clip-path="url(#clip680)" d="M1236.2 1546.53 L1236.2 1568.04 L1230.34 1568.04 L1230.34 1546.72 Q1230.34 1541.66 1228.37 1539.14 Q1226.39 1536.63 1222.45 1536.63 Q1217.7 1536.63 1214.97 1539.65 Q1212.23 1542.68 1212.23 1547.9 L1212.23 1568.04 L1206.34 1568.04 L1206.34 1532.4 L1212.23 1532.4 L1212.23 1537.93 Q1214.33 1534.72 1217.16 1533.13 Q1220.03 1531.54 1223.75 1531.54 Q1229.9 1531.54 1233.05 1535.36 Q1236.2 1539.14 1236.2 1546.53 Z" fill="#000000" fill-rule="evenodd" fill-opacity="1" /><path clip-path="url(#clip680)" d="M1271.34 1549.81 Q1271.34 1543.44 1268.69 1539.94 Q1266.08 1536.44 1261.34 1536.44 Q1256.63 1536.44 1253.99 1539.94 Q1251.38 1543.44 1251.38 1549.81 Q1251.38 1556.14 1253.99 1559.64 Q1256.63 1563.14 1261.34 1563.14 Q1266.08 1563.14 1268.69 1559.64 Q1271.34 1556.14 1271.34 1549.81 M1277.19 1563.62 Q1277.19 1572.72 1273.15 1577.15 Q1269.11 1581.6 1260.77 1581.6 Q1257.68 1581.6 1254.94 1581.13 Q1252.21 1580.68 1249.63 1579.72 L1249.63 1574.03 Q1252.21 1575.43 1254.72 1576.1 Q1257.24 1576.76 1259.85 1576.76 Q1265.61 1576.76 1268.47 1573.74 Q1271.34 1570.75 1271.34 1564.67 L1271.34 1561.77 Q1269.52 1564.92 1266.69 1566.48 Q1263.86 1568.04 1259.91 1568.04 Q1253.35 1568.04 1249.34 1563.05 Q1245.33 1558.05 1245.33 1549.81 Q1245.33 1541.53 1249.34 1536.53 Q1253.35 1531.54 1259.91 1531.54 Q1263.86 1531.54 1266.69 1533.1 Q1269.52 1534.66 1271.34 1537.81 L1271.34 1532.4 L1277.19 1532.4 L1277.19 1563.62 Z" fill="#000000" fill-rule="evenodd" fill-opacity="1" /><path clip-path="url(#clip680)" d="M1332.7 1533.45 L1332.7 1538.98 Q1330.22 1537.71 1327.54 1537.07 Q1324.87 1536.44 1322.01 1536.44 Q1317.65 1536.44 1315.45 1537.77 Q1313.29 1539.11 1313.29 1541.79 Q1313.29 1543.82 1314.85 1545 Q1316.4 1546.15 1321.12 1547.2 L1323.12 1547.64 Q1329.36 1548.98 1331.97 1551.43 Q1334.61 1553.85 1334.61 1558.21 Q1334.61 1563.17 1330.66 1566.07 Q1326.75 1568.97 1319.87 1568.97 Q1317.01 1568.97 1313.89 1568.39 Q1310.8 1567.85 1307.37 1566.74 L1307.37 1560.69 Q1310.61 1562.38 1313.76 1563.24 Q1316.91 1564.07 1320 1564.07 Q1324.14 1564.07 1326.37 1562.66 Q1328.6 1561.23 1328.6 1558.65 Q1328.6 1556.27 1326.97 1554.99 Q1325.38 1553.72 1319.94 1552.54 L1317.9 1552.07 Q1312.46 1550.92 1310.04 1548.56 Q1307.62 1546.18 1307.62 1542.04 Q1307.62 1537.01 1311.19 1534.27 Q1314.75 1531.54 1321.31 1531.54 Q1324.55 1531.54 1327.42 1532.01 Q1330.28 1532.49 1332.7 1533.45 Z" fill="#000000" fill-rule="evenodd" fill-opacity="1" /><path clip-path="url(#clip680)" d="M1349.73 1522.27 L1349.73 1532.4 L1361.79 1532.4 L1361.79 1536.95 L1349.73 1536.95 L1349.73 1556.3 Q1349.73 1560.66 1350.91 1561.9 Q1352.12 1563.14 1355.78 1563.14 L1361.79 1563.14 L1361.79 1568.04 L1355.78 1568.04 Q1349 1568.04 1346.42 1565.53 Q1343.84 1562.98 1343.84 1556.3 L1343.84 1536.95 L1339.54 1536.95 L1339.54 1532.4 L1343.84 1532.4 L1343.84 1522.27 L1349.73 1522.27 Z" fill="#000000" fill-rule="evenodd" fill-opacity="1" /><path clip-path="url(#clip680)" d="M1390.15 1537.87 Q1389.16 1537.3 1387.99 1537.04 Q1386.84 1536.76 1385.44 1536.76 Q1380.48 1536.76 1377.8 1540 Q1375.16 1543.22 1375.16 1549.27 L1375.16 1568.04 L1369.27 1568.04 L1369.27 1532.4 L1375.16 1532.4 L1375.16 1537.93 Q1377.01 1534.69 1379.97 1533.13 Q1382.93 1531.54 1387.16 1531.54 Q1387.76 1531.54 1388.5 1531.63 Q1389.23 1531.7 1390.12 1531.85 L1390.15 1537.87 Z" fill="#000000" fill-rule="evenodd" fill-opacity="1" /><path clip-path="url(#clip680)" d="M1425.35 1548.76 L1425.35 1551.62 L1398.43 1551.62 Q1398.81 1557.67 1402.06 1560.85 Q1405.33 1564 1411.16 1564 Q1414.53 1564 1417.68 1563.17 Q1420.87 1562.35 1423.99 1560.69 L1423.99 1566.23 Q1420.83 1567.57 1417.52 1568.27 Q1414.21 1568.97 1410.81 1568.97 Q1402.28 1568.97 1397.28 1564 Q1392.32 1559.04 1392.32 1550.57 Q1392.32 1541.82 1397.03 1536.69 Q1401.77 1531.54 1409.79 1531.54 Q1416.98 1531.54 1421.15 1536.18 Q1425.35 1540.8 1425.35 1548.76 M1419.5 1547.04 Q1419.43 1542.23 1416.79 1539.37 Q1414.18 1536.5 1409.85 1536.5 Q1404.95 1536.5 1401.99 1539.27 Q1399.06 1542.04 1398.62 1547.07 L1419.5 1547.04 Z" fill="#000000" fill-rule="evenodd" fill-opacity="1" /><path clip-path="url(#clip680)" d="M1464.6 1546.53 L1464.6 1568.04 L1458.74 1568.04 L1458.74 1546.72 Q1458.74 1541.66 1456.77 1539.14 Q1454.8 1536.63 1450.85 1536.63 Q1446.11 1536.63 1443.37 1539.65 Q1440.63 1542.68 1440.63 1547.9 L1440.63 1568.04 L1434.74 1568.04 L1434.74 1532.4 L1440.63 1532.4 L1440.63 1537.93 Q1442.73 1534.72 1445.57 1533.13 Q1448.43 1531.54 1452.15 1531.54 Q1458.3 1531.54 1461.45 1535.36 Q1464.6 1539.14 1464.6 1546.53 Z" fill="#000000" fill-rule="evenodd" fill-opacity="1" /><path clip-path="url(#clip680)" d="M1499.74 1549.81 Q1499.74 1543.44 1497.1 1539.94 Q1494.49 1536.44 1489.74 1536.44 Q1485.03 1536.44 1482.39 1539.94 Q1479.78 1543.44 1479.78 1549.81 Q1479.78 1556.14 1482.39 1559.64 Q1485.03 1563.14 1489.74 1563.14 Q1494.49 1563.14 1497.1 1559.64 Q1499.74 1556.14 1499.74 1549.81 M1505.59 1563.62 Q1505.59 1572.72 1501.55 1577.15 Q1497.51 1581.6 1489.17 1581.6 Q1486.08 1581.6 1483.35 1581.13 Q1480.61 1580.68 1478.03 1579.72 L1478.03 1574.03 Q1480.61 1575.43 1483.12 1576.1 Q1485.64 1576.76 1488.25 1576.76 Q1494.01 1576.76 1496.87 1573.74 Q1499.74 1570.75 1499.74 1564.67 L1499.74 1561.77 Q1497.92 1564.92 1495.09 1566.48 Q1492.26 1568.04 1488.31 1568.04 Q1481.75 1568.04 1477.74 1563.05 Q1473.73 1558.05 1473.73 1549.81 Q1473.73 1541.53 1477.74 1536.53 Q1481.75 1531.54 1488.31 1531.54 Q1492.26 1531.54 1495.09 1533.1 Q1497.92 1534.66 1499.74 1537.81 L1499.74 1532.4 L1505.59 1532.4 L1505.59 1563.62 Z" fill="#000000" fill-rule="evenodd" fill-opacity="1" /><path clip-path="url(#clip680)" d="M1523.45 1522.27 L1523.45 1532.4 L1535.51 1532.4 L1535.51 1536.95 L1523.45 1536.95 L1523.45 1556.3 Q1523.45 1560.66 1524.63 1561.9 Q1525.84 1563.14 1529.5 1563.14 L1535.51 1563.14 L1535.51 1568.04 L1529.5 1568.04 Q1522.72 1568.04 1520.14 1565.53 Q1517.56 1562.98 1517.56 1556.3 L1517.56 1536.95 L1513.26 1536.95 L1513.26 1532.4 L1517.56 1532.4 L1517.56 1522.27 L1523.45 1522.27 Z" fill="#000000" fill-rule="evenodd" fill-opacity="1" /><path clip-path="url(#clip680)" d="M1572.85 1546.53 L1572.85 1568.04 L1566.99 1568.04 L1566.99 1546.72 Q1566.99 1541.66 1565.02 1539.14 Q1563.04 1536.63 1559.1 1536.63 Q1554.36 1536.63 1551.62 1539.65 Q1548.88 1542.68 1548.88 1547.9 L1548.88 1568.04 L1542.99 1568.04 L1542.99 1518.52 L1548.88 1518.52 L1548.88 1537.93 Q1550.98 1534.72 1553.81 1533.13 Q1556.68 1531.54 1560.4 1531.54 Q1566.55 1531.54 1569.7 1535.36 Q1572.85 1539.14 1572.85 1546.53 Z" fill="#000000" fill-rule="evenodd" fill-opacity="1" /><polyline clip-path="url(#clip682)" style="stroke:#000000; stroke-linecap:butt; stroke-linejoin:round; stroke-width:2; stroke-opacity:0.1; fill:none" points="
  219.866,1388.85 2352.76,1388.85 
  "/>
<polyline clip-path="url(#clip682)" style="stroke:#000000; stroke-linecap:butt; stroke-linejoin:round; stroke-width:2; stroke-opacity:0.1; fill:none" points="
  219.866,1100.55 2352.76,1100.55 
  "/>
<polyline clip-path="url(#clip682)" style="stroke:#000000; stroke-linecap:butt; stroke-linejoin:round; stroke-width:2; stroke-opacity:0.1; fill:none" points="
  219.866,812.252 2352.76,812.252 
  "/>
<polyline clip-path="url(#clip682)" style="stroke:#000000; stroke-linecap:butt; stroke-linejoin:round; stroke-width:2; stroke-opacity:0.1; fill:none" points="
  219.866,523.953 2352.76,523.953 
  "/>
<polyline clip-path="url(#clip682)" style="stroke:#000000; stroke-linecap:butt; stroke-linejoin:round; stroke-width:2; stroke-opacity:0.1; fill:none" points="
  219.866,235.655 2352.76,235.655 
  "/>
<polyline clip-path="url(#clip680)" style="stroke:#000000; stroke-linecap:butt; stroke-linejoin:round; stroke-width:4; stroke-opacity:1; fill:none" points="
  219.866,1423.18 219.866,47.2441 
  "/>
<polyline clip-path="url(#clip680)" style="stroke:#000000; stroke-linecap:butt; stroke-linejoin:round; stroke-width:4; stroke-opacity:1; fill:none" points="
  219.866,1388.85 238.764,1388.85 
  "/>
<polyline clip-path="url(#clip680)" style="stroke:#000000; stroke-linecap:butt; stroke-linejoin:round; stroke-width:4; stroke-opacity:1; fill:none" points="
  219.866,1100.55 238.764,1100.55 
  "/>
<polyline clip-path="url(#clip680)" style="stroke:#000000; stroke-linecap:butt; stroke-linejoin:round; stroke-width:4; stroke-opacity:1; fill:none" points="
  219.866,812.252 238.764,812.252 
  "/>
<polyline clip-path="url(#clip680)" style="stroke:#000000; stroke-linecap:butt; stroke-linejoin:round; stroke-width:4; stroke-opacity:1; fill:none" points="
  219.866,523.953 238.764,523.953 
  "/>
<polyline clip-path="url(#clip680)" style="stroke:#000000; stroke-linecap:butt; stroke-linejoin:round; stroke-width:4; stroke-opacity:1; fill:none" points="
  219.866,235.655 238.764,235.655 
  "/>
<path clip-path="url(#clip680)" d="M126.691 1374.65 Q123.08 1374.65 121.251 1378.21 Q119.445 1381.76 119.445 1388.88 Q119.445 1395.99 121.251 1399.56 Q123.08 1403.1 126.691 1403.1 Q130.325 1403.1 132.13 1399.56 Q133.959 1395.99 133.959 1388.88 Q133.959 1381.76 132.13 1378.21 Q130.325 1374.65 126.691 1374.65 M126.691 1370.94 Q132.501 1370.94 135.556 1375.55 Q138.635 1380.13 138.635 1388.88 Q138.635 1397.61 135.556 1402.22 Q132.501 1406.8 126.691 1406.8 Q120.88 1406.8 117.802 1402.22 Q114.746 1397.61 114.746 1388.88 Q114.746 1380.13 117.802 1375.55 Q120.88 1370.94 126.691 1370.94 Z" fill="#000000" fill-rule="evenodd" fill-opacity="1" /><path clip-path="url(#clip680)" d="M146.853 1400.25 L151.737 1400.25 L151.737 1406.13 L146.853 1406.13 L146.853 1400.25 Z" fill="#000000" fill-rule="evenodd" fill-opacity="1" /><path clip-path="url(#clip680)" d="M171.922 1374.65 Q168.311 1374.65 166.482 1378.21 Q164.677 1381.76 164.677 1388.88 Q164.677 1395.99 166.482 1399.56 Q168.311 1403.1 171.922 1403.1 Q175.556 1403.1 177.362 1399.56 Q179.19 1395.99 179.19 1388.88 Q179.19 1381.76 177.362 1378.21 Q175.556 1374.65 171.922 1374.65 M171.922 1370.94 Q177.732 1370.94 180.788 1375.55 Q183.866 1380.13 183.866 1388.88 Q183.866 1397.61 180.788 1402.22 Q177.732 1406.8 171.922 1406.8 Q166.112 1406.8 163.033 1402.22 Q159.978 1397.61 159.978 1388.88 Q159.978 1380.13 163.033 1375.55 Q166.112 1370.94 171.922 1370.94 Z" fill="#000000" fill-rule="evenodd" fill-opacity="1" /><path clip-path="url(#clip680)" d="M128.288 1086.35 Q124.677 1086.35 122.848 1089.91 Q121.043 1093.46 121.043 1100.59 Q121.043 1107.69 122.848 1111.26 Q124.677 1114.8 128.288 1114.8 Q131.922 1114.8 133.728 1111.26 Q135.556 1107.69 135.556 1100.59 Q135.556 1093.46 133.728 1089.91 Q131.922 1086.35 128.288 1086.35 M128.288 1082.65 Q134.098 1082.65 137.154 1087.25 Q140.232 1091.84 140.232 1100.59 Q140.232 1109.31 137.154 1113.92 Q134.098 1118.5 128.288 1118.5 Q122.478 1118.5 119.399 1113.92 Q116.343 1109.31 116.343 1100.59 Q116.343 1091.84 119.399 1087.25 Q122.478 1082.65 128.288 1082.65 Z" fill="#000000" fill-rule="evenodd" fill-opacity="1" /><path clip-path="url(#clip680)" d="M148.45 1111.95 L153.334 1111.95 L153.334 1117.83 L148.45 1117.83 L148.45 1111.95 Z" fill="#000000" fill-rule="evenodd" fill-opacity="1" /><path clip-path="url(#clip680)" d="M167.547 1113.9 L183.866 1113.9 L183.866 1117.83 L161.922 1117.83 L161.922 1113.9 Q164.584 1111.14 169.167 1106.51 Q173.774 1101.86 174.954 1100.52 Q177.2 1097.99 178.079 1096.26 Q178.982 1094.5 178.982 1092.81 Q178.982 1090.05 177.038 1088.32 Q175.116 1086.58 172.014 1086.58 Q169.815 1086.58 167.362 1087.35 Q164.931 1088.11 162.153 1089.66 L162.153 1084.94 Q164.977 1083.8 167.431 1083.22 Q169.885 1082.65 171.922 1082.65 Q177.292 1082.65 180.487 1085.33 Q183.681 1088.02 183.681 1092.51 Q183.681 1094.64 182.871 1096.56 Q182.084 1098.46 179.977 1101.05 Q179.399 1101.72 176.297 1104.94 Q173.195 1108.13 167.547 1113.9 Z" fill="#000000" fill-rule="evenodd" fill-opacity="1" /><path clip-path="url(#clip680)" d="M126.205 798.051 Q122.593 798.051 120.765 801.616 Q118.959 805.157 118.959 812.287 Q118.959 819.393 120.765 822.958 Q122.593 826.5 126.205 826.5 Q129.839 826.5 131.644 822.958 Q133.473 819.393 133.473 812.287 Q133.473 805.157 131.644 801.616 Q129.839 798.051 126.205 798.051 M126.205 794.347 Q132.015 794.347 135.07 798.954 Q138.149 803.537 138.149 812.287 Q138.149 821.014 135.07 825.62 Q132.015 830.204 126.205 830.204 Q120.394 830.204 117.316 825.62 Q114.26 821.014 114.26 812.287 Q114.26 803.537 117.316 798.954 Q120.394 794.347 126.205 794.347 Z" fill="#000000" fill-rule="evenodd" fill-opacity="1" /><path clip-path="url(#clip680)" d="M146.366 823.653 L151.251 823.653 L151.251 829.532 L146.366 829.532 L146.366 823.653 Z" fill="#000000" fill-rule="evenodd" fill-opacity="1" /><path clip-path="url(#clip680)" d="M174.283 799.046 L162.477 817.495 L174.283 817.495 L174.283 799.046 M173.056 794.972 L178.936 794.972 L178.936 817.495 L183.866 817.495 L183.866 821.384 L178.936 821.384 L178.936 829.532 L174.283 829.532 L174.283 821.384 L158.681 821.384 L158.681 816.87 L173.056 794.972 Z" fill="#000000" fill-rule="evenodd" fill-opacity="1" /><path clip-path="url(#clip680)" d="M126.529 509.752 Q122.918 509.752 121.089 513.317 Q119.283 516.859 119.283 523.988 Q119.283 531.095 121.089 534.659 Q122.918 538.201 126.529 538.201 Q130.163 538.201 131.968 534.659 Q133.797 531.095 133.797 523.988 Q133.797 516.859 131.968 513.317 Q130.163 509.752 126.529 509.752 M126.529 506.048 Q132.339 506.048 135.394 510.655 Q138.473 515.238 138.473 523.988 Q138.473 532.715 135.394 537.321 Q132.339 541.905 126.529 541.905 Q120.718 541.905 117.64 537.321 Q114.584 532.715 114.584 523.988 Q114.584 515.238 117.64 510.655 Q120.718 506.048 126.529 506.048 Z" fill="#000000" fill-rule="evenodd" fill-opacity="1" /><path clip-path="url(#clip680)" d="M146.691 535.354 L151.575 535.354 L151.575 541.233 L146.691 541.233 L146.691 535.354 Z" fill="#000000" fill-rule="evenodd" fill-opacity="1" /><path clip-path="url(#clip680)" d="M172.339 522.09 Q169.19 522.09 167.339 524.243 Q165.51 526.396 165.51 530.146 Q165.51 533.872 167.339 536.048 Q169.19 538.201 172.339 538.201 Q175.487 538.201 177.315 536.048 Q179.167 533.872 179.167 530.146 Q179.167 526.396 177.315 524.243 Q175.487 522.09 172.339 522.09 M181.621 507.437 L181.621 511.697 Q179.862 510.863 178.056 510.423 Q176.274 509.984 174.514 509.984 Q169.885 509.984 167.431 513.109 Q165.001 516.234 164.653 522.553 Q166.019 520.539 168.079 519.474 Q170.139 518.386 172.616 518.386 Q177.825 518.386 180.834 521.558 Q183.866 524.706 183.866 530.146 Q183.866 535.47 180.718 538.687 Q177.57 541.905 172.339 541.905 Q166.343 541.905 163.172 537.321 Q160.001 532.715 160.001 523.988 Q160.001 515.794 163.89 510.933 Q167.778 506.048 174.329 506.048 Q176.089 506.048 177.871 506.396 Q179.676 506.743 181.621 507.437 Z" fill="#000000" fill-rule="evenodd" fill-opacity="1" /><path clip-path="url(#clip680)" d="M126.783 221.453 Q123.172 221.453 121.343 225.018 Q119.538 228.56 119.538 235.689 Q119.538 242.796 121.343 246.361 Q123.172 249.902 126.783 249.902 Q130.417 249.902 132.223 246.361 Q134.052 242.796 134.052 235.689 Q134.052 228.56 132.223 225.018 Q130.417 221.453 126.783 221.453 M126.783 217.75 Q132.593 217.75 135.649 222.356 Q138.728 226.939 138.728 235.689 Q138.728 244.416 135.649 249.023 Q132.593 253.606 126.783 253.606 Q120.973 253.606 117.894 249.023 Q114.839 244.416 114.839 235.689 Q114.839 226.939 117.894 222.356 Q120.973 217.75 126.783 217.75 Z" fill="#000000" fill-rule="evenodd" fill-opacity="1" /><path clip-path="url(#clip680)" d="M146.945 247.055 L151.829 247.055 L151.829 252.935 L146.945 252.935 L146.945 247.055 Z" fill="#000000" fill-rule="evenodd" fill-opacity="1" /><path clip-path="url(#clip680)" d="M172.014 236.523 Q168.681 236.523 166.76 238.305 Q164.862 240.087 164.862 243.212 Q164.862 246.337 166.76 248.12 Q168.681 249.902 172.014 249.902 Q175.348 249.902 177.269 248.12 Q179.19 246.314 179.19 243.212 Q179.19 240.087 177.269 238.305 Q175.371 236.523 172.014 236.523 M167.339 234.532 Q164.329 233.791 162.64 231.731 Q160.973 229.671 160.973 226.708 Q160.973 222.564 163.913 220.157 Q166.876 217.75 172.014 217.75 Q177.176 217.75 180.116 220.157 Q183.056 222.564 183.056 226.708 Q183.056 229.671 181.366 231.731 Q179.7 233.791 176.714 234.532 Q180.093 235.319 181.968 237.611 Q183.866 239.902 183.866 243.212 Q183.866 248.236 180.788 250.921 Q177.732 253.606 172.014 253.606 Q166.297 253.606 163.218 250.921 Q160.163 248.236 160.163 243.212 Q160.163 239.902 162.061 237.611 Q163.959 235.319 167.339 234.532 M165.626 227.148 Q165.626 229.833 167.292 231.338 Q168.982 232.842 172.014 232.842 Q175.024 232.842 176.714 231.338 Q178.426 229.833 178.426 227.148 Q178.426 224.463 176.714 222.958 Q175.024 221.453 172.014 221.453 Q168.982 221.453 167.292 222.958 Q165.626 224.463 165.626 227.148 Z" fill="#000000" fill-rule="evenodd" fill-opacity="1" /><path clip-path="url(#clip680)" d="M16.4842 1038.95 L16.4842 1029.37 L48.8219 1017.24 L16.4842 1005.05 L16.4842 995.474 L64.0042 995.474 L64.0042 1001.74 L22.277 1001.74 L54.8694 1014 L54.8694 1020.46 L22.277 1032.71 L64.0042 1032.71 L64.0042 1038.95 L16.4842 1038.95 Z" fill="#000000" fill-rule="evenodd" fill-opacity="1" /><path clip-path="url(#clip680)" d="M49.9359 983.57 L28.3562 983.57 L28.3562 977.714 L49.7131 977.714 Q54.7739 977.714 57.3202 975.74 Q59.8346 973.767 59.8346 969.82 Q59.8346 965.078 56.8109 962.34 Q53.7872 959.571 48.5673 959.571 L28.3562 959.571 L28.3562 953.715 L64.0042 953.715 L64.0042 959.571 L58.5296 959.571 Q61.7762 961.704 63.3676 964.537 Q64.9272 967.337 64.9272 971.061 Q64.9272 977.204 61.1078 980.387 Q57.2883 983.57 49.9359 983.57 M27.4968 968.833 L27.4968 968.833 Z" fill="#000000" fill-rule="evenodd" fill-opacity="1" /><path clip-path="url(#clip680)" d="M18.2347 935.859 L28.3562 935.859 L28.3562 923.796 L32.9077 923.796 L32.9077 935.859 L52.2594 935.859 Q56.6199 935.859 57.8613 934.681 Q59.1026 933.472 59.1026 929.812 L59.1026 923.796 L64.0042 923.796 L64.0042 929.812 Q64.0042 936.591 61.4897 939.169 Q58.9434 941.747 52.2594 941.747 L32.9077 941.747 L32.9077 946.044 L28.3562 946.044 L28.3562 941.747 L18.2347 941.747 L18.2347 935.859 Z" fill="#000000" fill-rule="evenodd" fill-opacity="1" /><path clip-path="url(#clip680)" d="M49.9359 916.698 L28.3562 916.698 L28.3562 910.842 L49.7131 910.842 Q54.7739 910.842 57.3202 908.868 Q59.8346 906.895 59.8346 902.948 Q59.8346 898.206 56.8109 895.469 Q53.7872 892.7 48.5673 892.7 L28.3562 892.7 L28.3562 886.843 L64.0042 886.843 L64.0042 892.7 L58.5296 892.7 Q61.7762 894.832 63.3676 897.665 Q64.9272 900.466 64.9272 904.19 Q64.9272 910.333 61.1078 913.515 Q57.2883 916.698 49.9359 916.698 M27.4968 901.962 L27.4968 901.962 Z" fill="#000000" fill-rule="evenodd" fill-opacity="1" /><path clip-path="url(#clip680)" d="M46.0847 858.579 Q46.0847 865.677 47.7079 868.414 Q49.3312 871.152 53.2461 871.152 Q56.3653 871.152 58.2114 869.115 Q60.0256 867.046 60.0256 863.513 Q60.0256 858.643 56.5881 855.715 Q53.1188 852.755 47.3897 852.755 L46.0847 852.755 L46.0847 858.579 M43.6657 846.898 L64.0042 846.898 L64.0042 852.755 L58.5933 852.755 Q61.8398 854.76 63.3994 857.752 Q64.9272 860.744 64.9272 865.072 Q64.9272 870.547 61.8716 873.793 Q58.7843 877.008 53.6281 877.008 Q47.6125 877.008 44.5569 872.998 Q41.5014 868.955 41.5014 860.967 L41.5014 852.755 L40.9285 852.755 Q36.8862 852.755 34.6901 855.428 Q32.4621 858.07 32.4621 862.876 Q32.4621 865.932 33.1941 868.828 Q33.9262 871.725 35.3903 874.398 L29.9795 874.398 Q28.7381 871.183 28.1334 868.16 Q27.4968 865.136 27.4968 862.271 Q27.4968 854.537 31.5072 850.718 Q35.5176 846.898 43.6657 846.898 Z" fill="#000000" fill-rule="evenodd" fill-opacity="1" /><path clip-path="url(#clip680)" d="M14.479 834.835 L14.479 828.979 L64.0042 828.979 L64.0042 834.835 L14.479 834.835 Z" fill="#000000" fill-rule="evenodd" fill-opacity="1" /><path clip-path="url(#clip680)" d="M28.3562 796.004 L28.3562 790.148 L64.0042 790.148 L64.0042 796.004 L28.3562 796.004 M14.479 796.004 L14.479 790.148 L21.895 790.148 L21.895 796.004 L14.479 796.004 Z" fill="#000000" fill-rule="evenodd" fill-opacity="1" /><path clip-path="url(#clip680)" d="M42.4881 748.262 L64.0042 748.262 L64.0042 754.118 L42.679 754.118 Q37.6183 754.118 35.1038 756.091 Q32.5894 758.065 32.5894 762.012 Q32.5894 766.754 35.6131 769.491 Q38.6368 772.229 43.8567 772.229 L64.0042 772.229 L64.0042 778.117 L28.3562 778.117 L28.3562 772.229 L33.8944 772.229 Q30.6797 770.128 29.0883 767.295 Q27.4968 764.431 27.4968 760.707 Q27.4968 754.564 31.3163 751.413 Q35.1038 748.262 42.4881 748.262 Z" fill="#000000" fill-rule="evenodd" fill-opacity="1" /><path clip-path="url(#clip680)" d="M14.479 718.534 L19.3487 718.534 L19.3487 724.136 Q19.3487 727.287 20.6219 728.528 Q21.895 729.737 25.2052 729.737 L28.3562 729.737 L28.3562 720.093 L32.9077 720.093 L32.9077 729.737 L64.0042 729.737 L64.0042 735.626 L32.9077 735.626 L32.9077 741.228 L28.3562 741.228 L28.3562 735.626 L25.8736 735.626 Q19.9216 735.626 17.2162 732.857 Q14.479 730.088 14.479 724.072 L14.479 718.534 Z" fill="#000000" fill-rule="evenodd" fill-opacity="1" /><path clip-path="url(#clip680)" d="M32.4621 699.819 Q32.4621 704.529 36.1542 707.267 Q39.8145 710.004 46.212 710.004 Q52.6095 710.004 56.3017 707.298 Q59.9619 704.561 59.9619 699.819 Q59.9619 695.14 56.2698 692.403 Q52.5777 689.665 46.212 689.665 Q39.8781 689.665 36.186 692.403 Q32.4621 695.14 32.4621 699.819 M27.4968 699.819 Q27.4968 692.18 32.4621 687.819 Q37.4273 683.459 46.212 683.459 Q54.9649 683.459 59.9619 687.819 Q64.9272 692.18 64.9272 699.819 Q64.9272 707.489 59.9619 711.85 Q54.9649 716.179 46.212 716.179 Q37.4273 716.179 32.4621 711.85 Q27.4968 707.489 27.4968 699.819 Z" fill="#000000" fill-rule="evenodd" fill-opacity="1" /><path clip-path="url(#clip680)" d="M33.8307 653.094 Q33.2578 654.081 33.0032 655.259 Q32.7167 656.405 32.7167 657.805 Q32.7167 662.77 35.9632 665.444 Q39.1779 668.086 45.2253 668.086 L64.0042 668.086 L64.0042 673.974 L28.3562 673.974 L28.3562 668.086 L33.8944 668.086 Q30.6479 666.24 29.0883 663.279 Q27.4968 660.319 27.4968 656.086 Q27.4968 655.481 27.5923 654.749 Q27.656 654.017 27.8151 653.126 L33.8307 653.094 Z" fill="#000000" fill-rule="evenodd" fill-opacity="1" /><path clip-path="url(#clip680)" d="M35.1993 620.343 Q31.2526 618.147 29.3747 615.091 Q27.4968 612.036 27.4968 607.898 Q27.4968 602.328 31.4117 599.304 Q35.2948 596.28 42.4881 596.28 L64.0042 596.28 L64.0042 602.169 L42.679 602.169 Q37.5546 602.169 35.072 603.983 Q32.5894 605.797 32.5894 609.521 Q32.5894 614.073 35.6131 616.714 Q38.6368 619.356 43.8567 619.356 L64.0042 619.356 L64.0042 625.244 L42.679 625.244 Q37.5228 625.244 35.072 627.059 Q32.5894 628.873 32.5894 632.66 Q32.5894 637.148 35.6449 639.79 Q38.6686 642.432 43.8567 642.432 L64.0042 642.432 L64.0042 648.32 L28.3562 648.32 L28.3562 642.432 L33.8944 642.432 Q30.616 640.427 29.0564 637.626 Q27.4968 634.825 27.4968 630.974 Q27.4968 627.09 29.4702 624.385 Q31.4436 621.648 35.1993 620.343 Z" fill="#000000" fill-rule="evenodd" fill-opacity="1" /><path clip-path="url(#clip680)" d="M46.0847 568.399 Q46.0847 575.496 47.7079 578.234 Q49.3312 580.971 53.2461 580.971 Q56.3653 580.971 58.2114 578.934 Q60.0256 576.865 60.0256 573.332 Q60.0256 568.462 56.5881 565.534 Q53.1188 562.574 47.3897 562.574 L46.0847 562.574 L46.0847 568.399 M43.6657 556.718 L64.0042 556.718 L64.0042 562.574 L58.5933 562.574 Q61.8398 564.579 63.3994 567.571 Q64.9272 570.563 64.9272 574.892 Q64.9272 580.366 61.8716 583.613 Q58.7843 586.827 53.6281 586.827 Q47.6125 586.827 44.5569 582.817 Q41.5014 578.775 41.5014 570.786 L41.5014 562.574 L40.9285 562.574 Q36.8862 562.574 34.6901 565.248 Q32.4621 567.889 32.4621 572.695 Q32.4621 575.751 33.1941 578.647 Q33.9262 581.544 35.3903 584.217 L29.9795 584.217 Q28.7381 581.003 28.1334 577.979 Q27.4968 574.955 27.4968 572.091 Q27.4968 564.356 31.5072 560.537 Q35.5176 556.718 43.6657 556.718 Z" fill="#000000" fill-rule="evenodd" fill-opacity="1" /><path clip-path="url(#clip680)" d="M18.2347 538.862 L28.3562 538.862 L28.3562 526.799 L32.9077 526.799 L32.9077 538.862 L52.2594 538.862 Q56.6199 538.862 57.8613 537.684 Q59.1026 536.475 59.1026 532.814 L59.1026 526.799 L64.0042 526.799 L64.0042 532.814 Q64.0042 539.594 61.4897 542.172 Q58.9434 544.75 52.2594 544.75 L32.9077 544.75 L32.9077 549.047 L28.3562 549.047 L28.3562 544.75 L18.2347 544.75 L18.2347 538.862 Z" fill="#000000" fill-rule="evenodd" fill-opacity="1" /><path clip-path="url(#clip680)" d="M28.3562 519.096 L28.3562 513.24 L64.0042 513.24 L64.0042 519.096 L28.3562 519.096 M14.479 519.096 L14.479 513.24 L21.895 513.24 L21.895 519.096 L14.479 519.096 Z" fill="#000000" fill-rule="evenodd" fill-opacity="1" /><path clip-path="url(#clip680)" d="M32.4621 487.172 Q32.4621 491.883 36.1542 494.62 Q39.8145 497.357 46.212 497.357 Q52.6095 497.357 56.3017 494.652 Q59.9619 491.915 59.9619 487.172 Q59.9619 482.493 56.2698 479.756 Q52.5777 477.019 46.212 477.019 Q39.8781 477.019 36.186 479.756 Q32.4621 482.493 32.4621 487.172 M27.4968 487.172 Q27.4968 479.533 32.4621 475.173 Q37.4273 470.812 46.212 470.812 Q54.9649 470.812 59.9619 475.173 Q64.9272 479.533 64.9272 487.172 Q64.9272 494.843 59.9619 499.203 Q54.9649 503.532 46.212 503.532 Q37.4273 503.532 32.4621 499.203 Q27.4968 494.843 27.4968 487.172 Z" fill="#000000" fill-rule="evenodd" fill-opacity="1" /><path clip-path="url(#clip680)" d="M42.4881 431.472 L64.0042 431.472 L64.0042 437.329 L42.679 437.329 Q37.6183 437.329 35.1038 439.302 Q32.5894 441.275 32.5894 445.222 Q32.5894 449.965 35.6131 452.702 Q38.6368 455.439 43.8567 455.439 L64.0042 455.439 L64.0042 461.327 L28.3562 461.327 L28.3562 455.439 L33.8944 455.439 Q30.6797 453.338 29.0883 450.506 Q27.4968 447.641 27.4968 443.917 Q27.4968 437.774 31.3163 434.623 Q35.1038 431.472 42.4881 431.472 Z" fill="#000000" fill-rule="evenodd" fill-opacity="1" /><path clip-path="url(#clip682)" d="
M280.231 1384.24 L481.447 1383.3 L682.663 1367.47 L883.879 1334.54 L1085.1 1265.19 L1286.31 1236.57 L1487.53 1146.6 L1688.74 1031.97 L1889.96 920.796 L2091.18 750.436 
  L2292.39 546.763 L2292.39 86.1857 L2091.18 309.105 L1889.96 528.865 L1688.74 684.829 L1487.53 859.232 L1286.31 1031.68 L1085.1 1101.54 L883.879 1202.01 L682.663 1265.69 
  L481.447 1330.37 L280.231 1347.11  Z
  " fill="#000000" fill-rule="evenodd" fill-opacity="0.3"/>
<polyline clip-path="url(#clip682)" style="stroke:#000000; stroke-linecap:butt; stroke-linejoin:round; stroke-width:4; stroke-opacity:1; fill:none" points="
  280.231,1372.36 481.447,1367.89 682.663,1334.68 883.879,1283.93 1085.1,1198.73 1286.31,1154.03 1487.53,1027.37 1688.74,889.754 1889.96,742.69 2091.18,537.017 
  2292.39,328.528 
  "/>
<path clip-path="url(#clip682)" d="
M280.231 1381.8 L481.447 1358.08 L682.663 1274.82 L883.879 1176.28 L1085.1 1077.62 L1286.31 986.175 L1487.53 937.894 L1688.74 899.161 L1889.96 855.18 L2091.18 844.754 
  L2292.39 797.232 L2292.39 345.311 L2091.18 364.918 L1889.96 393.929 L1688.74 447.201 L1487.53 499.011 L1286.31 583.301 L1085.1 696.455 L883.879 824.384 L682.663 1023.83 
  L481.447 1224.64 L280.231 1336.72  Z
  " fill="#ff0000" fill-rule="evenodd" fill-opacity="0.3"/>
<polyline clip-path="url(#clip682)" style="stroke:#ff0000; stroke-linecap:butt; stroke-linejoin:round; stroke-width:4; stroke-opacity:1; fill:none" points="
  280.231,1366 481.447,1306.1 682.663,1165.27 883.879,1016.23 1085.1,891.298 1286.31,800.636 1487.53,728.361 1688.74,674.497 1889.96,639.431 2091.18,610.179 
  2292.39,592.769 
  "/>
<path clip-path="url(#clip680)" d="
M290.963 248.629 L1144.22 248.629 L1144.22 93.1086 L290.963 93.1086  Z
  " fill="#ffffff" fill-rule="evenodd" fill-opacity="1"/>
<polyline clip-path="url(#clip680)" style="stroke:#000000; stroke-linecap:butt; stroke-linejoin:round; stroke-width:4; stroke-opacity:1; fill:none" points="
  290.963,248.629 1144.22,248.629 1144.22,93.1086 290.963,93.1086 290.963,248.629 
  "/>
<polyline clip-path="url(#clip680)" style="stroke:#000000; stroke-linecap:butt; stroke-linejoin:round; stroke-width:4; stroke-opacity:1; fill:none" points="
  314.963,144.949 458.963,144.949 
  "/>
<path clip-path="url(#clip680)" d="M488.588 158.293 L504.907 158.293 L504.907 162.229 L482.963 162.229 L482.963 158.293 Q485.625 155.539 490.208 150.909 Q494.814 146.256 495.995 144.914 Q498.24 142.391 499.12 140.655 Q500.023 138.895 500.023 137.206 Q500.023 134.451 498.078 132.715 Q496.157 130.979 493.055 130.979 Q490.856 130.979 488.402 131.743 Q485.972 132.507 483.194 134.057 L483.194 129.335 Q486.018 128.201 488.472 127.622 Q490.926 127.044 492.963 127.044 Q498.333 127.044 501.527 129.729 Q504.722 132.414 504.722 136.905 Q504.722 139.034 503.912 140.956 Q503.125 142.854 501.018 145.446 Q500.439 146.118 497.338 149.335 Q494.236 152.53 488.588 158.293 Z" fill="#000000" fill-rule="evenodd" fill-opacity="1" /><path clip-path="url(#clip680)" d="M518.981 131.511 L518.981 158.386 L524.629 158.386 Q531.782 158.386 535.092 155.145 Q538.425 151.905 538.425 144.914 Q538.425 137.969 535.092 134.752 Q531.782 131.511 524.629 131.511 L518.981 131.511 M514.305 127.669 L523.911 127.669 Q533.958 127.669 538.657 131.858 Q543.356 136.025 543.356 144.914 Q543.356 153.849 538.634 158.039 Q533.911 162.229 523.911 162.229 L514.305 162.229 L514.305 127.669 Z" fill="#000000" fill-rule="evenodd" fill-opacity="1" /><path clip-path="url(#clip680)" d="M584.351 137.298 L584.351 141.28 Q582.545 140.284 580.717 139.798 Q578.911 139.289 577.059 139.289 Q572.916 139.289 570.624 141.928 Q568.333 144.544 568.333 149.289 Q568.333 154.034 570.624 156.673 Q572.916 159.289 577.059 159.289 Q578.911 159.289 580.717 158.803 Q582.545 158.293 584.351 157.298 L584.351 161.233 Q582.569 162.067 580.647 162.483 Q578.749 162.9 576.596 162.9 Q570.74 162.9 567.291 159.219 Q563.842 155.539 563.842 149.289 Q563.842 142.946 567.314 139.312 Q570.809 135.678 576.874 135.678 Q578.842 135.678 580.717 136.095 Q582.592 136.488 584.351 137.298 Z" fill="#000000" fill-rule="evenodd" fill-opacity="1" /><path clip-path="url(#clip680)" d="M613.309 146.581 L613.309 162.229 L609.05 162.229 L609.05 146.719 Q609.05 143.039 607.615 141.21 Q606.18 139.382 603.309 139.382 Q599.86 139.382 597.869 141.581 Q595.879 143.78 595.879 147.576 L595.879 162.229 L591.596 162.229 L591.596 126.21 L595.879 126.21 L595.879 140.331 Q597.406 137.993 599.467 136.835 Q601.55 135.678 604.258 135.678 Q608.726 135.678 611.017 138.456 Q613.309 141.21 613.309 146.581 Z" fill="#000000" fill-rule="evenodd" fill-opacity="1" /><path clip-path="url(#clip680)" d="M633.587 149.196 Q628.425 149.196 626.434 150.377 Q624.443 151.557 624.443 154.405 Q624.443 156.673 625.925 158.016 Q627.429 159.335 629.999 159.335 Q633.54 159.335 635.67 156.835 Q637.823 154.312 637.823 150.145 L637.823 149.196 L633.587 149.196 M642.082 147.437 L642.082 162.229 L637.823 162.229 L637.823 158.293 Q636.365 160.655 634.189 161.789 Q632.013 162.9 628.865 162.9 Q624.883 162.9 622.522 160.678 Q620.184 158.432 620.184 154.682 Q620.184 150.307 623.101 148.085 Q626.041 145.863 631.851 145.863 L637.823 145.863 L637.823 145.446 Q637.823 142.507 635.878 140.909 Q633.957 139.289 630.462 139.289 Q628.24 139.289 626.133 139.821 Q624.027 140.354 622.082 141.419 L622.082 137.483 Q624.42 136.581 626.619 136.141 Q628.818 135.678 630.902 135.678 Q636.527 135.678 639.304 138.594 Q642.082 141.511 642.082 147.437 Z" fill="#000000" fill-rule="evenodd" fill-opacity="1" /><path clip-path="url(#clip680)" d="M660.901 139.289 Q657.476 139.289 655.485 141.974 Q653.494 144.636 653.494 149.289 Q653.494 153.942 655.462 156.627 Q657.452 159.289 660.901 159.289 Q664.304 159.289 666.295 156.604 Q668.286 153.918 668.286 149.289 Q668.286 144.682 666.295 141.997 Q664.304 139.289 660.901 139.289 M660.901 135.678 Q666.457 135.678 669.628 139.289 Q672.8 142.9 672.8 149.289 Q672.8 155.655 669.628 159.289 Q666.457 162.9 660.901 162.9 Q655.323 162.9 652.151 159.289 Q649.003 155.655 649.003 149.289 Q649.003 142.9 652.151 139.289 Q655.323 135.678 660.901 135.678 Z" fill="#000000" fill-rule="evenodd" fill-opacity="1" /><path clip-path="url(#clip680)" d="M684.073 128.942 L684.073 136.303 L692.846 136.303 L692.846 139.613 L684.073 139.613 L684.073 153.687 Q684.073 156.858 684.929 157.761 Q685.809 158.664 688.471 158.664 L692.846 158.664 L692.846 162.229 L688.471 162.229 Q683.54 162.229 681.665 160.4 Q679.79 158.548 679.79 153.687 L679.79 139.613 L676.665 139.613 L676.665 136.303 L679.79 136.303 L679.79 128.942 L684.073 128.942 Z" fill="#000000" fill-rule="evenodd" fill-opacity="1" /><path clip-path="url(#clip680)" d="M698.448 136.303 L702.707 136.303 L702.707 162.229 L698.448 162.229 L698.448 136.303 M698.448 126.21 L702.707 126.21 L702.707 131.604 L698.448 131.604 L698.448 126.21 Z" fill="#000000" fill-rule="evenodd" fill-opacity="1" /><path clip-path="url(#clip680)" d="M730.276 137.298 L730.276 141.28 Q728.471 140.284 726.642 139.798 Q724.836 139.289 722.984 139.289 Q718.841 139.289 716.549 141.928 Q714.258 144.544 714.258 149.289 Q714.258 154.034 716.549 156.673 Q718.841 159.289 722.984 159.289 Q724.836 159.289 726.642 158.803 Q728.471 158.293 730.276 157.298 L730.276 161.233 Q728.494 162.067 726.572 162.483 Q724.674 162.9 722.521 162.9 Q716.665 162.9 713.216 159.219 Q709.767 155.539 709.767 149.289 Q709.767 142.946 713.239 139.312 Q716.734 135.678 722.799 135.678 Q724.767 135.678 726.642 136.095 Q728.517 136.488 730.276 137.298 Z" fill="#000000" fill-rule="evenodd" fill-opacity="1" /><path clip-path="url(#clip680)" d="M752.753 126.21 L757.012 126.21 L757.012 162.229 L752.753 162.229 L752.753 126.21 Z" fill="#000000" fill-rule="evenodd" fill-opacity="1" /><path clip-path="url(#clip680)" d="M775.97 139.289 Q772.544 139.289 770.554 141.974 Q768.563 144.636 768.563 149.289 Q768.563 153.942 770.53 156.627 Q772.521 159.289 775.97 159.289 Q779.373 159.289 781.364 156.604 Q783.354 153.918 783.354 149.289 Q783.354 144.682 781.364 141.997 Q779.373 139.289 775.97 139.289 M775.97 135.678 Q781.526 135.678 784.697 139.289 Q787.868 142.9 787.868 149.289 Q787.868 155.655 784.697 159.289 Q781.526 162.9 775.97 162.9 Q770.392 162.9 767.22 159.289 Q764.072 155.655 764.072 149.289 Q764.072 142.9 767.22 139.289 Q770.392 135.678 775.97 135.678 Z" fill="#000000" fill-rule="evenodd" fill-opacity="1" /><path clip-path="url(#clip680)" d="M811.989 148.965 Q811.989 144.335 810.067 141.789 Q808.169 139.243 804.72 139.243 Q801.294 139.243 799.373 141.789 Q797.475 144.335 797.475 148.965 Q797.475 153.571 799.373 156.118 Q801.294 158.664 804.72 158.664 Q808.169 158.664 810.067 156.118 Q811.989 153.571 811.989 148.965 M816.248 159.011 Q816.248 165.631 813.308 168.849 Q810.368 172.09 804.303 172.09 Q802.058 172.09 800.067 171.742 Q798.077 171.418 796.202 170.724 L796.202 166.58 Q798.077 167.599 799.905 168.085 Q801.734 168.571 803.632 168.571 Q807.822 168.571 809.905 166.372 Q811.989 164.196 811.989 159.775 L811.989 157.668 Q810.669 159.96 808.609 161.094 Q806.549 162.229 803.678 162.229 Q798.91 162.229 795.993 158.594 Q793.077 154.96 793.077 148.965 Q793.077 142.946 795.993 139.312 Q798.91 135.678 803.678 135.678 Q806.549 135.678 808.609 136.812 Q810.669 137.946 811.989 140.238 L811.989 136.303 L816.248 136.303 L816.248 159.011 Z" fill="#000000" fill-rule="evenodd" fill-opacity="1" /><path clip-path="url(#clip680)" d="M825.021 136.303 L829.28 136.303 L829.28 162.229 L825.021 162.229 L825.021 136.303 M825.021 126.21 L829.28 126.21 L829.28 131.604 L825.021 131.604 L825.021 126.21 Z" fill="#000000" fill-rule="evenodd" fill-opacity="1" /><path clip-path="url(#clip680)" d="M854.72 137.067 L854.72 141.094 Q852.914 140.169 850.97 139.706 Q849.025 139.243 846.942 139.243 Q843.771 139.243 842.174 140.215 Q840.6 141.187 840.6 143.131 Q840.6 144.613 841.734 145.469 Q842.868 146.303 846.294 147.067 L847.752 147.391 Q852.289 148.363 854.187 150.145 Q856.109 151.905 856.109 155.076 Q856.109 158.687 853.238 160.793 Q850.391 162.9 845.391 162.9 Q843.308 162.9 841.039 162.483 Q838.794 162.09 836.294 161.28 L836.294 156.881 Q838.655 158.108 840.947 158.733 Q843.238 159.335 845.484 159.335 Q848.493 159.335 850.113 158.317 Q851.734 157.275 851.734 155.4 Q851.734 153.664 850.553 152.738 Q849.396 151.812 845.437 150.956 L843.956 150.608 Q839.998 149.775 838.238 148.062 Q836.479 146.326 836.479 143.317 Q836.479 139.659 839.072 137.669 Q841.664 135.678 846.433 135.678 Q848.794 135.678 850.877 136.025 Q852.961 136.372 854.72 137.067 Z" fill="#000000" fill-rule="evenodd" fill-opacity="1" /><path clip-path="url(#clip680)" d="M867.104 128.942 L867.104 136.303 L875.877 136.303 L875.877 139.613 L867.104 139.613 L867.104 153.687 Q867.104 156.858 867.961 157.761 Q868.84 158.664 871.502 158.664 L875.877 158.664 L875.877 162.229 L871.502 162.229 Q866.572 162.229 864.697 160.4 Q862.822 158.548 862.822 153.687 L862.822 139.613 L859.697 139.613 L859.697 136.303 L862.822 136.303 L862.822 128.942 L867.104 128.942 Z" fill="#000000" fill-rule="evenodd" fill-opacity="1" /><path clip-path="url(#clip680)" d="M881.479 136.303 L885.738 136.303 L885.738 162.229 L881.479 162.229 L881.479 136.303 M881.479 126.21 L885.738 126.21 L885.738 131.604 L881.479 131.604 L881.479 126.21 Z" fill="#000000" fill-rule="evenodd" fill-opacity="1" /><path clip-path="url(#clip680)" d="M913.308 137.298 L913.308 141.28 Q911.502 140.284 909.673 139.798 Q907.868 139.289 906.016 139.289 Q901.872 139.289 899.581 141.928 Q897.289 144.544 897.289 149.289 Q897.289 154.034 899.581 156.673 Q901.872 159.289 906.016 159.289 Q907.868 159.289 909.673 158.803 Q911.502 158.293 913.308 157.298 L913.308 161.233 Q911.525 162.067 909.604 162.483 Q907.706 162.9 905.553 162.9 Q899.696 162.9 896.247 159.219 Q892.798 155.539 892.798 149.289 Q892.798 142.946 896.271 139.312 Q899.766 135.678 905.831 135.678 Q907.798 135.678 909.673 136.095 Q911.548 136.488 913.308 137.298 Z" fill="#000000" fill-rule="evenodd" fill-opacity="1" /><path clip-path="url(#clip680)" d="M955.969 141.28 Q957.567 138.409 959.789 137.044 Q962.011 135.678 965.02 135.678 Q969.071 135.678 971.27 138.525 Q973.469 141.349 973.469 146.581 L973.469 162.229 L969.187 162.229 L969.187 146.719 Q969.187 142.993 967.867 141.187 Q966.548 139.382 963.84 139.382 Q960.529 139.382 958.608 141.581 Q956.687 143.78 956.687 147.576 L956.687 162.229 L952.405 162.229 L952.405 146.719 Q952.405 142.969 951.085 141.187 Q949.766 139.382 947.011 139.382 Q943.747 139.382 941.826 141.604 Q939.905 143.803 939.905 147.576 L939.905 162.229 L935.622 162.229 L935.622 136.303 L939.905 136.303 L939.905 140.331 Q941.363 137.946 943.4 136.812 Q945.437 135.678 948.238 135.678 Q951.062 135.678 953.03 137.113 Q955.02 138.548 955.969 141.28 Z" fill="#000000" fill-rule="evenodd" fill-opacity="1" /><path clip-path="url(#clip680)" d="M993.747 149.196 Q988.585 149.196 986.594 150.377 Q984.603 151.557 984.603 154.405 Q984.603 156.673 986.085 158.016 Q987.59 159.335 990.159 159.335 Q993.701 159.335 995.83 156.835 Q997.983 154.312 997.983 150.145 L997.983 149.196 L993.747 149.196 M1002.24 147.437 L1002.24 162.229 L997.983 162.229 L997.983 158.293 Q996.525 160.655 994.349 161.789 Q992.173 162.9 989.025 162.9 Q985.043 162.9 982.682 160.678 Q980.344 158.432 980.344 154.682 Q980.344 150.307 983.261 148.085 Q986.201 145.863 992.011 145.863 L997.983 145.863 L997.983 145.446 Q997.983 142.507 996.039 140.909 Q994.117 139.289 990.622 139.289 Q988.4 139.289 986.293 139.821 Q984.187 140.354 982.242 141.419 L982.242 137.483 Q984.58 136.581 986.779 136.141 Q988.978 135.678 991.062 135.678 Q996.687 135.678 999.464 138.594 Q1002.24 141.511 1002.24 147.437 Z" fill="#000000" fill-rule="evenodd" fill-opacity="1" /><path clip-path="url(#clip680)" d="M1015.14 158.34 L1015.14 172.09 L1010.85 172.09 L1010.85 136.303 L1015.14 136.303 L1015.14 140.238 Q1016.48 137.923 1018.52 136.812 Q1020.58 135.678 1023.42 135.678 Q1028.14 135.678 1031.08 139.428 Q1034.05 143.178 1034.05 149.289 Q1034.05 155.4 1031.08 159.15 Q1028.14 162.9 1023.42 162.9 Q1020.58 162.9 1018.52 161.789 Q1016.48 160.655 1015.14 158.34 M1029.63 149.289 Q1029.63 144.59 1027.68 141.928 Q1025.76 139.243 1022.38 139.243 Q1019 139.243 1017.06 141.928 Q1015.14 144.59 1015.14 149.289 Q1015.14 153.988 1017.06 156.673 Q1019 159.335 1022.38 159.335 Q1025.76 159.335 1027.68 156.673 Q1029.63 153.988 1029.63 149.289 Z" fill="#000000" fill-rule="evenodd" fill-opacity="1" /><path clip-path="url(#clip680)" d="M1057.64 137.067 L1057.64 141.094 Q1055.83 140.169 1053.89 139.706 Q1051.94 139.243 1049.86 139.243 Q1046.69 139.243 1045.09 140.215 Q1043.52 141.187 1043.52 143.131 Q1043.52 144.613 1044.65 145.469 Q1045.78 146.303 1049.21 147.067 L1050.67 147.391 Q1055.2 148.363 1057.1 150.145 Q1059.02 151.905 1059.02 155.076 Q1059.02 158.687 1056.15 160.793 Q1053.31 162.9 1048.31 162.9 Q1046.22 162.9 1043.95 162.483 Q1041.71 162.09 1039.21 161.28 L1039.21 156.881 Q1041.57 158.108 1043.86 158.733 Q1046.15 159.335 1048.4 159.335 Q1051.41 159.335 1053.03 158.317 Q1054.65 157.275 1054.65 155.4 Q1054.65 153.664 1053.47 152.738 Q1052.31 151.812 1048.35 150.956 L1046.87 150.608 Q1042.91 149.775 1041.15 148.062 Q1039.39 146.326 1039.39 143.317 Q1039.39 139.659 1041.99 137.669 Q1044.58 135.678 1049.35 135.678 Q1051.71 135.678 1053.79 136.025 Q1055.88 136.372 1057.64 137.067 Z" fill="#000000" fill-rule="evenodd" fill-opacity="1" /><polyline clip-path="url(#clip680)" style="stroke:#ff0000; stroke-linecap:butt; stroke-linejoin:round; stroke-width:4; stroke-opacity:1; fill:none" points="
  314.963,196.789 458.963,196.789 
  "/>
<path clip-path="url(#clip680)" d="M488.588 210.133 L504.907 210.133 L504.907 214.069 L482.963 214.069 L482.963 210.133 Q485.625 207.379 490.208 202.749 Q494.814 198.096 495.995 196.754 Q498.24 194.231 499.12 192.495 Q500.023 190.735 500.023 189.046 Q500.023 186.291 498.078 184.555 Q496.157 182.819 493.055 182.819 Q490.856 182.819 488.402 183.583 Q485.972 184.347 483.194 185.897 L483.194 181.175 Q486.018 180.041 488.472 179.462 Q490.926 178.884 492.963 178.884 Q498.333 178.884 501.527 181.569 Q504.722 184.254 504.722 188.745 Q504.722 190.874 503.912 192.796 Q503.125 194.694 501.018 197.286 Q500.439 197.958 497.338 201.175 Q494.236 204.37 488.588 210.133 Z" fill="#000000" fill-rule="evenodd" fill-opacity="1" /><path clip-path="url(#clip680)" d="M518.981 183.351 L518.981 210.226 L524.629 210.226 Q531.782 210.226 535.092 206.985 Q538.425 203.745 538.425 196.754 Q538.425 189.809 535.092 186.592 Q531.782 183.351 524.629 183.351 L518.981 183.351 M514.305 179.509 L523.911 179.509 Q533.958 179.509 538.657 183.698 Q543.356 187.865 543.356 196.754 Q543.356 205.689 538.634 209.879 Q533.911 214.069 523.911 214.069 L514.305 214.069 L514.305 179.509 Z" fill="#000000" fill-rule="evenodd" fill-opacity="1" /><path clip-path="url(#clip680)" d="M575.74 191.129 Q572.314 191.129 570.323 193.814 Q568.333 196.476 568.333 201.129 Q568.333 205.782 570.3 208.467 Q572.291 211.129 575.74 211.129 Q579.143 211.129 581.133 208.444 Q583.124 205.758 583.124 201.129 Q583.124 196.522 581.133 193.837 Q579.143 191.129 575.74 191.129 M575.74 187.518 Q581.295 187.518 584.467 191.129 Q587.638 194.74 587.638 201.129 Q587.638 207.495 584.467 211.129 Q581.295 214.74 575.74 214.74 Q570.161 214.74 566.99 211.129 Q563.842 207.495 563.842 201.129 Q563.842 194.74 566.99 191.129 Q570.161 187.518 575.74 187.518 Z" fill="#000000" fill-rule="evenodd" fill-opacity="1" /><path clip-path="url(#clip680)" d="M609.721 192.124 Q609.004 191.708 608.147 191.522 Q607.314 191.314 606.295 191.314 Q602.684 191.314 600.74 193.675 Q598.818 196.013 598.818 200.411 L598.818 214.069 L594.536 214.069 L594.536 188.143 L598.818 188.143 L598.818 192.171 Q600.161 189.809 602.314 188.675 Q604.467 187.518 607.545 187.518 Q607.985 187.518 608.517 187.587 Q609.05 187.634 609.698 187.749 L609.721 192.124 Z" fill="#000000" fill-rule="evenodd" fill-opacity="1" /><path clip-path="url(#clip680)" d="M630.416 192.078 L630.416 178.05 L634.675 178.05 L634.675 214.069 L630.416 214.069 L630.416 210.18 Q629.073 212.495 627.013 213.629 Q624.976 214.74 622.105 214.74 Q617.406 214.74 614.443 210.99 Q611.504 207.24 611.504 201.129 Q611.504 195.018 614.443 191.268 Q617.406 187.518 622.105 187.518 Q624.976 187.518 627.013 188.652 Q629.073 189.763 630.416 192.078 M615.902 201.129 Q615.902 205.828 617.823 208.513 Q619.767 211.175 623.147 211.175 Q626.527 211.175 628.471 208.513 Q630.416 205.828 630.416 201.129 Q630.416 196.43 628.471 193.768 Q626.527 191.083 623.147 191.083 Q619.767 191.083 617.823 193.768 Q615.902 196.43 615.902 201.129 Z" fill="#000000" fill-rule="evenodd" fill-opacity="1" /><path clip-path="url(#clip680)" d="M665.624 200.041 L665.624 202.124 L646.04 202.124 Q646.318 206.522 648.679 208.837 Q651.064 211.129 655.3 211.129 Q657.753 211.129 660.045 210.527 Q662.36 209.925 664.628 208.721 L664.628 212.749 Q662.337 213.721 659.929 214.231 Q657.522 214.74 655.045 214.74 Q648.841 214.74 645.207 211.129 Q641.596 207.518 641.596 201.36 Q641.596 194.995 645.022 191.268 Q648.471 187.518 654.304 187.518 Q659.536 187.518 662.568 190.897 Q665.624 194.254 665.624 200.041 M661.364 198.791 Q661.318 195.296 659.397 193.212 Q657.499 191.129 654.351 191.129 Q650.786 191.129 648.633 193.143 Q646.503 195.157 646.179 198.814 L661.364 198.791 Z" fill="#000000" fill-rule="evenodd" fill-opacity="1" /><path clip-path="url(#clip680)" d="M687.637 192.124 Q686.92 191.708 686.063 191.522 Q685.23 191.314 684.212 191.314 Q680.6 191.314 678.656 193.675 Q676.735 196.013 676.735 200.411 L676.735 214.069 L672.452 214.069 L672.452 188.143 L676.735 188.143 L676.735 192.171 Q678.077 189.809 680.23 188.675 Q682.383 187.518 685.462 187.518 Q685.901 187.518 686.434 187.587 Q686.966 187.634 687.614 187.749 L687.637 192.124 Z" fill="#000000" fill-rule="evenodd" fill-opacity="1" /><path clip-path="url(#clip680)" d="M686.92 199.184 L699.397 199.184 L699.397 202.981 L686.92 202.981 L686.92 199.184 Z" fill="#000000" fill-rule="evenodd" fill-opacity="1" /><path clip-path="url(#clip680)" d="M707.591 210.133 L715.23 210.133 L715.23 183.768 L706.92 185.435 L706.92 181.175 L715.184 179.509 L719.859 179.509 L719.859 210.133 L727.498 210.133 L727.498 214.069 L707.591 214.069 L707.591 210.133 Z" fill="#000000" fill-rule="evenodd" fill-opacity="1" /><path clip-path="url(#clip680)" d="M763.193 201.036 Q758.031 201.036 756.04 202.217 Q754.049 203.397 754.049 206.245 Q754.049 208.513 755.531 209.856 Q757.035 211.175 759.605 211.175 Q763.146 211.175 765.276 208.675 Q767.429 206.152 767.429 201.985 L767.429 201.036 L763.193 201.036 M771.688 199.277 L771.688 214.069 L767.429 214.069 L767.429 210.133 Q765.97 212.495 763.794 213.629 Q761.619 214.74 758.47 214.74 Q754.489 214.74 752.128 212.518 Q749.79 210.272 749.79 206.522 Q749.79 202.147 752.707 199.925 Q755.646 197.703 761.456 197.703 L767.429 197.703 L767.429 197.286 Q767.429 194.347 765.484 192.749 Q763.563 191.129 760.068 191.129 Q757.845 191.129 755.739 191.661 Q753.632 192.194 751.688 193.259 L751.688 189.323 Q754.026 188.421 756.225 187.981 Q758.424 187.518 760.507 187.518 Q766.132 187.518 768.91 190.434 Q771.688 193.351 771.688 199.277 Z" fill="#000000" fill-rule="evenodd" fill-opacity="1" /><path clip-path="url(#clip680)" d="M780.021 203.837 L780.021 188.143 L784.28 188.143 L784.28 203.675 Q784.28 207.356 785.716 209.208 Q787.151 211.036 790.021 211.036 Q793.47 211.036 795.461 208.837 Q797.475 206.638 797.475 202.842 L797.475 188.143 L801.734 188.143 L801.734 214.069 L797.475 214.069 L797.475 210.087 Q795.924 212.448 793.864 213.606 Q791.827 214.74 789.118 214.74 Q784.651 214.74 782.336 211.962 Q780.021 209.184 780.021 203.837 M790.739 187.518 L790.739 187.518 Z" fill="#000000" fill-rule="evenodd" fill-opacity="1" /><path clip-path="url(#clip680)" d="M814.72 180.782 L814.72 188.143 L823.493 188.143 L823.493 191.453 L814.72 191.453 L814.72 205.527 Q814.72 208.698 815.577 209.601 Q816.456 210.504 819.118 210.504 L823.493 210.504 L823.493 214.069 L819.118 214.069 Q814.188 214.069 812.313 212.24 Q810.438 210.388 810.438 205.527 L810.438 191.453 L807.313 191.453 L807.313 188.143 L810.438 188.143 L810.438 180.782 L814.72 180.782 Z" fill="#000000" fill-rule="evenodd" fill-opacity="1" /><path clip-path="url(#clip680)" d="M839.141 191.129 Q835.715 191.129 833.725 193.814 Q831.734 196.476 831.734 201.129 Q831.734 205.782 833.701 208.467 Q835.692 211.129 839.141 211.129 Q842.544 211.129 844.535 208.444 Q846.525 205.758 846.525 201.129 Q846.525 196.522 844.535 193.837 Q842.544 191.129 839.141 191.129 M839.141 187.518 Q844.697 187.518 847.868 191.129 Q851.039 194.74 851.039 201.129 Q851.039 207.495 847.868 211.129 Q844.697 214.74 839.141 214.74 Q833.563 214.74 830.391 211.129 Q827.243 207.495 827.243 201.129 Q827.243 194.74 830.391 191.129 Q833.563 187.518 839.141 187.518 Z" fill="#000000" fill-rule="evenodd" fill-opacity="1" /><path clip-path="url(#clip680)" d="M873.123 192.124 Q872.405 191.708 871.548 191.522 Q870.715 191.314 869.697 191.314 Q866.086 191.314 864.141 193.675 Q862.22 196.013 862.22 200.411 L862.22 214.069 L857.937 214.069 L857.937 188.143 L862.22 188.143 L862.22 192.171 Q863.562 189.809 865.715 188.675 Q867.868 187.518 870.947 187.518 Q871.386 187.518 871.919 187.587 Q872.451 187.634 873.099 187.749 L873.123 192.124 Z" fill="#000000" fill-rule="evenodd" fill-opacity="1" /><path clip-path="url(#clip680)" d="M898.724 200.041 L898.724 202.124 L879.141 202.124 Q879.419 206.522 881.78 208.837 Q884.164 211.129 888.4 211.129 Q890.854 211.129 893.146 210.527 Q895.46 209.925 897.729 208.721 L897.729 212.749 Q895.437 213.721 893.03 214.231 Q890.622 214.74 888.146 214.74 Q881.942 214.74 878.308 211.129 Q874.697 207.518 874.697 201.36 Q874.697 194.995 878.123 191.268 Q881.572 187.518 887.405 187.518 Q892.636 187.518 895.669 190.897 Q898.724 194.254 898.724 200.041 M894.465 198.791 Q894.419 195.296 892.497 193.212 Q890.599 191.129 887.451 191.129 Q883.886 191.129 881.734 193.143 Q879.604 195.157 879.28 198.814 L894.465 198.791 Z" fill="#000000" fill-rule="evenodd" fill-opacity="1" /><path clip-path="url(#clip680)" d="M922.775 200.805 Q922.775 196.175 920.854 193.629 Q918.956 191.083 915.507 191.083 Q912.081 191.083 910.159 193.629 Q908.261 196.175 908.261 200.805 Q908.261 205.411 910.159 207.958 Q912.081 210.504 915.507 210.504 Q918.956 210.504 920.854 207.958 Q922.775 205.411 922.775 200.805 M927.034 210.851 Q927.034 217.471 924.094 220.689 Q921.155 223.93 915.09 223.93 Q912.845 223.93 910.854 223.582 Q908.863 223.258 906.988 222.564 L906.988 218.42 Q908.863 219.439 910.692 219.925 Q912.52 220.411 914.419 220.411 Q918.608 220.411 920.692 218.212 Q922.775 216.036 922.775 211.615 L922.775 209.508 Q921.456 211.8 919.395 212.934 Q917.335 214.069 914.465 214.069 Q909.696 214.069 906.78 210.434 Q903.863 206.8 903.863 200.805 Q903.863 194.786 906.78 191.152 Q909.696 187.518 914.465 187.518 Q917.335 187.518 919.395 188.652 Q921.456 189.786 922.775 192.078 L922.775 188.143 L927.034 188.143 L927.034 210.851 Z" fill="#000000" fill-rule="evenodd" fill-opacity="1" /><path clip-path="url(#clip680)" d="M950.83 192.124 Q950.113 191.708 949.256 191.522 Q948.423 191.314 947.405 191.314 Q943.793 191.314 941.849 193.675 Q939.928 196.013 939.928 200.411 L939.928 214.069 L935.645 214.069 L935.645 188.143 L939.928 188.143 L939.928 192.171 Q941.27 189.809 943.423 188.675 Q945.576 187.518 948.655 187.518 Q949.094 187.518 949.627 187.587 Q950.159 187.634 950.807 187.749 L950.83 192.124 Z" fill="#000000" fill-rule="evenodd" fill-opacity="1" /><path clip-path="url(#clip680)" d="M976.432 200.041 L976.432 202.124 L956.849 202.124 Q957.127 206.522 959.488 208.837 Q961.872 211.129 966.108 211.129 Q968.562 211.129 970.853 210.527 Q973.168 209.925 975.437 208.721 L975.437 212.749 Q973.145 213.721 970.738 214.231 Q968.33 214.74 965.854 214.74 Q959.65 214.74 956.016 211.129 Q952.405 207.518 952.405 201.36 Q952.405 194.995 955.83 191.268 Q959.279 187.518 965.113 187.518 Q970.344 187.518 973.377 190.897 Q976.432 194.254 976.432 200.041 M972.173 198.791 Q972.127 195.296 970.205 193.212 Q968.307 191.129 965.159 191.129 Q961.594 191.129 959.442 193.143 Q957.312 195.157 956.988 198.814 L972.173 198.791 Z" fill="#000000" fill-rule="evenodd" fill-opacity="1" /><path clip-path="url(#clip680)" d="M999.951 188.907 L999.951 192.934 Q998.145 192.009 996.201 191.546 Q994.256 191.083 992.173 191.083 Q989.002 191.083 987.404 192.055 Q985.83 193.027 985.83 194.971 Q985.83 196.453 986.965 197.309 Q988.099 198.143 991.525 198.907 L992.983 199.231 Q997.52 200.203 999.418 201.985 Q1001.34 203.745 1001.34 206.916 Q1001.34 210.527 998.469 212.633 Q995.622 214.74 990.622 214.74 Q988.539 214.74 986.27 214.323 Q984.025 213.93 981.525 213.12 L981.525 208.721 Q983.886 209.948 986.177 210.573 Q988.469 211.175 990.714 211.175 Q993.724 211.175 995.344 210.157 Q996.964 209.115 996.964 207.24 Q996.964 205.504 995.784 204.578 Q994.627 203.652 990.668 202.796 L989.187 202.448 Q985.228 201.615 983.469 199.902 Q981.71 198.166 981.71 195.157 Q981.71 191.499 984.302 189.509 Q986.895 187.518 991.664 187.518 Q994.025 187.518 996.108 187.865 Q998.191 188.212 999.951 188.907 Z" fill="#000000" fill-rule="evenodd" fill-opacity="1" /><path clip-path="url(#clip680)" d="M1024.65 188.907 L1024.65 192.934 Q1022.84 192.009 1020.9 191.546 Q1018.96 191.083 1016.87 191.083 Q1013.7 191.083 1012.1 192.055 Q1010.53 193.027 1010.53 194.971 Q1010.53 196.453 1011.66 197.309 Q1012.8 198.143 1016.22 198.907 L1017.68 199.231 Q1022.22 200.203 1024.12 201.985 Q1026.04 203.745 1026.04 206.916 Q1026.04 210.527 1023.17 212.633 Q1020.32 214.74 1015.32 214.74 Q1013.24 214.74 1010.97 214.323 Q1008.72 213.93 1006.22 213.12 L1006.22 208.721 Q1008.58 209.948 1010.88 210.573 Q1013.17 211.175 1015.41 211.175 Q1018.42 211.175 1020.04 210.157 Q1021.66 209.115 1021.66 207.24 Q1021.66 205.504 1020.48 204.578 Q1019.33 203.652 1015.37 202.796 L1013.89 202.448 Q1009.93 201.615 1008.17 199.902 Q1006.41 198.166 1006.41 195.157 Q1006.41 191.499 1009 189.509 Q1011.59 187.518 1016.36 187.518 Q1018.72 187.518 1020.81 187.865 Q1022.89 188.212 1024.65 188.907 Z" fill="#000000" fill-rule="evenodd" fill-opacity="1" /><path clip-path="url(#clip680)" d="M1032.82 188.143 L1037.08 188.143 L1037.08 214.069 L1032.82 214.069 L1032.82 188.143 M1032.82 178.05 L1037.08 178.05 L1037.08 183.444 L1032.82 183.444 L1032.82 178.05 Z" fill="#000000" fill-rule="evenodd" fill-opacity="1" /><path clip-path="url(#clip680)" d="M1042.94 188.143 L1047.45 188.143 L1055.55 209.902 L1063.65 188.143 L1068.17 188.143 L1058.45 214.069 L1052.66 214.069 L1042.94 188.143 Z" fill="#000000" fill-rule="evenodd" fill-opacity="1" /><path clip-path="url(#clip680)" d="M1096.22 200.041 L1096.22 202.124 L1076.64 202.124 Q1076.92 206.522 1079.28 208.837 Q1081.66 211.129 1085.9 211.129 Q1088.35 211.129 1090.64 210.527 Q1092.96 209.925 1095.23 208.721 L1095.23 212.749 Q1092.94 213.721 1090.53 214.231 Q1088.12 214.74 1085.64 214.74 Q1079.44 214.74 1075.81 211.129 Q1072.2 207.518 1072.2 201.36 Q1072.2 194.995 1075.62 191.268 Q1079.07 187.518 1084.9 187.518 Q1090.14 187.518 1093.17 190.897 Q1096.22 194.254 1096.22 200.041 M1091.96 198.791 Q1091.92 195.296 1090 193.212 Q1088.1 191.129 1084.95 191.129 Q1081.39 191.129 1079.23 193.143 Q1077.1 195.157 1076.78 198.814 L1091.96 198.791 Z" fill="#000000" fill-rule="evenodd" fill-opacity="1" /></svg>
