<?xml version="1.0" encoding="utf-8"?>
<svg xmlns="http://www.w3.org/2000/svg" xmlns:xlink="http://www.w3.org/1999/xlink" width="600" height="400" viewBox="0 0 2400 1600">
<defs>
  <clipPath id="clip890">
    <rect x="0" y="0" width="2400" height="1600"/>
  </clipPath>
</defs>
<path clip-path="url(#clip890)" d="
M0 1600 L2400 1600 L2400 0 L0 0  Z
  " fill="#ffffff" fill-rule="evenodd" fill-opacity="1"/>
<defs>
  <clipPath id="clip891">
    <rect x="480" y="0" width="1681" height="1600"/>
  </clipPath>
</defs>
<path clip-path="url(#clip890)" d="
M249.542 1423.18 L2352.76 1423.18 L2352.76 47.2441 L249.542 47.2441  Z
  " fill="#ffffff" fill-rule="evenodd" fill-opacity="1"/>
<defs>
  <clipPath id="clip892">
    <rect x="249" y="47" width="2104" height="1377"/>
  </clipPath>
</defs>
<polyline clip-path="url(#clip892)" style="stroke:#000000; stroke-linecap:butt; stroke-linejoin:round; stroke-width:2; stroke-opacity:0.1; fill:none" points="
  309.067,1423.18 309.067,47.2441 
  "/>
<polyline clip-path="url(#clip892)" style="stroke:#000000; stroke-linecap:butt; stroke-linejoin:round; stroke-width:2; stroke-opacity:0.1; fill:none" points="
  805.108,1423.18 805.108,47.2441 
  "/>
<polyline clip-path="url(#clip892)" style="stroke:#000000; stroke-linecap:butt; stroke-linejoin:round; stroke-width:2; stroke-opacity:0.1; fill:none" points="
  1301.15,1423.18 1301.15,47.2441 
  "/>
<polyline clip-path="url(#clip892)" style="stroke:#000000; stroke-linecap:butt; stroke-linejoin:round; stroke-width:2; stroke-opacity:0.1; fill:none" points="
  1797.19,1423.18 1797.19,47.2441 
  "/>
<polyline clip-path="url(#clip892)" style="stroke:#000000; stroke-linecap:butt; stroke-linejoin:round; stroke-width:2; stroke-opacity:0.1; fill:none" points="
  2293.23,1423.18 2293.23,47.2441 
  "/>
<polyline clip-path="url(#clip890)" style="stroke:#000000; stroke-linecap:butt; stroke-linejoin:round; stroke-width:4; stroke-opacity:1; fill:none" points="
  249.542,1423.18 2352.76,1423.18 
  "/>
<polyline clip-path="url(#clip890)" style="stroke:#000000; stroke-linecap:butt; stroke-linejoin:round; stroke-width:4; stroke-opacity:1; fill:none" points="
  309.067,1423.18 309.067,1404.28 
  "/>
<polyline clip-path="url(#clip890)" style="stroke:#000000; stroke-linecap:butt; stroke-linejoin:round; stroke-width:4; stroke-opacity:1; fill:none" points="
  805.108,1423.18 805.108,1404.28 
  "/>
<polyline clip-path="url(#clip890)" style="stroke:#000000; stroke-linecap:butt; stroke-linejoin:round; stroke-width:4; stroke-opacity:1; fill:none" points="
  1301.15,1423.18 1301.15,1404.28 
  "/>
<polyline clip-path="url(#clip890)" style="stroke:#000000; stroke-linecap:butt; stroke-linejoin:round; stroke-width:4; stroke-opacity:1; fill:none" points="
  1797.19,1423.18 1797.19,1404.28 
  "/>
<polyline clip-path="url(#clip890)" style="stroke:#000000; stroke-linecap:butt; stroke-linejoin:round; stroke-width:4; stroke-opacity:1; fill:none" points="
  2293.23,1423.18 2293.23,1404.28 
  "/>
<path clip-path="url(#clip890)" d="M303.72 1481.64 L320.039 1481.64 L320.039 1485.58 L298.095 1485.58 L298.095 1481.64 Q300.757 1478.89 305.34 1474.26 Q309.947 1469.61 311.127 1468.27 Q313.372 1465.74 314.252 1464.01 Q315.155 1462.25 315.155 1460.56 Q315.155 1457.8 313.21 1456.07 Q311.289 1454.33 308.187 1454.33 Q305.988 1454.33 303.535 1455.09 Q301.104 1455.86 298.326 1457.41 L298.326 1452.69 Q301.15 1451.55 303.604 1450.97 Q306.058 1450.39 308.095 1450.39 Q313.465 1450.39 316.66 1453.08 Q319.854 1455.77 319.854 1460.26 Q319.854 1462.39 319.044 1464.31 Q318.257 1466.2 316.15 1468.8 Q315.572 1469.47 312.47 1472.69 Q309.368 1475.88 303.72 1481.64 Z" fill="#000000" fill-rule="evenodd" fill-opacity="1" /><path clip-path="url(#clip890)" d="M808.117 1455.09 L796.312 1473.54 L808.117 1473.54 L808.117 1455.09 M806.89 1451.02 L812.77 1451.02 L812.77 1473.54 L817.7 1473.54 L817.7 1477.43 L812.77 1477.43 L812.77 1485.58 L808.117 1485.58 L808.117 1477.43 L792.515 1477.43 L792.515 1472.92 L806.89 1451.02 Z" fill="#000000" fill-rule="evenodd" fill-opacity="1" /><path clip-path="url(#clip890)" d="M1301.55 1466.44 Q1298.41 1466.44 1296.55 1468.59 Q1294.73 1470.74 1294.73 1474.49 Q1294.73 1478.22 1296.55 1480.39 Q1298.41 1482.55 1301.55 1482.55 Q1304.7 1482.55 1306.53 1480.39 Q1308.38 1478.22 1308.38 1474.49 Q1308.38 1470.74 1306.53 1468.59 Q1304.7 1466.44 1301.55 1466.44 M1310.84 1451.78 L1310.84 1456.04 Q1309.08 1455.21 1307.27 1454.77 Q1305.49 1454.33 1303.73 1454.33 Q1299.1 1454.33 1296.65 1457.45 Q1294.22 1460.58 1293.87 1466.9 Q1295.23 1464.89 1297.29 1463.82 Q1299.35 1462.73 1301.83 1462.73 Q1307.04 1462.73 1310.05 1465.9 Q1313.08 1469.05 1313.08 1474.49 Q1313.08 1479.82 1309.93 1483.03 Q1306.79 1486.25 1301.55 1486.25 Q1295.56 1486.25 1292.39 1481.67 Q1289.22 1477.06 1289.22 1468.33 Q1289.22 1460.14 1293.11 1455.28 Q1296.99 1450.39 1303.54 1450.39 Q1305.3 1450.39 1307.09 1450.74 Q1308.89 1451.09 1310.84 1451.78 Z" fill="#000000" fill-rule="evenodd" fill-opacity="1" /><path clip-path="url(#clip890)" d="M1797.19 1469.17 Q1793.86 1469.17 1791.94 1470.95 Q1790.04 1472.73 1790.04 1475.86 Q1790.04 1478.98 1791.94 1480.77 Q1793.86 1482.55 1797.19 1482.55 Q1800.52 1482.55 1802.44 1480.77 Q1804.37 1478.96 1804.37 1475.86 Q1804.37 1472.73 1802.44 1470.95 Q1800.55 1469.17 1797.19 1469.17 M1792.51 1467.18 Q1789.5 1466.44 1787.82 1464.38 Q1786.15 1462.32 1786.15 1459.35 Q1786.15 1455.21 1789.09 1452.8 Q1792.05 1450.39 1797.19 1450.39 Q1802.35 1450.39 1805.29 1452.8 Q1808.23 1455.21 1808.23 1459.35 Q1808.23 1462.32 1806.54 1464.38 Q1804.88 1466.44 1801.89 1467.18 Q1805.27 1467.96 1807.14 1470.26 Q1809.04 1472.55 1809.04 1475.86 Q1809.04 1480.88 1805.96 1483.57 Q1802.91 1486.25 1797.19 1486.25 Q1791.47 1486.25 1788.39 1483.57 Q1785.34 1480.88 1785.34 1475.86 Q1785.34 1472.55 1787.24 1470.26 Q1789.13 1467.96 1792.51 1467.18 M1790.8 1459.79 Q1790.8 1462.48 1792.47 1463.98 Q1794.16 1465.49 1797.19 1465.49 Q1800.2 1465.49 1801.89 1463.98 Q1803.6 1462.48 1803.6 1459.79 Q1803.6 1457.11 1801.89 1455.6 Q1800.2 1454.1 1797.19 1454.1 Q1794.16 1454.1 1792.47 1455.6 Q1790.8 1457.11 1790.8 1459.79 Z" fill="#000000" fill-rule="evenodd" fill-opacity="1" /><path clip-path="url(#clip890)" d="M2267.92 1481.64 L2275.56 1481.64 L2275.56 1455.28 L2267.25 1456.95 L2267.25 1452.69 L2275.51 1451.02 L2280.19 1451.02 L2280.19 1481.64 L2287.83 1481.64 L2287.83 1485.58 L2267.92 1485.58 L2267.92 1481.64 Z" fill="#000000" fill-rule="evenodd" fill-opacity="1" /><path clip-path="url(#clip890)" d="M2307.27 1454.1 Q2303.66 1454.1 2301.83 1457.66 Q2300.02 1461.2 2300.02 1468.33 Q2300.02 1475.44 2301.83 1479.01 Q2303.66 1482.55 2307.27 1482.55 Q2310.9 1482.55 2312.71 1479.01 Q2314.54 1475.44 2314.54 1468.33 Q2314.54 1461.2 2312.71 1457.66 Q2310.9 1454.1 2307.27 1454.1 M2307.27 1450.39 Q2313.08 1450.39 2316.14 1455 Q2319.21 1459.58 2319.21 1468.33 Q2319.21 1477.06 2316.14 1481.67 Q2313.08 1486.25 2307.27 1486.25 Q2301.46 1486.25 2298.38 1481.67 Q2295.33 1477.06 2295.33 1468.33 Q2295.33 1459.58 2298.38 1455 Q2301.46 1450.39 2307.27 1450.39 Z" fill="#000000" fill-rule="evenodd" fill-opacity="1" /><path clip-path="url(#clip890)" d="M946.77 1539.37 L937.508 1539.37 L934.834 1550 L944.16 1550 L946.77 1539.37 M941.996 1521.26 L938.686 1534.46 L947.98 1534.46 L951.322 1521.26 L956.414 1521.26 L953.136 1534.46 L963.066 1534.46 L963.066 1539.37 L951.894 1539.37 L949.285 1550 L959.406 1550 L959.406 1554.87 L948.043 1554.87 L944.733 1568.04 L939.64 1568.04 L942.919 1554.87 L933.593 1554.87 L930.315 1568.04 L925.19 1568.04 L928.501 1554.87 L918.475 1554.87 L918.475 1550 L929.678 1550 L932.352 1539.37 L922.103 1539.37 L922.103 1534.46 L933.593 1534.46 L936.84 1521.26 L941.996 1521.26 Z" fill="#000000" fill-rule="evenodd" fill-opacity="1" /><path clip-path="url(#clip890)" d="M1024.56 1546.53 L1024.56 1568.04 L1018.7 1568.04 L1018.7 1546.72 Q1018.7 1541.66 1016.73 1539.14 Q1014.76 1536.63 1010.81 1536.63 Q1006.07 1536.63 1003.33 1539.65 Q1000.59 1542.68 1000.59 1547.9 L1000.59 1568.04 L994.704 1568.04 L994.704 1532.4 L1000.59 1532.4 L1000.59 1537.93 Q1002.69 1534.72 1005.53 1533.13 Q1008.39 1531.54 1012.11 1531.54 Q1018.26 1531.54 1021.41 1535.36 Q1024.56 1539.14 1024.56 1546.53 Z" fill="#000000" fill-rule="evenodd" fill-opacity="1" /><path clip-path="url(#clip890)" d="M1066.73 1548.76 L1066.73 1551.62 L1039.8 1551.62 Q1040.19 1557.67 1043.43 1560.85 Q1046.71 1564 1052.54 1564 Q1055.91 1564 1059.06 1563.17 Q1062.24 1562.35 1065.36 1560.69 L1065.36 1566.23 Q1062.21 1567.57 1058.9 1568.27 Q1055.59 1568.97 1052.19 1568.97 Q1043.66 1568.97 1038.66 1564 Q1033.69 1559.04 1033.69 1550.57 Q1033.69 1541.82 1038.4 1536.69 Q1043.15 1531.54 1051.17 1531.54 Q1058.36 1531.54 1062.53 1536.18 Q1066.73 1540.8 1066.73 1548.76 M1060.88 1547.04 Q1060.81 1542.23 1058.17 1539.37 Q1055.56 1536.5 1051.23 1536.5 Q1046.33 1536.5 1043.37 1539.27 Q1040.44 1542.04 1040 1547.07 L1060.88 1547.04 Z" fill="#000000" fill-rule="evenodd" fill-opacity="1" /><path clip-path="url(#clip890)" d="M1092.54 1550.12 Q1085.45 1550.12 1082.71 1551.75 Q1079.97 1553.37 1079.97 1557.29 Q1079.97 1560.4 1082.01 1562.25 Q1084.08 1564.07 1087.61 1564.07 Q1092.48 1564.07 1095.41 1560.63 Q1098.37 1557.16 1098.37 1551.43 L1098.37 1550.12 L1092.54 1550.12 M1104.23 1547.71 L1104.23 1568.04 L1098.37 1568.04 L1098.37 1562.63 Q1096.36 1565.88 1093.37 1567.44 Q1090.38 1568.97 1086.05 1568.97 Q1080.58 1568.97 1077.33 1565.91 Q1074.12 1562.82 1074.12 1557.67 Q1074.12 1551.65 1078.13 1548.6 Q1082.17 1545.54 1090.16 1545.54 L1098.37 1545.54 L1098.37 1544.97 Q1098.37 1540.93 1095.7 1538.73 Q1093.05 1536.5 1088.25 1536.5 Q1085.19 1536.5 1082.3 1537.23 Q1079.4 1537.97 1076.73 1539.43 L1076.73 1534.02 Q1079.94 1532.78 1082.96 1532.17 Q1085.99 1531.54 1088.85 1531.54 Q1096.59 1531.54 1100.41 1535.55 Q1104.23 1539.56 1104.23 1547.71 Z" fill="#000000" fill-rule="evenodd" fill-opacity="1" /><path clip-path="url(#clip890)" d="M1136.95 1537.87 Q1135.96 1537.3 1134.78 1537.04 Q1133.64 1536.76 1132.23 1536.76 Q1127.27 1536.76 1124.6 1540 Q1121.95 1543.22 1121.95 1549.27 L1121.95 1568.04 L1116.07 1568.04 L1116.07 1532.4 L1121.95 1532.4 L1121.95 1537.93 Q1123.8 1534.69 1126.76 1533.13 Q1129.72 1531.54 1133.95 1531.54 Q1134.56 1531.54 1135.29 1531.63 Q1136.02 1531.7 1136.91 1531.85 L1136.95 1537.87 Z" fill="#000000" fill-rule="evenodd" fill-opacity="1" /><path clip-path="url(#clip890)" d="M1172.15 1548.76 L1172.15 1551.62 L1145.22 1551.62 Q1145.6 1557.67 1148.85 1560.85 Q1152.13 1564 1157.95 1564 Q1161.33 1564 1164.48 1563.17 Q1167.66 1562.35 1170.78 1560.69 L1170.78 1566.23 Q1167.63 1567.57 1164.32 1568.27 Q1161.01 1568.97 1157.6 1568.97 Q1149.07 1568.97 1144.08 1564 Q1139.11 1559.04 1139.11 1550.57 Q1139.11 1541.82 1143.82 1536.69 Q1148.56 1531.54 1156.58 1531.54 Q1163.78 1531.54 1167.95 1536.18 Q1172.15 1540.8 1172.15 1548.76 M1166.29 1547.04 Q1166.23 1542.23 1163.59 1539.37 Q1160.98 1536.5 1156.65 1536.5 Q1151.75 1536.5 1148.79 1539.27 Q1145.86 1542.04 1145.41 1547.07 L1166.29 1547.04 Z" fill="#000000" fill-rule="evenodd" fill-opacity="1" /><path clip-path="url(#clip890)" d="M1204.49 1533.45 L1204.49 1538.98 Q1202 1537.71 1199.33 1537.07 Q1196.66 1536.44 1193.79 1536.44 Q1189.43 1536.44 1187.23 1537.77 Q1185.07 1539.11 1185.07 1541.79 Q1185.07 1543.82 1186.63 1545 Q1188.19 1546.15 1192.9 1547.2 L1194.91 1547.64 Q1201.14 1548.98 1203.75 1551.43 Q1206.4 1553.85 1206.4 1558.21 Q1206.4 1563.17 1202.45 1566.07 Q1198.53 1568.97 1191.66 1568.97 Q1188.79 1568.97 1185.68 1568.39 Q1182.59 1567.85 1179.15 1566.74 L1179.15 1560.69 Q1182.4 1562.38 1185.55 1563.24 Q1188.7 1564.07 1191.79 1564.07 Q1195.92 1564.07 1198.15 1562.66 Q1200.38 1561.23 1200.38 1558.65 Q1200.38 1556.27 1198.76 1554.99 Q1197.17 1553.72 1191.72 1552.54 L1189.69 1552.07 Q1184.24 1550.92 1181.82 1548.56 Q1179.4 1546.18 1179.4 1542.04 Q1179.4 1537.01 1182.97 1534.27 Q1186.53 1531.54 1193.09 1531.54 Q1196.34 1531.54 1199.2 1532.01 Q1202.07 1532.49 1204.49 1533.45 Z" fill="#000000" fill-rule="evenodd" fill-opacity="1" /><path clip-path="url(#clip890)" d="M1221.51 1522.27 L1221.51 1532.4 L1233.58 1532.4 L1233.58 1536.95 L1221.51 1536.95 L1221.51 1556.3 Q1221.51 1560.66 1222.69 1561.9 Q1223.9 1563.14 1227.56 1563.14 L1233.58 1563.14 L1233.58 1568.04 L1227.56 1568.04 Q1220.78 1568.04 1218.2 1565.53 Q1215.63 1562.98 1215.63 1556.3 L1215.63 1536.95 L1211.33 1536.95 L1211.33 1532.4 L1215.63 1532.4 L1215.63 1522.27 L1221.51 1522.27 Z" fill="#000000" fill-rule="evenodd" fill-opacity="1" /><path clip-path="url(#clip890)" d="M1291.63 1546.53 L1291.63 1568.04 L1285.78 1568.04 L1285.78 1546.72 Q1285.78 1541.66 1283.8 1539.14 Q1281.83 1536.63 1277.88 1536.63 Q1273.14 1536.63 1270.4 1539.65 Q1267.67 1542.68 1267.67 1547.9 L1267.67 1568.04 L1261.78 1568.04 L1261.78 1532.4 L1267.67 1532.4 L1267.67 1537.93 Q1269.77 1534.72 1272.6 1533.13 Q1275.46 1531.54 1279.19 1531.54 Q1285.33 1531.54 1288.48 1535.36 Q1291.63 1539.14 1291.63 1546.53 Z" fill="#000000" fill-rule="evenodd" fill-opacity="1" /><path clip-path="url(#clip890)" d="M1333.81 1548.76 L1333.81 1551.62 L1306.88 1551.62 Q1307.26 1557.67 1310.51 1560.85 Q1313.78 1564 1319.61 1564 Q1322.98 1564 1326.13 1563.17 Q1329.32 1562.35 1332.44 1560.69 L1332.44 1566.23 Q1329.29 1567.57 1325.98 1568.27 Q1322.67 1568.97 1319.26 1568.97 Q1310.73 1568.97 1305.73 1564 Q1300.77 1559.04 1300.77 1550.57 Q1300.77 1541.82 1305.48 1536.69 Q1310.22 1531.54 1318.24 1531.54 Q1325.43 1531.54 1329.6 1536.18 Q1333.81 1540.8 1333.81 1548.76 M1327.95 1547.04 Q1327.88 1542.23 1325.24 1539.37 Q1322.63 1536.5 1318.3 1536.5 Q1313.4 1536.5 1310.44 1539.27 Q1307.51 1542.04 1307.07 1547.07 L1327.95 1547.04 Z" fill="#000000" fill-rule="evenodd" fill-opacity="1" /><path clip-path="url(#clip890)" d="M1343.42 1532.4 L1349.27 1532.4 L1349.27 1568.04 L1343.42 1568.04 L1343.42 1532.4 M1343.42 1518.52 L1349.27 1518.52 L1349.27 1525.93 L1343.42 1525.93 L1343.42 1518.52 Z" fill="#000000" fill-rule="evenodd" fill-opacity="1" /><path clip-path="url(#clip890)" d="M1384.99 1549.81 Q1384.99 1543.44 1382.34 1539.94 Q1379.73 1536.44 1374.99 1536.44 Q1370.28 1536.44 1367.64 1539.94 Q1365.03 1543.44 1365.03 1549.81 Q1365.03 1556.14 1367.64 1559.64 Q1370.28 1563.14 1374.99 1563.14 Q1379.73 1563.14 1382.34 1559.64 Q1384.99 1556.14 1384.99 1549.81 M1390.84 1563.62 Q1390.84 1572.72 1386.8 1577.15 Q1382.76 1581.6 1374.42 1581.6 Q1371.33 1581.6 1368.59 1581.13 Q1365.86 1580.68 1363.28 1579.72 L1363.28 1574.03 Q1365.86 1575.43 1368.37 1576.1 Q1370.89 1576.76 1373.5 1576.76 Q1379.26 1576.76 1382.12 1573.74 Q1384.99 1570.75 1384.99 1564.67 L1384.99 1561.77 Q1383.17 1564.92 1380.34 1566.48 Q1377.51 1568.04 1373.56 1568.04 Q1367 1568.04 1362.99 1563.05 Q1358.98 1558.05 1358.98 1549.81 Q1358.98 1541.53 1362.99 1536.53 Q1367 1531.54 1373.56 1531.54 Q1377.51 1531.54 1380.34 1533.1 Q1383.17 1534.66 1384.99 1537.81 L1384.99 1532.4 L1390.84 1532.4 L1390.84 1563.62 Z" fill="#000000" fill-rule="evenodd" fill-opacity="1" /><path clip-path="url(#clip890)" d="M1432.54 1546.53 L1432.54 1568.04 L1426.68 1568.04 L1426.68 1546.72 Q1426.68 1541.66 1424.71 1539.14 Q1422.73 1536.63 1418.79 1536.63 Q1414.04 1536.63 1411.31 1539.65 Q1408.57 1542.68 1408.57 1547.9 L1408.57 1568.04 L1402.68 1568.04 L1402.68 1518.52 L1408.57 1518.52 L1408.57 1537.93 Q1410.67 1534.72 1413.5 1533.13 Q1416.37 1531.54 1420.09 1531.54 Q1426.24 1531.54 1429.39 1535.36 Q1432.54 1539.14 1432.54 1546.53 Z" fill="#000000" fill-rule="evenodd" fill-opacity="1" /><path clip-path="url(#clip890)" d="M1469.81 1550.25 Q1469.81 1543.79 1467.13 1540.13 Q1464.49 1536.44 1459.85 1536.44 Q1455.2 1536.44 1452.53 1540.13 Q1449.88 1543.79 1449.88 1550.25 Q1449.88 1556.71 1452.53 1560.4 Q1455.2 1564.07 1459.85 1564.07 Q1464.49 1564.07 1467.13 1560.4 Q1469.81 1556.71 1469.81 1550.25 M1449.88 1537.81 Q1451.73 1534.62 1454.53 1533.1 Q1457.36 1531.54 1461.28 1531.54 Q1467.77 1531.54 1471.81 1536.69 Q1475.89 1541.85 1475.89 1550.25 Q1475.89 1558.65 1471.81 1563.81 Q1467.77 1568.97 1461.28 1568.97 Q1457.36 1568.97 1454.53 1567.44 Q1451.73 1565.88 1449.88 1562.7 L1449.88 1568.04 L1444 1568.04 L1444 1518.52 L1449.88 1518.52 L1449.88 1537.81 Z" fill="#000000" fill-rule="evenodd" fill-opacity="1" /><path clip-path="url(#clip890)" d="M1499.41 1536.5 Q1494.7 1536.5 1491.96 1540.19 Q1489.22 1543.85 1489.22 1550.25 Q1489.22 1556.65 1491.93 1560.34 Q1494.67 1564 1499.41 1564 Q1504.09 1564 1506.82 1560.31 Q1509.56 1556.62 1509.56 1550.25 Q1509.56 1543.92 1506.82 1540.23 Q1504.09 1536.5 1499.41 1536.5 M1499.41 1531.54 Q1507.05 1531.54 1511.41 1536.5 Q1515.77 1541.47 1515.77 1550.25 Q1515.77 1559 1511.41 1564 Q1507.05 1568.97 1499.41 1568.97 Q1491.74 1568.97 1487.38 1564 Q1483.05 1559 1483.05 1550.25 Q1483.05 1541.47 1487.38 1536.5 Q1491.74 1531.54 1499.41 1531.54 Z" fill="#000000" fill-rule="evenodd" fill-opacity="1" /><path clip-path="url(#clip890)" d="M1546.13 1537.87 Q1545.15 1537.3 1543.97 1537.04 Q1542.82 1536.76 1541.42 1536.76 Q1536.46 1536.76 1533.78 1540 Q1531.14 1543.22 1531.14 1549.27 L1531.14 1568.04 L1525.25 1568.04 L1525.25 1532.4 L1531.14 1532.4 L1531.14 1537.93 Q1532.99 1534.69 1535.95 1533.13 Q1538.91 1531.54 1543.14 1531.54 Q1543.75 1531.54 1544.48 1531.63 Q1545.21 1531.7 1546.1 1531.85 L1546.13 1537.87 Z" fill="#000000" fill-rule="evenodd" fill-opacity="1" /><path clip-path="url(#clip890)" d="M1575 1533.45 L1575 1538.98 Q1572.52 1537.71 1569.85 1537.07 Q1567.17 1536.44 1564.31 1536.44 Q1559.95 1536.44 1557.75 1537.77 Q1555.59 1539.11 1555.59 1541.79 Q1555.59 1543.82 1557.15 1545 Q1558.71 1546.15 1563.42 1547.2 L1565.42 1547.64 Q1571.66 1548.98 1574.27 1551.43 Q1576.91 1553.85 1576.91 1558.21 Q1576.91 1563.17 1572.96 1566.07 Q1569.05 1568.97 1562.17 1568.97 Q1559.31 1568.97 1556.19 1568.39 Q1553.1 1567.85 1549.67 1566.74 L1549.67 1560.69 Q1552.91 1562.38 1556.06 1563.24 Q1559.21 1564.07 1562.3 1564.07 Q1566.44 1564.07 1568.67 1562.66 Q1570.9 1561.23 1570.9 1558.65 Q1570.9 1556.27 1569.27 1554.99 Q1567.68 1553.72 1562.24 1552.54 L1560.2 1552.07 Q1554.76 1550.92 1552.34 1548.56 Q1549.92 1546.18 1549.92 1542.04 Q1549.92 1537.01 1553.49 1534.27 Q1557.05 1531.54 1563.61 1531.54 Q1566.85 1531.54 1569.72 1532.01 Q1572.58 1532.49 1575 1533.45 Z" fill="#000000" fill-rule="evenodd" fill-opacity="1" /><path clip-path="url(#clip890)" d="M1621.03 1518.58 Q1616.76 1525.9 1614.69 1533.06 Q1612.62 1540.23 1612.62 1547.58 Q1612.62 1554.93 1614.69 1562.16 Q1616.79 1569.35 1621.03 1576.64 L1615.93 1576.64 Q1611.16 1569.16 1608.77 1561.93 Q1606.42 1554.71 1606.42 1547.58 Q1606.42 1540.48 1608.77 1533.29 Q1611.13 1526.09 1615.93 1518.58 L1621.03 1518.58 Z" fill="#000000" fill-rule="evenodd" fill-opacity="1" /><path clip-path="url(#clip890)" d="M1632.17 1518.52 L1638.05 1518.52 L1638.05 1547.77 L1655.53 1532.4 L1663.01 1532.4 L1644.1 1549.07 L1663.8 1568.04 L1656.16 1568.04 L1638.05 1550.63 L1638.05 1568.04 L1632.17 1568.04 L1632.17 1518.52 Z" fill="#000000" fill-rule="evenodd" fill-opacity="1" /><path clip-path="url(#clip890)" d="M1669.21 1518.58 L1674.31 1518.58 Q1679.08 1526.09 1681.44 1533.29 Q1683.82 1540.48 1683.82 1547.58 Q1683.82 1554.71 1681.44 1561.93 Q1679.08 1569.16 1674.31 1576.64 L1669.21 1576.64 Q1673.45 1569.35 1675.52 1562.16 Q1677.62 1554.93 1677.62 1547.58 Q1677.62 1540.23 1675.52 1533.06 Q1673.45 1525.9 1669.21 1518.58 Z" fill="#000000" fill-rule="evenodd" fill-opacity="1" /><polyline clip-path="url(#clip892)" style="stroke:#000000; stroke-linecap:butt; stroke-linejoin:round; stroke-width:2; stroke-opacity:0.1; fill:none" points="
  249.542,1360.64 2352.76,1360.64 
  "/>
<polyline clip-path="url(#clip892)" style="stroke:#000000; stroke-linecap:butt; stroke-linejoin:round; stroke-width:2; stroke-opacity:0.1; fill:none" points="
  249.542,1047.92 2352.76,1047.92 
  "/>
<polyline clip-path="url(#clip892)" style="stroke:#000000; stroke-linecap:butt; stroke-linejoin:round; stroke-width:2; stroke-opacity:0.1; fill:none" points="
  249.542,735.212 2352.76,735.212 
  "/>
<polyline clip-path="url(#clip892)" style="stroke:#000000; stroke-linecap:butt; stroke-linejoin:round; stroke-width:2; stroke-opacity:0.1; fill:none" points="
  249.542,422.499 2352.76,422.499 
  "/>
<polyline clip-path="url(#clip892)" style="stroke:#000000; stroke-linecap:butt; stroke-linejoin:round; stroke-width:2; stroke-opacity:0.1; fill:none" points="
  249.542,109.787 2352.76,109.787 
  "/>
<polyline clip-path="url(#clip890)" style="stroke:#000000; stroke-linecap:butt; stroke-linejoin:round; stroke-width:4; stroke-opacity:1; fill:none" points="
  249.542,1423.18 249.542,47.2441 
  "/>
<polyline clip-path="url(#clip890)" style="stroke:#000000; stroke-linecap:butt; stroke-linejoin:round; stroke-width:4; stroke-opacity:1; fill:none" points="
  249.542,1360.64 268.44,1360.64 
  "/>
<polyline clip-path="url(#clip890)" style="stroke:#000000; stroke-linecap:butt; stroke-linejoin:round; stroke-width:4; stroke-opacity:1; fill:none" points="
  249.542,1047.92 268.44,1047.92 
  "/>
<polyline clip-path="url(#clip890)" style="stroke:#000000; stroke-linecap:butt; stroke-linejoin:round; stroke-width:4; stroke-opacity:1; fill:none" points="
  249.542,735.212 268.44,735.212 
  "/>
<polyline clip-path="url(#clip890)" style="stroke:#000000; stroke-linecap:butt; stroke-linejoin:round; stroke-width:4; stroke-opacity:1; fill:none" points="
  249.542,422.499 268.44,422.499 
  "/>
<polyline clip-path="url(#clip890)" style="stroke:#000000; stroke-linecap:butt; stroke-linejoin:round; stroke-width:4; stroke-opacity:1; fill:none" points="
  249.542,109.787 268.44,109.787 
  "/>
<path clip-path="url(#clip890)" d="M126.205 1346.44 Q122.593 1346.44 120.765 1350 Q118.959 1353.54 118.959 1360.67 Q118.959 1367.78 120.765 1371.34 Q122.593 1374.88 126.205 1374.88 Q129.839 1374.88 131.644 1371.34 Q133.473 1367.78 133.473 1360.67 Q133.473 1353.54 131.644 1350 Q129.839 1346.44 126.205 1346.44 M126.205 1342.73 Q132.015 1342.73 135.07 1347.34 Q138.149 1351.92 138.149 1360.67 Q138.149 1369.4 135.07 1374.01 Q132.015 1378.59 126.205 1378.59 Q120.394 1378.59 117.316 1374.01 Q114.26 1369.4 114.26 1360.67 Q114.26 1351.92 117.316 1347.34 Q120.394 1342.73 126.205 1342.73 Z" fill="#000000" fill-rule="evenodd" fill-opacity="1" /><path clip-path="url(#clip890)" d="M146.366 1372.04 L151.251 1372.04 L151.251 1377.92 L146.366 1377.92 L146.366 1372.04 Z" fill="#000000" fill-rule="evenodd" fill-opacity="1" /><path clip-path="url(#clip890)" d="M171.436 1346.44 Q167.825 1346.44 165.996 1350 Q164.19 1353.54 164.19 1360.67 Q164.19 1367.78 165.996 1371.34 Q167.825 1374.88 171.436 1374.88 Q175.07 1374.88 176.876 1371.34 Q178.704 1367.78 178.704 1360.67 Q178.704 1353.54 176.876 1350 Q175.07 1346.44 171.436 1346.44 M171.436 1342.73 Q177.246 1342.73 180.301 1347.34 Q183.38 1351.92 183.38 1360.67 Q183.38 1369.4 180.301 1374.01 Q177.246 1378.59 171.436 1378.59 Q165.626 1378.59 162.547 1374.01 Q159.491 1369.4 159.491 1360.67 Q159.491 1351.92 162.547 1347.34 Q165.626 1342.73 171.436 1342.73 Z" fill="#000000" fill-rule="evenodd" fill-opacity="1" /><path clip-path="url(#clip890)" d="M201.598 1346.44 Q197.987 1346.44 196.158 1350 Q194.352 1353.54 194.352 1360.67 Q194.352 1367.78 196.158 1371.34 Q197.987 1374.88 201.598 1374.88 Q205.232 1374.88 207.037 1371.34 Q208.866 1367.78 208.866 1360.67 Q208.866 1353.54 207.037 1350 Q205.232 1346.44 201.598 1346.44 M201.598 1342.73 Q207.408 1342.73 210.463 1347.34 Q213.542 1351.92 213.542 1360.67 Q213.542 1369.4 210.463 1374.01 Q207.408 1378.59 201.598 1378.59 Q195.787 1378.59 192.709 1374.01 Q189.653 1369.4 189.653 1360.67 Q189.653 1351.92 192.709 1347.34 Q195.787 1342.73 201.598 1342.73 Z" fill="#000000" fill-rule="evenodd" fill-opacity="1" /><path clip-path="url(#clip890)" d="M127.2 1033.72 Q123.589 1033.72 121.76 1037.29 Q119.955 1040.83 119.955 1047.96 Q119.955 1055.07 121.76 1058.63 Q123.589 1062.17 127.2 1062.17 Q130.834 1062.17 132.64 1058.63 Q134.468 1055.07 134.468 1047.96 Q134.468 1040.83 132.64 1037.29 Q130.834 1033.72 127.2 1033.72 M127.2 1030.02 Q133.01 1030.02 136.066 1034.63 Q139.144 1039.21 139.144 1047.96 Q139.144 1056.69 136.066 1061.29 Q133.01 1065.88 127.2 1065.88 Q121.39 1065.88 118.311 1061.29 Q115.256 1056.69 115.256 1047.96 Q115.256 1039.21 118.311 1034.63 Q121.39 1030.02 127.2 1030.02 Z" fill="#000000" fill-rule="evenodd" fill-opacity="1" /><path clip-path="url(#clip890)" d="M147.362 1059.33 L152.246 1059.33 L152.246 1065.2 L147.362 1065.2 L147.362 1059.33 Z" fill="#000000" fill-rule="evenodd" fill-opacity="1" /><path clip-path="url(#clip890)" d="M166.459 1061.27 L182.778 1061.27 L182.778 1065.2 L160.834 1065.2 L160.834 1061.27 Q163.496 1058.51 168.079 1053.89 Q172.686 1049.23 173.866 1047.89 Q176.112 1045.37 176.991 1043.63 Q177.894 1041.87 177.894 1040.18 Q177.894 1037.43 175.95 1035.69 Q174.028 1033.95 170.927 1033.95 Q168.727 1033.95 166.274 1034.72 Q163.843 1035.48 161.065 1037.03 L161.065 1032.31 Q163.89 1031.18 166.343 1030.6 Q168.797 1030.02 170.834 1030.02 Q176.204 1030.02 179.399 1032.7 Q182.593 1035.39 182.593 1039.88 Q182.593 1042.01 181.783 1043.93 Q180.996 1045.83 178.889 1048.42 Q178.311 1049.09 175.209 1052.31 Q172.107 1055.51 166.459 1061.27 Z" fill="#000000" fill-rule="evenodd" fill-opacity="1" /><path clip-path="url(#clip890)" d="M192.639 1030.64 L210.996 1030.64 L210.996 1034.58 L196.922 1034.58 L196.922 1043.05 Q197.94 1042.7 198.959 1042.54 Q199.977 1042.36 200.996 1042.36 Q206.783 1042.36 210.162 1045.53 Q213.542 1048.7 213.542 1054.12 Q213.542 1059.7 210.07 1062.8 Q206.598 1065.88 200.278 1065.88 Q198.102 1065.88 195.834 1065.51 Q193.588 1065.14 191.181 1064.39 L191.181 1059.7 Q193.264 1060.83 195.487 1061.39 Q197.709 1061.94 200.186 1061.94 Q204.19 1061.94 206.528 1059.83 Q208.866 1057.73 208.866 1054.12 Q208.866 1050.51 206.528 1048.4 Q204.19 1046.29 200.186 1046.29 Q198.311 1046.29 196.436 1046.71 Q194.584 1047.13 192.639 1048.01 L192.639 1030.64 Z" fill="#000000" fill-rule="evenodd" fill-opacity="1" /><path clip-path="url(#clip890)" d="M126.205 721.011 Q122.593 721.011 120.765 724.575 Q118.959 728.117 118.959 735.247 Q118.959 742.353 120.765 745.918 Q122.593 749.46 126.205 749.46 Q129.839 749.46 131.644 745.918 Q133.473 742.353 133.473 735.247 Q133.473 728.117 131.644 724.575 Q129.839 721.011 126.205 721.011 M126.205 717.307 Q132.015 717.307 135.07 721.913 Q138.149 726.497 138.149 735.247 Q138.149 743.973 135.07 748.58 Q132.015 753.163 126.205 753.163 Q120.394 753.163 117.316 748.58 Q114.26 743.973 114.26 735.247 Q114.26 726.497 117.316 721.913 Q120.394 717.307 126.205 717.307 Z" fill="#000000" fill-rule="evenodd" fill-opacity="1" /><path clip-path="url(#clip890)" d="M146.366 746.612 L151.251 746.612 L151.251 752.492 L146.366 752.492 L146.366 746.612 Z" fill="#000000" fill-rule="evenodd" fill-opacity="1" /><path clip-path="url(#clip890)" d="M161.482 717.932 L179.839 717.932 L179.839 721.867 L165.765 721.867 L165.765 730.339 Q166.783 729.992 167.802 729.83 Q168.82 729.645 169.839 729.645 Q175.626 729.645 179.005 732.816 Q182.385 735.987 182.385 741.404 Q182.385 746.983 178.913 750.085 Q175.44 753.163 169.121 753.163 Q166.945 753.163 164.677 752.793 Q162.431 752.423 160.024 751.682 L160.024 746.983 Q162.107 748.117 164.329 748.673 Q166.552 749.228 169.028 749.228 Q173.033 749.228 175.371 747.122 Q177.709 745.015 177.709 741.404 Q177.709 737.793 175.371 735.687 Q173.033 733.58 169.028 733.58 Q167.153 733.58 165.278 733.997 Q163.427 734.413 161.482 735.293 L161.482 717.932 Z" fill="#000000" fill-rule="evenodd" fill-opacity="1" /><path clip-path="url(#clip890)" d="M201.598 721.011 Q197.987 721.011 196.158 724.575 Q194.352 728.117 194.352 735.247 Q194.352 742.353 196.158 745.918 Q197.987 749.46 201.598 749.46 Q205.232 749.46 207.037 745.918 Q208.866 742.353 208.866 735.247 Q208.866 728.117 207.037 724.575 Q205.232 721.011 201.598 721.011 M201.598 717.307 Q207.408 717.307 210.463 721.913 Q213.542 726.497 213.542 735.247 Q213.542 743.973 210.463 748.58 Q207.408 753.163 201.598 753.163 Q195.787 753.163 192.709 748.58 Q189.653 743.973 189.653 735.247 Q189.653 726.497 192.709 721.913 Q195.787 717.307 201.598 717.307 Z" fill="#000000" fill-rule="evenodd" fill-opacity="1" /><path clip-path="url(#clip890)" d="M127.2 408.298 Q123.589 408.298 121.76 411.863 Q119.955 415.404 119.955 422.534 Q119.955 429.64 121.76 433.205 Q123.589 436.747 127.2 436.747 Q130.834 436.747 132.64 433.205 Q134.468 429.64 134.468 422.534 Q134.468 415.404 132.64 411.863 Q130.834 408.298 127.2 408.298 M127.2 404.594 Q133.01 404.594 136.066 409.201 Q139.144 413.784 139.144 422.534 Q139.144 431.261 136.066 435.867 Q133.01 440.451 127.2 440.451 Q121.39 440.451 118.311 435.867 Q115.256 431.261 115.256 422.534 Q115.256 413.784 118.311 409.201 Q121.39 404.594 127.2 404.594 Z" fill="#000000" fill-rule="evenodd" fill-opacity="1" /><path clip-path="url(#clip890)" d="M147.362 433.9 L152.246 433.9 L152.246 439.779 L147.362 439.779 L147.362 433.9 Z" fill="#000000" fill-rule="evenodd" fill-opacity="1" /><path clip-path="url(#clip890)" d="M161.251 405.219 L183.473 405.219 L183.473 407.21 L170.927 439.779 L166.042 439.779 L177.848 409.154 L161.251 409.154 L161.251 405.219 Z" fill="#000000" fill-rule="evenodd" fill-opacity="1" /><path clip-path="url(#clip890)" d="M192.639 405.219 L210.996 405.219 L210.996 409.154 L196.922 409.154 L196.922 417.627 Q197.94 417.279 198.959 417.117 Q199.977 416.932 200.996 416.932 Q206.783 416.932 210.162 420.103 Q213.542 423.275 213.542 428.691 Q213.542 434.27 210.07 437.372 Q206.598 440.451 200.278 440.451 Q198.102 440.451 195.834 440.08 Q193.588 439.71 191.181 438.969 L191.181 434.27 Q193.264 435.404 195.487 435.96 Q197.709 436.515 200.186 436.515 Q204.19 436.515 206.528 434.409 Q208.866 432.302 208.866 428.691 Q208.866 425.08 206.528 422.974 Q204.19 420.867 200.186 420.867 Q198.311 420.867 196.436 421.284 Q194.584 421.701 192.639 422.58 L192.639 405.219 Z" fill="#000000" fill-rule="evenodd" fill-opacity="1" /><path clip-path="url(#clip890)" d="M117.015 123.131 L124.654 123.131 L124.654 96.7659 L116.343 98.4325 L116.343 94.1733 L124.607 92.5066 L129.283 92.5066 L129.283 123.131 L136.922 123.131 L136.922 127.067 L117.015 127.067 L117.015 123.131 Z" fill="#000000" fill-rule="evenodd" fill-opacity="1" /><path clip-path="url(#clip890)" d="M146.366 121.187 L151.251 121.187 L151.251 127.067 L146.366 127.067 L146.366 121.187 Z" fill="#000000" fill-rule="evenodd" fill-opacity="1" /><path clip-path="url(#clip890)" d="M171.436 95.5853 Q167.825 95.5853 165.996 99.1501 Q164.19 102.692 164.19 109.821 Q164.19 116.928 165.996 120.493 Q167.825 124.034 171.436 124.034 Q175.07 124.034 176.876 120.493 Q178.704 116.928 178.704 109.821 Q178.704 102.692 176.876 99.1501 Q175.07 95.5853 171.436 95.5853 M171.436 91.8816 Q177.246 91.8816 180.301 96.4881 Q183.38 101.071 183.38 109.821 Q183.38 118.548 180.301 123.155 Q177.246 127.738 171.436 127.738 Q165.626 127.738 162.547 123.155 Q159.491 118.548 159.491 109.821 Q159.491 101.071 162.547 96.4881 Q165.626 91.8816 171.436 91.8816 Z" fill="#000000" fill-rule="evenodd" fill-opacity="1" /><path clip-path="url(#clip890)" d="M201.598 95.5853 Q197.987 95.5853 196.158 99.1501 Q194.352 102.692 194.352 109.821 Q194.352 116.928 196.158 120.493 Q197.987 124.034 201.598 124.034 Q205.232 124.034 207.037 120.493 Q208.866 116.928 208.866 109.821 Q208.866 102.692 207.037 99.1501 Q205.232 95.5853 201.598 95.5853 M201.598 91.8816 Q207.408 91.8816 210.463 96.4881 Q213.542 101.071 213.542 109.821 Q213.542 118.548 210.463 123.155 Q207.408 127.738 201.598 127.738 Q195.787 127.738 192.709 123.155 Q189.653 118.548 189.653 109.821 Q189.653 101.071 192.709 96.4881 Q195.787 91.8816 201.598 91.8816 Z" fill="#000000" fill-rule="evenodd" fill-opacity="1" /><path clip-path="url(#clip890)" d="M18.0438 721.351 L24.314 721.351 Q22.5634 725.011 21.704 728.257 Q20.8447 731.504 20.8447 734.528 Q20.8447 739.779 22.8817 742.644 Q24.9187 745.477 28.6745 745.477 Q31.8255 745.477 33.4488 743.599 Q35.0402 741.689 36.0269 736.406 L36.8226 732.522 Q38.1912 725.329 41.6605 721.924 Q45.098 718.486 50.8908 718.486 Q57.7976 718.486 61.3624 723.133 Q64.9272 727.748 64.9272 736.692 Q64.9272 740.066 64.1633 743.885 Q63.3994 747.673 61.9035 751.747 L55.2831 751.747 Q57.4793 747.832 58.5933 744.076 Q59.7073 740.32 59.7073 736.692 Q59.7073 731.186 57.543 728.194 Q55.3786 725.202 51.3682 725.202 Q47.8671 725.202 45.8937 727.366 Q43.9204 729.499 42.9337 734.4 L42.1698 738.315 Q40.7375 745.508 37.682 748.723 Q34.6264 751.938 29.1837 751.938 Q22.8817 751.938 19.2532 747.514 Q15.6248 743.058 15.6248 735.26 Q15.6248 731.918 16.2295 728.448 Q16.8343 724.979 18.0438 721.351 Z" fill="#000000" fill-rule="evenodd" fill-opacity="1" /><polyline clip-path="url(#clip892)" style="stroke:#000000; stroke-linecap:butt; stroke-linejoin:round; stroke-width:4; stroke-opacity:1; fill:none" points="
  309.067,1333.39 557.087,1331.18 805.108,1328.98 1053.13,1326.76 1301.15,1324.69 1549.17,1322.68 1797.19,1320.79 2045.21,1319.03 2293.23,1317.4 
  "/>
<circle clip-path="url(#clip892)" cx="309.067" cy="1333.39" r="14" fill="#000000" fill-rule="evenodd" fill-opacity="1" stroke="none"/>
<circle clip-path="url(#clip892)" cx="557.087" cy="1331.18" r="14" fill="#000000" fill-rule="evenodd" fill-opacity="1" stroke="none"/>
<circle clip-path="url(#clip892)" cx="805.108" cy="1328.98" r="14" fill="#000000" fill-rule="evenodd" fill-opacity="1" stroke="none"/>
<circle clip-path="url(#clip892)" cx="1053.13" cy="1326.76" r="14" fill="#000000" fill-rule="evenodd" fill-opacity="1" stroke="none"/>
<circle clip-path="url(#clip892)" cx="1301.15" cy="1324.69" r="14" fill="#000000" fill-rule="evenodd" fill-opacity="1" stroke="none"/>
<circle clip-path="url(#clip892)" cx="1549.17" cy="1322.68" r="14" fill="#000000" fill-rule="evenodd" fill-opacity="1" stroke="none"/>
<circle clip-path="url(#clip892)" cx="1797.19" cy="1320.79" r="14" fill="#000000" fill-rule="evenodd" fill-opacity="1" stroke="none"/>
<circle clip-path="url(#clip892)" cx="2045.21" cy="1319.03" r="14" fill="#000000" fill-rule="evenodd" fill-opacity="1" stroke="none"/>
<circle clip-path="url(#clip892)" cx="2293.23" cy="1317.4" r="14" fill="#000000" fill-rule="evenodd" fill-opacity="1" stroke="none"/>
<polyline clip-path="url(#clip892)" style="stroke:#ff0000; stroke-linecap:butt; stroke-linejoin:round; stroke-width:4; stroke-opacity:1; fill:none" points="
  309.067,1332.77 557.087,1330.78 805.108,1328.44 1053.13,1326.25 1301.15,1324.2 1549.17,1322.31 1797.19,1320.48 2045.21,1318.75 2293.23,1317.09 
  "/>
<circle clip-path="url(#clip892)" cx="309.067" cy="1332.77" r="14" fill="#ff0000" fill-rule="evenodd" fill-opacity="1" stroke="#000000" stroke-opacity="1" stroke-width="6.4"/>
<circle clip-path="url(#clip892)" cx="557.087" cy="1330.78" r="14" fill="#ff0000" fill-rule="evenodd" fill-opacity="1" stroke="#000000" stroke-opacity="1" stroke-width="6.4"/>
<circle clip-path="url(#clip892)" cx="805.108" cy="1328.44" r="14" fill="#ff0000" fill-rule="evenodd" fill-opacity="1" stroke="#000000" stroke-opacity="1" stroke-width="6.4"/>
<circle clip-path="url(#clip892)" cx="1053.13" cy="1326.25" r="14" fill="#ff0000" fill-rule="evenodd" fill-opacity="1" stroke="#000000" stroke-opacity="1" stroke-width="6.4"/>
<circle clip-path="url(#clip892)" cx="1301.15" cy="1324.2" r="14" fill="#ff0000" fill-rule="evenodd" fill-opacity="1" stroke="#000000" stroke-opacity="1" stroke-width="6.4"/>
<circle clip-path="url(#clip892)" cx="1549.17" cy="1322.31" r="14" fill="#ff0000" fill-rule="evenodd" fill-opacity="1" stroke="#000000" stroke-opacity="1" stroke-width="6.4"/>
<circle clip-path="url(#clip892)" cx="1797.19" cy="1320.48" r="14" fill="#ff0000" fill-rule="evenodd" fill-opacity="1" stroke="#000000" stroke-opacity="1" stroke-width="6.4"/>
<circle clip-path="url(#clip892)" cx="2045.21" cy="1318.75" r="14" fill="#ff0000" fill-rule="evenodd" fill-opacity="1" stroke="#000000" stroke-opacity="1" stroke-width="6.4"/>
<circle clip-path="url(#clip892)" cx="2293.23" cy="1317.09" r="14" fill="#ff0000" fill-rule="evenodd" fill-opacity="1" stroke="#000000" stroke-opacity="1" stroke-width="6.4"/>
<polyline clip-path="url(#clip892)" style="stroke:#3da44d; stroke-linecap:butt; stroke-linejoin:round; stroke-width:4; stroke-opacity:1; fill:none" points="
  309.067,432.082 557.087,483.463 805.108,510.651 1053.13,530.826 1301.15,546.376 1549.17,555.243 1797.19,560.279 2045.21,562.173 2293.23,563.359 
  "/>
<circle clip-path="url(#clip892)" cx="309.067" cy="432.082" r="14" fill="#3da44d" fill-rule="evenodd" fill-opacity="1" stroke="#000000" stroke-opacity="1" stroke-width="6.4"/>
<circle clip-path="url(#clip892)" cx="557.087" cy="483.463" r="14" fill="#3da44d" fill-rule="evenodd" fill-opacity="1" stroke="#000000" stroke-opacity="1" stroke-width="6.4"/>
<circle clip-path="url(#clip892)" cx="805.108" cy="510.651" r="14" fill="#3da44d" fill-rule="evenodd" fill-opacity="1" stroke="#000000" stroke-opacity="1" stroke-width="6.4"/>
<circle clip-path="url(#clip892)" cx="1053.13" cy="530.826" r="14" fill="#3da44d" fill-rule="evenodd" fill-opacity="1" stroke="#000000" stroke-opacity="1" stroke-width="6.4"/>
<circle clip-path="url(#clip892)" cx="1301.15" cy="546.376" r="14" fill="#3da44d" fill-rule="evenodd" fill-opacity="1" stroke="#000000" stroke-opacity="1" stroke-width="6.4"/>
<circle clip-path="url(#clip892)" cx="1549.17" cy="555.243" r="14" fill="#3da44d" fill-rule="evenodd" fill-opacity="1" stroke="#000000" stroke-opacity="1" stroke-width="6.4"/>
<circle clip-path="url(#clip892)" cx="1797.19" cy="560.279" r="14" fill="#3da44d" fill-rule="evenodd" fill-opacity="1" stroke="#000000" stroke-opacity="1" stroke-width="6.4"/>
<circle clip-path="url(#clip892)" cx="2045.21" cy="562.173" r="14" fill="#3da44d" fill-rule="evenodd" fill-opacity="1" stroke="#000000" stroke-opacity="1" stroke-width="6.4"/>
<circle clip-path="url(#clip892)" cx="2293.23" cy="563.359" r="14" fill="#3da44d" fill-rule="evenodd" fill-opacity="1" stroke="#000000" stroke-opacity="1" stroke-width="6.4"/>
<polyline clip-path="url(#clip892)" style="stroke:#c271d2; stroke-linecap:butt; stroke-linejoin:round; stroke-width:4; stroke-opacity:1; fill:none" points="
  309.067,506.844 557.087,581.912 805.108,634.763 1053.13,664.33 1301.15,675.054 1549.17,683.43 1797.19,688.439 2045.21,687.481 2293.23,687.675 
  "/>
<circle clip-path="url(#clip892)" cx="309.067" cy="506.844" r="14" fill="#c271d2" fill-rule="evenodd" fill-opacity="1" stroke="#000000" stroke-opacity="1" stroke-width="6.4"/>
<circle clip-path="url(#clip892)" cx="557.087" cy="581.912" r="14" fill="#c271d2" fill-rule="evenodd" fill-opacity="1" stroke="#000000" stroke-opacity="1" stroke-width="6.4"/>
<circle clip-path="url(#clip892)" cx="805.108" cy="634.763" r="14" fill="#c271d2" fill-rule="evenodd" fill-opacity="1" stroke="#000000" stroke-opacity="1" stroke-width="6.4"/>
<circle clip-path="url(#clip892)" cx="1053.13" cy="664.33" r="14" fill="#c271d2" fill-rule="evenodd" fill-opacity="1" stroke="#000000" stroke-opacity="1" stroke-width="6.4"/>
<circle clip-path="url(#clip892)" cx="1301.15" cy="675.054" r="14" fill="#c271d2" fill-rule="evenodd" fill-opacity="1" stroke="#000000" stroke-opacity="1" stroke-width="6.4"/>
<circle clip-path="url(#clip892)" cx="1549.17" cy="683.43" r="14" fill="#c271d2" fill-rule="evenodd" fill-opacity="1" stroke="#000000" stroke-opacity="1" stroke-width="6.4"/>
<circle clip-path="url(#clip892)" cx="1797.19" cy="688.439" r="14" fill="#c271d2" fill-rule="evenodd" fill-opacity="1" stroke="#000000" stroke-opacity="1" stroke-width="6.4"/>
<circle clip-path="url(#clip892)" cx="2045.21" cy="687.481" r="14" fill="#c271d2" fill-rule="evenodd" fill-opacity="1" stroke="#000000" stroke-opacity="1" stroke-width="6.4"/>
<circle clip-path="url(#clip892)" cx="2293.23" cy="687.675" r="14" fill="#c271d2" fill-rule="evenodd" fill-opacity="1" stroke="#000000" stroke-opacity="1" stroke-width="6.4"/>
<path clip-path="url(#clip890)" d="
M1222.77 352.309 L2282.65 352.309 L2282.65 93.1086 L1222.77 93.1086  Z
  " fill="#ffffff" fill-rule="evenodd" fill-opacity="1"/>
<polyline clip-path="url(#clip890)" style="stroke:#000000; stroke-linecap:butt; stroke-linejoin:round; stroke-width:4; stroke-opacity:1; fill:none" points="
  1222.77,352.309 2282.65,352.309 2282.65,93.1086 1222.77,93.1086 1222.77,352.309 
  "/>
<polyline clip-path="url(#clip890)" style="stroke:#000000; stroke-linecap:butt; stroke-linejoin:round; stroke-width:4; stroke-opacity:1; fill:none" points="
  1246.77,144.949 1390.77,144.949 
  "/>
<circle clip-path="url(#clip890)" cx="1318.77" cy="144.949" r="23" fill="#000000" fill-rule="evenodd" fill-opacity="1" stroke="none"/>
<path clip-path="url(#clip890)" d="M1429.95 140.284 Q1429.24 139.868 1428.38 139.682 Q1427.55 139.474 1426.53 139.474 Q1422.92 139.474 1420.97 141.835 Q1419.05 144.173 1419.05 148.571 L1419.05 162.229 L1414.77 162.229 L1414.77 136.303 L1419.05 136.303 L1419.05 140.331 Q1420.39 137.969 1422.55 136.835 Q1424.7 135.678 1427.78 135.678 Q1428.22 135.678 1428.75 135.747 Q1429.28 135.794 1429.93 135.909 L1429.95 140.284 Z" fill="#000000" fill-rule="evenodd" fill-opacity="1" /><path clip-path="url(#clip890)" d="M1446.2 149.196 Q1441.04 149.196 1439.05 150.377 Q1437.06 151.557 1437.06 154.405 Q1437.06 156.673 1438.54 158.016 Q1440.05 159.335 1442.62 159.335 Q1446.16 159.335 1448.29 156.835 Q1450.44 154.312 1450.44 150.145 L1450.44 149.196 L1446.2 149.196 M1454.7 147.437 L1454.7 162.229 L1450.44 162.229 L1450.44 158.293 Q1448.98 160.655 1446.81 161.789 Q1444.63 162.9 1441.48 162.9 Q1437.5 162.9 1435.14 160.678 Q1432.8 158.432 1432.8 154.682 Q1432.8 150.307 1435.72 148.085 Q1438.66 145.863 1444.47 145.863 L1450.44 145.863 L1450.44 145.446 Q1450.44 142.507 1448.5 140.909 Q1446.57 139.289 1443.08 139.289 Q1440.86 139.289 1438.75 139.821 Q1436.64 140.354 1434.7 141.419 L1434.7 137.483 Q1437.04 136.581 1439.24 136.141 Q1441.44 135.678 1443.52 135.678 Q1449.14 135.678 1451.92 138.594 Q1454.7 141.511 1454.7 147.437 Z" fill="#000000" fill-rule="evenodd" fill-opacity="1" /><path clip-path="url(#clip890)" d="M1485.02 146.581 L1485.02 162.229 L1480.76 162.229 L1480.76 146.719 Q1480.76 143.039 1479.33 141.21 Q1477.89 139.382 1475.02 139.382 Q1471.57 139.382 1469.58 141.581 Q1467.59 143.78 1467.59 147.576 L1467.59 162.229 L1463.31 162.229 L1463.31 136.303 L1467.59 136.303 L1467.59 140.331 Q1469.12 137.993 1471.18 136.835 Q1473.26 135.678 1475.97 135.678 Q1480.44 135.678 1482.73 138.456 Q1485.02 141.21 1485.02 146.581 Z" fill="#000000" fill-rule="evenodd" fill-opacity="1" /><path clip-path="url(#clip890)" d="M1510.58 140.238 L1510.58 126.21 L1514.84 126.21 L1514.84 162.229 L1510.58 162.229 L1510.58 158.34 Q1509.24 160.655 1507.18 161.789 Q1505.14 162.9 1502.27 162.9 Q1497.57 162.9 1494.61 159.15 Q1491.67 155.4 1491.67 149.289 Q1491.67 143.178 1494.61 139.428 Q1497.57 135.678 1502.27 135.678 Q1505.14 135.678 1507.18 136.812 Q1509.24 137.923 1510.58 140.238 M1496.06 149.289 Q1496.06 153.988 1497.99 156.673 Q1499.93 159.335 1503.31 159.335 Q1506.69 159.335 1508.63 156.673 Q1510.58 153.988 1510.58 149.289 Q1510.58 144.59 1508.63 141.928 Q1506.69 139.243 1503.31 139.243 Q1499.93 139.243 1497.99 141.928 Q1496.06 144.59 1496.06 149.289 Z" fill="#000000" fill-rule="evenodd" fill-opacity="1" /><path clip-path="url(#clip890)" d="M1533.66 139.289 Q1530.23 139.289 1528.24 141.974 Q1526.25 144.636 1526.25 149.289 Q1526.25 153.942 1528.22 156.627 Q1530.21 159.289 1533.66 159.289 Q1537.06 159.289 1539.05 156.604 Q1541.04 153.918 1541.04 149.289 Q1541.04 144.682 1539.05 141.997 Q1537.06 139.289 1533.66 139.289 M1533.66 135.678 Q1539.21 135.678 1542.38 139.289 Q1545.56 142.9 1545.56 149.289 Q1545.56 155.655 1542.38 159.289 Q1539.21 162.9 1533.66 162.9 Q1528.08 162.9 1524.91 159.289 Q1521.76 155.655 1521.76 149.289 Q1521.76 142.9 1524.91 139.289 Q1528.08 135.678 1533.66 135.678 Z" fill="#000000" fill-rule="evenodd" fill-opacity="1" /><path clip-path="url(#clip890)" d="M1572.8 141.28 Q1574.4 138.409 1576.62 137.044 Q1578.84 135.678 1581.85 135.678 Q1585.9 135.678 1588.1 138.525 Q1590.3 141.349 1590.3 146.581 L1590.3 162.229 L1586.02 162.229 L1586.02 146.719 Q1586.02 142.993 1584.7 141.187 Q1583.38 139.382 1580.67 139.382 Q1577.36 139.382 1575.44 141.581 Q1573.52 143.78 1573.52 147.576 L1573.52 162.229 L1569.24 162.229 L1569.24 146.719 Q1569.24 142.969 1567.92 141.187 Q1566.6 139.382 1563.84 139.382 Q1560.58 139.382 1558.66 141.604 Q1556.74 143.803 1556.74 147.576 L1556.74 162.229 L1552.45 162.229 L1552.45 136.303 L1556.74 136.303 L1556.74 140.331 Q1558.19 137.946 1560.23 136.812 Q1562.27 135.678 1565.07 135.678 Q1567.89 135.678 1569.86 137.113 Q1571.85 138.548 1572.8 141.28 Z" fill="#000000" fill-rule="evenodd" fill-opacity="1" /><path clip-path="url(#clip890)" d="M1613.43 151.997 L1613.43 136.303 L1617.68 136.303 L1617.68 151.835 Q1617.68 155.516 1619.12 157.368 Q1620.55 159.196 1623.43 159.196 Q1626.87 159.196 1628.86 156.997 Q1630.88 154.798 1630.88 151.002 L1630.88 136.303 L1635.14 136.303 L1635.14 162.229 L1630.88 162.229 L1630.88 158.247 Q1629.33 160.608 1627.27 161.766 Q1625.23 162.9 1622.52 162.9 Q1618.05 162.9 1615.74 160.122 Q1613.43 157.344 1613.43 151.997 M1624.14 135.678 L1624.14 135.678 Z" fill="#000000" fill-rule="evenodd" fill-opacity="1" /><path clip-path="url(#clip890)" d="M1665.46 146.581 L1665.46 162.229 L1661.2 162.229 L1661.2 146.719 Q1661.2 143.039 1659.77 141.21 Q1658.33 139.382 1655.46 139.382 Q1652.01 139.382 1650.02 141.581 Q1648.03 143.78 1648.03 147.576 L1648.03 162.229 L1643.75 162.229 L1643.75 136.303 L1648.03 136.303 L1648.03 140.331 Q1649.56 137.993 1651.62 136.835 Q1653.7 135.678 1656.41 135.678 Q1660.88 135.678 1663.17 138.456 Q1665.46 141.21 1665.46 146.581 Z" fill="#000000" fill-rule="evenodd" fill-opacity="1" /><path clip-path="url(#clip890)" d="M1692.61 137.298 L1692.61 141.28 Q1690.81 140.284 1688.98 139.798 Q1687.17 139.289 1685.32 139.289 Q1681.18 139.289 1678.89 141.928 Q1676.6 144.544 1676.6 149.289 Q1676.6 154.034 1678.89 156.673 Q1681.18 159.289 1685.32 159.289 Q1687.17 159.289 1688.98 158.803 Q1690.81 158.293 1692.61 157.298 L1692.61 161.233 Q1690.83 162.067 1688.91 162.483 Q1687.01 162.9 1684.86 162.9 Q1679 162.9 1675.55 159.219 Q1672.11 155.539 1672.11 149.289 Q1672.11 142.946 1675.58 139.312 Q1679.07 135.678 1685.14 135.678 Q1687.11 135.678 1688.98 136.095 Q1690.86 136.488 1692.61 137.298 Z" fill="#000000" fill-rule="evenodd" fill-opacity="1" /><path clip-path="url(#clip890)" d="M1710.07 139.289 Q1706.64 139.289 1704.65 141.974 Q1702.66 144.636 1702.66 149.289 Q1702.66 153.942 1704.63 156.627 Q1706.62 159.289 1710.07 159.289 Q1713.47 159.289 1715.46 156.604 Q1717.45 153.918 1717.45 149.289 Q1717.45 144.682 1715.46 141.997 Q1713.47 139.289 1710.07 139.289 M1710.07 135.678 Q1715.62 135.678 1718.8 139.289 Q1721.97 142.9 1721.97 149.289 Q1721.97 155.655 1718.8 159.289 Q1715.62 162.9 1710.07 162.9 Q1704.49 162.9 1701.32 159.289 Q1698.17 155.655 1698.17 149.289 Q1698.17 142.9 1701.32 139.289 Q1704.49 135.678 1710.07 135.678 Z" fill="#000000" fill-rule="evenodd" fill-opacity="1" /><path clip-path="url(#clip890)" d="M1728.59 151.997 L1728.59 136.303 L1732.85 136.303 L1732.85 151.835 Q1732.85 155.516 1734.28 157.368 Q1735.72 159.196 1738.59 159.196 Q1742.04 159.196 1744.03 156.997 Q1746.04 154.798 1746.04 151.002 L1746.04 136.303 L1750.3 136.303 L1750.3 162.229 L1746.04 162.229 L1746.04 158.247 Q1744.49 160.608 1742.43 161.766 Q1740.39 162.9 1737.68 162.9 Q1733.22 162.9 1730.9 160.122 Q1728.59 157.344 1728.59 151.997 M1739.3 135.678 L1739.3 135.678 Z" fill="#000000" fill-rule="evenodd" fill-opacity="1" /><path clip-path="url(#clip890)" d="M1763.19 158.34 L1763.19 172.09 L1758.91 172.09 L1758.91 136.303 L1763.19 136.303 L1763.19 140.238 Q1764.54 137.923 1766.57 136.812 Q1768.63 135.678 1771.48 135.678 Q1776.2 135.678 1779.14 139.428 Q1782.1 143.178 1782.1 149.289 Q1782.1 155.4 1779.14 159.15 Q1776.2 162.9 1771.48 162.9 Q1768.63 162.9 1766.57 161.789 Q1764.54 160.655 1763.19 158.34 M1777.68 149.289 Q1777.68 144.59 1775.74 141.928 Q1773.82 139.243 1770.44 139.243 Q1767.06 139.243 1765.11 141.928 Q1763.19 144.59 1763.19 149.289 Q1763.19 153.988 1765.11 156.673 Q1767.06 159.335 1770.44 159.335 Q1773.82 159.335 1775.74 156.673 Q1777.68 153.988 1777.68 149.289 Z" fill="#000000" fill-rule="evenodd" fill-opacity="1" /><path clip-path="url(#clip890)" d="M1789.17 126.21 L1793.42 126.21 L1793.42 162.229 L1789.17 162.229 L1789.17 126.21 Z" fill="#000000" fill-rule="evenodd" fill-opacity="1" /><path clip-path="url(#clip890)" d="M1824.51 148.201 L1824.51 150.284 L1804.93 150.284 Q1805.21 154.682 1807.57 156.997 Q1809.95 159.289 1814.19 159.289 Q1816.64 159.289 1818.93 158.687 Q1821.25 158.085 1823.52 156.881 L1823.52 160.909 Q1821.23 161.881 1818.82 162.391 Q1816.41 162.9 1813.93 162.9 Q1807.73 162.9 1804.1 159.289 Q1800.48 155.678 1800.48 149.52 Q1800.48 143.155 1803.91 139.428 Q1807.36 135.678 1813.19 135.678 Q1818.42 135.678 1821.46 139.057 Q1824.51 142.414 1824.51 148.201 M1820.25 146.951 Q1820.21 143.456 1818.29 141.372 Q1816.39 139.289 1813.24 139.289 Q1809.67 139.289 1807.52 141.303 Q1805.39 143.317 1805.07 146.974 L1820.25 146.951 Z" fill="#000000" fill-rule="evenodd" fill-opacity="1" /><path clip-path="url(#clip890)" d="M1848.56 140.238 L1848.56 126.21 L1852.82 126.21 L1852.82 162.229 L1848.56 162.229 L1848.56 158.34 Q1847.22 160.655 1845.16 161.789 Q1843.12 162.9 1840.25 162.9 Q1835.55 162.9 1832.59 159.15 Q1829.65 155.4 1829.65 149.289 Q1829.65 143.178 1832.59 139.428 Q1835.55 135.678 1840.25 135.678 Q1843.12 135.678 1845.16 136.812 Q1847.22 137.923 1848.56 140.238 M1834.05 149.289 Q1834.05 153.988 1835.97 156.673 Q1837.91 159.335 1841.29 159.335 Q1844.67 159.335 1846.62 156.673 Q1848.56 153.988 1848.56 149.289 Q1848.56 144.59 1846.62 141.928 Q1844.67 139.243 1841.29 139.243 Q1837.91 139.243 1835.97 141.928 Q1834.05 144.59 1834.05 149.289 Z" fill="#000000" fill-rule="evenodd" fill-opacity="1" /><path clip-path="url(#clip890)" d="M1893.19 137.067 L1893.19 141.094 Q1891.39 140.169 1889.44 139.706 Q1887.5 139.243 1885.41 139.243 Q1882.24 139.243 1880.65 140.215 Q1879.07 141.187 1879.07 143.131 Q1879.07 144.613 1880.21 145.469 Q1881.34 146.303 1884.77 147.067 L1886.22 147.391 Q1890.76 148.363 1892.66 150.145 Q1894.58 151.905 1894.58 155.076 Q1894.58 158.687 1891.71 160.793 Q1888.86 162.9 1883.86 162.9 Q1881.78 162.9 1879.51 162.483 Q1877.27 162.09 1874.77 161.28 L1874.77 156.881 Q1877.13 158.108 1879.42 158.733 Q1881.71 159.335 1883.96 159.335 Q1886.97 159.335 1888.59 158.317 Q1890.21 157.275 1890.21 155.4 Q1890.21 153.664 1889.03 152.738 Q1887.87 151.812 1883.91 150.956 L1882.43 150.608 Q1878.47 149.775 1876.71 148.062 Q1874.95 146.326 1874.95 143.317 Q1874.95 139.659 1877.54 137.669 Q1880.14 135.678 1884.91 135.678 Q1887.27 135.678 1889.35 136.025 Q1891.43 136.372 1893.19 137.067 Z" fill="#000000" fill-rule="evenodd" fill-opacity="1" /><path clip-path="url(#clip890)" d="M1912.15 164.636 Q1910.34 169.266 1908.63 170.678 Q1906.92 172.09 1904.05 172.09 L1900.65 172.09 L1900.65 168.525 L1903.15 168.525 Q1904.91 168.525 1905.88 167.692 Q1906.85 166.858 1908.03 163.756 L1908.79 161.812 L1898.31 136.303 L1902.82 136.303 L1910.92 156.581 L1919.03 136.303 L1923.54 136.303 L1912.15 164.636 Z" fill="#000000" fill-rule="evenodd" fill-opacity="1" /><path clip-path="url(#clip890)" d="M1945.95 137.067 L1945.95 141.094 Q1944.14 140.169 1942.2 139.706 Q1940.25 139.243 1938.17 139.243 Q1935 139.243 1933.4 140.215 Q1931.83 141.187 1931.83 143.131 Q1931.83 144.613 1932.96 145.469 Q1934.09 146.303 1937.52 147.067 L1938.98 147.391 Q1943.52 148.363 1945.41 150.145 Q1947.34 151.905 1947.34 155.076 Q1947.34 158.687 1944.47 160.793 Q1941.62 162.9 1936.62 162.9 Q1934.53 162.9 1932.27 162.483 Q1930.02 162.09 1927.52 161.28 L1927.52 156.881 Q1929.88 158.108 1932.17 158.733 Q1934.47 159.335 1936.71 159.335 Q1939.72 159.335 1941.34 158.317 Q1942.96 157.275 1942.96 155.4 Q1942.96 153.664 1941.78 152.738 Q1940.62 151.812 1936.66 150.956 L1935.18 150.608 Q1931.22 149.775 1929.47 148.062 Q1927.71 146.326 1927.71 143.317 Q1927.71 139.659 1930.3 137.669 Q1932.89 135.678 1937.66 135.678 Q1940.02 135.678 1942.1 136.025 Q1944.19 136.372 1945.95 137.067 Z" fill="#000000" fill-rule="evenodd" fill-opacity="1" /><path clip-path="url(#clip890)" d="M1958.33 128.942 L1958.33 136.303 L1967.1 136.303 L1967.1 139.613 L1958.33 139.613 L1958.33 153.687 Q1958.33 156.858 1959.19 157.761 Q1960.07 158.664 1962.73 158.664 L1967.1 158.664 L1967.1 162.229 L1962.73 162.229 Q1957.8 162.229 1955.92 160.4 Q1954.05 158.548 1954.05 153.687 L1954.05 139.613 L1950.92 139.613 L1950.92 136.303 L1954.05 136.303 L1954.05 128.942 L1958.33 128.942 Z" fill="#000000" fill-rule="evenodd" fill-opacity="1" /><path clip-path="url(#clip890)" d="M1994.88 148.201 L1994.88 150.284 L1975.3 150.284 Q1975.58 154.682 1977.94 156.997 Q1980.32 159.289 1984.56 159.289 Q1987.01 159.289 1989.3 158.687 Q1991.62 158.085 1993.89 156.881 L1993.89 160.909 Q1991.59 161.881 1989.19 162.391 Q1986.78 162.9 1984.3 162.9 Q1978.1 162.9 1974.46 159.289 Q1970.85 155.678 1970.85 149.52 Q1970.85 143.155 1974.28 139.428 Q1977.73 135.678 1983.56 135.678 Q1988.79 135.678 1991.83 139.057 Q1994.88 142.414 1994.88 148.201 M1990.62 146.951 Q1990.58 143.456 1988.65 141.372 Q1986.76 139.289 1983.61 139.289 Q1980.04 139.289 1977.89 141.303 Q1975.76 143.317 1975.44 146.974 L1990.62 146.951 Z" fill="#000000" fill-rule="evenodd" fill-opacity="1" /><path clip-path="url(#clip890)" d="M2022.06 141.28 Q2023.65 138.409 2025.88 137.044 Q2028.1 135.678 2031.11 135.678 Q2035.16 135.678 2037.36 138.525 Q2039.56 141.349 2039.56 146.581 L2039.56 162.229 L2035.27 162.229 L2035.27 146.719 Q2035.27 142.993 2033.96 141.187 Q2032.64 139.382 2029.93 139.382 Q2026.62 139.382 2024.7 141.581 Q2022.77 143.78 2022.77 147.576 L2022.77 162.229 L2018.49 162.229 L2018.49 146.719 Q2018.49 142.969 2017.17 141.187 Q2015.85 139.382 2013.1 139.382 Q2009.84 139.382 2007.91 141.604 Q2005.99 143.803 2005.99 147.576 L2005.99 162.229 L2001.71 162.229 L2001.71 136.303 L2005.99 136.303 L2005.99 140.331 Q2007.45 137.946 2009.49 136.812 Q2011.52 135.678 2014.33 135.678 Q2017.15 135.678 2019.12 137.113 Q2021.11 138.548 2022.06 141.28 Z" fill="#000000" fill-rule="evenodd" fill-opacity="1" /><path clip-path="url(#clip890)" d="M2073.35 126.257 Q2070.25 131.581 2068.75 136.789 Q2067.24 141.997 2067.24 147.344 Q2067.24 152.692 2068.75 157.946 Q2070.27 163.178 2073.35 168.479 L2069.65 168.479 Q2066.18 163.039 2064.44 157.784 Q2062.73 152.53 2062.73 147.344 Q2062.73 142.182 2064.44 136.951 Q2066.15 131.72 2069.65 126.257 L2073.35 126.257 Z" fill="#000000" fill-rule="evenodd" fill-opacity="1" /><path clip-path="url(#clip890)" d="M2103.17 136.303 L2093.79 148.919 L2103.65 162.229 L2098.63 162.229 L2091.08 152.043 L2083.54 162.229 L2078.52 162.229 L2088.58 148.664 L2079.37 136.303 L2084.39 136.303 L2091.27 145.539 L2098.14 136.303 L2103.17 136.303 Z" fill="#000000" fill-rule="evenodd" fill-opacity="1" /><path clip-path="url(#clip890)" d="M2122.59 147.344 L2135.07 147.344 L2135.07 151.141 L2122.59 151.141 L2122.59 147.344 Z" fill="#000000" fill-rule="evenodd" fill-opacity="1" /><path clip-path="url(#clip890)" d="M2142.4 138.895 L2142.4 134.682 L2172.08 145.446 L2172.08 149.289 L2142.4 160.053 L2142.4 155.84 L2166.25 147.391 L2142.4 138.895 Z" fill="#000000" fill-rule="evenodd" fill-opacity="1" /><path clip-path="url(#clip890)" d="M2207.43 164.636 Q2205.62 169.266 2203.91 170.678 Q2202.2 172.09 2199.32 172.09 L2195.92 172.09 L2195.92 168.525 L2198.42 168.525 Q2200.18 168.525 2201.15 167.692 Q2202.13 166.858 2203.31 163.756 L2204.07 161.812 L2193.58 136.303 L2198.1 136.303 L2206.2 156.581 L2214.3 136.303 L2218.82 136.303 L2207.43 164.636 Z" fill="#000000" fill-rule="evenodd" fill-opacity="1" /><path clip-path="url(#clip890)" d="M2224.02 126.257 L2227.73 126.257 Q2231.2 131.72 2232.91 136.951 Q2234.65 142.182 2234.65 147.344 Q2234.65 152.53 2232.91 157.784 Q2231.2 163.039 2227.73 168.479 L2224.02 168.479 Q2227.1 163.178 2228.61 157.946 Q2230.13 152.692 2230.13 147.344 Q2230.13 141.997 2228.61 136.789 Q2227.1 131.581 2224.02 126.257 Z" fill="#000000" fill-rule="evenodd" fill-opacity="1" /><polyline clip-path="url(#clip890)" style="stroke:#ff0000; stroke-linecap:butt; stroke-linejoin:round; stroke-width:4; stroke-opacity:1; fill:none" points="
  1246.77,196.789 1390.77,196.789 
  "/>
<circle clip-path="url(#clip890)" cx="1318.77" cy="196.789" r="23" fill="#ff0000" fill-rule="evenodd" fill-opacity="1" stroke="#000000" stroke-opacity="1" stroke-width="10.24"/>
<path clip-path="url(#clip890)" d="M1429.95 192.124 Q1429.24 191.708 1428.38 191.522 Q1427.55 191.314 1426.53 191.314 Q1422.92 191.314 1420.97 193.675 Q1419.05 196.013 1419.05 200.411 L1419.05 214.069 L1414.77 214.069 L1414.77 188.143 L1419.05 188.143 L1419.05 192.171 Q1420.39 189.809 1422.55 188.675 Q1424.7 187.518 1427.78 187.518 Q1428.22 187.518 1428.75 187.587 Q1429.28 187.634 1429.93 187.749 L1429.95 192.124 Z" fill="#000000" fill-rule="evenodd" fill-opacity="1" /><path clip-path="url(#clip890)" d="M1446.2 201.036 Q1441.04 201.036 1439.05 202.217 Q1437.06 203.397 1437.06 206.245 Q1437.06 208.513 1438.54 209.856 Q1440.05 211.175 1442.62 211.175 Q1446.16 211.175 1448.29 208.675 Q1450.44 206.152 1450.44 201.985 L1450.44 201.036 L1446.2 201.036 M1454.7 199.277 L1454.7 214.069 L1450.44 214.069 L1450.44 210.133 Q1448.98 212.495 1446.81 213.629 Q1444.63 214.74 1441.48 214.74 Q1437.5 214.74 1435.14 212.518 Q1432.8 210.272 1432.8 206.522 Q1432.8 202.147 1435.72 199.925 Q1438.66 197.703 1444.47 197.703 L1450.44 197.703 L1450.44 197.286 Q1450.44 194.347 1448.5 192.749 Q1446.57 191.129 1443.08 191.129 Q1440.86 191.129 1438.75 191.661 Q1436.64 192.194 1434.7 193.259 L1434.7 189.323 Q1437.04 188.421 1439.24 187.981 Q1441.44 187.518 1443.52 187.518 Q1449.14 187.518 1451.92 190.434 Q1454.7 193.351 1454.7 199.277 Z" fill="#000000" fill-rule="evenodd" fill-opacity="1" /><path clip-path="url(#clip890)" d="M1485.02 198.421 L1485.02 214.069 L1480.76 214.069 L1480.76 198.559 Q1480.76 194.879 1479.33 193.05 Q1477.89 191.222 1475.02 191.222 Q1471.57 191.222 1469.58 193.421 Q1467.59 195.62 1467.59 199.416 L1467.59 214.069 L1463.31 214.069 L1463.31 188.143 L1467.59 188.143 L1467.59 192.171 Q1469.12 189.833 1471.18 188.675 Q1473.26 187.518 1475.97 187.518 Q1480.44 187.518 1482.73 190.296 Q1485.02 193.05 1485.02 198.421 Z" fill="#000000" fill-rule="evenodd" fill-opacity="1" /><path clip-path="url(#clip890)" d="M1510.58 192.078 L1510.58 178.05 L1514.84 178.05 L1514.84 214.069 L1510.58 214.069 L1510.58 210.18 Q1509.24 212.495 1507.18 213.629 Q1505.14 214.74 1502.27 214.74 Q1497.57 214.74 1494.61 210.99 Q1491.67 207.24 1491.67 201.129 Q1491.67 195.018 1494.61 191.268 Q1497.57 187.518 1502.27 187.518 Q1505.14 187.518 1507.18 188.652 Q1509.24 189.763 1510.58 192.078 M1496.06 201.129 Q1496.06 205.828 1497.99 208.513 Q1499.93 211.175 1503.31 211.175 Q1506.69 211.175 1508.63 208.513 Q1510.58 205.828 1510.58 201.129 Q1510.58 196.43 1508.63 193.768 Q1506.69 191.083 1503.31 191.083 Q1499.93 191.083 1497.99 193.768 Q1496.06 196.43 1496.06 201.129 Z" fill="#000000" fill-rule="evenodd" fill-opacity="1" /><path clip-path="url(#clip890)" d="M1533.66 191.129 Q1530.23 191.129 1528.24 193.814 Q1526.25 196.476 1526.25 201.129 Q1526.25 205.782 1528.22 208.467 Q1530.21 211.129 1533.66 211.129 Q1537.06 211.129 1539.05 208.444 Q1541.04 205.758 1541.04 201.129 Q1541.04 196.522 1539.05 193.837 Q1537.06 191.129 1533.66 191.129 M1533.66 187.518 Q1539.21 187.518 1542.38 191.129 Q1545.56 194.74 1545.56 201.129 Q1545.56 207.495 1542.38 211.129 Q1539.21 214.74 1533.66 214.74 Q1528.08 214.74 1524.91 211.129 Q1521.76 207.495 1521.76 201.129 Q1521.76 194.74 1524.91 191.129 Q1528.08 187.518 1533.66 187.518 Z" fill="#000000" fill-rule="evenodd" fill-opacity="1" /><path clip-path="url(#clip890)" d="M1572.8 193.12 Q1574.4 190.249 1576.62 188.884 Q1578.84 187.518 1581.85 187.518 Q1585.9 187.518 1588.1 190.365 Q1590.3 193.189 1590.3 198.421 L1590.3 214.069 L1586.02 214.069 L1586.02 198.559 Q1586.02 194.833 1584.7 193.027 Q1583.38 191.222 1580.67 191.222 Q1577.36 191.222 1575.44 193.421 Q1573.52 195.62 1573.52 199.416 L1573.52 214.069 L1569.24 214.069 L1569.24 198.559 Q1569.24 194.809 1567.92 193.027 Q1566.6 191.222 1563.84 191.222 Q1560.58 191.222 1558.66 193.444 Q1556.74 195.643 1556.74 199.416 L1556.74 214.069 L1552.45 214.069 L1552.45 188.143 L1556.74 188.143 L1556.74 192.171 Q1558.19 189.786 1560.23 188.652 Q1562.27 187.518 1565.07 187.518 Q1567.89 187.518 1569.86 188.953 Q1571.85 190.388 1572.8 193.12 Z" fill="#000000" fill-rule="evenodd" fill-opacity="1" /><path clip-path="url(#clip890)" d="M1613.43 203.837 L1613.43 188.143 L1617.68 188.143 L1617.68 203.675 Q1617.68 207.356 1619.12 209.208 Q1620.55 211.036 1623.43 211.036 Q1626.87 211.036 1628.86 208.837 Q1630.88 206.638 1630.88 202.842 L1630.88 188.143 L1635.14 188.143 L1635.14 214.069 L1630.88 214.069 L1630.88 210.087 Q1629.33 212.448 1627.27 213.606 Q1625.23 214.74 1622.52 214.74 Q1618.05 214.74 1615.74 211.962 Q1613.43 209.184 1613.43 203.837 M1624.14 187.518 L1624.14 187.518 Z" fill="#000000" fill-rule="evenodd" fill-opacity="1" /><path clip-path="url(#clip890)" d="M1665.46 198.421 L1665.46 214.069 L1661.2 214.069 L1661.2 198.559 Q1661.2 194.879 1659.77 193.05 Q1658.33 191.222 1655.46 191.222 Q1652.01 191.222 1650.02 193.421 Q1648.03 195.62 1648.03 199.416 L1648.03 214.069 L1643.75 214.069 L1643.75 188.143 L1648.03 188.143 L1648.03 192.171 Q1649.56 189.833 1651.62 188.675 Q1653.7 187.518 1656.41 187.518 Q1660.88 187.518 1663.17 190.296 Q1665.46 193.05 1665.46 198.421 Z" fill="#000000" fill-rule="evenodd" fill-opacity="1" /><path clip-path="url(#clip890)" d="M1692.61 189.138 L1692.61 193.12 Q1690.81 192.124 1688.98 191.638 Q1687.17 191.129 1685.32 191.129 Q1681.18 191.129 1678.89 193.768 Q1676.6 196.384 1676.6 201.129 Q1676.6 205.874 1678.89 208.513 Q1681.18 211.129 1685.32 211.129 Q1687.17 211.129 1688.98 210.643 Q1690.81 210.133 1692.61 209.138 L1692.61 213.073 Q1690.83 213.907 1688.91 214.323 Q1687.01 214.74 1684.86 214.74 Q1679 214.74 1675.55 211.059 Q1672.11 207.379 1672.11 201.129 Q1672.11 194.786 1675.58 191.152 Q1679.07 187.518 1685.14 187.518 Q1687.11 187.518 1688.98 187.935 Q1690.86 188.328 1692.61 189.138 Z" fill="#000000" fill-rule="evenodd" fill-opacity="1" /><path clip-path="url(#clip890)" d="M1710.07 191.129 Q1706.64 191.129 1704.65 193.814 Q1702.66 196.476 1702.66 201.129 Q1702.66 205.782 1704.63 208.467 Q1706.62 211.129 1710.07 211.129 Q1713.47 211.129 1715.46 208.444 Q1717.45 205.758 1717.45 201.129 Q1717.45 196.522 1715.46 193.837 Q1713.47 191.129 1710.07 191.129 M1710.07 187.518 Q1715.62 187.518 1718.8 191.129 Q1721.97 194.74 1721.97 201.129 Q1721.97 207.495 1718.8 211.129 Q1715.62 214.74 1710.07 214.74 Q1704.49 214.74 1701.32 211.129 Q1698.17 207.495 1698.17 201.129 Q1698.17 194.74 1701.32 191.129 Q1704.49 187.518 1710.07 187.518 Z" fill="#000000" fill-rule="evenodd" fill-opacity="1" /><path clip-path="url(#clip890)" d="M1728.59 203.837 L1728.59 188.143 L1732.85 188.143 L1732.85 203.675 Q1732.85 207.356 1734.28 209.208 Q1735.72 211.036 1738.59 211.036 Q1742.04 211.036 1744.03 208.837 Q1746.04 206.638 1746.04 202.842 L1746.04 188.143 L1750.3 188.143 L1750.3 214.069 L1746.04 214.069 L1746.04 210.087 Q1744.49 212.448 1742.43 213.606 Q1740.39 214.74 1737.68 214.74 Q1733.22 214.74 1730.9 211.962 Q1728.59 209.184 1728.59 203.837 M1739.3 187.518 L1739.3 187.518 Z" fill="#000000" fill-rule="evenodd" fill-opacity="1" /><path clip-path="url(#clip890)" d="M1763.19 210.18 L1763.19 223.93 L1758.91 223.93 L1758.91 188.143 L1763.19 188.143 L1763.19 192.078 Q1764.54 189.763 1766.57 188.652 Q1768.63 187.518 1771.48 187.518 Q1776.2 187.518 1779.14 191.268 Q1782.1 195.018 1782.1 201.129 Q1782.1 207.24 1779.14 210.99 Q1776.2 214.74 1771.48 214.74 Q1768.63 214.74 1766.57 213.629 Q1764.54 212.495 1763.19 210.18 M1777.68 201.129 Q1777.68 196.43 1775.74 193.768 Q1773.82 191.083 1770.44 191.083 Q1767.06 191.083 1765.11 193.768 Q1763.19 196.43 1763.19 201.129 Q1763.19 205.828 1765.11 208.513 Q1767.06 211.175 1770.44 211.175 Q1773.82 211.175 1775.74 208.513 Q1777.68 205.828 1777.68 201.129 Z" fill="#000000" fill-rule="evenodd" fill-opacity="1" /><path clip-path="url(#clip890)" d="M1789.17 178.05 L1793.42 178.05 L1793.42 214.069 L1789.17 214.069 L1789.17 178.05 Z" fill="#000000" fill-rule="evenodd" fill-opacity="1" /><path clip-path="url(#clip890)" d="M1824.51 200.041 L1824.51 202.124 L1804.93 202.124 Q1805.21 206.522 1807.57 208.837 Q1809.95 211.129 1814.19 211.129 Q1816.64 211.129 1818.93 210.527 Q1821.25 209.925 1823.52 208.721 L1823.52 212.749 Q1821.23 213.721 1818.82 214.231 Q1816.41 214.74 1813.93 214.74 Q1807.73 214.74 1804.1 211.129 Q1800.48 207.518 1800.48 201.36 Q1800.48 194.995 1803.91 191.268 Q1807.36 187.518 1813.19 187.518 Q1818.42 187.518 1821.46 190.897 Q1824.51 194.254 1824.51 200.041 M1820.25 198.791 Q1820.21 195.296 1818.29 193.212 Q1816.39 191.129 1813.24 191.129 Q1809.67 191.129 1807.52 193.143 Q1805.39 195.157 1805.07 198.814 L1820.25 198.791 Z" fill="#000000" fill-rule="evenodd" fill-opacity="1" /><path clip-path="url(#clip890)" d="M1848.56 192.078 L1848.56 178.05 L1852.82 178.05 L1852.82 214.069 L1848.56 214.069 L1848.56 210.18 Q1847.22 212.495 1845.16 213.629 Q1843.12 214.74 1840.25 214.74 Q1835.55 214.74 1832.59 210.99 Q1829.65 207.24 1829.65 201.129 Q1829.65 195.018 1832.59 191.268 Q1835.55 187.518 1840.25 187.518 Q1843.12 187.518 1845.16 188.652 Q1847.22 189.763 1848.56 192.078 M1834.05 201.129 Q1834.05 205.828 1835.97 208.513 Q1837.91 211.175 1841.29 211.175 Q1844.67 211.175 1846.62 208.513 Q1848.56 205.828 1848.56 201.129 Q1848.56 196.43 1846.62 193.768 Q1844.67 191.083 1841.29 191.083 Q1837.91 191.083 1835.97 193.768 Q1834.05 196.43 1834.05 201.129 Z" fill="#000000" fill-rule="evenodd" fill-opacity="1" /><path clip-path="url(#clip890)" d="M1893.19 188.907 L1893.19 192.934 Q1891.39 192.009 1889.44 191.546 Q1887.5 191.083 1885.41 191.083 Q1882.24 191.083 1880.65 192.055 Q1879.07 193.027 1879.07 194.971 Q1879.07 196.453 1880.21 197.309 Q1881.34 198.143 1884.77 198.907 L1886.22 199.231 Q1890.76 200.203 1892.66 201.985 Q1894.58 203.745 1894.58 206.916 Q1894.58 210.527 1891.71 212.633 Q1888.86 214.74 1883.86 214.74 Q1881.78 214.74 1879.51 214.323 Q1877.27 213.93 1874.77 213.12 L1874.77 208.721 Q1877.13 209.948 1879.42 210.573 Q1881.71 211.175 1883.96 211.175 Q1886.97 211.175 1888.59 210.157 Q1890.21 209.115 1890.21 207.24 Q1890.21 205.504 1889.03 204.578 Q1887.87 203.652 1883.91 202.796 L1882.43 202.448 Q1878.47 201.615 1876.71 199.902 Q1874.95 198.166 1874.95 195.157 Q1874.95 191.499 1877.54 189.509 Q1880.14 187.518 1884.91 187.518 Q1887.27 187.518 1889.35 187.865 Q1891.43 188.212 1893.19 188.907 Z" fill="#000000" fill-rule="evenodd" fill-opacity="1" /><path clip-path="url(#clip890)" d="M1912.15 216.476 Q1910.34 221.106 1908.63 222.518 Q1906.92 223.93 1904.05 223.93 L1900.65 223.93 L1900.65 220.365 L1903.15 220.365 Q1904.91 220.365 1905.88 219.532 Q1906.85 218.698 1908.03 215.596 L1908.79 213.652 L1898.31 188.143 L1902.82 188.143 L1910.92 208.421 L1919.03 188.143 L1923.54 188.143 L1912.15 216.476 Z" fill="#000000" fill-rule="evenodd" fill-opacity="1" /><path clip-path="url(#clip890)" d="M1945.95 188.907 L1945.95 192.934 Q1944.14 192.009 1942.2 191.546 Q1940.25 191.083 1938.17 191.083 Q1935 191.083 1933.4 192.055 Q1931.83 193.027 1931.83 194.971 Q1931.83 196.453 1932.96 197.309 Q1934.09 198.143 1937.52 198.907 L1938.98 199.231 Q1943.52 200.203 1945.41 201.985 Q1947.34 203.745 1947.34 206.916 Q1947.34 210.527 1944.47 212.633 Q1941.62 214.74 1936.62 214.74 Q1934.53 214.74 1932.27 214.323 Q1930.02 213.93 1927.52 213.12 L1927.52 208.721 Q1929.88 209.948 1932.17 210.573 Q1934.47 211.175 1936.71 211.175 Q1939.72 211.175 1941.34 210.157 Q1942.96 209.115 1942.96 207.24 Q1942.96 205.504 1941.78 204.578 Q1940.62 203.652 1936.66 202.796 L1935.18 202.448 Q1931.22 201.615 1929.47 199.902 Q1927.71 198.166 1927.71 195.157 Q1927.71 191.499 1930.3 189.509 Q1932.89 187.518 1937.66 187.518 Q1940.02 187.518 1942.1 187.865 Q1944.19 188.212 1945.95 188.907 Z" fill="#000000" fill-rule="evenodd" fill-opacity="1" /><path clip-path="url(#clip890)" d="M1958.33 180.782 L1958.33 188.143 L1967.1 188.143 L1967.1 191.453 L1958.33 191.453 L1958.33 205.527 Q1958.33 208.698 1959.19 209.601 Q1960.07 210.504 1962.73 210.504 L1967.1 210.504 L1967.1 214.069 L1962.73 214.069 Q1957.8 214.069 1955.92 212.24 Q1954.05 210.388 1954.05 205.527 L1954.05 191.453 L1950.92 191.453 L1950.92 188.143 L1954.05 188.143 L1954.05 180.782 L1958.33 180.782 Z" fill="#000000" fill-rule="evenodd" fill-opacity="1" /><path clip-path="url(#clip890)" d="M1994.88 200.041 L1994.88 202.124 L1975.3 202.124 Q1975.58 206.522 1977.94 208.837 Q1980.32 211.129 1984.56 211.129 Q1987.01 211.129 1989.3 210.527 Q1991.62 209.925 1993.89 208.721 L1993.89 212.749 Q1991.59 213.721 1989.19 214.231 Q1986.78 214.74 1984.3 214.74 Q1978.1 214.74 1974.46 211.129 Q1970.85 207.518 1970.85 201.36 Q1970.85 194.995 1974.28 191.268 Q1977.73 187.518 1983.56 187.518 Q1988.79 187.518 1991.83 190.897 Q1994.88 194.254 1994.88 200.041 M1990.62 198.791 Q1990.58 195.296 1988.65 193.212 Q1986.76 191.129 1983.61 191.129 Q1980.04 191.129 1977.89 193.143 Q1975.76 195.157 1975.44 198.814 L1990.62 198.791 Z" fill="#000000" fill-rule="evenodd" fill-opacity="1" /><path clip-path="url(#clip890)" d="M2022.06 193.12 Q2023.65 190.249 2025.88 188.884 Q2028.1 187.518 2031.11 187.518 Q2035.16 187.518 2037.36 190.365 Q2039.56 193.189 2039.56 198.421 L2039.56 214.069 L2035.27 214.069 L2035.27 198.559 Q2035.27 194.833 2033.96 193.027 Q2032.64 191.222 2029.93 191.222 Q2026.62 191.222 2024.7 193.421 Q2022.77 195.62 2022.77 199.416 L2022.77 214.069 L2018.49 214.069 L2018.49 198.559 Q2018.49 194.809 2017.17 193.027 Q2015.85 191.222 2013.1 191.222 Q2009.84 191.222 2007.91 193.444 Q2005.99 195.643 2005.99 199.416 L2005.99 214.069 L2001.71 214.069 L2001.71 188.143 L2005.99 188.143 L2005.99 192.171 Q2007.45 189.786 2009.49 188.652 Q2011.52 187.518 2014.33 187.518 Q2017.15 187.518 2019.12 188.953 Q2021.11 190.388 2022.06 193.12 Z" fill="#000000" fill-rule="evenodd" fill-opacity="1" /><path clip-path="url(#clip890)" d="M2073.35 178.097 Q2070.25 183.421 2068.75 188.629 Q2067.24 193.837 2067.24 199.184 Q2067.24 204.532 2068.75 209.786 Q2070.27 215.018 2073.35 220.319 L2069.65 220.319 Q2066.18 214.879 2064.44 209.624 Q2062.73 204.37 2062.73 199.184 Q2062.73 194.022 2064.44 188.791 Q2066.15 183.56 2069.65 178.097 L2073.35 178.097 Z" fill="#000000" fill-rule="evenodd" fill-opacity="1" /><path clip-path="url(#clip890)" d="M2092.4 216.476 Q2090.6 221.106 2088.89 222.518 Q2087.17 223.93 2084.3 223.93 L2080.9 223.93 L2080.9 220.365 L2083.4 220.365 Q2085.16 220.365 2086.13 219.532 Q2087.1 218.698 2088.28 215.596 L2089.05 213.652 L2078.56 188.143 L2083.08 188.143 L2091.18 208.421 L2099.28 188.143 L2103.79 188.143 L2092.4 216.476 Z" fill="#000000" fill-rule="evenodd" fill-opacity="1" /><path clip-path="url(#clip890)" d="M2122.59 199.184 L2135.07 199.184 L2135.07 202.981 L2122.59 202.981 L2122.59 199.184 Z" fill="#000000" fill-rule="evenodd" fill-opacity="1" /><path clip-path="url(#clip890)" d="M2142.4 190.735 L2142.4 186.522 L2172.08 197.286 L2172.08 201.129 L2142.4 211.893 L2142.4 207.68 L2166.25 199.231 L2142.4 190.735 Z" fill="#000000" fill-rule="evenodd" fill-opacity="1" /><path clip-path="url(#clip890)" d="M2218.19 188.143 L2208.82 200.759 L2218.68 214.069 L2213.65 214.069 L2206.11 203.883 L2198.56 214.069 L2193.54 214.069 L2203.61 200.504 L2194.39 188.143 L2199.42 188.143 L2206.29 197.379 L2213.17 188.143 L2218.19 188.143 Z" fill="#000000" fill-rule="evenodd" fill-opacity="1" /><path clip-path="url(#clip890)" d="M2224.02 178.097 L2227.73 178.097 Q2231.2 183.56 2232.91 188.791 Q2234.65 194.022 2234.65 199.184 Q2234.65 204.37 2232.91 209.624 Q2231.2 214.879 2227.73 220.319 L2224.02 220.319 Q2227.1 215.018 2228.61 209.786 Q2230.13 204.532 2230.13 199.184 Q2230.13 193.837 2228.61 188.629 Q2227.1 183.421 2224.02 178.097 Z" fill="#000000" fill-rule="evenodd" fill-opacity="1" /><polyline clip-path="url(#clip890)" style="stroke:#3da44d; stroke-linecap:butt; stroke-linejoin:round; stroke-width:4; stroke-opacity:1; fill:none" points="
  1246.77,248.629 1390.77,248.629 
  "/>
<circle clip-path="url(#clip890)" cx="1318.77" cy="248.629" r="23" fill="#3da44d" fill-rule="evenodd" fill-opacity="1" stroke="#000000" stroke-opacity="1" stroke-width="10.24"/>
<path clip-path="url(#clip890)" d="M1436.48 250.261 L1436.48 265.909 L1432.22 265.909 L1432.22 250.399 Q1432.22 246.719 1430.79 244.89 Q1429.35 243.062 1426.48 243.062 Q1423.03 243.062 1421.04 245.261 Q1419.05 247.46 1419.05 251.256 L1419.05 265.909 L1414.77 265.909 L1414.77 229.89 L1419.05 229.89 L1419.05 244.011 Q1420.58 241.673 1422.64 240.515 Q1424.72 239.358 1427.43 239.358 Q1431.9 239.358 1434.19 242.136 Q1436.48 244.89 1436.48 250.261 Z" fill="#000000" fill-rule="evenodd" fill-opacity="1" /><path clip-path="url(#clip890)" d="M1467.15 251.881 L1467.15 253.964 L1447.57 253.964 Q1447.85 258.362 1450.21 260.677 Q1452.59 262.969 1456.83 262.969 Q1459.28 262.969 1461.57 262.367 Q1463.89 261.765 1466.16 260.561 L1466.16 264.589 Q1463.87 265.561 1461.46 266.071 Q1459.05 266.58 1456.57 266.58 Q1450.37 266.58 1446.74 262.969 Q1443.13 259.358 1443.13 253.2 Q1443.13 246.835 1446.55 243.108 Q1450 239.358 1455.83 239.358 Q1461.06 239.358 1464.1 242.737 Q1467.15 246.094 1467.15 251.881 M1462.89 250.631 Q1462.85 247.136 1460.93 245.052 Q1459.03 242.969 1455.88 242.969 Q1452.32 242.969 1450.16 244.983 Q1448.03 246.997 1447.71 250.654 L1462.89 250.631 Z" fill="#000000" fill-rule="evenodd" fill-opacity="1" /><path clip-path="url(#clip890)" d="M1495.69 250.261 L1495.69 265.909 L1491.44 265.909 L1491.44 250.399 Q1491.44 246.719 1490 244.89 Q1488.56 243.062 1485.69 243.062 Q1482.25 243.062 1480.25 245.261 Q1478.26 247.46 1478.26 251.256 L1478.26 265.909 L1473.98 265.909 L1473.98 239.983 L1478.26 239.983 L1478.26 244.011 Q1479.79 241.673 1481.85 240.515 Q1483.94 239.358 1486.64 239.358 Q1491.11 239.358 1493.4 242.136 Q1495.69 244.89 1495.69 250.261 Z" fill="#000000" fill-rule="evenodd" fill-opacity="1" /><path clip-path="url(#clip890)" d="M1514.24 242.969 Q1510.81 242.969 1508.82 245.654 Q1506.83 248.316 1506.83 252.969 Q1506.83 257.622 1508.8 260.307 Q1510.79 262.969 1514.24 262.969 Q1517.64 262.969 1519.63 260.284 Q1521.62 257.598 1521.62 252.969 Q1521.62 248.362 1519.63 245.677 Q1517.64 242.969 1514.24 242.969 M1514.24 239.358 Q1519.79 239.358 1522.96 242.969 Q1526.13 246.58 1526.13 252.969 Q1526.13 259.335 1522.96 262.969 Q1519.79 266.58 1514.24 266.58 Q1508.66 266.58 1505.49 262.969 Q1502.34 259.335 1502.34 252.969 Q1502.34 246.58 1505.49 242.969 Q1508.66 239.358 1514.24 239.358 Z" fill="#000000" fill-rule="evenodd" fill-opacity="1" /><path clip-path="url(#clip890)" d="M1554.75 250.261 L1554.75 265.909 L1550.49 265.909 L1550.49 250.399 Q1550.49 246.719 1549.05 244.89 Q1547.62 243.062 1544.75 243.062 Q1541.3 243.062 1539.31 245.261 Q1537.31 247.46 1537.31 251.256 L1537.31 265.909 L1533.03 265.909 L1533.03 239.983 L1537.31 239.983 L1537.31 244.011 Q1538.84 241.673 1540.9 240.515 Q1542.99 239.358 1545.69 239.358 Q1550.16 239.358 1552.45 242.136 Q1554.75 244.89 1554.75 250.261 Z" fill="#000000" fill-rule="evenodd" fill-opacity="1" /><path clip-path="url(#clip890)" d="M1577.87 255.677 L1577.87 239.983 L1582.13 239.983 L1582.13 255.515 Q1582.13 259.196 1583.56 261.048 Q1585 262.876 1587.87 262.876 Q1591.32 262.876 1593.31 260.677 Q1595.32 258.478 1595.32 254.682 L1595.32 239.983 L1599.58 239.983 L1599.58 265.909 L1595.32 265.909 L1595.32 261.927 Q1593.77 264.288 1591.71 265.446 Q1589.68 266.58 1586.97 266.58 Q1582.5 266.58 1580.18 263.802 Q1577.87 261.024 1577.87 255.677 M1588.59 239.358 L1588.59 239.358 Z" fill="#000000" fill-rule="evenodd" fill-opacity="1" /><path clip-path="url(#clip890)" d="M1629.91 250.261 L1629.91 265.909 L1625.65 265.909 L1625.65 250.399 Q1625.65 246.719 1624.21 244.89 Q1622.78 243.062 1619.91 243.062 Q1616.46 243.062 1614.47 245.261 Q1612.48 247.46 1612.48 251.256 L1612.48 265.909 L1608.19 265.909 L1608.19 239.983 L1612.48 239.983 L1612.48 244.011 Q1614 241.673 1616.06 240.515 Q1618.15 239.358 1620.86 239.358 Q1625.32 239.358 1627.61 242.136 Q1629.91 244.89 1629.91 250.261 Z" fill="#000000" fill-rule="evenodd" fill-opacity="1" /><path clip-path="url(#clip890)" d="M1638.4 239.983 L1642.66 239.983 L1642.66 265.909 L1638.4 265.909 L1638.4 239.983 M1638.4 229.89 L1642.66 229.89 L1642.66 235.284 L1638.4 235.284 L1638.4 229.89 Z" fill="#000000" fill-rule="evenodd" fill-opacity="1" /><path clip-path="url(#clip890)" d="M1668.63 243.918 L1668.63 229.89 L1672.89 229.89 L1672.89 265.909 L1668.63 265.909 L1668.63 262.02 Q1667.29 264.335 1665.23 265.469 Q1663.19 266.58 1660.32 266.58 Q1655.62 266.58 1652.66 262.83 Q1649.72 259.08 1649.72 252.969 Q1649.72 246.858 1652.66 243.108 Q1655.62 239.358 1660.32 239.358 Q1663.19 239.358 1665.23 240.492 Q1667.29 241.603 1668.63 243.918 M1654.12 252.969 Q1654.12 257.668 1656.04 260.353 Q1657.99 263.015 1661.36 263.015 Q1664.74 263.015 1666.69 260.353 Q1668.63 257.668 1668.63 252.969 Q1668.63 248.27 1666.69 245.608 Q1664.74 242.923 1661.36 242.923 Q1657.99 242.923 1656.04 245.608 Q1654.12 248.27 1654.12 252.969 Z" fill="#000000" fill-rule="evenodd" fill-opacity="1" /><path clip-path="url(#clip890)" d="M1681.67 239.983 L1685.92 239.983 L1685.92 265.909 L1681.67 265.909 L1681.67 239.983 M1681.67 229.89 L1685.92 229.89 L1685.92 235.284 L1681.67 235.284 L1681.67 229.89 Z" fill="#000000" fill-rule="evenodd" fill-opacity="1" /><path clip-path="url(#clip890)" d="M1709.86 243.964 Q1709.14 243.548 1708.29 243.362 Q1707.45 243.154 1706.43 243.154 Q1702.82 243.154 1700.88 245.515 Q1698.96 247.853 1698.96 252.251 L1698.96 265.909 L1694.67 265.909 L1694.67 239.983 L1698.96 239.983 L1698.96 244.011 Q1700.3 241.649 1702.45 240.515 Q1704.61 239.358 1707.68 239.358 Q1708.12 239.358 1708.66 239.427 Q1709.19 239.474 1709.84 239.589 L1709.86 243.964 Z" fill="#000000" fill-rule="evenodd" fill-opacity="1" /><path clip-path="url(#clip890)" d="M1739.63 229.937 Q1736.53 235.261 1735.02 240.469 Q1733.52 245.677 1733.52 251.024 Q1733.52 256.372 1735.02 261.626 Q1736.55 266.858 1739.63 272.159 L1735.92 272.159 Q1732.45 266.719 1730.72 261.464 Q1729 256.21 1729 251.024 Q1729 245.862 1730.72 240.631 Q1732.43 235.4 1735.92 229.937 L1739.63 229.937 Z" fill="#000000" fill-rule="evenodd" fill-opacity="1" /><path clip-path="url(#clip890)" d="M1769.44 239.983 L1760.07 252.599 L1769.93 265.909 L1764.91 265.909 L1757.36 255.723 L1749.81 265.909 L1744.79 265.909 L1754.86 252.344 L1745.65 239.983 L1750.67 239.983 L1757.54 249.219 L1764.42 239.983 L1769.44 239.983 Z" fill="#000000" fill-rule="evenodd" fill-opacity="1" /><path clip-path="url(#clip890)" d="M1788.86 251.024 L1801.34 251.024 L1801.34 254.821 L1788.86 254.821 L1788.86 251.024 Z" fill="#000000" fill-rule="evenodd" fill-opacity="1" /><path clip-path="url(#clip890)" d="M1808.68 242.575 L1808.68 238.362 L1838.35 249.126 L1838.35 252.969 L1808.68 263.733 L1808.68 259.52 L1832.52 251.071 L1808.68 242.575 Z" fill="#000000" fill-rule="evenodd" fill-opacity="1" /><path clip-path="url(#clip890)" d="M1873.7 268.316 Q1871.9 272.946 1870.18 274.358 Q1868.47 275.77 1865.6 275.77 L1862.2 275.77 L1862.2 272.205 L1864.7 272.205 Q1866.46 272.205 1867.43 271.372 Q1868.4 270.538 1869.58 267.436 L1870.35 265.492 L1859.86 239.983 L1864.37 239.983 L1872.47 260.261 L1880.58 239.983 L1885.09 239.983 L1873.7 268.316 Z" fill="#000000" fill-rule="evenodd" fill-opacity="1" /><path clip-path="url(#clip890)" d="M1890.3 229.937 L1894 229.937 Q1897.47 235.4 1899.19 240.631 Q1900.92 245.862 1900.92 251.024 Q1900.92 256.21 1899.19 261.464 Q1897.47 266.719 1894 272.159 L1890.3 272.159 Q1893.38 266.858 1894.88 261.626 Q1896.41 256.372 1896.41 251.024 Q1896.41 245.677 1894.88 240.469 Q1893.38 235.261 1890.3 229.937 Z" fill="#000000" fill-rule="evenodd" fill-opacity="1" /><polyline clip-path="url(#clip890)" style="stroke:#c271d2; stroke-linecap:butt; stroke-linejoin:round; stroke-width:4; stroke-opacity:1; fill:none" points="
  1246.77,300.469 1390.77,300.469 
  "/>
<circle clip-path="url(#clip890)" cx="1318.77" cy="300.469" r="23" fill="#c271d2" fill-rule="evenodd" fill-opacity="1" stroke="#000000" stroke-opacity="1" stroke-width="10.24"/>
<path clip-path="url(#clip890)" d="M1436.48 302.101 L1436.48 317.749 L1432.22 317.749 L1432.22 302.239 Q1432.22 298.559 1430.79 296.73 Q1429.35 294.902 1426.48 294.902 Q1423.03 294.902 1421.04 297.101 Q1419.05 299.3 1419.05 303.096 L1419.05 317.749 L1414.77 317.749 L1414.77 281.73 L1419.05 281.73 L1419.05 295.851 Q1420.58 293.513 1422.64 292.355 Q1424.72 291.198 1427.43 291.198 Q1431.9 291.198 1434.19 293.976 Q1436.48 296.73 1436.48 302.101 Z" fill="#000000" fill-rule="evenodd" fill-opacity="1" /><path clip-path="url(#clip890)" d="M1467.15 303.721 L1467.15 305.804 L1447.57 305.804 Q1447.85 310.202 1450.21 312.517 Q1452.59 314.809 1456.83 314.809 Q1459.28 314.809 1461.57 314.207 Q1463.89 313.605 1466.16 312.401 L1466.16 316.429 Q1463.87 317.401 1461.46 317.911 Q1459.05 318.42 1456.57 318.42 Q1450.37 318.42 1446.74 314.809 Q1443.13 311.198 1443.13 305.04 Q1443.13 298.675 1446.55 294.948 Q1450 291.198 1455.83 291.198 Q1461.06 291.198 1464.1 294.577 Q1467.15 297.934 1467.15 303.721 M1462.89 302.471 Q1462.85 298.976 1460.93 296.892 Q1459.03 294.809 1455.88 294.809 Q1452.32 294.809 1450.16 296.823 Q1448.03 298.837 1447.71 302.494 L1462.89 302.471 Z" fill="#000000" fill-rule="evenodd" fill-opacity="1" /><path clip-path="url(#clip890)" d="M1495.69 302.101 L1495.69 317.749 L1491.44 317.749 L1491.44 302.239 Q1491.44 298.559 1490 296.73 Q1488.56 294.902 1485.69 294.902 Q1482.25 294.902 1480.25 297.101 Q1478.26 299.3 1478.26 303.096 L1478.26 317.749 L1473.98 317.749 L1473.98 291.823 L1478.26 291.823 L1478.26 295.851 Q1479.79 293.513 1481.85 292.355 Q1483.94 291.198 1486.64 291.198 Q1491.11 291.198 1493.4 293.976 Q1495.69 296.73 1495.69 302.101 Z" fill="#000000" fill-rule="evenodd" fill-opacity="1" /><path clip-path="url(#clip890)" d="M1514.24 294.809 Q1510.81 294.809 1508.82 297.494 Q1506.83 300.156 1506.83 304.809 Q1506.83 309.462 1508.8 312.147 Q1510.79 314.809 1514.24 314.809 Q1517.64 314.809 1519.63 312.124 Q1521.62 309.438 1521.62 304.809 Q1521.62 300.202 1519.63 297.517 Q1517.64 294.809 1514.24 294.809 M1514.24 291.198 Q1519.79 291.198 1522.96 294.809 Q1526.13 298.42 1526.13 304.809 Q1526.13 311.175 1522.96 314.809 Q1519.79 318.42 1514.24 318.42 Q1508.66 318.42 1505.49 314.809 Q1502.34 311.175 1502.34 304.809 Q1502.34 298.42 1505.49 294.809 Q1508.66 291.198 1514.24 291.198 Z" fill="#000000" fill-rule="evenodd" fill-opacity="1" /><path clip-path="url(#clip890)" d="M1554.75 302.101 L1554.75 317.749 L1550.49 317.749 L1550.49 302.239 Q1550.49 298.559 1549.05 296.73 Q1547.62 294.902 1544.75 294.902 Q1541.3 294.902 1539.31 297.101 Q1537.31 299.3 1537.31 303.096 L1537.31 317.749 L1533.03 317.749 L1533.03 291.823 L1537.31 291.823 L1537.31 295.851 Q1538.84 293.513 1540.9 292.355 Q1542.99 291.198 1545.69 291.198 Q1550.16 291.198 1552.45 293.976 Q1554.75 296.73 1554.75 302.101 Z" fill="#000000" fill-rule="evenodd" fill-opacity="1" /><path clip-path="url(#clip890)" d="M1577.87 307.517 L1577.87 291.823 L1582.13 291.823 L1582.13 307.355 Q1582.13 311.036 1583.56 312.888 Q1585 314.716 1587.87 314.716 Q1591.32 314.716 1593.31 312.517 Q1595.32 310.318 1595.32 306.522 L1595.32 291.823 L1599.58 291.823 L1599.58 317.749 L1595.32 317.749 L1595.32 313.767 Q1593.77 316.128 1591.71 317.286 Q1589.68 318.42 1586.97 318.42 Q1582.5 318.42 1580.18 315.642 Q1577.87 312.864 1577.87 307.517 M1588.59 291.198 L1588.59 291.198 Z" fill="#000000" fill-rule="evenodd" fill-opacity="1" /><path clip-path="url(#clip890)" d="M1629.91 302.101 L1629.91 317.749 L1625.65 317.749 L1625.65 302.239 Q1625.65 298.559 1624.21 296.73 Q1622.78 294.902 1619.91 294.902 Q1616.46 294.902 1614.47 297.101 Q1612.48 299.3 1612.48 303.096 L1612.48 317.749 L1608.19 317.749 L1608.19 291.823 L1612.48 291.823 L1612.48 295.851 Q1614 293.513 1616.06 292.355 Q1618.15 291.198 1620.86 291.198 Q1625.32 291.198 1627.61 293.976 Q1629.91 296.73 1629.91 302.101 Z" fill="#000000" fill-rule="evenodd" fill-opacity="1" /><path clip-path="url(#clip890)" d="M1638.4 291.823 L1642.66 291.823 L1642.66 317.749 L1638.4 317.749 L1638.4 291.823 M1638.4 281.73 L1642.66 281.73 L1642.66 287.124 L1638.4 287.124 L1638.4 281.73 Z" fill="#000000" fill-rule="evenodd" fill-opacity="1" /><path clip-path="url(#clip890)" d="M1668.63 295.758 L1668.63 281.73 L1672.89 281.73 L1672.89 317.749 L1668.63 317.749 L1668.63 313.86 Q1667.29 316.175 1665.23 317.309 Q1663.19 318.42 1660.32 318.42 Q1655.62 318.42 1652.66 314.67 Q1649.72 310.92 1649.72 304.809 Q1649.72 298.698 1652.66 294.948 Q1655.62 291.198 1660.32 291.198 Q1663.19 291.198 1665.23 292.332 Q1667.29 293.443 1668.63 295.758 M1654.12 304.809 Q1654.12 309.508 1656.04 312.193 Q1657.99 314.855 1661.36 314.855 Q1664.74 314.855 1666.69 312.193 Q1668.63 309.508 1668.63 304.809 Q1668.63 300.11 1666.69 297.448 Q1664.74 294.763 1661.36 294.763 Q1657.99 294.763 1656.04 297.448 Q1654.12 300.11 1654.12 304.809 Z" fill="#000000" fill-rule="evenodd" fill-opacity="1" /><path clip-path="url(#clip890)" d="M1681.67 291.823 L1685.92 291.823 L1685.92 317.749 L1681.67 317.749 L1681.67 291.823 M1681.67 281.73 L1685.92 281.73 L1685.92 287.124 L1681.67 287.124 L1681.67 281.73 Z" fill="#000000" fill-rule="evenodd" fill-opacity="1" /><path clip-path="url(#clip890)" d="M1709.86 295.804 Q1709.14 295.388 1708.29 295.202 Q1707.45 294.994 1706.43 294.994 Q1702.82 294.994 1700.88 297.355 Q1698.96 299.693 1698.96 304.091 L1698.96 317.749 L1694.67 317.749 L1694.67 291.823 L1698.96 291.823 L1698.96 295.851 Q1700.3 293.489 1702.45 292.355 Q1704.61 291.198 1707.68 291.198 Q1708.12 291.198 1708.66 291.267 Q1709.19 291.314 1709.84 291.429 L1709.86 295.804 Z" fill="#000000" fill-rule="evenodd" fill-opacity="1" /><path clip-path="url(#clip890)" d="M1739.63 281.777 Q1736.53 287.101 1735.02 292.309 Q1733.52 297.517 1733.52 302.864 Q1733.52 308.212 1735.02 313.466 Q1736.55 318.698 1739.63 323.999 L1735.92 323.999 Q1732.45 318.559 1730.72 313.304 Q1729 308.05 1729 302.864 Q1729 297.702 1730.72 292.471 Q1732.43 287.24 1735.92 281.777 L1739.63 281.777 Z" fill="#000000" fill-rule="evenodd" fill-opacity="1" /><path clip-path="url(#clip890)" d="M1758.68 320.156 Q1756.87 324.786 1755.16 326.198 Q1753.45 327.61 1750.58 327.61 L1747.17 327.61 L1747.17 324.045 L1749.67 324.045 Q1751.43 324.045 1752.41 323.212 Q1753.38 322.378 1754.56 319.276 L1755.32 317.332 L1744.84 291.823 L1749.35 291.823 L1757.45 312.101 L1765.55 291.823 L1770.07 291.823 L1758.68 320.156 Z" fill="#000000" fill-rule="evenodd" fill-opacity="1" /><path clip-path="url(#clip890)" d="M1788.86 302.864 L1801.34 302.864 L1801.34 306.661 L1788.86 306.661 L1788.86 302.864 Z" fill="#000000" fill-rule="evenodd" fill-opacity="1" /><path clip-path="url(#clip890)" d="M1808.68 294.415 L1808.68 290.202 L1838.35 300.966 L1838.35 304.809 L1808.68 315.573 L1808.68 311.36 L1832.52 302.911 L1808.68 294.415 Z" fill="#000000" fill-rule="evenodd" fill-opacity="1" /><path clip-path="url(#clip890)" d="M1884.47 291.823 L1875.09 304.439 L1884.95 317.749 L1879.93 317.749 L1872.38 307.563 L1864.84 317.749 L1859.81 317.749 L1869.88 304.184 L1860.67 291.823 L1865.69 291.823 L1872.57 301.059 L1879.44 291.823 L1884.47 291.823 Z" fill="#000000" fill-rule="evenodd" fill-opacity="1" /><path clip-path="url(#clip890)" d="M1890.3 281.777 L1894 281.777 Q1897.47 287.24 1899.19 292.471 Q1900.92 297.702 1900.92 302.864 Q1900.92 308.05 1899.19 313.304 Q1897.47 318.559 1894 323.999 L1890.3 323.999 Q1893.38 318.698 1894.88 313.466 Q1896.41 308.212 1896.41 302.864 Q1896.41 297.517 1894.88 292.309 Q1893.38 287.101 1890.3 281.777 Z" fill="#000000" fill-rule="evenodd" fill-opacity="1" /></svg>
